solid ascii
  facet normal -9.109575e-002 -9.958421e-001 0.000000e+000
    outer loop
      vertex   1.976139e+003 -4.510691e+002 -3.000000e+000
      vertex   1.987246e+003 -4.520851e+002 -3.000000e+000
      vertex   1.976139e+003 -4.510691e+002 0.000000e+000
    endloop
  endfacet
  facet normal -9.109575e-002 -9.958421e-001 2.358628e-014
    outer loop
      vertex   1.976139e+003 -4.510691e+002 0.000000e+000
      vertex   1.987246e+003 -4.520851e+002 -3.000000e+000
      vertex   1.987246e+003 -4.520851e+002 1.776357e-014
    endloop
  endfacet
  facet normal -9.109575e-002 -9.958421e-001 2.358628e-014
    outer loop
      vertex   1.987246e+003 -4.520851e+002 1.776357e-014
      vertex   1.987246e+003 -4.520851e+002 -3.000000e+000
      vertex   1.998353e+003 -4.531012e+002 -3.000000e+000
    endloop
  endfacet
  facet normal -9.109575e-002 -9.958421e-001 2.358628e-014
    outer loop
      vertex   1.998353e+003 -4.531012e+002 1.776357e-014
      vertex   1.998353e+003 -4.531012e+002 -3.000000e+000
      vertex   2.009460e+003 -4.541172e+002 -3.000000e+000
    endloop
  endfacet
  facet normal -9.109575e-002 -9.958421e-001 4.717256e-014
    outer loop
      vertex   2.009460e+003 -4.541172e+002 1.776357e-014
      vertex   2.009460e+003 -4.541172e+002 -3.000000e+000
      vertex   2.020567e+003 -4.551332e+002 -3.000000e+000
    endloop
  endfacet
  facet normal -9.109575e-002 -9.958421e-001 0.000000e+000
    outer loop
      vertex   2.020567e+003 -4.551332e+002 0.000000e+000
      vertex   2.009460e+003 -4.541172e+002 1.776357e-014
      vertex   2.020567e+003 -4.551332e+002 -3.000000e+000
    endloop
  endfacet
  facet normal -9.109575e-002 -9.958421e-001 4.715734e-014
    outer loop
      vertex   2.009460e+003 -4.541172e+002 1.776357e-014
      vertex   1.998353e+003 -4.531012e+002 1.776357e-014
      vertex   2.009460e+003 -4.541172e+002 -3.000000e+000
    endloop
  endfacet
  facet normal -9.109575e-002 -9.958421e-001 2.355793e-014
    outer loop
      vertex   1.998353e+003 -4.531012e+002 1.776357e-014
      vertex   1.987246e+003 -4.520851e+002 1.776357e-014
      vertex   1.998353e+003 -4.531012e+002 -3.000000e+000
    endloop
  endfacet
  facet normal -5.853140e-002 -9.982856e-001 0.000000e+000
    outer loop
      vertex   1.955981e+003 -4.498872e+002 -3.000000e+000
      vertex   1.966060e+003 -4.504781e+002 -3.000000e+000
      vertex   1.955981e+003 -4.498872e+002 0.000000e+000
    endloop
  endfacet
  facet normal -5.853140e-002 -9.982856e-001 0.000000e+000
    outer loop
      vertex   1.955981e+003 -4.498872e+002 0.000000e+000
      vertex   1.966060e+003 -4.504781e+002 -3.000000e+000
      vertex   1.966060e+003 -4.504781e+002 1.776357e-014
    endloop
  endfacet
  facet normal -5.853140e-002 -9.982856e-001 -0.000000e+000
    outer loop
      vertex   1.966060e+003 -4.504781e+002 1.776357e-014
      vertex   1.966060e+003 -4.504781e+002 -3.000000e+000
      vertex   1.976139e+003 -4.510691e+002 -3.000000e+000
    endloop
  endfacet
  facet normal -5.853140e-002 -9.982856e-001 0.000000e+000
    outer loop
      vertex   1.976139e+003 -4.510691e+002 0.000000e+000
      vertex   1.966060e+003 -4.504781e+002 1.776357e-014
      vertex   1.976139e+003 -4.510691e+002 -3.000000e+000
    endloop
  endfacet
  facet normal 1.000000e+000 0.000000e+000 -0.000000e+000
    outer loop
      vertex   1.955981e+003 -4.660004e+002 -3.000000e+000
      vertex   1.955981e+003 -4.498872e+002 -3.000000e+000
      vertex   1.955981e+003 -4.660004e+002 0.000000e+000
    endloop
  endfacet
  facet normal 1.000000e+000 -0.000000e+000 0.000000e+000
    outer loop
      vertex   1.955981e+003 -4.660004e+002 0.000000e+000
      vertex   1.955981e+003 -4.498872e+002 -3.000000e+000
      vertex   1.955981e+003 -4.498872e+002 0.000000e+000
    endloop
  endfacet
  facet normal 0.000000e+000 1.000000e+000 -0.000000e+000
    outer loop
      vertex   2.053080e+003 -4.660004e+002 -3.000000e+000
      vertex   2.040943e+003 -4.660004e+002 -3.000000e+000
      vertex   2.053080e+003 -4.660004e+002 0.000000e+000
    endloop
  endfacet
  facet normal 5.854146e-015 1.000000e+000 -2.368476e-014
    outer loop
      vertex   2.053080e+003 -4.660004e+002 0.000000e+000
      vertex   2.040943e+003 -4.660004e+002 -3.000000e+000
      vertex   2.040943e+003 -4.660004e+002 0.000000e+000
    endloop
  endfacet
  facet normal 0.000000e+000 1.000000e+000 -2.368476e-014
    outer loop
      vertex   2.040943e+003 -4.660004e+002 0.000000e+000
      vertex   2.040943e+003 -4.660004e+002 -3.000000e+000
      vertex   2.028805e+003 -4.660004e+002 -3.000000e+000
    endloop
  endfacet
  facet normal 0.000000e+000 1.000000e+000 -2.368476e-014
    outer loop
      vertex   2.028805e+003 -4.660004e+002 0.000000e+000
      vertex   2.028805e+003 -4.660004e+002 -3.000000e+000
      vertex   2.016668e+003 -4.660004e+002 -3.000000e+000
    endloop
  endfacet
  facet normal 0.000000e+000 1.000000e+000 -2.368476e-014
    outer loop
      vertex   2.016668e+003 -4.660004e+002 0.000000e+000
      vertex   2.016668e+003 -4.660004e+002 -3.000000e+000
      vertex   2.004530e+003 -4.660004e+002 -3.000000e+000
    endloop
  endfacet
  facet normal 0.000000e+000 1.000000e+000 -2.368476e-014
    outer loop
      vertex   2.004530e+003 -4.660004e+002 0.000000e+000
      vertex   2.004530e+003 -4.660004e+002 -3.000000e+000
      vertex   1.992393e+003 -4.660004e+002 -3.000000e+000
    endloop
  endfacet
  facet normal 0.000000e+000 1.000000e+000 -2.368476e-014
    outer loop
      vertex   1.992393e+003 -4.660004e+002 0.000000e+000
      vertex   1.992393e+003 -4.660004e+002 -3.000000e+000
      vertex   1.980255e+003 -4.660004e+002 -3.000000e+000
    endloop
  endfacet
  facet normal 0.000000e+000 1.000000e+000 -2.368476e-014
    outer loop
      vertex   1.980255e+003 -4.660004e+002 0.000000e+000
      vertex   1.980255e+003 -4.660004e+002 -3.000000e+000
      vertex   1.968118e+003 -4.660004e+002 -3.000000e+000
    endloop
  endfacet
  facet normal 0.000000e+000 1.000000e+000 -2.368476e-014
    outer loop
      vertex   1.968118e+003 -4.660004e+002 0.000000e+000
      vertex   1.968118e+003 -4.660004e+002 -3.000000e+000
      vertex   1.955981e+003 -4.660004e+002 -3.000000e+000
    endloop
  endfacet
  facet normal -5.854146e-015 1.000000e+000 0.000000e+000
    outer loop
      vertex   1.955981e+003 -4.660004e+002 0.000000e+000
      vertex   1.968118e+003 -4.660004e+002 0.000000e+000
      vertex   1.955981e+003 -4.660004e+002 -3.000000e+000
    endloop
  endfacet
  facet normal 0.000000e+000 1.000000e+000 -2.368476e-014
    outer loop
      vertex   1.968118e+003 -4.660004e+002 0.000000e+000
      vertex   1.980255e+003 -4.660004e+002 0.000000e+000
      vertex   1.968118e+003 -4.660004e+002 -3.000000e+000
    endloop
  endfacet
  facet normal 0.000000e+000 1.000000e+000 -2.368476e-014
    outer loop
      vertex   1.980255e+003 -4.660004e+002 0.000000e+000
      vertex   1.992393e+003 -4.660004e+002 0.000000e+000
      vertex   1.980255e+003 -4.660004e+002 -3.000000e+000
    endloop
  endfacet
  facet normal 0.000000e+000 1.000000e+000 -2.368476e-014
    outer loop
      vertex   1.992393e+003 -4.660004e+002 0.000000e+000
      vertex   2.004530e+003 -4.660004e+002 0.000000e+000
      vertex   1.992393e+003 -4.660004e+002 -3.000000e+000
    endloop
  endfacet
  facet normal 0.000000e+000 1.000000e+000 -2.368476e-014
    outer loop
      vertex   2.004530e+003 -4.660004e+002 0.000000e+000
      vertex   2.016668e+003 -4.660004e+002 0.000000e+000
      vertex   2.004530e+003 -4.660004e+002 -3.000000e+000
    endloop
  endfacet
  facet normal 0.000000e+000 1.000000e+000 -2.368476e-014
    outer loop
      vertex   2.016668e+003 -4.660004e+002 0.000000e+000
      vertex   2.028805e+003 -4.660004e+002 0.000000e+000
      vertex   2.016668e+003 -4.660004e+002 -3.000000e+000
    endloop
  endfacet
  facet normal 0.000000e+000 1.000000e+000 -2.368476e-014
    outer loop
      vertex   2.028805e+003 -4.660004e+002 0.000000e+000
      vertex   2.040943e+003 -4.660004e+002 0.000000e+000
      vertex   2.028805e+003 -4.660004e+002 -3.000000e+000
    endloop
  endfacet
  facet normal -1.378751e-001 -9.904496e-001 0.000000e+000
    outer loop
      vertex   2.020567e+003 -4.551332e+002 -3.000000e+000
      vertex   2.036823e+003 -4.573962e+002 -3.000000e+000
      vertex   2.020567e+003 -4.551332e+002 0.000000e+000
    endloop
  endfacet
  facet normal -1.378751e-001 -9.904496e-001 0.000000e+000
    outer loop
      vertex   2.020567e+003 -4.551332e+002 0.000000e+000
      vertex   2.036823e+003 -4.573962e+002 -3.000000e+000
      vertex   2.036823e+003 -4.573962e+002 0.000000e+000
    endloop
  endfacet
  facet normal -1.378751e-001 -9.904496e-001 -0.000000e+000
    outer loop
      vertex   2.036823e+003 -4.573962e+002 0.000000e+000
      vertex   2.036823e+003 -4.573962e+002 -3.000000e+000
      vertex   2.053080e+003 -4.596592e+002 -3.000000e+000
    endloop
  endfacet
  facet normal -1.378751e-001 -9.904496e-001 0.000000e+000
    outer loop
      vertex   2.053080e+003 -4.596592e+002 0.000000e+000
      vertex   2.036823e+003 -4.573962e+002 0.000000e+000
      vertex   2.053080e+003 -4.596592e+002 -3.000000e+000
    endloop
  endfacet
  facet normal -1.000000e+000 0.000000e+000 0.000000e+000
    outer loop
      vertex   2.053080e+003 -4.596592e+002 -3.000000e+000
      vertex   2.053080e+003 -4.660004e+002 -3.000000e+000
      vertex   2.053080e+003 -4.596592e+002 0.000000e+000
    endloop
  endfacet
  facet normal -1.000000e+000 -0.000000e+000 0.000000e+000
    outer loop
      vertex   2.053080e+003 -4.596592e+002 0.000000e+000
      vertex   2.053080e+003 -4.660004e+002 -3.000000e+000
      vertex   2.053080e+003 -4.660004e+002 0.000000e+000
    endloop
  endfacet
  facet normal 2.514928e-002 -9.996837e-001 0.000000e+000
    outer loop
      vertex   1.918409e+003 -4.501454e+002 -3.000000e+000
      vertex   1.933096e+003 -4.497759e+002 -3.000000e+000
      vertex   1.918409e+003 -4.501454e+002 0.000000e+000
    endloop
  endfacet
  facet normal 2.514928e-002 -9.996837e-001 0.000000e+000
    outer loop
      vertex   1.918409e+003 -4.501454e+002 0.000000e+000
      vertex   1.933096e+003 -4.497759e+002 -3.000000e+000
      vertex   1.933096e+003 -4.497759e+002 0.000000e+000
    endloop
  endfacet
  facet normal 2.514928e-002 -9.996837e-001 0.000000e+000
    outer loop
      vertex   1.933096e+003 -4.497759e+002 0.000000e+000
      vertex   1.933096e+003 -4.497759e+002 -3.000000e+000
      vertex   1.947782e+003 -4.494065e+002 -3.000000e+000
    endloop
  endfacet
  facet normal 2.514928e-002 -9.996837e-001 0.000000e+000
    outer loop
      vertex   1.947782e+003 -4.494065e+002 0.000000e+000
      vertex   1.933096e+003 -4.497759e+002 0.000000e+000
      vertex   1.947782e+003 -4.494065e+002 -3.000000e+000
    endloop
  endfacet
  facet normal 1.582374e-001 -9.874011e-001 0.000000e+000
    outer loop
      vertex   1.889591e+003 -4.547638e+002 -3.000000e+000
      vertex   1.904000e+003 -4.524546e+002 -3.000000e+000
      vertex   1.889591e+003 -4.547638e+002 0.000000e+000
    endloop
  endfacet
  facet normal 1.582374e-001 -9.874011e-001 0.000000e+000
    outer loop
      vertex   1.889591e+003 -4.547638e+002 0.000000e+000
      vertex   1.904000e+003 -4.524546e+002 -3.000000e+000
      vertex   1.904000e+003 -4.524546e+002 0.000000e+000
    endloop
  endfacet
  facet normal 1.582374e-001 -9.874011e-001 0.000000e+000
    outer loop
      vertex   1.904000e+003 -4.524546e+002 0.000000e+000
      vertex   1.904000e+003 -4.524546e+002 -3.000000e+000
      vertex   1.918409e+003 -4.501454e+002 -3.000000e+000
    endloop
  endfacet
  facet normal 1.582374e-001 -9.874011e-001 0.000000e+000
    outer loop
      vertex   1.918409e+003 -4.501454e+002 0.000000e+000
      vertex   1.904000e+003 -4.524546e+002 0.000000e+000
      vertex   1.918409e+003 -4.501454e+002 -3.000000e+000
    endloop
  endfacet
  facet normal 3.505758e-001 -9.365344e-001 0.000000e+000
    outer loop
      vertex   1.873885e+003 -4.606431e+002 -3.000000e+000
      vertex   1.889591e+003 -4.547638e+002 -3.000000e+000
      vertex   1.873885e+003 -4.606431e+002 0.000000e+000
    endloop
  endfacet
  facet normal 3.505758e-001 -9.365344e-001 0.000000e+000
    outer loop
      vertex   1.873885e+003 -4.606431e+002 0.000000e+000
      vertex   1.889591e+003 -4.547638e+002 -3.000000e+000
      vertex   1.889591e+003 -4.547638e+002 0.000000e+000
    endloop
  endfacet
  facet normal 1.000000e+000 0.000000e+000 -0.000000e+000
    outer loop
      vertex   1.873885e+003 -4.660004e+002 -3.000000e+000
      vertex   1.873885e+003 -4.606431e+002 -3.000000e+000
      vertex   1.873885e+003 -4.660004e+002 0.000000e+000
    endloop
  endfacet
  facet normal 1.000000e+000 -0.000000e+000 0.000000e+000
    outer loop
      vertex   1.873885e+003 -4.660004e+002 0.000000e+000
      vertex   1.873885e+003 -4.606431e+002 -3.000000e+000
      vertex   1.873885e+003 -4.606431e+002 0.000000e+000
    endloop
  endfacet
  facet normal -5.853140e-002 -9.982856e-001 0.000000e+000
    outer loop
      vertex   1.947782e+003 -4.494065e+002 -3.000000e+000
      vertex   1.951362e+003 -4.496164e+002 -3.000000e+000
      vertex   1.947782e+003 -4.494065e+002 0.000000e+000
    endloop
  endfacet
  facet normal -5.853140e-002 -9.982856e-001 0.000000e+000
    outer loop
      vertex   1.947782e+003 -4.494065e+002 0.000000e+000
      vertex   1.951362e+003 -4.496164e+002 -3.000000e+000
      vertex   1.951362e+003 -4.496164e+002 0.000000e+000
    endloop
  endfacet
  facet normal -1.000000e+000 0.000000e+000 0.000000e+000
    outer loop
      vertex   1.951362e+003 -4.496164e+002 -3.000000e+000
      vertex   1.951362e+003 -4.660004e+002 -3.000000e+000
      vertex   1.951362e+003 -4.496164e+002 0.000000e+000
    endloop
  endfacet
  facet normal -1.000000e+000 -0.000000e+000 0.000000e+000
    outer loop
      vertex   1.951362e+003 -4.496164e+002 0.000000e+000
      vertex   1.951362e+003 -4.660004e+002 -3.000000e+000
      vertex   1.951362e+003 -4.660004e+002 0.000000e+000
    endloop
  endfacet
  facet normal 0.000000e+000 1.000000e+000 -0.000000e+000
    outer loop
      vertex   1.951362e+003 -4.660004e+002 -3.000000e+000
      vertex   1.931993e+003 -4.660004e+002 -3.000000e+000
      vertex   1.951362e+003 -4.660004e+002 0.000000e+000
    endloop
  endfacet
  facet normal 3.668378e-015 1.000000e+000 -2.368476e-014
    outer loop
      vertex   1.951362e+003 -4.660004e+002 0.000000e+000
      vertex   1.931993e+003 -4.660004e+002 -3.000000e+000
      vertex   1.931993e+003 -4.660004e+002 0.000000e+000
    endloop
  endfacet
  facet normal 0.000000e+000 1.000000e+000 -2.368476e-014
    outer loop
      vertex   1.931993e+003 -4.660004e+002 0.000000e+000
      vertex   1.931993e+003 -4.660004e+002 -3.000000e+000
      vertex   1.912623e+003 -4.660004e+002 -3.000000e+000
    endloop
  endfacet
  facet normal 0.000000e+000 1.000000e+000 -2.368476e-014
    outer loop
      vertex   1.912623e+003 -4.660004e+002 0.000000e+000
      vertex   1.912623e+003 -4.660004e+002 -3.000000e+000
      vertex   1.893254e+003 -4.660004e+002 -3.000000e+000
    endloop
  endfacet
  facet normal 0.000000e+000 1.000000e+000 -2.368476e-014
    outer loop
      vertex   1.893254e+003 -4.660004e+002 0.000000e+000
      vertex   1.893254e+003 -4.660004e+002 -3.000000e+000
      vertex   1.873885e+003 -4.660004e+002 -3.000000e+000
    endloop
  endfacet
  facet normal -3.668378e-015 1.000000e+000 0.000000e+000
    outer loop
      vertex   1.873885e+003 -4.660004e+002 0.000000e+000
      vertex   1.893254e+003 -4.660004e+002 0.000000e+000
      vertex   1.873885e+003 -4.660004e+002 -3.000000e+000
    endloop
  endfacet
  facet normal 0.000000e+000 1.000000e+000 -2.368476e-014
    outer loop
      vertex   1.893254e+003 -4.660004e+002 0.000000e+000
      vertex   1.912623e+003 -4.660004e+002 0.000000e+000
      vertex   1.893254e+003 -4.660004e+002 -3.000000e+000
    endloop
  endfacet
  facet normal 0.000000e+000 1.000000e+000 -2.368476e-014
    outer loop
      vertex   1.912623e+003 -4.660004e+002 0.000000e+000
      vertex   1.931993e+003 -4.660004e+002 0.000000e+000
      vertex   1.912623e+003 -4.660004e+002 -3.000000e+000
    endloop
  endfacet
  facet normal 0.000000e+000 0.000000e+000 -1.000000e+000
    outer loop
      vertex   1.862856e+003 -4.631044e+002 -3.000000e+000
      vertex   1.862856e+003 -4.590829e+002 -3.000000e+000
      vertex   1.865896e+003 -4.631044e+002 -3.000000e+000
    endloop
  endfacet
  facet normal -7.326785e-016 -5.539600e-016 -1.000000e+000
    outer loop
      vertex   1.865896e+003 -4.631044e+002 -3.000000e+000
      vertex   1.862856e+003 -4.590829e+002 -3.000000e+000
      vertex   1.873885e+003 -4.606431e+002 -3.000000e+000
    endloop
  endfacet
  facet normal -9.033519e-016 0.000000e+000 -1.000000e+000
    outer loop
      vertex   1.873885e+003 -4.660004e+002 -3.000000e+000
      vertex   1.865896e+003 -4.631044e+002 -3.000000e+000
      vertex   1.873885e+003 -4.606431e+002 -3.000000e+000
    endloop
  endfacet
  facet normal -9.033519e-016 0.000000e+000 -1.000000e+000
    outer loop
      vertex   1.873885e+003 -4.660004e+002 -3.000000e+000
      vertex   1.865896e+003 -4.694631e+002 -3.000000e+000
      vertex   1.865896e+003 -4.631044e+002 -3.000000e+000
    endloop
  endfacet
  facet normal -0.000000e+000 -2.084033e-015 -1.000000e+000
    outer loop
      vertex   1.873885e+003 -4.660004e+002 -3.000000e+000
      vertex   1.878017e+003 -4.694631e+002 -3.000000e+000
      vertex   1.865896e+003 -4.694631e+002 -3.000000e+000
    endloop
  endfacet
  facet normal 0.000000e+000 -2.084033e-015 -1.000000e+000
    outer loop
      vertex   1.873885e+003 -4.660004e+002 -3.000000e+000
      vertex   1.893254e+003 -4.660004e+002 -3.000000e+000
      vertex   1.878017e+003 -4.694631e+002 -3.000000e+000
    endloop
  endfacet
  facet normal 0.000000e+000 -2.084033e-015 -1.000000e+000
    outer loop
      vertex   1.878017e+003 -4.694631e+002 -3.000000e+000
      vertex   1.893254e+003 -4.660004e+002 -3.000000e+000
      vertex   1.890139e+003 -4.694631e+002 -3.000000e+000
    endloop
  endfacet
  facet normal 0.000000e+000 -2.084033e-015 -1.000000e+000
    outer loop
      vertex   1.890139e+003 -4.694631e+002 -3.000000e+000
      vertex   1.893254e+003 -4.660004e+002 -3.000000e+000
      vertex   1.902260e+003 -4.694631e+002 -3.000000e+000
    endloop
  endfacet
  facet normal 0.000000e+000 -2.084033e-015 -1.000000e+000
    outer loop
      vertex   1.902260e+003 -4.694631e+002 -3.000000e+000
      vertex   1.893254e+003 -4.660004e+002 -3.000000e+000
      vertex   1.912623e+003 -4.660004e+002 -3.000000e+000
    endloop
  endfacet
  facet normal 0.000000e+000 -2.084033e-015 -1.000000e+000
    outer loop
      vertex   1.914381e+003 -4.694631e+002 -3.000000e+000
      vertex   1.912623e+003 -4.660004e+002 -3.000000e+000
      vertex   1.926503e+003 -4.694631e+002 -3.000000e+000
    endloop
  endfacet
  facet normal -0.000000e+000 -2.084033e-015 -1.000000e+000
    outer loop
      vertex   1.914381e+003 -4.694631e+002 -3.000000e+000
      vertex   1.902260e+003 -4.694631e+002 -3.000000e+000
      vertex   1.912623e+003 -4.660004e+002 -3.000000e+000
    endloop
  endfacet
  facet normal 0.000000e+000 0.000000e+000 -1.000000e+000
    outer loop
      vertex   2.062878e+003 -4.625368e+002 -3.000000e+000
      vertex   2.059838e+003 -4.625368e+002 -3.000000e+000
      vertex   2.062878e+003 -4.562600e+002 -3.000000e+000
    endloop
  endfacet
  facet normal 8.852926e-016 -4.288417e-016 -1.000000e+000
    outer loop
      vertex   2.062878e+003 -4.562600e+002 -3.000000e+000
      vertex   2.059838e+003 -4.625368e+002 -3.000000e+000
      vertex   2.053080e+003 -4.596592e+002 -3.000000e+000
    endloop
  endfacet
  facet normal -2.068192e-015 2.971550e-016 -1.000000e+000
    outer loop
      vertex   2.050418e+003 -4.539001e+002 -3.000000e+000
      vertex   2.053080e+003 -4.596592e+002 -3.000000e+000
      vertex   2.049543e+003 -4.562537e+002 -3.000000e+000
    endloop
  endfacet
  facet normal -0.000000e+000 -2.472296e-016 -1.000000e+000
    outer loop
      vertex   2.037914e+003 -4.517630e+002 -3.000000e+000
      vertex   2.049543e+003 -4.562537e+002 -3.000000e+000
      vertex   2.036208e+003 -4.562537e+002 -3.000000e+000
    endloop
  endfacet
  facet normal 5.917172e-016 8.288253e-016 -1.000000e+000
    outer loop
      vertex   2.025371e+003 -4.498561e+002 -3.000000e+000
      vertex   2.036208e+003 -4.562537e+002 -3.000000e+000
      vertex   2.020567e+003 -4.551332e+002 -3.000000e+000
    endloop
  endfacet
  facet normal 1.058584e-016 1.157225e-015 -1.000000e+000
    outer loop
      vertex   2.012795e+003 -4.481862e+002 -3.000000e+000
      vertex   2.020567e+003 -4.551332e+002 -3.000000e+000
      vertex   2.009460e+003 -4.541172e+002 -3.000000e+000
    endloop
  endfacet
  facet normal 1.014219e-016 1.108725e-015 -1.000000e+000
    outer loop
      vertex   2.000190e+003 -4.467605e+002 -3.000000e+000
      vertex   2.009460e+003 -4.541172e+002 -3.000000e+000
      vertex   1.998353e+003 -4.531012e+002 -3.000000e+000
    endloop
  endfacet
  facet normal 1.011164e-016 1.105386e-015 -1.000000e+000
    outer loop
      vertex   1.987564e+003 -4.455858e+002 -3.000000e+000
      vertex   1.998353e+003 -4.531012e+002 -3.000000e+000
      vertex   1.987246e+003 -4.520851e+002 -3.000000e+000
    endloop
  endfacet
  facet normal 1.011164e-016 1.105386e-015 -1.000000e+000
    outer loop
      vertex   1.976139e+003 -4.510691e+002 -3.000000e+000
      vertex   1.987564e+003 -4.455858e+002 -3.000000e+000
      vertex   1.987246e+003 -4.520851e+002 -3.000000e+000
    endloop
  endfacet
  facet normal 8.289026e-017 1.143364e-015 -1.000000e+000
    outer loop
      vertex   1.976139e+003 -4.510691e+002 -3.000000e+000
      vertex   1.974921e+003 -4.446692e+002 -3.000000e+000
      vertex   1.987564e+003 -4.455858e+002 -3.000000e+000
    endloop
  endfacet
  facet normal 6.685875e-017 1.140313e-015 -1.000000e+000
    outer loop
      vertex   1.976139e+003 -4.510691e+002 -3.000000e+000
      vertex   1.966060e+003 -4.504781e+002 -3.000000e+000
      vertex   1.974921e+003 -4.446692e+002 -3.000000e+000
    endloop
  endfacet
  facet normal 5.837544e-017 1.153254e-015 -1.000000e+000
    outer loop
      vertex   1.974921e+003 -4.446692e+002 -3.000000e+000
      vertex   1.966060e+003 -4.504781e+002 -3.000000e+000
      vertex   1.962264e+003 -4.440286e+002 -3.000000e+000
    endloop
  endfacet
  facet normal 6.794775e-017 1.158887e-015 -1.000000e+000
    outer loop
      vertex   1.962264e+003 -4.440286e+002 -3.000000e+000
      vertex   1.966060e+003 -4.504781e+002 -3.000000e+000
      vertex   1.955981e+003 -4.498872e+002 -3.000000e+000
    endloop
  endfacet
  facet normal 7.861140e-017 1.340761e-015 -1.000000e+000
    outer loop
      vertex   1.949592e+003 -4.437163e+002 -3.000000e+000
      vertex   1.955981e+003 -4.498872e+002 -3.000000e+000
      vertex   1.951362e+003 -4.496164e+002 -3.000000e+000
    endloop
  endfacet
  facet normal 7.861140e-017 1.340761e-015 -1.000000e+000
    outer loop
      vertex   1.947782e+003 -4.494065e+002 -3.000000e+000
      vertex   1.949592e+003 -4.437163e+002 -3.000000e+000
      vertex   1.951362e+003 -4.496164e+002 -3.000000e+000
    endloop
  endfacet
  facet normal 3.567587e-017 1.354422e-015 -1.000000e+000
    outer loop
      vertex   1.947782e+003 -4.494065e+002 -3.000000e+000
      vertex   1.936901e+003 -4.437918e+002 -3.000000e+000
      vertex   1.949592e+003 -4.437163e+002 -3.000000e+000
    endloop
  endfacet
  facet normal -3.083109e-017 1.225536e-015 -1.000000e+000
    outer loop
      vertex   1.947782e+003 -4.494065e+002 -3.000000e+000
      vertex   1.933096e+003 -4.497759e+002 -3.000000e+000
      vertex   1.936901e+003 -4.437918e+002 -3.000000e+000
    endloop
  endfacet
  facet normal -8.830837e-018 1.211545e-015 -1.000000e+000
    outer loop
      vertex   1.936901e+003 -4.437918e+002 -3.000000e+000
      vertex   1.933096e+003 -4.497759e+002 -3.000000e+000
      vertex   1.924207e+003 -4.443425e+002 -3.000000e+000
    endloop
  endfacet
  facet normal -2.962343e-017 1.177531e-015 -1.000000e+000
    outer loop
      vertex   1.924207e+003 -4.443425e+002 -3.000000e+000
      vertex   1.933096e+003 -4.497759e+002 -3.000000e+000
      vertex   1.918409e+003 -4.501454e+002 -3.000000e+000
    endloop
  endfacet
  facet normal -2.015230e-016 1.257504e-015 -1.000000e+000
    outer loop
      vertex   1.911563e+003 -4.455038e+002 -3.000000e+000
      vertex   1.918409e+003 -4.501454e+002 -3.000000e+000
      vertex   1.904000e+003 -4.524546e+002 -3.000000e+000
    endloop
  endfacet
  facet normal -1.981670e-016 1.236562e-015 -1.000000e+000
    outer loop
      vertex   1.899025e+003 -4.474160e+002 -3.000000e+000
      vertex   1.904000e+003 -4.524546e+002 -3.000000e+000
      vertex   1.889591e+003 -4.547638e+002 -3.000000e+000
    endloop
  endfacet
  facet normal -4.785882e-016 1.278509e-015 -1.000000e+000
    outer loop
      vertex   1.886652e+003 -4.502196e+002 -3.000000e+000
      vertex   1.889591e+003 -4.547638e+002 -3.000000e+000
      vertex   1.873885e+003 -4.606431e+002 -3.000000e+000
    endloop
  endfacet
  facet normal 1.887199e-015 9.056379e-016 -1.000000e+000
    outer loop
      vertex   1.876190e+003 -4.562537e+002 -3.000000e+000
      vertex   1.873885e+003 -4.606431e+002 -3.000000e+000
      vertex   1.874549e+003 -4.540594e+002 -3.000000e+000
    endloop
  endfacet
  facet normal 1.297370e-016 -4.089144e-016 -1.000000e+000
    outer loop
      vertex   1.886652e+003 -4.502196e+002 -3.000000e+000
      vertex   1.876190e+003 -4.562537e+002 -3.000000e+000
      vertex   1.874549e+003 -4.540594e+002 -3.000000e+000
    endloop
  endfacet
  facet normal -1.722123e-015 2.801615e-015 -1.000000e+000
    outer loop
      vertex   1.886652e+003 -4.502196e+002 -3.000000e+000
      vertex   1.873885e+003 -4.606431e+002 -3.000000e+000
      vertex   1.876190e+003 -4.562537e+002 -3.000000e+000
    endloop
  endfacet
  facet normal 1.067913e-015 0.000000e+000 -1.000000e+000
    outer loop
      vertex   2.053080e+003 -4.596592e+002 -3.000000e+000
      vertex   2.059838e+003 -4.625368e+002 -3.000000e+000
      vertex   2.053080e+003 -4.660004e+002 -3.000000e+000
    endloop
  endfacet
  facet normal 1.067913e-015 8.764294e-029 -1.000000e+000
    outer loop
      vertex   2.053080e+003 -4.660004e+002 -3.000000e+000
      vertex   2.059838e+003 -4.625368e+002 -3.000000e+000
      vertex   2.059838e+003 -4.694631e+002 -3.000000e+000
    endloop
  endfacet
  facet normal 0.000000e+000 -2.084033e-015 -1.000000e+000
    outer loop
      vertex   2.047716e+003 -4.694631e+002 -3.000000e+000
      vertex   2.053080e+003 -4.660004e+002 -3.000000e+000
      vertex   2.059838e+003 -4.694631e+002 -3.000000e+000
    endloop
  endfacet
  facet normal 0.000000e+000 -2.084033e-015 -1.000000e+000
    outer loop
      vertex   2.047716e+003 -4.694631e+002 -3.000000e+000
      vertex   2.040943e+003 -4.660004e+002 -3.000000e+000
      vertex   2.053080e+003 -4.660004e+002 -3.000000e+000
    endloop
  endfacet
  facet normal -0.000000e+000 -2.084033e-015 -1.000000e+000
    outer loop
      vertex   2.047716e+003 -4.694631e+002 -3.000000e+000
      vertex   2.035595e+003 -4.694631e+002 -3.000000e+000
      vertex   2.040943e+003 -4.660004e+002 -3.000000e+000
    endloop
  endfacet
  facet normal 0.000000e+000 -2.084033e-015 -1.000000e+000
    outer loop
      vertex   2.040943e+003 -4.660004e+002 -3.000000e+000
      vertex   2.035595e+003 -4.694631e+002 -3.000000e+000
      vertex   2.028805e+003 -4.660004e+002 -3.000000e+000
    endloop
  endfacet
  facet normal -0.000000e+000 -2.084033e-015 -1.000000e+000
    outer loop
      vertex   2.028805e+003 -4.660004e+002 -3.000000e+000
      vertex   2.035595e+003 -4.694631e+002 -3.000000e+000
      vertex   2.023474e+003 -4.694631e+002 -3.000000e+000
    endloop
  endfacet
  facet normal -0.000000e+000 -2.084033e-015 -1.000000e+000
    outer loop
      vertex   2.016668e+003 -4.660004e+002 -3.000000e+000
      vertex   2.023474e+003 -4.694631e+002 -3.000000e+000
      vertex   2.011352e+003 -4.694631e+002 -3.000000e+000
    endloop
  endfacet
  facet normal -0.000000e+000 -2.084033e-015 -1.000000e+000
    outer loop
      vertex   2.004530e+003 -4.660004e+002 -3.000000e+000
      vertex   2.011352e+003 -4.694631e+002 -3.000000e+000
      vertex   1.999231e+003 -4.694631e+002 -3.000000e+000
    endloop
  endfacet
  facet normal -0.000000e+000 -2.084033e-015 -1.000000e+000
    outer loop
      vertex   1.992393e+003 -4.660004e+002 -3.000000e+000
      vertex   1.999231e+003 -4.694631e+002 -3.000000e+000
      vertex   1.987110e+003 -4.694631e+002 -3.000000e+000
    endloop
  endfacet
  facet normal -0.000000e+000 -2.084033e-015 -1.000000e+000
    outer loop
      vertex   1.980255e+003 -4.660004e+002 -3.000000e+000
      vertex   1.987110e+003 -4.694631e+002 -3.000000e+000
      vertex   1.974988e+003 -4.694631e+002 -3.000000e+000
    endloop
  endfacet
  facet normal -0.000000e+000 -2.084033e-015 -1.000000e+000
    outer loop
      vertex   1.968118e+003 -4.660004e+002 -3.000000e+000
      vertex   1.974988e+003 -4.694631e+002 -3.000000e+000
      vertex   1.962867e+003 -4.694631e+002 -3.000000e+000
    endloop
  endfacet
  facet normal -0.000000e+000 -2.084033e-015 -1.000000e+000
    outer loop
      vertex   1.955981e+003 -4.660004e+002 -3.000000e+000
      vertex   1.962867e+003 -4.694631e+002 -3.000000e+000
      vertex   1.950746e+003 -4.694631e+002 -3.000000e+000
    endloop
  endfacet
  facet normal -0.000000e+000 -2.084033e-015 -1.000000e+000
    outer loop
      vertex   1.951362e+003 -4.660004e+002 -3.000000e+000
      vertex   1.950746e+003 -4.694631e+002 -3.000000e+000
      vertex   1.938624e+003 -4.694631e+002 -3.000000e+000
    endloop
  endfacet
  facet normal -0.000000e+000 -2.084033e-015 -1.000000e+000
    outer loop
      vertex   1.931993e+003 -4.660004e+002 -3.000000e+000
      vertex   1.938624e+003 -4.694631e+002 -3.000000e+000
      vertex   1.926503e+003 -4.694631e+002 -3.000000e+000
    endloop
  endfacet
  facet normal 0.000000e+000 -2.084033e-015 -1.000000e+000
    outer loop
      vertex   1.912623e+003 -4.660004e+002 -3.000000e+000
      vertex   1.931993e+003 -4.660004e+002 -3.000000e+000
      vertex   1.926503e+003 -4.694631e+002 -3.000000e+000
    endloop
  endfacet
  facet normal 0.000000e+000 -2.084033e-015 -1.000000e+000
    outer loop
      vertex   1.931993e+003 -4.660004e+002 -3.000000e+000
      vertex   1.951362e+003 -4.660004e+002 -3.000000e+000
      vertex   1.938624e+003 -4.694631e+002 -3.000000e+000
    endloop
  endfacet
  facet normal 0.000000e+000 -2.084033e-015 -1.000000e+000
    outer loop
      vertex   1.950746e+003 -4.694631e+002 -3.000000e+000
      vertex   1.951362e+003 -4.660004e+002 -3.000000e+000
      vertex   1.955981e+003 -4.660004e+002 -3.000000e+000
    endloop
  endfacet
  facet normal 0.000000e+000 0.000000e+000 -1.000000e+000
    outer loop
      vertex   1.955981e+003 -4.660004e+002 -3.000000e+000
      vertex   1.951362e+003 -4.660004e+002 -3.000000e+000
      vertex   1.951362e+003 -4.496164e+002 -3.000000e+000
    endloop
  endfacet
  facet normal -0.000000e+000 -0.000000e+000 -1.000000e+000
    outer loop
      vertex   1.955981e+003 -4.498872e+002 -3.000000e+000
      vertex   1.955981e+003 -4.660004e+002 -3.000000e+000
      vertex   1.951362e+003 -4.496164e+002 -3.000000e+000
    endloop
  endfacet
  facet normal 0.000000e+000 -2.084033e-015 -1.000000e+000
    outer loop
      vertex   1.955981e+003 -4.660004e+002 -3.000000e+000
      vertex   1.968118e+003 -4.660004e+002 -3.000000e+000
      vertex   1.962867e+003 -4.694631e+002 -3.000000e+000
    endloop
  endfacet
  facet normal 0.000000e+000 -2.084033e-015 -1.000000e+000
    outer loop
      vertex   1.968118e+003 -4.660004e+002 -3.000000e+000
      vertex   1.980255e+003 -4.660004e+002 -3.000000e+000
      vertex   1.974988e+003 -4.694631e+002 -3.000000e+000
    endloop
  endfacet
  facet normal 0.000000e+000 -2.084033e-015 -1.000000e+000
    outer loop
      vertex   1.980255e+003 -4.660004e+002 -3.000000e+000
      vertex   1.992393e+003 -4.660004e+002 -3.000000e+000
      vertex   1.987110e+003 -4.694631e+002 -3.000000e+000
    endloop
  endfacet
  facet normal 0.000000e+000 -2.084033e-015 -1.000000e+000
    outer loop
      vertex   1.992393e+003 -4.660004e+002 -3.000000e+000
      vertex   2.004530e+003 -4.660004e+002 -3.000000e+000
      vertex   1.999231e+003 -4.694631e+002 -3.000000e+000
    endloop
  endfacet
  facet normal 0.000000e+000 -2.084033e-015 -1.000000e+000
    outer loop
      vertex   2.004530e+003 -4.660004e+002 -3.000000e+000
      vertex   2.016668e+003 -4.660004e+002 -3.000000e+000
      vertex   2.011352e+003 -4.694631e+002 -3.000000e+000
    endloop
  endfacet
  facet normal 0.000000e+000 -2.084033e-015 -1.000000e+000
    outer loop
      vertex   2.016668e+003 -4.660004e+002 -3.000000e+000
      vertex   2.028805e+003 -4.660004e+002 -3.000000e+000
      vertex   2.023474e+003 -4.694631e+002 -3.000000e+000
    endloop
  endfacet
  facet normal -8.794860e-016 1.531678e-015 -1.000000e+000
    outer loop
      vertex   2.053080e+003 -4.596592e+002 -3.000000e+000
      vertex   2.036823e+003 -4.573962e+002 -3.000000e+000
      vertex   2.049543e+003 -4.562537e+002 -3.000000e+000
    endloop
  endfacet
  facet normal 0.000000e+000 -8.259714e-015 -1.000000e+000
    outer loop
      vertex   2.049543e+003 -4.562537e+002 -3.000000e+000
      vertex   2.036823e+003 -4.573962e+002 -3.000000e+000
      vertex   2.036208e+003 -4.562537e+002 -3.000000e+000
    endloop
  endfacet
  facet normal -6.171179e-017 -8.292936e-015 -1.000000e+000
    outer loop
      vertex   2.036208e+003 -4.562537e+002 -3.000000e+000
      vertex   2.036823e+003 -4.573962e+002 -3.000000e+000
      vertex   2.020567e+003 -4.551332e+002 -3.000000e+000
    endloop
  endfacet
  facet normal 2.601025e-016 1.373260e-015 -1.000000e+000
    outer loop
      vertex   2.050418e+003 -4.539001e+002 -3.000000e+000
      vertex   2.062878e+003 -4.562600e+002 -3.000000e+000
      vertex   2.053080e+003 -4.596592e+002 -3.000000e+000
    endloop
  endfacet
  facet normal -4.922230e-016 1.145780e-015 -1.000000e+000
    outer loop
      vertex   1.862856e+003 -4.590829e+002 -3.000000e+000
      vertex   1.874549e+003 -4.540594e+002 -3.000000e+000
      vertex   1.873885e+003 -4.606431e+002 -3.000000e+000
    endloop
  endfacet
  facet normal -7.580098e-017 -4.435276e-016 -1.000000e+000
    outer loop
      vertex   2.049543e+003 -4.562537e+002 -3.000000e+000
      vertex   2.037914e+003 -4.517630e+002 -3.000000e+000
      vertex   2.050418e+003 -4.539001e+002 -3.000000e+000
    endloop
  endfacet
  facet normal 1.619911e-016 1.220026e-015 -1.000000e+000
    outer loop
      vertex   2.025371e+003 -4.498561e+002 -3.000000e+000
      vertex   2.020567e+003 -4.551332e+002 -3.000000e+000
      vertex   2.012795e+003 -4.481862e+002 -3.000000e+000
    endloop
  endfacet
  facet normal 1.294057e-016 1.143985e-015 -1.000000e+000
    outer loop
      vertex   2.009460e+003 -4.541172e+002 -3.000000e+000
      vertex   2.000190e+003 -4.467605e+002 -3.000000e+000
      vertex   2.012795e+003 -4.481862e+002 -3.000000e+000
    endloop
  endfacet
  facet normal 1.031030e-016 1.108238e-015 -1.000000e+000
    outer loop
      vertex   1.998353e+003 -4.531012e+002 -3.000000e+000
      vertex   1.987564e+003 -4.455858e+002 -3.000000e+000
      vertex   2.000190e+003 -4.467605e+002 -3.000000e+000
    endloop
  endfacet
  facet normal -1.644260e-016 1.312219e-015 -1.000000e+000
    outer loop
      vertex   1.911563e+003 -4.455038e+002 -3.000000e+000
      vertex   1.924207e+003 -4.443425e+002 -3.000000e+000
      vertex   1.918409e+003 -4.501454e+002 -3.000000e+000
    endloop
  endfacet
  facet normal -1.898369e-016 1.244788e-015 -1.000000e+000
    outer loop
      vertex   1.899025e+003 -4.474160e+002 -3.000000e+000
      vertex   1.911563e+003 -4.455038e+002 -3.000000e+000
      vertex   1.904000e+003 -4.524546e+002 -3.000000e+000
    endloop
  endfacet
  facet normal -3.138376e-016 1.385075e-015 -1.000000e+000
    outer loop
      vertex   1.886652e+003 -4.502196e+002 -3.000000e+000
      vertex   1.899025e+003 -4.474160e+002 -3.000000e+000
      vertex   1.889591e+003 -4.547638e+002 -3.000000e+000
    endloop
  endfacet
  facet normal -1.310186e-017 1.245819e-015 -1.000000e+000
    outer loop
      vertex   1.949592e+003 -4.437163e+002 -3.000000e+000
      vertex   1.962264e+003 -4.440286e+002 -3.000000e+000
      vertex   1.955981e+003 -4.498872e+002 -3.000000e+000
    endloop
  endfacet
  facet normal -3.553476e-017 -2.337331e-016 -1.000000e+000
    outer loop
      vertex   2.025371e+003 -4.498561e+002 -3.000000e+000
      vertex   2.037914e+003 -4.517630e+002 -3.000000e+000
      vertex   2.036208e+003 -4.562537e+002 -3.000000e+000
    endloop
  endfacet
  facet normal 0.000000e+000 -0.000000e+000 1.000000e+000
    outer loop
      vertex   1.862856e+003 -4.631044e+002 0.000000e+000
      vertex   1.865896e+003 -4.631044e+002 0.000000e+000
      vertex   1.862856e+003 -4.572784e+002 0.000000e+000
    endloop
  endfacet
  facet normal -0.000000e+000 0.000000e+000 1.000000e+000
    outer loop
      vertex   1.862856e+003 -4.572784e+002 0.000000e+000
      vertex   1.865896e+003 -4.631044e+002 0.000000e+000
      vertex   1.873885e+003 -4.606431e+002 0.000000e+000
    endloop
  endfacet
  facet normal -0.000000e+000 0.000000e+000 1.000000e+000
    outer loop
      vertex   1.874648e+003 -4.525683e+002 0.000000e+000
      vertex   1.873885e+003 -4.606431e+002 0.000000e+000
      vertex   1.876190e+003 -4.559336e+002 0.000000e+000
    endloop
  endfacet
  facet normal -0.000000e+000 0.000000e+000 1.000000e+000
    outer loop
      vertex   1.886809e+003 -4.489847e+002 0.000000e+000
      vertex   1.876190e+003 -4.559336e+002 0.000000e+000
      vertex   1.889591e+003 -4.547638e+002 0.000000e+000
    endloop
  endfacet
  facet normal -0.000000e+000 0.000000e+000 1.000000e+000
    outer loop
      vertex   1.899208e+003 -4.463856e+002 0.000000e+000
      vertex   1.889591e+003 -4.547638e+002 0.000000e+000
      vertex   1.904000e+003 -4.524546e+002 0.000000e+000
    endloop
  endfacet
  facet normal -0.000000e+000 0.000000e+000 1.000000e+000
    outer loop
      vertex   1.911755e+003 -4.446328e+002 0.000000e+000
      vertex   1.904000e+003 -4.524546e+002 0.000000e+000
      vertex   1.918409e+003 -4.501454e+002 0.000000e+000
    endloop
  endfacet
  facet normal -0.000000e+000 0.000000e+000 1.000000e+000
    outer loop
      vertex   1.924396e+003 -4.435910e+002 0.000000e+000
      vertex   1.918409e+003 -4.501454e+002 0.000000e+000
      vertex   1.933096e+003 -4.497759e+002 0.000000e+000
    endloop
  endfacet
  facet normal -0.000000e+000 0.000000e+000 1.000000e+000
    outer loop
      vertex   1.937076e+003 -4.431251e+002 0.000000e+000
      vertex   1.933096e+003 -4.497759e+002 0.000000e+000
      vertex   1.947782e+003 -4.494065e+002 0.000000e+000
    endloop
  endfacet
  facet normal 0.000000e+000 0.000000e+000 1.000000e+000
    outer loop
      vertex   1.949748e+003 -4.431081e+002 0.000000e+000
      vertex   1.947782e+003 -4.494065e+002 0.000000e+000
      vertex   1.951362e+003 -4.496164e+002 0.000000e+000
    endloop
  endfacet
  facet normal 0.000000e+000 0.000000e+000 1.000000e+000
    outer loop
      vertex   1.955981e+003 -4.498872e+002 0.000000e+000
      vertex   1.951362e+003 -4.496164e+002 0.000000e+000
      vertex   1.951362e+003 -4.660004e+002 0.000000e+000
    endloop
  endfacet
  facet normal 0.000000e+000 0.000000e+000 1.000000e+000
    outer loop
      vertex   1.955981e+003 -4.660004e+002 0.000000e+000
      vertex   1.951362e+003 -4.660004e+002 0.000000e+000
      vertex   1.950746e+003 -4.694631e+002 0.000000e+000
    endloop
  endfacet
  facet normal 0.000000e+000 0.000000e+000 1.000000e+000
    outer loop
      vertex   1.962867e+003 -4.694631e+002 0.000000e+000
      vertex   1.955981e+003 -4.660004e+002 0.000000e+000
      vertex   1.950746e+003 -4.694631e+002 0.000000e+000
    endloop
  endfacet
  facet normal 0.000000e+000 -0.000000e+000 1.000000e+000
    outer loop
      vertex   1.962867e+003 -4.694631e+002 0.000000e+000
      vertex   1.968118e+003 -4.660004e+002 0.000000e+000
      vertex   1.955981e+003 -4.660004e+002 0.000000e+000
    endloop
  endfacet
  facet normal 0.000000e+000 -0.000000e+000 1.000000e+000
    outer loop
      vertex   1.962867e+003 -4.694631e+002 0.000000e+000
      vertex   1.974988e+003 -4.694631e+002 0.000000e+000
      vertex   1.968118e+003 -4.660004e+002 0.000000e+000
    endloop
  endfacet
  facet normal -0.000000e+000 0.000000e+000 1.000000e+000
    outer loop
      vertex   1.968118e+003 -4.660004e+002 0.000000e+000
      vertex   1.974988e+003 -4.694631e+002 0.000000e+000
      vertex   1.980255e+003 -4.660004e+002 0.000000e+000
    endloop
  endfacet
  facet normal -0.000000e+000 0.000000e+000 1.000000e+000
    outer loop
      vertex   1.980255e+003 -4.660004e+002 0.000000e+000
      vertex   1.974988e+003 -4.694631e+002 0.000000e+000
      vertex   1.987110e+003 -4.694631e+002 0.000000e+000
    endloop
  endfacet
  facet normal -0.000000e+000 0.000000e+000 1.000000e+000
    outer loop
      vertex   1.992393e+003 -4.660004e+002 0.000000e+000
      vertex   1.987110e+003 -4.694631e+002 0.000000e+000
      vertex   1.999231e+003 -4.694631e+002 0.000000e+000
    endloop
  endfacet
  facet normal -0.000000e+000 0.000000e+000 1.000000e+000
    outer loop
      vertex   2.004530e+003 -4.660004e+002 0.000000e+000
      vertex   1.999231e+003 -4.694631e+002 0.000000e+000
      vertex   2.011352e+003 -4.694631e+002 0.000000e+000
    endloop
  endfacet
  facet normal -0.000000e+000 0.000000e+000 1.000000e+000
    outer loop
      vertex   2.016668e+003 -4.660004e+002 0.000000e+000
      vertex   2.011352e+003 -4.694631e+002 0.000000e+000
      vertex   2.023474e+003 -4.694631e+002 0.000000e+000
    endloop
  endfacet
  facet normal -0.000000e+000 0.000000e+000 1.000000e+000
    outer loop
      vertex   2.028805e+003 -4.660004e+002 0.000000e+000
      vertex   2.023474e+003 -4.694631e+002 0.000000e+000
      vertex   2.035595e+003 -4.694631e+002 0.000000e+000
    endloop
  endfacet
  facet normal -0.000000e+000 0.000000e+000 1.000000e+000
    outer loop
      vertex   2.040943e+003 -4.660004e+002 0.000000e+000
      vertex   2.035595e+003 -4.694631e+002 0.000000e+000
      vertex   2.047716e+003 -4.694631e+002 0.000000e+000
    endloop
  endfacet
  facet normal -0.000000e+000 0.000000e+000 1.000000e+000
    outer loop
      vertex   2.053080e+003 -4.660004e+002 0.000000e+000
      vertex   2.047716e+003 -4.694631e+002 0.000000e+000
      vertex   2.059838e+003 -4.694631e+002 0.000000e+000
    endloop
  endfacet
  facet normal 0.000000e+000 0.000000e+000 1.000000e+000
    outer loop
      vertex   2.059838e+003 -4.625368e+002 0.000000e+000
      vertex   2.053080e+003 -4.660004e+002 0.000000e+000
      vertex   2.059838e+003 -4.694631e+002 0.000000e+000
    endloop
  endfacet
  facet normal 0.000000e+000 0.000000e+000 1.000000e+000
    outer loop
      vertex   2.059838e+003 -4.625368e+002 0.000000e+000
      vertex   2.053080e+003 -4.596592e+002 0.000000e+000
      vertex   2.053080e+003 -4.660004e+002 0.000000e+000
    endloop
  endfacet
  facet normal 0.000000e+000 -0.000000e+000 1.000000e+000
    outer loop
      vertex   2.059838e+003 -4.625368e+002 0.000000e+000
      vertex   2.062878e+003 -4.557709e+002 0.000000e+000
      vertex   2.053080e+003 -4.596592e+002 0.000000e+000
    endloop
  endfacet
  facet normal 0.000000e+000 -0.000000e+000 1.000000e+000
    outer loop
      vertex   2.059838e+003 -4.625368e+002 0.000000e+000
      vertex   2.062878e+003 -4.625368e+002 0.000000e+000
      vertex   2.062878e+003 -4.557709e+002 0.000000e+000
    endloop
  endfacet
  facet normal 0.000000e+000 0.000000e+000 1.000000e+000
    outer loop
      vertex   1.873885e+003 -4.606431e+002 0.000000e+000
      vertex   1.865896e+003 -4.631044e+002 0.000000e+000
      vertex   1.873885e+003 -4.660004e+002 0.000000e+000
    endloop
  endfacet
  facet normal 0.000000e+000 0.000000e+000 1.000000e+000
    outer loop
      vertex   1.873885e+003 -4.660004e+002 0.000000e+000
      vertex   1.865896e+003 -4.631044e+002 0.000000e+000
      vertex   1.865896e+003 -4.694631e+002 0.000000e+000
    endloop
  endfacet
  facet normal 0.000000e+000 0.000000e+000 1.000000e+000
    outer loop
      vertex   1.878017e+003 -4.694631e+002 0.000000e+000
      vertex   1.873885e+003 -4.660004e+002 0.000000e+000
      vertex   1.865896e+003 -4.694631e+002 0.000000e+000
    endloop
  endfacet
  facet normal 0.000000e+000 -0.000000e+000 1.000000e+000
    outer loop
      vertex   1.878017e+003 -4.694631e+002 0.000000e+000
      vertex   1.893254e+003 -4.660004e+002 0.000000e+000
      vertex   1.873885e+003 -4.660004e+002 0.000000e+000
    endloop
  endfacet
  facet normal 0.000000e+000 0.000000e+000 1.000000e+000
    outer loop
      vertex   1.878017e+003 -4.694631e+002 0.000000e+000
      vertex   1.890139e+003 -4.694631e+002 0.000000e+000
      vertex   1.893254e+003 -4.660004e+002 0.000000e+000
    endloop
  endfacet
  facet normal -0.000000e+000 0.000000e+000 1.000000e+000
    outer loop
      vertex   1.893254e+003 -4.660004e+002 0.000000e+000
      vertex   1.890139e+003 -4.694631e+002 0.000000e+000
      vertex   1.902260e+003 -4.694631e+002 0.000000e+000
    endloop
  endfacet
  facet normal -0.000000e+000 0.000000e+000 1.000000e+000
    outer loop
      vertex   1.912623e+003 -4.660004e+002 0.000000e+000
      vertex   1.902260e+003 -4.694631e+002 0.000000e+000
      vertex   1.914381e+003 -4.694631e+002 0.000000e+000
    endloop
  endfacet
  facet normal 0.000000e+000 0.000000e+000 1.000000e+000
    outer loop
      vertex   1.926503e+003 -4.694631e+002 0.000000e+000
      vertex   1.912623e+003 -4.660004e+002 0.000000e+000
      vertex   1.914381e+003 -4.694631e+002 0.000000e+000
    endloop
  endfacet
  facet normal 0.000000e+000 -0.000000e+000 1.000000e+000
    outer loop
      vertex   1.926503e+003 -4.694631e+002 0.000000e+000
      vertex   1.931993e+003 -4.660004e+002 0.000000e+000
      vertex   1.912623e+003 -4.660004e+002 0.000000e+000
    endloop
  endfacet
  facet normal 0.000000e+000 -0.000000e+000 1.000000e+000
    outer loop
      vertex   1.926503e+003 -4.694631e+002 0.000000e+000
      vertex   1.938624e+003 -4.694631e+002 0.000000e+000
      vertex   1.931993e+003 -4.660004e+002 0.000000e+000
    endloop
  endfacet
  facet normal -0.000000e+000 0.000000e+000 1.000000e+000
    outer loop
      vertex   1.931993e+003 -4.660004e+002 0.000000e+000
      vertex   1.938624e+003 -4.694631e+002 0.000000e+000
      vertex   1.951362e+003 -4.660004e+002 0.000000e+000
    endloop
  endfacet
  facet normal -0.000000e+000 0.000000e+000 1.000000e+000
    outer loop
      vertex   1.951362e+003 -4.660004e+002 0.000000e+000
      vertex   1.938624e+003 -4.694631e+002 0.000000e+000
      vertex   1.950746e+003 -4.694631e+002 0.000000e+000
    endloop
  endfacet
  facet normal 0.000000e+000 0.000000e+000 1.000000e+000
    outer loop
      vertex   2.062878e+003 -4.557709e+002 0.000000e+000
      vertex   2.050434e+003 -4.534183e+002 0.000000e+000
      vertex   2.053080e+003 -4.596592e+002 0.000000e+000
    endloop
  endfacet
  facet normal 0.000000e+000 0.000000e+000 1.000000e+000
    outer loop
      vertex   2.053080e+003 -4.596592e+002 0.000000e+000
      vertex   2.050434e+003 -4.534183e+002 0.000000e+000
      vertex   2.049543e+003 -4.559336e+002 0.000000e+000
    endloop
  endfacet
  facet normal 0.000000e+000 -0.000000e+000 1.000000e+000
    outer loop
      vertex   2.036823e+003 -4.573962e+002 0.000000e+000
      vertex   2.049543e+003 -4.559336e+002 0.000000e+000
      vertex   2.036208e+003 -4.559336e+002 0.000000e+000
    endloop
  endfacet
  facet normal -0.000000e+000 0.000000e+000 1.000000e+000
    outer loop
      vertex   2.025419e+003 -4.493762e+002 0.000000e+000
      vertex   2.036208e+003 -4.559336e+002 0.000000e+000
      vertex   2.037946e+003 -4.512844e+002 0.000000e+000
    endloop
  endfacet
  facet normal 0.000000e+000 -0.000000e+000 1.000000e+000
    outer loop
      vertex   1.873885e+003 -4.606431e+002 0.000000e+000
      vertex   1.889591e+003 -4.547638e+002 0.000000e+000
      vertex   1.876190e+003 -4.559336e+002 0.000000e+000
    endloop
  endfacet
  facet normal 0.000000e+000 0.000000e+000 1.000000e+000
    outer loop
      vertex   1.912623e+003 -4.660004e+002 0.000000e+000
      vertex   1.893254e+003 -4.660004e+002 0.000000e+000
      vertex   1.902260e+003 -4.694631e+002 0.000000e+000
    endloop
  endfacet
  facet normal 0.000000e+000 0.000000e+000 1.000000e+000
    outer loop
      vertex   2.053080e+003 -4.660004e+002 0.000000e+000
      vertex   2.040943e+003 -4.660004e+002 0.000000e+000
      vertex   2.047716e+003 -4.694631e+002 0.000000e+000
    endloop
  endfacet
  facet normal 0.000000e+000 0.000000e+000 1.000000e+000
    outer loop
      vertex   2.040943e+003 -4.660004e+002 0.000000e+000
      vertex   2.028805e+003 -4.660004e+002 0.000000e+000
      vertex   2.035595e+003 -4.694631e+002 0.000000e+000
    endloop
  endfacet
  facet normal 0.000000e+000 0.000000e+000 1.000000e+000
    outer loop
      vertex   2.028805e+003 -4.660004e+002 0.000000e+000
      vertex   2.016668e+003 -4.660004e+002 0.000000e+000
      vertex   2.023474e+003 -4.694631e+002 0.000000e+000
    endloop
  endfacet
  facet normal 0.000000e+000 0.000000e+000 1.000000e+000
    outer loop
      vertex   2.016668e+003 -4.660004e+002 0.000000e+000
      vertex   2.004530e+003 -4.660004e+002 0.000000e+000
      vertex   2.011352e+003 -4.694631e+002 0.000000e+000
    endloop
  endfacet
  facet normal 0.000000e+000 0.000000e+000 1.000000e+000
    outer loop
      vertex   2.004530e+003 -4.660004e+002 0.000000e+000
      vertex   1.992393e+003 -4.660004e+002 0.000000e+000
      vertex   1.999231e+003 -4.694631e+002 0.000000e+000
    endloop
  endfacet
  facet normal 0.000000e+000 0.000000e+000 1.000000e+000
    outer loop
      vertex   1.992393e+003 -4.660004e+002 0.000000e+000
      vertex   1.980255e+003 -4.660004e+002 0.000000e+000
      vertex   1.987110e+003 -4.694631e+002 0.000000e+000
    endloop
  endfacet
  facet normal 0.000000e+000 -0.000000e+000 1.000000e+000
    outer loop
      vertex   1.955981e+003 -4.660004e+002 0.000000e+000
      vertex   1.955981e+003 -4.498872e+002 0.000000e+000
      vertex   1.951362e+003 -4.660004e+002 0.000000e+000
    endloop
  endfacet
  facet normal -1.360129e-015 2.614562e-015 1.000000e+000
    outer loop
      vertex   1.987246e+003 -4.520851e+002 1.776357e-014
      vertex   1.987665e+003 -4.450728e+002 0.000000e+000
      vertex   1.976139e+003 -4.510691e+002 0.000000e+000
    endloop
  endfacet
  facet normal 2.304649e-016 2.519400e-015 1.000000e+000
    outer loop
      vertex   1.987246e+003 -4.520851e+002 1.776357e-014
      vertex   1.998353e+003 -4.531012e+002 1.776357e-014
      vertex   1.987665e+003 -4.450728e+002 0.000000e+000
    endloop
  endfacet
  facet normal 2.390227e-016 2.530792e-015 1.000000e+000
    outer loop
      vertex   1.987665e+003 -4.450728e+002 0.000000e+000
      vertex   1.998353e+003 -4.531012e+002 1.776357e-014
      vertex   2.000274e+003 -4.462636e+002 0.000000e+000
    endloop
  endfacet
  facet normal 2.316953e-016 2.532851e-015 1.000000e+000
    outer loop
      vertex   2.000274e+003 -4.462636e+002 0.000000e+000
      vertex   1.998353e+003 -4.531012e+002 1.776357e-014
      vertex   2.009460e+003 -4.541172e+002 1.776357e-014
    endloop
  endfacet
  facet normal 1.766877e-015 1.831940e-015 1.000000e+000
    outer loop
      vertex   2.012860e+003 -4.477003e+002 0.000000e+000
      vertex   2.009460e+003 -4.541172e+002 1.776357e-014
      vertex   2.020567e+003 -4.551332e+002 0.000000e+000
    endloop
  endfacet
  facet normal 0.000000e+000 0.000000e+000 1.000000e+000
    outer loop
      vertex   2.025419e+003 -4.493762e+002 0.000000e+000
      vertex   2.020567e+003 -4.551332e+002 0.000000e+000
      vertex   2.036823e+003 -4.573962e+002 0.000000e+000
    endloop
  endfacet
  facet normal 0.000000e+000 0.000000e+000 1.000000e+000
    outer loop
      vertex   2.036208e+003 -4.559336e+002 0.000000e+000
      vertex   2.025419e+003 -4.493762e+002 0.000000e+000
      vertex   2.036823e+003 -4.573962e+002 0.000000e+000
    endloop
  endfacet
  facet normal 1.778968e-015 2.819000e-016 1.000000e+000
    outer loop
      vertex   1.976139e+003 -4.510691e+002 0.000000e+000
      vertex   1.975040e+003 -4.441346e+002 0.000000e+000
      vertex   1.966060e+003 -4.504781e+002 1.776357e-014
    endloop
  endfacet
  facet normal 0.000000e+000 -0.000000e+000 1.000000e+000
    outer loop
      vertex   1.976139e+003 -4.510691e+002 0.000000e+000
      vertex   1.987665e+003 -4.450728e+002 0.000000e+000
      vertex   1.975040e+003 -4.441346e+002 0.000000e+000
    endloop
  endfacet
  facet normal -0.000000e+000 -0.000000e+000 1.000000e+000
    outer loop
      vertex   2.036823e+003 -4.573962e+002 0.000000e+000
      vertex   2.053080e+003 -4.596592e+002 0.000000e+000
      vertex   2.049543e+003 -4.559336e+002 0.000000e+000
    endloop
  endfacet
  facet normal 0.000000e+000 0.000000e+000 1.000000e+000
    outer loop
      vertex   1.874648e+003 -4.525683e+002 0.000000e+000
      vertex   1.862856e+003 -4.572784e+002 0.000000e+000
      vertex   1.873885e+003 -4.606431e+002 0.000000e+000
    endloop
  endfacet
  facet normal 0.000000e+000 0.000000e+000 1.000000e+000
    outer loop
      vertex   2.050434e+003 -4.534183e+002 0.000000e+000
      vertex   2.037946e+003 -4.512844e+002 0.000000e+000
      vertex   2.049543e+003 -4.559336e+002 0.000000e+000
    endloop
  endfacet
  facet normal 0.000000e+000 0.000000e+000 1.000000e+000
    outer loop
      vertex   2.049543e+003 -4.559336e+002 0.000000e+000
      vertex   2.037946e+003 -4.512844e+002 0.000000e+000
      vertex   2.036208e+003 -4.559336e+002 0.000000e+000
    endloop
  endfacet
  facet normal -0.000000e+000 0.000000e+000 1.000000e+000
    outer loop
      vertex   1.886809e+003 -4.489847e+002 0.000000e+000
      vertex   1.889591e+003 -4.547638e+002 0.000000e+000
      vertex   1.899208e+003 -4.463856e+002 0.000000e+000
    endloop
  endfacet
  facet normal -0.000000e+000 0.000000e+000 1.000000e+000
    outer loop
      vertex   1.899208e+003 -4.463856e+002 0.000000e+000
      vertex   1.904000e+003 -4.524546e+002 0.000000e+000
      vertex   1.911755e+003 -4.446328e+002 0.000000e+000
    endloop
  endfacet
  facet normal -0.000000e+000 0.000000e+000 1.000000e+000
    outer loop
      vertex   1.911755e+003 -4.446328e+002 0.000000e+000
      vertex   1.918409e+003 -4.501454e+002 0.000000e+000
      vertex   1.924396e+003 -4.435910e+002 0.000000e+000
    endloop
  endfacet
  facet normal -0.000000e+000 0.000000e+000 1.000000e+000
    outer loop
      vertex   1.924396e+003 -4.435910e+002 0.000000e+000
      vertex   1.933096e+003 -4.497759e+002 0.000000e+000
      vertex   1.937076e+003 -4.431251e+002 0.000000e+000
    endloop
  endfacet
  facet normal 0.000000e+000 0.000000e+000 1.000000e+000
    outer loop
      vertex   1.949748e+003 -4.431081e+002 0.000000e+000
      vertex   1.937076e+003 -4.431251e+002 0.000000e+000
      vertex   1.947782e+003 -4.494065e+002 0.000000e+000
    endloop
  endfacet
  facet normal -0.000000e+000 -0.000000e+000 1.000000e+000
    outer loop
      vertex   1.951362e+003 -4.496164e+002 0.000000e+000
      vertex   1.955981e+003 -4.498872e+002 0.000000e+000
      vertex   1.949748e+003 -4.431081e+002 0.000000e+000
    endloop
  endfacet
  facet normal -0.000000e+000 0.000000e+000 1.000000e+000
    outer loop
      vertex   1.949748e+003 -4.431081e+002 0.000000e+000
      vertex   1.955981e+003 -4.498872e+002 0.000000e+000
      vertex   1.962401e+003 -4.434636e+002 0.000000e+000
    endloop
  endfacet
  facet normal -1.664870e-015 1.664113e-015 1.000000e+000
    outer loop
      vertex   1.962401e+003 -4.434636e+002 0.000000e+000
      vertex   1.955981e+003 -4.498872e+002 0.000000e+000
      vertex   1.966060e+003 -4.504781e+002 1.776357e-014
    endloop
  endfacet
  facet normal 1.382689e-016 2.604511e-015 1.000000e+000
    outer loop
      vertex   1.975040e+003 -4.441346e+002 0.000000e+000
      vertex   1.962401e+003 -4.434636e+002 0.000000e+000
      vertex   1.966060e+003 -4.504781e+002 1.776357e-014
    endloop
  endfacet
  facet normal 2.979651e-016 2.610364e-015 1.000000e+000
    outer loop
      vertex   2.012860e+003 -4.477003e+002 0.000000e+000
      vertex   2.000274e+003 -4.462636e+002 0.000000e+000
      vertex   2.009460e+003 -4.541172e+002 1.776357e-014
    endloop
  endfacet
  facet normal 0.000000e+000 0.000000e+000 1.000000e+000
    outer loop
      vertex   2.025419e+003 -4.493762e+002 0.000000e+000
      vertex   2.012860e+003 -4.477003e+002 0.000000e+000
      vertex   2.020567e+003 -4.551332e+002 0.000000e+000
    endloop
  endfacet
  facet normal 0.000000e+000 0.000000e+000 1.000000e+000
    outer loop
      vertex   1.886809e+003 -4.489847e+002 0.000000e+000
      vertex   1.874648e+003 -4.525683e+002 0.000000e+000
      vertex   1.876190e+003 -4.559336e+002 0.000000e+000
    endloop
  endfacet
  facet normal -1.000000e+000 4.878487e-014 0.000000e+000
    outer loop
      vertex   1.862856e+003 -4.631044e+002 0.000000e+000
      vertex   1.862856e+003 -4.572784e+002 0.000000e+000
      vertex   1.862856e+003 -4.631044e+002 -3.000000e+000
    endloop
  endfacet
  facet normal -1.000000e+000 1.413495e-013 -1.797584e-013
    outer loop
      vertex   1.862856e+003 -4.631044e+002 -3.000000e+000
      vertex   1.862856e+003 -4.572784e+002 0.000000e+000
      vertex   1.862856e+003 -4.590829e+002 -3.000000e+000
    endloop
  endfacet
  facet normal -3.238286e-001 8.107567e-001 -4.876563e-001
    outer loop
      vertex   1.862856e+003 -4.572784e+002 0.000000e+000
      vertex   1.874648e+003 -4.525683e+002 0.000000e+000
      vertex   1.862856e+003 -4.590829e+002 -3.000000e+000
    endloop
  endfacet
  facet normal -3.608029e-001 8.398643e-001 -4.055234e-001
    outer loop
      vertex   1.862856e+003 -4.590829e+002 -3.000000e+000
      vertex   1.874648e+003 -4.525683e+002 0.000000e+000
      vertex   1.874549e+003 -4.540594e+002 -3.000000e+000
    endloop
  endfacet
  facet normal -2.652185e-001 8.668815e-001 -4.221085e-001
    outer loop
      vertex   1.874549e+003 -4.540594e+002 -3.000000e+000
      vertex   1.874648e+003 -4.525683e+002 0.000000e+000
      vertex   1.886731e+003 -4.496021e+002 -1.500000e+000
    endloop
  endfacet
  facet normal -1.984575e-001 9.099565e-001 -3.641343e-001
    outer loop
      vertex   1.886652e+003 -4.502196e+002 -3.000000e+000
      vertex   1.886731e+003 -4.496021e+002 -1.500000e+000
      vertex   1.899117e+003 -4.469008e+002 -1.500000e+000
    endloop
  endfacet
  facet normal -1.372422e-001 9.393673e-001 -3.142508e-001
    outer loop
      vertex   1.899025e+003 -4.474160e+002 -3.000000e+000
      vertex   1.899117e+003 -4.469008e+002 -1.500000e+000
      vertex   1.911659e+003 -4.450683e+002 -1.500000e+000
    endloop
  endfacet
  facet normal -8.350856e-002 9.584041e-001 -2.729248e-001
    outer loop
      vertex   1.911563e+003 -4.455038e+002 -3.000000e+000
      vertex   1.911659e+003 -4.450683e+002 -1.500000e+000
      vertex   1.924301e+003 -4.439668e+002 -1.500000e+000
    endloop
  endfacet
  facet normal -3.885824e-002 9.698662e-001 -2.405193e-001
    outer loop
      vertex   1.924207e+003 -4.443425e+002 -3.000000e+000
      vertex   1.924301e+003 -4.439668e+002 -1.500000e+000
      vertex   1.936988e+003 -4.434584e+002 -1.500000e+000
    endloop
  endfacet
  facet normal -3.574998e-003 9.762207e-001 -2.167498e-001
    outer loop
      vertex   1.936901e+003 -4.437918e+002 -3.000000e+000
      vertex   1.936988e+003 -4.434584e+002 -1.500000e+000
      vertex   1.949670e+003 -4.434120e+002 -1.500000e+000
    endloop
  endfacet
  facet normal 2.583398e-002 9.794551e-001 -2.000008e-001
    outer loop
      vertex   1.949592e+003 -4.437163e+002 -3.000000e+000
      vertex   1.949670e+003 -4.434120e+002 -1.500000e+000
      vertex   1.962333e+003 -4.437460e+002 -1.500000e+000
    endloop
  endfacet
  facet normal 5.087481e-002 9.810187e-001 -1.871203e-001
    outer loop
      vertex   1.962264e+003 -4.440286e+002 -3.000000e+000
      vertex   1.962333e+003 -4.437460e+002 -1.500000e+000
      vertex   1.974980e+003 -4.444019e+002 -1.500000e+000
    endloop
  endfacet
  facet normal 7.203396e-002 9.814340e-001 -1.777595e-001
    outer loop
      vertex   1.974921e+003 -4.446692e+002 -3.000000e+000
      vertex   1.974980e+003 -4.444019e+002 -1.500000e+000
      vertex   1.987615e+003 -4.453292e+002 -1.500000e+000
    endloop
  endfacet
  facet normal 9.195430e-002 9.809860e-001 -1.709119e-001
    outer loop
      vertex   1.987564e+003 -4.455858e+002 -3.000000e+000
      vertex   1.987615e+003 -4.453292e+002 -1.500000e+000
      vertex   2.000232e+003 -4.465119e+002 -1.500000e+000
    endloop
  endfacet
  facet normal 1.113501e-001 9.799094e-001 -1.654652e-001
    outer loop
      vertex   2.000190e+003 -4.467605e+002 -3.000000e+000
      vertex   2.000232e+003 -4.465119e+002 -1.500000e+000
      vertex   2.012827e+003 -4.479432e+002 -1.500000e+000
    endloop
  endfacet
  facet normal 1.302164e-001 9.782648e-001 -1.613742e-001
    outer loop
      vertex   2.012795e+003 -4.481862e+002 -3.000000e+000
      vertex   2.012827e+003 -4.479432e+002 -1.500000e+000
      vertex   2.025395e+003 -4.496161e+002 -1.500000e+000
    endloop
  endfacet
  facet normal 1.485520e-001 9.761047e-001 -1.585939e-001
    outer loop
      vertex   2.025371e+003 -4.498561e+002 -3.000000e+000
      vertex   2.025395e+003 -4.496161e+002 -1.500000e+000
      vertex   2.037930e+003 -4.515237e+002 -1.500000e+000
    endloop
  endfacet
  facet normal 1.663586e-001 9.734738e-001 -1.570781e-001
    outer loop
      vertex   2.037914e+003 -4.517630e+002 -3.000000e+000
      vertex   2.037930e+003 -4.515237e+002 -1.500000e+000
      vertex   2.050426e+003 -4.536592e+002 -1.500000e+000
    endloop
  endfacet
  facet normal 1.836301e-001 9.704123e-001 -1.567800e-001
    outer loop
      vertex   2.050418e+003 -4.539001e+002 -3.000000e+000
      vertex   2.050426e+003 -4.536592e+002 -1.500000e+000
      vertex   2.062878e+003 -4.560155e+002 -1.500000e+000
    endloop
  endfacet
  facet normal 1.837542e-001 9.701649e-001 -1.581595e-001
    outer loop
      vertex   2.062878e+003 -4.562600e+002 -3.000000e+000
      vertex   2.050418e+003 -4.539001e+002 -3.000000e+000
      vertex   2.062878e+003 -4.560155e+002 -1.500000e+000
    endloop
  endfacet
  facet normal -2.642251e-001 8.966689e-001 -3.552041e-001
    outer loop
      vertex   1.874648e+003 -4.525683e+002 0.000000e+000
      vertex   1.886809e+003 -4.489847e+002 0.000000e+000
      vertex   1.886731e+003 -4.496021e+002 -1.500000e+000
    endloop
  endfacet
  facet normal -1.910066e-001 9.111897e-001 -3.650339e-001
    outer loop
      vertex   1.886731e+003 -4.496021e+002 -1.500000e+000
      vertex   1.886809e+003 -4.489847e+002 0.000000e+000
      vertex   1.899208e+003 -4.463856e+002 0.000000e+000
    endloop
  endfacet
  facet normal -1.313208e-001 9.400177e-001 -3.148359e-001
    outer loop
      vertex   1.899117e+003 -4.469008e+002 -1.500000e+000
      vertex   1.899208e+003 -4.463856e+002 0.000000e+000
      vertex   1.911755e+003 -4.446328e+002 0.000000e+000
    endloop
  endfacet
  facet normal -7.901247e-002 9.586804e-001 -2.732926e-001
    outer loop
      vertex   1.911659e+003 -4.450683e+002 -1.500000e+000
      vertex   1.911755e+003 -4.446328e+002 0.000000e+000
      vertex   1.924396e+003 -4.435910e+002 0.000000e+000
    endloop
  endfacet
  facet normal -3.563885e-002 9.699354e-001 -2.407388e-001
    outer loop
      vertex   1.924301e+003 -4.439668e+002 -1.500000e+000
      vertex   1.924396e+003 -4.435910e+002 0.000000e+000
      vertex   1.937076e+003 -4.431251e+002 0.000000e+000
    endloop
  endfacet
  facet normal -1.308955e-003 9.761981e-001 -2.168767e-001
    outer loop
      vertex   1.936988e+003 -4.434584e+002 -1.500000e+000
      vertex   1.937076e+003 -4.431251e+002 0.000000e+000
      vertex   1.949748e+003 -4.431081e+002 0.000000e+000
    endloop
  endfacet
  facet normal 2.751912e-002 9.794356e-001 -1.998713e-001
    outer loop
      vertex   1.949670e+003 -4.434120e+002 -1.500000e+000
      vertex   1.949748e+003 -4.431081e+002 0.000000e+000
      vertex   1.962401e+003 -4.434636e+002 0.000000e+000
    endloop
  endfacet
  facet normal 5.207789e-002 9.809688e-001 -1.870508e-001
    outer loop
      vertex   1.962333e+003 -4.437460e+002 -1.500000e+000
      vertex   1.962401e+003 -4.434636e+002 0.000000e+000
      vertex   1.975040e+003 -4.441346e+002 0.000000e+000
    endloop
  endfacet
  facet normal 7.292640e-002 9.813640e-001 -1.777818e-001
    outer loop
      vertex   1.974980e+003 -4.444019e+002 -1.500000e+000
      vertex   1.975040e+003 -4.441346e+002 0.000000e+000
      vertex   1.987665e+003 -4.450728e+002 0.000000e+000
    endloop
  endfacet
  facet normal 9.264546e-002 9.809380e-001 -1.708140e-001
    outer loop
      vertex   1.987615e+003 -4.453292e+002 -1.500000e+000
      vertex   1.987665e+003 -4.450728e+002 0.000000e+000
      vertex   2.000274e+003 -4.462636e+002 0.000000e+000
    endloop
  endfacet
  facet normal 1.118500e-001 9.798769e-001 -1.653205e-001
    outer loop
      vertex   2.000232e+003 -4.465119e+002 -1.500000e+000
      vertex   2.000274e+003 -4.462636e+002 0.000000e+000
      vertex   2.012860e+003 -4.477003e+002 0.000000e+000
    endloop
  endfacet
  facet normal 1.305346e-001 9.782449e-001 -1.612378e-001
    outer loop
      vertex   2.012827e+003 -4.479432e+002 -1.500000e+000
      vertex   2.012860e+003 -4.477003e+002 0.000000e+000
      vertex   2.025419e+003 -4.493762e+002 0.000000e+000
    endloop
  endfacet
  facet normal 1.486983e-001 9.760978e-001 -1.584990e-001
    outer loop
      vertex   2.025395e+003 -4.496161e+002 -1.500000e+000
      vertex   2.025419e+003 -4.493762e+002 0.000000e+000
      vertex   2.037946e+003 -4.512844e+002 0.000000e+000
    endloop
  endfacet
  facet normal 1.663430e-001 9.734833e-001 -1.570356e-001
    outer loop
      vertex   2.037930e+003 -4.515237e+002 -1.500000e+000
      vertex   2.037946e+003 -4.512844e+002 0.000000e+000
      vertex   2.050434e+003 -4.534183e+002 0.000000e+000
    endloop
  endfacet
  facet normal 1.834643e-001 9.704439e-001 -1.567786e-001
    outer loop
      vertex   2.050426e+003 -4.536592e+002 -1.500000e+000
      vertex   2.050434e+003 -4.534183e+002 0.000000e+000
      vertex   2.062878e+003 -4.557709e+002 0.000000e+000
    endloop
  endfacet
  facet normal 1.835891e-001 9.701954e-001 -1.581645e-001
    outer loop
      vertex   2.062878e+003 -4.560155e+002 -1.500000e+000
      vertex   2.050426e+003 -4.536592e+002 -1.500000e+000
      vertex   2.062878e+003 -4.557709e+002 0.000000e+000
    endloop
  endfacet
  facet normal 1.663682e-001 9.734556e-001 -1.571808e-001
    outer loop
      vertex   2.050418e+003 -4.539001e+002 -3.000000e+000
      vertex   2.037914e+003 -4.517630e+002 -3.000000e+000
      vertex   2.050426e+003 -4.536592e+002 -1.500000e+000
    endloop
  endfacet
  facet normal 1.484320e-001 9.763250e-001 -1.573448e-001
    outer loop
      vertex   2.037914e+003 -4.517630e+002 -3.000000e+000
      vertex   2.025371e+003 -4.498561e+002 -3.000000e+000
      vertex   2.037930e+003 -4.515237e+002 -1.500000e+000
    endloop
  endfacet
  facet normal 1.299532e-001 9.787348e-001 -1.587148e-001
    outer loop
      vertex   2.025371e+003 -4.498561e+002 -3.000000e+000
      vertex   2.012795e+003 -4.481862e+002 -3.000000e+000
      vertex   2.025395e+003 -4.496161e+002 -1.500000e+000
    endloop
  endfacet
  facet normal 1.109290e-001 9.806453e-001 -1.613369e-001
    outer loop
      vertex   2.012795e+003 -4.481862e+002 -3.000000e+000
      vertex   2.000190e+003 -4.467605e+002 -3.000000e+000
      vertex   2.012827e+003 -4.479432e+002 -1.500000e+000
    endloop
  endfacet
  facet normal 9.135957e-002 9.820100e-001 -1.652570e-001
    outer loop
      vertex   2.000190e+003 -4.467605e+002 -3.000000e+000
      vertex   1.987564e+003 -4.455858e+002 -3.000000e+000
      vertex   2.000232e+003 -4.465119e+002 -1.500000e+000
    endloop
  endfacet
  facet normal 7.124810e-002 9.827751e-001 -1.705191e-001
    outer loop
      vertex   1.987564e+003 -4.455858e+002 -3.000000e+000
      vertex   1.974921e+003 -4.446692e+002 -3.000000e+000
      vertex   1.987615e+003 -4.453292e+002 -1.500000e+000
    endloop
  endfacet
  facet normal 4.975381e-002 9.829268e-001 -1.771425e-001
    outer loop
      vertex   1.974921e+003 -4.446692e+002 -3.000000e+000
      vertex   1.962264e+003 -4.440286e+002 -3.000000e+000
      vertex   1.974980e+003 -4.444019e+002 -1.500000e+000
    endloop
  endfacet
  facet normal 2.420771e-002 9.822263e-001 -1.861330e-001
    outer loop
      vertex   1.962264e+003 -4.440286e+002 -3.000000e+000
      vertex   1.949592e+003 -4.437163e+002 -3.000000e+000
      vertex   1.962333e+003 -4.437460e+002 -1.500000e+000
    endloop
  endfacet
  facet normal -5.834917e-003 9.800854e-001 -1.984905e-001
    outer loop
      vertex   1.949592e+003 -4.437163e+002 -3.000000e+000
      vertex   1.936901e+003 -4.437918e+002 -3.000000e+000
      vertex   1.949670e+003 -4.434120e+002 -1.500000e+000
    endloop
  endfacet
  facet normal -4.233532e-002 9.758269e-001 -2.144051e-001
    outer loop
      vertex   1.936901e+003 -4.437918e+002 -3.000000e+000
      vertex   1.924207e+003 -4.443425e+002 -3.000000e+000
      vertex   1.936988e+003 -4.434584e+002 -1.500000e+000
    endloop
  endfacet
  facet normal -8.886067e-002 9.674900e-001 -2.367845e-001
    outer loop
      vertex   1.924207e+003 -4.443425e+002 -3.000000e+000
      vertex   1.911563e+003 -4.455038e+002 -3.000000e+000
      vertex   1.924301e+003 -4.439668e+002 -1.500000e+000
    endloop
  endfacet
  facet normal -1.452770e-001 9.526023e-001 -2.672892e-001
    outer loop
      vertex   1.911563e+003 -4.455038e+002 -3.000000e+000
      vertex   1.899025e+003 -4.474160e+002 -3.000000e+000
      vertex   1.911659e+003 -4.450683e+002 -1.500000e+000
    endloop
  endfacet
  facet normal -2.103801e-001 9.284812e-001 -3.060440e-001
    outer loop
      vertex   1.899025e+003 -4.474160e+002 -3.000000e+000
      vertex   1.886652e+003 -4.502196e+002 -3.000000e+000
      vertex   1.899117e+003 -4.469008e+002 -1.500000e+000
    endloop
  endfacet
  facet normal -2.830251e-001 8.920590e-001 -3.523173e-001
    outer loop
      vertex   1.886652e+003 -4.502196e+002 -3.000000e+000
      vertex   1.874549e+003 -4.540594e+002 -3.000000e+000
      vertex   1.886731e+003 -4.496021e+002 -1.500000e+000
    endloop
  endfacet
  facet normal 1.663560e-001 9.734585e-001 -1.571755e-001
    outer loop
      vertex   2.050426e+003 -4.536592e+002 -1.500000e+000
      vertex   2.037930e+003 -4.515237e+002 -1.500000e+000
      vertex   2.050434e+003 -4.534183e+002 0.000000e+000
    endloop
  endfacet
  facet normal 1.485831e-001 9.763093e-001 -1.573001e-001
    outer loop
      vertex   2.037930e+003 -4.515237e+002 -1.500000e+000
      vertex   2.025395e+003 -4.496161e+002 -1.500000e+000
      vertex   2.037946e+003 -4.512844e+002 0.000000e+000
    endloop
  endfacet
  facet normal 1.302753e-001 9.787074e-001 -1.586194e-001
    outer loop
      vertex   2.025395e+003 -4.496161e+002 -1.500000e+000
      vertex   2.012827e+003 -4.479432e+002 -1.500000e+000
      vertex   2.025419e+003 -4.493762e+002 0.000000e+000
    endloop
  endfacet
  facet normal 1.114298e-001 9.806106e-001 -1.612023e-001
    outer loop
      vertex   2.012827e+003 -4.479432e+002 -1.500000e+000
      vertex   2.000232e+003 -4.465119e+002 -1.500000e+000
      vertex   2.012860e+003 -4.477003e+002 0.000000e+000
    endloop
  endfacet
  facet normal 9.204649e-002 9.819695e-001 -1.651164e-001
    outer loop
      vertex   2.000232e+003 -4.465119e+002 -1.500000e+000
      vertex   1.987615e+003 -4.453292e+002 -1.500000e+000
      vertex   2.000274e+003 -4.462636e+002 0.000000e+000
    endloop
  endfacet
  facet normal 7.212884e-002 9.827267e-001 -1.704277e-001
    outer loop
      vertex   1.987615e+003 -4.453292e+002 -1.500000e+000
      vertex   1.974980e+003 -4.444019e+002 -1.500000e+000
      vertex   1.987665e+003 -4.450728e+002 0.000000e+000
    endloop
  endfacet
  facet normal 5.097020e-002 9.828581e-001 -1.771779e-001
    outer loop
      vertex   1.974980e+003 -4.444019e+002 -1.500000e+000
      vertex   1.962333e+003 -4.437460e+002 -1.500000e+000
      vertex   1.975040e+003 -4.441346e+002 0.000000e+000
    endloop
  endfacet
  facet normal 2.590616e-002 9.821918e-001 -1.860864e-001
    outer loop
      vertex   1.962333e+003 -4.437460e+002 -1.500000e+000
      vertex   1.949670e+003 -4.434120e+002 -1.500000e+000
      vertex   1.962401e+003 -4.434636e+002 0.000000e+000
    endloop
  endfacet
  facet normal -3.589261e-003 9.801156e-001 -1.983948e-001
    outer loop
      vertex   1.949670e+003 -4.434120e+002 -1.500000e+000
      vertex   1.936988e+003 -4.434584e+002 -1.500000e+000
      vertex   1.949748e+003 -4.431081e+002 0.000000e+000
    endloop
  endfacet
  facet normal -3.910064e-002 9.759161e-001 -2.146133e-001
    outer loop
      vertex   1.936988e+003 -4.434584e+002 -1.500000e+000
      vertex   1.924301e+003 -4.439668e+002 -1.500000e+000
      vertex   1.937076e+003 -4.431251e+002 0.000000e+000
    endloop
  endfacet
  facet normal -8.432782e-002 9.678065e-001 -2.371484e-001
    outer loop
      vertex   1.924301e+003 -4.439668e+002 -1.500000e+000
      vertex   1.911659e+003 -4.450683e+002 -1.500000e+000
      vertex   1.924396e+003 -4.435910e+002 0.000000e+000
    endloop
  endfacet
  facet normal -1.392822e-001 9.533303e-001 -2.678840e-001
    outer loop
      vertex   1.911659e+003 -4.450683e+002 -1.500000e+000
      vertex   1.899117e+003 -4.469008e+002 -1.500000e+000
      vertex   1.911755e+003 -4.446328e+002 0.000000e+000
    endloop
  endfacet
  facet normal -2.027979e-001 9.298582e-001 -3.069801e-001
    outer loop
      vertex   1.899117e+003 -4.469008e+002 -1.500000e+000
      vertex   1.886731e+003 -4.496021e+002 -1.500000e+000
      vertex   1.899208e+003 -4.463856e+002 0.000000e+000
    endloop
  endfacet
  facet normal 1.000000e+000 8.401452e-014 -1.369633e-014
    outer loop
      vertex   2.062878e+003 -4.557709e+002 0.000000e+000
      vertex   2.062878e+003 -4.625368e+002 0.000000e+000
      vertex   2.062878e+003 -4.560155e+002 -1.500000e+000
    endloop
  endfacet
  facet normal 1.000000e+000 8.716486e-014 0.000000e+000
    outer loop
      vertex   2.062878e+003 -4.560155e+002 -1.500000e+000
      vertex   2.062878e+003 -4.625368e+002 0.000000e+000
      vertex   2.062878e+003 -4.625368e+002 -3.000000e+000
    endloop
  endfacet
  facet normal 1.000000e+000 9.056066e-014 -1.476350e-014
    outer loop
      vertex   2.062878e+003 -4.562600e+002 -3.000000e+000
      vertex   2.062878e+003 -4.560155e+002 -1.500000e+000
      vertex   2.062878e+003 -4.625368e+002 -3.000000e+000
    endloop
  endfacet
  facet normal -0.000000e+000 -1.000000e+000 -0.000000e+000
    outer loop
      vertex   2.062878e+003 -4.625368e+002 0.000000e+000
      vertex   2.059838e+003 -4.625368e+002 0.000000e+000
      vertex   2.062878e+003 -4.625368e+002 -3.000000e+000
    endloop
  endfacet
  facet normal -0.000000e+000 -1.000000e+000 -0.000000e+000
    outer loop
      vertex   2.062878e+003 -4.625368e+002 -3.000000e+000
      vertex   2.059838e+003 -4.625368e+002 0.000000e+000
      vertex   2.059838e+003 -4.625368e+002 -3.000000e+000
    endloop
  endfacet
  facet normal 1.000000e+000 8.206938e-014 0.000000e+000
    outer loop
      vertex   2.059838e+003 -4.694631e+002 0.000000e+000
      vertex   2.059838e+003 -4.694631e+002 -1.500000e+000
      vertex   2.059838e+003 -4.625368e+002 0.000000e+000
    endloop
  endfacet
  facet normal 1.000000e+000 8.206938e-014 0.000000e+000
    outer loop
      vertex   2.059838e+003 -4.625368e+002 0.000000e+000
      vertex   2.059838e+003 -4.694631e+002 -1.500000e+000
      vertex   2.059838e+003 -4.625368e+002 -3.000000e+000
    endloop
  endfacet
  facet normal 1.000000e+000 8.206938e-014 0.000000e+000
    outer loop
      vertex   2.059838e+003 -4.625368e+002 -3.000000e+000
      vertex   2.059838e+003 -4.694631e+002 -1.500000e+000
      vertex   2.059838e+003 -4.694631e+002 -3.000000e+000
    endloop
  endfacet
  facet normal -0.000000e+000 -1.000000e+000 -0.000000e+000
    outer loop
      vertex   2.059838e+003 -4.694631e+002 0.000000e+000
      vertex   2.047716e+003 -4.694631e+002 0.000000e+000
      vertex   2.059838e+003 -4.694631e+002 -1.500000e+000
    endloop
  endfacet
  facet normal -0.000000e+000 -1.000000e+000 -0.000000e+000
    outer loop
      vertex   2.059838e+003 -4.694631e+002 -1.500000e+000
      vertex   2.047716e+003 -4.694631e+002 0.000000e+000
      vertex   2.047716e+003 -4.694631e+002 -1.500000e+000
    endloop
  endfacet
  facet normal -0.000000e+000 -1.000000e+000 0.000000e+000
    outer loop
      vertex   2.059838e+003 -4.694631e+002 -3.000000e+000
      vertex   2.047716e+003 -4.694631e+002 -1.500000e+000
      vertex   2.047716e+003 -4.694631e+002 -3.000000e+000
    endloop
  endfacet
  facet normal 0.000000e+000 -1.000000e+000 0.000000e+000
    outer loop
      vertex   2.059838e+003 -4.694631e+002 -3.000000e+000
      vertex   2.059838e+003 -4.694631e+002 -1.500000e+000
      vertex   2.047716e+003 -4.694631e+002 -1.500000e+000
    endloop
  endfacet
  facet normal -0.000000e+000 -1.000000e+000 -0.000000e+000
    outer loop
      vertex   2.047716e+003 -4.694631e+002 0.000000e+000
      vertex   2.035595e+003 -4.694631e+002 0.000000e+000
      vertex   2.047716e+003 -4.694631e+002 -1.500000e+000
    endloop
  endfacet
  facet normal -0.000000e+000 -1.000000e+000 0.000000e+000
    outer loop
      vertex   2.047716e+003 -4.694631e+002 -1.500000e+000
      vertex   2.035595e+003 -4.694631e+002 0.000000e+000
      vertex   2.035595e+003 -4.694631e+002 -1.500000e+000
    endloop
  endfacet
  facet normal -0.000000e+000 -1.000000e+000 -0.000000e+000
    outer loop
      vertex   2.047716e+003 -4.694631e+002 -3.000000e+000
      vertex   2.035595e+003 -4.694631e+002 -1.500000e+000
      vertex   2.035595e+003 -4.694631e+002 -3.000000e+000
    endloop
  endfacet
  facet normal 0.000000e+000 -1.000000e+000 0.000000e+000
    outer loop
      vertex   2.047716e+003 -4.694631e+002 -3.000000e+000
      vertex   2.047716e+003 -4.694631e+002 -1.500000e+000
      vertex   2.035595e+003 -4.694631e+002 -1.500000e+000
    endloop
  endfacet
  facet normal -0.000000e+000 -1.000000e+000 -0.000000e+000
    outer loop
      vertex   2.035595e+003 -4.694631e+002 0.000000e+000
      vertex   2.023474e+003 -4.694631e+002 0.000000e+000
      vertex   2.035595e+003 -4.694631e+002 -1.500000e+000
    endloop
  endfacet
  facet normal -0.000000e+000 -1.000000e+000 -0.000000e+000
    outer loop
      vertex   2.035595e+003 -4.694631e+002 -1.500000e+000
      vertex   2.023474e+003 -4.694631e+002 0.000000e+000
      vertex   2.023474e+003 -4.694631e+002 -1.500000e+000
    endloop
  endfacet
  facet normal -0.000000e+000 -1.000000e+000 -0.000000e+000
    outer loop
      vertex   2.035595e+003 -4.694631e+002 -3.000000e+000
      vertex   2.023474e+003 -4.694631e+002 -1.500000e+000
      vertex   2.023474e+003 -4.694631e+002 -3.000000e+000
    endloop
  endfacet
  facet normal 0.000000e+000 -1.000000e+000 0.000000e+000
    outer loop
      vertex   2.035595e+003 -4.694631e+002 -3.000000e+000
      vertex   2.035595e+003 -4.694631e+002 -1.500000e+000
      vertex   2.023474e+003 -4.694631e+002 -1.500000e+000
    endloop
  endfacet
  facet normal -0.000000e+000 -1.000000e+000 -0.000000e+000
    outer loop
      vertex   2.023474e+003 -4.694631e+002 0.000000e+000
      vertex   2.011352e+003 -4.694631e+002 0.000000e+000
      vertex   2.023474e+003 -4.694631e+002 -1.500000e+000
    endloop
  endfacet
  facet normal -0.000000e+000 -1.000000e+000 -0.000000e+000
    outer loop
      vertex   2.023474e+003 -4.694631e+002 -1.500000e+000
      vertex   2.011352e+003 -4.694631e+002 0.000000e+000
      vertex   2.011352e+003 -4.694631e+002 -1.500000e+000
    endloop
  endfacet
  facet normal -0.000000e+000 -1.000000e+000 -0.000000e+000
    outer loop
      vertex   2.023474e+003 -4.694631e+002 -3.000000e+000
      vertex   2.011352e+003 -4.694631e+002 -1.500000e+000
      vertex   2.011352e+003 -4.694631e+002 -3.000000e+000
    endloop
  endfacet
  facet normal 0.000000e+000 -1.000000e+000 0.000000e+000
    outer loop
      vertex   2.023474e+003 -4.694631e+002 -3.000000e+000
      vertex   2.023474e+003 -4.694631e+002 -1.500000e+000
      vertex   2.011352e+003 -4.694631e+002 -1.500000e+000
    endloop
  endfacet
  facet normal -0.000000e+000 -1.000000e+000 -0.000000e+000
    outer loop
      vertex   2.011352e+003 -4.694631e+002 0.000000e+000
      vertex   1.999231e+003 -4.694631e+002 0.000000e+000
      vertex   2.011352e+003 -4.694631e+002 -1.500000e+000
    endloop
  endfacet
  facet normal -0.000000e+000 -1.000000e+000 -0.000000e+000
    outer loop
      vertex   2.011352e+003 -4.694631e+002 -1.500000e+000
      vertex   1.999231e+003 -4.694631e+002 0.000000e+000
      vertex   1.999231e+003 -4.694631e+002 -1.500000e+000
    endloop
  endfacet
  facet normal -0.000000e+000 -1.000000e+000 -0.000000e+000
    outer loop
      vertex   2.011352e+003 -4.694631e+002 -3.000000e+000
      vertex   1.999231e+003 -4.694631e+002 -1.500000e+000
      vertex   1.999231e+003 -4.694631e+002 -3.000000e+000
    endloop
  endfacet
  facet normal 0.000000e+000 -1.000000e+000 0.000000e+000
    outer loop
      vertex   2.011352e+003 -4.694631e+002 -3.000000e+000
      vertex   2.011352e+003 -4.694631e+002 -1.500000e+000
      vertex   1.999231e+003 -4.694631e+002 -1.500000e+000
    endloop
  endfacet
  facet normal -0.000000e+000 -1.000000e+000 -0.000000e+000
    outer loop
      vertex   1.999231e+003 -4.694631e+002 0.000000e+000
      vertex   1.987110e+003 -4.694631e+002 0.000000e+000
      vertex   1.999231e+003 -4.694631e+002 -1.500000e+000
    endloop
  endfacet
  facet normal -0.000000e+000 -1.000000e+000 -0.000000e+000
    outer loop
      vertex   1.999231e+003 -4.694631e+002 -1.500000e+000
      vertex   1.987110e+003 -4.694631e+002 0.000000e+000
      vertex   1.987110e+003 -4.694631e+002 -1.500000e+000
    endloop
  endfacet
  facet normal -0.000000e+000 -1.000000e+000 -0.000000e+000
    outer loop
      vertex   1.999231e+003 -4.694631e+002 -3.000000e+000
      vertex   1.987110e+003 -4.694631e+002 -1.500000e+000
      vertex   1.987110e+003 -4.694631e+002 -3.000000e+000
    endloop
  endfacet
  facet normal 0.000000e+000 -1.000000e+000 0.000000e+000
    outer loop
      vertex   1.999231e+003 -4.694631e+002 -3.000000e+000
      vertex   1.999231e+003 -4.694631e+002 -1.500000e+000
      vertex   1.987110e+003 -4.694631e+002 -1.500000e+000
    endloop
  endfacet
  facet normal -0.000000e+000 -1.000000e+000 -0.000000e+000
    outer loop
      vertex   1.987110e+003 -4.694631e+002 0.000000e+000
      vertex   1.974988e+003 -4.694631e+002 0.000000e+000
      vertex   1.987110e+003 -4.694631e+002 -1.500000e+000
    endloop
  endfacet
  facet normal -0.000000e+000 -1.000000e+000 -0.000000e+000
    outer loop
      vertex   1.987110e+003 -4.694631e+002 -1.500000e+000
      vertex   1.974988e+003 -4.694631e+002 0.000000e+000
      vertex   1.974988e+003 -4.694631e+002 -1.500000e+000
    endloop
  endfacet
  facet normal -0.000000e+000 -1.000000e+000 -0.000000e+000
    outer loop
      vertex   1.987110e+003 -4.694631e+002 -3.000000e+000
      vertex   1.974988e+003 -4.694631e+002 -1.500000e+000
      vertex   1.974988e+003 -4.694631e+002 -3.000000e+000
    endloop
  endfacet
  facet normal 0.000000e+000 -1.000000e+000 0.000000e+000
    outer loop
      vertex   1.987110e+003 -4.694631e+002 -3.000000e+000
      vertex   1.987110e+003 -4.694631e+002 -1.500000e+000
      vertex   1.974988e+003 -4.694631e+002 -1.500000e+000
    endloop
  endfacet
  facet normal -0.000000e+000 -1.000000e+000 -0.000000e+000
    outer loop
      vertex   1.974988e+003 -4.694631e+002 0.000000e+000
      vertex   1.962867e+003 -4.694631e+002 0.000000e+000
      vertex   1.974988e+003 -4.694631e+002 -1.500000e+000
    endloop
  endfacet
  facet normal -0.000000e+000 -1.000000e+000 -0.000000e+000
    outer loop
      vertex   1.974988e+003 -4.694631e+002 -1.500000e+000
      vertex   1.962867e+003 -4.694631e+002 0.000000e+000
      vertex   1.962867e+003 -4.694631e+002 -1.500000e+000
    endloop
  endfacet
  facet normal -0.000000e+000 -1.000000e+000 -0.000000e+000
    outer loop
      vertex   1.974988e+003 -4.694631e+002 -3.000000e+000
      vertex   1.962867e+003 -4.694631e+002 -1.500000e+000
      vertex   1.962867e+003 -4.694631e+002 -3.000000e+000
    endloop
  endfacet
  facet normal 0.000000e+000 -1.000000e+000 0.000000e+000
    outer loop
      vertex   1.974988e+003 -4.694631e+002 -3.000000e+000
      vertex   1.974988e+003 -4.694631e+002 -1.500000e+000
      vertex   1.962867e+003 -4.694631e+002 -1.500000e+000
    endloop
  endfacet
  facet normal -0.000000e+000 -1.000000e+000 -0.000000e+000
    outer loop
      vertex   1.962867e+003 -4.694631e+002 0.000000e+000
      vertex   1.950746e+003 -4.694631e+002 0.000000e+000
      vertex   1.962867e+003 -4.694631e+002 -1.500000e+000
    endloop
  endfacet
  facet normal -0.000000e+000 -1.000000e+000 -0.000000e+000
    outer loop
      vertex   1.962867e+003 -4.694631e+002 -1.500000e+000
      vertex   1.950746e+003 -4.694631e+002 0.000000e+000
      vertex   1.950746e+003 -4.694631e+002 -1.500000e+000
    endloop
  endfacet
  facet normal -0.000000e+000 -1.000000e+000 -0.000000e+000
    outer loop
      vertex   1.962867e+003 -4.694631e+002 -3.000000e+000
      vertex   1.950746e+003 -4.694631e+002 -1.500000e+000
      vertex   1.950746e+003 -4.694631e+002 -3.000000e+000
    endloop
  endfacet
  facet normal 0.000000e+000 -1.000000e+000 0.000000e+000
    outer loop
      vertex   1.962867e+003 -4.694631e+002 -3.000000e+000
      vertex   1.962867e+003 -4.694631e+002 -1.500000e+000
      vertex   1.950746e+003 -4.694631e+002 -1.500000e+000
    endloop
  endfacet
  facet normal -0.000000e+000 -1.000000e+000 -0.000000e+000
    outer loop
      vertex   1.950746e+003 -4.694631e+002 0.000000e+000
      vertex   1.938624e+003 -4.694631e+002 0.000000e+000
      vertex   1.950746e+003 -4.694631e+002 -1.500000e+000
    endloop
  endfacet
  facet normal -0.000000e+000 -1.000000e+000 -0.000000e+000
    outer loop
      vertex   1.950746e+003 -4.694631e+002 -1.500000e+000
      vertex   1.938624e+003 -4.694631e+002 0.000000e+000
      vertex   1.938624e+003 -4.694631e+002 -1.500000e+000
    endloop
  endfacet
  facet normal -0.000000e+000 -1.000000e+000 -0.000000e+000
    outer loop
      vertex   1.950746e+003 -4.694631e+002 -3.000000e+000
      vertex   1.938624e+003 -4.694631e+002 -1.500000e+000
      vertex   1.938624e+003 -4.694631e+002 -3.000000e+000
    endloop
  endfacet
  facet normal 0.000000e+000 -1.000000e+000 0.000000e+000
    outer loop
      vertex   1.950746e+003 -4.694631e+002 -3.000000e+000
      vertex   1.950746e+003 -4.694631e+002 -1.500000e+000
      vertex   1.938624e+003 -4.694631e+002 -1.500000e+000
    endloop
  endfacet
  facet normal -0.000000e+000 -1.000000e+000 -0.000000e+000
    outer loop
      vertex   1.938624e+003 -4.694631e+002 0.000000e+000
      vertex   1.926503e+003 -4.694631e+002 0.000000e+000
      vertex   1.938624e+003 -4.694631e+002 -1.500000e+000
    endloop
  endfacet
  facet normal -0.000000e+000 -1.000000e+000 -0.000000e+000
    outer loop
      vertex   1.938624e+003 -4.694631e+002 -1.500000e+000
      vertex   1.926503e+003 -4.694631e+002 0.000000e+000
      vertex   1.926503e+003 -4.694631e+002 -1.500000e+000
    endloop
  endfacet
  facet normal -0.000000e+000 -1.000000e+000 -0.000000e+000
    outer loop
      vertex   1.938624e+003 -4.694631e+002 -3.000000e+000
      vertex   1.926503e+003 -4.694631e+002 -1.500000e+000
      vertex   1.926503e+003 -4.694631e+002 -3.000000e+000
    endloop
  endfacet
  facet normal 0.000000e+000 -1.000000e+000 0.000000e+000
    outer loop
      vertex   1.938624e+003 -4.694631e+002 -3.000000e+000
      vertex   1.938624e+003 -4.694631e+002 -1.500000e+000
      vertex   1.926503e+003 -4.694631e+002 -1.500000e+000
    endloop
  endfacet
  facet normal -0.000000e+000 -1.000000e+000 -0.000000e+000
    outer loop
      vertex   1.926503e+003 -4.694631e+002 0.000000e+000
      vertex   1.914381e+003 -4.694631e+002 0.000000e+000
      vertex   1.926503e+003 -4.694631e+002 -1.500000e+000
    endloop
  endfacet
  facet normal -0.000000e+000 -1.000000e+000 -0.000000e+000
    outer loop
      vertex   1.926503e+003 -4.694631e+002 -1.500000e+000
      vertex   1.914381e+003 -4.694631e+002 0.000000e+000
      vertex   1.914381e+003 -4.694631e+002 -1.500000e+000
    endloop
  endfacet
  facet normal -0.000000e+000 -1.000000e+000 -0.000000e+000
    outer loop
      vertex   1.926503e+003 -4.694631e+002 -3.000000e+000
      vertex   1.914381e+003 -4.694631e+002 -1.500000e+000
      vertex   1.914381e+003 -4.694631e+002 -3.000000e+000
    endloop
  endfacet
  facet normal 0.000000e+000 -1.000000e+000 0.000000e+000
    outer loop
      vertex   1.926503e+003 -4.694631e+002 -3.000000e+000
      vertex   1.926503e+003 -4.694631e+002 -1.500000e+000
      vertex   1.914381e+003 -4.694631e+002 -1.500000e+000
    endloop
  endfacet
  facet normal -0.000000e+000 -1.000000e+000 -0.000000e+000
    outer loop
      vertex   1.914381e+003 -4.694631e+002 0.000000e+000
      vertex   1.902260e+003 -4.694631e+002 0.000000e+000
      vertex   1.914381e+003 -4.694631e+002 -1.500000e+000
    endloop
  endfacet
  facet normal -0.000000e+000 -1.000000e+000 -0.000000e+000
    outer loop
      vertex   1.914381e+003 -4.694631e+002 -1.500000e+000
      vertex   1.902260e+003 -4.694631e+002 0.000000e+000
      vertex   1.902260e+003 -4.694631e+002 -1.500000e+000
    endloop
  endfacet
  facet normal -0.000000e+000 -1.000000e+000 0.000000e+000
    outer loop
      vertex   1.914381e+003 -4.694631e+002 -3.000000e+000
      vertex   1.902260e+003 -4.694631e+002 -1.500000e+000
      vertex   1.902260e+003 -4.694631e+002 -3.000000e+000
    endloop
  endfacet
  facet normal 0.000000e+000 -1.000000e+000 0.000000e+000
    outer loop
      vertex   1.914381e+003 -4.694631e+002 -3.000000e+000
      vertex   1.914381e+003 -4.694631e+002 -1.500000e+000
      vertex   1.902260e+003 -4.694631e+002 -1.500000e+000
    endloop
  endfacet
  facet normal -0.000000e+000 -1.000000e+000 -0.000000e+000
    outer loop
      vertex   1.902260e+003 -4.694631e+002 0.000000e+000
      vertex   1.890139e+003 -4.694631e+002 0.000000e+000
      vertex   1.902260e+003 -4.694631e+002 -1.500000e+000
    endloop
  endfacet
  facet normal -0.000000e+000 -1.000000e+000 -0.000000e+000
    outer loop
      vertex   1.902260e+003 -4.694631e+002 -1.500000e+000
      vertex   1.890139e+003 -4.694631e+002 0.000000e+000
      vertex   1.890139e+003 -4.694631e+002 -1.500000e+000
    endloop
  endfacet
  facet normal -0.000000e+000 -1.000000e+000 0.000000e+000
    outer loop
      vertex   1.902260e+003 -4.694631e+002 -3.000000e+000
      vertex   1.890139e+003 -4.694631e+002 -1.500000e+000
      vertex   1.890139e+003 -4.694631e+002 -3.000000e+000
    endloop
  endfacet
  facet normal 0.000000e+000 -1.000000e+000 0.000000e+000
    outer loop
      vertex   1.902260e+003 -4.694631e+002 -3.000000e+000
      vertex   1.902260e+003 -4.694631e+002 -1.500000e+000
      vertex   1.890139e+003 -4.694631e+002 -1.500000e+000
    endloop
  endfacet
  facet normal -0.000000e+000 -1.000000e+000 -0.000000e+000
    outer loop
      vertex   1.890139e+003 -4.694631e+002 0.000000e+000
      vertex   1.878017e+003 -4.694631e+002 0.000000e+000
      vertex   1.890139e+003 -4.694631e+002 -1.500000e+000
    endloop
  endfacet
  facet normal -0.000000e+000 -1.000000e+000 0.000000e+000
    outer loop
      vertex   1.890139e+003 -4.694631e+002 -1.500000e+000
      vertex   1.878017e+003 -4.694631e+002 0.000000e+000
      vertex   1.878017e+003 -4.694631e+002 -1.500000e+000
    endloop
  endfacet
  facet normal -0.000000e+000 -1.000000e+000 -0.000000e+000
    outer loop
      vertex   1.890139e+003 -4.694631e+002 -3.000000e+000
      vertex   1.878017e+003 -4.694631e+002 -1.500000e+000
      vertex   1.878017e+003 -4.694631e+002 -3.000000e+000
    endloop
  endfacet
  facet normal 0.000000e+000 -1.000000e+000 0.000000e+000
    outer loop
      vertex   1.890139e+003 -4.694631e+002 -3.000000e+000
      vertex   1.890139e+003 -4.694631e+002 -1.500000e+000
      vertex   1.878017e+003 -4.694631e+002 -1.500000e+000
    endloop
  endfacet
  facet normal -0.000000e+000 -1.000000e+000 -0.000000e+000
    outer loop
      vertex   1.878017e+003 -4.694631e+002 0.000000e+000
      vertex   1.865896e+003 -4.694631e+002 0.000000e+000
      vertex   1.878017e+003 -4.694631e+002 -1.500000e+000
    endloop
  endfacet
  facet normal -0.000000e+000 -1.000000e+000 -0.000000e+000
    outer loop
      vertex   1.878017e+003 -4.694631e+002 -1.500000e+000
      vertex   1.865896e+003 -4.694631e+002 0.000000e+000
      vertex   1.865896e+003 -4.694631e+002 -1.500000e+000
    endloop
  endfacet
  facet normal -0.000000e+000 -1.000000e+000 -0.000000e+000
    outer loop
      vertex   1.878017e+003 -4.694631e+002 -3.000000e+000
      vertex   1.865896e+003 -4.694631e+002 -1.500000e+000
      vertex   1.865896e+003 -4.694631e+002 -3.000000e+000
    endloop
  endfacet
  facet normal 0.000000e+000 -1.000000e+000 0.000000e+000
    outer loop
      vertex   1.878017e+003 -4.694631e+002 -3.000000e+000
      vertex   1.878017e+003 -4.694631e+002 -1.500000e+000
      vertex   1.865896e+003 -4.694631e+002 -1.500000e+000
    endloop
  endfacet
  facet normal -1.000000e+000 0.000000e+000 -0.000000e+000
    outer loop
      vertex   1.865896e+003 -4.694631e+002 0.000000e+000
      vertex   1.865896e+003 -4.631044e+002 0.000000e+000
      vertex   1.865896e+003 -4.694631e+002 -1.500000e+000
    endloop
  endfacet
  facet normal -1.000000e+000 0.000000e+000 0.000000e+000
    outer loop
      vertex   1.865896e+003 -4.694631e+002 -1.500000e+000
      vertex   1.865896e+003 -4.631044e+002 0.000000e+000
      vertex   1.865896e+003 -4.631044e+002 -3.000000e+000
    endloop
  endfacet
  facet normal -1.000000e+000 0.000000e+000 0.000000e+000
    outer loop
      vertex   1.865896e+003 -4.694631e+002 -3.000000e+000
      vertex   1.865896e+003 -4.694631e+002 -1.500000e+000
      vertex   1.865896e+003 -4.631044e+002 -3.000000e+000
    endloop
  endfacet
  facet normal -0.000000e+000 -1.000000e+000 -0.000000e+000
    outer loop
      vertex   1.865896e+003 -4.631044e+002 0.000000e+000
      vertex   1.862856e+003 -4.631044e+002 0.000000e+000
      vertex   1.865896e+003 -4.631044e+002 -3.000000e+000
    endloop
  endfacet
  facet normal -0.000000e+000 -1.000000e+000 -0.000000e+000
    outer loop
      vertex   1.865896e+003 -4.631044e+002 -3.000000e+000
      vertex   1.862856e+003 -4.631044e+002 0.000000e+000
      vertex   1.862856e+003 -4.631044e+002 -3.000000e+000
    endloop
  endfacet
endsolid
