solid ascii
  facet normal -1.000000e+000 0.000000e+000 -0.000000e+000
    outer loop
      vertex   2.346315e+003 -6.101875e+002 3.000000e+000
      vertex   2.346315e+003 -5.968943e+002 3.000000e+000
      vertex   2.346315e+003 -6.101875e+002 0.000000e+000
    endloop
  endfacet
  facet normal -1.000000e+000 -2.138053e-014 9.473903e-014
    outer loop
      vertex   2.346315e+003 -6.101875e+002 0.000000e+000
      vertex   2.346315e+003 -5.968943e+002 3.000000e+000
      vertex   2.346315e+003 -5.968943e+002 0.000000e+000
    endloop
  endfacet
  facet normal -1.000000e+000 -6.329907e-029 9.473903e-014
    outer loop
      vertex   2.346315e+003 -5.968943e+002 0.000000e+000
      vertex   2.346315e+003 -5.968943e+002 3.000000e+000
      vertex   2.346315e+003 -5.836010e+002 3.000000e+000
    endloop
  endfacet
  facet normal -1.000000e+000 2.138053e-014 0.000000e+000
    outer loop
      vertex   2.346315e+003 -5.836010e+002 0.000000e+000
      vertex   2.346315e+003 -5.968943e+002 0.000000e+000
      vertex   2.346315e+003 -5.836010e+002 3.000000e+000
    endloop
  endfacet
  facet normal 5.983846e-015 1.000000e+000 0.000000e+000
    outer loop
      vertex   2.298817e+003 -6.101875e+002 3.000000e+000
      vertex   2.310691e+003 -6.101875e+002 3.000000e+000
      vertex   2.298817e+003 -6.101875e+002 0.000000e+000
    endloop
  endfacet
  facet normal 0.000000e+000 1.000000e+000 2.368476e-014
    outer loop
      vertex   2.298817e+003 -6.101875e+002 0.000000e+000
      vertex   2.310691e+003 -6.101875e+002 3.000000e+000
      vertex   2.310691e+003 -6.101875e+002 0.000000e+000
    endloop
  endfacet
  facet normal -0.000000e+000 1.000000e+000 2.368476e-014
    outer loop
      vertex   2.310691e+003 -6.101875e+002 0.000000e+000
      vertex   2.310691e+003 -6.101875e+002 3.000000e+000
      vertex   2.322566e+003 -6.101875e+002 3.000000e+000
    endloop
  endfacet
  facet normal -0.000000e+000 1.000000e+000 2.368476e-014
    outer loop
      vertex   2.322566e+003 -6.101875e+002 0.000000e+000
      vertex   2.322566e+003 -6.101875e+002 3.000000e+000
      vertex   2.334440e+003 -6.101875e+002 3.000000e+000
    endloop
  endfacet
  facet normal -5.983846e-015 1.000000e+000 2.368476e-014
    outer loop
      vertex   2.334440e+003 -6.101875e+002 0.000000e+000
      vertex   2.334440e+003 -6.101875e+002 3.000000e+000
      vertex   2.346315e+003 -6.101875e+002 3.000000e+000
    endloop
  endfacet
  facet normal 0.000000e+000 1.000000e+000 -0.000000e+000
    outer loop
      vertex   2.346315e+003 -6.101875e+002 0.000000e+000
      vertex   2.334440e+003 -6.101875e+002 0.000000e+000
      vertex   2.346315e+003 -6.101875e+002 3.000000e+000
    endloop
  endfacet
  facet normal 0.000000e+000 1.000000e+000 2.368476e-014
    outer loop
      vertex   2.334440e+003 -6.101875e+002 0.000000e+000
      vertex   2.322566e+003 -6.101875e+002 0.000000e+000
      vertex   2.334440e+003 -6.101875e+002 3.000000e+000
    endloop
  endfacet
  facet normal 0.000000e+000 1.000000e+000 2.368476e-014
    outer loop
      vertex   2.322566e+003 -6.101875e+002 0.000000e+000
      vertex   2.310691e+003 -6.101875e+002 0.000000e+000
      vertex   2.322566e+003 -6.101875e+002 3.000000e+000
    endloop
  endfacet
  facet normal 1.000000e+000 0.000000e+000 0.000000e+000
    outer loop
      vertex   2.298817e+003 -6.004898e+002 3.000000e+000
      vertex   2.298817e+003 -6.101875e+002 3.000000e+000
      vertex   2.298817e+003 -6.004898e+002 0.000000e+000
    endloop
  endfacet
  facet normal 1.000000e+000 0.000000e+000 0.000000e+000
    outer loop
      vertex   2.298817e+003 -6.004898e+002 0.000000e+000
      vertex   2.298817e+003 -6.101875e+002 3.000000e+000
      vertex   2.298817e+003 -6.101875e+002 0.000000e+000
    endloop
  endfacet
  facet normal 3.350255e-001 -9.422091e-001 0.000000e+000
    outer loop
      vertex   2.346315e+003 -5.836010e+002 3.000000e+000
      vertex   2.334440e+003 -5.878232e+002 3.000000e+000
      vertex   2.346315e+003 -5.836010e+002 0.000000e+000
    endloop
  endfacet
  facet normal 3.350255e-001 -9.422091e-001 2.231599e-014
    outer loop
      vertex   2.346315e+003 -5.836010e+002 0.000000e+000
      vertex   2.334440e+003 -5.878232e+002 3.000000e+000
      vertex   2.334440e+003 -5.878232e+002 0.000000e+000
    endloop
  endfacet
  facet normal 3.350255e-001 -9.422091e-001 2.231599e-014
    outer loop
      vertex   2.334440e+003 -5.878232e+002 0.000000e+000
      vertex   2.334440e+003 -5.878232e+002 3.000000e+000
      vertex   2.322566e+003 -5.920454e+002 3.000000e+000
    endloop
  endfacet
  facet normal 3.350255e-001 -9.422091e-001 2.231599e-014
    outer loop
      vertex   2.322566e+003 -5.920454e+002 0.000000e+000
      vertex   2.322566e+003 -5.920454e+002 3.000000e+000
      vertex   2.310691e+003 -5.962676e+002 3.000000e+000
    endloop
  endfacet
  facet normal 3.350255e-001 -9.422091e-001 2.231599e-014
    outer loop
      vertex   2.310691e+003 -5.962676e+002 0.000000e+000
      vertex   2.310691e+003 -5.962676e+002 3.000000e+000
      vertex   2.298817e+003 -6.004898e+002 3.000000e+000
    endloop
  endfacet
  facet normal 3.350255e-001 -9.422091e-001 0.000000e+000
    outer loop
      vertex   2.298817e+003 -6.004898e+002 0.000000e+000
      vertex   2.310691e+003 -5.962676e+002 0.000000e+000
      vertex   2.298817e+003 -6.004898e+002 3.000000e+000
    endloop
  endfacet
  facet normal 3.350255e-001 -9.422091e-001 2.231722e-014
    outer loop
      vertex   2.310691e+003 -5.962676e+002 0.000000e+000
      vertex   2.322566e+003 -5.920454e+002 0.000000e+000
      vertex   2.310691e+003 -5.962676e+002 3.000000e+000
    endloop
  endfacet
  facet normal 3.350255e-001 -9.422091e-001 2.231722e-014
    outer loop
      vertex   2.322566e+003 -5.920454e+002 0.000000e+000
      vertex   2.334440e+003 -5.878232e+002 0.000000e+000
      vertex   2.322566e+003 -5.920454e+002 3.000000e+000
    endloop
  endfacet
  facet normal 5.983846e-015 1.000000e+000 0.000000e+000
    outer loop
      vertex   2.355315e+003 -6.101875e+002 3.000000e+000
      vertex   2.367189e+003 -6.101875e+002 3.000000e+000
      vertex   2.355315e+003 -6.101875e+002 0.000000e+000
    endloop
  endfacet
  facet normal 0.000000e+000 1.000000e+000 2.368476e-014
    outer loop
      vertex   2.355315e+003 -6.101875e+002 0.000000e+000
      vertex   2.367189e+003 -6.101875e+002 3.000000e+000
      vertex   2.367189e+003 -6.101875e+002 0.000000e+000
    endloop
  endfacet
  facet normal -0.000000e+000 1.000000e+000 2.368476e-014
    outer loop
      vertex   2.367189e+003 -6.101875e+002 0.000000e+000
      vertex   2.367189e+003 -6.101875e+002 3.000000e+000
      vertex   2.379063e+003 -6.101875e+002 3.000000e+000
    endloop
  endfacet
  facet normal -0.000000e+000 1.000000e+000 2.368476e-014
    outer loop
      vertex   2.379063e+003 -6.101875e+002 0.000000e+000
      vertex   2.379063e+003 -6.101875e+002 3.000000e+000
      vertex   2.390938e+003 -6.101875e+002 3.000000e+000
    endloop
  endfacet
  facet normal -5.983846e-015 1.000000e+000 2.368476e-014
    outer loop
      vertex   2.390938e+003 -6.101875e+002 0.000000e+000
      vertex   2.390938e+003 -6.101875e+002 3.000000e+000
      vertex   2.402812e+003 -6.101875e+002 3.000000e+000
    endloop
  endfacet
  facet normal 0.000000e+000 1.000000e+000 -0.000000e+000
    outer loop
      vertex   2.402812e+003 -6.101875e+002 0.000000e+000
      vertex   2.390938e+003 -6.101875e+002 0.000000e+000
      vertex   2.402812e+003 -6.101875e+002 3.000000e+000
    endloop
  endfacet
  facet normal 0.000000e+000 1.000000e+000 2.368476e-014
    outer loop
      vertex   2.390938e+003 -6.101875e+002 0.000000e+000
      vertex   2.379063e+003 -6.101875e+002 0.000000e+000
      vertex   2.390938e+003 -6.101875e+002 3.000000e+000
    endloop
  endfacet
  facet normal 0.000000e+000 1.000000e+000 2.368476e-014
    outer loop
      vertex   2.379063e+003 -6.101875e+002 0.000000e+000
      vertex   2.367189e+003 -6.101875e+002 0.000000e+000
      vertex   2.379063e+003 -6.101875e+002 3.000000e+000
    endloop
  endfacet
  facet normal 1.000000e+000 0.000000e+000 0.000000e+000
    outer loop
      vertex   2.355315e+003 -5.836010e+002 3.000000e+000
      vertex   2.355315e+003 -5.968943e+002 3.000000e+000
      vertex   2.355315e+003 -5.836010e+002 0.000000e+000
    endloop
  endfacet
  facet normal 1.000000e+000 0.000000e+000 0.000000e+000
    outer loop
      vertex   2.355315e+003 -5.836010e+002 0.000000e+000
      vertex   2.355315e+003 -5.968943e+002 3.000000e+000
      vertex   2.355315e+003 -5.968943e+002 0.000000e+000
    endloop
  endfacet
  facet normal 1.000000e+000 0.000000e+000 -0.000000e+000
    outer loop
      vertex   2.355315e+003 -5.968943e+002 0.000000e+000
      vertex   2.355315e+003 -5.968943e+002 3.000000e+000
      vertex   2.355315e+003 -6.101875e+002 3.000000e+000
    endloop
  endfacet
  facet normal 1.000000e+000 0.000000e+000 -0.000000e+000
    outer loop
      vertex   2.355315e+003 -6.101875e+002 0.000000e+000
      vertex   2.355315e+003 -5.968943e+002 0.000000e+000
      vertex   2.355315e+003 -6.101875e+002 3.000000e+000
    endloop
  endfacet
  facet normal -3.350255e-001 -9.422091e-001 0.000000e+000
    outer loop
      vertex   2.402812e+003 -6.004898e+002 3.000000e+000
      vertex   2.390938e+003 -5.962676e+002 3.000000e+000
      vertex   2.402812e+003 -6.004898e+002 0.000000e+000
    endloop
  endfacet
  facet normal -3.350255e-001 -9.422091e-001 -5.405598e-014
    outer loop
      vertex   2.402812e+003 -6.004898e+002 0.000000e+000
      vertex   2.390938e+003 -5.962676e+002 3.000000e+000
      vertex   2.390938e+003 -5.962676e+002 0.000000e+000
    endloop
  endfacet
  facet normal -3.350255e-001 -9.422091e-001 -5.405598e-014
    outer loop
      vertex   2.390938e+003 -5.962676e+002 0.000000e+000
      vertex   2.390938e+003 -5.962676e+002 3.000000e+000
      vertex   2.379063e+003 -5.920454e+002 3.000000e+000
    endloop
  endfacet
  facet normal -3.350255e-001 -9.422091e-001 0.000000e+000
    outer loop
      vertex   2.379063e+003 -5.920454e+002 0.000000e+000
      vertex   2.379063e+003 -5.920454e+002 3.000000e+000
      vertex   2.367189e+003 -5.878232e+002 3.000000e+000
    endloop
  endfacet
  facet normal -3.350255e-001 -9.422091e-001 -5.405598e-014
    outer loop
      vertex   2.367189e+003 -5.878232e+002 0.000000e+000
      vertex   2.367189e+003 -5.878232e+002 3.000000e+000
      vertex   2.355315e+003 -5.836010e+002 3.000000e+000
    endloop
  endfacet
  facet normal -3.350255e-001 -9.422091e-001 0.000000e+000
    outer loop
      vertex   2.355315e+003 -5.836010e+002 0.000000e+000
      vertex   2.367189e+003 -5.878232e+002 0.000000e+000
      vertex   2.355315e+003 -5.836010e+002 3.000000e+000
    endloop
  endfacet
  facet normal -3.350255e-001 -9.422091e-001 -5.403116e-014
    outer loop
      vertex   2.367189e+003 -5.878232e+002 0.000000e+000
      vertex   2.379063e+003 -5.920454e+002 0.000000e+000
      vertex   2.367189e+003 -5.878232e+002 3.000000e+000
    endloop
  endfacet
  facet normal -3.350255e-001 -9.422091e-001 0.000000e+000
    outer loop
      vertex   2.379063e+003 -5.920454e+002 0.000000e+000
      vertex   2.390938e+003 -5.962676e+002 0.000000e+000
      vertex   2.379063e+003 -5.920454e+002 3.000000e+000
    endloop
  endfacet
  facet normal -1.000000e+000 0.000000e+000 -0.000000e+000
    outer loop
      vertex   2.402812e+003 -6.101875e+002 3.000000e+000
      vertex   2.402812e+003 -6.004898e+002 3.000000e+000
      vertex   2.402812e+003 -6.101875e+002 0.000000e+000
    endloop
  endfacet
  facet normal -1.000000e+000 0.000000e+000 0.000000e+000
    outer loop
      vertex   2.402812e+003 -6.101875e+002 0.000000e+000
      vertex   2.402812e+003 -6.004898e+002 3.000000e+000
      vertex   2.402812e+003 -6.004898e+002 0.000000e+000
    endloop
  endfacet
  facet normal 1.000000e+000 0.000000e+000 0.000000e+000
    outer loop
      vertex   2.348915e+003 -5.901045e+002 3.000000e+000
      vertex   2.348915e+003 -6.036342e+002 3.000000e+000
      vertex   2.348915e+003 -5.901045e+002 0.000000e+000
    endloop
  endfacet
  facet normal 1.000000e+000 0.000000e+000 0.000000e+000
    outer loop
      vertex   2.348915e+003 -5.901045e+002 0.000000e+000
      vertex   2.348915e+003 -6.036342e+002 3.000000e+000
      vertex   2.348915e+003 -6.036342e+002 0.000000e+000
    endloop
  endfacet
  facet normal -0.000000e+000 -1.000000e+000 -0.000000e+000
    outer loop
      vertex   2.352755e+003 -5.901045e+002 3.000000e+000
      vertex   2.348915e+003 -5.901045e+002 3.000000e+000
      vertex   2.352755e+003 -5.901045e+002 0.000000e+000
    endloop
  endfacet
  facet normal -0.000000e+000 -1.000000e+000 -0.000000e+000
    outer loop
      vertex   2.352755e+003 -5.901045e+002 0.000000e+000
      vertex   2.348915e+003 -5.901045e+002 3.000000e+000
      vertex   2.348915e+003 -5.901045e+002 0.000000e+000
    endloop
  endfacet
  facet normal -1.000000e+000 0.000000e+000 -0.000000e+000
    outer loop
      vertex   2.352755e+003 -6.036342e+002 3.000000e+000
      vertex   2.352755e+003 -5.901045e+002 3.000000e+000
      vertex   2.352755e+003 -6.036342e+002 0.000000e+000
    endloop
  endfacet
  facet normal -1.000000e+000 0.000000e+000 0.000000e+000
    outer loop
      vertex   2.352755e+003 -6.036342e+002 0.000000e+000
      vertex   2.352755e+003 -5.901045e+002 3.000000e+000
      vertex   2.352755e+003 -5.901045e+002 0.000000e+000
    endloop
  endfacet
  facet normal -0.000000e+000 1.000000e+000 0.000000e+000
    outer loop
      vertex   2.348915e+003 -6.036342e+002 3.000000e+000
      vertex   2.352755e+003 -6.036342e+002 3.000000e+000
      vertex   2.348915e+003 -6.036342e+002 0.000000e+000
    endloop
  endfacet
  facet normal -0.000000e+000 1.000000e+000 0.000000e+000
    outer loop
      vertex   2.348915e+003 -6.036342e+002 0.000000e+000
      vertex   2.352755e+003 -6.036342e+002 3.000000e+000
      vertex   2.352755e+003 -6.036342e+002 0.000000e+000
    endloop
  endfacet
  facet normal -8.058981e-016 2.266468e-015 1.000000e+000
    outer loop
      vertex   2.309866e+003 -5.933770e+002 3.000000e+000
      vertex   2.296217e+003 -5.982303e+002 3.000000e+000
      vertex   2.298817e+003 -6.004898e+002 3.000000e+000
    endloop
  endfacet
  facet normal 2.535987e-015 -2.924915e-015 1.000000e+000
    outer loop
      vertex   2.310691e+003 -5.962676e+002 3.000000e+000
      vertex   2.309866e+003 -5.933770e+002 3.000000e+000
      vertex   2.298817e+003 -6.004898e+002 3.000000e+000
    endloop
  endfacet
  facet normal 1.177851e-015 -3.312530e-015 1.000000e+000
    outer loop
      vertex   2.310691e+003 -5.962676e+002 3.000000e+000
      vertex   2.322566e+003 -5.920454e+002 3.000000e+000
      vertex   2.309866e+003 -5.933770e+002 3.000000e+000
    endloop
  endfacet
  facet normal 1.177851e-015 -3.312530e-015 1.000000e+000
    outer loop
      vertex   2.309866e+003 -5.933770e+002 3.000000e+000
      vertex   2.322566e+003 -5.920454e+002 3.000000e+000
      vertex   2.323516e+003 -5.885236e+002 3.000000e+000
    endloop
  endfacet
  facet normal 1.177851e-015 -3.312530e-015 1.000000e+000
    outer loop
      vertex   2.323516e+003 -5.885236e+002 3.000000e+000
      vertex   2.322566e+003 -5.920454e+002 3.000000e+000
      vertex   2.334440e+003 -5.878232e+002 3.000000e+000
    endloop
  endfacet
  facet normal -7.733536e-016 -2.032227e-015 1.000000e+000
    outer loop
      vertex   2.337165e+003 -5.836703e+002 3.000000e+000
      vertex   2.334440e+003 -5.878232e+002 3.000000e+000
      vertex   2.346315e+003 -5.836010e+002 3.000000e+000
    endloop
  endfacet
  facet normal -0.000000e+000 1.508426e-015 1.000000e+000
    outer loop
      vertex   2.350815e+003 -5.788169e+002 3.000000e+000
      vertex   2.346315e+003 -5.836010e+002 3.000000e+000
      vertex   2.355315e+003 -5.836010e+002 3.000000e+000
    endloop
  endfacet
  facet normal 7.896259e-016 1.171207e-016 1.000000e+000
    outer loop
      vertex   2.364464e+003 -5.836703e+002 3.000000e+000
      vertex   2.355315e+003 -5.836010e+002 3.000000e+000
      vertex   2.367189e+003 -5.878232e+002 3.000000e+000
    endloop
  endfacet
  facet normal -1.859765e-016 -5.230311e-016 1.000000e+000
    outer loop
      vertex   2.378113e+003 -5.885236e+002 3.000000e+000
      vertex   2.367189e+003 -5.878232e+002 3.000000e+000
      vertex   2.379063e+003 -5.920454e+002 3.000000e+000
    endloop
  endfacet
  facet normal -1.859765e-016 -5.230311e-016 1.000000e+000
    outer loop
      vertex   2.391763e+003 -5.933770e+002 3.000000e+000
      vertex   2.379063e+003 -5.920454e+002 3.000000e+000
      vertex   2.390938e+003 -5.962676e+002 3.000000e+000
    endloop
  endfacet
  facet normal -8.650443e-016 -3.292237e-016 1.000000e+000
    outer loop
      vertex   2.402812e+003 -6.004898e+002 3.000000e+000
      vertex   2.391763e+003 -5.933770e+002 3.000000e+000
      vertex   2.390938e+003 -5.962676e+002 3.000000e+000
    endloop
  endfacet
  facet normal 8.058981e-016 2.266468e-015 1.000000e+000
    outer loop
      vertex   2.402812e+003 -6.004898e+002 3.000000e+000
      vertex   2.405412e+003 -5.982303e+002 3.000000e+000
      vertex   2.391763e+003 -5.933770e+002 3.000000e+000
    endloop
  endfacet
  facet normal 2.775558e-015 -0.000000e+000 1.000000e+000
    outer loop
      vertex   2.402812e+003 -6.004898e+002 3.000000e+000
      vertex   2.405412e+003 -6.066613e+002 3.000000e+000
      vertex   2.405412e+003 -5.982303e+002 3.000000e+000
    endloop
  endfacet
  facet normal 2.775558e-015 0.000000e+000 1.000000e+000
    outer loop
      vertex   2.402812e+003 -6.004898e+002 3.000000e+000
      vertex   2.402812e+003 -6.101875e+002 3.000000e+000
      vertex   2.405412e+003 -6.066613e+002 3.000000e+000
    endloop
  endfacet
  facet normal 1.618405e-015 8.531967e-016 1.000000e+000
    outer loop
      vertex   2.405412e+003 -6.066613e+002 3.000000e+000
      vertex   2.402812e+003 -6.101875e+002 3.000000e+000
      vertex   2.408852e+003 -6.131875e+002 3.000000e+000
    endloop
  endfacet
  facet normal 0.000000e+000 0.000000e+000 1.000000e+000
    outer loop
      vertex   2.408852e+003 -6.066613e+002 3.000000e+000
      vertex   2.405412e+003 -6.066613e+002 3.000000e+000
      vertex   2.408852e+003 -6.131875e+002 3.000000e+000
    endloop
  endfacet
  facet normal 0.000000e+000 -2.405483e-015 1.000000e+000
    outer loop
      vertex   2.350815e+003 -6.131875e+002 3.000000e+000
      vertex   2.355315e+003 -6.101875e+002 3.000000e+000
      vertex   2.346315e+003 -6.101875e+002 3.000000e+000
    endloop
  endfacet
  facet normal -7.479807e-016 9.015050e-017 1.000000e+000
    outer loop
      vertex   2.336305e+003 -6.131875e+002 3.000000e+000
      vertex   2.346315e+003 -6.101875e+002 3.000000e+000
      vertex   2.334440e+003 -6.101875e+002 3.000000e+000
    endloop
  endfacet
  facet normal 0.000000e+000 5.551115e-016 1.000000e+000
    outer loop
      vertex   2.321796e+003 -6.131875e+002 3.000000e+000
      vertex   2.334440e+003 -6.101875e+002 3.000000e+000
      vertex   2.322566e+003 -6.101875e+002 3.000000e+000
    endloop
  endfacet
  facet normal 0.000000e+000 5.551115e-016 1.000000e+000
    outer loop
      vertex   2.310691e+003 -6.101875e+002 3.000000e+000
      vertex   2.321796e+003 -6.131875e+002 3.000000e+000
      vertex   2.322566e+003 -6.101875e+002 3.000000e+000
    endloop
  endfacet
  facet normal -0.000000e+000 5.551115e-016 1.000000e+000
    outer loop
      vertex   2.310691e+003 -6.101875e+002 3.000000e+000
      vertex   2.307286e+003 -6.131875e+002 3.000000e+000
      vertex   2.321796e+003 -6.131875e+002 3.000000e+000
    endloop
  endfacet
  facet normal 7.479807e-016 -2.939477e-016 1.000000e+000
    outer loop
      vertex   2.310691e+003 -6.101875e+002 3.000000e+000
      vertex   2.298817e+003 -6.101875e+002 3.000000e+000
      vertex   2.307286e+003 -6.131875e+002 3.000000e+000
    endloop
  endfacet
  facet normal 0.000000e+000 -2.405483e-015 1.000000e+000
    outer loop
      vertex   2.307286e+003 -6.131875e+002 3.000000e+000
      vertex   2.298817e+003 -6.101875e+002 3.000000e+000
      vertex   2.292777e+003 -6.131875e+002 3.000000e+000
    endloop
  endfacet
  facet normal -1.618405e-015 8.531967e-016 1.000000e+000
    outer loop
      vertex   2.292777e+003 -6.131875e+002 3.000000e+000
      vertex   2.298817e+003 -6.101875e+002 3.000000e+000
      vertex   2.296217e+003 -6.066613e+002 3.000000e+000
    endloop
  endfacet
  facet normal -0.000000e+000 0.000000e+000 1.000000e+000
    outer loop
      vertex   2.292777e+003 -6.066613e+002 3.000000e+000
      vertex   2.292777e+003 -6.131875e+002 3.000000e+000
      vertex   2.296217e+003 -6.066613e+002 3.000000e+000
    endloop
  endfacet
  facet normal -1.684068e-015 6.681414e-016 1.000000e+000
    outer loop
      vertex   2.346315e+003 -6.101875e+002 3.000000e+000
      vertex   2.348915e+003 -6.036342e+002 3.000000e+000
      vertex   2.346315e+003 -5.968943e+002 3.000000e+000
    endloop
  endfacet
  facet normal 0.000000e+000 -0.000000e+000 1.000000e+000
    outer loop
      vertex   2.346315e+003 -6.101875e+002 3.000000e+000
      vertex   2.355315e+003 -6.101875e+002 3.000000e+000
      vertex   2.348915e+003 -6.036342e+002 3.000000e+000
    endloop
  endfacet
  facet normal -0.000000e+000 -0.000000e+000 1.000000e+000
    outer loop
      vertex   2.348915e+003 -6.036342e+002 3.000000e+000
      vertex   2.355315e+003 -6.101875e+002 3.000000e+000
      vertex   2.352755e+003 -6.036342e+002 3.000000e+000
    endloop
  endfacet
  facet normal 1.710743e-015 6.681414e-016 1.000000e+000
    outer loop
      vertex   2.352755e+003 -6.036342e+002 3.000000e+000
      vertex   2.355315e+003 -6.101875e+002 3.000000e+000
      vertex   2.355315e+003 -5.968943e+002 3.000000e+000
    endloop
  endfacet
  facet normal 1.697739e-015 -6.681414e-016 1.000000e+000
    outer loop
      vertex   2.352755e+003 -5.901045e+002 3.000000e+000
      vertex   2.355315e+003 -5.968943e+002 3.000000e+000
      vertex   2.355315e+003 -5.836010e+002 3.000000e+000
    endloop
  endfacet
  facet normal -0.000000e+000 0.000000e+000 1.000000e+000
    outer loop
      vertex   2.346315e+003 -5.836010e+002 3.000000e+000
      vertex   2.352755e+003 -5.901045e+002 3.000000e+000
      vertex   2.355315e+003 -5.836010e+002 3.000000e+000
    endloop
  endfacet
  facet normal -0.000000e+000 0.000000e+000 1.000000e+000
    outer loop
      vertex   2.346315e+003 -5.836010e+002 3.000000e+000
      vertex   2.348915e+003 -5.901045e+002 3.000000e+000
      vertex   2.352755e+003 -5.901045e+002 3.000000e+000
    endloop
  endfacet
  facet normal -1.671267e-015 -6.681414e-016 1.000000e+000
    outer loop
      vertex   2.346315e+003 -5.836010e+002 3.000000e+000
      vertex   2.346315e+003 -5.968943e+002 3.000000e+000
      vertex   2.348915e+003 -5.901045e+002 3.000000e+000
    endloop
  endfacet
  facet normal -3.416071e-015 0.000000e+000 1.000000e+000
    outer loop
      vertex   2.348915e+003 -5.901045e+002 3.000000e+000
      vertex   2.346315e+003 -5.968943e+002 3.000000e+000
      vertex   2.348915e+003 -6.036342e+002 3.000000e+000
    endloop
  endfacet
  facet normal 0.000000e+000 -2.405483e-015 1.000000e+000
    outer loop
      vertex   2.408852e+003 -6.131875e+002 3.000000e+000
      vertex   2.402812e+003 -6.101875e+002 3.000000e+000
      vertex   2.394343e+003 -6.131875e+002 3.000000e+000
    endloop
  endfacet
  facet normal -7.479807e-016 -2.939477e-016 1.000000e+000
    outer loop
      vertex   2.394343e+003 -6.131875e+002 3.000000e+000
      vertex   2.402812e+003 -6.101875e+002 3.000000e+000
      vertex   2.390938e+003 -6.101875e+002 3.000000e+000
    endloop
  endfacet
  facet normal 0.000000e+000 5.551115e-016 1.000000e+000
    outer loop
      vertex   2.379833e+003 -6.131875e+002 3.000000e+000
      vertex   2.390938e+003 -6.101875e+002 3.000000e+000
      vertex   2.379063e+003 -6.101875e+002 3.000000e+000
    endloop
  endfacet
  facet normal 0.000000e+000 5.551115e-016 1.000000e+000
    outer loop
      vertex   2.367189e+003 -6.101875e+002 3.000000e+000
      vertex   2.379833e+003 -6.131875e+002 3.000000e+000
      vertex   2.379063e+003 -6.101875e+002 3.000000e+000
    endloop
  endfacet
  facet normal -0.000000e+000 5.551115e-016 1.000000e+000
    outer loop
      vertex   2.367189e+003 -6.101875e+002 3.000000e+000
      vertex   2.365324e+003 -6.131875e+002 3.000000e+000
      vertex   2.379833e+003 -6.131875e+002 3.000000e+000
    endloop
  endfacet
  facet normal 7.479807e-016 9.015050e-017 1.000000e+000
    outer loop
      vertex   2.367189e+003 -6.101875e+002 3.000000e+000
      vertex   2.355315e+003 -6.101875e+002 3.000000e+000
      vertex   2.365324e+003 -6.131875e+002 3.000000e+000
    endloop
  endfacet
  facet normal 0.000000e+000 -2.405483e-015 1.000000e+000
    outer loop
      vertex   2.365324e+003 -6.131875e+002 3.000000e+000
      vertex   2.355315e+003 -6.101875e+002 3.000000e+000
      vertex   2.350815e+003 -6.131875e+002 3.000000e+000
    endloop
  endfacet
  facet normal 3.470179e-015 0.000000e+000 1.000000e+000
    outer loop
      vertex   2.352755e+003 -5.901045e+002 3.000000e+000
      vertex   2.352755e+003 -6.036342e+002 3.000000e+000
      vertex   2.355315e+003 -5.968943e+002 3.000000e+000
    endloop
  endfacet
  facet normal -0.000000e+000 5.551115e-016 1.000000e+000
    outer loop
      vertex   2.321796e+003 -6.131875e+002 3.000000e+000
      vertex   2.336305e+003 -6.131875e+002 3.000000e+000
      vertex   2.334440e+003 -6.101875e+002 3.000000e+000
    endloop
  endfacet
  facet normal 0.000000e+000 -2.405483e-015 1.000000e+000
    outer loop
      vertex   2.336305e+003 -6.131875e+002 3.000000e+000
      vertex   2.350815e+003 -6.131875e+002 3.000000e+000
      vertex   2.346315e+003 -6.101875e+002 3.000000e+000
    endloop
  endfacet
  facet normal -0.000000e+000 5.551115e-016 1.000000e+000
    outer loop
      vertex   2.379833e+003 -6.131875e+002 3.000000e+000
      vertex   2.394343e+003 -6.131875e+002 3.000000e+000
      vertex   2.390938e+003 -6.101875e+002 3.000000e+000
    endloop
  endfacet
  facet normal -1.859765e-016 -5.230311e-016 1.000000e+000
    outer loop
      vertex   2.391763e+003 -5.933770e+002 3.000000e+000
      vertex   2.378113e+003 -5.885236e+002 3.000000e+000
      vertex   2.379063e+003 -5.920454e+002 3.000000e+000
    endloop
  endfacet
  facet normal -1.859765e-016 -5.230311e-016 1.000000e+000
    outer loop
      vertex   2.378113e+003 -5.885236e+002 3.000000e+000
      vertex   2.364464e+003 -5.836703e+002 3.000000e+000
      vertex   2.367189e+003 -5.878232e+002 3.000000e+000
    endloop
  endfacet
  facet normal 8.058981e-016 2.266468e-015 1.000000e+000
    outer loop
      vertex   2.364464e+003 -5.836703e+002 3.000000e+000
      vertex   2.350815e+003 -5.788169e+002 3.000000e+000
      vertex   2.355315e+003 -5.836010e+002 3.000000e+000
    endloop
  endfacet
  facet normal -8.058981e-016 2.266468e-015 1.000000e+000
    outer loop
      vertex   2.350815e+003 -5.788169e+002 3.000000e+000
      vertex   2.337165e+003 -5.836703e+002 3.000000e+000
      vertex   2.346315e+003 -5.836010e+002 3.000000e+000
    endloop
  endfacet
  facet normal 1.177851e-015 -3.312530e-015 1.000000e+000
    outer loop
      vertex   2.337165e+003 -5.836703e+002 3.000000e+000
      vertex   2.323516e+003 -5.885236e+002 3.000000e+000
      vertex   2.334440e+003 -5.878232e+002 3.000000e+000
    endloop
  endfacet
  facet normal -2.775558e-015 0.000000e+000 1.000000e+000
    outer loop
      vertex   2.296217e+003 -5.982303e+002 3.000000e+000
      vertex   2.296217e+003 -6.066613e+002 3.000000e+000
      vertex   2.298817e+003 -6.004898e+002 3.000000e+000
    endloop
  endfacet
  facet normal -2.775558e-015 0.000000e+000 1.000000e+000
    outer loop
      vertex   2.298817e+003 -6.004898e+002 3.000000e+000
      vertex   2.296217e+003 -6.066613e+002 3.000000e+000
      vertex   2.298817e+003 -6.101875e+002 3.000000e+000
    endloop
  endfacet
  facet normal 0.000000e+000 0.000000e+000 -1.000000e+000
    outer loop
      vertex   2.307286e+003 -6.131875e+002 0.000000e+000
      vertex   2.292777e+003 -6.131875e+002 0.000000e+000
      vertex   2.298817e+003 -6.101875e+002 0.000000e+000
    endloop
  endfacet
  facet normal -0.000000e+000 0.000000e+000 -1.000000e+000
    outer loop
      vertex   2.310691e+003 -6.101875e+002 0.000000e+000
      vertex   2.307286e+003 -6.131875e+002 0.000000e+000
      vertex   2.298817e+003 -6.101875e+002 0.000000e+000
    endloop
  endfacet
  facet normal -0.000000e+000 -0.000000e+000 -1.000000e+000
    outer loop
      vertex   2.310691e+003 -6.101875e+002 0.000000e+000
      vertex   2.321796e+003 -6.131875e+002 0.000000e+000
      vertex   2.307286e+003 -6.131875e+002 0.000000e+000
    endloop
  endfacet
  facet normal 0.000000e+000 -0.000000e+000 -1.000000e+000
    outer loop
      vertex   2.310691e+003 -6.101875e+002 0.000000e+000
      vertex   2.322566e+003 -6.101875e+002 0.000000e+000
      vertex   2.321796e+003 -6.131875e+002 0.000000e+000
    endloop
  endfacet
  facet normal 0.000000e+000 0.000000e+000 -1.000000e+000
    outer loop
      vertex   2.321796e+003 -6.131875e+002 0.000000e+000
      vertex   2.322566e+003 -6.101875e+002 0.000000e+000
      vertex   2.334440e+003 -6.101875e+002 0.000000e+000
    endloop
  endfacet
  facet normal 0.000000e+000 0.000000e+000 -1.000000e+000
    outer loop
      vertex   2.336305e+003 -6.131875e+002 0.000000e+000
      vertex   2.334440e+003 -6.101875e+002 0.000000e+000
      vertex   2.346315e+003 -6.101875e+002 0.000000e+000
    endloop
  endfacet
  facet normal 0.000000e+000 0.000000e+000 -1.000000e+000
    outer loop
      vertex   2.350815e+003 -6.131875e+002 0.000000e+000
      vertex   2.346315e+003 -6.101875e+002 0.000000e+000
      vertex   2.355315e+003 -6.101875e+002 0.000000e+000
    endloop
  endfacet
  facet normal 0.000000e+000 0.000000e+000 -1.000000e+000
    outer loop
      vertex   2.365324e+003 -6.131875e+002 0.000000e+000
      vertex   2.355315e+003 -6.101875e+002 0.000000e+000
      vertex   2.367189e+003 -6.101875e+002 0.000000e+000
    endloop
  endfacet
  facet normal 0.000000e+000 0.000000e+000 -1.000000e+000
    outer loop
      vertex   2.379833e+003 -6.131875e+002 0.000000e+000
      vertex   2.367189e+003 -6.101875e+002 0.000000e+000
      vertex   2.379063e+003 -6.101875e+002 0.000000e+000
    endloop
  endfacet
  facet normal -0.000000e+000 0.000000e+000 -1.000000e+000
    outer loop
      vertex   2.390938e+003 -6.101875e+002 0.000000e+000
      vertex   2.379833e+003 -6.131875e+002 0.000000e+000
      vertex   2.379063e+003 -6.101875e+002 0.000000e+000
    endloop
  endfacet
  facet normal -0.000000e+000 -0.000000e+000 -1.000000e+000
    outer loop
      vertex   2.390938e+003 -6.101875e+002 0.000000e+000
      vertex   2.394343e+003 -6.131875e+002 0.000000e+000
      vertex   2.379833e+003 -6.131875e+002 0.000000e+000
    endloop
  endfacet
  facet normal 0.000000e+000 -0.000000e+000 -1.000000e+000
    outer loop
      vertex   2.390938e+003 -6.101875e+002 0.000000e+000
      vertex   2.402812e+003 -6.101875e+002 0.000000e+000
      vertex   2.394343e+003 -6.131875e+002 0.000000e+000
    endloop
  endfacet
  facet normal 0.000000e+000 0.000000e+000 -1.000000e+000
    outer loop
      vertex   2.394343e+003 -6.131875e+002 0.000000e+000
      vertex   2.402812e+003 -6.101875e+002 0.000000e+000
      vertex   2.408852e+003 -6.131875e+002 0.000000e+000
    endloop
  endfacet
  facet normal 0.000000e+000 0.000000e+000 -1.000000e+000
    outer loop
      vertex   2.408852e+003 -6.131875e+002 0.000000e+000
      vertex   2.402812e+003 -6.101875e+002 0.000000e+000
      vertex   2.405412e+003 -6.066613e+002 0.000000e+000
    endloop
  endfacet
  facet normal -0.000000e+000 -0.000000e+000 -1.000000e+000
    outer loop
      vertex   2.408852e+003 -6.066613e+002 0.000000e+000
      vertex   2.408852e+003 -6.131875e+002 0.000000e+000
      vertex   2.405412e+003 -6.066613e+002 0.000000e+000
    endloop
  endfacet
  facet normal -0.000000e+000 0.000000e+000 -1.000000e+000
    outer loop
      vertex   2.355315e+003 -5.836010e+002 0.000000e+000
      vertex   2.352755e+003 -5.901045e+002 0.000000e+000
      vertex   2.346315e+003 -5.836010e+002 0.000000e+000
    endloop
  endfacet
  facet normal -0.000000e+000 0.000000e+000 -1.000000e+000
    outer loop
      vertex   2.350815e+003 -5.780690e+002 0.000000e+000
      vertex   2.346315e+003 -5.836010e+002 0.000000e+000
      vertex   2.337165e+003 -5.829584e+002 0.000000e+000
    endloop
  endfacet
  facet normal -0.000000e+000 -0.000000e+000 -1.000000e+000
    outer loop
      vertex   2.350815e+003 -5.780690e+002 0.000000e+000
      vertex   2.355315e+003 -5.836010e+002 0.000000e+000
      vertex   2.346315e+003 -5.836010e+002 0.000000e+000
    endloop
  endfacet
  facet normal 0.000000e+000 -0.000000e+000 -1.000000e+000
    outer loop
      vertex   2.350815e+003 -5.780690e+002 0.000000e+000
      vertex   2.364464e+003 -5.829584e+002 0.000000e+000
      vertex   2.355315e+003 -5.836010e+002 0.000000e+000
    endloop
  endfacet
  facet normal 0.000000e+000 0.000000e+000 -1.000000e+000
    outer loop
      vertex   2.355315e+003 -5.836010e+002 0.000000e+000
      vertex   2.364464e+003 -5.829584e+002 0.000000e+000
      vertex   2.367189e+003 -5.878232e+002 0.000000e+000
    endloop
  endfacet
  facet normal 0.000000e+000 0.000000e+000 -1.000000e+000
    outer loop
      vertex   2.367189e+003 -5.878232e+002 0.000000e+000
      vertex   2.364464e+003 -5.829584e+002 0.000000e+000
      vertex   2.378113e+003 -5.878479e+002 0.000000e+000
    endloop
  endfacet
  facet normal 0.000000e+000 0.000000e+000 -1.000000e+000
    outer loop
      vertex   2.379063e+003 -5.920454e+002 0.000000e+000
      vertex   2.378113e+003 -5.878479e+002 0.000000e+000
      vertex   2.383058e+003 -5.897752e+002 0.000000e+000
    endloop
  endfacet
  facet normal 0.000000e+000 0.000000e+000 -1.000000e+000
    outer loop
      vertex   2.390938e+003 -5.962676e+002 0.000000e+000
      vertex   2.383058e+003 -5.897752e+002 0.000000e+000
      vertex   2.391763e+003 -5.927373e+002 0.000000e+000
    endloop
  endfacet
  facet normal 0.000000e+000 0.000000e+000 -1.000000e+000
    outer loop
      vertex   2.402812e+003 -6.004898e+002 0.000000e+000
      vertex   2.391763e+003 -5.927373e+002 0.000000e+000
      vertex   2.405412e+003 -5.976267e+002 0.000000e+000
    endloop
  endfacet
  facet normal 0.000000e+000 0.000000e+000 -1.000000e+000
    outer loop
      vertex   2.405412e+003 -6.066613e+002 0.000000e+000
      vertex   2.402812e+003 -6.004898e+002 0.000000e+000
      vertex   2.405412e+003 -5.976267e+002 0.000000e+000
    endloop
  endfacet
  facet normal -0.000000e+000 0.000000e+000 -1.000000e+000
    outer loop
      vertex   2.405412e+003 -6.066613e+002 0.000000e+000
      vertex   2.402812e+003 -6.101875e+002 0.000000e+000
      vertex   2.402812e+003 -6.004898e+002 0.000000e+000
    endloop
  endfacet
  facet normal 0.000000e+000 -0.000000e+000 -1.000000e+000
    outer loop
      vertex   2.346315e+003 -5.836010e+002 0.000000e+000
      vertex   2.348915e+003 -5.901045e+002 0.000000e+000
      vertex   2.346315e+003 -5.968943e+002 0.000000e+000
    endloop
  endfacet
  facet normal -0.000000e+000 -0.000000e+000 -1.000000e+000
    outer loop
      vertex   2.346315e+003 -5.836010e+002 0.000000e+000
      vertex   2.352755e+003 -5.901045e+002 0.000000e+000
      vertex   2.348915e+003 -5.901045e+002 0.000000e+000
    endloop
  endfacet
  facet normal -0.000000e+000 0.000000e+000 -1.000000e+000
    outer loop
      vertex   2.346315e+003 -5.836010e+002 0.000000e+000
      vertex   2.334440e+003 -5.878232e+002 0.000000e+000
      vertex   2.337165e+003 -5.829584e+002 0.000000e+000
    endloop
  endfacet
  facet normal 0.000000e+000 0.000000e+000 -1.000000e+000
    outer loop
      vertex   2.337165e+003 -5.829584e+002 0.000000e+000
      vertex   2.334440e+003 -5.878232e+002 0.000000e+000
      vertex   2.323516e+003 -5.878479e+002 0.000000e+000
    endloop
  endfacet
  facet normal 0.000000e+000 -0.000000e+000 -1.000000e+000
    outer loop
      vertex   2.323516e+003 -5.878479e+002 0.000000e+000
      vertex   2.334440e+003 -5.878232e+002 0.000000e+000
      vertex   2.322566e+003 -5.920454e+002 0.000000e+000
    endloop
  endfacet
  facet normal 0.000000e+000 -0.000000e+000 -1.000000e+000
    outer loop
      vertex   2.318571e+003 -5.897752e+002 0.000000e+000
      vertex   2.322566e+003 -5.920454e+002 0.000000e+000
      vertex   2.310691e+003 -5.962676e+002 0.000000e+000
    endloop
  endfacet
  facet normal 0.000000e+000 -0.000000e+000 -1.000000e+000
    outer loop
      vertex   2.309866e+003 -5.927373e+002 0.000000e+000
      vertex   2.310691e+003 -5.962676e+002 0.000000e+000
      vertex   2.298817e+003 -6.004898e+002 0.000000e+000
    endloop
  endfacet
  facet normal 0.000000e+000 -0.000000e+000 -1.000000e+000
    outer loop
      vertex   2.296217e+003 -5.976267e+002 0.000000e+000
      vertex   2.298817e+003 -6.004898e+002 0.000000e+000
      vertex   2.296217e+003 -6.066613e+002 0.000000e+000
    endloop
  endfacet
  facet normal 0.000000e+000 -0.000000e+000 -1.000000e+000
    outer loop
      vertex   2.296217e+003 -5.976267e+002 0.000000e+000
      vertex   2.309866e+003 -5.927373e+002 0.000000e+000
      vertex   2.298817e+003 -6.004898e+002 0.000000e+000
    endloop
  endfacet
  facet normal 0.000000e+000 0.000000e+000 -1.000000e+000
    outer loop
      vertex   2.402812e+003 -6.004898e+002 0.000000e+000
      vertex   2.390938e+003 -5.962676e+002 0.000000e+000
      vertex   2.391763e+003 -5.927373e+002 0.000000e+000
    endloop
  endfacet
  facet normal 0.000000e+000 0.000000e+000 -1.000000e+000
    outer loop
      vertex   2.390938e+003 -5.962676e+002 0.000000e+000
      vertex   2.379063e+003 -5.920454e+002 0.000000e+000
      vertex   2.383058e+003 -5.897752e+002 0.000000e+000
    endloop
  endfacet
  facet normal 0.000000e+000 0.000000e+000 -1.000000e+000
    outer loop
      vertex   2.379063e+003 -5.920454e+002 0.000000e+000
      vertex   2.367189e+003 -5.878232e+002 0.000000e+000
      vertex   2.378113e+003 -5.878479e+002 0.000000e+000
    endloop
  endfacet
  facet normal -0.000000e+000 -0.000000e+000 -1.000000e+000
    outer loop
      vertex   2.355315e+003 -5.836010e+002 0.000000e+000
      vertex   2.355315e+003 -5.968943e+002 0.000000e+000
      vertex   2.352755e+003 -5.901045e+002 0.000000e+000
    endloop
  endfacet
  facet normal 0.000000e+000 -0.000000e+000 -1.000000e+000
    outer loop
      vertex   2.352755e+003 -5.901045e+002 0.000000e+000
      vertex   2.355315e+003 -5.968943e+002 0.000000e+000
      vertex   2.352755e+003 -6.036342e+002 0.000000e+000
    endloop
  endfacet
  facet normal 0.000000e+000 0.000000e+000 -1.000000e+000
    outer loop
      vertex   2.352755e+003 -6.036342e+002 0.000000e+000
      vertex   2.355315e+003 -5.968943e+002 0.000000e+000
      vertex   2.355315e+003 -6.101875e+002 0.000000e+000
    endloop
  endfacet
  facet normal 0.000000e+000 0.000000e+000 -1.000000e+000
    outer loop
      vertex   2.346315e+003 -6.101875e+002 0.000000e+000
      vertex   2.352755e+003 -6.036342e+002 0.000000e+000
      vertex   2.355315e+003 -6.101875e+002 0.000000e+000
    endloop
  endfacet
  facet normal 0.000000e+000 0.000000e+000 -1.000000e+000
    outer loop
      vertex   2.346315e+003 -6.101875e+002 0.000000e+000
      vertex   2.348915e+003 -6.036342e+002 0.000000e+000
      vertex   2.352755e+003 -6.036342e+002 0.000000e+000
    endloop
  endfacet
  facet normal 0.000000e+000 0.000000e+000 -1.000000e+000
    outer loop
      vertex   2.346315e+003 -6.101875e+002 0.000000e+000
      vertex   2.346315e+003 -5.968943e+002 0.000000e+000
      vertex   2.348915e+003 -6.036342e+002 0.000000e+000
    endloop
  endfacet
  facet normal 0.000000e+000 0.000000e+000 -1.000000e+000
    outer loop
      vertex   2.348915e+003 -6.036342e+002 0.000000e+000
      vertex   2.346315e+003 -5.968943e+002 0.000000e+000
      vertex   2.348915e+003 -5.901045e+002 0.000000e+000
    endloop
  endfacet
  facet normal 0.000000e+000 0.000000e+000 -1.000000e+000
    outer loop
      vertex   2.379833e+003 -6.131875e+002 0.000000e+000
      vertex   2.365324e+003 -6.131875e+002 0.000000e+000
      vertex   2.367189e+003 -6.101875e+002 0.000000e+000
    endloop
  endfacet
  facet normal 0.000000e+000 0.000000e+000 -1.000000e+000
    outer loop
      vertex   2.365324e+003 -6.131875e+002 0.000000e+000
      vertex   2.350815e+003 -6.131875e+002 0.000000e+000
      vertex   2.355315e+003 -6.101875e+002 0.000000e+000
    endloop
  endfacet
  facet normal 0.000000e+000 0.000000e+000 -1.000000e+000
    outer loop
      vertex   2.350815e+003 -6.131875e+002 0.000000e+000
      vertex   2.336305e+003 -6.131875e+002 0.000000e+000
      vertex   2.346315e+003 -6.101875e+002 0.000000e+000
    endloop
  endfacet
  facet normal 0.000000e+000 0.000000e+000 -1.000000e+000
    outer loop
      vertex   2.336305e+003 -6.131875e+002 0.000000e+000
      vertex   2.321796e+003 -6.131875e+002 0.000000e+000
      vertex   2.334440e+003 -6.101875e+002 0.000000e+000
    endloop
  endfacet
  facet normal 0.000000e+000 -0.000000e+000 -1.000000e+000
    outer loop
      vertex   2.292777e+003 -6.066613e+002 0.000000e+000
      vertex   2.296217e+003 -6.066613e+002 0.000000e+000
      vertex   2.292777e+003 -6.131875e+002 0.000000e+000
    endloop
  endfacet
  facet normal 0.000000e+000 0.000000e+000 -1.000000e+000
    outer loop
      vertex   2.292777e+003 -6.131875e+002 0.000000e+000
      vertex   2.296217e+003 -6.066613e+002 0.000000e+000
      vertex   2.298817e+003 -6.101875e+002 0.000000e+000
    endloop
  endfacet
  facet normal 0.000000e+000 0.000000e+000 -1.000000e+000
    outer loop
      vertex   2.298817e+003 -6.101875e+002 0.000000e+000
      vertex   2.296217e+003 -6.066613e+002 0.000000e+000
      vertex   2.298817e+003 -6.004898e+002 0.000000e+000
    endloop
  endfacet
  facet normal 0.000000e+000 0.000000e+000 -1.000000e+000
    outer loop
      vertex   2.310691e+003 -5.962676e+002 0.000000e+000
      vertex   2.309866e+003 -5.927373e+002 0.000000e+000
      vertex   2.318571e+003 -5.897752e+002 0.000000e+000
    endloop
  endfacet
  facet normal -0.000000e+000 0.000000e+000 -1.000000e+000
    outer loop
      vertex   2.318571e+003 -5.897752e+002 0.000000e+000
      vertex   2.309866e+003 -5.927373e+002 0.000000e+000
      vertex   2.323516e+003 -5.878479e+002 0.000000e+000
    endloop
  endfacet
  facet normal 0.000000e+000 0.000000e+000 -1.000000e+000
    outer loop
      vertex   2.322566e+003 -5.920454e+002 0.000000e+000
      vertex   2.318571e+003 -5.897752e+002 0.000000e+000
      vertex   2.323516e+003 -5.878479e+002 0.000000e+000
    endloop
  endfacet
  facet normal -0.000000e+000 -0.000000e+000 -1.000000e+000
    outer loop
      vertex   2.378113e+003 -5.878479e+002 0.000000e+000
      vertex   2.391763e+003 -5.927373e+002 0.000000e+000
      vertex   2.383058e+003 -5.897752e+002 0.000000e+000
    endloop
  endfacet
  facet normal 0.000000e+000 -1.000000e+000 0.000000e+000
    outer loop
      vertex   2.292777e+003 -6.131875e+002 0.000000e+000
      vertex   2.307286e+003 -6.131875e+002 0.000000e+000
      vertex   2.292777e+003 -6.131875e+002 3.000000e+000
    endloop
  endfacet
  facet normal 0.000000e+000 -1.000000e+000 0.000000e+000
    outer loop
      vertex   2.292777e+003 -6.131875e+002 3.000000e+000
      vertex   2.307286e+003 -6.131875e+002 0.000000e+000
      vertex   2.307286e+003 -6.131875e+002 3.000000e+000
    endloop
  endfacet
  facet normal 0.000000e+000 -1.000000e+000 0.000000e+000
    outer loop
      vertex   2.307286e+003 -6.131875e+002 3.000000e+000
      vertex   2.307286e+003 -6.131875e+002 0.000000e+000
      vertex   2.321796e+003 -6.131875e+002 0.000000e+000
    endloop
  endfacet
  facet normal 0.000000e+000 -1.000000e+000 0.000000e+000
    outer loop
      vertex   2.321796e+003 -6.131875e+002 3.000000e+000
      vertex   2.321796e+003 -6.131875e+002 0.000000e+000
      vertex   2.336305e+003 -6.131875e+002 0.000000e+000
    endloop
  endfacet
  facet normal 0.000000e+000 -1.000000e+000 0.000000e+000
    outer loop
      vertex   2.336305e+003 -6.131875e+002 3.000000e+000
      vertex   2.336305e+003 -6.131875e+002 0.000000e+000
      vertex   2.350815e+003 -6.131875e+002 0.000000e+000
    endloop
  endfacet
  facet normal 0.000000e+000 -1.000000e+000 0.000000e+000
    outer loop
      vertex   2.350815e+003 -6.131875e+002 3.000000e+000
      vertex   2.350815e+003 -6.131875e+002 0.000000e+000
      vertex   2.365324e+003 -6.131875e+002 0.000000e+000
    endloop
  endfacet
  facet normal 0.000000e+000 -1.000000e+000 0.000000e+000
    outer loop
      vertex   2.365324e+003 -6.131875e+002 3.000000e+000
      vertex   2.365324e+003 -6.131875e+002 0.000000e+000
      vertex   2.379833e+003 -6.131875e+002 0.000000e+000
    endloop
  endfacet
  facet normal 0.000000e+000 -1.000000e+000 0.000000e+000
    outer loop
      vertex   2.379833e+003 -6.131875e+002 3.000000e+000
      vertex   2.379833e+003 -6.131875e+002 0.000000e+000
      vertex   2.394343e+003 -6.131875e+002 0.000000e+000
    endloop
  endfacet
  facet normal 0.000000e+000 -1.000000e+000 0.000000e+000
    outer loop
      vertex   2.394343e+003 -6.131875e+002 3.000000e+000
      vertex   2.394343e+003 -6.131875e+002 0.000000e+000
      vertex   2.408852e+003 -6.131875e+002 0.000000e+000
    endloop
  endfacet
  facet normal -0.000000e+000 -1.000000e+000 -0.000000e+000
    outer loop
      vertex   2.408852e+003 -6.131875e+002 3.000000e+000
      vertex   2.394343e+003 -6.131875e+002 3.000000e+000
      vertex   2.408852e+003 -6.131875e+002 0.000000e+000
    endloop
  endfacet
  facet normal -0.000000e+000 -1.000000e+000 -0.000000e+000
    outer loop
      vertex   2.394343e+003 -6.131875e+002 3.000000e+000
      vertex   2.379833e+003 -6.131875e+002 3.000000e+000
      vertex   2.394343e+003 -6.131875e+002 0.000000e+000
    endloop
  endfacet
  facet normal -0.000000e+000 -1.000000e+000 -0.000000e+000
    outer loop
      vertex   2.379833e+003 -6.131875e+002 3.000000e+000
      vertex   2.365324e+003 -6.131875e+002 3.000000e+000
      vertex   2.379833e+003 -6.131875e+002 0.000000e+000
    endloop
  endfacet
  facet normal -0.000000e+000 -1.000000e+000 -0.000000e+000
    outer loop
      vertex   2.365324e+003 -6.131875e+002 3.000000e+000
      vertex   2.350815e+003 -6.131875e+002 3.000000e+000
      vertex   2.365324e+003 -6.131875e+002 0.000000e+000
    endloop
  endfacet
  facet normal -0.000000e+000 -1.000000e+000 -0.000000e+000
    outer loop
      vertex   2.350815e+003 -6.131875e+002 3.000000e+000
      vertex   2.336305e+003 -6.131875e+002 3.000000e+000
      vertex   2.350815e+003 -6.131875e+002 0.000000e+000
    endloop
  endfacet
  facet normal -0.000000e+000 -1.000000e+000 -0.000000e+000
    outer loop
      vertex   2.336305e+003 -6.131875e+002 3.000000e+000
      vertex   2.321796e+003 -6.131875e+002 3.000000e+000
      vertex   2.336305e+003 -6.131875e+002 0.000000e+000
    endloop
  endfacet
  facet normal -0.000000e+000 -1.000000e+000 -0.000000e+000
    outer loop
      vertex   2.321796e+003 -6.131875e+002 3.000000e+000
      vertex   2.307286e+003 -6.131875e+002 3.000000e+000
      vertex   2.321796e+003 -6.131875e+002 0.000000e+000
    endloop
  endfacet
  facet normal -1.000000e+000 0.000000e+000 0.000000e+000
    outer loop
      vertex   2.292777e+003 -6.066613e+002 0.000000e+000
      vertex   2.292777e+003 -6.131875e+002 0.000000e+000
      vertex   2.292777e+003 -6.066613e+002 3.000000e+000
    endloop
  endfacet
  facet normal -1.000000e+000 -0.000000e+000 0.000000e+000
    outer loop
      vertex   2.292777e+003 -6.066613e+002 3.000000e+000
      vertex   2.292777e+003 -6.131875e+002 0.000000e+000
      vertex   2.292777e+003 -6.131875e+002 3.000000e+000
    endloop
  endfacet
  facet normal 0.000000e+000 1.000000e+000 -0.000000e+000
    outer loop
      vertex   2.296217e+003 -6.066613e+002 0.000000e+000
      vertex   2.292777e+003 -6.066613e+002 0.000000e+000
      vertex   2.296217e+003 -6.066613e+002 3.000000e+000
    endloop
  endfacet
  facet normal 0.000000e+000 1.000000e+000 -0.000000e+000
    outer loop
      vertex   2.296217e+003 -6.066613e+002 3.000000e+000
      vertex   2.292777e+003 -6.066613e+002 0.000000e+000
      vertex   2.292777e+003 -6.066613e+002 3.000000e+000
    endloop
  endfacet
  facet normal -1.000000e+000 0.000000e+000 0.000000e+000
    outer loop
      vertex   2.296217e+003 -5.976267e+002 0.000000e+000
      vertex   2.296217e+003 -6.066613e+002 0.000000e+000
      vertex   2.296217e+003 -5.982303e+002 3.000000e+000
    endloop
  endfacet
  facet normal -1.000000e+000 -0.000000e+000 0.000000e+000
    outer loop
      vertex   2.296217e+003 -5.982303e+002 3.000000e+000
      vertex   2.296217e+003 -6.066613e+002 0.000000e+000
      vertex   2.296217e+003 -6.066613e+002 3.000000e+000
    endloop
  endfacet
  facet normal -3.283125e-001 9.165179e-001 2.284859e-001
    outer loop
      vertex   2.350815e+003 -5.780690e+002 0.000000e+000
      vertex   2.337165e+003 -5.829584e+002 0.000000e+000
      vertex   2.350815e+003 -5.788169e+002 3.000000e+000
    endloop
  endfacet
  facet normal -3.269545e-001 9.195108e-001 2.181756e-001
    outer loop
      vertex   2.350815e+003 -5.788169e+002 3.000000e+000
      vertex   2.337165e+003 -5.829584e+002 0.000000e+000
      vertex   2.337165e+003 -5.836703e+002 3.000000e+000
    endloop
  endfacet
  facet normal -3.291223e-001 9.187784e-001 2.180018e-001
    outer loop
      vertex   2.337165e+003 -5.836703e+002 3.000000e+000
      vertex   2.337165e+003 -5.829584e+002 0.000000e+000
      vertex   2.323516e+003 -5.878479e+002 0.000000e+000
    endloop
  endfacet
  facet normal -3.298976e-001 9.209427e-001 2.074417e-001
    outer loop
      vertex   2.323516e+003 -5.885236e+002 3.000000e+000
      vertex   2.323516e+003 -5.878479e+002 0.000000e+000
      vertex   2.309866e+003 -5.927373e+002 0.000000e+000
    endloop
  endfacet
  facet normal -3.306377e-001 9.230087e-001 1.968086e-001
    outer loop
      vertex   2.309866e+003 -5.933770e+002 3.000000e+000
      vertex   2.309866e+003 -5.927373e+002 0.000000e+000
      vertex   2.296217e+003 -5.976267e+002 0.000000e+000
    endloop
  endfacet
  facet normal -3.291629e-001 9.257216e-001 1.862559e-001
    outer loop
      vertex   2.296217e+003 -5.982303e+002 3.000000e+000
      vertex   2.309866e+003 -5.933770e+002 3.000000e+000
      vertex   2.296217e+003 -5.976267e+002 0.000000e+000
    endloop
  endfacet
  facet normal -3.284624e-001 9.237513e-001 1.969669e-001
    outer loop
      vertex   2.309866e+003 -5.933770e+002 3.000000e+000
      vertex   2.323516e+003 -5.885236e+002 3.000000e+000
      vertex   2.309866e+003 -5.927373e+002 0.000000e+000
    endloop
  endfacet
  facet normal -3.277260e-001 9.216803e-001 2.076079e-001
    outer loop
      vertex   2.323516e+003 -5.885236e+002 3.000000e+000
      vertex   2.337165e+003 -5.836703e+002 3.000000e+000
      vertex   2.323516e+003 -5.878479e+002 0.000000e+000
    endloop
  endfacet
  facet normal 3.313417e-001 9.249743e-001 1.861056e-001
    outer loop
      vertex   2.405412e+003 -5.976267e+002 0.000000e+000
      vertex   2.391763e+003 -5.927373e+002 0.000000e+000
      vertex   2.405412e+003 -5.982303e+002 3.000000e+000
    endloop
  endfacet
  facet normal 3.284624e-001 9.237513e-001 1.969669e-001
    outer loop
      vertex   2.405412e+003 -5.982303e+002 3.000000e+000
      vertex   2.391763e+003 -5.927373e+002 0.000000e+000
      vertex   2.391763e+003 -5.933770e+002 3.000000e+000
    endloop
  endfacet
  facet normal 3.306377e-001 9.230087e-001 1.968086e-001
    outer loop
      vertex   2.391763e+003 -5.933770e+002 3.000000e+000
      vertex   2.391763e+003 -5.927373e+002 0.000000e+000
      vertex   2.378113e+003 -5.878479e+002 0.000000e+000
    endloop
  endfacet
  facet normal 3.298976e-001 9.209427e-001 2.074417e-001
    outer loop
      vertex   2.378113e+003 -5.885236e+002 3.000000e+000
      vertex   2.378113e+003 -5.878479e+002 0.000000e+000
      vertex   2.364464e+003 -5.829584e+002 0.000000e+000
    endloop
  endfacet
  facet normal 3.291223e-001 9.187784e-001 2.180018e-001
    outer loop
      vertex   2.364464e+003 -5.836703e+002 3.000000e+000
      vertex   2.364464e+003 -5.829584e+002 0.000000e+000
      vertex   2.350815e+003 -5.780690e+002 0.000000e+000
    endloop
  endfacet
  facet normal 3.261489e-001 9.172449e-001 2.286672e-001
    outer loop
      vertex   2.350815e+003 -5.788169e+002 3.000000e+000
      vertex   2.364464e+003 -5.836703e+002 3.000000e+000
      vertex   2.350815e+003 -5.780690e+002 0.000000e+000
    endloop
  endfacet
  facet normal 3.269545e-001 9.195108e-001 2.181756e-001
    outer loop
      vertex   2.364464e+003 -5.836703e+002 3.000000e+000
      vertex   2.378113e+003 -5.885236e+002 3.000000e+000
      vertex   2.364464e+003 -5.829584e+002 0.000000e+000
    endloop
  endfacet
  facet normal 3.277260e-001 9.216803e-001 2.076079e-001
    outer loop
      vertex   2.378113e+003 -5.885236e+002 3.000000e+000
      vertex   2.391763e+003 -5.933770e+002 3.000000e+000
      vertex   2.378113e+003 -5.878479e+002 0.000000e+000
    endloop
  endfacet
  facet normal 1.000000e+000 0.000000e+000 -0.000000e+000
    outer loop
      vertex   2.405412e+003 -6.066613e+002 0.000000e+000
      vertex   2.405412e+003 -5.976267e+002 0.000000e+000
      vertex   2.405412e+003 -6.066613e+002 3.000000e+000
    endloop
  endfacet
  facet normal 1.000000e+000 -0.000000e+000 -0.000000e+000
    outer loop
      vertex   2.405412e+003 -6.066613e+002 3.000000e+000
      vertex   2.405412e+003 -5.976267e+002 0.000000e+000
      vertex   2.405412e+003 -5.982303e+002 3.000000e+000
    endloop
  endfacet
  facet normal 0.000000e+000 1.000000e+000 -0.000000e+000
    outer loop
      vertex   2.408852e+003 -6.066613e+002 0.000000e+000
      vertex   2.405412e+003 -6.066613e+002 0.000000e+000
      vertex   2.408852e+003 -6.066613e+002 3.000000e+000
    endloop
  endfacet
  facet normal 0.000000e+000 1.000000e+000 -0.000000e+000
    outer loop
      vertex   2.408852e+003 -6.066613e+002 3.000000e+000
      vertex   2.405412e+003 -6.066613e+002 0.000000e+000
      vertex   2.405412e+003 -6.066613e+002 3.000000e+000
    endloop
  endfacet
  facet normal 1.000000e+000 0.000000e+000 -0.000000e+000
    outer loop
      vertex   2.408852e+003 -6.131875e+002 0.000000e+000
      vertex   2.408852e+003 -6.066613e+002 0.000000e+000
      vertex   2.408852e+003 -6.131875e+002 3.000000e+000
    endloop
  endfacet
  facet normal 1.000000e+000 -0.000000e+000 0.000000e+000
    outer loop
      vertex   2.408852e+003 -6.131875e+002 3.000000e+000
      vertex   2.408852e+003 -6.066613e+002 0.000000e+000
      vertex   2.408852e+003 -6.066613e+002 3.000000e+000
    endloop
  endfacet
endsolid
