solid ascii
  facet normal -7.071068e-001 -7.071068e-001 0.000000e+000
    outer loop
      vertex   9.229107e+001 -1.836469e+001 1.181102e-001
      vertex   9.182223e+001 -1.789585e+001 1.181102e-001
      vertex   9.229107e+001 -1.836469e+001 0.000000e+000
    endloop
  endfacet
  facet normal -7.071068e-001 -7.071068e-001 1.004859e-013
    outer loop
      vertex   9.229107e+001 -1.836469e+001 0.000000e+000
      vertex   9.182223e+001 -1.789585e+001 1.181102e-001
      vertex   9.182223e+001 -1.789585e+001 0.000000e+000
    endloop
  endfacet
  facet normal -7.071068e-001 -7.071068e-001 1.004859e-013
    outer loop
      vertex   9.182223e+001 -1.789585e+001 0.000000e+000
      vertex   9.182223e+001 -1.789585e+001 1.181102e-001
      vertex   9.135338e+001 -1.742700e+001 1.181102e-001
    endloop
  endfacet
  facet normal -7.071068e-001 -7.071068e-001 0.000000e+000
    outer loop
      vertex   9.135338e+001 -1.742700e+001 0.000000e+000
      vertex   9.182223e+001 -1.789585e+001 0.000000e+000
      vertex   9.135338e+001 -1.742700e+001 1.181102e-001
    endloop
  endfacet
  facet normal 0.000000e+000 1.000000e+000 0.000000e+000
    outer loop
      vertex   9.050461e+001 -1.836469e+001 1.181102e-001
      vertex   9.095123e+001 -1.836469e+001 1.181102e-001
      vertex   9.050461e+001 -1.836469e+001 0.000000e+000
    endloop
  endfacet
  facet normal -0.000000e+000 1.000000e+000 0.000000e+000
    outer loop
      vertex   9.050461e+001 -1.836469e+001 0.000000e+000
      vertex   9.095123e+001 -1.836469e+001 1.181102e-001
      vertex   9.095123e+001 -1.836469e+001 0.000000e+000
    endloop
  endfacet
  facet normal 0.000000e+000 1.000000e+000 0.000000e+000
    outer loop
      vertex   9.095123e+001 -1.836469e+001 0.000000e+000
      vertex   9.095123e+001 -1.836469e+001 1.181102e-001
      vertex   9.139784e+001 -1.836469e+001 1.181102e-001
    endloop
  endfacet
  facet normal 0.000000e+000 1.000000e+000 0.000000e+000
    outer loop
      vertex   9.139784e+001 -1.836469e+001 0.000000e+000
      vertex   9.139784e+001 -1.836469e+001 1.181102e-001
      vertex   9.184446e+001 -1.836469e+001 1.181102e-001
    endloop
  endfacet
  facet normal 0.000000e+000 1.000000e+000 0.000000e+000
    outer loop
      vertex   9.184446e+001 -1.836469e+001 0.000000e+000
      vertex   9.184446e+001 -1.836469e+001 1.181102e-001
      vertex   9.229107e+001 -1.836469e+001 1.181102e-001
    endloop
  endfacet
  facet normal 0.000000e+000 1.000000e+000 -0.000000e+000
    outer loop
      vertex   9.229107e+001 -1.836469e+001 0.000000e+000
      vertex   9.184446e+001 -1.836469e+001 0.000000e+000
      vertex   9.229107e+001 -1.836469e+001 1.181102e-001
    endloop
  endfacet
  facet normal 0.000000e+000 1.000000e+000 -0.000000e+000
    outer loop
      vertex   9.184446e+001 -1.836469e+001 0.000000e+000
      vertex   9.139784e+001 -1.836469e+001 0.000000e+000
      vertex   9.184446e+001 -1.836469e+001 1.181102e-001
    endloop
  endfacet
  facet normal 0.000000e+000 1.000000e+000 -0.000000e+000
    outer loop
      vertex   9.139784e+001 -1.836469e+001 0.000000e+000
      vertex   9.095123e+001 -1.836469e+001 0.000000e+000
      vertex   9.139784e+001 -1.836469e+001 1.181102e-001
    endloop
  endfacet
  facet normal 1.000000e+000 0.000000e+000 0.000000e+000
    outer loop
      vertex   9.050461e+001 -1.799075e+001 1.181102e-001
      vertex   9.050461e+001 -1.836469e+001 1.181102e-001
      vertex   9.050461e+001 -1.799075e+001 0.000000e+000
    endloop
  endfacet
  facet normal 1.000000e+000 0.000000e+000 0.000000e+000
    outer loop
      vertex   9.050461e+001 -1.799075e+001 0.000000e+000
      vertex   9.050461e+001 -1.836469e+001 1.181102e-001
      vertex   9.050461e+001 -1.836469e+001 0.000000e+000
    endloop
  endfacet
  facet normal 5.532700e-001 -8.330020e-001 0.000000e+000
    outer loop
      vertex   9.135338e+001 -1.742700e+001 1.181102e-001
      vertex   9.092900e+001 -1.770887e+001 1.181102e-001
      vertex   9.135338e+001 -1.742700e+001 0.000000e+000
    endloop
  endfacet
  facet normal 5.532700e-001 -8.330020e-001 1.972945e-014
    outer loop
      vertex   9.135338e+001 -1.742700e+001 0.000000e+000
      vertex   9.092900e+001 -1.770887e+001 1.181102e-001
      vertex   9.092900e+001 -1.770887e+001 3.496765e-016
    endloop
  endfacet
  facet normal 5.532700e-001 -8.330020e-001 1.972945e-014
    outer loop
      vertex   9.092900e+001 -1.770887e+001 3.496765e-016
      vertex   9.092900e+001 -1.770887e+001 1.181102e-001
      vertex   9.050461e+001 -1.799075e+001 1.181102e-001
    endloop
  endfacet
  facet normal 5.532700e-001 -8.330020e-001 0.000000e+000
    outer loop
      vertex   9.050461e+001 -1.799075e+001 0.000000e+000
      vertex   9.092900e+001 -1.770887e+001 3.496765e-016
      vertex   9.050461e+001 -1.799075e+001 1.181102e-001
    endloop
  endfacet
  facet normal -5.532700e-001 -8.330020e-001 0.000000e+000
    outer loop
      vertex   9.364975e+001 -1.736034e+001 1.181102e-001
      vertex   9.318934e+001 -1.705453e+001 1.181102e-001
      vertex   9.364975e+001 -1.736034e+001 0.000000e+000
    endloop
  endfacet
  facet normal -5.532700e-001 -8.330020e-001 -0.000000e+000
    outer loop
      vertex   9.364975e+001 -1.736034e+001 0.000000e+000
      vertex   9.318934e+001 -1.705453e+001 1.181102e-001
      vertex   9.318934e+001 -1.705453e+001 0.000000e+000
    endloop
  endfacet
  facet normal -5.532700e-001 -8.330020e-001 0.000000e+000
    outer loop
      vertex   9.318934e+001 -1.705453e+001 0.000000e+000
      vertex   9.318934e+001 -1.705453e+001 1.181102e-001
      vertex   9.272892e+001 -1.674873e+001 1.181102e-001
    endloop
  endfacet
  facet normal -5.532700e-001 -8.330020e-001 0.000000e+000
    outer loop
      vertex   9.272892e+001 -1.674873e+001 0.000000e+000
      vertex   9.318934e+001 -1.705453e+001 0.000000e+000
      vertex   9.272892e+001 -1.674873e+001 1.181102e-001
    endloop
  endfacet
  facet normal -7.071068e-001 7.071068e-001 0.000000e+000
    outer loop
      vertex   9.272892e+001 -1.828117e+001 1.181102e-001
      vertex   9.318934e+001 -1.782076e+001 1.181102e-001
      vertex   9.272892e+001 -1.828117e+001 0.000000e+000
    endloop
  endfacet
  facet normal -7.071068e-001 7.071068e-001 0.000000e+000
    outer loop
      vertex   9.272892e+001 -1.828117e+001 0.000000e+000
      vertex   9.318934e+001 -1.782076e+001 1.181102e-001
      vertex   9.318934e+001 -1.782076e+001 6.993531e-016
    endloop
  endfacet
  facet normal -7.071068e-001 7.071068e-001 0.000000e+000
    outer loop
      vertex   9.318934e+001 -1.782076e+001 6.993531e-016
      vertex   9.318934e+001 -1.782076e+001 1.181102e-001
      vertex   9.364975e+001 -1.736034e+001 1.181102e-001
    endloop
  endfacet
  facet normal -7.071068e-001 7.071068e-001 0.000000e+000
    outer loop
      vertex   9.364975e+001 -1.736034e+001 0.000000e+000
      vertex   9.318934e+001 -1.782076e+001 6.993531e-016
      vertex   9.364975e+001 -1.736034e+001 1.181102e-001
    endloop
  endfacet
  facet normal 1.000000e+000 0.000000e+000 0.000000e+000
    outer loop
      vertex   9.272892e+001 -1.674873e+001 1.181102e-001
      vertex   9.272892e+001 -1.751495e+001 1.181102e-001
      vertex   9.272892e+001 -1.674873e+001 0.000000e+000
    endloop
  endfacet
  facet normal 1.000000e+000 0.000000e+000 0.000000e+000
    outer loop
      vertex   9.272892e+001 -1.674873e+001 0.000000e+000
      vertex   9.272892e+001 -1.751495e+001 1.181102e-001
      vertex   9.272892e+001 -1.751495e+001 0.000000e+000
    endloop
  endfacet
  facet normal 1.000000e+000 0.000000e+000 -0.000000e+000
    outer loop
      vertex   9.272892e+001 -1.751495e+001 0.000000e+000
      vertex   9.272892e+001 -1.751495e+001 1.181102e-001
      vertex   9.272892e+001 -1.828117e+001 1.181102e-001
    endloop
  endfacet
  facet normal 1.000000e+000 0.000000e+000 -0.000000e+000
    outer loop
      vertex   9.272892e+001 -1.828117e+001 0.000000e+000
      vertex   9.272892e+001 -1.751495e+001 0.000000e+000
      vertex   9.272892e+001 -1.828117e+001 1.181102e-001
    endloop
  endfacet
  facet normal 0.000000e+000 1.000000e+000 0.000000e+000
    outer loop
      vertex   9.281243e+001 -1.836469e+001 1.181102e-001
      vertex   9.325905e+001 -1.836469e+001 1.181102e-001
      vertex   9.281243e+001 -1.836469e+001 0.000000e+000
    endloop
  endfacet
  facet normal -0.000000e+000 1.000000e+000 0.000000e+000
    outer loop
      vertex   9.281243e+001 -1.836469e+001 0.000000e+000
      vertex   9.325905e+001 -1.836469e+001 1.181102e-001
      vertex   9.325905e+001 -1.836469e+001 0.000000e+000
    endloop
  endfacet
  facet normal 0.000000e+000 1.000000e+000 0.000000e+000
    outer loop
      vertex   9.325905e+001 -1.836469e+001 0.000000e+000
      vertex   9.325905e+001 -1.836469e+001 1.181102e-001
      vertex   9.370566e+001 -1.836469e+001 1.181102e-001
    endloop
  endfacet
  facet normal 0.000000e+000 1.000000e+000 0.000000e+000
    outer loop
      vertex   9.370566e+001 -1.836469e+001 0.000000e+000
      vertex   9.370566e+001 -1.836469e+001 1.181102e-001
      vertex   9.415228e+001 -1.836469e+001 1.181102e-001
    endloop
  endfacet
  facet normal 0.000000e+000 1.000000e+000 0.000000e+000
    outer loop
      vertex   9.415228e+001 -1.836469e+001 0.000000e+000
      vertex   9.415228e+001 -1.836469e+001 1.181102e-001
      vertex   9.459889e+001 -1.836469e+001 1.181102e-001
    endloop
  endfacet
  facet normal 0.000000e+000 1.000000e+000 -0.000000e+000
    outer loop
      vertex   9.459889e+001 -1.836469e+001 0.000000e+000
      vertex   9.415228e+001 -1.836469e+001 0.000000e+000
      vertex   9.459889e+001 -1.836469e+001 1.181102e-001
    endloop
  endfacet
  facet normal 0.000000e+000 1.000000e+000 -0.000000e+000
    outer loop
      vertex   9.415228e+001 -1.836469e+001 0.000000e+000
      vertex   9.370566e+001 -1.836469e+001 0.000000e+000
      vertex   9.415228e+001 -1.836469e+001 1.181102e-001
    endloop
  endfacet
  facet normal 0.000000e+000 1.000000e+000 -0.000000e+000
    outer loop
      vertex   9.370566e+001 -1.836469e+001 0.000000e+000
      vertex   9.325905e+001 -1.836469e+001 0.000000e+000
      vertex   9.370566e+001 -1.836469e+001 1.181102e-001
    endloop
  endfacet
  facet normal 7.071068e-001 -7.071068e-001 0.000000e+000
    outer loop
      vertex   9.375012e+001 -1.742700e+001 1.181102e-001
      vertex   9.328128e+001 -1.789585e+001 1.181102e-001
      vertex   9.375012e+001 -1.742700e+001 0.000000e+000
    endloop
  endfacet
  facet normal 7.071068e-001 -7.071068e-001 -1.674765e-014
    outer loop
      vertex   9.375012e+001 -1.742700e+001 0.000000e+000
      vertex   9.328128e+001 -1.789585e+001 1.181102e-001
      vertex   9.328128e+001 -1.789585e+001 0.000000e+000
    endloop
  endfacet
  facet normal 7.071068e-001 -7.071068e-001 -1.674765e-014
    outer loop
      vertex   9.328128e+001 -1.789585e+001 0.000000e+000
      vertex   9.328128e+001 -1.789585e+001 1.181102e-001
      vertex   9.281243e+001 -1.836469e+001 1.181102e-001
    endloop
  endfacet
  facet normal 7.071068e-001 -7.071068e-001 0.000000e+000
    outer loop
      vertex   9.281243e+001 -1.836469e+001 0.000000e+000
      vertex   9.328128e+001 -1.789585e+001 0.000000e+000
      vertex   9.281243e+001 -1.836469e+001 1.181102e-001
    endloop
  endfacet
  facet normal -5.532700e-001 -8.330020e-001 0.000000e+000
    outer loop
      vertex   9.459889e+001 -1.799075e+001 1.181102e-001
      vertex   9.417451e+001 -1.770887e+001 1.181102e-001
      vertex   9.459889e+001 -1.799075e+001 0.000000e+000
    endloop
  endfacet
  facet normal -5.532700e-001 -8.330020e-001 9.187516e-014
    outer loop
      vertex   9.459889e+001 -1.799075e+001 0.000000e+000
      vertex   9.417451e+001 -1.770887e+001 1.181102e-001
      vertex   9.417451e+001 -1.770887e+001 3.496765e-016
    endloop
  endfacet
  facet normal -5.532700e-001 -8.330020e-001 9.187516e-014
    outer loop
      vertex   9.417451e+001 -1.770887e+001 3.496765e-016
      vertex   9.417451e+001 -1.770887e+001 1.181102e-001
      vertex   9.375012e+001 -1.742700e+001 1.181102e-001
    endloop
  endfacet
  facet normal -5.532700e-001 -8.330020e-001 0.000000e+000
    outer loop
      vertex   9.375012e+001 -1.742700e+001 0.000000e+000
      vertex   9.417451e+001 -1.770887e+001 3.496765e-016
      vertex   9.375012e+001 -1.742700e+001 1.181102e-001
    endloop
  endfacet
  facet normal -1.000000e+000 0.000000e+000 -0.000000e+000
    outer loop
      vertex   9.459889e+001 -1.836469e+001 1.181102e-001
      vertex   9.459889e+001 -1.799075e+001 1.181102e-001
      vertex   9.459889e+001 -1.836469e+001 0.000000e+000
    endloop
  endfacet
  facet normal -1.000000e+000 0.000000e+000 0.000000e+000
    outer loop
      vertex   9.459889e+001 -1.836469e+001 0.000000e+000
      vertex   9.459889e+001 -1.799075e+001 1.181102e-001
      vertex   9.459889e+001 -1.799075e+001 0.000000e+000
    endloop
  endfacet
  facet normal 5.532700e-001 -8.330020e-001 0.000000e+000
    outer loop
      vertex   9.237459e+001 -1.674873e+001 1.181102e-001
      vertex   9.191417e+001 -1.705453e+001 1.181102e-001
      vertex   9.237459e+001 -1.674873e+001 0.000000e+000
    endloop
  endfacet
  facet normal 5.532700e-001 -8.330020e-001 -1.972945e-014
    outer loop
      vertex   9.237459e+001 -1.674873e+001 0.000000e+000
      vertex   9.191417e+001 -1.705453e+001 1.181102e-001
      vertex   9.191417e+001 -1.705453e+001 3.496765e-016
    endloop
  endfacet
  facet normal 5.532700e-001 -8.330020e-001 -1.972945e-014
    outer loop
      vertex   9.191417e+001 -1.705453e+001 3.496765e-016
      vertex   9.191417e+001 -1.705453e+001 1.181102e-001
      vertex   9.145375e+001 -1.736034e+001 1.181102e-001
    endloop
  endfacet
  facet normal 5.532700e-001 -8.330020e-001 0.000000e+000
    outer loop
      vertex   9.145375e+001 -1.736034e+001 0.000000e+000
      vertex   9.191417e+001 -1.705453e+001 3.496765e-016
      vertex   9.145375e+001 -1.736034e+001 1.181102e-001
    endloop
  endfacet
  facet normal -1.000000e+000 0.000000e+000 -0.000000e+000
    outer loop
      vertex   9.237459e+001 -1.828117e+001 1.181102e-001
      vertex   9.237459e+001 -1.751495e+001 1.181102e-001
      vertex   9.237459e+001 -1.828117e+001 0.000000e+000
    endloop
  endfacet
  facet normal -1.000000e+000 -1.460368e-014 9.473903e-014
    outer loop
      vertex   9.237459e+001 -1.828117e+001 0.000000e+000
      vertex   9.237459e+001 -1.751495e+001 1.181102e-001
      vertex   9.237459e+001 -1.751495e+001 0.000000e+000
    endloop
  endfacet
  facet normal -1.000000e+000 -4.323558e-029 9.473903e-014
    outer loop
      vertex   9.237459e+001 -1.751495e+001 0.000000e+000
      vertex   9.237459e+001 -1.751495e+001 1.181102e-001
      vertex   9.237459e+001 -1.674873e+001 1.181102e-001
    endloop
  endfacet
  facet normal -1.000000e+000 1.460368e-014 0.000000e+000
    outer loop
      vertex   9.237459e+001 -1.674873e+001 0.000000e+000
      vertex   9.237459e+001 -1.751495e+001 0.000000e+000
      vertex   9.237459e+001 -1.674873e+001 1.181102e-001
    endloop
  endfacet
  facet normal 7.071068e-001 7.071068e-001 0.000000e+000
    outer loop
      vertex   9.145375e+001 -1.736034e+001 1.181102e-001
      vertex   9.191417e+001 -1.782076e+001 1.181102e-001
      vertex   9.145375e+001 -1.736034e+001 0.000000e+000
    endloop
  endfacet
  facet normal 7.071068e-001 7.071068e-001 1.674765e-014
    outer loop
      vertex   9.145375e+001 -1.736034e+001 0.000000e+000
      vertex   9.191417e+001 -1.782076e+001 1.181102e-001
      vertex   9.191417e+001 -1.782076e+001 0.000000e+000
    endloop
  endfacet
  facet normal 7.071068e-001 7.071068e-001 1.674765e-014
    outer loop
      vertex   9.191417e+001 -1.782076e+001 0.000000e+000
      vertex   9.191417e+001 -1.782076e+001 1.181102e-001
      vertex   9.237459e+001 -1.828117e+001 1.181102e-001
    endloop
  endfacet
  facet normal 7.071068e-001 7.071068e-001 0.000000e+000
    outer loop
      vertex   9.237459e+001 -1.828117e+001 0.000000e+000
      vertex   9.191417e+001 -1.782076e+001 0.000000e+000
      vertex   9.237459e+001 -1.828117e+001 1.181102e-001
    endloop
  endfacet
  facet normal 1.000000e+000 0.000000e+000 0.000000e+000
    outer loop
      vertex   9.247695e+001 -1.703511e+001 1.181102e-001
      vertex   9.247695e+001 -1.743669e+001 1.181102e-001
      vertex   9.247695e+001 -1.703511e+001 0.000000e+000
    endloop
  endfacet
  facet normal 1.000000e+000 0.000000e+000 0.000000e+000
    outer loop
      vertex   9.247695e+001 -1.703511e+001 0.000000e+000
      vertex   9.247695e+001 -1.743669e+001 1.181102e-001
      vertex   9.247695e+001 -1.743669e+001 0.000000e+000
    endloop
  endfacet
  facet normal 1.000000e+000 0.000000e+000 -0.000000e+000
    outer loop
      vertex   9.247695e+001 -1.743669e+001 0.000000e+000
      vertex   9.247695e+001 -1.743669e+001 1.181102e-001
      vertex   9.247695e+001 -1.783826e+001 1.181102e-001
    endloop
  endfacet
  facet normal 1.000000e+000 0.000000e+000 -0.000000e+000
    outer loop
      vertex   9.247695e+001 -1.783826e+001 0.000000e+000
      vertex   9.247695e+001 -1.743669e+001 0.000000e+000
      vertex   9.247695e+001 -1.783826e+001 1.181102e-001
    endloop
  endfacet
  facet normal -0.000000e+000 -1.000000e+000 -0.000000e+000
    outer loop
      vertex   9.262656e+001 -1.703511e+001 1.181102e-001
      vertex   9.247695e+001 -1.703511e+001 1.181102e-001
      vertex   9.262656e+001 -1.703511e+001 0.000000e+000
    endloop
  endfacet
  facet normal -0.000000e+000 -1.000000e+000 -0.000000e+000
    outer loop
      vertex   9.262656e+001 -1.703511e+001 0.000000e+000
      vertex   9.247695e+001 -1.703511e+001 1.181102e-001
      vertex   9.247695e+001 -1.703511e+001 0.000000e+000
    endloop
  endfacet
  facet normal -1.000000e+000 0.000000e+000 -0.000000e+000
    outer loop
      vertex   9.262656e+001 -1.783826e+001 1.181102e-001
      vertex   9.262656e+001 -1.743669e+001 1.181102e-001
      vertex   9.262656e+001 -1.783826e+001 0.000000e+000
    endloop
  endfacet
  facet normal -1.000000e+000 0.000000e+000 0.000000e+000
    outer loop
      vertex   9.262656e+001 -1.783826e+001 0.000000e+000
      vertex   9.262656e+001 -1.743669e+001 1.181102e-001
      vertex   9.262656e+001 -1.743669e+001 0.000000e+000
    endloop
  endfacet
  facet normal -1.000000e+000 0.000000e+000 0.000000e+000
    outer loop
      vertex   9.262656e+001 -1.743669e+001 0.000000e+000
      vertex   9.262656e+001 -1.743669e+001 1.181102e-001
      vertex   9.262656e+001 -1.703511e+001 1.181102e-001
    endloop
  endfacet
  facet normal -1.000000e+000 0.000000e+000 0.000000e+000
    outer loop
      vertex   9.262656e+001 -1.703511e+001 0.000000e+000
      vertex   9.262656e+001 -1.743669e+001 0.000000e+000
      vertex   9.262656e+001 -1.703511e+001 1.181102e-001
    endloop
  endfacet
  facet normal -0.000000e+000 1.000000e+000 0.000000e+000
    outer loop
      vertex   9.247695e+001 -1.783826e+001 1.181102e-001
      vertex   9.262656e+001 -1.783826e+001 1.181102e-001
      vertex   9.247695e+001 -1.783826e+001 0.000000e+000
    endloop
  endfacet
  facet normal -0.000000e+000 1.000000e+000 0.000000e+000
    outer loop
      vertex   9.247695e+001 -1.783826e+001 0.000000e+000
      vertex   9.262656e+001 -1.783826e+001 1.181102e-001
      vertex   9.262656e+001 -1.783826e+001 0.000000e+000
    endloop
  endfacet
  facet normal -1.330882e-015 2.003772e-015 1.000000e+000
    outer loop
      vertex   9.145375e+001 -1.736034e+001 1.181102e-001
      vertex   9.147700e+001 -1.720311e+001 1.181102e-001
      vertex   9.135338e+001 -1.742700e+001 1.181102e-001
    endloop
  endfacet
  facet normal 5.953290e-016 -8.963260e-016 1.000000e+000
    outer loop
      vertex   9.182223e+001 -1.789585e+001 1.181102e-001
      vertex   9.145375e+001 -1.736034e+001 1.181102e-001
      vertex   9.135338e+001 -1.742700e+001 1.181102e-001
    endloop
  endfacet
  facet normal 6.828508e-016 -8.361036e-016 1.000000e+000
    outer loop
      vertex   9.182223e+001 -1.789585e+001 1.181102e-001
      vertex   9.191417e+001 -1.782076e+001 1.181102e-001
      vertex   9.145375e+001 -1.736034e+001 1.181102e-001
    endloop
  endfacet
  facet normal -6.705783e-016 8.210768e-016 1.000000e+000
    outer loop
      vertex   9.182223e+001 -1.789585e+001 1.181102e-001
      vertex   9.229107e+001 -1.836469e+001 1.181102e-001
      vertex   9.191417e+001 -1.782076e+001 1.181102e-001
    endloop
  endfacet
  facet normal -7.594772e-016 7.594772e-016 1.000000e+000
    outer loop
      vertex   9.191417e+001 -1.782076e+001 1.181102e-001
      vertex   9.229107e+001 -1.836469e+001 1.181102e-001
      vertex   9.237459e+001 -1.828117e+001 1.181102e-001
    endloop
  endfacet
  facet normal 7.500477e-016 -7.500477e-016 1.000000e+000
    outer loop
      vertex   9.237459e+001 -1.828117e+001 1.181102e-001
      vertex   9.229107e+001 -1.836469e+001 1.181102e-001
      vertex   9.255175e+001 -1.848280e+001 1.181102e-001
    endloop
  endfacet
  facet normal -7.500477e-016 -7.500477e-016 1.000000e+000
    outer loop
      vertex   9.272892e+001 -1.828117e+001 1.181102e-001
      vertex   9.255175e+001 -1.848280e+001 1.181102e-001
      vertex   9.281243e+001 -1.836469e+001 1.181102e-001
    endloop
  endfacet
  facet normal 7.458275e-016 7.458275e-016 1.000000e+000
    outer loop
      vertex   9.328128e+001 -1.789585e+001 1.181102e-001
      vertex   9.272892e+001 -1.828117e+001 1.181102e-001
      vertex   9.281243e+001 -1.836469e+001 1.181102e-001
    endloop
  endfacet
  facet normal 4.186913e-015 -4.186913e-015 1.000000e+000
    outer loop
      vertex   9.328128e+001 -1.789585e+001 1.181102e-001
      vertex   9.318934e+001 -1.782076e+001 1.181102e-001
      vertex   9.272892e+001 -1.828117e+001 1.181102e-001
    endloop
  endfacet
  facet normal 3.516335e-015 -5.007990e-015 1.000000e+000
    outer loop
      vertex   9.328128e+001 -1.789585e+001 1.181102e-001
      vertex   9.375012e+001 -1.742700e+001 1.181102e-001
      vertex   9.318934e+001 -1.782076e+001 1.181102e-001
    endloop
  endfacet
  facet normal 0.000000e+000 -0.000000e+000 1.000000e+000
    outer loop
      vertex   9.318934e+001 -1.782076e+001 1.181102e-001
      vertex   9.375012e+001 -1.742700e+001 1.181102e-001
      vertex   9.364975e+001 -1.736034e+001 1.181102e-001
    endloop
  endfacet
  facet normal 1.330882e-015 2.003772e-015 1.000000e+000
    outer loop
      vertex   9.364975e+001 -1.736034e+001 1.181102e-001
      vertex   9.375012e+001 -1.742700e+001 1.181102e-001
      vertex   9.362730e+001 -1.720364e+001 1.181102e-001
    endloop
  endfacet
  facet normal -3.071265e-016 -4.624090e-016 1.000000e+000
    outer loop
      vertex   9.318934e+001 -1.705453e+001 1.181102e-001
      vertex   9.362730e+001 -1.720364e+001 1.181102e-001
      vertex   9.308953e+001 -1.684645e+001 1.181102e-001
    endloop
  endfacet
  facet normal 1.330882e-015 2.003772e-015 1.000000e+000
    outer loop
      vertex   9.272892e+001 -1.674873e+001 1.181102e-001
      vertex   9.308953e+001 -1.684645e+001 1.181102e-001
      vertex   9.255175e+001 -1.648927e+001 1.181102e-001
    endloop
  endfacet
  facet normal -1.330882e-015 2.003772e-015 1.000000e+000
    outer loop
      vertex   9.237459e+001 -1.674873e+001 1.181102e-001
      vertex   9.255175e+001 -1.648927e+001 1.181102e-001
      vertex   9.201438e+001 -1.684619e+001 1.181102e-001
    endloop
  endfacet
  facet normal -1.330882e-015 2.003772e-015 1.000000e+000
    outer loop
      vertex   9.191417e+001 -1.705453e+001 1.181102e-001
      vertex   9.201438e+001 -1.684619e+001 1.181102e-001
      vertex   9.147700e+001 -1.720311e+001 1.181102e-001
    endloop
  endfacet
  facet normal -1.330882e-015 2.003772e-015 1.000000e+000
    outer loop
      vertex   9.145375e+001 -1.736034e+001 1.181102e-001
      vertex   9.191417e+001 -1.705453e+001 1.181102e-001
      vertex   9.147700e+001 -1.720311e+001 1.181102e-001
    endloop
  endfacet
  facet normal -5.578516e-016 -4.006500e-016 1.000000e+000
    outer loop
      vertex   9.135338e+001 -1.742700e+001 1.181102e-001
      vertex   9.093963e+001 -1.756003e+001 1.181102e-001
      vertex   9.092900e+001 -1.770887e+001 1.181102e-001
    endloop
  endfacet
  facet normal -1.330882e-015 2.003772e-015 1.000000e+000
    outer loop
      vertex   9.135338e+001 -1.742700e+001 1.181102e-001
      vertex   9.147700e+001 -1.720311e+001 1.181102e-001
      vertex   9.093963e+001 -1.756003e+001 1.181102e-001
    endloop
  endfacet
  facet normal 0.000000e+000 -2.405483e-015 1.000000e+000
    outer loop
      vertex   9.255175e+001 -1.848280e+001 1.181102e-001
      vertex   9.229107e+001 -1.836469e+001 1.181102e-001
      vertex   9.198051e+001 -1.848280e+001 1.181102e-001
    endloop
  endfacet
  facet normal -7.829487e-016 -3.468075e-016 1.000000e+000
    outer loop
      vertex   9.198051e+001 -1.848280e+001 1.181102e-001
      vertex   9.229107e+001 -1.836469e+001 1.181102e-001
      vertex   9.184446e+001 -1.836469e+001 1.181102e-001
    endloop
  endfacet
  facet normal 0.000000e+000 5.551115e-016 1.000000e+000
    outer loop
      vertex   9.140927e+001 -1.848280e+001 1.181102e-001
      vertex   9.184446e+001 -1.836469e+001 1.181102e-001
      vertex   9.139784e+001 -1.836469e+001 1.181102e-001
    endloop
  endfacet
  facet normal 0.000000e+000 5.551115e-016 1.000000e+000
    outer loop
      vertex   9.095123e+001 -1.836469e+001 1.181102e-001
      vertex   9.140927e+001 -1.848280e+001 1.181102e-001
      vertex   9.139784e+001 -1.836469e+001 1.181102e-001
    endloop
  endfacet
  facet normal -0.000000e+000 5.551115e-016 1.000000e+000
    outer loop
      vertex   9.095123e+001 -1.836469e+001 1.181102e-001
      vertex   9.083803e+001 -1.848280e+001 1.181102e-001
      vertex   9.140927e+001 -1.848280e+001 1.181102e-001
    endloop
  endfacet
  facet normal 7.829487e-016 -1.952339e-016 1.000000e+000
    outer loop
      vertex   9.095123e+001 -1.836469e+001 1.181102e-001
      vertex   9.050461e+001 -1.836469e+001 1.181102e-001
      vertex   9.083803e+001 -1.848280e+001 1.181102e-001
    endloop
  endfacet
  facet normal 0.000000e+000 -2.405483e-015 1.000000e+000
    outer loop
      vertex   9.083803e+001 -1.848280e+001 1.181102e-001
      vertex   9.050461e+001 -1.836469e+001 1.181102e-001
      vertex   9.026679e+001 -1.848280e+001 1.181102e-001
    endloop
  endfacet
  facet normal -1.674986e-015 9.671228e-016 1.000000e+000
    outer loop
      vertex   9.026679e+001 -1.848280e+001 1.181102e-001
      vertex   9.050461e+001 -1.836469e+001 1.181102e-001
      vertex   9.040225e+001 -1.824820e+001 1.181102e-001
    endloop
  endfacet
  facet normal -0.000000e+000 0.000000e+000 1.000000e+000
    outer loop
      vertex   9.026679e+001 -1.824820e+001 1.181102e-001
      vertex   9.026679e+001 -1.848280e+001 1.181102e-001
      vertex   9.040225e+001 -1.824820e+001 1.181102e-001
    endloop
  endfacet
  facet normal -6.657836e-016 -8.707632e-016 1.000000e+000
    outer loop
      vertex   9.262656e+001 -1.703511e+001 1.181102e-001
      vertex   9.262656e+001 -1.743669e+001 1.181102e-001
      vertex   9.272892e+001 -1.751495e+001 1.181102e-001
    endloop
  endfacet
  facet normal 1.276780e-015 -4.563650e-016 1.000000e+000
    outer loop
      vertex   9.272892e+001 -1.674873e+001 1.181102e-001
      vertex   9.262656e+001 -1.703511e+001 1.181102e-001
      vertex   9.272892e+001 -1.751495e+001 1.181102e-001
    endloop
  endfacet
  facet normal -0.000000e+000 0.000000e+000 1.000000e+000
    outer loop
      vertex   9.272892e+001 -1.674873e+001 1.181102e-001
      vertex   9.247695e+001 -1.703511e+001 1.181102e-001
      vertex   9.262656e+001 -1.703511e+001 1.181102e-001
    endloop
  endfacet
  facet normal 0.000000e+000 0.000000e+000 1.000000e+000
    outer loop
      vertex   9.272892e+001 -1.674873e+001 1.181102e-001
      vertex   9.237459e+001 -1.674873e+001 1.181102e-001
      vertex   9.247695e+001 -1.703511e+001 1.181102e-001
    endloop
  endfacet
  facet normal 0.000000e+000 1.095014e-015 1.000000e+000
    outer loop
      vertex   9.272892e+001 -1.674873e+001 1.181102e-001
      vertex   9.255175e+001 -1.648927e+001 1.181102e-001
      vertex   9.237459e+001 -1.674873e+001 1.181102e-001
    endloop
  endfacet
  facet normal 8.074329e-016 7.220195e-017 1.000000e+000
    outer loop
      vertex   9.272892e+001 -1.674873e+001 1.181102e-001
      vertex   9.318934e+001 -1.705453e+001 1.181102e-001
      vertex   9.308953e+001 -1.684645e+001 1.181102e-001
    endloop
  endfacet
  facet normal 4.915340e-016 1.883519e-015 1.000000e+000
    outer loop
      vertex   9.318934e+001 -1.705453e+001 1.181102e-001
      vertex   9.364975e+001 -1.736034e+001 1.181102e-001
      vertex   9.362730e+001 -1.720364e+001 1.181102e-001
    endloop
  endfacet
  facet normal 1.330882e-015 2.003772e-015 1.000000e+000
    outer loop
      vertex   9.362730e+001 -1.720364e+001 1.181102e-001
      vertex   9.375012e+001 -1.742700e+001 1.181102e-001
      vertex   9.416508e+001 -1.756082e+001 1.181102e-001
    endloop
  endfacet
  facet normal 1.330882e-015 2.003772e-015 1.000000e+000
    outer loop
      vertex   9.416508e+001 -1.756082e+001 1.181102e-001
      vertex   9.375012e+001 -1.742700e+001 1.181102e-001
      vertex   9.417451e+001 -1.770887e+001 1.181102e-001
    endloop
  endfacet
  facet normal 1.330882e-015 2.003772e-015 1.000000e+000
    outer loop
      vertex   9.470285e+001 -1.791801e+001 1.181102e-001
      vertex   9.417451e+001 -1.770887e+001 1.181102e-001
      vertex   9.459889e+001 -1.799075e+001 1.181102e-001
    endloop
  endfacet
  facet normal 2.732944e-015 0.000000e+000 1.000000e+000
    outer loop
      vertex   9.470285e+001 -1.824820e+001 1.181102e-001
      vertex   9.459889e+001 -1.799075e+001 1.181102e-001
      vertex   9.459889e+001 -1.836469e+001 1.181102e-001
    endloop
  endfacet
  facet normal 0.000000e+000 -2.405483e-015 1.000000e+000
    outer loop
      vertex   9.483671e+001 -1.848280e+001 1.181102e-001
      vertex   9.459889e+001 -1.836469e+001 1.181102e-001
      vertex   9.426547e+001 -1.848280e+001 1.181102e-001
    endloop
  endfacet
  facet normal 1.667088e-015 9.512208e-016 1.000000e+000
    outer loop
      vertex   9.483671e+001 -1.848280e+001 1.181102e-001
      vertex   9.470285e+001 -1.824820e+001 1.181102e-001
      vertex   9.459889e+001 -1.836469e+001 1.181102e-001
    endloop
  endfacet
  facet normal 0.000000e+000 -0.000000e+000 1.000000e+000
    outer loop
      vertex   9.483671e+001 -1.848280e+001 1.181102e-001
      vertex   9.483671e+001 -1.824820e+001 1.181102e-001
      vertex   9.470285e+001 -1.824820e+001 1.181102e-001
    endloop
  endfacet
  facet normal -7.829487e-016 -1.952339e-016 1.000000e+000
    outer loop
      vertex   9.459889e+001 -1.836469e+001 1.181102e-001
      vertex   9.415228e+001 -1.836469e+001 1.181102e-001
      vertex   9.426547e+001 -1.848280e+001 1.181102e-001
    endloop
  endfacet
  facet normal 0.000000e+000 5.551115e-016 1.000000e+000
    outer loop
      vertex   9.426547e+001 -1.848280e+001 1.181102e-001
      vertex   9.415228e+001 -1.836469e+001 1.181102e-001
      vertex   9.369423e+001 -1.848280e+001 1.181102e-001
    endloop
  endfacet
  facet normal 0.000000e+000 5.551115e-016 1.000000e+000
    outer loop
      vertex   9.369423e+001 -1.848280e+001 1.181102e-001
      vertex   9.415228e+001 -1.836469e+001 1.181102e-001
      vertex   9.370566e+001 -1.836469e+001 1.181102e-001
    endloop
  endfacet
  facet normal 0.000000e+000 5.551115e-016 1.000000e+000
    outer loop
      vertex   9.325905e+001 -1.836469e+001 1.181102e-001
      vertex   9.369423e+001 -1.848280e+001 1.181102e-001
      vertex   9.370566e+001 -1.836469e+001 1.181102e-001
    endloop
  endfacet
  facet normal -0.000000e+000 5.551115e-016 1.000000e+000
    outer loop
      vertex   9.325905e+001 -1.836469e+001 1.181102e-001
      vertex   9.312299e+001 -1.848280e+001 1.181102e-001
      vertex   9.369423e+001 -1.848280e+001 1.181102e-001
    endloop
  endfacet
  facet normal 7.829487e-016 -3.468075e-016 1.000000e+000
    outer loop
      vertex   9.325905e+001 -1.836469e+001 1.181102e-001
      vertex   9.281243e+001 -1.836469e+001 1.181102e-001
      vertex   9.312299e+001 -1.848280e+001 1.181102e-001
    endloop
  endfacet
  facet normal 0.000000e+000 -2.405483e-015 1.000000e+000
    outer loop
      vertex   9.312299e+001 -1.848280e+001 1.181102e-001
      vertex   9.281243e+001 -1.836469e+001 1.181102e-001
      vertex   9.255175e+001 -1.848280e+001 1.181102e-001
    endloop
  endfacet
  facet normal -1.276780e-015 -4.563650e-016 1.000000e+000
    outer loop
      vertex   9.237459e+001 -1.674873e+001 1.181102e-001
      vertex   9.237459e+001 -1.751495e+001 1.181102e-001
      vertex   9.247695e+001 -1.703511e+001 1.181102e-001
    endloop
  endfacet
  facet normal 6.657836e-016 -8.707632e-016 1.000000e+000
    outer loop
      vertex   9.247695e+001 -1.703511e+001 1.181102e-001
      vertex   9.237459e+001 -1.751495e+001 1.181102e-001
      vertex   9.247695e+001 -1.743669e+001 1.181102e-001
    endloop
  endfacet
  facet normal -6.657836e-016 8.707632e-016 1.000000e+000
    outer loop
      vertex   9.247695e+001 -1.743669e+001 1.181102e-001
      vertex   9.237459e+001 -1.751495e+001 1.181102e-001
      vertex   9.247695e+001 -1.783826e+001 1.181102e-001
    endloop
  endfacet
  facet normal -1.974651e-015 4.563650e-016 1.000000e+000
    outer loop
      vertex   9.247695e+001 -1.783826e+001 1.181102e-001
      vertex   9.237459e+001 -1.751495e+001 1.181102e-001
      vertex   9.237459e+001 -1.828117e+001 1.181102e-001
    endloop
  endfacet
  facet normal -0.000000e+000 0.000000e+000 1.000000e+000
    outer loop
      vertex   9.262656e+001 -1.783826e+001 1.181102e-001
      vertex   9.237459e+001 -1.828117e+001 1.181102e-001
      vertex   9.272892e+001 -1.828117e+001 1.181102e-001
    endloop
  endfacet
  facet normal 1.974651e-015 4.563650e-016 1.000000e+000
    outer loop
      vertex   9.272892e+001 -1.751495e+001 1.181102e-001
      vertex   9.262656e+001 -1.783826e+001 1.181102e-001
      vertex   9.272892e+001 -1.828117e+001 1.181102e-001
    endloop
  endfacet
  facet normal 6.657836e-016 8.707632e-016 1.000000e+000
    outer loop
      vertex   9.272892e+001 -1.751495e+001 1.181102e-001
      vertex   9.262656e+001 -1.743669e+001 1.181102e-001
      vertex   9.262656e+001 -1.783826e+001 1.181102e-001
    endloop
  endfacet
  facet normal -1.330882e-015 2.003772e-015 1.000000e+000
    outer loop
      vertex   9.191417e+001 -1.705453e+001 1.181102e-001
      vertex   9.237459e+001 -1.674873e+001 1.181102e-001
      vertex   9.201438e+001 -1.684619e+001 1.181102e-001
    endloop
  endfacet
  facet normal 0.000000e+000 0.000000e+000 1.000000e+000
    outer loop
      vertex   9.262656e+001 -1.783826e+001 1.181102e-001
      vertex   9.247695e+001 -1.783826e+001 1.181102e-001
      vertex   9.237459e+001 -1.828117e+001 1.181102e-001
    endloop
  endfacet
  facet normal -0.000000e+000 5.551115e-016 1.000000e+000
    outer loop
      vertex   9.140927e+001 -1.848280e+001 1.181102e-001
      vertex   9.198051e+001 -1.848280e+001 1.181102e-001
      vertex   9.184446e+001 -1.836469e+001 1.181102e-001
    endloop
  endfacet
  facet normal 2.732944e-015 -0.000000e+000 1.000000e+000
    outer loop
      vertex   9.470285e+001 -1.824820e+001 1.181102e-001
      vertex   9.470285e+001 -1.791801e+001 1.181102e-001
      vertex   9.459889e+001 -1.799075e+001 1.181102e-001
    endloop
  endfacet
  facet normal 1.330882e-015 2.003772e-015 1.000000e+000
    outer loop
      vertex   9.470285e+001 -1.791801e+001 1.181102e-001
      vertex   9.416508e+001 -1.756082e+001 1.181102e-001
      vertex   9.417451e+001 -1.770887e+001 1.181102e-001
    endloop
  endfacet
  facet normal 3.071265e-016 -4.624090e-016 1.000000e+000
    outer loop
      vertex   9.093963e+001 -1.756003e+001 1.181102e-001
      vertex   9.040225e+001 -1.791695e+001 1.181102e-001
      vertex   9.092900e+001 -1.770887e+001 1.181102e-001
    endloop
  endfacet
  facet normal -9.020118e-016 2.598617e-015 1.000000e+000
    outer loop
      vertex   9.092900e+001 -1.770887e+001 1.181102e-001
      vertex   9.040225e+001 -1.791695e+001 1.181102e-001
      vertex   9.050461e+001 -1.799075e+001 1.181102e-001
    endloop
  endfacet
  facet normal -2.775558e-015 0.000000e+000 1.000000e+000
    outer loop
      vertex   9.050461e+001 -1.799075e+001 1.181102e-001
      vertex   9.040225e+001 -1.791695e+001 1.181102e-001
      vertex   9.040225e+001 -1.824820e+001 1.181102e-001
    endloop
  endfacet
  facet normal -2.775558e-015 0.000000e+000 1.000000e+000
    outer loop
      vertex   9.050461e+001 -1.836469e+001 1.181102e-001
      vertex   9.050461e+001 -1.799075e+001 1.181102e-001
      vertex   9.040225e+001 -1.824820e+001 1.181102e-001
    endloop
  endfacet
  facet normal 0.000000e+000 -1.409099e-015 1.000000e+000
    outer loop
      vertex   9.272892e+001 -1.828117e+001 1.181102e-001
      vertex   9.237459e+001 -1.828117e+001 1.181102e-001
      vertex   9.255175e+001 -1.848280e+001 1.181102e-001
    endloop
  endfacet
  facet normal 0.000000e+000 0.000000e+000 -1.000000e+000
    outer loop
      vertex   9.083803e+001 -1.848280e+001 0.000000e+000
      vertex   9.026679e+001 -1.848280e+001 0.000000e+000
      vertex   9.050461e+001 -1.836469e+001 0.000000e+000
    endloop
  endfacet
  facet normal -0.000000e+000 0.000000e+000 -1.000000e+000
    outer loop
      vertex   9.095123e+001 -1.836469e+001 0.000000e+000
      vertex   9.083803e+001 -1.848280e+001 0.000000e+000
      vertex   9.050461e+001 -1.836469e+001 0.000000e+000
    endloop
  endfacet
  facet normal -0.000000e+000 -0.000000e+000 -1.000000e+000
    outer loop
      vertex   9.095123e+001 -1.836469e+001 0.000000e+000
      vertex   9.140927e+001 -1.848280e+001 0.000000e+000
      vertex   9.083803e+001 -1.848280e+001 0.000000e+000
    endloop
  endfacet
  facet normal 0.000000e+000 0.000000e+000 -1.000000e+000
    outer loop
      vertex   9.095123e+001 -1.836469e+001 0.000000e+000
      vertex   9.139784e+001 -1.836469e+001 0.000000e+000
      vertex   9.140927e+001 -1.848280e+001 0.000000e+000
    endloop
  endfacet
  facet normal 0.000000e+000 0.000000e+000 -1.000000e+000
    outer loop
      vertex   9.140927e+001 -1.848280e+001 0.000000e+000
      vertex   9.139784e+001 -1.836469e+001 0.000000e+000
      vertex   9.184446e+001 -1.836469e+001 0.000000e+000
    endloop
  endfacet
  facet normal 0.000000e+000 0.000000e+000 -1.000000e+000
    outer loop
      vertex   9.198051e+001 -1.848280e+001 0.000000e+000
      vertex   9.184446e+001 -1.836469e+001 0.000000e+000
      vertex   9.229107e+001 -1.836469e+001 0.000000e+000
    endloop
  endfacet
  facet normal 0.000000e+000 0.000000e+000 -1.000000e+000
    outer loop
      vertex   9.255175e+001 -1.848280e+001 0.000000e+000
      vertex   9.229107e+001 -1.836469e+001 0.000000e+000
      vertex   9.237459e+001 -1.828117e+001 0.000000e+000
    endloop
  endfacet
  facet normal 0.000000e+000 0.000000e+000 -1.000000e+000
    outer loop
      vertex   9.272892e+001 -1.828117e+001 0.000000e+000
      vertex   9.237459e+001 -1.828117e+001 0.000000e+000
      vertex   9.247695e+001 -1.783826e+001 0.000000e+000
    endloop
  endfacet
  facet normal -0.000000e+000 -0.000000e+000 -1.000000e+000
    outer loop
      vertex   9.262656e+001 -1.783826e+001 0.000000e+000
      vertex   9.272892e+001 -1.828117e+001 0.000000e+000
      vertex   9.247695e+001 -1.783826e+001 0.000000e+000
    endloop
  endfacet
  facet normal 0.000000e+000 0.000000e+000 -1.000000e+000
    outer loop
      vertex   9.262656e+001 -1.783826e+001 0.000000e+000
      vertex   9.272892e+001 -1.751495e+001 0.000000e+000
      vertex   9.272892e+001 -1.828117e+001 0.000000e+000
    endloop
  endfacet
  facet normal 0.000000e+000 0.000000e+000 -1.000000e+000
    outer loop
      vertex   9.262656e+001 -1.783826e+001 0.000000e+000
      vertex   9.262656e+001 -1.743669e+001 0.000000e+000
      vertex   9.272892e+001 -1.751495e+001 0.000000e+000
    endloop
  endfacet
  facet normal 0.000000e+000 0.000000e+000 -1.000000e+000
    outer loop
      vertex   9.272892e+001 -1.751495e+001 0.000000e+000
      vertex   9.262656e+001 -1.743669e+001 0.000000e+000
      vertex   9.262656e+001 -1.703511e+001 0.000000e+000
    endloop
  endfacet
  facet normal -0.000000e+000 0.000000e+000 -1.000000e+000
    outer loop
      vertex   9.272892e+001 -1.674873e+001 0.000000e+000
      vertex   9.262656e+001 -1.703511e+001 0.000000e+000
      vertex   9.237459e+001 -1.674873e+001 0.000000e+000
    endloop
  endfacet
  facet normal 0.000000e+000 0.000000e+000 -1.000000e+000
    outer loop
      vertex   9.255175e+001 -1.646847e+001 0.000000e+000
      vertex   9.237459e+001 -1.674873e+001 0.000000e+000
      vertex   9.201438e+001 -1.681773e+001 0.000000e+000
    endloop
  endfacet
  facet normal -0.000000e+000 -0.000000e+000 -1.000000e+000
    outer loop
      vertex   9.255175e+001 -1.646847e+001 0.000000e+000
      vertex   9.272892e+001 -1.674873e+001 0.000000e+000
      vertex   9.237459e+001 -1.674873e+001 0.000000e+000
    endloop
  endfacet
  facet normal -0.000000e+000 -0.000000e+000 -1.000000e+000
    outer loop
      vertex   9.255175e+001 -1.646847e+001 0.000000e+000
      vertex   9.308953e+001 -1.681799e+001 0.000000e+000
      vertex   9.272892e+001 -1.674873e+001 0.000000e+000
    endloop
  endfacet
  facet normal 0.000000e+000 0.000000e+000 -1.000000e+000
    outer loop
      vertex   9.272892e+001 -1.674873e+001 0.000000e+000
      vertex   9.308953e+001 -1.681799e+001 0.000000e+000
      vertex   9.318934e+001 -1.705453e+001 0.000000e+000
    endloop
  endfacet
  facet normal 0.000000e+000 0.000000e+000 -1.000000e+000
    outer loop
      vertex   9.318934e+001 -1.705453e+001 0.000000e+000
      vertex   9.308953e+001 -1.681799e+001 0.000000e+000
      vertex   9.331341e+001 -1.697205e+001 0.000000e+000
    endloop
  endfacet
  facet normal 0.000000e+000 0.000000e+000 -1.000000e+000
    outer loop
      vertex   9.362730e+001 -1.716751e+001 0.000000e+000
      vertex   9.331341e+001 -1.697205e+001 0.000000e+000
      vertex   9.308953e+001 -1.681799e+001 0.000000e+000
    endloop
  endfacet
  facet normal 0.000000e+000 0.000000e+000 -1.000000e+000
    outer loop
      vertex   9.362730e+001 -1.716751e+001 0.000000e+000
      vertex   9.318934e+001 -1.705453e+001 0.000000e+000
      vertex   9.331341e+001 -1.697205e+001 0.000000e+000
    endloop
  endfacet
  facet normal -0.000000e+000 -0.000000e+000 -1.000000e+000
    outer loop
      vertex   9.362730e+001 -1.716751e+001 0.000000e+000
      vertex   9.364975e+001 -1.736034e+001 0.000000e+000
      vertex   9.318934e+001 -1.705453e+001 0.000000e+000
    endloop
  endfacet
  facet normal -0.000000e+000 -0.000000e+000 -1.000000e+000
    outer loop
      vertex   9.362730e+001 -1.716751e+001 0.000000e+000
      vertex   9.375012e+001 -1.742700e+001 0.000000e+000
      vertex   9.364975e+001 -1.736034e+001 0.000000e+000
    endloop
  endfacet
  facet normal -0.000000e+000 -0.000000e+000 -1.000000e+000
    outer loop
      vertex   9.362730e+001 -1.716751e+001 0.000000e+000
      vertex   9.416508e+001 -1.751703e+001 0.000000e+000
      vertex   9.375012e+001 -1.742700e+001 0.000000e+000
    endloop
  endfacet
  facet normal -3.997272e-016 -1.842378e-015 -1.000000e+000
    outer loop
      vertex   9.375012e+001 -1.742700e+001 0.000000e+000
      vertex   9.416508e+001 -1.751703e+001 0.000000e+000
      vertex   9.417451e+001 -1.770887e+001 3.496765e-016
    endloop
  endfacet
  facet normal -1.223763e-015 -1.882886e-015 -1.000000e+000
    outer loop
      vertex   9.417451e+001 -1.770887e+001 3.496765e-016
      vertex   9.416508e+001 -1.751703e+001 0.000000e+000
      vertex   9.470285e+001 -1.786655e+001 0.000000e+000
    endloop
  endfacet
  facet normal 0.000000e+000 0.000000e+000 -1.000000e+000
    outer loop
      vertex   9.459889e+001 -1.799075e+001 0.000000e+000
      vertex   9.470285e+001 -1.786655e+001 0.000000e+000
      vertex   9.470285e+001 -1.824820e+001 0.000000e+000
    endloop
  endfacet
  facet normal 0.000000e+000 0.000000e+000 -1.000000e+000
    outer loop
      vertex   9.459889e+001 -1.836469e+001 0.000000e+000
      vertex   9.470285e+001 -1.824820e+001 0.000000e+000
      vertex   9.483671e+001 -1.848280e+001 0.000000e+000
    endloop
  endfacet
  facet normal 0.000000e+000 0.000000e+000 -1.000000e+000
    outer loop
      vertex   9.426547e+001 -1.848280e+001 0.000000e+000
      vertex   9.459889e+001 -1.836469e+001 0.000000e+000
      vertex   9.483671e+001 -1.848280e+001 0.000000e+000
    endloop
  endfacet
  facet normal 0.000000e+000 0.000000e+000 -1.000000e+000
    outer loop
      vertex   9.426547e+001 -1.848280e+001 0.000000e+000
      vertex   9.415228e+001 -1.836469e+001 0.000000e+000
      vertex   9.459889e+001 -1.836469e+001 0.000000e+000
    endloop
  endfacet
  facet normal 0.000000e+000 0.000000e+000 -1.000000e+000
    outer loop
      vertex   9.426547e+001 -1.848280e+001 0.000000e+000
      vertex   9.369423e+001 -1.848280e+001 0.000000e+000
      vertex   9.415228e+001 -1.836469e+001 0.000000e+000
    endloop
  endfacet
  facet normal -0.000000e+000 0.000000e+000 -1.000000e+000
    outer loop
      vertex   9.415228e+001 -1.836469e+001 0.000000e+000
      vertex   9.369423e+001 -1.848280e+001 0.000000e+000
      vertex   9.370566e+001 -1.836469e+001 0.000000e+000
    endloop
  endfacet
  facet normal -0.000000e+000 0.000000e+000 -1.000000e+000
    outer loop
      vertex   9.370566e+001 -1.836469e+001 0.000000e+000
      vertex   9.369423e+001 -1.848280e+001 0.000000e+000
      vertex   9.325905e+001 -1.836469e+001 0.000000e+000
    endloop
  endfacet
  facet normal -0.000000e+000 -0.000000e+000 -1.000000e+000
    outer loop
      vertex   9.325905e+001 -1.836469e+001 0.000000e+000
      vertex   9.369423e+001 -1.848280e+001 0.000000e+000
      vertex   9.312299e+001 -1.848280e+001 0.000000e+000
    endloop
  endfacet
  facet normal -0.000000e+000 -0.000000e+000 -1.000000e+000
    outer loop
      vertex   9.281243e+001 -1.836469e+001 0.000000e+000
      vertex   9.312299e+001 -1.848280e+001 0.000000e+000
      vertex   9.255175e+001 -1.848280e+001 0.000000e+000
    endloop
  endfacet
  facet normal -0.000000e+000 0.000000e+000 -1.000000e+000
    outer loop
      vertex   9.272892e+001 -1.828117e+001 0.000000e+000
      vertex   9.255175e+001 -1.848280e+001 0.000000e+000
      vertex   9.237459e+001 -1.828117e+001 0.000000e+000
    endloop
  endfacet
  facet normal 0.000000e+000 -0.000000e+000 -1.000000e+000
    outer loop
      vertex   9.272892e+001 -1.828117e+001 0.000000e+000
      vertex   9.281243e+001 -1.836469e+001 0.000000e+000
      vertex   9.255175e+001 -1.848280e+001 0.000000e+000
    endloop
  endfacet
  facet normal 7.594772e-016 7.594772e-016 -1.000000e+000
    outer loop
      vertex   9.272892e+001 -1.828117e+001 0.000000e+000
      vertex   9.318934e+001 -1.782076e+001 6.993531e-016
      vertex   9.281243e+001 -1.836469e+001 0.000000e+000
    endloop
  endfacet
  facet normal -4.186913e-015 4.186913e-015 -1.000000e+000
    outer loop
      vertex   9.281243e+001 -1.836469e+001 0.000000e+000
      vertex   9.318934e+001 -1.782076e+001 6.993531e-016
      vertex   9.328128e+001 -1.789585e+001 0.000000e+000
    endloop
  endfacet
  facet normal -4.869764e-015 3.350810e-015 -1.000000e+000
    outer loop
      vertex   9.328128e+001 -1.789585e+001 0.000000e+000
      vertex   9.318934e+001 -1.782076e+001 6.993531e-016
      vertex   9.364975e+001 -1.736034e+001 0.000000e+000
    endloop
  endfacet
  facet normal -0.000000e+000 0.000000e+000 -1.000000e+000
    outer loop
      vertex   9.375012e+001 -1.742700e+001 0.000000e+000
      vertex   9.328128e+001 -1.789585e+001 0.000000e+000
      vertex   9.364975e+001 -1.736034e+001 0.000000e+000
    endloop
  endfacet
  facet normal 0.000000e+000 0.000000e+000 -1.000000e+000
    outer loop
      vertex   9.229107e+001 -1.836469e+001 0.000000e+000
      vertex   9.182223e+001 -1.789585e+001 0.000000e+000
      vertex   9.237459e+001 -1.828117e+001 0.000000e+000
    endloop
  endfacet
  facet normal 0.000000e+000 0.000000e+000 -1.000000e+000
    outer loop
      vertex   9.237459e+001 -1.828117e+001 0.000000e+000
      vertex   9.182223e+001 -1.789585e+001 0.000000e+000
      vertex   9.191417e+001 -1.782076e+001 0.000000e+000
    endloop
  endfacet
  facet normal -0.000000e+000 0.000000e+000 -1.000000e+000
    outer loop
      vertex   9.191417e+001 -1.782076e+001 0.000000e+000
      vertex   9.182223e+001 -1.789585e+001 0.000000e+000
      vertex   9.145375e+001 -1.736034e+001 0.000000e+000
    endloop
  endfacet
  facet normal -0.000000e+000 -0.000000e+000 -1.000000e+000
    outer loop
      vertex   9.145375e+001 -1.736034e+001 0.000000e+000
      vertex   9.182223e+001 -1.789585e+001 0.000000e+000
      vertex   9.135338e+001 -1.742700e+001 0.000000e+000
    endloop
  endfacet
  facet normal 0.000000e+000 0.000000e+000 -1.000000e+000
    outer loop
      vertex   9.147700e+001 -1.716699e+001 0.000000e+000
      vertex   9.135338e+001 -1.742700e+001 0.000000e+000
      vertex   9.093963e+001 -1.751625e+001 0.000000e+000
    endloop
  endfacet
  facet normal 0.000000e+000 0.000000e+000 -1.000000e+000
    outer loop
      vertex   9.147700e+001 -1.716699e+001 0.000000e+000
      vertex   9.145375e+001 -1.736034e+001 0.000000e+000
      vertex   9.135338e+001 -1.742700e+001 0.000000e+000
    endloop
  endfacet
  facet normal 8.253960e-016 -9.924723e-017 -1.000000e+000
    outer loop
      vertex   9.147700e+001 -1.716699e+001 0.000000e+000
      vertex   9.191417e+001 -1.705453e+001 3.496765e-016
      vertex   9.145375e+001 -1.736034e+001 0.000000e+000
    endloop
  endfacet
  facet normal 1.363002e-015 -2.189147e-015 -1.000000e+000
    outer loop
      vertex   9.147700e+001 -1.716699e+001 0.000000e+000
      vertex   9.179010e+001 -1.697205e+001 0.000000e+000
      vertex   9.191417e+001 -1.705453e+001 3.496765e-016
    endloop
  endfacet
  facet normal 0.000000e+000 -0.000000e+000 -1.000000e+000
    outer loop
      vertex   9.147700e+001 -1.716699e+001 0.000000e+000
      vertex   9.201438e+001 -1.681773e+001 0.000000e+000
      vertex   9.179010e+001 -1.697205e+001 0.000000e+000
    endloop
  endfacet
  facet normal 1.433426e-015 -2.083217e-015 -1.000000e+000
    outer loop
      vertex   9.179010e+001 -1.697205e+001 0.000000e+000
      vertex   9.201438e+001 -1.681773e+001 0.000000e+000
      vertex   9.191417e+001 -1.705453e+001 3.496765e-016
    endloop
  endfacet
  facet normal 3.078045e-016 -1.606897e-015 -1.000000e+000
    outer loop
      vertex   9.191417e+001 -1.705453e+001 3.496765e-016
      vertex   9.201438e+001 -1.681773e+001 0.000000e+000
      vertex   9.237459e+001 -1.674873e+001 0.000000e+000
    endloop
  endfacet
  facet normal 3.963093e-016 -1.837232e-015 -1.000000e+000
    outer loop
      vertex   9.135338e+001 -1.742700e+001 0.000000e+000
      vertex   9.092900e+001 -1.770887e+001 3.496765e-016
      vertex   9.093963e+001 -1.751625e+001 0.000000e+000
    endloop
  endfacet
  facet normal 1.223763e-015 -1.882886e-015 -1.000000e+000
    outer loop
      vertex   9.093963e+001 -1.751625e+001 0.000000e+000
      vertex   9.092900e+001 -1.770887e+001 3.496765e-016
      vertex   9.040225e+001 -1.786552e+001 0.000000e+000
    endloop
  endfacet
  facet normal 5.340319e-016 4.365128e-016 -1.000000e+000
    outer loop
      vertex   9.040225e+001 -1.786552e+001 0.000000e+000
      vertex   9.092900e+001 -1.770887e+001 3.496765e-016
      vertex   9.050461e+001 -1.799075e+001 0.000000e+000
    endloop
  endfacet
  facet normal 0.000000e+000 0.000000e+000 -1.000000e+000
    outer loop
      vertex   9.040225e+001 -1.824820e+001 0.000000e+000
      vertex   9.050461e+001 -1.799075e+001 0.000000e+000
      vertex   9.050461e+001 -1.836469e+001 0.000000e+000
    endloop
  endfacet
  facet normal 0.000000e+000 0.000000e+000 -1.000000e+000
    outer loop
      vertex   9.026679e+001 -1.848280e+001 0.000000e+000
      vertex   9.040225e+001 -1.824820e+001 0.000000e+000
      vertex   9.050461e+001 -1.836469e+001 0.000000e+000
    endloop
  endfacet
  facet normal 0.000000e+000 0.000000e+000 -1.000000e+000
    outer loop
      vertex   9.026679e+001 -1.848280e+001 0.000000e+000
      vertex   9.026679e+001 -1.824820e+001 0.000000e+000
      vertex   9.040225e+001 -1.824820e+001 0.000000e+000
    endloop
  endfacet
  facet normal -0.000000e+000 -0.000000e+000 -1.000000e+000
    outer loop
      vertex   9.272892e+001 -1.674873e+001 0.000000e+000
      vertex   9.272892e+001 -1.751495e+001 0.000000e+000
      vertex   9.262656e+001 -1.703511e+001 0.000000e+000
    endloop
  endfacet
  facet normal -5.295459e-016 4.432669e-016 -1.000000e+000
    outer loop
      vertex   9.459889e+001 -1.799075e+001 0.000000e+000
      vertex   9.417451e+001 -1.770887e+001 3.496765e-016
      vertex   9.470285e+001 -1.786655e+001 0.000000e+000
    endloop
  endfacet
  facet normal 0.000000e+000 -0.000000e+000 -1.000000e+000
    outer loop
      vertex   9.281243e+001 -1.836469e+001 0.000000e+000
      vertex   9.325905e+001 -1.836469e+001 0.000000e+000
      vertex   9.312299e+001 -1.848280e+001 0.000000e+000
    endloop
  endfacet
  facet normal 0.000000e+000 0.000000e+000 -1.000000e+000
    outer loop
      vertex   9.459889e+001 -1.836469e+001 0.000000e+000
      vertex   9.459889e+001 -1.799075e+001 0.000000e+000
      vertex   9.470285e+001 -1.824820e+001 0.000000e+000
    endloop
  endfacet
  facet normal 0.000000e+000 0.000000e+000 -1.000000e+000
    outer loop
      vertex   9.237459e+001 -1.828117e+001 0.000000e+000
      vertex   9.237459e+001 -1.751495e+001 0.000000e+000
      vertex   9.247695e+001 -1.783826e+001 0.000000e+000
    endloop
  endfacet
  facet normal 0.000000e+000 0.000000e+000 -1.000000e+000
    outer loop
      vertex   9.247695e+001 -1.783826e+001 0.000000e+000
      vertex   9.237459e+001 -1.751495e+001 0.000000e+000
      vertex   9.247695e+001 -1.743669e+001 0.000000e+000
    endloop
  endfacet
  facet normal -0.000000e+000 0.000000e+000 -1.000000e+000
    outer loop
      vertex   9.247695e+001 -1.743669e+001 0.000000e+000
      vertex   9.237459e+001 -1.751495e+001 0.000000e+000
      vertex   9.247695e+001 -1.703511e+001 0.000000e+000
    endloop
  endfacet
  facet normal -0.000000e+000 0.000000e+000 -1.000000e+000
    outer loop
      vertex   9.247695e+001 -1.703511e+001 0.000000e+000
      vertex   9.237459e+001 -1.751495e+001 0.000000e+000
      vertex   9.237459e+001 -1.674873e+001 0.000000e+000
    endloop
  endfacet
  facet normal 0.000000e+000 0.000000e+000 -1.000000e+000
    outer loop
      vertex   9.262656e+001 -1.703511e+001 0.000000e+000
      vertex   9.247695e+001 -1.703511e+001 0.000000e+000
      vertex   9.237459e+001 -1.674873e+001 0.000000e+000
    endloop
  endfacet
  facet normal 0.000000e+000 0.000000e+000 -1.000000e+000
    outer loop
      vertex   9.255175e+001 -1.848280e+001 0.000000e+000
      vertex   9.198051e+001 -1.848280e+001 0.000000e+000
      vertex   9.229107e+001 -1.836469e+001 0.000000e+000
    endloop
  endfacet
  facet normal 0.000000e+000 0.000000e+000 -1.000000e+000
    outer loop
      vertex   9.198051e+001 -1.848280e+001 0.000000e+000
      vertex   9.140927e+001 -1.848280e+001 0.000000e+000
      vertex   9.184446e+001 -1.836469e+001 0.000000e+000
    endloop
  endfacet
  facet normal 0.000000e+000 0.000000e+000 -1.000000e+000
    outer loop
      vertex   9.040225e+001 -1.824820e+001 0.000000e+000
      vertex   9.040225e+001 -1.786552e+001 0.000000e+000
      vertex   9.050461e+001 -1.799075e+001 0.000000e+000
    endloop
  endfacet
  facet normal 0.000000e+000 0.000000e+000 -1.000000e+000
    outer loop
      vertex   9.470285e+001 -1.824820e+001 0.000000e+000
      vertex   9.483671e+001 -1.824820e+001 0.000000e+000
      vertex   9.483671e+001 -1.848280e+001 0.000000e+000
    endloop
  endfacet
  facet normal 0.000000e+000 -1.000000e+000 0.000000e+000
    outer loop
      vertex   9.026679e+001 -1.848280e+001 0.000000e+000
      vertex   9.083803e+001 -1.848280e+001 0.000000e+000
      vertex   9.026679e+001 -1.848280e+001 1.181102e-001
    endloop
  endfacet
  facet normal 0.000000e+000 -1.000000e+000 0.000000e+000
    outer loop
      vertex   9.026679e+001 -1.848280e+001 1.181102e-001
      vertex   9.083803e+001 -1.848280e+001 0.000000e+000
      vertex   9.083803e+001 -1.848280e+001 1.181102e-001
    endloop
  endfacet
  facet normal 0.000000e+000 -1.000000e+000 0.000000e+000
    outer loop
      vertex   9.083803e+001 -1.848280e+001 1.181102e-001
      vertex   9.083803e+001 -1.848280e+001 0.000000e+000
      vertex   9.140927e+001 -1.848280e+001 0.000000e+000
    endloop
  endfacet
  facet normal 0.000000e+000 -1.000000e+000 0.000000e+000
    outer loop
      vertex   9.140927e+001 -1.848280e+001 1.181102e-001
      vertex   9.140927e+001 -1.848280e+001 0.000000e+000
      vertex   9.198051e+001 -1.848280e+001 0.000000e+000
    endloop
  endfacet
  facet normal 0.000000e+000 -1.000000e+000 0.000000e+000
    outer loop
      vertex   9.198051e+001 -1.848280e+001 1.181102e-001
      vertex   9.198051e+001 -1.848280e+001 0.000000e+000
      vertex   9.255175e+001 -1.848280e+001 0.000000e+000
    endloop
  endfacet
  facet normal 0.000000e+000 -1.000000e+000 0.000000e+000
    outer loop
      vertex   9.255175e+001 -1.848280e+001 1.181102e-001
      vertex   9.255175e+001 -1.848280e+001 0.000000e+000
      vertex   9.312299e+001 -1.848280e+001 0.000000e+000
    endloop
  endfacet
  facet normal 0.000000e+000 -1.000000e+000 0.000000e+000
    outer loop
      vertex   9.312299e+001 -1.848280e+001 1.181102e-001
      vertex   9.312299e+001 -1.848280e+001 0.000000e+000
      vertex   9.369423e+001 -1.848280e+001 0.000000e+000
    endloop
  endfacet
  facet normal 0.000000e+000 -1.000000e+000 0.000000e+000
    outer loop
      vertex   9.369423e+001 -1.848280e+001 1.181102e-001
      vertex   9.369423e+001 -1.848280e+001 0.000000e+000
      vertex   9.426547e+001 -1.848280e+001 0.000000e+000
    endloop
  endfacet
  facet normal 0.000000e+000 -1.000000e+000 0.000000e+000
    outer loop
      vertex   9.426547e+001 -1.848280e+001 1.181102e-001
      vertex   9.426547e+001 -1.848280e+001 0.000000e+000
      vertex   9.483671e+001 -1.848280e+001 0.000000e+000
    endloop
  endfacet
  facet normal -0.000000e+000 -1.000000e+000 -0.000000e+000
    outer loop
      vertex   9.483671e+001 -1.848280e+001 1.181102e-001
      vertex   9.426547e+001 -1.848280e+001 1.181102e-001
      vertex   9.483671e+001 -1.848280e+001 0.000000e+000
    endloop
  endfacet
  facet normal -0.000000e+000 -1.000000e+000 -0.000000e+000
    outer loop
      vertex   9.426547e+001 -1.848280e+001 1.181102e-001
      vertex   9.369423e+001 -1.848280e+001 1.181102e-001
      vertex   9.426547e+001 -1.848280e+001 0.000000e+000
    endloop
  endfacet
  facet normal -0.000000e+000 -1.000000e+000 -0.000000e+000
    outer loop
      vertex   9.369423e+001 -1.848280e+001 1.181102e-001
      vertex   9.312299e+001 -1.848280e+001 1.181102e-001
      vertex   9.369423e+001 -1.848280e+001 0.000000e+000
    endloop
  endfacet
  facet normal -0.000000e+000 -1.000000e+000 -0.000000e+000
    outer loop
      vertex   9.312299e+001 -1.848280e+001 1.181102e-001
      vertex   9.255175e+001 -1.848280e+001 1.181102e-001
      vertex   9.312299e+001 -1.848280e+001 0.000000e+000
    endloop
  endfacet
  facet normal -0.000000e+000 -1.000000e+000 -0.000000e+000
    outer loop
      vertex   9.255175e+001 -1.848280e+001 1.181102e-001
      vertex   9.198051e+001 -1.848280e+001 1.181102e-001
      vertex   9.255175e+001 -1.848280e+001 0.000000e+000
    endloop
  endfacet
  facet normal -0.000000e+000 -1.000000e+000 -0.000000e+000
    outer loop
      vertex   9.198051e+001 -1.848280e+001 1.181102e-001
      vertex   9.140927e+001 -1.848280e+001 1.181102e-001
      vertex   9.198051e+001 -1.848280e+001 0.000000e+000
    endloop
  endfacet
  facet normal -0.000000e+000 -1.000000e+000 -0.000000e+000
    outer loop
      vertex   9.140927e+001 -1.848280e+001 1.181102e-001
      vertex   9.083803e+001 -1.848280e+001 1.181102e-001
      vertex   9.140927e+001 -1.848280e+001 0.000000e+000
    endloop
  endfacet
  facet normal -1.000000e+000 0.000000e+000 0.000000e+000
    outer loop
      vertex   9.026679e+001 -1.824820e+001 0.000000e+000
      vertex   9.026679e+001 -1.848280e+001 0.000000e+000
      vertex   9.026679e+001 -1.824820e+001 1.181102e-001
    endloop
  endfacet
  facet normal -1.000000e+000 -0.000000e+000 0.000000e+000
    outer loop
      vertex   9.026679e+001 -1.824820e+001 1.181102e-001
      vertex   9.026679e+001 -1.848280e+001 0.000000e+000
      vertex   9.026679e+001 -1.848280e+001 1.181102e-001
    endloop
  endfacet
  facet normal 0.000000e+000 1.000000e+000 -0.000000e+000
    outer loop
      vertex   9.040225e+001 -1.824820e+001 0.000000e+000
      vertex   9.026679e+001 -1.824820e+001 0.000000e+000
      vertex   9.040225e+001 -1.824820e+001 1.181102e-001
    endloop
  endfacet
  facet normal 0.000000e+000 1.000000e+000 -0.000000e+000
    outer loop
      vertex   9.040225e+001 -1.824820e+001 1.181102e-001
      vertex   9.026679e+001 -1.824820e+001 0.000000e+000
      vertex   9.026679e+001 -1.824820e+001 1.181102e-001
    endloop
  endfacet
  facet normal -1.000000e+000 0.000000e+000 0.000000e+000
    outer loop
      vertex   9.040225e+001 -1.786552e+001 0.000000e+000
      vertex   9.040225e+001 -1.824820e+001 0.000000e+000
      vertex   9.040225e+001 -1.791695e+001 1.181102e-001
    endloop
  endfacet
  facet normal -1.000000e+000 -0.000000e+000 0.000000e+000
    outer loop
      vertex   9.040225e+001 -1.791695e+001 1.181102e-001
      vertex   9.040225e+001 -1.824820e+001 0.000000e+000
      vertex   9.040225e+001 -1.824820e+001 1.181102e-001
    endloop
  endfacet
  facet normal -5.391057e-001 8.294700e-001 1.460979e-001
    outer loop
      vertex   9.255175e+001 -1.646847e+001 0.000000e+000
      vertex   9.201438e+001 -1.681773e+001 0.000000e+000
      vertex   9.255175e+001 -1.648927e+001 1.181102e-001
    endloop
  endfacet
  facet normal -5.424506e-001 8.167124e-001 1.967948e-001
    outer loop
      vertex   9.255175e+001 -1.648927e+001 1.181102e-001
      vertex   9.201438e+001 -1.681773e+001 0.000000e+000
      vertex   9.201438e+001 -1.684619e+001 1.181102e-001
    endloop
  endfacet
  facet normal -5.341601e-001 8.218607e-001 1.980353e-001
    outer loop
      vertex   9.201438e+001 -1.684619e+001 1.181102e-001
      vertex   9.201438e+001 -1.681773e+001 0.000000e+000
      vertex   9.147700e+001 -1.716699e+001 0.000000e+000
    endloop
  endfacet
  facet normal -5.278787e-001 8.121961e-001 2.483577e-001
    outer loop
      vertex   9.147700e+001 -1.720311e+001 1.181102e-001
      vertex   9.147700e+001 -1.716699e+001 0.000000e+000
      vertex   9.093963e+001 -1.751625e+001 0.000000e+000
    endloop
  endfacet
  facet normal -5.204061e-001 8.006986e-001 2.967478e-001
    outer loop
      vertex   9.093963e+001 -1.756003e+001 1.181102e-001
      vertex   9.093963e+001 -1.751625e+001 0.000000e+000
      vertex   9.040225e+001 -1.786552e+001 0.000000e+000
    endloop
  endfacet
  facet normal -5.201125e-001 7.830801e-001 3.409819e-001
    outer loop
      vertex   9.040225e+001 -1.791695e+001 1.181102e-001
      vertex   9.093963e+001 -1.756003e+001 1.181102e-001
      vertex   9.040225e+001 -1.786552e+001 0.000000e+000
    endloop
  endfacet
  facet normal -5.286509e-001 7.959356e-001 2.949826e-001
    outer loop
      vertex   9.093963e+001 -1.756003e+001 1.181102e-001
      vertex   9.147700e+001 -1.720311e+001 1.181102e-001
      vertex   9.093963e+001 -1.751625e+001 0.000000e+000
    endloop
  endfacet
  facet normal -5.361500e-001 8.072262e-001 2.468380e-001
    outer loop
      vertex   9.147700e+001 -1.720311e+001 1.181102e-001
      vertex   9.201438e+001 -1.684619e+001 1.181102e-001
      vertex   9.147700e+001 -1.716699e+001 0.000000e+000
    endloop
  endfacet
  facet normal 5.118757e-001 7.875737e-001 3.430902e-001
    outer loop
      vertex   9.470285e+001 -1.786655e+001 0.000000e+000
      vertex   9.416508e+001 -1.751703e+001 0.000000e+000
      vertex   9.470285e+001 -1.791801e+001 1.181102e-001
    endloop
  endfacet
  facet normal 5.286330e-001 7.959086e-001 2.950875e-001
    outer loop
      vertex   9.470285e+001 -1.791801e+001 1.181102e-001
      vertex   9.416508e+001 -1.751703e+001 0.000000e+000
      vertex   9.416508e+001 -1.756082e+001 1.181102e-001
    endloop
  endfacet
  facet normal 5.203882e-001 8.006711e-001 2.968532e-001
    outer loop
      vertex   9.416508e+001 -1.756082e+001 1.181102e-001
      vertex   9.416508e+001 -1.751703e+001 0.000000e+000
      vertex   9.362730e+001 -1.716751e+001 0.000000e+000
    endloop
  endfacet
  facet normal 5.278685e-001 8.121803e-001 2.484311e-001
    outer loop
      vertex   9.362730e+001 -1.720364e+001 1.181102e-001
      vertex   9.362730e+001 -1.716751e+001 0.000000e+000
      vertex   9.308953e+001 -1.681799e+001 0.000000e+000
    endloop
  endfacet
  facet normal 5.341559e-001 8.218542e-001 1.980733e-001
    outer loop
      vertex   9.308953e+001 -1.684645e+001 1.181102e-001
      vertex   9.308953e+001 -1.681799e+001 0.000000e+000
      vertex   9.255175e+001 -1.646847e+001 0.000000e+000
    endloop
  endfacet
  facet normal 5.474094e-001 8.241783e-001 1.451658e-001
    outer loop
      vertex   9.255175e+001 -1.648927e+001 1.181102e-001
      vertex   9.308953e+001 -1.684645e+001 1.181102e-001
      vertex   9.255175e+001 -1.646847e+001 0.000000e+000
    endloop
  endfacet
  facet normal 5.424464e-001 8.167061e-001 1.968326e-001
    outer loop
      vertex   9.308953e+001 -1.684645e+001 1.181102e-001
      vertex   9.362730e+001 -1.720364e+001 1.181102e-001
      vertex   9.308953e+001 -1.681799e+001 0.000000e+000
    endloop
  endfacet
  facet normal 5.361397e-001 8.072107e-001 2.469110e-001
    outer loop
      vertex   9.362730e+001 -1.720364e+001 1.181102e-001
      vertex   9.416508e+001 -1.756082e+001 1.181102e-001
      vertex   9.362730e+001 -1.716751e+001 0.000000e+000
    endloop
  endfacet
  facet normal 1.000000e+000 0.000000e+000 -0.000000e+000
    outer loop
      vertex   9.470285e+001 -1.824820e+001 0.000000e+000
      vertex   9.470285e+001 -1.786655e+001 0.000000e+000
      vertex   9.470285e+001 -1.824820e+001 1.181102e-001
    endloop
  endfacet
  facet normal 1.000000e+000 -0.000000e+000 -0.000000e+000
    outer loop
      vertex   9.470285e+001 -1.824820e+001 1.181102e-001
      vertex   9.470285e+001 -1.786655e+001 0.000000e+000
      vertex   9.470285e+001 -1.791801e+001 1.181102e-001
    endloop
  endfacet
  facet normal 0.000000e+000 1.000000e+000 -0.000000e+000
    outer loop
      vertex   9.483671e+001 -1.824820e+001 0.000000e+000
      vertex   9.470285e+001 -1.824820e+001 0.000000e+000
      vertex   9.483671e+001 -1.824820e+001 1.181102e-001
    endloop
  endfacet
  facet normal 0.000000e+000 1.000000e+000 -0.000000e+000
    outer loop
      vertex   9.483671e+001 -1.824820e+001 1.181102e-001
      vertex   9.470285e+001 -1.824820e+001 0.000000e+000
      vertex   9.470285e+001 -1.824820e+001 1.181102e-001
    endloop
  endfacet
  facet normal 1.000000e+000 0.000000e+000 -0.000000e+000
    outer loop
      vertex   9.483671e+001 -1.848280e+001 0.000000e+000
      vertex   9.483671e+001 -1.824820e+001 0.000000e+000
      vertex   9.483671e+001 -1.848280e+001 1.181102e-001
    endloop
  endfacet
  facet normal 1.000000e+000 -0.000000e+000 0.000000e+000
    outer loop
      vertex   9.483671e+001 -1.848280e+001 1.181102e-001
      vertex   9.483671e+001 -1.824820e+001 0.000000e+000
      vertex   9.483671e+001 -1.824820e+001 1.181102e-001
    endloop
  endfacet
endsolid
