solid ascii
  facet normal 9.253735e-001 0.000000e+000 3.790565e-001
    outer loop
      vertex   1.819472e+003 3.772658e+002 -1.731075e+001
      vertex   1.819472e+003 3.705139e+002 -1.731075e+001
      vertex   1.819867e+003 3.772665e+002 -1.827500e+001
    endloop
  endfacet
  facet normal 9.253735e-001 -1.563011e-013 3.790565e-001
    outer loop
      vertex   1.819867e+003 3.772665e+002 -1.827500e+001
      vertex   1.819472e+003 3.705139e+002 -1.731075e+001
      vertex   1.819867e+003 3.705142e+002 -1.827500e+001
    endloop
  endfacet
  facet normal 9.253735e-001 -1.563017e-013 3.790565e-001
    outer loop
      vertex   1.823610e+003 3.705177e+002 -2.741250e+001
      vertex   1.819867e+003 3.772665e+002 -1.827500e+001
      vertex   1.819867e+003 3.705142e+002 -1.827500e+001
    endloop
  endfacet
  facet normal 9.253735e-001 -1.167852e-013 3.790565e-001
    outer loop
      vertex   1.823610e+003 3.705177e+002 -2.741250e+001
      vertex   1.823610e+003 3.772739e+002 -2.741250e+001
      vertex   1.819867e+003 3.772665e+002 -1.827500e+001
    endloop
  endfacet
  facet normal 9.253735e-001 -1.168251e-013 3.790565e-001
    outer loop
      vertex   1.823610e+003 3.705177e+002 -2.741250e+001
      vertex   1.827352e+003 3.705212e+002 -3.655000e+001
      vertex   1.823610e+003 3.772739e+002 -2.741250e+001
    endloop
  endfacet
  facet normal 9.253735e-001 -1.556243e-013 3.790565e-001
    outer loop
      vertex   1.823610e+003 3.772739e+002 -2.741250e+001
      vertex   1.827352e+003 3.705212e+002 -3.655000e+001
      vertex   1.827352e+003 3.772812e+002 -3.655000e+001
    endloop
  endfacet
  facet normal 9.253735e-001 -1.556243e-013 3.790565e-001
    outer loop
      vertex   1.827352e+003 3.772812e+002 -3.655000e+001
      vertex   1.827352e+003 3.705212e+002 -3.655000e+001
      vertex   1.831095e+003 3.705246e+002 -4.568750e+001
    endloop
  endfacet
  facet normal 9.253735e-001 -3.987925e-014 3.790565e-001
    outer loop
      vertex   1.831095e+003 3.772886e+002 -4.568750e+001
      vertex   1.831095e+003 3.705246e+002 -4.568750e+001
      vertex   1.834838e+003 3.705281e+002 -5.482500e+001
    endloop
  endfacet
  facet normal 9.253735e-001 -1.165845e-013 3.790565e-001
    outer loop
      vertex   1.834838e+003 3.772959e+002 -5.482500e+001
      vertex   1.834838e+003 3.705281e+002 -5.482500e+001
      vertex   1.838581e+003 3.705316e+002 -6.396250e+001
    endloop
  endfacet
  facet normal 9.253735e-001 -7.867283e-014 3.790565e-001
    outer loop
      vertex   1.838581e+003 3.773032e+002 -6.396250e+001
      vertex   1.838581e+003 3.705316e+002 -6.396250e+001
      vertex   1.842324e+003 3.705350e+002 -7.310000e+001
    endloop
  endfacet
  facet normal 9.253735e-001 -3.931392e-014 3.790565e-001
    outer loop
      vertex   1.842324e+003 3.773106e+002 -7.310000e+001
      vertex   1.842324e+003 3.705350e+002 -7.310000e+001
      vertex   1.846067e+003 3.705385e+002 -8.223750e+001
    endloop
  endfacet
  facet normal 9.253735e-001 -7.758968e-014 3.790565e-001
    outer loop
      vertex   1.846067e+003 3.773179e+002 -8.223750e+001
      vertex   1.846067e+003 3.705385e+002 -8.223750e+001
      vertex   1.849810e+003 3.705420e+002 -9.137500e+001
    endloop
  endfacet
  facet normal 9.253735e-001 9.926424e-016 3.790565e-001
    outer loop
      vertex   1.849810e+003 3.773253e+002 -9.137500e+001
      vertex   1.849810e+003 3.705420e+002 -9.137500e+001
      vertex   1.853553e+003 3.705454e+002 -1.005125e+002
    endloop
  endfacet
  facet normal 9.253735e-001 -7.750112e-014 3.790565e-001
    outer loop
      vertex   1.853553e+003 3.773326e+002 -1.005125e+002
      vertex   1.853553e+003 3.705454e+002 -1.005125e+002
      vertex   1.857296e+003 3.705489e+002 -1.096500e+002
    endloop
  endfacet
  facet normal 9.253735e-001 0.000000e+000 3.790565e-001
    outer loop
      vertex   1.857296e+003 3.773399e+002 -1.096500e+002
      vertex   1.857296e+003 3.705489e+002 -1.096500e+002
      vertex   1.861039e+003 3.705523e+002 -1.187875e+002
    endloop
  endfacet
  facet normal 9.253735e-001 -3.969735e-014 3.790565e-001
    outer loop
      vertex   1.861039e+003 3.773473e+002 -1.187875e+002
      vertex   1.861039e+003 3.705523e+002 -1.187875e+002
      vertex   1.864782e+003 3.705558e+002 -1.279250e+002
    endloop
  endfacet
  facet normal 9.253735e-001 3.670360e-014 3.790565e-001
    outer loop
      vertex   1.864782e+003 3.773546e+002 -1.279250e+002
      vertex   1.864782e+003 3.705558e+002 -1.279250e+002
      vertex   1.868525e+003 3.705593e+002 -1.370625e+002
    endloop
  endfacet
  facet normal 9.253735e-001 -7.831454e-014 3.790565e-001
    outer loop
      vertex   1.868525e+003 3.773619e+002 -1.370625e+002
      vertex   1.868525e+003 3.705593e+002 -1.370625e+002
      vertex   1.869913e+003 3.705606e+002 -1.404502e+002
    endloop
  endfacet
  facet normal 9.253735e-001 0.000000e+000 3.790565e-001
    outer loop
      vertex   1.869913e+003 3.773647e+002 -1.404502e+002
      vertex   1.868525e+003 3.773619e+002 -1.370625e+002
      vertex   1.869913e+003 3.705606e+002 -1.404502e+002
    endloop
  endfacet
  facet normal 9.253735e-001 -7.834284e-014 3.790565e-001
    outer loop
      vertex   1.868525e+003 3.773619e+002 -1.370625e+002
      vertex   1.864782e+003 3.773546e+002 -1.279250e+002
      vertex   1.868525e+003 3.705593e+002 -1.370625e+002
    endloop
  endfacet
  facet normal 9.253735e-001 3.671310e-014 3.790565e-001
    outer loop
      vertex   1.864782e+003 3.773546e+002 -1.279250e+002
      vertex   1.861039e+003 3.773473e+002 -1.187875e+002
      vertex   1.864782e+003 3.705558e+002 -1.279250e+002
    endloop
  endfacet
  facet normal 9.253735e-001 -3.971245e-014 3.790565e-001
    outer loop
      vertex   1.861039e+003 3.773473e+002 -1.187875e+002
      vertex   1.857296e+003 3.773399e+002 -1.096500e+002
      vertex   1.861039e+003 3.705523e+002 -1.187875e+002
    endloop
  endfacet
  facet normal 9.253735e-001 0.000000e+000 3.790565e-001
    outer loop
      vertex   1.857296e+003 3.773399e+002 -1.096500e+002
      vertex   1.853553e+003 3.773326e+002 -1.005125e+002
      vertex   1.857296e+003 3.705489e+002 -1.096500e+002
    endloop
  endfacet
  facet normal 9.253735e-001 -7.752763e-014 3.790565e-001
    outer loop
      vertex   1.853553e+003 3.773326e+002 -1.005125e+002
      vertex   1.849810e+003 3.773253e+002 -9.137500e+001
      vertex   1.853553e+003 3.705454e+002 -1.005125e+002
    endloop
  endfacet
  facet normal 9.253735e-001 9.116355e-016 3.790565e-001
    outer loop
      vertex   1.849810e+003 3.773253e+002 -9.137500e+001
      vertex   1.846067e+003 3.773179e+002 -8.223750e+001
      vertex   1.849810e+003 3.705420e+002 -9.137500e+001
    endloop
  endfacet
  facet normal 9.253735e-001 -7.761622e-014 3.790565e-001
    outer loop
      vertex   1.846067e+003 3.773179e+002 -8.223750e+001
      vertex   1.842324e+003 3.773106e+002 -7.310000e+001
      vertex   1.846067e+003 3.705385e+002 -8.223750e+001
    endloop
  endfacet
  facet normal 9.253735e-001 -3.924516e-014 3.790565e-001
    outer loop
      vertex   1.842324e+003 3.773106e+002 -7.310000e+001
      vertex   1.838581e+003 3.773032e+002 -6.396250e+001
      vertex   1.842324e+003 3.705350e+002 -7.310000e+001
    endloop
  endfacet
  facet normal 9.253735e-001 -7.870127e-014 3.790565e-001
    outer loop
      vertex   1.838581e+003 3.773032e+002 -6.396250e+001
      vertex   1.834838e+003 3.772959e+002 -5.482500e+001
      vertex   1.838581e+003 3.705316e+002 -6.396250e+001
    endloop
  endfacet
  facet normal 9.253735e-001 -1.166243e-013 3.790565e-001
    outer loop
      vertex   1.834838e+003 3.772959e+002 -5.482500e+001
      vertex   1.831095e+003 3.772886e+002 -4.568750e+001
      vertex   1.834838e+003 3.705281e+002 -5.482500e+001
    endloop
  endfacet
  facet normal 9.253735e-001 -3.989442e-014 3.790565e-001
    outer loop
      vertex   1.831095e+003 3.772886e+002 -4.568750e+001
      vertex   1.827352e+003 3.772812e+002 -3.655000e+001
      vertex   1.831095e+003 3.705246e+002 -4.568750e+001
    endloop
  endfacet
  facet normal 3.790565e-001 0.000000e+000 -9.253735e-001
    outer loop
      vertex   1.852785e+003 3.730579e+002 -3.664716e+000
      vertex   1.852785e+003 3.724213e+002 -3.664716e+000
      vertex   1.843352e+003 3.738170e+002 -7.528857e+000
    endloop
  endfacet
  facet normal 3.790565e-001 -1.008448e-013 -9.253735e-001
    outer loop
      vertex   1.843352e+003 3.738170e+002 -7.528857e+000
      vertex   1.852785e+003 3.724213e+002 -3.664716e+000
      vertex   1.843392e+003 3.718293e+002 -7.512311e+000
    endloop
  endfacet
  facet normal 3.790565e-001 3.286388e-015 -9.253735e-001
    outer loop
      vertex   1.819472e+003 3.705139e+002 -1.731075e+001
      vertex   1.824567e+003 3.764200e+002 -1.522360e+001
      vertex   1.824598e+003 3.707913e+002 -1.521096e+001
    endloop
  endfacet
  facet normal 3.790565e-001 0.000000e+000 -9.253735e-001
    outer loop
      vertex   1.819472e+003 3.705139e+002 -1.731075e+001
      vertex   1.819472e+003 3.772658e+002 -1.731075e+001
      vertex   1.824567e+003 3.764200e+002 -1.522360e+001
    endloop
  endfacet
  facet normal 3.790565e-001 3.310373e-015 -9.253735e-001
    outer loop
      vertex   1.824567e+003 3.764200e+002 -1.522360e+001
      vertex   1.833948e+003 3.749874e+002 -1.138083e+001
      vertex   1.824598e+003 3.707913e+002 -1.521096e+001
    endloop
  endfacet
  facet normal 3.790565e-001 -6.164422e-015 -9.253735e-001
    outer loop
      vertex   1.824598e+003 3.707913e+002 -1.521096e+001
      vertex   1.833948e+003 3.749874e+002 -1.138083e+001
      vertex   1.833996e+003 3.712974e+002 -1.136127e+001
    endloop
  endfacet
  facet normal 3.790565e-001 -5.968880e-015 -9.253735e-001
    outer loop
      vertex   1.833996e+003 3.712974e+002 -1.136127e+001
      vertex   1.833948e+003 3.749874e+002 -1.138083e+001
      vertex   1.839425e+003 3.742660e+002 -9.137500e+000
    endloop
  endfacet
  facet normal 3.790565e-001 -1.541053e-015 -9.253735e-001
    outer loop
      vertex   1.839425e+003 3.715994e+002 -9.137500e+000
      vertex   1.839425e+003 3.742660e+002 -9.137500e+000
      vertex   1.843352e+003 3.738170e+002 -7.528857e+000
    endloop
  endfacet
  facet normal 3.790565e-001 -9.986793e-014 -9.253735e-001
    outer loop
      vertex   1.843392e+003 3.718293e+002 -7.512311e+000
      vertex   1.839425e+003 3.715994e+002 -9.137500e+000
      vertex   1.843352e+003 3.738170e+002 -7.528857e+000
    endloop
  endfacet
  facet normal 3.790565e-001 -1.541053e-015 -9.253735e-001
    outer loop
      vertex   1.839425e+003 3.742660e+002 -9.137500e+000
      vertex   1.839425e+003 3.715994e+002 -9.137500e+000
      vertex   1.833996e+003 3.712974e+002 -1.136127e+001
    endloop
  endfacet
  facet normal -3.790565e-001 0.000000e+000 9.253735e-001
    outer loop
      vertex   1.869913e+003 3.773647e+002 -1.404502e+002
      vertex   1.869913e+003 3.705606e+002 -1.404502e+002
      vertex   1.874979e+003 3.765124e+002 -1.383749e+002
    endloop
  endfacet
  facet normal -3.790565e-001 7.101843e-015 9.253735e-001
    outer loop
      vertex   1.874979e+003 3.765124e+002 -1.383749e+002
      vertex   1.869913e+003 3.705606e+002 -1.404502e+002
      vertex   1.875009e+003 3.708373e+002 -1.383625e+002
    endloop
  endfacet
  facet normal -3.790565e-001 1.980691e-014 9.253735e-001
    outer loop
      vertex   1.878183e+003 3.759905e+002 -1.370625e+002
      vertex   1.875009e+003 3.708373e+002 -1.383625e+002
      vertex   1.884417e+003 3.713424e+002 -1.345088e+002
    endloop
  endfacet
  facet normal -3.790565e-001 6.052877e-014 9.253735e-001
    outer loop
      vertex   1.884369e+003 3.750410e+002 -1.345286e+002
      vertex   1.884417e+003 3.713424e+002 -1.345088e+002
      vertex   1.893782e+003 3.738315e+002 -1.306728e+002
    endloop
  endfacet
  facet normal -3.790565e-001 6.108096e-014 9.253735e-001
    outer loop
      vertex   1.884369e+003 3.750410e+002 -1.345286e+002
      vertex   1.878183e+003 3.759905e+002 -1.370625e+002
      vertex   1.884417e+003 3.713424e+002 -1.345088e+002
    endloop
  endfacet
  facet normal -3.790565e-001 5.779180e-013 9.253735e-001
    outer loop
      vertex   1.903226e+003 3.724625e+002 -1.268042e+002
      vertex   1.903226e+003 3.727581e+002 -1.268042e+002
      vertex   1.893823e+003 3.718717e+002 -1.306558e+002
    endloop
  endfacet
  facet normal -3.790565e-001 -5.779180e-013 9.253735e-001
    outer loop
      vertex   1.893823e+003 3.718717e+002 -1.306558e+002
      vertex   1.903226e+003 3.727581e+002 -1.268042e+002
      vertex   1.903226e+003 3.730538e+002 -1.268042e+002
    endloop
  endfacet
  facet normal -3.790565e-001 -2.192895e-014 9.253735e-001
    outer loop
      vertex   1.893782e+003 3.738315e+002 -1.306728e+002
      vertex   1.893823e+003 3.718717e+002 -1.306558e+002
      vertex   1.903226e+003 3.730538e+002 -1.268042e+002
    endloop
  endfacet
  facet normal -3.790565e-001 -2.198705e-014 9.253735e-001
    outer loop
      vertex   1.893782e+003 3.738315e+002 -1.306728e+002
      vertex   1.884417e+003 3.713424e+002 -1.345088e+002
      vertex   1.893823e+003 3.718717e+002 -1.306558e+002
    endloop
  endfacet
  facet normal -3.790565e-001 7.200480e-015 9.253735e-001
    outer loop
      vertex   1.878183e+003 3.759905e+002 -1.370625e+002
      vertex   1.874979e+003 3.765124e+002 -1.383749e+002
      vertex   1.875009e+003 3.708373e+002 -1.383625e+002
    endloop
  endfacet
  facet normal 4.595804e-002 -9.987789e-001 1.812835e-002
    outer loop
      vertex   1.878218e+003 3.708427e+002 -1.462000e+002
      vertex   1.889204e+003 3.713482e+002 -1.462000e+002
      vertex   1.875009e+003 3.708373e+002 -1.383625e+002
    endloop
  endfacet
  facet normal 4.669015e-002 -9.987394e-001 1.842805e-002
    outer loop
      vertex   1.869913e+003 3.705606e+002 -1.404502e+002
      vertex   1.878218e+003 3.708427e+002 -1.462000e+002
      vertex   1.875009e+003 3.708373e+002 -1.383625e+002
    endloop
  endfacet
  facet normal 4.727319e-002 -9.986961e-001 1.927231e-002
    outer loop
      vertex   1.869913e+003 3.705606e+002 -1.404502e+002
      vertex   1.867232e+003 3.703227e+002 -1.462000e+002
      vertex   1.878218e+003 3.708427e+002 -1.462000e+002
    endloop
  endfacet
  facet normal 4.758583e-002 -9.986840e-001 1.912605e-002
    outer loop
      vertex   1.869913e+003 3.705606e+002 -1.404502e+002
      vertex   1.863492e+003 3.703195e+002 -1.370625e+002
      vertex   1.867232e+003 3.703227e+002 -1.462000e+002
    endloop
  endfacet
  facet normal 4.757753e-002 -9.986847e-001 1.911028e-002
    outer loop
      vertex   1.869913e+003 3.705606e+002 -1.404502e+002
      vertex   1.868525e+003 3.705593e+002 -1.370625e+002
      vertex   1.863492e+003 3.703195e+002 -1.370625e+002
    endloop
  endfacet
  facet normal 4.757752e-002 -9.986845e-001 1.912265e-002
    outer loop
      vertex   1.863492e+003 3.703195e+002 -1.370625e+002
      vertex   1.868525e+003 3.705593e+002 -1.370625e+002
      vertex   1.859753e+003 3.703163e+002 -1.279250e+002
    endloop
  endfacet
  facet normal 4.755513e-002 -9.986860e-001 1.910111e-002
    outer loop
      vertex   1.859753e+003 3.703163e+002 -1.279250e+002
      vertex   1.868525e+003 3.705593e+002 -1.370625e+002
      vertex   1.864782e+003 3.705558e+002 -1.279250e+002
    endloop
  endfacet
  facet normal 4.753272e-002 -9.986872e-001 1.909195e-002
    outer loop
      vertex   1.856013e+003 3.703131e+002 -1.187875e+002
      vertex   1.864782e+003 3.705558e+002 -1.279250e+002
      vertex   1.861039e+003 3.705523e+002 -1.187875e+002
    endloop
  endfacet
  facet normal 4.751031e-002 -9.986884e-001 1.908278e-002
    outer loop
      vertex   1.852274e+003 3.703099e+002 -1.096500e+002
      vertex   1.861039e+003 3.705523e+002 -1.187875e+002
      vertex   1.857296e+003 3.705489e+002 -1.096500e+002
    endloop
  endfacet
  facet normal 4.748790e-002 -9.986897e-001 1.907362e-002
    outer loop
      vertex   1.848534e+003 3.703068e+002 -1.005125e+002
      vertex   1.857296e+003 3.705489e+002 -1.096500e+002
      vertex   1.853553e+003 3.705454e+002 -1.005125e+002
    endloop
  endfacet
  facet normal 4.746549e-002 -9.986909e-001 1.906445e-002
    outer loop
      vertex   1.844794e+003 3.703036e+002 -9.137500e+001
      vertex   1.853553e+003 3.705454e+002 -1.005125e+002
      vertex   1.849810e+003 3.705420e+002 -9.137500e+001
    endloop
  endfacet
  facet normal 4.744308e-002 -9.986922e-001 1.905529e-002
    outer loop
      vertex   1.841055e+003 3.703004e+002 -8.223750e+001
      vertex   1.849810e+003 3.705420e+002 -9.137500e+001
      vertex   1.846067e+003 3.705385e+002 -8.223750e+001
    endloop
  endfacet
  facet normal 4.742067e-002 -9.986934e-001 1.904612e-002
    outer loop
      vertex   1.837315e+003 3.702972e+002 -7.310000e+001
      vertex   1.846067e+003 3.705385e+002 -8.223750e+001
      vertex   1.842324e+003 3.705350e+002 -7.310000e+001
    endloop
  endfacet
  facet normal 4.739825e-002 -9.986946e-001 1.903696e-002
    outer loop
      vertex   1.833576e+003 3.702940e+002 -6.396250e+001
      vertex   1.842324e+003 3.705350e+002 -7.310000e+001
      vertex   1.838581e+003 3.705316e+002 -6.396250e+001
    endloop
  endfacet
  facet normal 4.737584e-002 -9.986959e-001 1.902779e-002
    outer loop
      vertex   1.829836e+003 3.702908e+002 -5.482500e+001
      vertex   1.838581e+003 3.705316e+002 -6.396250e+001
      vertex   1.834838e+003 3.705281e+002 -5.482500e+001
    endloop
  endfacet
  facet normal 4.735342e-002 -9.986971e-001 1.901863e-002
    outer loop
      vertex   1.826097e+003 3.702876e+002 -4.568750e+001
      vertex   1.834838e+003 3.705281e+002 -5.482500e+001
      vertex   1.831095e+003 3.705246e+002 -4.568750e+001
    endloop
  endfacet
  facet normal 4.733100e-002 -9.986984e-001 1.900946e-002
    outer loop
      vertex   1.822357e+003 3.702844e+002 -3.655000e+001
      vertex   1.831095e+003 3.705246e+002 -4.568750e+001
      vertex   1.827352e+003 3.705212e+002 -3.655000e+001
    endloop
  endfacet
  facet normal 4.730858e-002 -9.986996e-001 1.900029e-002
    outer loop
      vertex   1.818617e+003 3.702812e+002 -2.741250e+001
      vertex   1.827352e+003 3.705212e+002 -3.655000e+001
      vertex   1.823610e+003 3.705177e+002 -2.741250e+001
    endloop
  endfacet
  facet normal 4.728616e-002 -9.987008e-001 1.899112e-002
    outer loop
      vertex   1.814878e+003 3.702780e+002 -1.827500e+001
      vertex   1.823610e+003 3.705177e+002 -2.741250e+001
      vertex   1.819867e+003 3.705142e+002 -1.827500e+001
    endloop
  endfacet
  facet normal 4.728616e-002 -9.987008e-001 1.899113e-002
    outer loop
      vertex   1.819472e+003 3.705139e+002 -1.731075e+001
      vertex   1.814878e+003 3.702780e+002 -1.827500e+001
      vertex   1.819867e+003 3.705142e+002 -1.827500e+001
    endloop
  endfacet
  facet normal 4.728379e-002 -9.987007e-001 1.900243e-002
    outer loop
      vertex   1.819472e+003 3.705139e+002 -1.731075e+001
      vertex   1.811138e+003 3.702748e+002 -9.137500e+000
      vertex   1.814878e+003 3.702780e+002 -1.827500e+001
    endloop
  endfacet
  facet normal 4.690759e-002 -9.987257e-001 1.861814e-002
    outer loop
      vertex   1.819472e+003 3.705139e+002 -1.731075e+001
      vertex   1.822112e+003 3.707902e+002 -9.137500e+000
      vertex   1.811138e+003 3.702748e+002 -9.137500e+000
    endloop
  endfacet
  facet normal 4.636110e-002 -9.987479e-001 1.879540e-002
    outer loop
      vertex   1.819472e+003 3.705139e+002 -1.731075e+001
      vertex   1.824598e+003 3.707913e+002 -1.521096e+001
      vertex   1.822112e+003 3.707902e+002 -9.137500e+000
    endloop
  endfacet
  facet normal 4.612517e-002 -9.987606e-001 1.869882e-002
    outer loop
      vertex   1.822112e+003 3.707902e+002 -9.137500e+000
      vertex   1.824598e+003 3.707913e+002 -1.521096e+001
      vertex   1.833996e+003 3.712974e+002 -1.136127e+001
    endloop
  endfacet
  facet normal 4.807309e-002 -9.986775e-001 1.822930e-002
    outer loop
      vertex   1.833085e+003 3.712942e+002 -9.137500e+000
      vertex   1.833996e+003 3.712974e+002 -1.136127e+001
      vertex   1.839425e+003 3.715994e+002 -9.137500e+000
    endloop
  endfacet
  facet normal 4.815554e-002 -9.986518e-001 1.938108e-002
    outer loop
      vertex   1.829344e+003 3.712906e+002 0.000000e+000
      vertex   1.839425e+003 3.715994e+002 -9.137500e+000
      vertex   1.840316e+003 3.718197e+002 0.000000e+000
    endloop
  endfacet
  facet normal 4.807213e-002 -9.986576e-001 1.928886e-002
    outer loop
      vertex   1.829344e+003 3.712906e+002 0.000000e+000
      vertex   1.833085e+003 3.712942e+002 -9.137500e+000
      vertex   1.839425e+003 3.715994e+002 -9.137500e+000
    endloop
  endfacet
  facet normal 4.586330e-002 -9.987785e-001 1.838443e-002
    outer loop
      vertex   1.829344e+003 3.712906e+002 0.000000e+000
      vertex   1.818371e+003 3.707867e+002 0.000000e+000
      vertex   1.833085e+003 3.712942e+002 -9.137500e+000
    endloop
  endfacet
  facet normal 4.586921e-002 -9.987781e-001 1.839397e-002
    outer loop
      vertex   1.833085e+003 3.712942e+002 -9.137500e+000
      vertex   1.818371e+003 3.707867e+002 0.000000e+000
      vertex   1.822112e+003 3.707902e+002 -9.137500e+000
    endloop
  endfacet
  facet normal 4.587008e-002 -9.987971e-001 1.732725e-002
    outer loop
      vertex   1.833996e+003 3.712974e+002 -1.136127e+001
      vertex   1.833085e+003 3.712942e+002 -9.137500e+000
      vertex   1.822112e+003 3.707902e+002 -9.137500e+000
    endloop
  endfacet
  facet normal 4.622339e-002 -9.987678e-001 1.806284e-002
    outer loop
      vertex   1.875009e+003 3.708373e+002 -1.383625e+002
      vertex   1.885463e+003 3.713446e+002 -1.370625e+002
      vertex   1.884417e+003 3.713424e+002 -1.345088e+002
    endloop
  endfacet
  facet normal 4.616763e-002 -9.987622e-001 1.850904e-002
    outer loop
      vertex   1.875009e+003 3.708373e+002 -1.383625e+002
      vertex   1.889204e+003 3.713482e+002 -1.462000e+002
      vertex   1.885463e+003 3.713446e+002 -1.370625e+002
    endloop
  endfacet
  facet normal 4.760074e-002 -9.986839e-001 1.909584e-002
    outer loop
      vertex   1.885463e+003 3.713446e+002 -1.370625e+002
      vertex   1.889204e+003 3.713482e+002 -1.462000e+002
      vertex   1.900190e+003 3.718719e+002 -1.462000e+002
    endloop
  endfacet
  facet normal 5.428386e-002 -9.982859e-001 2.187469e-002
    outer loop
      vertex   1.896447e+003 3.718686e+002 -1.370625e+002
      vertex   1.900190e+003 3.718719e+002 -1.462000e+002
      vertex   1.911171e+003 3.724690e+002 -1.462000e+002
    endloop
  endfacet
  facet normal 5.430632e-002 -9.982839e-001 2.191100e-002
    outer loop
      vertex   1.907428e+003 3.724659e+002 -1.370625e+002
      vertex   1.896447e+003 3.718686e+002 -1.370625e+002
      vertex   1.911171e+003 3.724690e+002 -1.462000e+002
    endloop
  endfacet
  facet normal 5.430533e-002 -9.982658e-001 2.272124e-002
    outer loop
      vertex   1.907428e+003 3.724659e+002 -1.370625e+002
      vertex   1.893823e+003 3.718717e+002 -1.306558e+002
      vertex   1.896447e+003 3.718686e+002 -1.370625e+002
    endloop
  endfacet
  facet normal 5.383493e-002 -9.983136e-001 2.171790e-002
    outer loop
      vertex   1.907428e+003 3.724659e+002 -1.370625e+002
      vertex   1.907199e+003 3.724658e+002 -1.365021e+002
      vertex   1.893823e+003 3.718717e+002 -1.306558e+002
    endloop
  endfacet
  facet normal 5.383493e-002 -9.983136e-001 2.171790e-002
    outer loop
      vertex   1.893823e+003 3.718717e+002 -1.306558e+002
      vertex   1.907199e+003 3.724658e+002 -1.365021e+002
      vertex   1.903685e+003 3.724629e+002 -1.279250e+002
    endloop
  endfacet
  facet normal 5.383493e-002 -9.983136e-001 2.171790e-002
    outer loop
      vertex   1.903226e+003 3.724625e+002 -1.268042e+002
      vertex   1.893823e+003 3.718717e+002 -1.306558e+002
      vertex   1.903685e+003 3.724629e+002 -1.279250e+002
    endloop
  endfacet
  facet normal 5.000684e-002 -9.985643e-001 1.919838e-002
    outer loop
      vertex   1.839425e+003 3.715994e+002 -9.137500e+000
      vertex   1.843392e+003 3.718293e+002 -7.512311e+000
      vertex   1.840316e+003 3.718197e+002 0.000000e+000
    endloop
  endfacet
  facet normal 5.432823e-002 -9.983029e-001 2.096825e-002
    outer loop
      vertex   1.840316e+003 3.718197e+002 0.000000e+000
      vertex   1.843392e+003 3.718293e+002 -7.512311e+000
      vertex   1.852785e+003 3.724213e+002 -3.664716e+000
    endloop
  endfacet
  facet normal 5.464401e-002 -9.982624e-001 2.204934e-002
    outer loop
      vertex   1.851284e+003 3.724201e+002 0.000000e+000
      vertex   1.840316e+003 3.718197e+002 0.000000e+000
      vertex   1.852785e+003 3.724213e+002 -3.664716e+000
    endloop
  endfacet
  facet normal 4.688298e-002 -9.987233e-001 1.880897e-002
    outer loop
      vertex   1.818371e+003 3.707867e+002 0.000000e+000
      vertex   1.807399e+003 3.702717e+002 0.000000e+000
      vertex   1.822112e+003 3.707902e+002 -9.137500e+000
    endloop
  endfacet
  facet normal 4.690739e-002 -9.987214e-001 1.884838e-002
    outer loop
      vertex   1.822112e+003 3.707902e+002 -9.137500e+000
      vertex   1.807399e+003 3.702717e+002 0.000000e+000
      vertex   1.811138e+003 3.702748e+002 -9.137500e+000
    endloop
  endfacet
  facet normal 4.730857e-002 -9.986994e-001 1.901257e-002
    outer loop
      vertex   1.814878e+003 3.702780e+002 -1.827500e+001
      vertex   1.818617e+003 3.702812e+002 -2.741250e+001
      vertex   1.823610e+003 3.705177e+002 -2.741250e+001
    endloop
  endfacet
  facet normal 4.733099e-002 -9.986981e-001 1.902175e-002
    outer loop
      vertex   1.818617e+003 3.702812e+002 -2.741250e+001
      vertex   1.822357e+003 3.702844e+002 -3.655000e+001
      vertex   1.827352e+003 3.705212e+002 -3.655000e+001
    endloop
  endfacet
  facet normal 4.735341e-002 -9.986969e-001 1.903092e-002
    outer loop
      vertex   1.822357e+003 3.702844e+002 -3.655000e+001
      vertex   1.826097e+003 3.702876e+002 -4.568750e+001
      vertex   1.831095e+003 3.705246e+002 -4.568750e+001
    endloop
  endfacet
  facet normal 4.737583e-002 -9.986957e-001 1.904010e-002
    outer loop
      vertex   1.826097e+003 3.702876e+002 -4.568750e+001
      vertex   1.829836e+003 3.702908e+002 -5.482500e+001
      vertex   1.834838e+003 3.705281e+002 -5.482500e+001
    endloop
  endfacet
  facet normal 4.739824e-002 -9.986944e-001 1.904927e-002
    outer loop
      vertex   1.829836e+003 3.702908e+002 -5.482500e+001
      vertex   1.833576e+003 3.702940e+002 -6.396250e+001
      vertex   1.838581e+003 3.705316e+002 -6.396250e+001
    endloop
  endfacet
  facet normal 4.742066e-002 -9.986932e-001 1.905845e-002
    outer loop
      vertex   1.833576e+003 3.702940e+002 -6.396250e+001
      vertex   1.837315e+003 3.702972e+002 -7.310000e+001
      vertex   1.842324e+003 3.705350e+002 -7.310000e+001
    endloop
  endfacet
  facet normal 4.744307e-002 -9.986919e-001 1.906762e-002
    outer loop
      vertex   1.837315e+003 3.702972e+002 -7.310000e+001
      vertex   1.841055e+003 3.703004e+002 -8.223750e+001
      vertex   1.846067e+003 3.705385e+002 -8.223750e+001
    endloop
  endfacet
  facet normal 4.746548e-002 -9.986907e-001 1.907679e-002
    outer loop
      vertex   1.841055e+003 3.703004e+002 -8.223750e+001
      vertex   1.844794e+003 3.703036e+002 -9.137500e+001
      vertex   1.849810e+003 3.705420e+002 -9.137500e+001
    endloop
  endfacet
  facet normal 4.748789e-002 -9.986895e-001 1.908596e-002
    outer loop
      vertex   1.844794e+003 3.703036e+002 -9.137500e+001
      vertex   1.848534e+003 3.703068e+002 -1.005125e+002
      vertex   1.853553e+003 3.705454e+002 -1.005125e+002
    endloop
  endfacet
  facet normal 4.751030e-002 -9.986882e-001 1.909514e-002
    outer loop
      vertex   1.848534e+003 3.703068e+002 -1.005125e+002
      vertex   1.852274e+003 3.703099e+002 -1.096500e+002
      vertex   1.857296e+003 3.705489e+002 -1.096500e+002
    endloop
  endfacet
  facet normal 4.753271e-002 -9.986870e-001 1.910431e-002
    outer loop
      vertex   1.852274e+003 3.703099e+002 -1.096500e+002
      vertex   1.856013e+003 3.703131e+002 -1.187875e+002
      vertex   1.861039e+003 3.705523e+002 -1.187875e+002
    endloop
  endfacet
  facet normal 4.755511e-002 -9.986857e-001 1.911348e-002
    outer loop
      vertex   1.856013e+003 3.703131e+002 -1.187875e+002
      vertex   1.859753e+003 3.703163e+002 -1.279250e+002
      vertex   1.864782e+003 3.705558e+002 -1.279250e+002
    endloop
  endfacet
  facet normal 4.794725e-002 -9.986473e-001 2.011731e-002
    outer loop
      vertex   1.893823e+003 3.718717e+002 -1.306558e+002
      vertex   1.884417e+003 3.713424e+002 -1.345088e+002
      vertex   1.896447e+003 3.718686e+002 -1.370625e+002
    endloop
  endfacet
  facet normal 4.763580e-002 -9.986908e-001 1.864117e-002
    outer loop
      vertex   1.896447e+003 3.718686e+002 -1.370625e+002
      vertex   1.884417e+003 3.713424e+002 -1.345088e+002
      vertex   1.885463e+003 3.713446e+002 -1.370625e+002
    endloop
  endfacet
  facet normal 4.763534e-002 -9.986812e-001 1.915177e-002
    outer loop
      vertex   1.900190e+003 3.718719e+002 -1.462000e+002
      vertex   1.896447e+003 3.718686e+002 -1.370625e+002
      vertex   1.885463e+003 3.713446e+002 -1.370625e+002
    endloop
  endfacet
  facet normal 9.253735e-001 -0.000000e+000 3.790565e-001
    outer loop
      vertex   1.852785e+003 3.724213e+002 -3.664716e+000
      vertex   1.852785e+003 3.730579e+002 -3.664716e+000
      vertex   1.851284e+003 3.724201e+002 0.000000e+000
    endloop
  endfacet
  facet normal 9.253735e-001 0.000000e+000 3.790565e-001
    outer loop
      vertex   1.851284e+003 3.724201e+002 0.000000e+000
      vertex   1.852785e+003 3.730579e+002 -3.664716e+000
      vertex   1.851284e+003 3.730580e+002 0.000000e+000
    endloop
  endfacet
  facet normal 6.889538e-002 9.972256e-001 2.818783e-002
    outer loop
      vertex   1.851284e+003 3.730580e+002 0.000000e+000
      vertex   1.852785e+003 3.730579e+002 -3.664716e+000
      vertex   1.840268e+003 3.738191e+002 0.000000e+000
    endloop
  endfacet
  facet normal 6.881444e-002 9.972390e-001 2.790859e-002
    outer loop
      vertex   1.840268e+003 3.738191e+002 0.000000e+000
      vertex   1.852785e+003 3.730579e+002 -3.664716e+000
      vertex   1.843352e+003 3.738170e+002 -7.528857e+000
    endloop
  endfacet
  facet normal 1.057326e-001 9.934331e-001 4.371815e-002
    outer loop
      vertex   1.829288e+003 3.749825e+002 0.000000e+000
      vertex   1.843352e+003 3.738170e+002 -7.528857e+000
      vertex   1.833030e+003 3.749864e+002 -9.137500e+000
    endloop
  endfacet
  facet normal 1.291732e-001 9.901866e-001 5.333597e-002
    outer loop
      vertex   1.822076e+003 3.764154e+002 -9.137500e+000
      vertex   1.833030e+003 3.749864e+002 -9.137500e+000
      vertex   1.833948e+003 3.749874e+002 -1.138083e+001
    endloop
  endfacet
  facet normal 1.292305e-001 9.901619e-001 5.365488e-002
    outer loop
      vertex   1.824567e+003 3.764200e+002 -1.522360e+001
      vertex   1.822076e+003 3.764154e+002 -9.137500e+000
      vertex   1.833948e+003 3.749874e+002 -1.138083e+001
    endloop
  endfacet
  facet normal 1.402386e-001 9.884081e-001 5.815972e-002
    outer loop
      vertex   1.824567e+003 3.764200e+002 -1.522360e+001
      vertex   1.819472e+003 3.772658e+002 -1.731075e+001
      vertex   1.822076e+003 3.764154e+002 -9.137500e+000
    endloop
  endfacet
  facet normal 1.417345e-001 9.882238e-001 5.766394e-002
    outer loop
      vertex   1.822076e+003 3.764154e+002 -9.137500e+000
      vertex   1.819472e+003 3.772658e+002 -1.731075e+001
      vertex   1.811138e+003 3.779840e+002 -9.137500e+000
    endloop
  endfacet
  facet normal 1.416039e-001 9.881729e-001 5.884482e-002
    outer loop
      vertex   1.818335e+003 3.764086e+002 0.000000e+000
      vertex   1.811138e+003 3.779840e+002 -9.137500e+000
      vertex   1.807399e+003 3.779758e+002 0.000000e+000
    endloop
  endfacet
  facet normal 1.417256e-001 9.881613e-001 5.874700e-002
    outer loop
      vertex   1.818335e+003 3.764086e+002 0.000000e+000
      vertex   1.822076e+003 3.764154e+002 -9.137500e+000
      vertex   1.811138e+003 3.779840e+002 -9.137500e+000
    endloop
  endfacet
  facet normal 1.289291e-001 9.902090e-001 5.351031e-002
    outer loop
      vertex   1.818335e+003 3.764086e+002 0.000000e+000
      vertex   1.829288e+003 3.749825e+002 0.000000e+000
      vertex   1.822076e+003 3.764154e+002 -9.137500e+000
    endloop
  endfacet
  facet normal 1.291734e-001 9.901878e-001 5.331418e-002
    outer loop
      vertex   1.822076e+003 3.764154e+002 -9.137500e+000
      vertex   1.829288e+003 3.749825e+002 0.000000e+000
      vertex   1.833030e+003 3.749864e+002 -9.137500e+000
    endloop
  endfacet
  facet normal 1.119341e-001 9.937071e-001 4.124224e-003
    outer loop
      vertex   1.843352e+003 3.738170e+002 -7.528857e+000
      vertex   1.839425e+003 3.742660e+002 -9.137500e+000
      vertex   1.833030e+003 3.749864e+002 -9.137500e+000
    endloop
  endfacet
  facet normal 1.118154e-001 9.926531e-001 4.623017e-002
    outer loop
      vertex   1.833030e+003 3.749864e+002 -9.137500e+000
      vertex   1.839425e+003 3.742660e+002 -9.137500e+000
      vertex   1.833948e+003 3.749874e+002 -1.138083e+001
    endloop
  endfacet
  facet normal 1.436981e-001 9.878191e-001 5.970158e-002
    outer loop
      vertex   1.811138e+003 3.779840e+002 -9.137500e+000
      vertex   1.819472e+003 3.772658e+002 -1.731075e+001
      vertex   1.814878e+003 3.779923e+002 -1.827500e+001
    endloop
  endfacet
  facet normal 1.437071e-001 9.878203e-001 5.965987e-002
    outer loop
      vertex   1.814878e+003 3.779923e+002 -1.827500e+001
      vertex   1.819472e+003 3.772658e+002 -1.731075e+001
      vertex   1.819867e+003 3.772665e+002 -1.827500e+001
    endloop
  endfacet
  facet normal 1.437882e-001 9.878065e-001 5.969305e-002
    outer loop
      vertex   1.818617e+003 3.780006e+002 -2.741250e+001
      vertex   1.819867e+003 3.772665e+002 -1.827500e+001
      vertex   1.823610e+003 3.772739e+002 -2.741250e+001
    endloop
  endfacet
  facet normal 1.438693e-001 9.877927e-001 5.972620e-002
    outer loop
      vertex   1.822357e+003 3.780088e+002 -3.655000e+001
      vertex   1.823610e+003 3.772739e+002 -2.741250e+001
      vertex   1.827352e+003 3.772812e+002 -3.655000e+001
    endloop
  endfacet
  facet normal 1.439504e-001 9.877789e-001 5.975935e-002
    outer loop
      vertex   1.826097e+003 3.780171e+002 -4.568750e+001
      vertex   1.827352e+003 3.772812e+002 -3.655000e+001
      vertex   1.831095e+003 3.772886e+002 -4.568750e+001
    endloop
  endfacet
  facet normal 1.440316e-001 9.877650e-001 5.979251e-002
    outer loop
      vertex   1.829836e+003 3.780253e+002 -5.482500e+001
      vertex   1.831095e+003 3.772886e+002 -4.568750e+001
      vertex   1.834838e+003 3.772959e+002 -5.482500e+001
    endloop
  endfacet
  facet normal 1.441128e-001 9.877512e-001 5.982567e-002
    outer loop
      vertex   1.833576e+003 3.780336e+002 -6.396250e+001
      vertex   1.834838e+003 3.772959e+002 -5.482500e+001
      vertex   1.838581e+003 3.773032e+002 -6.396250e+001
    endloop
  endfacet
  facet normal 1.441939e-001 9.877373e-001 5.985884e-002
    outer loop
      vertex   1.837315e+003 3.780418e+002 -7.310000e+001
      vertex   1.838581e+003 3.773032e+002 -6.396250e+001
      vertex   1.842324e+003 3.773106e+002 -7.310000e+001
    endloop
  endfacet
  facet normal 1.442751e-001 9.877235e-001 5.989202e-002
    outer loop
      vertex   1.841055e+003 3.780501e+002 -8.223750e+001
      vertex   1.842324e+003 3.773106e+002 -7.310000e+001
      vertex   1.846067e+003 3.773179e+002 -8.223750e+001
    endloop
  endfacet
  facet normal 1.443563e-001 9.877096e-001 5.992520e-002
    outer loop
      vertex   1.844794e+003 3.780583e+002 -9.137500e+001
      vertex   1.846067e+003 3.773179e+002 -8.223750e+001
      vertex   1.849810e+003 3.773253e+002 -9.137500e+001
    endloop
  endfacet
  facet normal 1.444375e-001 9.876957e-001 5.995838e-002
    outer loop
      vertex   1.848534e+003 3.780666e+002 -1.005125e+002
      vertex   1.849810e+003 3.773253e+002 -9.137500e+001
      vertex   1.853553e+003 3.773326e+002 -1.005125e+002
    endloop
  endfacet
  facet normal 1.445188e-001 9.876818e-001 5.999158e-002
    outer loop
      vertex   1.852274e+003 3.780748e+002 -1.096500e+002
      vertex   1.853553e+003 3.773326e+002 -1.005125e+002
      vertex   1.857296e+003 3.773399e+002 -1.096500e+002
    endloop
  endfacet
  facet normal 1.446000e-001 9.876679e-001 6.002477e-002
    outer loop
      vertex   1.856013e+003 3.780831e+002 -1.187875e+002
      vertex   1.857296e+003 3.773399e+002 -1.096500e+002
      vertex   1.861039e+003 3.773473e+002 -1.187875e+002
    endloop
  endfacet
  facet normal 1.446813e-001 9.876540e-001 6.005798e-002
    outer loop
      vertex   1.859753e+003 3.780913e+002 -1.279250e+002
      vertex   1.861039e+003 3.773473e+002 -1.187875e+002
      vertex   1.864782e+003 3.773546e+002 -1.279250e+002
    endloop
  endfacet
  facet normal 1.447626e-001 9.876400e-001 6.009119e-002
    outer loop
      vertex   1.863492e+003 3.780996e+002 -1.370625e+002
      vertex   1.864782e+003 3.773546e+002 -1.279250e+002
      vertex   1.868525e+003 3.773619e+002 -1.370625e+002
    endloop
  endfacet
  facet normal 1.447626e-001 9.876400e-001 6.009114e-002
    outer loop
      vertex   1.869913e+003 3.773647e+002 -1.404502e+002
      vertex   1.863492e+003 3.780996e+002 -1.370625e+002
      vertex   1.868525e+003 3.773619e+002 -1.370625e+002
    endloop
  endfacet
  facet normal 1.447923e-001 9.876322e-001 6.014920e-002
    outer loop
      vertex   1.869913e+003 3.773647e+002 -1.404502e+002
      vertex   1.867232e+003 3.781079e+002 -1.462000e+002
      vertex   1.863492e+003 3.780996e+002 -1.370625e+002
    endloop
  endfacet
  facet normal 1.435179e-001 9.877806e-001 6.076259e-002
    outer loop
      vertex   1.869913e+003 3.773647e+002 -1.404502e+002
      vertex   1.878182e+003 3.765169e+002 -1.462000e+002
      vertex   1.867232e+003 3.781079e+002 -1.462000e+002
    endloop
  endfacet
  facet normal 1.421534e-001 9.880994e-001 5.875324e-002
    outer loop
      vertex   1.869913e+003 3.773647e+002 -1.404502e+002
      vertex   1.874979e+003 3.765124e+002 -1.383749e+002
      vertex   1.878182e+003 3.765169e+002 -1.462000e+002
    endloop
  endfacet
  facet normal 1.377487e-001 9.888286e-001 5.695073e-002
    outer loop
      vertex   1.878182e+003 3.765169e+002 -1.462000e+002
      vertex   1.874979e+003 3.765124e+002 -1.383749e+002
      vertex   1.878183e+003 3.759905e+002 -1.370625e+002
    endloop
  endfacet
  facet normal 1.300731e-001 9.900501e-001 5.368251e-002
    outer loop
      vertex   1.889147e+003 3.750454e+002 -1.462000e+002
      vertex   1.878183e+003 3.759905e+002 -1.370625e+002
      vertex   1.885406e+003 3.750415e+002 -1.370625e+002
    endloop
  endfacet
  facet normal 1.089380e-001 9.930184e-001 4.524344e-002
    outer loop
      vertex   1.896398e+003 3.738356e+002 -1.370625e+002
      vertex   1.885406e+003 3.750415e+002 -1.370625e+002
      vertex   1.893782e+003 3.738315e+002 -1.306728e+002
    endloop
  endfacet
  facet normal 7.032642e-002 9.971089e-001 2.877402e-002
    outer loop
      vertex   1.907199e+003 3.730534e+002 -1.365021e+002
      vertex   1.893782e+003 3.738315e+002 -1.306728e+002
      vertex   1.903685e+003 3.730537e+002 -1.279250e+002
    endloop
  endfacet
  facet normal 7.067192e-002 9.970611e-001 2.957565e-002
    outer loop
      vertex   1.907199e+003 3.730534e+002 -1.365021e+002
      vertex   1.896398e+003 3.738356e+002 -1.370625e+002
      vertex   1.893782e+003 3.738315e+002 -1.306728e+002
    endloop
  endfacet
  facet normal 7.070663e-002 9.970776e-001 2.892976e-002
    outer loop
      vertex   1.907199e+003 3.730534e+002 -1.365021e+002
      vertex   1.907428e+003 3.730534e+002 -1.370625e+002
      vertex   1.896398e+003 3.738356e+002 -1.370625e+002
    endloop
  endfacet
  facet normal 7.070633e-002 9.970733e-001 2.907603e-002
    outer loop
      vertex   1.896398e+003 3.738356e+002 -1.370625e+002
      vertex   1.907428e+003 3.730534e+002 -1.370625e+002
      vertex   1.900140e+003 3.738367e+002 -1.462000e+002
    endloop
  endfacet
  facet normal 1.091850e-001 9.930099e-001 4.483332e-002
    outer loop
      vertex   1.889147e+003 3.750454e+002 -1.462000e+002
      vertex   1.896398e+003 3.738356e+002 -1.370625e+002
      vertex   1.900140e+003 3.738367e+002 -1.462000e+002
    endloop
  endfacet
  facet normal 1.089391e-001 9.930279e-001 4.503082e-002
    outer loop
      vertex   1.889147e+003 3.750454e+002 -1.462000e+002
      vertex   1.885406e+003 3.750415e+002 -1.370625e+002
      vertex   1.896398e+003 3.738356e+002 -1.370625e+002
    endloop
  endfacet
  facet normal 1.300747e-001 9.900623e-001 5.345200e-002
    outer loop
      vertex   1.878183e+003 3.759905e+002 -1.370625e+002
      vertex   1.884369e+003 3.750410e+002 -1.345286e+002
      vertex   1.885406e+003 3.750415e+002 -1.370625e+002
    endloop
  endfacet
  facet normal 1.091949e-001 9.930056e-001 4.490427e-002
    outer loop
      vertex   1.885406e+003 3.750415e+002 -1.370625e+002
      vertex   1.884369e+003 3.750410e+002 -1.345286e+002
      vertex   1.893782e+003 3.738315e+002 -1.306728e+002
    endloop
  endfacet
  facet normal 7.032642e-002 9.971089e-001 2.877402e-002
    outer loop
      vertex   1.893782e+003 3.738315e+002 -1.306728e+002
      vertex   1.903226e+003 3.730538e+002 -1.268042e+002
      vertex   1.903685e+003 3.730537e+002 -1.279250e+002
    endloop
  endfacet
  facet normal 7.082718e-002 9.970676e-001 2.897915e-002
    outer loop
      vertex   1.907428e+003 3.730534e+002 -1.370625e+002
      vertex   1.911171e+003 3.730531e+002 -1.462000e+002
      vertex   1.900140e+003 3.738367e+002 -1.462000e+002
    endloop
  endfacet
  facet normal 1.327828e-001 9.895054e-001 5.699026e-002
    outer loop
      vertex   1.889147e+003 3.750454e+002 -1.462000e+002
      vertex   1.878182e+003 3.765169e+002 -1.462000e+002
      vertex   1.878183e+003 3.759905e+002 -1.370625e+002
    endloop
  endfacet
  facet normal 1.446809e-001 9.876513e-001 6.010363e-002
    outer loop
      vertex   1.863492e+003 3.780996e+002 -1.370625e+002
      vertex   1.859753e+003 3.780913e+002 -1.279250e+002
      vertex   1.864782e+003 3.773546e+002 -1.279250e+002
    endloop
  endfacet
  facet normal 1.445996e-001 9.876652e-001 6.007038e-002
    outer loop
      vertex   1.859753e+003 3.780913e+002 -1.279250e+002
      vertex   1.856013e+003 3.780831e+002 -1.187875e+002
      vertex   1.861039e+003 3.773473e+002 -1.187875e+002
    endloop
  endfacet
  facet normal 1.445184e-001 9.876791e-001 6.003715e-002
    outer loop
      vertex   1.856013e+003 3.780831e+002 -1.187875e+002
      vertex   1.852274e+003 3.780748e+002 -1.096500e+002
      vertex   1.857296e+003 3.773399e+002 -1.096500e+002
    endloop
  endfacet
  facet normal 1.444372e-001 9.876930e-001 6.000392e-002
    outer loop
      vertex   1.852274e+003 3.780748e+002 -1.096500e+002
      vertex   1.848534e+003 3.780666e+002 -1.005125e+002
      vertex   1.853553e+003 3.773326e+002 -1.005125e+002
    endloop
  endfacet
  facet normal 1.443559e-001 9.877069e-001 5.997069e-002
    outer loop
      vertex   1.848534e+003 3.780666e+002 -1.005125e+002
      vertex   1.844794e+003 3.780583e+002 -9.137500e+001
      vertex   1.849810e+003 3.773253e+002 -9.137500e+001
    endloop
  endfacet
  facet normal 1.442747e-001 9.877208e-001 5.993747e-002
    outer loop
      vertex   1.844794e+003 3.780583e+002 -9.137500e+001
      vertex   1.841055e+003 3.780501e+002 -8.223750e+001
      vertex   1.846067e+003 3.773179e+002 -8.223750e+001
    endloop
  endfacet
  facet normal 1.441935e-001 9.877346e-001 5.990426e-002
    outer loop
      vertex   1.841055e+003 3.780501e+002 -8.223750e+001
      vertex   1.837315e+003 3.780418e+002 -7.310000e+001
      vertex   1.842324e+003 3.773106e+002 -7.310000e+001
    endloop
  endfacet
  facet normal 1.441124e-001 9.877485e-001 5.987105e-002
    outer loop
      vertex   1.837315e+003 3.780418e+002 -7.310000e+001
      vertex   1.833576e+003 3.780336e+002 -6.396250e+001
      vertex   1.838581e+003 3.773032e+002 -6.396250e+001
    endloop
  endfacet
  facet normal 1.440312e-001 9.877623e-001 5.983784e-002
    outer loop
      vertex   1.833576e+003 3.780336e+002 -6.396250e+001
      vertex   1.829836e+003 3.780253e+002 -5.482500e+001
      vertex   1.834838e+003 3.772959e+002 -5.482500e+001
    endloop
  endfacet
  facet normal 1.439501e-001 9.877762e-001 5.980464e-002
    outer loop
      vertex   1.829836e+003 3.780253e+002 -5.482500e+001
      vertex   1.826097e+003 3.780171e+002 -4.568750e+001
      vertex   1.831095e+003 3.772886e+002 -4.568750e+001
    endloop
  endfacet
  facet normal 1.438689e-001 9.877900e-001 5.977145e-002
    outer loop
      vertex   1.826097e+003 3.780171e+002 -4.568750e+001
      vertex   1.822357e+003 3.780088e+002 -3.655000e+001
      vertex   1.827352e+003 3.772812e+002 -3.655000e+001
    endloop
  endfacet
  facet normal 1.437878e-001 9.878038e-001 5.973827e-002
    outer loop
      vertex   1.822357e+003 3.780088e+002 -3.655000e+001
      vertex   1.818617e+003 3.780006e+002 -2.741250e+001
      vertex   1.823610e+003 3.772739e+002 -2.741250e+001
    endloop
  endfacet
  facet normal 1.437067e-001 9.878176e-001 5.970508e-002
    outer loop
      vertex   1.818617e+003 3.780006e+002 -2.741250e+001
      vertex   1.814878e+003 3.779923e+002 -1.827500e+001
      vertex   1.819867e+003 3.772665e+002 -1.827500e+001
    endloop
  endfacet
  facet normal 1.052690e-001 9.935207e-001 4.283868e-002
    outer loop
      vertex   1.829288e+003 3.749825e+002 0.000000e+000
      vertex   1.840268e+003 3.738191e+002 0.000000e+000
      vertex   1.843352e+003 3.738170e+002 -7.528857e+000
    endloop
  endfacet
  facet normal -1.616975e-015 0.000000e+000 -1.000000e+000
    outer loop
      vertex   1.867232e+003 3.703227e+002 -1.462000e+002
      vertex   1.867232e+003 3.742153e+002 -1.462000e+002
      vertex   1.878218e+003 3.708427e+002 -1.462000e+002
    endloop
  endfacet
  facet normal -6.571558e-016 3.126480e-015 -1.000000e+000
    outer loop
      vertex   1.878218e+003 3.708427e+002 -1.462000e+002
      vertex   1.867232e+003 3.742153e+002 -1.462000e+002
      vertex   1.878182e+003 3.765169e+002 -1.462000e+002
    endloop
  endfacet
  facet normal 2.041765e-015 3.143410e-015 -1.000000e+000
    outer loop
      vertex   1.889147e+003 3.750454e+002 -1.462000e+002
      vertex   1.878218e+003 3.708427e+002 -1.462000e+002
      vertex   1.878182e+003 3.765169e+002 -1.462000e+002
    endloop
  endfacet
  facet normal 1.394795e-015 4.825980e-015 -1.000000e+000
    outer loop
      vertex   1.889147e+003 3.750454e+002 -1.462000e+002
      vertex   1.889204e+003 3.713482e+002 -1.462000e+002
      vertex   1.878218e+003 3.708427e+002 -1.462000e+002
    endloop
  endfacet
  facet normal 5.291782e-016 4.812743e-015 -1.000000e+000
    outer loop
      vertex   1.889147e+003 3.750454e+002 -1.462000e+002
      vertex   1.900140e+003 3.738367e+002 -1.462000e+002
      vertex   1.889204e+003 3.713482e+002 -1.462000e+002
    endloop
  endfacet
  facet normal -2.475862e-015 1.801935e-014 -1.000000e+000
    outer loop
      vertex   1.889204e+003 3.713482e+002 -1.462000e+002
      vertex   1.900140e+003 3.738367e+002 -1.462000e+002
      vertex   1.900190e+003 3.718719e+002 -1.462000e+002
    endloop
  endfacet
  facet normal 0.000000e+000 0.000000e+000 -1.000000e+000
    outer loop
      vertex   1.867232e+003 3.742153e+002 -1.462000e+002
      vertex   1.867232e+003 3.781079e+002 -1.462000e+002
      vertex   1.878182e+003 3.765169e+002 -1.462000e+002
    endloop
  endfacet
  facet normal -3.265196e-016 1.807317e-014 -1.000000e+000
    outer loop
      vertex   1.900140e+003 3.738367e+002 -1.462000e+002
      vertex   1.911171e+003 3.730531e+002 -1.462000e+002
      vertex   1.900190e+003 3.718719e+002 -1.462000e+002
    endloop
  endfacet
  facet normal 1.617572e-015 -8.342902e-026 -1.000000e+000
    outer loop
      vertex   1.900190e+003 3.718719e+002 -1.462000e+002
      vertex   1.911171e+003 3.730531e+002 -1.462000e+002
      vertex   1.911171e+003 3.727611e+002 -1.462000e+002
    endloop
  endfacet
  facet normal 1.617572e-015 -8.185489e-026 -1.000000e+000
    outer loop
      vertex   1.911171e+003 3.724690e+002 -1.462000e+002
      vertex   1.900190e+003 3.718719e+002 -1.462000e+002
      vertex   1.911171e+003 3.727611e+002 -1.462000e+002
    endloop
  endfacet
  facet normal -0.000000e+000 0.000000e+000 1.000000e+000
    outer loop
      vertex   1.807399e+003 3.779758e+002 0.000000e+000
      vertex   1.807399e+003 3.741237e+002 0.000000e+000
      vertex   1.818335e+003 3.764086e+002 0.000000e+000
    endloop
  endfacet
  facet normal 0.000000e+000 0.000000e+000 1.000000e+000
    outer loop
      vertex   1.818335e+003 3.764086e+002 0.000000e+000
      vertex   1.807399e+003 3.741237e+002 0.000000e+000
      vertex   1.818371e+003 3.707867e+002 0.000000e+000
    endloop
  endfacet
  facet normal -0.000000e+000 0.000000e+000 1.000000e+000
    outer loop
      vertex   1.829288e+003 3.749825e+002 0.000000e+000
      vertex   1.818371e+003 3.707867e+002 0.000000e+000
      vertex   1.829344e+003 3.712906e+002 0.000000e+000
    endloop
  endfacet
  facet normal -0.000000e+000 0.000000e+000 1.000000e+000
    outer loop
      vertex   1.840268e+003 3.738191e+002 0.000000e+000
      vertex   1.829344e+003 3.712906e+002 0.000000e+000
      vertex   1.840316e+003 3.718197e+002 0.000000e+000
    endloop
  endfacet
  facet normal -0.000000e+000 0.000000e+000 1.000000e+000
    outer loop
      vertex   1.851284e+003 3.730580e+002 0.000000e+000
      vertex   1.840316e+003 3.718197e+002 0.000000e+000
      vertex   1.851284e+003 3.724201e+002 0.000000e+000
    endloop
  endfacet
  facet normal 0.000000e+000 0.000000e+000 1.000000e+000
    outer loop
      vertex   1.851284e+003 3.730580e+002 0.000000e+000
      vertex   1.840268e+003 3.738191e+002 0.000000e+000
      vertex   1.840316e+003 3.718197e+002 0.000000e+000
    endloop
  endfacet
  facet normal -0.000000e+000 0.000000e+000 1.000000e+000
    outer loop
      vertex   1.807399e+003 3.741237e+002 0.000000e+000
      vertex   1.807399e+003 3.702717e+002 0.000000e+000
      vertex   1.818371e+003 3.707867e+002 0.000000e+000
    endloop
  endfacet
  facet normal 0.000000e+000 0.000000e+000 1.000000e+000
    outer loop
      vertex   1.840268e+003 3.738191e+002 0.000000e+000
      vertex   1.829288e+003 3.749825e+002 0.000000e+000
      vertex   1.829344e+003 3.712906e+002 0.000000e+000
    endloop
  endfacet
  facet normal 0.000000e+000 0.000000e+000 1.000000e+000
    outer loop
      vertex   1.829288e+003 3.749825e+002 0.000000e+000
      vertex   1.818335e+003 3.764086e+002 0.000000e+000
      vertex   1.818371e+003 3.707867e+002 0.000000e+000
    endloop
  endfacet
  facet normal -9.254935e-001 -2.451827e-006 -3.787634e-001
    outer loop
      vertex   1.807399e+003 3.702717e+002 0.000000e+000
      vertex   1.807399e+003 3.741237e+002 0.000000e+000
      vertex   1.811138e+003 3.702748e+002 -9.137500e+000
    endloop
  endfacet
  facet normal -9.254935e-001 -2.297078e-006 -3.787635e-001
    outer loop
      vertex   1.811138e+003 3.702748e+002 -9.137500e+000
      vertex   1.807399e+003 3.741237e+002 0.000000e+000
      vertex   1.811138e+003 3.741294e+002 -9.137500e+000
    endloop
  endfacet
  facet normal -9.254935e-001 -2.142532e-006 -3.787635e-001
    outer loop
      vertex   1.814878e+003 3.702780e+002 -1.827500e+001
      vertex   1.811138e+003 3.741294e+002 -9.137500e+000
      vertex   1.814878e+003 3.741352e+002 -1.827500e+001
    endloop
  endfacet
  facet normal -9.254935e-001 -1.988189e-006 -3.787635e-001
    outer loop
      vertex   1.818617e+003 3.702812e+002 -2.741250e+001
      vertex   1.814878e+003 3.741352e+002 -1.827500e+001
      vertex   1.818617e+003 3.741409e+002 -2.741250e+001
    endloop
  endfacet
  facet normal -9.254935e-001 -1.834048e-006 -3.787635e-001
    outer loop
      vertex   1.822357e+003 3.702844e+002 -3.655000e+001
      vertex   1.818617e+003 3.741409e+002 -2.741250e+001
      vertex   1.822357e+003 3.741466e+002 -3.655000e+001
    endloop
  endfacet
  facet normal -9.254935e-001 -1.680110e-006 -3.787635e-001
    outer loop
      vertex   1.826097e+003 3.702876e+002 -4.568750e+001
      vertex   1.822357e+003 3.741466e+002 -3.655000e+001
      vertex   1.826097e+003 3.741523e+002 -4.568750e+001
    endloop
  endfacet
  facet normal -9.254935e-001 -1.526373e-006 -3.787635e-001
    outer loop
      vertex   1.829836e+003 3.702908e+002 -5.482500e+001
      vertex   1.826097e+003 3.741523e+002 -4.568750e+001
      vertex   1.829836e+003 3.741581e+002 -5.482500e+001
    endloop
  endfacet
  facet normal -9.254935e-001 -1.372837e-006 -3.787635e-001
    outer loop
      vertex   1.833576e+003 3.702940e+002 -6.396250e+001
      vertex   1.829836e+003 3.741581e+002 -5.482500e+001
      vertex   1.833576e+003 3.741638e+002 -6.396250e+001
    endloop
  endfacet
  facet normal -9.254935e-001 -1.219501e-006 -3.787635e-001
    outer loop
      vertex   1.837315e+003 3.702972e+002 -7.310000e+001
      vertex   1.833576e+003 3.741638e+002 -6.396250e+001
      vertex   1.837315e+003 3.741695e+002 -7.310000e+001
    endloop
  endfacet
  facet normal -9.254935e-001 -1.066366e-006 -3.787635e-001
    outer loop
      vertex   1.841055e+003 3.703004e+002 -8.223750e+001
      vertex   1.837315e+003 3.741695e+002 -7.310000e+001
      vertex   1.841055e+003 3.741752e+002 -8.223750e+001
    endloop
  endfacet
  facet normal -9.254935e-001 -9.134317e-007 -3.787635e-001
    outer loop
      vertex   1.844794e+003 3.703036e+002 -9.137500e+001
      vertex   1.841055e+003 3.741752e+002 -8.223750e+001
      vertex   1.844794e+003 3.741809e+002 -9.137500e+001
    endloop
  endfacet
  facet normal -9.254935e-001 -7.606964e-007 -3.787635e-001
    outer loop
      vertex   1.848534e+003 3.703068e+002 -1.005125e+002
      vertex   1.844794e+003 3.741809e+002 -9.137500e+001
      vertex   1.848534e+003 3.741867e+002 -1.005125e+002
    endloop
  endfacet
  facet normal -9.254935e-001 -6.081603e-007 -3.787635e-001
    outer loop
      vertex   1.852274e+003 3.703099e+002 -1.096500e+002
      vertex   1.848534e+003 3.741867e+002 -1.005125e+002
      vertex   1.852274e+003 3.741924e+002 -1.096500e+002
    endloop
  endfacet
  facet normal -9.254935e-001 -4.558231e-007 -3.787635e-001
    outer loop
      vertex   1.856013e+003 3.703131e+002 -1.187875e+002
      vertex   1.852274e+003 3.741924e+002 -1.096500e+002
      vertex   1.856013e+003 3.741981e+002 -1.187875e+002
    endloop
  endfacet
  facet normal -9.254935e-001 -3.036841e-007 -3.787635e-001
    outer loop
      vertex   1.859753e+003 3.703163e+002 -1.279250e+002
      vertex   1.856013e+003 3.741981e+002 -1.187875e+002
      vertex   1.859753e+003 3.742038e+002 -1.279250e+002
    endloop
  endfacet
  facet normal -9.254935e-001 -1.517433e-007 -3.787635e-001
    outer loop
      vertex   1.863492e+003 3.703195e+002 -1.370625e+002
      vertex   1.859753e+003 3.742038e+002 -1.279250e+002
      vertex   1.863492e+003 3.742096e+002 -1.370625e+002
    endloop
  endfacet
  facet normal -9.254935e-001 0.000000e+000 -3.787635e-001
    outer loop
      vertex   1.867232e+003 3.703227e+002 -1.462000e+002
      vertex   1.863492e+003 3.742096e+002 -1.370625e+002
      vertex   1.867232e+003 3.742153e+002 -1.462000e+002
    endloop
  endfacet
  facet normal -9.254935e-001 -1.517433e-007 -3.787634e-001
    outer loop
      vertex   1.867232e+003 3.703227e+002 -1.462000e+002
      vertex   1.863492e+003 3.703195e+002 -1.370625e+002
      vertex   1.863492e+003 3.742096e+002 -1.370625e+002
    endloop
  endfacet
  facet normal -9.254935e-001 -2.451827e-006 -3.787635e-001
    outer loop
      vertex   1.807399e+003 3.741237e+002 0.000000e+000
      vertex   1.807399e+003 3.779758e+002 0.000000e+000
      vertex   1.811138e+003 3.741294e+002 -9.137500e+000
    endloop
  endfacet
  facet normal -9.254935e-001 -2.297078e-006 -3.787635e-001
    outer loop
      vertex   1.811138e+003 3.741294e+002 -9.137500e+000
      vertex   1.807399e+003 3.779758e+002 0.000000e+000
      vertex   1.811138e+003 3.779840e+002 -9.137500e+000
    endloop
  endfacet
  facet normal -9.254935e-001 -2.142532e-006 -3.787635e-001
    outer loop
      vertex   1.814878e+003 3.741352e+002 -1.827500e+001
      vertex   1.811138e+003 3.779840e+002 -9.137500e+000
      vertex   1.814878e+003 3.779923e+002 -1.827500e+001
    endloop
  endfacet
  facet normal -9.254935e-001 -1.988189e-006 -3.787635e-001
    outer loop
      vertex   1.818617e+003 3.741409e+002 -2.741250e+001
      vertex   1.814878e+003 3.779923e+002 -1.827500e+001
      vertex   1.818617e+003 3.780006e+002 -2.741250e+001
    endloop
  endfacet
  facet normal -9.254935e-001 -1.834048e-006 -3.787635e-001
    outer loop
      vertex   1.822357e+003 3.741466e+002 -3.655000e+001
      vertex   1.818617e+003 3.780006e+002 -2.741250e+001
      vertex   1.822357e+003 3.780088e+002 -3.655000e+001
    endloop
  endfacet
  facet normal -9.254935e-001 -1.680110e-006 -3.787635e-001
    outer loop
      vertex   1.826097e+003 3.741523e+002 -4.568750e+001
      vertex   1.822357e+003 3.780088e+002 -3.655000e+001
      vertex   1.826097e+003 3.780171e+002 -4.568750e+001
    endloop
  endfacet
  facet normal -9.254935e-001 -1.526373e-006 -3.787635e-001
    outer loop
      vertex   1.829836e+003 3.741581e+002 -5.482500e+001
      vertex   1.826097e+003 3.780171e+002 -4.568750e+001
      vertex   1.829836e+003 3.780253e+002 -5.482500e+001
    endloop
  endfacet
  facet normal -9.254935e-001 -1.372837e-006 -3.787635e-001
    outer loop
      vertex   1.833576e+003 3.741638e+002 -6.396250e+001
      vertex   1.829836e+003 3.780253e+002 -5.482500e+001
      vertex   1.833576e+003 3.780336e+002 -6.396250e+001
    endloop
  endfacet
  facet normal -9.254935e-001 -1.219501e-006 -3.787635e-001
    outer loop
      vertex   1.837315e+003 3.741695e+002 -7.310000e+001
      vertex   1.833576e+003 3.780336e+002 -6.396250e+001
      vertex   1.837315e+003 3.780418e+002 -7.310000e+001
    endloop
  endfacet
  facet normal -9.254935e-001 -1.066367e-006 -3.787635e-001
    outer loop
      vertex   1.841055e+003 3.741752e+002 -8.223750e+001
      vertex   1.837315e+003 3.780418e+002 -7.310000e+001
      vertex   1.841055e+003 3.780501e+002 -8.223750e+001
    endloop
  endfacet
  facet normal -9.254935e-001 -9.134317e-007 -3.787635e-001
    outer loop
      vertex   1.844794e+003 3.741809e+002 -9.137500e+001
      vertex   1.841055e+003 3.780501e+002 -8.223750e+001
      vertex   1.844794e+003 3.780583e+002 -9.137500e+001
    endloop
  endfacet
  facet normal -9.254935e-001 -7.606964e-007 -3.787635e-001
    outer loop
      vertex   1.848534e+003 3.741867e+002 -1.005125e+002
      vertex   1.844794e+003 3.780583e+002 -9.137500e+001
      vertex   1.848534e+003 3.780666e+002 -1.005125e+002
    endloop
  endfacet
  facet normal -9.254935e-001 -6.081603e-007 -3.787635e-001
    outer loop
      vertex   1.852274e+003 3.741924e+002 -1.096500e+002
      vertex   1.848534e+003 3.780666e+002 -1.005125e+002
      vertex   1.852274e+003 3.780748e+002 -1.096500e+002
    endloop
  endfacet
  facet normal -9.254935e-001 -4.558230e-007 -3.787635e-001
    outer loop
      vertex   1.856013e+003 3.741981e+002 -1.187875e+002
      vertex   1.852274e+003 3.780748e+002 -1.096500e+002
      vertex   1.856013e+003 3.780831e+002 -1.187875e+002
    endloop
  endfacet
  facet normal -9.254935e-001 -3.036841e-007 -3.787635e-001
    outer loop
      vertex   1.859753e+003 3.742038e+002 -1.279250e+002
      vertex   1.856013e+003 3.780831e+002 -1.187875e+002
      vertex   1.859753e+003 3.780913e+002 -1.279250e+002
    endloop
  endfacet
  facet normal -9.254935e-001 -1.517431e-007 -3.787635e-001
    outer loop
      vertex   1.863492e+003 3.742096e+002 -1.370625e+002
      vertex   1.859753e+003 3.780913e+002 -1.279250e+002
      vertex   1.863492e+003 3.780996e+002 -1.370625e+002
    endloop
  endfacet
  facet normal -9.254935e-001 0.000000e+000 -3.787635e-001
    outer loop
      vertex   1.867232e+003 3.742153e+002 -1.462000e+002
      vertex   1.863492e+003 3.780996e+002 -1.370625e+002
      vertex   1.867232e+003 3.781079e+002 -1.462000e+002
    endloop
  endfacet
  facet normal -9.254935e-001 -1.517431e-007 -3.787635e-001
    outer loop
      vertex   1.867232e+003 3.742153e+002 -1.462000e+002
      vertex   1.863492e+003 3.742096e+002 -1.370625e+002
      vertex   1.863492e+003 3.780996e+002 -1.370625e+002
    endloop
  endfacet
  facet normal -9.254935e-001 -3.036841e-007 -3.787634e-001
    outer loop
      vertex   1.863492e+003 3.703195e+002 -1.370625e+002
      vertex   1.859753e+003 3.703163e+002 -1.279250e+002
      vertex   1.859753e+003 3.742038e+002 -1.279250e+002
    endloop
  endfacet
  facet normal -9.254935e-001 -4.558231e-007 -3.787634e-001
    outer loop
      vertex   1.859753e+003 3.703163e+002 -1.279250e+002
      vertex   1.856013e+003 3.703131e+002 -1.187875e+002
      vertex   1.856013e+003 3.741981e+002 -1.187875e+002
    endloop
  endfacet
  facet normal -9.254935e-001 -6.081603e-007 -3.787634e-001
    outer loop
      vertex   1.856013e+003 3.703131e+002 -1.187875e+002
      vertex   1.852274e+003 3.703099e+002 -1.096500e+002
      vertex   1.852274e+003 3.741924e+002 -1.096500e+002
    endloop
  endfacet
  facet normal -9.254935e-001 -7.606964e-007 -3.787634e-001
    outer loop
      vertex   1.852274e+003 3.703099e+002 -1.096500e+002
      vertex   1.848534e+003 3.703068e+002 -1.005125e+002
      vertex   1.848534e+003 3.741867e+002 -1.005125e+002
    endloop
  endfacet
  facet normal -9.254935e-001 -9.134317e-007 -3.787634e-001
    outer loop
      vertex   1.848534e+003 3.703068e+002 -1.005125e+002
      vertex   1.844794e+003 3.703036e+002 -9.137500e+001
      vertex   1.844794e+003 3.741809e+002 -9.137500e+001
    endloop
  endfacet
  facet normal -9.254935e-001 -1.066367e-006 -3.787634e-001
    outer loop
      vertex   1.844794e+003 3.703036e+002 -9.137500e+001
      vertex   1.841055e+003 3.703004e+002 -8.223750e+001
      vertex   1.841055e+003 3.741752e+002 -8.223750e+001
    endloop
  endfacet
  facet normal -9.254935e-001 -1.219501e-006 -3.787634e-001
    outer loop
      vertex   1.841055e+003 3.703004e+002 -8.223750e+001
      vertex   1.837315e+003 3.702972e+002 -7.310000e+001
      vertex   1.837315e+003 3.741695e+002 -7.310000e+001
    endloop
  endfacet
  facet normal -9.254935e-001 -1.372837e-006 -3.787634e-001
    outer loop
      vertex   1.837315e+003 3.702972e+002 -7.310000e+001
      vertex   1.833576e+003 3.702940e+002 -6.396250e+001
      vertex   1.833576e+003 3.741638e+002 -6.396250e+001
    endloop
  endfacet
  facet normal -9.254935e-001 -1.526373e-006 -3.787634e-001
    outer loop
      vertex   1.833576e+003 3.702940e+002 -6.396250e+001
      vertex   1.829836e+003 3.702908e+002 -5.482500e+001
      vertex   1.829836e+003 3.741581e+002 -5.482500e+001
    endloop
  endfacet
  facet normal -9.254935e-001 -1.680110e-006 -3.787634e-001
    outer loop
      vertex   1.829836e+003 3.702908e+002 -5.482500e+001
      vertex   1.826097e+003 3.702876e+002 -4.568750e+001
      vertex   1.826097e+003 3.741523e+002 -4.568750e+001
    endloop
  endfacet
  facet normal -9.254935e-001 -1.834048e-006 -3.787634e-001
    outer loop
      vertex   1.826097e+003 3.702876e+002 -4.568750e+001
      vertex   1.822357e+003 3.702844e+002 -3.655000e+001
      vertex   1.822357e+003 3.741466e+002 -3.655000e+001
    endloop
  endfacet
  facet normal -9.254935e-001 -1.988189e-006 -3.787634e-001
    outer loop
      vertex   1.822357e+003 3.702844e+002 -3.655000e+001
      vertex   1.818617e+003 3.702812e+002 -2.741250e+001
      vertex   1.818617e+003 3.741409e+002 -2.741250e+001
    endloop
  endfacet
  facet normal -9.254935e-001 -2.142532e-006 -3.787634e-001
    outer loop
      vertex   1.818617e+003 3.702812e+002 -2.741250e+001
      vertex   1.814878e+003 3.702780e+002 -1.827500e+001
      vertex   1.814878e+003 3.741352e+002 -1.827500e+001
    endloop
  endfacet
  facet normal -9.254935e-001 -2.297078e-006 -3.787634e-001
    outer loop
      vertex   1.814878e+003 3.702780e+002 -1.827500e+001
      vertex   1.811138e+003 3.702748e+002 -9.137500e+000
      vertex   1.811138e+003 3.741294e+002 -9.137500e+000
    endloop
  endfacet
  facet normal -9.254935e-001 -2.297078e-006 -3.787635e-001
    outer loop
      vertex   1.811138e+003 3.741294e+002 -9.137500e+000
      vertex   1.811138e+003 3.779840e+002 -9.137500e+000
      vertex   1.814878e+003 3.741352e+002 -1.827500e+001
    endloop
  endfacet
  facet normal -9.254935e-001 -2.142532e-006 -3.787635e-001
    outer loop
      vertex   1.814878e+003 3.741352e+002 -1.827500e+001
      vertex   1.814878e+003 3.779923e+002 -1.827500e+001
      vertex   1.818617e+003 3.741409e+002 -2.741250e+001
    endloop
  endfacet
  facet normal -9.254935e-001 -1.988189e-006 -3.787635e-001
    outer loop
      vertex   1.818617e+003 3.741409e+002 -2.741250e+001
      vertex   1.818617e+003 3.780006e+002 -2.741250e+001
      vertex   1.822357e+003 3.741466e+002 -3.655000e+001
    endloop
  endfacet
  facet normal -9.254935e-001 -1.834049e-006 -3.787635e-001
    outer loop
      vertex   1.822357e+003 3.741466e+002 -3.655000e+001
      vertex   1.822357e+003 3.780088e+002 -3.655000e+001
      vertex   1.826097e+003 3.741523e+002 -4.568750e+001
    endloop
  endfacet
  facet normal -9.254935e-001 -1.680110e-006 -3.787635e-001
    outer loop
      vertex   1.826097e+003 3.741523e+002 -4.568750e+001
      vertex   1.826097e+003 3.780171e+002 -4.568750e+001
      vertex   1.829836e+003 3.741581e+002 -5.482500e+001
    endloop
  endfacet
  facet normal -9.254935e-001 -1.526373e-006 -3.787635e-001
    outer loop
      vertex   1.829836e+003 3.741581e+002 -5.482500e+001
      vertex   1.829836e+003 3.780253e+002 -5.482500e+001
      vertex   1.833576e+003 3.741638e+002 -6.396250e+001
    endloop
  endfacet
  facet normal -9.254935e-001 -1.372837e-006 -3.787635e-001
    outer loop
      vertex   1.833576e+003 3.741638e+002 -6.396250e+001
      vertex   1.833576e+003 3.780336e+002 -6.396250e+001
      vertex   1.837315e+003 3.741695e+002 -7.310000e+001
    endloop
  endfacet
  facet normal -9.254935e-001 -1.219502e-006 -3.787635e-001
    outer loop
      vertex   1.837315e+003 3.741695e+002 -7.310000e+001
      vertex   1.837315e+003 3.780418e+002 -7.310000e+001
      vertex   1.841055e+003 3.741752e+002 -8.223750e+001
    endloop
  endfacet
  facet normal -9.254935e-001 -1.066367e-006 -3.787635e-001
    outer loop
      vertex   1.841055e+003 3.741752e+002 -8.223750e+001
      vertex   1.841055e+003 3.780501e+002 -8.223750e+001
      vertex   1.844794e+003 3.741809e+002 -9.137500e+001
    endloop
  endfacet
  facet normal -9.254935e-001 -9.134318e-007 -3.787635e-001
    outer loop
      vertex   1.844794e+003 3.741809e+002 -9.137500e+001
      vertex   1.844794e+003 3.780583e+002 -9.137500e+001
      vertex   1.848534e+003 3.741867e+002 -1.005125e+002
    endloop
  endfacet
  facet normal -9.254935e-001 -7.606964e-007 -3.787635e-001
    outer loop
      vertex   1.848534e+003 3.741867e+002 -1.005125e+002
      vertex   1.848534e+003 3.780666e+002 -1.005125e+002
      vertex   1.852274e+003 3.741924e+002 -1.096500e+002
    endloop
  endfacet
  facet normal -9.254935e-001 -6.081603e-007 -3.787635e-001
    outer loop
      vertex   1.852274e+003 3.741924e+002 -1.096500e+002
      vertex   1.852274e+003 3.780748e+002 -1.096500e+002
      vertex   1.856013e+003 3.741981e+002 -1.187875e+002
    endloop
  endfacet
  facet normal -9.254935e-001 -4.558231e-007 -3.787635e-001
    outer loop
      vertex   1.856013e+003 3.741981e+002 -1.187875e+002
      vertex   1.856013e+003 3.780831e+002 -1.187875e+002
      vertex   1.859753e+003 3.742038e+002 -1.279250e+002
    endloop
  endfacet
  facet normal -9.254935e-001 -3.036841e-007 -3.787635e-001
    outer loop
      vertex   1.859753e+003 3.742038e+002 -1.279250e+002
      vertex   1.859753e+003 3.780913e+002 -1.279250e+002
      vertex   1.863492e+003 3.742096e+002 -1.370625e+002
    endloop
  endfacet
  facet normal 9.253735e-001 -4.075445e-011 3.790565e-001
    outer loop
      vertex   1.903226e+003 3.730538e+002 -1.268042e+002
      vertex   1.903226e+003 3.727581e+002 -1.268042e+002
      vertex   1.903685e+003 3.730537e+002 -1.279250e+002
    endloop
  endfacet
  facet normal 9.253735e-001 -3.949296e-011 3.790565e-001
    outer loop
      vertex   1.903685e+003 3.730537e+002 -1.279250e+002
      vertex   1.903226e+003 3.727581e+002 -1.268042e+002
      vertex   1.907199e+003 3.730534e+002 -1.365021e+002
    endloop
  endfacet
  facet normal 9.253735e-001 -4.564712e-011 3.790565e-001
    outer loop
      vertex   1.907199e+003 3.730534e+002 -1.365021e+002
      vertex   1.903226e+003 3.727581e+002 -1.268042e+002
      vertex   1.907199e+003 3.727596e+002 -1.365021e+002
    endloop
  endfacet
  facet normal 9.253735e-001 -4.461109e-011 3.790565e-001
    outer loop
      vertex   1.907428e+003 3.730534e+002 -1.370625e+002
      vertex   1.907199e+003 3.727596e+002 -1.365021e+002
      vertex   1.911171e+003 3.730531e+002 -1.462000e+002
    endloop
  endfacet
  facet normal 9.253735e-001 -4.564747e-011 3.790565e-001
    outer loop
      vertex   1.907428e+003 3.730534e+002 -1.370625e+002
      vertex   1.907199e+003 3.730534e+002 -1.365021e+002
      vertex   1.907199e+003 3.727596e+002 -1.365021e+002
    endloop
  endfacet
  facet normal 9.253735e-001 4.075446e-011 3.790565e-001
    outer loop
      vertex   1.903226e+003 3.724625e+002 -1.268042e+002
      vertex   1.903685e+003 3.724629e+002 -1.279250e+002
      vertex   1.903226e+003 3.727581e+002 -1.268042e+002
    endloop
  endfacet
  facet normal 9.253735e-001 -4.170393e-011 3.790565e-001
    outer loop
      vertex   1.903226e+003 3.727581e+002 -1.268042e+002
      vertex   1.903685e+003 3.724629e+002 -1.279250e+002
      vertex   1.907199e+003 3.727596e+002 -1.365021e+002
    endloop
  endfacet
  facet normal 9.253735e-001 -4.206749e-011 3.790565e-001
    outer loop
      vertex   1.907199e+003 3.727596e+002 -1.365021e+002
      vertex   1.903685e+003 3.724629e+002 -1.279250e+002
      vertex   1.907199e+003 3.724658e+002 -1.365021e+002
    endloop
  endfacet
  facet normal 9.253735e-001 -4.206728e-011 3.790565e-001
    outer loop
      vertex   1.907428e+003 3.724659e+002 -1.370625e+002
      vertex   1.907199e+003 3.727596e+002 -1.365021e+002
      vertex   1.907199e+003 3.724658e+002 -1.365021e+002
    endloop
  endfacet
  facet normal 9.253735e-001 -4.206031e-011 3.790565e-001
    outer loop
      vertex   1.907428e+003 3.724659e+002 -1.370625e+002
      vertex   1.911171e+003 3.727611e+002 -1.462000e+002
      vertex   1.907199e+003 3.727596e+002 -1.365021e+002
    endloop
  endfacet
  facet normal 9.253735e-001 -4.682719e-011 3.790565e-001
    outer loop
      vertex   1.907428e+003 3.724659e+002 -1.370625e+002
      vertex   1.911171e+003 3.724690e+002 -1.462000e+002
      vertex   1.911171e+003 3.727611e+002 -1.462000e+002
    endloop
  endfacet
  facet normal 9.253735e-001 -4.772771e-011 3.790565e-001
    outer loop
      vertex   1.911171e+003 3.727611e+002 -1.462000e+002
      vertex   1.911171e+003 3.730531e+002 -1.462000e+002
      vertex   1.907199e+003 3.727596e+002 -1.365021e+002
    endloop
  endfacet
endsolid
