solid ascii
  facet normal 1.000000e+000 0.000000e+000 -0.000000e+000
    outer loop
      vertex   6.102079e+001 4.921260e-002 2.616234e+001
      vertex   6.102079e+001 4.921260e-002 2.647431e+001
      vertex   6.102079e+001 0.000000e+000 2.615681e+001
    endloop
  endfacet
  facet normal 1.000000e+000 0.000000e+000 -0.000000e+000
    outer loop
      vertex   6.102079e+001 0.000000e+000 2.615681e+001
      vertex   6.102079e+001 4.921260e-002 2.647431e+001
      vertex   6.102079e+001 0.000000e+000 2.647862e+001
    endloop
  endfacet
  facet normal 1.072346e-014 -1.000000e+000 0.000000e+000
    outer loop
      vertex   6.102079e+001 4.921260e-002 2.616234e+001
      vertex   6.117976e+001 4.921260e-002 2.616174e+001
      vertex   6.102079e+001 4.921260e-002 2.647431e+001
    endloop
  endfacet
  facet normal -7.004245e-015 -1.000000e+000 -9.015886e-015
    outer loop
      vertex   6.102079e+001 4.921260e-002 2.647431e+001
      vertex   6.117976e+001 4.921260e-002 2.616174e+001
      vertex   6.120170e+001 4.921260e-002 2.647376e+001
    endloop
  endfacet
  facet normal -2.378786e-015 -1.000000e+000 -9.341128e-015
    outer loop
      vertex   6.120170e+001 4.921260e-002 2.647376e+001
      vertex   6.117976e+001 4.921260e-002 2.616174e+001
      vertex   6.190706e+001 4.921260e-002 2.615902e+001
    endloop
  endfacet
  facet normal 1.789324e-015 -1.000000e+000 0.000000e+000
    outer loop
      vertex   6.190706e+001 4.921260e-002 2.647160e+001
      vertex   6.120170e+001 4.921260e-002 2.647376e+001
      vertex   6.190706e+001 4.921260e-002 2.615902e+001
    endloop
  endfacet
  facet normal -3.733966e-003 5.893066e-002 -9.982551e-001
    outer loop
      vertex   6.190706e+001 4.921260e-002 2.615902e+001
      vertex   6.117976e+001 4.921260e-002 2.616174e+001
      vertex   6.190705e+001 7.874016e-002 2.616077e+001
    endloop
  endfacet
  facet normal -5.488074e-003 1.022519e-001 -9.947434e-001
    outer loop
      vertex   6.190705e+001 7.874016e-002 2.616077e+001
      vertex   6.117976e+001 4.921260e-002 2.616174e+001
      vertex   6.117975e+001 7.874016e-002 2.616478e+001
    endloop
  endfacet
  facet normal -3.720861e-003 1.022534e-001 -9.947514e-001
    outer loop
      vertex   6.117975e+001 7.874016e-002 2.616478e+001
      vertex   6.117976e+001 4.921260e-002 2.616174e+001
      vertex   6.102079e+001 4.921260e-002 2.616234e+001
    endloop
  endfacet
  facet normal -3.700935e-003 1.450023e-001 -9.894244e-001
    outer loop
      vertex   6.045245e+001 7.874016e-002 2.616879e+001
      vertex   6.102079e+001 4.921260e-002 2.616234e+001
      vertex   6.045247e+001 3.937008e-002 2.616302e+001
    endloop
  endfacet
  facet normal -5.482495e-003 1.116526e-001 -9.937322e-001
    outer loop
      vertex   6.045245e+001 7.874016e-002 2.616879e+001
      vertex   6.117975e+001 7.874016e-002 2.616478e+001
      vertex   6.102079e+001 4.921260e-002 2.616234e+001
    endloop
  endfacet
  facet normal -3.128612e-003 1.116554e-001 -9.937421e-001
    outer loop
      vertex   6.102079e+001 4.921260e-002 2.616234e+001
      vertex   6.102079e+001 0.000000e+000 2.615681e+001
      vertex   6.045247e+001 3.937008e-002 2.616302e+001
    endloop
  endfacet
  facet normal -7.712845e-004 1.450043e-001 -9.894307e-001
    outer loop
      vertex   6.045247e+001 3.937008e-002 2.616302e+001
      vertex   6.102079e+001 0.000000e+000 2.615681e+001
      vertex   6.045248e+001 0.000000e+000 2.615725e+001
    endloop
  endfacet
  facet normal 0.000000e+000 -1.000000e+000 0.000000e+000
    outer loop
      vertex   6.045248e+001 0.000000e+000 2.615725e+001
      vertex   6.102079e+001 0.000000e+000 2.615681e+001
      vertex   6.047448e+001 0.000000e+000 2.636495e+001
    endloop
  endfacet
  facet normal 0.000000e+000 -1.000000e+000 0.000000e+000
    outer loop
      vertex   6.036031e+001 0.000000e+000 2.636495e+001
      vertex   6.045248e+001 0.000000e+000 2.615725e+001
      vertex   6.047448e+001 0.000000e+000 2.636495e+001
    endloop
  endfacet
  facet normal 0.000000e+000 -1.000000e+000 -0.000000e+000
    outer loop
      vertex   6.036031e+001 0.000000e+000 2.636495e+001
      vertex   5.991267e+001 0.000000e+000 2.615769e+001
      vertex   6.045248e+001 0.000000e+000 2.615725e+001
    endloop
  endfacet
  facet normal -0.000000e+000 -1.000000e+000 -0.000000e+000
    outer loop
      vertex   6.036031e+001 0.000000e+000 2.636495e+001
      vertex   5.985900e+001 0.000000e+000 2.647880e+001
      vertex   5.991267e+001 0.000000e+000 2.615769e+001
    endloop
  endfacet
  facet normal 0.000000e+000 -1.000000e+000 0.000000e+000
    outer loop
      vertex   6.036031e+001 0.000000e+000 2.636495e+001
      vertex   6.036028e+001 0.000000e+000 2.647866e+001
      vertex   5.985900e+001 0.000000e+000 2.647880e+001
    endloop
  endfacet
  facet normal 0.000000e+000 -1.000000e+000 0.000000e+000
    outer loop
      vertex   6.047446e+001 0.000000e+000 2.647862e+001
      vertex   6.047448e+001 0.000000e+000 2.636495e+001
      vertex   6.102079e+001 0.000000e+000 2.647862e+001
    endloop
  endfacet
  facet normal 0.000000e+000 -1.000000e+000 -0.000000e+000
    outer loop
      vertex   6.102079e+001 0.000000e+000 2.647862e+001
      vertex   6.047448e+001 0.000000e+000 2.636495e+001
      vertex   6.102079e+001 0.000000e+000 2.615681e+001
    endloop
  endfacet
  facet normal -0.000000e+000 -1.000000e+000 0.000000e+000
    outer loop
      vertex   5.991267e+001 0.000000e+000 2.615769e+001
      vertex   5.985900e+001 0.000000e+000 2.647880e+001
      vertex   5.937286e+001 0.000000e+000 2.615812e+001
    endloop
  endfacet
  facet normal 0.000000e+000 -1.000000e+000 0.000000e+000
    outer loop
      vertex   5.937286e+001 0.000000e+000 2.615812e+001
      vertex   5.985900e+001 0.000000e+000 2.647880e+001
      vertex   5.935771e+001 0.000000e+000 2.647894e+001
    endloop
  endfacet
  facet normal 0.000000e+000 -1.000000e+000 0.000000e+000
    outer loop
      vertex   5.885642e+001 0.000000e+000 2.647907e+001
      vertex   5.937286e+001 0.000000e+000 2.615812e+001
      vertex   5.935771e+001 0.000000e+000 2.647894e+001
    endloop
  endfacet
  facet normal 0.000000e+000 -1.000000e+000 -0.000000e+000
    outer loop
      vertex   5.885642e+001 0.000000e+000 2.647907e+001
      vertex   5.883305e+001 0.000000e+000 2.615856e+001
      vertex   5.937286e+001 0.000000e+000 2.615812e+001
    endloop
  endfacet
  facet normal 0.000000e+000 -1.000000e+000 -0.000000e+000
    outer loop
      vertex   5.885642e+001 0.000000e+000 2.647907e+001
      vertex   5.835515e+001 0.000000e+000 2.636495e+001
      vertex   5.883305e+001 0.000000e+000 2.615856e+001
    endloop
  endfacet
  facet normal -0.000000e+000 -1.000000e+000 -0.000000e+000
    outer loop
      vertex   5.885642e+001 0.000000e+000 2.647907e+001
      vertex   5.835513e+001 0.000000e+000 2.647921e+001
      vertex   5.835515e+001 0.000000e+000 2.636495e+001
    endloop
  endfacet
  facet normal -0.000000e+000 -1.000000e+000 0.000000e+000
    outer loop
      vertex   5.883305e+001 0.000000e+000 2.615856e+001
      vertex   5.835515e+001 0.000000e+000 2.636495e+001
      vertex   5.829323e+001 0.000000e+000 2.615900e+001
    endloop
  endfacet
  facet normal 0.000000e+000 -1.000000e+000 0.000000e+000
    outer loop
      vertex   5.829323e+001 0.000000e+000 2.615900e+001
      vertex   5.835515e+001 0.000000e+000 2.636495e+001
      vertex   5.824098e+001 0.000000e+000 2.636495e+001
    endloop
  endfacet
  facet normal 0.000000e+000 -1.000000e+000 0.000000e+000
    outer loop
      vertex   5.775300e+001 0.000000e+000 2.615940e+001
      vertex   5.824098e+001 0.000000e+000 2.636495e+001
      vertex   5.773825e+001 0.000000e+000 2.647953e+001
    endloop
  endfacet
  facet normal 0.000000e+000 -1.000000e+000 0.000000e+000
    outer loop
      vertex   5.723553e+001 0.000000e+000 2.647969e+001
      vertex   5.775300e+001 0.000000e+000 2.615940e+001
      vertex   5.773825e+001 0.000000e+000 2.647953e+001
    endloop
  endfacet
  facet normal 0.000000e+000 -1.000000e+000 -0.000000e+000
    outer loop
      vertex   5.723553e+001 0.000000e+000 2.647969e+001
      vertex   5.721277e+001 0.000000e+000 2.615981e+001
      vertex   5.775300e+001 0.000000e+000 2.615940e+001
    endloop
  endfacet
  facet normal -0.000000e+000 -1.000000e+000 -0.000000e+000
    outer loop
      vertex   5.723553e+001 0.000000e+000 2.647969e+001
      vertex   5.673280e+001 0.000000e+000 2.647985e+001
      vertex   5.721277e+001 0.000000e+000 2.615981e+001
    endloop
  endfacet
  facet normal -0.000000e+000 -1.000000e+000 0.000000e+000
    outer loop
      vertex   5.721277e+001 0.000000e+000 2.615981e+001
      vertex   5.673280e+001 0.000000e+000 2.647985e+001
      vertex   5.667254e+001 0.000000e+000 2.616021e+001
    endloop
  endfacet
  facet normal -0.000000e+000 -1.000000e+000 0.000000e+000
    outer loop
      vertex   5.667254e+001 0.000000e+000 2.616021e+001
      vertex   5.673280e+001 0.000000e+000 2.647985e+001
      vertex   5.623008e+001 0.000000e+000 2.636495e+001
    endloop
  endfacet
  facet normal 0.000000e+000 -1.000000e+000 0.000000e+000
    outer loop
      vertex   5.613231e+001 0.000000e+000 2.616062e+001
      vertex   5.623008e+001 0.000000e+000 2.636495e+001
      vertex   5.611590e+001 0.000000e+000 2.636495e+001
    endloop
  endfacet
  facet normal 0.000000e+000 -1.000000e+000 0.000000e+000
    outer loop
      vertex   5.560082e+001 0.000000e+000 2.616107e+001
      vertex   5.611590e+001 0.000000e+000 2.636495e+001
      vertex   5.561506e+001 0.000000e+000 2.648022e+001
    endloop
  endfacet
  facet normal 0.000000e+000 -1.000000e+000 0.000000e+000
    outer loop
      vertex   5.511423e+001 0.000000e+000 2.648039e+001
      vertex   5.560082e+001 0.000000e+000 2.616107e+001
      vertex   5.561506e+001 0.000000e+000 2.648022e+001
    endloop
  endfacet
  facet normal 0.000000e+000 -1.000000e+000 -0.000000e+000
    outer loop
      vertex   5.511423e+001 0.000000e+000 2.648039e+001
      vertex   5.506932e+001 0.000000e+000 2.616153e+001
      vertex   5.560082e+001 0.000000e+000 2.616107e+001
    endloop
  endfacet
  facet normal -0.000000e+000 -1.000000e+000 -0.000000e+000
    outer loop
      vertex   5.511423e+001 0.000000e+000 2.648039e+001
      vertex   5.461340e+001 0.000000e+000 2.648055e+001
      vertex   5.506932e+001 0.000000e+000 2.616153e+001
    endloop
  endfacet
  facet normal -0.000000e+000 -1.000000e+000 0.000000e+000
    outer loop
      vertex   5.506932e+001 0.000000e+000 2.616153e+001
      vertex   5.461340e+001 0.000000e+000 2.648055e+001
      vertex   5.453782e+001 0.000000e+000 2.616199e+001
    endloop
  endfacet
  facet normal -0.000000e+000 -1.000000e+000 0.000000e+000
    outer loop
      vertex   5.453782e+001 0.000000e+000 2.616199e+001
      vertex   5.461340e+001 0.000000e+000 2.648055e+001
      vertex   5.411258e+001 0.000000e+000 2.636495e+001
    endloop
  endfacet
  facet normal 0.000000e+000 -1.000000e+000 0.000000e+000
    outer loop
      vertex   5.400633e+001 0.000000e+000 2.616244e+001
      vertex   5.411258e+001 0.000000e+000 2.636495e+001
      vertex   5.400628e+001 0.000000e+000 2.636495e+001
    endloop
  endfacet
  facet normal 0.000000e+000 -1.000000e+000 0.000000e+000
    outer loop
      vertex   5.400633e+001 0.000000e+000 2.616244e+001
      vertex   5.453782e+001 0.000000e+000 2.616199e+001
      vertex   5.411258e+001 0.000000e+000 2.636495e+001
    endloop
  endfacet
  facet normal 0.000000e+000 -1.000000e+000 0.000000e+000
    outer loop
      vertex   5.824098e+001 0.000000e+000 2.636495e+001
      vertex   5.824098e+001 0.000000e+000 2.647936e+001
      vertex   5.773825e+001 0.000000e+000 2.647953e+001
    endloop
  endfacet
  facet normal -0.000000e+000 -1.000000e+000 -0.000000e+000
    outer loop
      vertex   5.673280e+001 0.000000e+000 2.647985e+001
      vertex   5.623008e+001 0.000000e+000 2.648002e+001
      vertex   5.623008e+001 0.000000e+000 2.636495e+001
    endloop
  endfacet
  facet normal 0.000000e+000 -1.000000e+000 0.000000e+000
    outer loop
      vertex   5.611590e+001 0.000000e+000 2.636495e+001
      vertex   5.611589e+001 0.000000e+000 2.648006e+001
      vertex   5.561506e+001 0.000000e+000 2.648022e+001
    endloop
  endfacet
  facet normal -0.000000e+000 -1.000000e+000 -0.000000e+000
    outer loop
      vertex   5.461340e+001 0.000000e+000 2.648055e+001
      vertex   5.411257e+001 0.000000e+000 2.648071e+001
      vertex   5.411258e+001 0.000000e+000 2.636495e+001
    endloop
  endfacet
  facet normal 0.000000e+000 -1.000000e+000 0.000000e+000
    outer loop
      vertex   5.560082e+001 0.000000e+000 2.616107e+001
      vertex   5.613231e+001 0.000000e+000 2.616062e+001
      vertex   5.611590e+001 0.000000e+000 2.636495e+001
    endloop
  endfacet
  facet normal 0.000000e+000 -1.000000e+000 0.000000e+000
    outer loop
      vertex   5.613231e+001 0.000000e+000 2.616062e+001
      vertex   5.667254e+001 0.000000e+000 2.616021e+001
      vertex   5.623008e+001 0.000000e+000 2.636495e+001
    endloop
  endfacet
  facet normal 0.000000e+000 -1.000000e+000 0.000000e+000
    outer loop
      vertex   5.775300e+001 0.000000e+000 2.615940e+001
      vertex   5.829323e+001 0.000000e+000 2.615900e+001
      vertex   5.824098e+001 0.000000e+000 2.636495e+001
    endloop
  endfacet
  facet normal -0.000000e+000 1.000000e+000 0.000000e+000
    outer loop
      vertex   5.404136e+001 7.874016e-002 2.636507e+001
      vertex   5.414766e+001 7.874016e-002 2.636507e+001
      vertex   5.404144e+001 7.874016e-002 2.617394e+001
    endloop
  endfacet
  facet normal -0.000000e+000 1.000000e+000 0.000000e+000
    outer loop
      vertex   5.404144e+001 7.874016e-002 2.617394e+001
      vertex   5.414766e+001 7.874016e-002 2.636507e+001
      vertex   5.456531e+001 7.874016e-002 2.617351e+001
    endloop
  endfacet
  facet normal 0.000000e+000 1.000000e+000 -0.000000e+000
    outer loop
      vertex   5.456531e+001 7.874016e-002 2.617351e+001
      vertex   5.414766e+001 7.874016e-002 2.636507e+001
      vertex   5.464849e+001 7.874016e-002 2.647640e+001
    endloop
  endfacet
  facet normal 0.000000e+000 1.000000e+000 -0.000000e+000
    outer loop
      vertex   5.508918e+001 7.874016e-002 2.617308e+001
      vertex   5.464849e+001 7.874016e-002 2.647640e+001
      vertex   5.514932e+001 7.874016e-002 2.647640e+001
    endloop
  endfacet
  facet normal 0.000000e+000 1.000000e+000 -0.000000e+000
    outer loop
      vertex   5.561304e+001 7.874016e-002 2.617264e+001
      vertex   5.514932e+001 7.874016e-002 2.647640e+001
      vertex   5.565015e+001 7.874016e-002 2.647640e+001
    endloop
  endfacet
  facet normal 0.000000e+000 1.000000e+000 -0.000000e+000
    outer loop
      vertex   5.615098e+001 7.874016e-002 2.636507e+001
      vertex   5.565015e+001 7.874016e-002 2.647640e+001
      vertex   5.615098e+001 7.874016e-002 2.647640e+001
    endloop
  endfacet
  facet normal 0.000000e+000 1.000000e+000 -0.000000e+000
    outer loop
      vertex   5.615098e+001 7.874016e-002 2.636507e+001
      vertex   5.561304e+001 7.874016e-002 2.617264e+001
      vertex   5.565015e+001 7.874016e-002 2.647640e+001
    endloop
  endfacet
  facet normal 0.000000e+000 1.000000e+000 0.000000e+000
    outer loop
      vertex   5.615098e+001 7.874016e-002 2.636507e+001
      vertex   5.613691e+001 7.874016e-002 2.617221e+001
      vertex   5.561304e+001 7.874016e-002 2.617264e+001
    endloop
  endfacet
  facet normal -0.000000e+000 1.000000e+000 0.000000e+000
    outer loop
      vertex   5.615098e+001 7.874016e-002 2.636507e+001
      vertex   5.626516e+001 7.874016e-002 2.636507e+001
      vertex   5.613691e+001 7.874016e-002 2.617221e+001
    endloop
  endfacet
  facet normal -0.000000e+000 1.000000e+000 0.000000e+000
    outer loop
      vertex   5.613691e+001 7.874016e-002 2.617221e+001
      vertex   5.626516e+001 7.874016e-002 2.636507e+001
      vertex   5.668476e+001 7.874016e-002 2.617181e+001
    endloop
  endfacet
  facet normal 0.000000e+000 1.000000e+000 -0.000000e+000
    outer loop
      vertex   5.668476e+001 7.874016e-002 2.617181e+001
      vertex   5.626516e+001 7.874016e-002 2.636507e+001
      vertex   5.676788e+001 7.874016e-002 2.647619e+001
    endloop
  endfacet
  facet normal -0.000000e+000 1.000000e+000 -0.000000e+000
    outer loop
      vertex   5.723261e+001 7.874016e-002 2.617141e+001
      vertex   5.676788e+001 7.874016e-002 2.647619e+001
      vertex   5.727062e+001 7.874016e-002 2.647600e+001
    endloop
  endfacet
  facet normal 0.000000e+000 1.000000e+000 -0.000000e+000
    outer loop
      vertex   5.777335e+001 7.874016e-002 2.647581e+001
      vertex   5.723261e+001 7.874016e-002 2.617141e+001
      vertex   5.727062e+001 7.874016e-002 2.647600e+001
    endloop
  endfacet
  facet normal 0.000000e+000 1.000000e+000 0.000000e+000
    outer loop
      vertex   5.777335e+001 7.874016e-002 2.647581e+001
      vertex   5.778046e+001 7.874016e-002 2.617101e+001
      vertex   5.723261e+001 7.874016e-002 2.617141e+001
    endloop
  endfacet
  facet normal 0.000000e+000 1.000000e+000 0.000000e+000
    outer loop
      vertex   5.777335e+001 7.874016e-002 2.647581e+001
      vertex   5.827572e+001 7.874016e-002 2.636483e+001
      vertex   5.778046e+001 7.874016e-002 2.617101e+001
    endloop
  endfacet
  facet normal 0.000000e+000 1.000000e+000 0.000000e+000
    outer loop
      vertex   5.777335e+001 7.874016e-002 2.647581e+001
      vertex   5.827608e+001 7.874016e-002 2.647561e+001
      vertex   5.827572e+001 7.874016e-002 2.636483e+001
    endloop
  endfacet
  facet normal 0.000000e+000 1.000000e+000 0.000000e+000
    outer loop
      vertex   5.414766e+001 7.874016e-002 2.636507e+001
      vertex   5.414766e+001 7.874016e-002 2.647640e+001
      vertex   5.464849e+001 7.874016e-002 2.647640e+001
    endloop
  endfacet
  facet normal -0.000000e+000 1.000000e+000 -0.000000e+000
    outer loop
      vertex   5.626516e+001 7.874016e-002 2.636507e+001
      vertex   5.626515e+001 7.874016e-002 2.647638e+001
      vertex   5.676788e+001 7.874016e-002 2.647619e+001
    endloop
  endfacet
  facet normal -0.000000e+000 1.000000e+000 0.000000e+000
    outer loop
      vertex   5.778046e+001 7.874016e-002 2.617101e+001
      vertex   5.827572e+001 7.874016e-002 2.636483e+001
      vertex   5.832831e+001 7.874016e-002 2.617061e+001
    endloop
  endfacet
  facet normal 0.000000e+000 1.000000e+000 -0.000000e+000
    outer loop
      vertex   5.832831e+001 7.874016e-002 2.617061e+001
      vertex   5.827572e+001 7.874016e-002 2.636483e+001
      vertex   5.838990e+001 7.874016e-002 2.636483e+001
    endloop
  endfacet
  facet normal 0.000000e+000 1.000000e+000 -0.000000e+000
    outer loop
      vertex   5.885935e+001 7.874016e-002 2.617015e+001
      vertex   5.838990e+001 7.874016e-002 2.636483e+001
      vertex   5.889124e+001 7.874016e-002 2.647524e+001
    endloop
  endfacet
  facet normal 0.000000e+000 1.000000e+000 -0.000000e+000
    outer loop
      vertex   5.939258e+001 7.874016e-002 2.647503e+001
      vertex   5.885935e+001 7.874016e-002 2.617015e+001
      vertex   5.889124e+001 7.874016e-002 2.647524e+001
    endloop
  endfacet
  facet normal 0.000000e+000 1.000000e+000 0.000000e+000
    outer loop
      vertex   5.939258e+001 7.874016e-002 2.647503e+001
      vertex   5.939038e+001 7.874016e-002 2.616970e+001
      vertex   5.885935e+001 7.874016e-002 2.617015e+001
    endloop
  endfacet
  facet normal 0.000000e+000 1.000000e+000 0.000000e+000
    outer loop
      vertex   5.939258e+001 7.874016e-002 2.647503e+001
      vertex   5.989392e+001 7.874016e-002 2.647483e+001
      vertex   5.939038e+001 7.874016e-002 2.616970e+001
    endloop
  endfacet
  facet normal -0.000000e+000 1.000000e+000 0.000000e+000
    outer loop
      vertex   5.939038e+001 7.874016e-002 2.616970e+001
      vertex   5.989392e+001 7.874016e-002 2.647483e+001
      vertex   5.992142e+001 7.874016e-002 2.616925e+001
    endloop
  endfacet
  facet normal -0.000000e+000 1.000000e+000 -0.000000e+000
    outer loop
      vertex   5.992142e+001 7.874016e-002 2.616925e+001
      vertex   5.989392e+001 7.874016e-002 2.647483e+001
      vertex   6.039530e+001 7.874016e-002 2.636467e+001
    endloop
  endfacet
  facet normal 0.000000e+000 1.000000e+000 -0.000000e+000
    outer loop
      vertex   6.045245e+001 7.874016e-002 2.616879e+001
      vertex   6.039530e+001 7.874016e-002 2.636467e+001
      vertex   6.050947e+001 7.874016e-002 2.636467e+001
    endloop
  endfacet
  facet normal 0.000000e+000 1.000000e+000 -0.000000e+000
    outer loop
      vertex   6.117975e+001 7.874016e-002 2.616478e+001
      vertex   6.050947e+001 7.874016e-002 2.636467e+001
      vertex   6.120826e+001 7.874016e-002 2.647084e+001
    endloop
  endfacet
  facet normal 0.000000e+000 1.000000e+000 -0.000000e+000
    outer loop
      vertex   6.190705e+001 7.874016e-002 2.646738e+001
      vertex   6.117975e+001 7.874016e-002 2.616478e+001
      vertex   6.120826e+001 7.874016e-002 2.647084e+001
    endloop
  endfacet
  facet normal 0.000000e+000 1.000000e+000 0.000000e+000
    outer loop
      vertex   6.190705e+001 7.874016e-002 2.646738e+001
      vertex   6.190705e+001 7.874016e-002 2.616077e+001
      vertex   6.117975e+001 7.874016e-002 2.616478e+001
    endloop
  endfacet
  facet normal -0.000000e+000 1.000000e+000 0.000000e+000
    outer loop
      vertex   5.838990e+001 7.874016e-002 2.636483e+001
      vertex   5.838990e+001 7.874016e-002 2.647544e+001
      vertex   5.889124e+001 7.874016e-002 2.647524e+001
    endloop
  endfacet
  facet normal 0.000000e+000 1.000000e+000 0.000000e+000
    outer loop
      vertex   5.989392e+001 7.874016e-002 2.647483e+001
      vertex   6.039526e+001 7.874016e-002 2.647463e+001
      vertex   6.039530e+001 7.874016e-002 2.636467e+001
    endloop
  endfacet
  facet normal -0.000000e+000 1.000000e+000 0.000000e+000
    outer loop
      vertex   6.050947e+001 7.874016e-002 2.636467e+001
      vertex   6.050947e+001 7.874016e-002 2.647430e+001
      vertex   6.120826e+001 7.874016e-002 2.647084e+001
    endloop
  endfacet
  facet normal 0.000000e+000 1.000000e+000 -0.000000e+000
    outer loop
      vertex   6.117975e+001 7.874016e-002 2.616478e+001
      vertex   6.045245e+001 7.874016e-002 2.616879e+001
      vertex   6.050947e+001 7.874016e-002 2.636467e+001
    endloop
  endfacet
  facet normal 0.000000e+000 1.000000e+000 -0.000000e+000
    outer loop
      vertex   6.045245e+001 7.874016e-002 2.616879e+001
      vertex   5.992142e+001 7.874016e-002 2.616925e+001
      vertex   6.039530e+001 7.874016e-002 2.636467e+001
    endloop
  endfacet
  facet normal 0.000000e+000 1.000000e+000 -0.000000e+000
    outer loop
      vertex   5.885935e+001 7.874016e-002 2.617015e+001
      vertex   5.832831e+001 7.874016e-002 2.617061e+001
      vertex   5.838990e+001 7.874016e-002 2.636483e+001
    endloop
  endfacet
  facet normal 0.000000e+000 1.000000e+000 -0.000000e+000
    outer loop
      vertex   5.723261e+001 7.874016e-002 2.617141e+001
      vertex   5.668476e+001 7.874016e-002 2.617181e+001
      vertex   5.676788e+001 7.874016e-002 2.647619e+001
    endloop
  endfacet
  facet normal 0.000000e+000 1.000000e+000 -0.000000e+000
    outer loop
      vertex   5.561304e+001 7.874016e-002 2.617264e+001
      vertex   5.508918e+001 7.874016e-002 2.617308e+001
      vertex   5.514932e+001 7.874016e-002 2.647640e+001
    endloop
  endfacet
  facet normal 0.000000e+000 1.000000e+000 -0.000000e+000
    outer loop
      vertex   5.508918e+001 7.874016e-002 2.617308e+001
      vertex   5.456531e+001 7.874016e-002 2.617351e+001
      vertex   5.464849e+001 7.874016e-002 2.647640e+001
    endloop
  endfacet
  facet normal -9.132818e-001 4.073281e-001 -4.013483e-004
    outer loop
      vertex   5.404144e+001 7.874016e-002 2.617394e+001
      vertex   5.402389e+001 3.937008e-002 2.616819e+001
      vertex   5.404136e+001 7.874016e-002 2.636507e+001
    endloop
  endfacet
  facet normal -9.134593e-001 4.069299e-001 -3.059602e-004
    outer loop
      vertex   5.404136e+001 7.874016e-002 2.636507e+001
      vertex   5.402389e+001 3.937008e-002 2.616819e+001
      vertex   5.400628e+001 0.000000e+000 2.636495e+001
    endloop
  endfacet
  facet normal -9.132919e-001 4.073056e-001 -2.158215e-004
    outer loop
      vertex   5.400628e+001 0.000000e+000 2.636495e+001
      vertex   5.402389e+001 3.937008e-002 2.616819e+001
      vertex   5.400633e+001 0.000000e+000 2.616244e+001
    endloop
  endfacet
  facet normal -8.192020e-004 1.449166e-001 -9.894435e-001
    outer loop
      vertex   5.404144e+001 7.874016e-002 2.617394e+001
      vertex   5.456531e+001 7.874016e-002 2.617351e+001
      vertex   5.402389e+001 3.937008e-002 2.616819e+001
    endloop
  endfacet
  facet normal -8.338616e-004 1.451143e-001 -9.894145e-001
    outer loop
      vertex   5.402389e+001 3.937008e-002 2.616819e+001
      vertex   5.456531e+001 7.874016e-002 2.617351e+001
      vertex   5.455157e+001 3.937008e-002 2.616775e+001
    endloop
  endfacet
  facet normal -8.483339e-004 1.451192e-001 -9.894138e-001
    outer loop
      vertex   5.400633e+001 0.000000e+000 2.616244e+001
      vertex   5.455157e+001 3.937008e-002 2.616775e+001
      vertex   5.453782e+001 0.000000e+000 2.616199e+001
    endloop
  endfacet
  facet normal -8.338853e-004 1.449230e-001 -9.894426e-001
    outer loop
      vertex   5.400633e+001 0.000000e+000 2.616244e+001
      vertex   5.402389e+001 3.937008e-002 2.616819e+001
      vertex   5.455157e+001 3.937008e-002 2.616775e+001
    endloop
  endfacet
  facet normal -8.191786e-004 1.451093e-001 -9.894153e-001
    outer loop
      vertex   5.456531e+001 7.874016e-002 2.617351e+001
      vertex   5.508918e+001 7.874016e-002 2.617308e+001
      vertex   5.455157e+001 3.937008e-002 2.616775e+001
    endloop
  endfacet
  facet normal -8.338380e-004 1.453055e-001 -9.893865e-001
    outer loop
      vertex   5.455157e+001 3.937008e-002 2.616775e+001
      vertex   5.508918e+001 7.874016e-002 2.617308e+001
      vertex   5.507925e+001 3.937008e-002 2.616730e+001
    endloop
  endfacet
  facet normal -8.483100e-004 1.453091e-001 -9.893859e-001
    outer loop
      vertex   5.453782e+001 0.000000e+000 2.616199e+001
      vertex   5.507925e+001 3.937008e-002 2.616730e+001
      vertex   5.506932e+001 0.000000e+000 2.616153e+001
    endloop
  endfacet
  facet normal -8.338616e-004 1.451143e-001 -9.894145e-001
    outer loop
      vertex   5.453782e+001 0.000000e+000 2.616199e+001
      vertex   5.455157e+001 3.937008e-002 2.616775e+001
      vertex   5.507925e+001 3.937008e-002 2.616730e+001
    endloop
  endfacet
  facet normal -8.191552e-004 1.453019e-001 -9.893870e-001
    outer loop
      vertex   5.508918e+001 7.874016e-002 2.617308e+001
      vertex   5.561304e+001 7.874016e-002 2.617264e+001
      vertex   5.507925e+001 3.937008e-002 2.616730e+001
    endloop
  endfacet
  facet normal -8.338143e-004 1.454968e-001 -9.893584e-001
    outer loop
      vertex   5.507925e+001 3.937008e-002 2.616730e+001
      vertex   5.561304e+001 7.874016e-002 2.617264e+001
      vertex   5.560693e+001 3.937008e-002 2.616686e+001
    endloop
  endfacet
  facet normal -8.482861e-004 1.454990e-001 -9.893580e-001
    outer loop
      vertex   5.506932e+001 0.000000e+000 2.616153e+001
      vertex   5.560693e+001 3.937008e-002 2.616686e+001
      vertex   5.560082e+001 0.000000e+000 2.616107e+001
    endloop
  endfacet
  facet normal -8.338380e-004 1.453055e-001 -9.893865e-001
    outer loop
      vertex   5.506932e+001 0.000000e+000 2.616153e+001
      vertex   5.507925e+001 3.937008e-002 2.616730e+001
      vertex   5.560693e+001 3.937008e-002 2.616686e+001
    endloop
  endfacet
  facet normal -8.191317e-004 1.454946e-001 -9.893587e-001
    outer loop
      vertex   5.561304e+001 7.874016e-002 2.617264e+001
      vertex   5.613691e+001 7.874016e-002 2.617221e+001
      vertex   5.560693e+001 3.937008e-002 2.616686e+001
    endloop
  endfacet
  facet normal -8.337906e-004 1.456880e-001 -9.893302e-001
    outer loop
      vertex   5.560693e+001 3.937008e-002 2.616686e+001
      vertex   5.613691e+001 7.874016e-002 2.617221e+001
      vertex   5.613461e+001 3.937008e-002 2.616641e+001
    endloop
  endfacet
  facet normal -8.482621e-004 1.456888e-001 -9.893301e-001
    outer loop
      vertex   5.560082e+001 0.000000e+000 2.616107e+001
      vertex   5.613461e+001 3.937008e-002 2.616641e+001
      vertex   5.613231e+001 0.000000e+000 2.616062e+001
    endloop
  endfacet
  facet normal -8.338143e-004 1.454968e-001 -9.893584e-001
    outer loop
      vertex   5.560082e+001 0.000000e+000 2.616107e+001
      vertex   5.560693e+001 3.937008e-002 2.616686e+001
      vertex   5.613461e+001 3.937008e-002 2.616641e+001
    endloop
  endfacet
  facet normal -7.225876e-004 1.456817e-001 -9.893313e-001
    outer loop
      vertex   5.613691e+001 7.874016e-002 2.617221e+001
      vertex   5.668476e+001 7.874016e-002 2.617181e+001
      vertex   5.613461e+001 3.937008e-002 2.616641e+001
    endloop
  endfacet
  facet normal -7.325350e-004 1.458179e-001 -9.893112e-001
    outer loop
      vertex   5.613461e+001 3.937008e-002 2.616641e+001
      vertex   5.668476e+001 7.874016e-002 2.617181e+001
      vertex   5.667865e+001 3.937008e-002 2.616601e+001
    endloop
  endfacet
  facet normal -7.426374e-004 1.458195e-001 -9.893109e-001
    outer loop
      vertex   5.613231e+001 0.000000e+000 2.616062e+001
      vertex   5.667865e+001 3.937008e-002 2.616601e+001
      vertex   5.667254e+001 0.000000e+000 2.616021e+001
    endloop
  endfacet
  facet normal -7.325498e-004 1.456822e-001 -9.893312e-001
    outer loop
      vertex   5.613231e+001 0.000000e+000 2.616062e+001
      vertex   5.613461e+001 3.937008e-002 2.616641e+001
      vertex   5.667865e+001 3.937008e-002 2.616601e+001
    endloop
  endfacet
  facet normal -7.225731e-004 1.458164e-001 -9.893114e-001
    outer loop
      vertex   5.668476e+001 7.874016e-002 2.617181e+001
      vertex   5.723261e+001 7.874016e-002 2.617141e+001
      vertex   5.667865e+001 3.937008e-002 2.616601e+001
    endloop
  endfacet
  facet normal -7.325202e-004 1.459536e-001 -9.892912e-001
    outer loop
      vertex   5.667865e+001 3.937008e-002 2.616601e+001
      vertex   5.723261e+001 7.874016e-002 2.617141e+001
      vertex   5.722269e+001 3.937008e-002 2.616561e+001
    endloop
  endfacet
  facet normal -7.426223e-004 1.459561e-001 -9.892908e-001
    outer loop
      vertex   5.667254e+001 0.000000e+000 2.616021e+001
      vertex   5.722269e+001 3.937008e-002 2.616561e+001
      vertex   5.721277e+001 0.000000e+000 2.615981e+001
    endloop
  endfacet
  facet normal -7.325350e-004 1.458179e-001 -9.893112e-001
    outer loop
      vertex   5.667254e+001 0.000000e+000 2.616021e+001
      vertex   5.667865e+001 3.937008e-002 2.616601e+001
      vertex   5.722269e+001 3.937008e-002 2.616561e+001
    endloop
  endfacet
  facet normal -7.225586e-004 1.459512e-001 -9.892915e-001
    outer loop
      vertex   5.723261e+001 7.874016e-002 2.617141e+001
      vertex   5.778046e+001 7.874016e-002 2.617101e+001
      vertex   5.722269e+001 3.937008e-002 2.616561e+001
    endloop
  endfacet
  facet normal -7.325054e-004 1.460893e-001 -9.892711e-001
    outer loop
      vertex   5.722269e+001 3.937008e-002 2.616561e+001
      vertex   5.778046e+001 7.874016e-002 2.617101e+001
      vertex   5.776673e+001 3.937008e-002 2.616521e+001
    endloop
  endfacet
  facet normal -7.426072e-004 1.460927e-001 -9.892706e-001
    outer loop
      vertex   5.721277e+001 0.000000e+000 2.615981e+001
      vertex   5.776673e+001 3.937008e-002 2.616521e+001
      vertex   5.775300e+001 0.000000e+000 2.615940e+001
    endloop
  endfacet
  facet normal -7.325202e-004 1.459536e-001 -9.892912e-001
    outer loop
      vertex   5.721277e+001 0.000000e+000 2.615981e+001
      vertex   5.722269e+001 3.937008e-002 2.616561e+001
      vertex   5.776673e+001 3.937008e-002 2.616521e+001
    endloop
  endfacet
  facet normal -7.225441e-004 1.460859e-001 -9.892716e-001
    outer loop
      vertex   5.778046e+001 7.874016e-002 2.617101e+001
      vertex   5.832831e+001 7.874016e-002 2.617061e+001
      vertex   5.776673e+001 3.937008e-002 2.616521e+001
    endloop
  endfacet
  facet normal -7.324905e-004 1.462249e-001 -9.892511e-001
    outer loop
      vertex   5.776673e+001 3.937008e-002 2.616521e+001
      vertex   5.832831e+001 7.874016e-002 2.617061e+001
      vertex   5.831077e+001 3.937008e-002 2.616480e+001
    endloop
  endfacet
  facet normal -7.425920e-004 1.462293e-001 -9.892504e-001
    outer loop
      vertex   5.775300e+001 0.000000e+000 2.615940e+001
      vertex   5.831077e+001 3.937008e-002 2.616480e+001
      vertex   5.829323e+001 0.000000e+000 2.615900e+001
    endloop
  endfacet
  facet normal -7.325054e-004 1.460893e-001 -9.892711e-001
    outer loop
      vertex   5.775300e+001 0.000000e+000 2.615940e+001
      vertex   5.776673e+001 3.937008e-002 2.616521e+001
      vertex   5.831077e+001 3.937008e-002 2.616480e+001
    endloop
  endfacet
  facet normal -8.472459e-004 1.462749e-001 -9.892436e-001
    outer loop
      vertex   5.832831e+001 7.874016e-002 2.617061e+001
      vertex   5.885935e+001 7.874016e-002 2.617015e+001
      vertex   5.831077e+001 3.937008e-002 2.616480e+001
    endloop
  endfacet
  facet normal -8.234226e-004 1.459495e-001 -9.892917e-001
    outer loop
      vertex   5.831077e+001 3.937008e-002 2.616480e+001
      vertex   5.885935e+001 7.874016e-002 2.617015e+001
      vertex   5.884620e+001 3.937008e-002 2.616436e+001
    endloop
  endfacet
  facet normal -7.999470e-004 1.459419e-001 -9.892928e-001
    outer loop
      vertex   5.829323e+001 0.000000e+000 2.615900e+001
      vertex   5.884620e+001 3.937008e-002 2.616436e+001
      vertex   5.883305e+001 0.000000e+000 2.615856e+001
    endloop
  endfacet
  facet normal -8.233839e-004 1.462645e-001 -9.892452e-001
    outer loop
      vertex   5.829323e+001 0.000000e+000 2.615900e+001
      vertex   5.831077e+001 3.937008e-002 2.616480e+001
      vertex   5.884620e+001 3.937008e-002 2.616436e+001
    endloop
  endfacet
  facet normal -8.472861e-004 1.459573e-001 -9.892905e-001
    outer loop
      vertex   5.885935e+001 7.874016e-002 2.617015e+001
      vertex   5.939038e+001 7.874016e-002 2.616970e+001
      vertex   5.884620e+001 3.937008e-002 2.616436e+001
    endloop
  endfacet
  facet normal -8.234612e-004 1.456345e-001 -9.893381e-001
    outer loop
      vertex   5.884620e+001 3.937008e-002 2.616436e+001
      vertex   5.939038e+001 7.874016e-002 2.616970e+001
      vertex   5.938162e+001 3.937008e-002 2.616391e+001
    endloop
  endfacet
  facet normal -7.999842e-004 1.456294e-001 -9.893389e-001
    outer loop
      vertex   5.883305e+001 0.000000e+000 2.615856e+001
      vertex   5.938162e+001 3.937008e-002 2.616391e+001
      vertex   5.937286e+001 0.000000e+000 2.615812e+001
    endloop
  endfacet
  facet normal -8.234226e-004 1.459495e-001 -9.892917e-001
    outer loop
      vertex   5.883305e+001 0.000000e+000 2.615856e+001
      vertex   5.884620e+001 3.937008e-002 2.616436e+001
      vertex   5.938162e+001 3.937008e-002 2.616391e+001
    endloop
  endfacet
  facet normal -8.473262e-004 1.456397e-001 -9.893373e-001
    outer loop
      vertex   5.939038e+001 7.874016e-002 2.616970e+001
      vertex   5.992142e+001 7.874016e-002 2.616925e+001
      vertex   5.938162e+001 3.937008e-002 2.616391e+001
    endloop
  endfacet
  facet normal -8.234998e-004 1.453194e-001 -9.893845e-001
    outer loop
      vertex   5.938162e+001 3.937008e-002 2.616391e+001
      vertex   5.992142e+001 7.874016e-002 2.616925e+001
      vertex   5.991704e+001 3.937008e-002 2.616347e+001
    endloop
  endfacet
  facet normal -8.000214e-004 1.453168e-001 -9.893848e-001
    outer loop
      vertex   5.937286e+001 0.000000e+000 2.615812e+001
      vertex   5.991704e+001 3.937008e-002 2.616347e+001
      vertex   5.991267e+001 0.000000e+000 2.615769e+001
    endloop
  endfacet
  facet normal -8.234612e-004 1.456345e-001 -9.893381e-001
    outer loop
      vertex   5.937286e+001 0.000000e+000 2.615812e+001
      vertex   5.938162e+001 3.937008e-002 2.616391e+001
      vertex   5.991704e+001 3.937008e-002 2.616347e+001
    endloop
  endfacet
  facet normal -8.473662e-004 1.453220e-001 -9.893841e-001
    outer loop
      vertex   5.992142e+001 7.874016e-002 2.616925e+001
      vertex   6.045245e+001 7.874016e-002 2.616879e+001
      vertex   5.991704e+001 3.937008e-002 2.616347e+001
    endloop
  endfacet
  facet normal -8.235383e-004 1.450042e-001 -9.894307e-001
    outer loop
      vertex   5.991704e+001 3.937008e-002 2.616347e+001
      vertex   6.045245e+001 7.874016e-002 2.616879e+001
      vertex   6.045247e+001 3.937008e-002 2.616302e+001
    endloop
  endfacet
  facet normal -8.000585e-004 1.450042e-001 -9.894307e-001
    outer loop
      vertex   5.991267e+001 0.000000e+000 2.615769e+001
      vertex   6.045247e+001 3.937008e-002 2.616302e+001
      vertex   6.045248e+001 0.000000e+000 2.615725e+001
    endloop
  endfacet
  facet normal -8.234998e-004 1.453194e-001 -9.893845e-001
    outer loop
      vertex   5.991267e+001 0.000000e+000 2.615769e+001
      vertex   5.991704e+001 3.937008e-002 2.616347e+001
      vertex   6.045247e+001 3.937008e-002 2.616302e+001
    endloop
  endfacet
  facet normal 9.999999e-001 3.546876e-004 0.000000e+000
    outer loop
      vertex   6.190706e+001 4.921260e-002 2.647160e+001
      vertex   6.190706e+001 4.921260e-002 2.615902e+001
      vertex   6.190705e+001 7.874016e-002 2.646738e+001
    endloop
  endfacet
  facet normal 9.999999e-001 3.546876e-004 0.000000e+000
    outer loop
      vertex   6.190705e+001 7.874016e-002 2.646738e+001
      vertex   6.190706e+001 4.921260e-002 2.615902e+001
      vertex   6.190705e+001 7.874016e-002 2.616077e+001
    endloop
  endfacet
  facet normal 3.050684e-003 9.767647e-002 9.952135e-001
    outer loop
      vertex   6.120170e+001 4.921260e-002 2.647376e+001
      vertex   6.120826e+001 7.874016e-002 2.647084e+001
      vertex   6.102079e+001 4.921260e-002 2.647431e+001
    endloop
  endfacet
  facet normal 3.050684e-003 9.767647e-002 9.952135e-001
    outer loop
      vertex   6.120170e+001 4.921260e-002 2.647376e+001
      vertex   6.190706e+001 4.921260e-002 2.647160e+001
      vertex   6.120826e+001 7.874016e-002 2.647084e+001
    endloop
  endfacet
  facet normal 4.900929e-003 1.413296e-001 9.899505e-001
    outer loop
      vertex   6.120826e+001 7.874016e-002 2.647084e+001
      vertex   6.190706e+001 4.921260e-002 2.647160e+001
      vertex   6.190705e+001 7.874016e-002 2.646738e+001
    endloop
  endfacet
  facet normal 4.932340e-003 8.585734e-002 9.962952e-001
    outer loop
      vertex   6.120826e+001 7.874016e-002 2.647084e+001
      vertex   6.050947e+001 7.874016e-002 2.647430e+001
      vertex   6.102079e+001 4.921260e-002 2.647431e+001
    endloop
  endfacet
  facet normal 3.060959e-003 5.345208e-002 9.985657e-001
    outer loop
      vertex   6.102079e+001 4.921260e-002 2.647431e+001
      vertex   6.050947e+001 7.874016e-002 2.647430e+001
      vertex   6.047446e+001 0.000000e+000 2.647862e+001
    endloop
  endfacet
  facet normal 0.000000e+000 8.722516e-002 9.961886e-001
    outer loop
      vertex   6.102079e+001 0.000000e+000 2.647862e+001
      vertex   6.102079e+001 4.921260e-002 2.647431e+001
      vertex   6.047446e+001 0.000000e+000 2.647862e+001
    endloop
  endfacet
  facet normal -9.137451e-001 4.062879e-001 0.000000e+000
    outer loop
      vertex   6.050947e+001 7.874016e-002 2.647430e+001
      vertex   6.050947e+001 7.874016e-002 2.636467e+001
      vertex   6.047446e+001 0.000000e+000 2.647862e+001
    endloop
  endfacet
  facet normal -9.138391e-001 4.060763e-001 -1.750807e-004
    outer loop
      vertex   6.047446e+001 0.000000e+000 2.647862e+001
      vertex   6.050947e+001 7.874016e-002 2.636467e+001
      vertex   6.047448e+001 0.000000e+000 2.636495e+001
    endloop
  endfacet
  facet normal 0.000000e+000 3.531202e-003 9.999938e-001
    outer loop
      vertex   6.050947e+001 7.874016e-002 2.636467e+001
      vertex   6.039530e+001 7.874016e-002 2.636467e+001
      vertex   6.047448e+001 0.000000e+000 2.636495e+001
    endloop
  endfacet
  facet normal 0.000000e+000 3.531202e-003 9.999938e-001
    outer loop
      vertex   6.047448e+001 0.000000e+000 2.636495e+001
      vertex   6.039530e+001 7.874016e-002 2.636467e+001
      vertex   6.036031e+001 0.000000e+000 2.636495e+001
    endloop
  endfacet
  facet normal 9.138839e-001 -4.059756e-001 2.884913e-004
    outer loop
      vertex   6.039526e+001 7.874016e-002 2.647463e+001
      vertex   6.037777e+001 3.937008e-002 2.647665e+001
      vertex   6.039530e+001 7.874016e-002 2.636467e+001
    endloop
  endfacet
  facet normal 9.138392e-001 -4.060761e-001 2.461695e-004
    outer loop
      vertex   6.039530e+001 7.874016e-002 2.636467e+001
      vertex   6.037777e+001 3.937008e-002 2.647665e+001
      vertex   6.036031e+001 0.000000e+000 2.636495e+001
    endloop
  endfacet
  facet normal 9.138823e-001 -4.059792e-001 2.052698e-004
    outer loop
      vertex   6.036031e+001 0.000000e+000 2.636495e+001
      vertex   6.037777e+001 3.937008e-002 2.647665e+001
      vertex   6.036028e+001 0.000000e+000 2.647866e+001
    endloop
  endfacet
  facet normal 4.056573e-004 5.101918e-002 9.986976e-001
    outer loop
      vertex   6.039526e+001 7.874016e-002 2.647463e+001
      vertex   5.989392e+001 7.874016e-002 2.647483e+001
      vertex   6.037777e+001 3.937008e-002 2.647665e+001
    endloop
  endfacet
  facet normal 3.390559e-004 5.020256e-002 9.987390e-001
    outer loop
      vertex   6.037777e+001 3.937008e-002 2.647665e+001
      vertex   5.989392e+001 7.874016e-002 2.647483e+001
      vertex   5.987646e+001 3.937008e-002 2.647682e+001
    endloop
  endfacet
  facet normal 2.724301e-004 5.023204e-002 9.987375e-001
    outer loop
      vertex   6.036028e+001 0.000000e+000 2.647866e+001
      vertex   5.987646e+001 3.937008e-002 2.647682e+001
      vertex   5.985900e+001 0.000000e+000 2.647880e+001
    endloop
  endfacet
  facet normal 3.390414e-004 5.104869e-002 9.986961e-001
    outer loop
      vertex   6.036028e+001 0.000000e+000 2.647866e+001
      vertex   6.037777e+001 3.937008e-002 2.647665e+001
      vertex   5.987646e+001 3.937008e-002 2.647682e+001
    endloop
  endfacet
  facet normal 4.056747e-004 5.017309e-002 9.987405e-001
    outer loop
      vertex   5.989392e+001 7.874016e-002 2.647483e+001
      vertex   5.939258e+001 7.874016e-002 2.647503e+001
      vertex   5.987646e+001 3.937008e-002 2.647682e+001
    endloop
  endfacet
  facet normal 3.390702e-004 4.935633e-002 9.987812e-001
    outer loop
      vertex   5.987646e+001 3.937008e-002 2.647682e+001
      vertex   5.939258e+001 7.874016e-002 2.647503e+001
      vertex   5.937515e+001 3.937008e-002 2.647699e+001
    endloop
  endfacet
  facet normal 2.724416e-004 4.938576e-002 9.987797e-001
    outer loop
      vertex   5.985900e+001 0.000000e+000 2.647880e+001
      vertex   5.937515e+001 3.937008e-002 2.647699e+001
      vertex   5.935771e+001 0.000000e+000 2.647894e+001
    endloop
  endfacet
  facet normal 3.390559e-004 5.020256e-002 9.987390e-001
    outer loop
      vertex   5.985900e+001 0.000000e+000 2.647880e+001
      vertex   5.987646e+001 3.937008e-002 2.647682e+001
      vertex   5.937515e+001 3.937008e-002 2.647699e+001
    endloop
  endfacet
  facet normal 4.056919e-004 4.932689e-002 9.987826e-001
    outer loop
      vertex   5.939258e+001 7.874016e-002 2.647503e+001
      vertex   5.889124e+001 7.874016e-002 2.647524e+001
      vertex   5.937515e+001 3.937008e-002 2.647699e+001
    endloop
  endfacet
  facet normal 3.390843e-004 4.850998e-002 9.988226e-001
    outer loop
      vertex   5.937515e+001 3.937008e-002 2.647699e+001
      vertex   5.889124e+001 7.874016e-002 2.647524e+001
      vertex   5.887383e+001 3.937008e-002 2.647716e+001
    endloop
  endfacet
  facet normal 2.724529e-004 4.853938e-002 9.988212e-001
    outer loop
      vertex   5.935771e+001 0.000000e+000 2.647894e+001
      vertex   5.887383e+001 3.937008e-002 2.647716e+001
      vertex   5.885642e+001 0.000000e+000 2.647907e+001
    endloop
  endfacet
  facet normal 3.390702e-004 4.935633e-002 9.987812e-001
    outer loop
      vertex   5.935771e+001 0.000000e+000 2.647894e+001
      vertex   5.937515e+001 3.937008e-002 2.647699e+001
      vertex   5.887383e+001 3.937008e-002 2.647716e+001
    endloop
  endfacet
  facet normal 4.057087e-004 4.848059e-002 9.988240e-001
    outer loop
      vertex   5.889124e+001 7.874016e-002 2.647524e+001
      vertex   5.838990e+001 7.874016e-002 2.647544e+001
      vertex   5.887383e+001 3.937008e-002 2.647716e+001
    endloop
  endfacet
  facet normal 3.390981e-004 4.766353e-002 9.988634e-001
    outer loop
      vertex   5.887383e+001 3.937008e-002 2.647716e+001
      vertex   5.838990e+001 7.874016e-002 2.647544e+001
      vertex   5.837252e+001 3.937008e-002 2.647733e+001
    endloop
  endfacet
  facet normal 2.724640e-004 4.769288e-002 9.988620e-001
    outer loop
      vertex   5.885642e+001 0.000000e+000 2.647907e+001
      vertex   5.837252e+001 3.937008e-002 2.647733e+001
      vertex   5.835513e+001 0.000000e+000 2.647921e+001
    endloop
  endfacet
  facet normal 3.390843e-004 4.850998e-002 9.988226e-001
    outer loop
      vertex   5.885642e+001 0.000000e+000 2.647907e+001
      vertex   5.887383e+001 3.937008e-002 2.647716e+001
      vertex   5.837252e+001 3.937008e-002 2.647733e+001
    endloop
  endfacet
  facet normal -9.148141e-001 4.038752e-001 0.000000e+000
    outer loop
      vertex   5.838990e+001 7.874016e-002 2.647544e+001
      vertex   5.838990e+001 7.874016e-002 2.636483e+001
      vertex   5.837252e+001 3.937008e-002 2.647733e+001
    endloop
  endfacet
  facet normal -9.148946e-001 4.036929e-001 -7.625182e-005
    outer loop
      vertex   5.837252e+001 3.937008e-002 2.647733e+001
      vertex   5.838990e+001 7.874016e-002 2.636483e+001
      vertex   5.835515e+001 0.000000e+000 2.636495e+001
    endloop
  endfacet
  facet normal -9.148167e-001 4.038692e-001 -1.500572e-004
    outer loop
      vertex   5.835513e+001 0.000000e+000 2.647921e+001
      vertex   5.837252e+001 3.937008e-002 2.647733e+001
      vertex   5.835515e+001 0.000000e+000 2.636495e+001
    endloop
  endfacet
  facet normal 0.000000e+000 1.554482e-003 9.999988e-001
    outer loop
      vertex   5.838990e+001 7.874016e-002 2.636483e+001
      vertex   5.827572e+001 7.874016e-002 2.636483e+001
      vertex   5.835515e+001 0.000000e+000 2.636495e+001
    endloop
  endfacet
  facet normal 0.000000e+000 1.554482e-003 9.999988e-001
    outer loop
      vertex   5.835515e+001 0.000000e+000 2.636495e+001
      vertex   5.827572e+001 7.874016e-002 2.636483e+001
      vertex   5.824098e+001 0.000000e+000 2.636495e+001
    endloop
  endfacet
  facet normal 9.132879e-001 -4.073038e-001 -2.969846e-003
    outer loop
      vertex   5.827608e+001 7.874016e-002 2.647561e+001
      vertex   5.825853e+001 3.937008e-002 2.647749e+001
      vertex   5.827572e+001 7.874016e-002 2.636483e+001
    endloop
  endfacet
  facet normal 9.148927e-001 -4.036944e-001 -1.463584e-003
    outer loop
      vertex   5.827572e+001 7.874016e-002 2.636483e+001
      vertex   5.825853e+001 3.937008e-002 2.647749e+001
      vertex   5.824098e+001 0.000000e+000 2.636495e+001
    endloop
  endfacet
  facet normal 9.133445e-001 -4.071877e-001 0.000000e+000
    outer loop
      vertex   5.824098e+001 0.000000e+000 2.636495e+001
      vertex   5.825853e+001 3.937008e-002 2.647749e+001
      vertex   5.824098e+001 0.000000e+000 2.647936e+001
    endloop
  endfacet
  facet normal 3.794635e-004 4.737633e-002 9.988770e-001
    outer loop
      vertex   5.827608e+001 7.874016e-002 2.647561e+001
      vertex   5.777335e+001 7.874016e-002 2.647581e+001
      vertex   5.825853e+001 3.937008e-002 2.647749e+001
    endloop
  endfacet
  facet normal 3.523615e-004 4.704301e-002 9.988928e-001
    outer loop
      vertex   5.825853e+001 3.937008e-002 2.647749e+001
      vertex   5.777335e+001 7.874016e-002 2.647581e+001
      vertex   5.775580e+001 3.937008e-002 2.647767e+001
    endloop
  endfacet
  facet normal 3.252529e-004 4.705507e-002 9.988922e-001
    outer loop
      vertex   5.824098e+001 0.000000e+000 2.647936e+001
      vertex   5.775580e+001 3.937008e-002 2.647767e+001
      vertex   5.773825e+001 0.000000e+000 2.647953e+001
    endloop
  endfacet
  facet normal 3.523558e-004 4.738839e-002 9.988765e-001
    outer loop
      vertex   5.824098e+001 0.000000e+000 2.647936e+001
      vertex   5.825853e+001 3.937008e-002 2.647749e+001
      vertex   5.775580e+001 3.937008e-002 2.647767e+001
    endloop
  endfacet
  facet normal 3.794697e-004 4.703096e-002 9.988934e-001
    outer loop
      vertex   5.777335e+001 7.874016e-002 2.647581e+001
      vertex   5.727062e+001 7.874016e-002 2.647600e+001
      vertex   5.775580e+001 3.937008e-002 2.647767e+001
    endloop
  endfacet
  facet normal 3.523672e-004 4.669762e-002 9.989090e-001
    outer loop
      vertex   5.775580e+001 3.937008e-002 2.647767e+001
      vertex   5.727062e+001 7.874016e-002 2.647600e+001
      vertex   5.725307e+001 3.937008e-002 2.647784e+001
    endloop
  endfacet
  facet normal 3.252582e-004 4.670967e-002 9.989085e-001
    outer loop
      vertex   5.773825e+001 0.000000e+000 2.647953e+001
      vertex   5.725307e+001 3.937008e-002 2.647784e+001
      vertex   5.723553e+001 0.000000e+000 2.647969e+001
    endloop
  endfacet
  facet normal 3.523615e-004 4.704301e-002 9.988928e-001
    outer loop
      vertex   5.773825e+001 0.000000e+000 2.647953e+001
      vertex   5.775580e+001 3.937008e-002 2.647767e+001
      vertex   5.725307e+001 3.937008e-002 2.647784e+001
    endloop
  endfacet
  facet normal 3.794759e-004 4.668556e-002 9.989096e-001
    outer loop
      vertex   5.727062e+001 7.874016e-002 2.647600e+001
      vertex   5.676788e+001 7.874016e-002 2.647619e+001
      vertex   5.725307e+001 3.937008e-002 2.647784e+001
    endloop
  endfacet
  facet normal 3.523729e-004 4.635220e-002 9.989251e-001
    outer loop
      vertex   5.725307e+001 3.937008e-002 2.647784e+001
      vertex   5.676788e+001 7.874016e-002 2.647619e+001
      vertex   5.675034e+001 3.937008e-002 2.647802e+001
    endloop
  endfacet
  facet normal 3.252634e-004 4.636426e-002 9.989245e-001
    outer loop
      vertex   5.723553e+001 0.000000e+000 2.647969e+001
      vertex   5.675034e+001 3.937008e-002 2.647802e+001
      vertex   5.673280e+001 0.000000e+000 2.647985e+001
    endloop
  endfacet
  facet normal 3.523672e-004 4.669762e-002 9.989090e-001
    outer loop
      vertex   5.723553e+001 0.000000e+000 2.647969e+001
      vertex   5.725307e+001 3.937008e-002 2.647784e+001
      vertex   5.675034e+001 3.937008e-002 2.647802e+001
    endloop
  endfacet
  facet normal 3.794820e-004 4.634015e-002 9.989256e-001
    outer loop
      vertex   5.676788e+001 7.874016e-002 2.647619e+001
      vertex   5.626515e+001 7.874016e-002 2.647638e+001
      vertex   5.675034e+001 3.937008e-002 2.647802e+001
    endloop
  endfacet
  facet normal 3.523786e-004 4.600677e-002 9.989411e-001
    outer loop
      vertex   5.675034e+001 3.937008e-002 2.647802e+001
      vertex   5.626515e+001 7.874016e-002 2.647638e+001
      vertex   5.624761e+001 3.937008e-002 2.647820e+001
    endloop
  endfacet
  facet normal 3.252686e-004 4.601882e-002 9.989405e-001
    outer loop
      vertex   5.673280e+001 0.000000e+000 2.647985e+001
      vertex   5.624761e+001 3.937008e-002 2.647820e+001
      vertex   5.623008e+001 0.000000e+000 2.648002e+001
    endloop
  endfacet
  facet normal 3.523729e-004 4.635220e-002 9.989251e-001
    outer loop
      vertex   5.673280e+001 0.000000e+000 2.647985e+001
      vertex   5.675034e+001 3.937008e-002 2.647802e+001
      vertex   5.624761e+001 3.937008e-002 2.647820e+001
    endloop
  endfacet
  facet normal -9.134876e-001 4.068666e-001 -7.574125e-005
    outer loop
      vertex   5.626515e+001 7.874016e-002 2.647638e+001
      vertex   5.626516e+001 7.874016e-002 2.636507e+001
      vertex   5.624761e+001 3.937008e-002 2.647820e+001
    endloop
  endfacet
  facet normal -9.134464e-001 4.069589e-001 -3.724034e-005
    outer loop
      vertex   5.624761e+001 3.937008e-002 2.647820e+001
      vertex   5.626516e+001 7.874016e-002 2.636507e+001
      vertex   5.623008e+001 0.000000e+000 2.636495e+001
    endloop
  endfacet
  facet normal -9.134863e-001 4.068696e-001 0.000000e+000
    outer loop
      vertex   5.623008e+001 0.000000e+000 2.648002e+001
      vertex   5.624761e+001 3.937008e-002 2.647820e+001
      vertex   5.623008e+001 0.000000e+000 2.636495e+001
    endloop
  endfacet
  facet normal 0.000000e+000 -1.508047e-003 9.999989e-001
    outer loop
      vertex   5.626516e+001 7.874016e-002 2.636507e+001
      vertex   5.615098e+001 7.874016e-002 2.636507e+001
      vertex   5.623008e+001 0.000000e+000 2.636495e+001
    endloop
  endfacet
  facet normal 0.000000e+000 -1.508047e-003 9.999989e-001
    outer loop
      vertex   5.623008e+001 0.000000e+000 2.636495e+001
      vertex   5.615098e+001 7.874016e-002 2.636507e+001
      vertex   5.611590e+001 0.000000e+000 2.636495e+001
    endloop
  endfacet
  facet normal 9.134037e-001 -4.070549e-001 0.000000e+000
    outer loop
      vertex   5.615098e+001 7.874016e-002 2.647640e+001
      vertex   5.613344e+001 3.937008e-002 2.647823e+001
      vertex   5.615098e+001 7.874016e-002 2.636507e+001
    endloop
  endfacet
  facet normal 9.134464e-001 -4.069589e-001 4.000026e-005
    outer loop
      vertex   5.615098e+001 7.874016e-002 2.636507e+001
      vertex   5.613344e+001 3.937008e-002 2.647823e+001
      vertex   5.611590e+001 0.000000e+000 2.636495e+001
    endloop
  endfacet
  facet normal 9.134051e-001 -4.070518e-001 7.868415e-005
    outer loop
      vertex   5.611590e+001 0.000000e+000 2.636495e+001
      vertex   5.613344e+001 3.937008e-002 2.647823e+001
      vertex   5.611589e+001 0.000000e+000 2.648006e+001
    endloop
  endfacet
  facet normal 0.000000e+000 4.641884e-002 9.989221e-001
    outer loop
      vertex   5.615098e+001 7.874016e-002 2.647640e+001
      vertex   5.565015e+001 7.874016e-002 2.647640e+001
      vertex   5.613344e+001 3.937008e-002 2.647823e+001
    endloop
  endfacet
  facet normal 1.635395e-004 4.842194e-002 9.988270e-001
    outer loop
      vertex   5.613344e+001 3.937008e-002 2.647823e+001
      vertex   5.565015e+001 7.874016e-002 2.647640e+001
      vertex   5.563261e+001 3.937008e-002 2.647831e+001
    endloop
  endfacet
  facet normal 3.270805e-004 4.834923e-002 9.988304e-001
    outer loop
      vertex   5.611589e+001 0.000000e+000 2.648006e+001
      vertex   5.563261e+001 3.937008e-002 2.647831e+001
      vertex   5.561506e+001 0.000000e+000 2.648022e+001
    endloop
  endfacet
  facet normal 1.635556e-004 4.634611e-002 9.989254e-001
    outer loop
      vertex   5.611589e+001 0.000000e+000 2.648006e+001
      vertex   5.613344e+001 3.937008e-002 2.647823e+001
      vertex   5.563261e+001 3.937008e-002 2.647831e+001
    endloop
  endfacet
  facet normal 0.000000e+000 4.849465e-002 9.988234e-001
    outer loop
      vertex   5.565015e+001 7.874016e-002 2.647640e+001
      vertex   5.514932e+001 7.874016e-002 2.647640e+001
      vertex   5.563261e+001 3.937008e-002 2.647831e+001
    endloop
  endfacet
  facet normal 1.635226e-004 5.049715e-002 9.987242e-001
    outer loop
      vertex   5.563261e+001 3.937008e-002 2.647831e+001
      vertex   5.514932e+001 7.874016e-002 2.647640e+001
      vertex   5.513178e+001 3.937008e-002 2.647839e+001
    endloop
  endfacet
  facet normal 3.270469e-004 5.042447e-002 9.987278e-001
    outer loop
      vertex   5.561506e+001 0.000000e+000 2.648022e+001
      vertex   5.513178e+001 3.937008e-002 2.647839e+001
      vertex   5.511423e+001 0.000000e+000 2.648039e+001
    endloop
  endfacet
  facet normal 1.635395e-004 4.842194e-002 9.988270e-001
    outer loop
      vertex   5.561506e+001 0.000000e+000 2.648022e+001
      vertex   5.563261e+001 3.937008e-002 2.647831e+001
      vertex   5.513178e+001 3.937008e-002 2.647839e+001
    endloop
  endfacet
  facet normal 0.000000e+000 5.056984e-002 9.987205e-001
    outer loop
      vertex   5.514932e+001 7.874016e-002 2.647640e+001
      vertex   5.464849e+001 7.874016e-002 2.647640e+001
      vertex   5.513178e+001 3.937008e-002 2.647839e+001
    endloop
  endfacet
  facet normal 1.635051e-004 5.257171e-002 9.986171e-001
    outer loop
      vertex   5.513178e+001 3.937008e-002 2.647839e+001
      vertex   5.464849e+001 7.874016e-002 2.647640e+001
      vertex   5.463095e+001 3.937008e-002 2.647847e+001
    endloop
  endfacet
  facet normal 3.270118e-004 5.249905e-002 9.986209e-001
    outer loop
      vertex   5.511423e+001 0.000000e+000 2.648039e+001
      vertex   5.463095e+001 3.937008e-002 2.647847e+001
      vertex   5.461340e+001 0.000000e+000 2.648055e+001
    endloop
  endfacet
  facet normal 1.635226e-004 5.049715e-002 9.987242e-001
    outer loop
      vertex   5.511423e+001 0.000000e+000 2.648039e+001
      vertex   5.513178e+001 3.937008e-002 2.647839e+001
      vertex   5.463095e+001 3.937008e-002 2.647847e+001
    endloop
  endfacet
  facet normal 0.000000e+000 5.264437e-002 9.986133e-001
    outer loop
      vertex   5.464849e+001 7.874016e-002 2.647640e+001
      vertex   5.414766e+001 7.874016e-002 2.647640e+001
      vertex   5.463095e+001 3.937008e-002 2.647847e+001
    endloop
  endfacet
  facet normal 1.634869e-004 5.464558e-002 9.985058e-001
    outer loop
      vertex   5.463095e+001 3.937008e-002 2.647847e+001
      vertex   5.414766e+001 7.874016e-002 2.647640e+001
      vertex   5.413011e+001 3.937008e-002 2.647856e+001
    endloop
  endfacet
  facet normal 3.269754e-004 5.457295e-002 9.985097e-001
    outer loop
      vertex   5.461340e+001 0.000000e+000 2.648055e+001
      vertex   5.413011e+001 3.937008e-002 2.647856e+001
      vertex   5.411257e+001 0.000000e+000 2.648071e+001
    endloop
  endfacet
  facet normal 1.635051e-004 5.257171e-002 9.986171e-001
    outer loop
      vertex   5.461340e+001 0.000000e+000 2.648055e+001
      vertex   5.463095e+001 3.937008e-002 2.647847e+001
      vertex   5.413011e+001 3.937008e-002 2.647856e+001
    endloop
  endfacet
  facet normal -9.134236e-001 4.070102e-001 0.000000e+000
    outer loop
      vertex   5.414766e+001 7.874016e-002 2.647640e+001
      vertex   5.414766e+001 7.874016e-002 2.636507e+001
      vertex   5.413011e+001 3.937008e-002 2.647856e+001
    endloop
  endfacet
  facet normal -9.134595e-001 4.069296e-001 -3.350707e-005
    outer loop
      vertex   5.413011e+001 3.937008e-002 2.647856e+001
      vertex   5.414766e+001 7.874016e-002 2.636507e+001
      vertex   5.411258e+001 0.000000e+000 2.636495e+001
    endloop
  endfacet
  facet normal -9.134250e-001 4.070072e-001 -6.572840e-005
    outer loop
      vertex   5.411257e+001 0.000000e+000 2.648071e+001
      vertex   5.413011e+001 3.937008e-002 2.647856e+001
      vertex   5.411258e+001 0.000000e+000 2.636495e+001
    endloop
  endfacet
  facet normal 0.000000e+000 -1.504298e-003 9.999989e-001
    outer loop
      vertex   5.414766e+001 7.874016e-002 2.636507e+001
      vertex   5.404136e+001 7.874016e-002 2.636507e+001
      vertex   5.411258e+001 0.000000e+000 2.636495e+001
    endloop
  endfacet
  facet normal 0.000000e+000 -1.504298e-003 9.999989e-001
    outer loop
      vertex   5.411258e+001 0.000000e+000 2.636495e+001
      vertex   5.404136e+001 7.874016e-002 2.636507e+001
      vertex   5.400628e+001 0.000000e+000 2.636495e+001
    endloop
  endfacet
endsolid
