solid ascii
  facet normal -1.228221e-010 -5.194692e-015 1.000000e+000
    outer loop
      vertex   8.052301e+002 2.721064e+002 1.800000e+000
      vertex   8.114067e+002 2.721064e+002 1.800000e+000
      vertex   8.052301e+002 2.734422e+002 1.800000e+000
    endloop
  endfacet
  facet normal 1.134559e-011 -3.835100e-010 1.000000e+000
    outer loop
      vertex   8.312787e+002 2.676681e+002 1.800000e+000
      vertex   8.240109e+002 2.693064e+002 1.800000e+000
      vertex   8.190552e+002 2.673064e+002 1.800000e+000
    endloop
  endfacet
  facet normal -2.538102e-010 8.578556e-009 1.000000e+000
    outer loop
      vertex   8.328803e+002 2.673064e+002 1.800000e+000
      vertex   8.312787e+002 2.676681e+002 1.800000e+000
      vertex   8.190552e+002 2.673064e+002 1.800000e+000
    endloop
  endfacet
  facet normal -1.606095e-016 0.000000e+000 1.000000e+000
    outer loop
      vertex   8.052301e+002 2.673064e+002 1.800000e+000
      vertex   8.190552e+002 2.673064e+002 1.800000e+000
      vertex   8.052301e+002 2.693064e+002 1.800000e+000
    endloop
  endfacet
  facet normal -3.784684e-011 -2.616175e-010 1.000000e+000
    outer loop
      vertex   8.052301e+002 2.693064e+002 1.800000e+000
      vertex   8.190552e+002 2.673064e+002 1.800000e+000
      vertex   8.240109e+002 2.693064e+002 1.800000e+000
    endloop
  endfacet
  facet normal -1.470494e-016 1.042497e-016 1.000000e+000
    outer loop
      vertex   8.052301e+002 2.453064e+002 1.800000e+000
      vertex   8.189122e+002 2.433064e+002 1.800000e+000
      vertex   8.203301e+002 2.453064e+002 1.800000e+000
    endloop
  endfacet
  facet normal -1.622882e-016 0.000000e+000 1.000000e+000
    outer loop
      vertex   8.052301e+002 2.453064e+002 1.800000e+000
      vertex   8.052301e+002 2.433064e+002 1.800000e+000
      vertex   8.189122e+002 2.433064e+002 1.800000e+000
    endloop
  endfacet
  facet normal -1.562369e-012 1.107631e-012 1.000000e+000
    outer loop
      vertex   8.189122e+002 2.433064e+002 1.800000e+000
      vertex   8.325943e+002 2.433064e+002 1.800000e+000
      vertex   8.203301e+002 2.453064e+002 1.800000e+000
    endloop
  endfacet
  facet normal -3.676235e-017 1.068803e-011 1.000000e+000
    outer loop
      vertex   8.203301e+002 2.453064e+002 1.800000e+000
      vertex   8.325943e+002 2.433064e+002 1.800000e+000
      vertex   8.354301e+002 2.453064e+002 1.800000e+000
    endloop
  endfacet
  facet normal 1.694547e-011 -1.333878e-011 1.000000e+000
    outer loop
      vertex   8.354301e+002 2.453064e+002 1.800000e+000
      vertex   8.325943e+002 2.433064e+002 1.800000e+000
      vertex   8.339344e+002 2.434065e+002 1.800000e+000
    endloop
  endfacet
  facet normal 1.113454e-015 -0.000000e+000 1.000000e+000
    outer loop
      vertex   8.354301e+002 2.435182e+002 1.800000e+000
      vertex   8.354301e+002 2.453064e+002 1.800000e+000
      vertex   8.339344e+002 2.434065e+002 1.800000e+000
    endloop
  endfacet
  facet normal -3.676235e-017 0.000000e+000 1.000000e+000
    outer loop
      vertex   8.354301e+002 2.501064e+002 1.800000e+000
      vertex   8.203301e+002 2.501064e+002 1.800000e+000
      vertex   8.354301e+002 2.481064e+002 1.800000e+000
    endloop
  endfacet
  facet normal -3.676235e-017 0.000000e+000 1.000000e+000
    outer loop
      vertex   8.354301e+002 2.481064e+002 1.800000e+000
      vertex   8.203301e+002 2.501064e+002 1.800000e+000
      vertex   8.203301e+002 2.481064e+002 1.800000e+000
    endloop
  endfacet
  facet normal -1.470494e-016 0.000000e+000 1.000000e+000
    outer loop
      vertex   8.203301e+002 2.481064e+002 1.800000e+000
      vertex   8.203301e+002 2.501064e+002 1.800000e+000
      vertex   8.052301e+002 2.501064e+002 1.800000e+000
    endloop
  endfacet
  facet normal -1.470494e-016 0.000000e+000 1.000000e+000
    outer loop
      vertex   8.052301e+002 2.481064e+002 1.800000e+000
      vertex   8.203301e+002 2.481064e+002 1.800000e+000
      vertex   8.052301e+002 2.501064e+002 1.800000e+000
    endloop
  endfacet
  facet normal -3.676235e-017 0.000000e+000 1.000000e+000
    outer loop
      vertex   8.354301e+002 2.549064e+002 1.800000e+000
      vertex   8.203301e+002 2.549064e+002 1.800000e+000
      vertex   8.354301e+002 2.529064e+002 1.800000e+000
    endloop
  endfacet
  facet normal -3.676235e-017 0.000000e+000 1.000000e+000
    outer loop
      vertex   8.354301e+002 2.529064e+002 1.800000e+000
      vertex   8.203301e+002 2.549064e+002 1.800000e+000
      vertex   8.203301e+002 2.529064e+002 1.800000e+000
    endloop
  endfacet
  facet normal -1.470494e-016 0.000000e+000 1.000000e+000
    outer loop
      vertex   8.203301e+002 2.529064e+002 1.800000e+000
      vertex   8.203301e+002 2.549064e+002 1.800000e+000
      vertex   8.052301e+002 2.549064e+002 1.800000e+000
    endloop
  endfacet
  facet normal -1.470494e-016 0.000000e+000 1.000000e+000
    outer loop
      vertex   8.052301e+002 2.529064e+002 1.800000e+000
      vertex   8.203301e+002 2.529064e+002 1.800000e+000
      vertex   8.052301e+002 2.549064e+002 1.800000e+000
    endloop
  endfacet
  facet normal -3.676235e-017 0.000000e+000 1.000000e+000
    outer loop
      vertex   8.354301e+002 2.597064e+002 1.800000e+000
      vertex   8.203301e+002 2.597064e+002 1.800000e+000
      vertex   8.354301e+002 2.577064e+002 1.800000e+000
    endloop
  endfacet
  facet normal -3.676235e-017 0.000000e+000 1.000000e+000
    outer loop
      vertex   8.354301e+002 2.577064e+002 1.800000e+000
      vertex   8.203301e+002 2.597064e+002 1.800000e+000
      vertex   8.203301e+002 2.577064e+002 1.800000e+000
    endloop
  endfacet
  facet normal -1.470494e-016 0.000000e+000 1.000000e+000
    outer loop
      vertex   8.203301e+002 2.577064e+002 1.800000e+000
      vertex   8.203301e+002 2.597064e+002 1.800000e+000
      vertex   8.052301e+002 2.597064e+002 1.800000e+000
    endloop
  endfacet
  facet normal -1.470494e-016 0.000000e+000 1.000000e+000
    outer loop
      vertex   8.052301e+002 2.577064e+002 1.800000e+000
      vertex   8.203301e+002 2.577064e+002 1.800000e+000
      vertex   8.052301e+002 2.597064e+002 1.800000e+000
    endloop
  endfacet
  facet normal -3.676235e-017 0.000000e+000 1.000000e+000
    outer loop
      vertex   8.354301e+002 2.645064e+002 1.800000e+000
      vertex   8.203301e+002 2.645064e+002 1.800000e+000
      vertex   8.354301e+002 2.625064e+002 1.800000e+000
    endloop
  endfacet
  facet normal -3.676235e-017 0.000000e+000 1.000000e+000
    outer loop
      vertex   8.354301e+002 2.625064e+002 1.800000e+000
      vertex   8.203301e+002 2.645064e+002 1.800000e+000
      vertex   8.203301e+002 2.625064e+002 1.800000e+000
    endloop
  endfacet
  facet normal -1.470494e-016 0.000000e+000 1.000000e+000
    outer loop
      vertex   8.203301e+002 2.625064e+002 1.800000e+000
      vertex   8.203301e+002 2.645064e+002 1.800000e+000
      vertex   8.052301e+002 2.645064e+002 1.800000e+000
    endloop
  endfacet
  facet normal -1.470494e-016 0.000000e+000 1.000000e+000
    outer loop
      vertex   8.052301e+002 2.625064e+002 1.800000e+000
      vertex   8.203301e+002 2.625064e+002 1.800000e+000
      vertex   8.052301e+002 2.645064e+002 1.800000e+000
    endloop
  endfacet
  facet normal -7.709255e-015 -1.000000e+000 -3.610203e-013
    outer loop
      vertex   8.328803e+002 2.673064e+002 1.800000e+000
      vertex   8.190552e+002 2.673064e+002 1.800000e+000
      vertex   8.331040e+002 2.673064e+002 1.500000e+000
    endloop
  endfacet
  facet normal -0.000000e+000 -1.000000e+000 -0.000000e+000
    outer loop
      vertex   8.331040e+002 2.673064e+002 1.500000e+000
      vertex   8.190552e+002 2.673064e+002 1.800000e+000
      vertex   8.193535e+002 2.673064e+002 1.000000e+000
    endloop
  endfacet
  facet normal -0.000000e+000 -1.000000e+000 0.000000e+000
    outer loop
      vertex   8.334769e+002 2.673064e+002 1.000000e+000
      vertex   8.331040e+002 2.673064e+002 1.500000e+000
      vertex   8.193535e+002 2.673064e+002 1.000000e+000
    endloop
  endfacet
  facet normal 0.000000e+000 -1.000000e+000 -0.000000e+000
    outer loop
      vertex   8.190552e+002 2.673064e+002 1.800000e+000
      vertex   8.052301e+002 2.673064e+002 1.800000e+000
      vertex   8.193535e+002 2.673064e+002 1.000000e+000
    endloop
  endfacet
  facet normal -0.000000e+000 -1.000000e+000 -0.000000e+000
    outer loop
      vertex   8.193535e+002 2.673064e+002 1.000000e+000
      vertex   8.052301e+002 2.673064e+002 1.800000e+000
      vertex   8.052301e+002 2.673064e+002 1.000000e+000
    endloop
  endfacet
  facet normal -0.000000e+000 1.000000e+000 0.000000e+000
    outer loop
      vertex   8.052301e+002 2.645064e+002 1.800000e+000
      vertex   8.203301e+002 2.645064e+002 1.800000e+000
      vertex   8.052301e+002 2.645064e+002 1.000000e+000
    endloop
  endfacet
  facet normal -0.000000e+000 1.000000e+000 0.000000e+000
    outer loop
      vertex   8.052301e+002 2.645064e+002 1.000000e+000
      vertex   8.203301e+002 2.645064e+002 1.800000e+000
      vertex   8.203301e+002 2.645064e+002 1.000000e+000
    endloop
  endfacet
  facet normal 0.000000e+000 1.000000e+000 0.000000e+000
    outer loop
      vertex   8.203301e+002 2.645064e+002 1.000000e+000
      vertex   8.203301e+002 2.645064e+002 1.800000e+000
      vertex   8.354301e+002 2.645064e+002 1.800000e+000
    endloop
  endfacet
  facet normal 0.000000e+000 1.000000e+000 -0.000000e+000
    outer loop
      vertex   8.354301e+002 2.645064e+002 1.000000e+000
      vertex   8.203301e+002 2.645064e+002 1.000000e+000
      vertex   8.354301e+002 2.645064e+002 1.800000e+000
    endloop
  endfacet
  facet normal -0.000000e+000 1.000000e+000 0.000000e+000
    outer loop
      vertex   8.052301e+002 2.597064e+002 1.800000e+000
      vertex   8.203301e+002 2.597064e+002 1.800000e+000
      vertex   8.052301e+002 2.597064e+002 1.000000e+000
    endloop
  endfacet
  facet normal -0.000000e+000 1.000000e+000 0.000000e+000
    outer loop
      vertex   8.052301e+002 2.597064e+002 1.000000e+000
      vertex   8.203301e+002 2.597064e+002 1.800000e+000
      vertex   8.203301e+002 2.597064e+002 1.000000e+000
    endloop
  endfacet
  facet normal 0.000000e+000 1.000000e+000 0.000000e+000
    outer loop
      vertex   8.203301e+002 2.597064e+002 1.000000e+000
      vertex   8.203301e+002 2.597064e+002 1.800000e+000
      vertex   8.354301e+002 2.597064e+002 1.800000e+000
    endloop
  endfacet
  facet normal 0.000000e+000 1.000000e+000 -0.000000e+000
    outer loop
      vertex   8.354301e+002 2.597064e+002 1.000000e+000
      vertex   8.203301e+002 2.597064e+002 1.000000e+000
      vertex   8.354301e+002 2.597064e+002 1.800000e+000
    endloop
  endfacet
  facet normal -0.000000e+000 1.000000e+000 0.000000e+000
    outer loop
      vertex   8.052301e+002 2.549064e+002 1.800000e+000
      vertex   8.203301e+002 2.549064e+002 1.800000e+000
      vertex   8.052301e+002 2.549064e+002 1.000000e+000
    endloop
  endfacet
  facet normal -0.000000e+000 1.000000e+000 0.000000e+000
    outer loop
      vertex   8.052301e+002 2.549064e+002 1.000000e+000
      vertex   8.203301e+002 2.549064e+002 1.800000e+000
      vertex   8.203301e+002 2.549064e+002 1.000000e+000
    endloop
  endfacet
  facet normal 0.000000e+000 1.000000e+000 0.000000e+000
    outer loop
      vertex   8.203301e+002 2.549064e+002 1.000000e+000
      vertex   8.203301e+002 2.549064e+002 1.800000e+000
      vertex   8.354301e+002 2.549064e+002 1.800000e+000
    endloop
  endfacet
  facet normal 0.000000e+000 1.000000e+000 -0.000000e+000
    outer loop
      vertex   8.354301e+002 2.549064e+002 1.000000e+000
      vertex   8.203301e+002 2.549064e+002 1.000000e+000
      vertex   8.354301e+002 2.549064e+002 1.800000e+000
    endloop
  endfacet
  facet normal -1.000000e+000 0.000000e+000 -0.000000e+000
    outer loop
      vertex   8.052301e+002 2.673064e+002 1.800000e+000
      vertex   8.052301e+002 2.693064e+002 1.800000e+000
      vertex   8.052301e+002 2.673064e+002 1.000000e+000
    endloop
  endfacet
  facet normal -1.000000e+000 0.000000e+000 0.000000e+000
    outer loop
      vertex   8.052301e+002 2.673064e+002 1.000000e+000
      vertex   8.052301e+002 2.693064e+002 1.800000e+000
      vertex   8.052301e+002 2.693064e+002 1.000000e+000
    endloop
  endfacet
  facet normal -1.000000e+000 0.000000e+000 -1.421085e-013
    outer loop
      vertex   8.052301e+002 2.737399e+002 0.000000e+000
      vertex   8.052301e+002 2.693064e+002 1.000000e+000
      vertex   8.052301e+002 2.721064e+002 1.000000e+000
    endloop
  endfacet
  facet normal -1.000000e+000 -1.025766e-013 0.000000e+000
    outer loop
      vertex   8.052301e+002 2.734918e+002 1.500000e+000
      vertex   8.052301e+002 2.721064e+002 1.000000e+000
      vertex   8.052301e+002 2.721064e+002 1.800000e+000
    endloop
  endfacet
  facet normal -1.000000e+000 -1.063873e-013 -1.759748e-014
    outer loop
      vertex   8.052301e+002 2.734422e+002 1.800000e+000
      vertex   8.052301e+002 2.734918e+002 1.500000e+000
      vertex   8.052301e+002 2.721064e+002 1.800000e+000
    endloop
  endfacet
  facet normal -1.000000e+000 -3.226634e-014 -1.948142e-013
    outer loop
      vertex   8.052301e+002 2.734918e+002 1.500000e+000
      vertex   8.052301e+002 2.737399e+002 0.000000e+000
      vertex   8.052301e+002 2.721064e+002 1.000000e+000
    endloop
  endfacet
  facet normal -1.000000e+000 0.000000e+000 -1.421085e-013
    outer loop
      vertex   8.052301e+002 2.597064e+002 1.000000e+000
      vertex   8.052301e+002 2.625064e+002 1.000000e+000
      vertex   8.052301e+002 2.574475e+002 0.000000e+000
    endloop
  endfacet
  facet normal -1.000000e+000 0.000000e+000 -1.421085e-013
    outer loop
      vertex   8.052301e+002 2.577064e+002 1.000000e+000
      vertex   8.052301e+002 2.574475e+002 0.000000e+000
      vertex   8.052301e+002 2.549064e+002 1.000000e+000
    endloop
  endfacet
  facet normal -1.000000e+000 0.000000e+000 -1.421085e-013
    outer loop
      vertex   8.052301e+002 2.577064e+002 1.000000e+000
      vertex   8.052301e+002 2.597064e+002 1.000000e+000
      vertex   8.052301e+002 2.574475e+002 0.000000e+000
    endloop
  endfacet
  facet normal -1.000000e+000 0.000000e+000 0.000000e+000
    outer loop
      vertex   8.052301e+002 2.577064e+002 1.000000e+000
      vertex   8.052301e+002 2.597064e+002 1.800000e+000
      vertex   8.052301e+002 2.597064e+002 1.000000e+000
    endloop
  endfacet
  facet normal -1.000000e+000 0.000000e+000 0.000000e+000
    outer loop
      vertex   8.052301e+002 2.577064e+002 1.000000e+000
      vertex   8.052301e+002 2.577064e+002 1.800000e+000
      vertex   8.052301e+002 2.597064e+002 1.800000e+000
    endloop
  endfacet
  facet normal -1.000000e+000 0.000000e+000 -0.000000e+000
    outer loop
      vertex   8.052301e+002 2.453064e+002 1.000000e+000
      vertex   8.052301e+002 2.481064e+002 1.000000e+000
      vertex   8.052301e+002 2.411550e+002 0.000000e+000
    endloop
  endfacet
  facet normal -1.000000e+000 -0.000000e+000 0.000000e+000
    outer loop
      vertex   8.052301e+002 2.433064e+002 1.000000e+000
      vertex   8.052301e+002 2.411550e+002 0.000000e+000
      vertex   8.052301e+002 2.412246e+002 1.000000e+000
    endloop
  endfacet
  facet normal -1.000000e+000 0.000000e+000 -0.000000e+000
    outer loop
      vertex   8.052301e+002 2.433064e+002 1.000000e+000
      vertex   8.052301e+002 2.453064e+002 1.000000e+000
      vertex   8.052301e+002 2.411550e+002 0.000000e+000
    endloop
  endfacet
  facet normal -1.000000e+000 0.000000e+000 0.000000e+000
    outer loop
      vertex   8.052301e+002 2.433064e+002 1.000000e+000
      vertex   8.052301e+002 2.453064e+002 1.800000e+000
      vertex   8.052301e+002 2.453064e+002 1.000000e+000
    endloop
  endfacet
  facet normal -1.000000e+000 0.000000e+000 0.000000e+000
    outer loop
      vertex   8.052301e+002 2.433064e+002 1.000000e+000
      vertex   8.052301e+002 2.433064e+002 1.800000e+000
      vertex   8.052301e+002 2.453064e+002 1.800000e+000
    endloop
  endfacet
  facet normal -1.000000e+000 0.000000e+000 -0.000000e+000
    outer loop
      vertex   8.052301e+002 2.481064e+002 1.800000e+000
      vertex   8.052301e+002 2.501064e+002 1.800000e+000
      vertex   8.052301e+002 2.481064e+002 1.000000e+000
    endloop
  endfacet
  facet normal -1.000000e+000 0.000000e+000 0.000000e+000
    outer loop
      vertex   8.052301e+002 2.481064e+002 1.000000e+000
      vertex   8.052301e+002 2.501064e+002 1.800000e+000
      vertex   8.052301e+002 2.501064e+002 1.000000e+000
    endloop
  endfacet
  facet normal -1.000000e+000 8.722371e-015 -7.807732e-014
    outer loop
      vertex   8.052301e+002 2.411550e+002 0.000000e+000
      vertex   8.052301e+002 2.501064e+002 1.000000e+000
      vertex   8.052301e+002 2.574475e+002 0.000000e+000
    endloop
  endfacet
  facet normal -1.000000e+000 0.000000e+000 0.000000e+000
    outer loop
      vertex   8.052301e+002 2.411550e+002 0.000000e+000
      vertex   8.052301e+002 2.481064e+002 1.000000e+000
      vertex   8.052301e+002 2.501064e+002 1.000000e+000
    endloop
  endfacet
  facet normal -1.000000e+000 0.000000e+000 -1.421085e-013
    outer loop
      vertex   8.052301e+002 2.501064e+002 1.000000e+000
      vertex   8.052301e+002 2.529064e+002 1.000000e+000
      vertex   8.052301e+002 2.574475e+002 0.000000e+000
    endloop
  endfacet
  facet normal -1.000000e+000 0.000000e+000 -1.421085e-013
    outer loop
      vertex   8.052301e+002 2.574475e+002 0.000000e+000
      vertex   8.052301e+002 2.529064e+002 1.000000e+000
      vertex   8.052301e+002 2.549064e+002 1.000000e+000
    endloop
  endfacet
  facet normal -1.000000e+000 0.000000e+000 0.000000e+000
    outer loop
      vertex   8.052301e+002 2.549064e+002 1.000000e+000
      vertex   8.052301e+002 2.529064e+002 1.000000e+000
      vertex   8.052301e+002 2.549064e+002 1.800000e+000
    endloop
  endfacet
  facet normal -1.000000e+000 -0.000000e+000 0.000000e+000
    outer loop
      vertex   8.052301e+002 2.549064e+002 1.800000e+000
      vertex   8.052301e+002 2.529064e+002 1.000000e+000
      vertex   8.052301e+002 2.529064e+002 1.800000e+000
    endloop
  endfacet
  facet normal -1.000000e+000 0.000000e+000 -0.000000e+000
    outer loop
      vertex   8.052301e+002 2.625064e+002 1.800000e+000
      vertex   8.052301e+002 2.645064e+002 1.800000e+000
      vertex   8.052301e+002 2.625064e+002 1.000000e+000
    endloop
  endfacet
  facet normal -1.000000e+000 0.000000e+000 0.000000e+000
    outer loop
      vertex   8.052301e+002 2.625064e+002 1.000000e+000
      vertex   8.052301e+002 2.645064e+002 1.800000e+000
      vertex   8.052301e+002 2.645064e+002 1.000000e+000
    endloop
  endfacet
  facet normal -1.000000e+000 0.000000e+000 -1.421085e-013
    outer loop
      vertex   8.052301e+002 2.574475e+002 0.000000e+000
      vertex   8.052301e+002 2.645064e+002 1.000000e+000
      vertex   8.052301e+002 2.737399e+002 0.000000e+000
    endloop
  endfacet
  facet normal -1.000000e+000 0.000000e+000 -1.421085e-013
    outer loop
      vertex   8.052301e+002 2.574475e+002 0.000000e+000
      vertex   8.052301e+002 2.625064e+002 1.000000e+000
      vertex   8.052301e+002 2.645064e+002 1.000000e+000
    endloop
  endfacet
  facet normal -1.000000e+000 0.000000e+000 -1.421085e-013
    outer loop
      vertex   8.052301e+002 2.645064e+002 1.000000e+000
      vertex   8.052301e+002 2.673064e+002 1.000000e+000
      vertex   8.052301e+002 2.737399e+002 0.000000e+000
    endloop
  endfacet
  facet normal -1.000000e+000 0.000000e+000 -1.421085e-013
    outer loop
      vertex   8.052301e+002 2.737399e+002 0.000000e+000
      vertex   8.052301e+002 2.673064e+002 1.000000e+000
      vertex   8.052301e+002 2.693064e+002 1.000000e+000
    endloop
  endfacet
  facet normal -0.000000e+000 1.000000e+000 0.000000e+000
    outer loop
      vertex   8.052301e+002 2.453064e+002 1.800000e+000
      vertex   8.203301e+002 2.453064e+002 1.800000e+000
      vertex   8.052301e+002 2.453064e+002 1.000000e+000
    endloop
  endfacet
  facet normal -0.000000e+000 1.000000e+000 0.000000e+000
    outer loop
      vertex   8.052301e+002 2.453064e+002 1.000000e+000
      vertex   8.203301e+002 2.453064e+002 1.800000e+000
      vertex   8.203301e+002 2.453064e+002 1.000000e+000
    endloop
  endfacet
  facet normal 0.000000e+000 1.000000e+000 0.000000e+000
    outer loop
      vertex   8.203301e+002 2.453064e+002 1.000000e+000
      vertex   8.203301e+002 2.453064e+002 1.800000e+000
      vertex   8.354301e+002 2.453064e+002 1.800000e+000
    endloop
  endfacet
  facet normal 0.000000e+000 1.000000e+000 -0.000000e+000
    outer loop
      vertex   8.354301e+002 2.453064e+002 1.000000e+000
      vertex   8.203301e+002 2.453064e+002 1.000000e+000
      vertex   8.354301e+002 2.453064e+002 1.800000e+000
    endloop
  endfacet
  facet normal -2.630823e-015 -1.171829e-014 1.000000e+000
    outer loop
      vertex   8.439705e+002 2.646116e+002 3.000000e+000
      vertex   8.354301e+002 2.665290e+002 3.000000e+000
      vertex   8.428652e+002 2.624438e+002 3.000000e+000
    endloop
  endfacet
  facet normal 3.807567e-015 0.000000e+000 1.000000e+000
    outer loop
      vertex   8.354301e+002 2.436022e+002 3.000000e+000
      vertex   8.428654e+002 2.500620e+002 3.000000e+000
      vertex   8.354301e+002 2.550656e+002 3.000000e+000
    endloop
  endfacet
  facet normal -3.111824e-016 4.740733e-015 1.000000e+000
    outer loop
      vertex   8.354301e+002 2.436022e+002 3.000000e+000
      vertex   8.479406e+002 2.445405e+002 3.000000e+000
      vertex   8.428654e+002 2.500620e+002 3.000000e+000
    endloop
  endfacet
  facet normal -3.469958e-016 4.707815e-015 1.000000e+000
    outer loop
      vertex   8.428654e+002 2.500620e+002 3.000000e+000
      vertex   8.479406e+002 2.445405e+002 3.000000e+000
      vertex   8.544039e+002 2.509125e+002 3.000000e+000
    endloop
  endfacet
  facet normal -4.391135e-016 4.801252e-015 1.000000e+000
    outer loop
      vertex   8.544039e+002 2.509125e+002 3.000000e+000
      vertex   8.479406e+002 2.445405e+002 3.000000e+000
      vertex   8.623739e+002 2.456293e+002 3.000000e+000
    endloop
  endfacet
  facet normal -3.327758e-016 4.896545e-015 1.000000e+000
    outer loop
      vertex   8.659422e+002 2.517669e+002 3.000000e+000
      vertex   8.623739e+002 2.456293e+002 3.000000e+000
      vertex   8.768085e+002 2.467236e+002 3.000000e+000
    endloop
  endfacet
  facet normal -3.682082e-016 4.838546e-015 1.000000e+000
    outer loop
      vertex   8.774798e+002 2.526258e+002 3.000000e+000
      vertex   8.768085e+002 2.467236e+002 3.000000e+000
      vertex   8.912440e+002 2.478221e+002 3.000000e+000
    endloop
  endfacet
  facet normal -4.064862e-015 3.397294e-015 1.000000e+000
    outer loop
      vertex   8.890159e+002 2.534896e+002 3.000000e+000
      vertex   8.912440e+002 2.478221e+002 3.000000e+000
      vertex   8.966499e+002 2.541269e+002 3.000000e+000
    endloop
  endfacet
  facet normal -3.804133e-015 -2.144358e-014 1.000000e+000
    outer loop
      vertex   8.890159e+002 2.541351e+002 3.000000e+000
      vertex   8.966499e+002 2.541269e+002 3.000000e+000
      vertex   8.834114e+002 2.564237e+002 3.000000e+000
    endloop
  endfacet
  facet normal -3.163426e-015 -1.670707e-014 1.000000e+000
    outer loop
      vertex   8.774393e+002 2.558932e+002 3.000000e+000
      vertex   8.834114e+002 2.564237e+002 3.000000e+000
      vertex   8.702276e+002 2.589864e+002 3.000000e+000
    endloop
  endfacet
  facet normal -3.040191e-015 -1.433838e-014 1.000000e+000
    outer loop
      vertex   8.658918e+002 2.578926e+002 3.000000e+000
      vertex   8.702276e+002 2.589864e+002 3.000000e+000
      vertex   8.570849e+002 2.617344e+002 3.000000e+000
    endloop
  endfacet
  facet normal -2.772986e-015 -1.263933e-014 1.000000e+000
    outer loop
      vertex   8.543687e+002 2.600904e+002 3.000000e+000
      vertex   8.570849e+002 2.617344e+002 3.000000e+000
      vertex   8.439705e+002 2.646116e+002 3.000000e+000
    endloop
  endfacet
  facet normal -2.419384e-015 -1.182609e-014 1.000000e+000
    outer loop
      vertex   8.428652e+002 2.624438e+002 3.000000e+000
      vertex   8.543687e+002 2.600904e+002 3.000000e+000
      vertex   8.439705e+002 2.646116e+002 3.000000e+000
    endloop
  endfacet
  facet normal 2.644638e-017 -1.107223e-016 1.000000e+000
    outer loop
      vertex   8.966499e+002 2.541269e+002 3.000000e+000
      vertex   8.912440e+002 2.478221e+002 3.000000e+000
      vertex   9.003883e+002 2.500063e+002 3.000000e+000
    endloop
  endfacet
  facet normal 1.484872e-016 0.000000e+000 1.000000e+000
    outer loop
      vertex   9.003883e+002 2.524063e+002 3.000000e+000
      vertex   8.966499e+002 2.541269e+002 3.000000e+000
      vertex   9.003883e+002 2.500063e+002 3.000000e+000
    endloop
  endfacet
  facet normal 0.000000e+000 -3.226250e-016 1.000000e+000
    outer loop
      vertex   9.003883e+002 2.524063e+002 3.000000e+000
      vertex   9.097647e+002 2.524063e+002 3.000000e+000
      vertex   8.966499e+002 2.541269e+002 3.000000e+000
    endloop
  endfacet
  facet normal 0.000000e+000 0.000000e+000 1.000000e+000
    outer loop
      vertex   9.198568e+002 2.500063e+002 3.000000e+000
      vertex   9.102485e+002 2.500063e+002 3.000000e+000
      vertex   9.056801e+002 2.489235e+002 3.000000e+000
    endloop
  endfacet
  facet normal 0.000000e+000 -0.000000e+000 1.000000e+000
    outer loop
      vertex   9.056801e+002 2.489235e+002 3.000000e+000
      vertex   9.102485e+002 2.500063e+002 3.000000e+000
      vertex   9.003883e+002 2.500063e+002 3.000000e+000
    endloop
  endfacet
  facet normal 0.000000e+000 -0.000000e+000 1.000000e+000
    outer loop
      vertex   8.912440e+002 2.478221e+002 3.000000e+000
      vertex   9.056801e+002 2.489235e+002 3.000000e+000
      vertex   9.003883e+002 2.500063e+002 3.000000e+000
    endloop
  endfacet
  facet normal -3.781236e-015 -8.324768e-028 1.000000e+000
    outer loop
      vertex   8.890159e+002 2.541351e+002 3.000000e+000
      vertex   8.890159e+002 2.534896e+002 3.000000e+000
      vertex   8.966499e+002 2.541269e+002 3.000000e+000
    endloop
  endfacet
  facet normal -3.633462e-016 4.852478e-015 1.000000e+000
    outer loop
      vertex   8.890159e+002 2.534896e+002 3.000000e+000
      vertex   8.774798e+002 2.526258e+002 3.000000e+000
      vertex   8.912440e+002 2.478221e+002 3.000000e+000
    endloop
  endfacet
  facet normal -3.601213e-016 4.837627e-015 1.000000e+000
    outer loop
      vertex   8.774798e+002 2.526258e+002 3.000000e+000
      vertex   8.659422e+002 2.517669e+002 3.000000e+000
      vertex   8.768085e+002 2.467236e+002 3.000000e+000
    endloop
  endfacet
  facet normal -3.639358e-016 4.914661e-015 1.000000e+000
    outer loop
      vertex   8.659422e+002 2.517669e+002 3.000000e+000
      vertex   8.544039e+002 2.509125e+002 3.000000e+000
      vertex   8.623739e+002 2.456293e+002 3.000000e+000
    endloop
  endfacet
  facet normal 3.807608e-015 6.094992e-020 1.000000e+000
    outer loop
      vertex   8.428654e+002 2.500620e+002 3.000000e+000
      vertex   8.428652e+002 2.624438e+002 3.000000e+000
      vertex   8.354301e+002 2.550656e+002 3.000000e+000
    endloop
  endfacet
  facet normal 3.807668e-015 -9.440513e-029 1.000000e+000
    outer loop
      vertex   8.354301e+002 2.550656e+002 3.000000e+000
      vertex   8.428652e+002 2.624438e+002 3.000000e+000
      vertex   8.354301e+002 2.665290e+002 3.000000e+000
    endloop
  endfacet
  facet normal -2.709564e-015 -1.564894e-014 1.000000e+000
    outer loop
      vertex   8.658918e+002 2.578926e+002 3.000000e+000
      vertex   8.774393e+002 2.558932e+002 3.000000e+000
      vertex   8.702276e+002 2.589864e+002 3.000000e+000
    endloop
  endfacet
  facet normal -2.932332e-015 -1.930865e-014 1.000000e+000
    outer loop
      vertex   8.834114e+002 2.564237e+002 3.000000e+000
      vertex   8.774393e+002 2.558932e+002 3.000000e+000
      vertex   8.890159e+002 2.541351e+002 3.000000e+000
    endloop
  endfacet
  facet normal -2.497544e-015 -1.309443e-014 1.000000e+000
    outer loop
      vertex   8.658918e+002 2.578926e+002 3.000000e+000
      vertex   8.570849e+002 2.617344e+002 3.000000e+000
      vertex   8.543687e+002 2.600904e+002 3.000000e+000
    endloop
  endfacet
  facet normal -1.000000e+000 -6.687654e-029 2.842171e-013
    outer loop
      vertex   8.354301e+002 2.668656e+002 1.000000e+000
      vertex   8.354301e+002 2.645064e+002 1.000000e+000
      vertex   8.354301e+002 2.667814e+002 1.500000e+000
    endloop
  endfacet
  facet normal -1.000000e+000 1.405468e-013 -3.552714e-013
    outer loop
      vertex   8.354301e+002 2.667814e+002 1.500000e+000
      vertex   8.354301e+002 2.645064e+002 1.000000e+000
      vertex   8.354301e+002 2.645064e+002 1.800000e+000
    endloop
  endfacet
  facet normal -1.000000e+000 0.000000e+000 2.368476e-013
    outer loop
      vertex   8.354301e+002 2.667309e+002 1.800000e+000
      vertex   8.354301e+002 2.645064e+002 1.800000e+000
      vertex   8.354301e+002 2.665290e+002 3.000000e+000
    endloop
  endfacet
  facet normal -1.000000e+000 0.000000e+000 -1.421085e-012
    outer loop
      vertex   8.354301e+002 2.667309e+002 1.800000e+000
      vertex   8.354301e+002 2.667814e+002 1.500000e+000
      vertex   8.354301e+002 2.645064e+002 1.800000e+000
    endloop
  endfacet
  facet normal -1.000000e+000 0.000000e+000 2.368476e-013
    outer loop
      vertex   8.354301e+002 2.645064e+002 1.800000e+000
      vertex   8.354301e+002 2.625064e+002 1.800000e+000
      vertex   8.354301e+002 2.665290e+002 3.000000e+000
    endloop
  endfacet
  facet normal -1.000000e+000 0.000000e+000 2.368476e-013
    outer loop
      vertex   8.354301e+002 2.665290e+002 3.000000e+000
      vertex   8.354301e+002 2.625064e+002 1.800000e+000
      vertex   8.354301e+002 2.597064e+002 1.800000e+000
    endloop
  endfacet
  facet normal -1.000000e+000 -0.000000e+000 -0.000000e+000
    outer loop
      vertex   8.354301e+002 2.550656e+002 3.000000e+000
      vertex   8.354301e+002 2.597064e+002 1.800000e+000
      vertex   8.354301e+002 2.577064e+002 1.800000e+000
    endloop
  endfacet
  facet normal -1.000000e+000 0.000000e+000 -3.552714e-013
    outer loop
      vertex   8.354301e+002 2.549064e+002 1.800000e+000
      vertex   8.354301e+002 2.577064e+002 1.800000e+000
      vertex   8.354301e+002 2.549064e+002 1.000000e+000
    endloop
  endfacet
  facet normal -1.000000e+000 0.000000e+000 0.000000e+000
    outer loop
      vertex   8.354301e+002 2.549064e+002 1.800000e+000
      vertex   8.354301e+002 2.550656e+002 3.000000e+000
      vertex   8.354301e+002 2.577064e+002 1.800000e+000
    endloop
  endfacet
  facet normal -1.000000e+000 0.000000e+000 0.000000e+000
    outer loop
      vertex   8.354301e+002 2.549064e+002 1.800000e+000
      vertex   8.354301e+002 2.529064e+002 1.800000e+000
      vertex   8.354301e+002 2.550656e+002 3.000000e+000
    endloop
  endfacet
  facet normal -1.000000e+000 -0.000000e+000 0.000000e+000
    outer loop
      vertex   8.354301e+002 2.550656e+002 3.000000e+000
      vertex   8.354301e+002 2.529064e+002 1.800000e+000
      vertex   8.354301e+002 2.501064e+002 1.800000e+000
    endloop
  endfacet
  facet normal -1.000000e+000 -0.000000e+000 -0.000000e+000
    outer loop
      vertex   8.354301e+002 2.436022e+002 3.000000e+000
      vertex   8.354301e+002 2.501064e+002 1.800000e+000
      vertex   8.354301e+002 2.481064e+002 1.800000e+000
    endloop
  endfacet
  facet normal -1.000000e+000 0.000000e+000 -3.552714e-013
    outer loop
      vertex   8.354301e+002 2.453064e+002 1.800000e+000
      vertex   8.354301e+002 2.481064e+002 1.800000e+000
      vertex   8.354301e+002 2.453064e+002 1.000000e+000
    endloop
  endfacet
  facet normal -1.000000e+000 0.000000e+000 0.000000e+000
    outer loop
      vertex   8.354301e+002 2.453064e+002 1.800000e+000
      vertex   8.354301e+002 2.436022e+002 3.000000e+000
      vertex   8.354301e+002 2.481064e+002 1.800000e+000
    endloop
  endfacet
  facet normal -1.000000e+000 0.000000e+000 0.000000e+000
    outer loop
      vertex   8.354301e+002 2.453064e+002 1.800000e+000
      vertex   8.354301e+002 2.435182e+002 1.800000e+000
      vertex   8.354301e+002 2.436022e+002 3.000000e+000
    endloop
  endfacet
  facet normal -1.000000e+000 -0.000000e+000 -3.552714e-013
    outer loop
      vertex   8.354301e+002 2.625064e+002 1.000000e+000
      vertex   8.354301e+002 2.597064e+002 1.000000e+000
      vertex   8.354301e+002 2.625064e+002 1.800000e+000
    endloop
  endfacet
  facet normal -1.000000e+000 0.000000e+000 -3.552714e-013
    outer loop
      vertex   8.354301e+002 2.625064e+002 1.800000e+000
      vertex   8.354301e+002 2.597064e+002 1.000000e+000
      vertex   8.354301e+002 2.597064e+002 1.800000e+000
    endloop
  endfacet
  facet normal -1.000000e+000 -0.000000e+000 -3.552714e-013
    outer loop
      vertex   8.354301e+002 2.577064e+002 1.800000e+000
      vertex   8.354301e+002 2.577064e+002 1.000000e+000
      vertex   8.354301e+002 2.549064e+002 1.000000e+000
    endloop
  endfacet
  facet normal -1.000000e+000 -0.000000e+000 -3.552714e-013
    outer loop
      vertex   8.354301e+002 2.529064e+002 1.000000e+000
      vertex   8.354301e+002 2.501064e+002 1.000000e+000
      vertex   8.354301e+002 2.529064e+002 1.800000e+000
    endloop
  endfacet
  facet normal -1.000000e+000 0.000000e+000 -3.552714e-013
    outer loop
      vertex   8.354301e+002 2.529064e+002 1.800000e+000
      vertex   8.354301e+002 2.501064e+002 1.000000e+000
      vertex   8.354301e+002 2.501064e+002 1.800000e+000
    endloop
  endfacet
  facet normal -1.000000e+000 -0.000000e+000 -3.552714e-013
    outer loop
      vertex   8.354301e+002 2.481064e+002 1.800000e+000
      vertex   8.354301e+002 2.481064e+002 1.000000e+000
      vertex   8.354301e+002 2.453064e+002 1.000000e+000
    endloop
  endfacet
  facet normal -1.000000e+000 0.000000e+000 -0.000000e+000
    outer loop
      vertex   8.354301e+002 2.436022e+002 3.000000e+000
      vertex   8.354301e+002 2.550656e+002 3.000000e+000
      vertex   8.354301e+002 2.501064e+002 1.800000e+000
    endloop
  endfacet
  facet normal -1.000000e+000 2.479343e-014 9.588531e-014
    outer loop
      vertex   8.354301e+002 2.550656e+002 3.000000e+000
      vertex   8.354301e+002 2.665290e+002 3.000000e+000
      vertex   8.354301e+002 2.597064e+002 1.800000e+000
    endloop
  endfacet
  facet normal -5.310901e-017 -2.353009e-016 1.000000e+000
    outer loop
      vertex   8.354301e+002 2.668656e+002 1.000000e+000
      vertex   8.334769e+002 2.673064e+002 1.000000e+000
      vertex   8.354301e+002 2.645064e+002 1.000000e+000
    endloop
  endfacet
  facet normal 3.676235e-017 -1.726101e-016 1.000000e+000
    outer loop
      vertex   8.354301e+002 2.645064e+002 1.000000e+000
      vertex   8.334769e+002 2.673064e+002 1.000000e+000
      vertex   8.203301e+002 2.645064e+002 1.000000e+000
    endloop
  endfacet
  facet normal 0.000000e+000 -0.000000e+000 1.000000e+000
    outer loop
      vertex   8.203301e+002 2.645064e+002 1.000000e+000
      vertex   8.334769e+002 2.673064e+002 1.000000e+000
      vertex   8.193535e+002 2.673064e+002 1.000000e+000
    endloop
  endfacet
  facet normal -0.000000e+000 -0.000000e+000 1.000000e+000
    outer loop
      vertex   8.052301e+002 2.673064e+002 1.000000e+000
      vertex   8.203301e+002 2.645064e+002 1.000000e+000
      vertex   8.193535e+002 2.673064e+002 1.000000e+000
    endloop
  endfacet
  facet normal -0.000000e+000 0.000000e+000 1.000000e+000
    outer loop
      vertex   8.052301e+002 2.673064e+002 1.000000e+000
      vertex   8.052301e+002 2.645064e+002 1.000000e+000
      vertex   8.203301e+002 2.645064e+002 1.000000e+000
    endloop
  endfacet
  facet normal 0.000000e+000 -0.000000e+000 1.000000e+000
    outer loop
      vertex   8.052301e+002 2.549064e+002 1.000000e+000
      vertex   8.203301e+002 2.549064e+002 1.000000e+000
      vertex   8.052301e+002 2.577064e+002 1.000000e+000
    endloop
  endfacet
  facet normal -0.000000e+000 0.000000e+000 1.000000e+000
    outer loop
      vertex   8.052301e+002 2.577064e+002 1.000000e+000
      vertex   8.203301e+002 2.549064e+002 1.000000e+000
      vertex   8.203301e+002 2.577064e+002 1.000000e+000
    endloop
  endfacet
  facet normal 3.676235e-017 0.000000e+000 1.000000e+000
    outer loop
      vertex   8.203301e+002 2.577064e+002 1.000000e+000
      vertex   8.203301e+002 2.549064e+002 1.000000e+000
      vertex   8.354301e+002 2.549064e+002 1.000000e+000
    endloop
  endfacet
  facet normal 3.676235e-017 0.000000e+000 1.000000e+000
    outer loop
      vertex   8.354301e+002 2.577064e+002 1.000000e+000
      vertex   8.203301e+002 2.577064e+002 1.000000e+000
      vertex   8.354301e+002 2.549064e+002 1.000000e+000
    endloop
  endfacet
  facet normal 0.000000e+000 -1.000000e+000 -0.000000e+000
    outer loop
      vertex   8.354301e+002 2.577064e+002 1.800000e+000
      vertex   8.203301e+002 2.577064e+002 1.800000e+000
      vertex   8.354301e+002 2.577064e+002 1.000000e+000
    endloop
  endfacet
  facet normal -0.000000e+000 -1.000000e+000 -0.000000e+000
    outer loop
      vertex   8.354301e+002 2.577064e+002 1.000000e+000
      vertex   8.203301e+002 2.577064e+002 1.800000e+000
      vertex   8.203301e+002 2.577064e+002 1.000000e+000
    endloop
  endfacet
  facet normal -0.000000e+000 -1.000000e+000 0.000000e+000
    outer loop
      vertex   8.203301e+002 2.577064e+002 1.000000e+000
      vertex   8.203301e+002 2.577064e+002 1.800000e+000
      vertex   8.052301e+002 2.577064e+002 1.800000e+000
    endloop
  endfacet
  facet normal 0.000000e+000 -1.000000e+000 0.000000e+000
    outer loop
      vertex   8.052301e+002 2.577064e+002 1.000000e+000
      vertex   8.203301e+002 2.577064e+002 1.000000e+000
      vertex   8.052301e+002 2.577064e+002 1.800000e+000
    endloop
  endfacet
  facet normal 0.000000e+000 -0.000000e+000 1.000000e+000
    outer loop
      vertex   8.052301e+002 2.453064e+002 1.000000e+000
      vertex   8.203301e+002 2.453064e+002 1.000000e+000
      vertex   8.052301e+002 2.481064e+002 1.000000e+000
    endloop
  endfacet
  facet normal -0.000000e+000 0.000000e+000 1.000000e+000
    outer loop
      vertex   8.052301e+002 2.481064e+002 1.000000e+000
      vertex   8.203301e+002 2.453064e+002 1.000000e+000
      vertex   8.203301e+002 2.481064e+002 1.000000e+000
    endloop
  endfacet
  facet normal 3.676235e-017 0.000000e+000 1.000000e+000
    outer loop
      vertex   8.203301e+002 2.481064e+002 1.000000e+000
      vertex   8.203301e+002 2.453064e+002 1.000000e+000
      vertex   8.354301e+002 2.453064e+002 1.000000e+000
    endloop
  endfacet
  facet normal 3.676235e-017 0.000000e+000 1.000000e+000
    outer loop
      vertex   8.354301e+002 2.481064e+002 1.000000e+000
      vertex   8.203301e+002 2.481064e+002 1.000000e+000
      vertex   8.354301e+002 2.453064e+002 1.000000e+000
    endloop
  endfacet
  facet normal 0.000000e+000 -1.000000e+000 -0.000000e+000
    outer loop
      vertex   8.354301e+002 2.481064e+002 1.800000e+000
      vertex   8.203301e+002 2.481064e+002 1.800000e+000
      vertex   8.354301e+002 2.481064e+002 1.000000e+000
    endloop
  endfacet
  facet normal -0.000000e+000 -1.000000e+000 -0.000000e+000
    outer loop
      vertex   8.354301e+002 2.481064e+002 1.000000e+000
      vertex   8.203301e+002 2.481064e+002 1.800000e+000
      vertex   8.203301e+002 2.481064e+002 1.000000e+000
    endloop
  endfacet
  facet normal -0.000000e+000 -1.000000e+000 0.000000e+000
    outer loop
      vertex   8.203301e+002 2.481064e+002 1.000000e+000
      vertex   8.203301e+002 2.481064e+002 1.800000e+000
      vertex   8.052301e+002 2.481064e+002 1.800000e+000
    endloop
  endfacet
  facet normal 0.000000e+000 -1.000000e+000 0.000000e+000
    outer loop
      vertex   8.052301e+002 2.481064e+002 1.000000e+000
      vertex   8.203301e+002 2.481064e+002 1.000000e+000
      vertex   8.052301e+002 2.481064e+002 1.800000e+000
    endloop
  endfacet
  facet normal 9.409949e-017 1.599873e-015 1.000000e+000
    outer loop
      vertex   8.052301e+002 2.412246e+002 1.000000e+000
      vertex   8.196265e+002 2.422862e+002 1.000000e+000
      vertex   8.052301e+002 2.433064e+002 1.000000e+000
    endloop
  endfacet
  facet normal 0.000000e+000 2.720493e-016 1.000000e+000
    outer loop
      vertex   8.052301e+002 2.433064e+002 1.000000e+000
      vertex   8.196265e+002 2.422862e+002 1.000000e+000
      vertex   8.192867e+002 2.433064e+002 1.000000e+000
    endloop
  endfacet
  facet normal 0.000000e+000 2.720493e-016 1.000000e+000
    outer loop
      vertex   8.192867e+002 2.433064e+002 1.000000e+000
      vertex   8.196265e+002 2.422862e+002 1.000000e+000
      vertex   8.333433e+002 2.433064e+002 1.000000e+000
    endloop
  endfacet
  facet normal 2.596612e-015 -1.000000e+000 4.684006e-014
    outer loop
      vertex   8.325943e+002 2.433064e+002 1.800000e+000
      vertex   8.189122e+002 2.433064e+002 1.800000e+000
      vertex   8.333433e+002 2.433064e+002 1.000000e+000
    endloop
  endfacet
  facet normal -0.000000e+000 -1.000000e+000 -0.000000e+000
    outer loop
      vertex   8.333433e+002 2.433064e+002 1.000000e+000
      vertex   8.189122e+002 2.433064e+002 1.800000e+000
      vertex   8.192867e+002 2.433064e+002 1.000000e+000
    endloop
  endfacet
  facet normal -0.000000e+000 -1.000000e+000 0.000000e+000
    outer loop
      vertex   8.192867e+002 2.433064e+002 1.000000e+000
      vertex   8.189122e+002 2.433064e+002 1.800000e+000
      vertex   8.052301e+002 2.433064e+002 1.800000e+000
    endloop
  endfacet
  facet normal 0.000000e+000 -1.000000e+000 0.000000e+000
    outer loop
      vertex   8.052301e+002 2.433064e+002 1.000000e+000
      vertex   8.192867e+002 2.433064e+002 1.000000e+000
      vertex   8.052301e+002 2.433064e+002 1.800000e+000
    endloop
  endfacet
  facet normal -0.000000e+000 1.000000e+000 0.000000e+000
    outer loop
      vertex   8.052301e+002 2.501064e+002 1.800000e+000
      vertex   8.203301e+002 2.501064e+002 1.800000e+000
      vertex   8.052301e+002 2.501064e+002 1.000000e+000
    endloop
  endfacet
  facet normal -0.000000e+000 1.000000e+000 0.000000e+000
    outer loop
      vertex   8.052301e+002 2.501064e+002 1.000000e+000
      vertex   8.203301e+002 2.501064e+002 1.800000e+000
      vertex   8.203301e+002 2.501064e+002 1.000000e+000
    endloop
  endfacet
  facet normal 0.000000e+000 1.000000e+000 0.000000e+000
    outer loop
      vertex   8.203301e+002 2.501064e+002 1.000000e+000
      vertex   8.203301e+002 2.501064e+002 1.800000e+000
      vertex   8.354301e+002 2.501064e+002 1.800000e+000
    endloop
  endfacet
  facet normal 0.000000e+000 1.000000e+000 -0.000000e+000
    outer loop
      vertex   8.354301e+002 2.501064e+002 1.000000e+000
      vertex   8.203301e+002 2.501064e+002 1.000000e+000
      vertex   8.354301e+002 2.501064e+002 1.800000e+000
    endloop
  endfacet
  facet normal 0.000000e+000 -0.000000e+000 1.000000e+000
    outer loop
      vertex   8.052301e+002 2.501064e+002 1.000000e+000
      vertex   8.203301e+002 2.501064e+002 1.000000e+000
      vertex   8.052301e+002 2.529064e+002 1.000000e+000
    endloop
  endfacet
  facet normal -0.000000e+000 0.000000e+000 1.000000e+000
    outer loop
      vertex   8.052301e+002 2.529064e+002 1.000000e+000
      vertex   8.203301e+002 2.501064e+002 1.000000e+000
      vertex   8.203301e+002 2.529064e+002 1.000000e+000
    endloop
  endfacet
  facet normal 3.676235e-017 0.000000e+000 1.000000e+000
    outer loop
      vertex   8.203301e+002 2.529064e+002 1.000000e+000
      vertex   8.203301e+002 2.501064e+002 1.000000e+000
      vertex   8.354301e+002 2.501064e+002 1.000000e+000
    endloop
  endfacet
  facet normal 3.676235e-017 0.000000e+000 1.000000e+000
    outer loop
      vertex   8.354301e+002 2.529064e+002 1.000000e+000
      vertex   8.203301e+002 2.529064e+002 1.000000e+000
      vertex   8.354301e+002 2.501064e+002 1.000000e+000
    endloop
  endfacet
  facet normal 0.000000e+000 -1.000000e+000 -0.000000e+000
    outer loop
      vertex   8.354301e+002 2.529064e+002 1.800000e+000
      vertex   8.203301e+002 2.529064e+002 1.800000e+000
      vertex   8.354301e+002 2.529064e+002 1.000000e+000
    endloop
  endfacet
  facet normal -0.000000e+000 -1.000000e+000 -0.000000e+000
    outer loop
      vertex   8.354301e+002 2.529064e+002 1.000000e+000
      vertex   8.203301e+002 2.529064e+002 1.800000e+000
      vertex   8.203301e+002 2.529064e+002 1.000000e+000
    endloop
  endfacet
  facet normal -0.000000e+000 -1.000000e+000 0.000000e+000
    outer loop
      vertex   8.203301e+002 2.529064e+002 1.000000e+000
      vertex   8.203301e+002 2.529064e+002 1.800000e+000
      vertex   8.052301e+002 2.529064e+002 1.800000e+000
    endloop
  endfacet
  facet normal 0.000000e+000 -1.000000e+000 0.000000e+000
    outer loop
      vertex   8.052301e+002 2.529064e+002 1.000000e+000
      vertex   8.203301e+002 2.529064e+002 1.000000e+000
      vertex   8.052301e+002 2.529064e+002 1.800000e+000
    endloop
  endfacet
  facet normal 0.000000e+000 -0.000000e+000 1.000000e+000
    outer loop
      vertex   8.052301e+002 2.597064e+002 1.000000e+000
      vertex   8.203301e+002 2.597064e+002 1.000000e+000
      vertex   8.052301e+002 2.625064e+002 1.000000e+000
    endloop
  endfacet
  facet normal -0.000000e+000 0.000000e+000 1.000000e+000
    outer loop
      vertex   8.052301e+002 2.625064e+002 1.000000e+000
      vertex   8.203301e+002 2.597064e+002 1.000000e+000
      vertex   8.203301e+002 2.625064e+002 1.000000e+000
    endloop
  endfacet
  facet normal 3.676235e-017 0.000000e+000 1.000000e+000
    outer loop
      vertex   8.203301e+002 2.625064e+002 1.000000e+000
      vertex   8.203301e+002 2.597064e+002 1.000000e+000
      vertex   8.354301e+002 2.597064e+002 1.000000e+000
    endloop
  endfacet
  facet normal 3.676235e-017 0.000000e+000 1.000000e+000
    outer loop
      vertex   8.354301e+002 2.625064e+002 1.000000e+000
      vertex   8.203301e+002 2.625064e+002 1.000000e+000
      vertex   8.354301e+002 2.597064e+002 1.000000e+000
    endloop
  endfacet
  facet normal 0.000000e+000 -1.000000e+000 -0.000000e+000
    outer loop
      vertex   8.354301e+002 2.625064e+002 1.800000e+000
      vertex   8.203301e+002 2.625064e+002 1.800000e+000
      vertex   8.354301e+002 2.625064e+002 1.000000e+000
    endloop
  endfacet
  facet normal -0.000000e+000 -1.000000e+000 -0.000000e+000
    outer loop
      vertex   8.354301e+002 2.625064e+002 1.000000e+000
      vertex   8.203301e+002 2.625064e+002 1.800000e+000
      vertex   8.203301e+002 2.625064e+002 1.000000e+000
    endloop
  endfacet
  facet normal -0.000000e+000 -1.000000e+000 0.000000e+000
    outer loop
      vertex   8.203301e+002 2.625064e+002 1.000000e+000
      vertex   8.203301e+002 2.625064e+002 1.800000e+000
      vertex   8.052301e+002 2.625064e+002 1.800000e+000
    endloop
  endfacet
  facet normal 0.000000e+000 -1.000000e+000 0.000000e+000
    outer loop
      vertex   8.052301e+002 2.625064e+002 1.000000e+000
      vertex   8.203301e+002 2.625064e+002 1.000000e+000
      vertex   8.052301e+002 2.625064e+002 1.800000e+000
    endloop
  endfacet
  facet normal 4.481966e-024 1.000000e+000 -1.184238e-013
    outer loop
      vertex   8.240109e+002 2.693064e+002 1.800000e+000
      vertex   8.242352e+002 2.693064e+002 1.500000e+000
      vertex   8.052301e+002 2.693064e+002 1.800000e+000
    endloop
  endfacet
  facet normal 1.869341e-015 1.000000e+000 0.000000e+000
    outer loop
      vertex   8.052301e+002 2.693064e+002 1.800000e+000
      vertex   8.242352e+002 2.693064e+002 1.500000e+000
      vertex   8.052301e+002 2.693064e+002 1.000000e+000
    endloop
  endfacet
  facet normal 0.000000e+000 1.000000e+000 7.105427e-014
    outer loop
      vertex   8.052301e+002 2.693064e+002 1.000000e+000
      vertex   8.242352e+002 2.693064e+002 1.500000e+000
      vertex   8.246090e+002 2.693064e+002 1.000000e+000
    endloop
  endfacet
  facet normal 0.000000e+000 -1.000000e+000 -0.000000e+000
    outer loop
      vertex   8.114067e+002 2.721064e+002 1.800000e+000
      vertex   8.052301e+002 2.721064e+002 1.800000e+000
      vertex   8.116350e+002 2.721064e+002 1.500000e+000
    endloop
  endfacet
  facet normal -0.000000e+000 -1.000000e+000 -0.000000e+000
    outer loop
      vertex   8.116350e+002 2.721064e+002 1.500000e+000
      vertex   8.052301e+002 2.721064e+002 1.800000e+000
      vertex   8.052301e+002 2.721064e+002 1.000000e+000
    endloop
  endfacet
  facet normal -0.000000e+000 -1.000000e+000 0.000000e+000
    outer loop
      vertex   8.120155e+002 2.721064e+002 1.000000e+000
      vertex   8.116350e+002 2.721064e+002 1.500000e+000
      vertex   8.052301e+002 2.721064e+002 1.000000e+000
    endloop
  endfacet
  facet normal 0.000000e+000 7.866042e-016 1.000000e+000
    outer loop
      vertex   8.246090e+002 2.693064e+002 1.000000e+000
      vertex   8.183028e+002 2.707178e+002 1.000000e+000
      vertex   8.052301e+002 2.693064e+002 1.000000e+000
    endloop
  endfacet
  facet normal 1.150206e-016 -2.787369e-016 1.000000e+000
    outer loop
      vertex   8.052301e+002 2.693064e+002 1.000000e+000
      vertex   8.183028e+002 2.707178e+002 1.000000e+000
      vertex   8.120155e+002 2.721064e+002 1.000000e+000
    endloop
  endfacet
  facet normal -0.000000e+000 0.000000e+000 1.000000e+000
    outer loop
      vertex   8.052301e+002 2.721064e+002 1.000000e+000
      vertex   8.052301e+002 2.693064e+002 1.000000e+000
      vertex   8.120155e+002 2.721064e+002 1.000000e+000
    endloop
  endfacet
  facet normal 7.429175e-002 -9.948088e-001 6.954204e-002
    outer loop
      vertex   8.333433e+002 2.433064e+002 1.000000e+000
      vertex   8.345727e+002 2.433283e+002 0.000000e+000
      vertex   8.339344e+002 2.434065e+002 1.800000e+000
    endloop
  endfacet
  facet normal 7.428257e-002 -9.948091e-001 6.954885e-002
    outer loop
      vertex   8.325943e+002 2.433064e+002 1.800000e+000
      vertex   8.333433e+002 2.433064e+002 1.000000e+000
      vertex   8.339344e+002 2.434065e+002 1.800000e+000
    endloop
  endfacet
  facet normal 7.399644e-002 -9.948562e-001 6.917796e-002
    outer loop
      vertex   8.333433e+002 2.433064e+002 1.000000e+000
      vertex   8.196265e+002 2.422862e+002 1.000000e+000
      vertex   8.345727e+002 2.433283e+002 0.000000e+000
    endloop
  endfacet
  facet normal 7.401288e-002 -9.948365e-001 6.944436e-002
    outer loop
      vertex   8.345727e+002 2.433283e+002 0.000000e+000
      vertex   8.196265e+002 2.422862e+002 1.000000e+000
      vertex   8.199002e+002 2.422367e+002 0.000000e+000
    endloop
  endfacet
  facet normal 7.336347e-002 -9.948967e-001 6.926958e-002
    outer loop
      vertex   8.199002e+002 2.422367e+002 0.000000e+000
      vertex   8.196265e+002 2.422862e+002 1.000000e+000
      vertex   8.052301e+002 2.412246e+002 1.000000e+000
    endloop
  endfacet
  facet normal 7.335908e-002 -9.949019e-001 6.920001e-002
    outer loop
      vertex   8.052301e+002 2.411550e+002 0.000000e+000
      vertex   8.199002e+002 2.422367e+002 0.000000e+000
      vertex   8.052301e+002 2.412246e+002 1.000000e+000
    endloop
  endfacet
  facet normal 7.457314e-002 -9.947809e-001 6.964061e-002
    outer loop
      vertex   8.345727e+002 2.433283e+002 0.000000e+000
      vertex   8.492471e+002 2.444284e+002 0.000000e+000
      vertex   8.339344e+002 2.434065e+002 1.800000e+000
    endloop
  endfacet
  facet normal 7.434715e-002 -9.949365e-001 6.762974e-002
    outer loop
      vertex   8.339344e+002 2.434065e+002 1.800000e+000
      vertex   8.492471e+002 2.444284e+002 0.000000e+000
      vertex   8.354301e+002 2.435182e+002 1.800000e+000
    endloop
  endfacet
  facet normal 7.460019e-002 -9.947781e-001 6.965228e-002
    outer loop
      vertex   8.354301e+002 2.435182e+002 1.800000e+000
      vertex   8.492471e+002 2.444284e+002 0.000000e+000
      vertex   8.479406e+002 2.445405e+002 3.000000e+000
    endloop
  endfacet
  facet normal 7.460851e-002 -9.947832e-001 6.956996e-002
    outer loop
      vertex   8.354301e+002 2.436022e+002 3.000000e+000
      vertex   8.354301e+002 2.435182e+002 1.800000e+000
      vertex   8.479406e+002 2.445405e+002 3.000000e+000
    endloop
  endfacet
  facet normal 7.503968e-002 -9.947317e-001 6.984194e-002
    outer loop
      vertex   8.492471e+002 2.444284e+002 0.000000e+000
      vertex   8.639230e+002 2.455355e+002 0.000000e+000
      vertex   8.479406e+002 2.445405e+002 3.000000e+000
    endloop
  endfacet
  facet normal 7.503968e-002 -9.947317e-001 6.984194e-002
    outer loop
      vertex   8.479406e+002 2.445405e+002 3.000000e+000
      vertex   8.639230e+002 2.455355e+002 0.000000e+000
      vertex   8.623739e+002 2.456293e+002 3.000000e+000
    endloop
  endfacet
  facet normal 7.541269e-002 -9.946900e-001 7.003325e-002
    outer loop
      vertex   8.623739e+002 2.456293e+002 3.000000e+000
      vertex   8.639230e+002 2.455355e+002 0.000000e+000
      vertex   8.786003e+002 2.466483e+002 0.000000e+000
    endloop
  endfacet
  facet normal 7.569233e-002 -9.946571e-001 7.019945e-002
    outer loop
      vertex   8.768085e+002 2.467236e+002 3.000000e+000
      vertex   8.786003e+002 2.466483e+002 0.000000e+000
      vertex   8.932785e+002 2.477652e+002 0.000000e+000
    endloop
  endfacet
  facet normal 7.587873e-002 -9.946340e-001 7.032542e-002
    outer loop
      vertex   8.912440e+002 2.478221e+002 3.000000e+000
      vertex   8.932785e+002 2.477652e+002 0.000000e+000
      vertex   9.079574e+002 2.488851e+002 0.000000e+000
    endloop
  endfacet
  facet normal 7.597188e-002 -9.946219e-001 7.039598e-002
    outer loop
      vertex   9.056801e+002 2.489235e+002 3.000000e+000
      vertex   9.079574e+002 2.488851e+002 0.000000e+000
      vertex   9.212467e+002 2.500063e+002 1.500000e+000
    endloop
  endfacet
  facet normal 7.597174e-002 -9.946220e-001 7.039446e-002
    outer loop
      vertex   9.198568e+002 2.500063e+002 3.000000e+000
      vertex   9.056801e+002 2.489235e+002 3.000000e+000
      vertex   9.212467e+002 2.500063e+002 1.500000e+000
    endloop
  endfacet
  facet normal 7.597203e-002 -9.946220e-001 7.039473e-002
    outer loop
      vertex   9.079574e+002 2.488851e+002 0.000000e+000
      vertex   9.226366e+002 2.500063e+002 0.000000e+000
      vertex   9.212467e+002 2.500063e+002 1.500000e+000
    endloop
  endfacet
  facet normal 7.587873e-002 -9.946340e-001 7.032542e-002
    outer loop
      vertex   9.056801e+002 2.489235e+002 3.000000e+000
      vertex   8.912440e+002 2.478221e+002 3.000000e+000
      vertex   9.079574e+002 2.488851e+002 0.000000e+000
    endloop
  endfacet
  facet normal 7.569233e-002 -9.946571e-001 7.019945e-002
    outer loop
      vertex   8.912440e+002 2.478221e+002 3.000000e+000
      vertex   8.768085e+002 2.467236e+002 3.000000e+000
      vertex   8.932785e+002 2.477652e+002 0.000000e+000
    endloop
  endfacet
  facet normal 7.541269e-002 -9.946900e-001 7.003325e-002
    outer loop
      vertex   8.768085e+002 2.467236e+002 3.000000e+000
      vertex   8.623739e+002 2.456293e+002 3.000000e+000
      vertex   8.786003e+002 2.466483e+002 0.000000e+000
    endloop
  endfacet
  facet normal -0.000000e+000 0.000000e+000 -1.000000e+000
    outer loop
      vertex   8.199002e+002 2.422367e+002 0.000000e+000
      vertex   8.052301e+002 2.411550e+002 0.000000e+000
      vertex   8.182752e+002 2.520166e+002 0.000000e+000
    endloop
  endfacet
  facet normal 0.000000e+000 0.000000e+000 -1.000000e+000
    outer loop
      vertex   8.313204e+002 2.520166e+002 0.000000e+000
      vertex   8.182752e+002 2.520166e+002 0.000000e+000
      vertex   8.313204e+002 2.628783e+002 0.000000e+000
    endloop
  endfacet
  facet normal 0.000000e+000 0.000000e+000 -1.000000e+000
    outer loop
      vertex   8.428652e+002 2.624438e+002 0.000000e+000
      vertex   8.313204e+002 2.628783e+002 0.000000e+000
      vertex   8.443656e+002 2.628783e+002 0.000000e+000
    endloop
  endfacet
  facet normal 0.000000e+000 0.000000e+000 -1.000000e+000
    outer loop
      vertex   8.543687e+002 2.600904e+002 0.000000e+000
      vertex   8.443656e+002 2.628783e+002 0.000000e+000
      vertex   8.452102e+002 2.648370e+002 0.000000e+000
    endloop
  endfacet
  facet normal -0.000000e+000 0.000000e+000 -1.000000e+000
    outer loop
      vertex   8.585451e+002 2.619114e+002 0.000000e+000
      vertex   8.543687e+002 2.600904e+002 0.000000e+000
      vertex   8.452102e+002 2.648370e+002 0.000000e+000
    endloop
  endfacet
  facet normal -0.000000e+000 -0.000000e+000 -1.000000e+000
    outer loop
      vertex   8.585451e+002 2.619114e+002 0.000000e+000
      vertex   8.658918e+002 2.578926e+002 0.000000e+000
      vertex   8.543687e+002 2.600904e+002 0.000000e+000
    endloop
  endfacet
  facet normal 0.000000e+000 -0.000000e+000 -1.000000e+000
    outer loop
      vertex   8.585451e+002 2.619114e+002 0.000000e+000
      vertex   8.719088e+002 2.591172e+002 0.000000e+000
      vertex   8.658918e+002 2.578926e+002 0.000000e+000
    endloop
  endfacet
  facet normal 0.000000e+000 0.000000e+000 -1.000000e+000
    outer loop
      vertex   8.658918e+002 2.578926e+002 0.000000e+000
      vertex   8.719088e+002 2.591172e+002 0.000000e+000
      vertex   8.774393e+002 2.558932e+002 0.000000e+000
    endloop
  endfacet
  facet normal 0.000000e+000 0.000000e+000 -1.000000e+000
    outer loop
      vertex   8.443656e+002 2.628783e+002 0.000000e+000
      vertex   8.313204e+002 2.628783e+002 0.000000e+000
      vertex   8.318903e+002 2.678330e+002 0.000000e+000
    endloop
  endfacet
  facet normal -0.000000e+000 0.000000e+000 -1.000000e+000
    outer loop
      vertex   8.452102e+002 2.648370e+002 0.000000e+000
      vertex   8.443656e+002 2.628783e+002 0.000000e+000
      vertex   8.318903e+002 2.678330e+002 0.000000e+000
    endloop
  endfacet
  facet normal 0.000000e+000 -0.000000e+000 -1.000000e+000
    outer loop
      vertex   8.052301e+002 2.737399e+002 0.000000e+000
      vertex   8.185692e+002 2.708260e+002 0.000000e+000
      vertex   8.182752e+002 2.628783e+002 0.000000e+000
    endloop
  endfacet
  facet normal 0.000000e+000 0.000000e+000 -1.000000e+000
    outer loop
      vertex   8.052301e+002 2.574475e+002 0.000000e+000
      vertex   8.182752e+002 2.628783e+002 0.000000e+000
      vertex   8.182752e+002 2.520166e+002 0.000000e+000
    endloop
  endfacet
  facet normal 0.000000e+000 0.000000e+000 -1.000000e+000
    outer loop
      vertex   8.052301e+002 2.411550e+002 0.000000e+000
      vertex   8.052301e+002 2.574475e+002 0.000000e+000
      vertex   8.182752e+002 2.520166e+002 0.000000e+000
    endloop
  endfacet
  facet normal 0.000000e+000 -0.000000e+000 -1.000000e+000
    outer loop
      vertex   8.719088e+002 2.591172e+002 0.000000e+000
      vertex   8.853143e+002 2.565114e+002 0.000000e+000
      vertex   8.774393e+002 2.558932e+002 0.000000e+000
    endloop
  endfacet
  facet normal 0.000000e+000 0.000000e+000 -1.000000e+000
    outer loop
      vertex   8.774393e+002 2.558932e+002 0.000000e+000
      vertex   8.853143e+002 2.565114e+002 0.000000e+000
      vertex   8.890159e+002 2.541351e+002 0.000000e+000
    endloop
  endfacet
  facet normal 0.000000e+000 -0.000000e+000 -1.000000e+000
    outer loop
      vertex   8.853143e+002 2.565114e+002 0.000000e+000
      vertex   8.987753e+002 2.541760e+002 0.000000e+000
      vertex   8.890159e+002 2.541351e+002 0.000000e+000
    endloop
  endfacet
  facet normal 0.000000e+000 -0.000000e+000 -1.000000e+000
    outer loop
      vertex   8.890159e+002 2.541351e+002 0.000000e+000
      vertex   8.987753e+002 2.541760e+002 0.000000e+000
      vertex   8.965463e+002 2.520166e+002 0.000000e+000
    endloop
  endfacet
  facet normal -0.000000e+000 -0.000000e+000 -1.000000e+000
    outer loop
      vertex   8.890159e+002 2.534896e+002 0.000000e+000
      vertex   8.965463e+002 2.520166e+002 0.000000e+000
      vertex   8.835011e+002 2.520166e+002 0.000000e+000
    endloop
  endfacet
  facet normal -0.000000e+000 -0.000000e+000 -1.000000e+000
    outer loop
      vertex   8.774798e+002 2.526258e+002 0.000000e+000
      vertex   8.835011e+002 2.520166e+002 0.000000e+000
      vertex   8.704559e+002 2.520166e+002 0.000000e+000
    endloop
  endfacet
  facet normal 0.000000e+000 -0.000000e+000 -1.000000e+000
    outer loop
      vertex   8.659422e+002 2.517669e+002 0.000000e+000
      vertex   8.704559e+002 2.520166e+002 0.000000e+000
      vertex   8.639230e+002 2.455355e+002 0.000000e+000
    endloop
  endfacet
  facet normal 0.000000e+000 -0.000000e+000 -1.000000e+000
    outer loop
      vertex   8.544039e+002 2.509125e+002 0.000000e+000
      vertex   8.639230e+002 2.455355e+002 0.000000e+000
      vertex   8.492471e+002 2.444284e+002 0.000000e+000
    endloop
  endfacet
  facet normal 0.000000e+000 -0.000000e+000 -1.000000e+000
    outer loop
      vertex   8.428654e+002 2.500620e+002 0.000000e+000
      vertex   8.492471e+002 2.444284e+002 0.000000e+000
      vertex   8.345727e+002 2.433283e+002 0.000000e+000
    endloop
  endfacet
  facet normal 0.000000e+000 -0.000000e+000 -1.000000e+000
    outer loop
      vertex   8.313204e+002 2.520166e+002 0.000000e+000
      vertex   8.345727e+002 2.433283e+002 0.000000e+000
      vertex   8.199002e+002 2.422367e+002 0.000000e+000
    endloop
  endfacet
  facet normal 0.000000e+000 -0.000000e+000 -1.000000e+000
    outer loop
      vertex   8.182752e+002 2.520166e+002 0.000000e+000
      vertex   8.313204e+002 2.520166e+002 0.000000e+000
      vertex   8.199002e+002 2.422367e+002 0.000000e+000
    endloop
  endfacet
  facet normal 0.000000e+000 0.000000e+000 -1.000000e+000
    outer loop
      vertex   9.123121e+002 2.524063e+002 0.000000e+000
      vertex   9.029163e+002 2.524063e+002 0.000000e+000
      vertex   8.987753e+002 2.541760e+002 0.000000e+000
    endloop
  endfacet
  facet normal 0.000000e+000 -0.000000e+000 -1.000000e+000
    outer loop
      vertex   8.987753e+002 2.541760e+002 0.000000e+000
      vertex   9.029163e+002 2.524063e+002 0.000000e+000
      vertex   8.965463e+002 2.520166e+002 0.000000e+000
    endloop
  endfacet
  facet normal 0.000000e+000 0.000000e+000 -1.000000e+000
    outer loop
      vertex   8.965463e+002 2.520166e+002 0.000000e+000
      vertex   9.029163e+002 2.524063e+002 0.000000e+000
      vertex   9.029163e+002 2.500063e+002 0.000000e+000
    endloop
  endfacet
  facet normal 0.000000e+000 0.000000e+000 -1.000000e+000
    outer loop
      vertex   8.932785e+002 2.477652e+002 0.000000e+000
      vertex   9.029163e+002 2.500063e+002 0.000000e+000
      vertex   9.079574e+002 2.488851e+002 0.000000e+000
    endloop
  endfacet
  facet normal 0.000000e+000 -0.000000e+000 -1.000000e+000
    outer loop
      vertex   9.029163e+002 2.500063e+002 0.000000e+000
      vertex   9.127764e+002 2.500063e+002 0.000000e+000
      vertex   9.079574e+002 2.488851e+002 0.000000e+000
    endloop
  endfacet
  facet normal 0.000000e+000 0.000000e+000 -1.000000e+000
    outer loop
      vertex   9.079574e+002 2.488851e+002 0.000000e+000
      vertex   9.127764e+002 2.500063e+002 0.000000e+000
      vertex   9.226366e+002 2.500063e+002 0.000000e+000
    endloop
  endfacet
  facet normal 0.000000e+000 0.000000e+000 -1.000000e+000
    outer loop
      vertex   8.639230e+002 2.455355e+002 0.000000e+000
      vertex   8.704559e+002 2.520166e+002 0.000000e+000
      vertex   8.786003e+002 2.466483e+002 0.000000e+000
    endloop
  endfacet
  facet normal 0.000000e+000 0.000000e+000 -1.000000e+000
    outer loop
      vertex   8.890159e+002 2.534896e+002 0.000000e+000
      vertex   8.890159e+002 2.541351e+002 0.000000e+000
      vertex   8.965463e+002 2.520166e+002 0.000000e+000
    endloop
  endfacet
  facet normal 0.000000e+000 -0.000000e+000 -1.000000e+000
    outer loop
      vertex   8.313204e+002 2.628783e+002 0.000000e+000
      vertex   8.428652e+002 2.624438e+002 0.000000e+000
      vertex   8.313204e+002 2.520166e+002 0.000000e+000
    endloop
  endfacet
  facet normal 0.000000e+000 0.000000e+000 -1.000000e+000
    outer loop
      vertex   8.313204e+002 2.520166e+002 0.000000e+000
      vertex   8.428652e+002 2.624438e+002 0.000000e+000
      vertex   8.428654e+002 2.500620e+002 0.000000e+000
    endloop
  endfacet
  facet normal 0.000000e+000 0.000000e+000 -1.000000e+000
    outer loop
      vertex   8.345727e+002 2.433283e+002 0.000000e+000
      vertex   8.313204e+002 2.520166e+002 0.000000e+000
      vertex   8.428654e+002 2.500620e+002 0.000000e+000
    endloop
  endfacet
  facet normal 0.000000e+000 -0.000000e+000 -1.000000e+000
    outer loop
      vertex   8.428654e+002 2.500620e+002 0.000000e+000
      vertex   8.544039e+002 2.509125e+002 0.000000e+000
      vertex   8.492471e+002 2.444284e+002 0.000000e+000
    endloop
  endfacet
  facet normal 0.000000e+000 -0.000000e+000 -1.000000e+000
    outer loop
      vertex   8.544039e+002 2.509125e+002 0.000000e+000
      vertex   8.659422e+002 2.517669e+002 0.000000e+000
      vertex   8.639230e+002 2.455355e+002 0.000000e+000
    endloop
  endfacet
  facet normal 0.000000e+000 -0.000000e+000 -1.000000e+000
    outer loop
      vertex   8.659422e+002 2.517669e+002 0.000000e+000
      vertex   8.774798e+002 2.526258e+002 0.000000e+000
      vertex   8.704559e+002 2.520166e+002 0.000000e+000
    endloop
  endfacet
  facet normal 0.000000e+000 -0.000000e+000 -1.000000e+000
    outer loop
      vertex   8.774798e+002 2.526258e+002 0.000000e+000
      vertex   8.890159e+002 2.534896e+002 0.000000e+000
      vertex   8.835011e+002 2.520166e+002 0.000000e+000
    endloop
  endfacet
  facet normal 0.000000e+000 -0.000000e+000 -1.000000e+000
    outer loop
      vertex   8.835011e+002 2.520166e+002 0.000000e+000
      vertex   8.965463e+002 2.520166e+002 0.000000e+000
      vertex   8.932785e+002 2.477652e+002 0.000000e+000
    endloop
  endfacet
  facet normal 0.000000e+000 0.000000e+000 -1.000000e+000
    outer loop
      vertex   8.786003e+002 2.466483e+002 0.000000e+000
      vertex   8.835011e+002 2.520166e+002 0.000000e+000
      vertex   8.932785e+002 2.477652e+002 0.000000e+000
    endloop
  endfacet
  facet normal 0.000000e+000 0.000000e+000 -1.000000e+000
    outer loop
      vertex   8.786003e+002 2.466483e+002 0.000000e+000
      vertex   8.704559e+002 2.520166e+002 0.000000e+000
      vertex   8.835011e+002 2.520166e+002 0.000000e+000
    endloop
  endfacet
  facet normal -0.000000e+000 0.000000e+000 -1.000000e+000
    outer loop
      vertex   8.318903e+002 2.678330e+002 0.000000e+000
      vertex   8.313204e+002 2.628783e+002 0.000000e+000
      vertex   8.182752e+002 2.628783e+002 0.000000e+000
    endloop
  endfacet
  facet normal 0.000000e+000 -0.000000e+000 -1.000000e+000
    outer loop
      vertex   8.185692e+002 2.708260e+002 0.000000e+000
      vertex   8.318903e+002 2.678330e+002 0.000000e+000
      vertex   8.182752e+002 2.628783e+002 0.000000e+000
    endloop
  endfacet
  facet normal 0.000000e+000 0.000000e+000 -1.000000e+000
    outer loop
      vertex   8.543687e+002 2.600904e+002 0.000000e+000
      vertex   8.428652e+002 2.624438e+002 0.000000e+000
      vertex   8.443656e+002 2.628783e+002 0.000000e+000
    endloop
  endfacet
  facet normal 0.000000e+000 0.000000e+000 -1.000000e+000
    outer loop
      vertex   8.182752e+002 2.520166e+002 0.000000e+000
      vertex   8.182752e+002 2.628783e+002 0.000000e+000
      vertex   8.313204e+002 2.628783e+002 0.000000e+000
    endloop
  endfacet
  facet normal -0.000000e+000 0.000000e+000 -1.000000e+000
    outer loop
      vertex   8.182752e+002 2.628783e+002 0.000000e+000
      vertex   8.052301e+002 2.574475e+002 0.000000e+000
      vertex   8.052301e+002 2.737399e+002 0.000000e+000
    endloop
  endfacet
  facet normal 0.000000e+000 0.000000e+000 -1.000000e+000
    outer loop
      vertex   8.932785e+002 2.477652e+002 0.000000e+000
      vertex   8.965463e+002 2.520166e+002 0.000000e+000
      vertex   9.029163e+002 2.500063e+002 0.000000e+000
    endloop
  endfacet
  facet normal 0.000000e+000 -1.000000e+000 -9.100844e-007
    outer loop
      vertex   9.123121e+002 2.524063e+002 0.000000e+000
      vertex   9.110381e+002 2.524063e+002 1.500000e+000
      vertex   9.029163e+002 2.524063e+002 0.000000e+000
    endloop
  endfacet
  facet normal -3.785195e-015 -1.000000e+000 -9.100843e-007
    outer loop
      vertex   9.029163e+002 2.524063e+002 0.000000e+000
      vertex   9.110381e+002 2.524063e+002 1.500000e+000
      vertex   9.003883e+002 2.524063e+002 3.000000e+000
    endloop
  endfacet
  facet normal 0.000000e+000 -1.000000e+000 -9.100843e-007
    outer loop
      vertex   9.003883e+002 2.524063e+002 3.000000e+000
      vertex   9.110381e+002 2.524063e+002 1.500000e+000
      vertex   9.097647e+002 2.524063e+002 3.000000e+000
    endloop
  endfacet
  facet normal 7.647046e-001 -0.000000e+000 6.443810e-001
    outer loop
      vertex   9.029163e+002 2.500063e+002 0.000000e+000
      vertex   9.029163e+002 2.524063e+002 0.000000e+000
      vertex   9.016523e+002 2.500063e+002 1.500000e+000
    endloop
  endfacet
  facet normal 7.647046e-001 0.000000e+000 6.443810e-001
    outer loop
      vertex   9.016523e+002 2.500063e+002 1.500000e+000
      vertex   9.029163e+002 2.524063e+002 0.000000e+000
      vertex   9.003883e+002 2.524063e+002 3.000000e+000
    endloop
  endfacet
  facet normal 7.647046e-001 0.000000e+000 6.443810e-001
    outer loop
      vertex   9.003883e+002 2.500063e+002 3.000000e+000
      vertex   9.016523e+002 2.500063e+002 1.500000e+000
      vertex   9.003883e+002 2.524063e+002 3.000000e+000
    endloop
  endfacet
  facet normal -5.206116e-012 1.000000e+000 1.226343e-011
    outer loop
      vertex   9.102485e+002 2.500063e+002 3.000000e+000
      vertex   9.198568e+002 2.500063e+002 3.000000e+000
      vertex   9.115125e+002 2.500063e+002 1.500000e+000
    endloop
  endfacet
  facet normal 3.603101e-015 1.000000e+000 -1.667103e-011
    outer loop
      vertex   9.016523e+002 2.500063e+002 1.500000e+000
      vertex   9.115125e+002 2.500063e+002 1.500000e+000
      vertex   9.029163e+002 2.500063e+002 0.000000e+000
    endloop
  endfacet
  facet normal 3.603101e-015 1.000000e+000 1.665342e-011
    outer loop
      vertex   9.016523e+002 2.500063e+002 1.500000e+000
      vertex   9.102485e+002 2.500063e+002 3.000000e+000
      vertex   9.115125e+002 2.500063e+002 1.500000e+000
    endloop
  endfacet
  facet normal 5.073166e-012 1.000000e+000 -1.239915e-011
    outer loop
      vertex   9.016523e+002 2.500063e+002 1.500000e+000
      vertex   9.003883e+002 2.500063e+002 3.000000e+000
      vertex   9.102485e+002 2.500063e+002 3.000000e+000
    endloop
  endfacet
  facet normal 0.000000e+000 1.000000e+000 -1.655565e-011
    outer loop
      vertex   9.226366e+002 2.500063e+002 0.000000e+000
      vertex   9.127764e+002 2.500063e+002 0.000000e+000
      vertex   9.212467e+002 2.500063e+002 1.500000e+000
    endloop
  endfacet
  facet normal 1.459881e-014 1.000000e+000 -1.663808e-011
    outer loop
      vertex   9.212467e+002 2.500063e+002 1.500000e+000
      vertex   9.127764e+002 2.500063e+002 0.000000e+000
      vertex   9.115125e+002 2.500063e+002 1.500000e+000
    endloop
  endfacet
  facet normal 1.459881e-014 1.000000e+000 -1.677897e-011
    outer loop
      vertex   9.198568e+002 2.500063e+002 3.000000e+000
      vertex   9.212467e+002 2.500063e+002 1.500000e+000
      vertex   9.115125e+002 2.500063e+002 1.500000e+000
    endloop
  endfacet
  facet normal 0.000000e+000 1.000000e+000 -1.665038e-011
    outer loop
      vertex   9.127764e+002 2.500063e+002 0.000000e+000
      vertex   9.029163e+002 2.500063e+002 0.000000e+000
      vertex   9.115125e+002 2.500063e+002 1.500000e+000
    endloop
  endfacet
  facet normal 2.169955e-001 9.625959e-001 1.622408e-001
    outer loop
      vertex   8.240109e+002 2.693064e+002 1.800000e+000
      vertex   8.312787e+002 2.676681e+002 1.800000e+000
      vertex   8.242352e+002 2.693064e+002 1.500000e+000
    endloop
  endfacet
  facet normal 2.170167e-001 9.626370e-001 1.619684e-001
    outer loop
      vertex   8.242352e+002 2.693064e+002 1.500000e+000
      vertex   8.312787e+002 2.676681e+002 1.800000e+000
      vertex   8.313806e+002 2.676956e+002 1.500000e+000
    endloop
  endfacet
  facet normal 2.189186e-001 9.650305e-001 1.441900e-001
    outer loop
      vertex   8.246090e+002 2.693064e+002 1.000000e+000
      vertex   8.313806e+002 2.676956e+002 1.500000e+000
      vertex   8.185692e+002 2.708260e+002 0.000000e+000
    endloop
  endfacet
  facet normal 2.106515e-001 9.643122e-001 1.603994e-001
    outer loop
      vertex   8.183028e+002 2.707178e+002 1.000000e+000
      vertex   8.185692e+002 2.708260e+002 0.000000e+000
      vertex   8.052301e+002 2.737399e+002 0.000000e+000
    endloop
  endfacet
  facet normal 2.087554e-001 9.648623e-001 1.595678e-001
    outer loop
      vertex   8.120155e+002 2.721064e+002 1.000000e+000
      vertex   8.052301e+002 2.737399e+002 0.000000e+000
      vertex   8.052301e+002 2.734918e+002 1.500000e+000
    endloop
  endfacet
  facet normal 2.087241e-001 9.649813e-001 1.588875e-001
    outer loop
      vertex   8.116350e+002 2.721064e+002 1.500000e+000
      vertex   8.052301e+002 2.734918e+002 1.500000e+000
      vertex   8.114067e+002 2.721064e+002 1.800000e+000
    endloop
  endfacet
  facet normal 2.087266e-001 9.649927e-001 1.588150e-001
    outer loop
      vertex   8.116350e+002 2.721064e+002 1.500000e+000
      vertex   8.120155e+002 2.721064e+002 1.000000e+000
      vertex   8.052301e+002 2.734918e+002 1.500000e+000
    endloop
  endfacet
  facet normal 2.173438e-001 9.625459e-001 1.620712e-001
    outer loop
      vertex   8.312787e+002 2.676681e+002 1.800000e+000
      vertex   8.328803e+002 2.673064e+002 1.800000e+000
      vertex   8.313806e+002 2.676956e+002 1.500000e+000
    endloop
  endfacet
  facet normal 2.173427e-001 9.625453e-001 1.620760e-001
    outer loop
      vertex   8.313806e+002 2.676956e+002 1.500000e+000
      vertex   8.328803e+002 2.673064e+002 1.800000e+000
      vertex   8.331040e+002 2.673064e+002 1.500000e+000
    endloop
  endfacet
  facet normal 2.173426e-001 9.625449e-001 1.620785e-001
    outer loop
      vertex   8.334769e+002 2.673064e+002 1.000000e+000
      vertex   8.313806e+002 2.676956e+002 1.500000e+000
      vertex   8.331040e+002 2.673064e+002 1.500000e+000
    endloop
  endfacet
  facet normal 2.173409e-001 9.625468e-001 1.620698e-001
    outer loop
      vertex   8.334769e+002 2.673064e+002 1.000000e+000
      vertex   8.318903e+002 2.678330e+002 0.000000e+000
      vertex   8.313806e+002 2.676956e+002 1.500000e+000
    endloop
  endfacet
  facet normal 2.172526e-001 9.625434e-001 1.622081e-001
    outer loop
      vertex   8.334769e+002 2.673064e+002 1.000000e+000
      vertex   8.354301e+002 2.668656e+002 1.000000e+000
      vertex   8.318903e+002 2.678330e+002 0.000000e+000
    endloop
  endfacet
  facet normal 2.157730e-001 9.620605e-001 1.669781e-001
    outer loop
      vertex   8.318903e+002 2.678330e+002 0.000000e+000
      vertex   8.354301e+002 2.668656e+002 1.000000e+000
      vertex   8.445904e+002 2.647243e+002 1.500000e+000
    endloop
  endfacet
  facet normal 2.115407e-001 9.642072e-001 1.598591e-001
    outer loop
      vertex   8.452102e+002 2.648370e+002 0.000000e+000
      vertex   8.445904e+002 2.647243e+002 1.500000e+000
      vertex   8.578150e+002 2.618229e+002 1.500000e+000
    endloop
  endfacet
  facet normal 2.021720e-001 9.669326e-001 1.554598e-001
    outer loop
      vertex   8.585451e+002 2.619114e+002 0.000000e+000
      vertex   8.578150e+002 2.618229e+002 1.500000e+000
      vertex   8.710682e+002 2.590518e+002 1.500000e+000
    endloop
  endfacet
  facet normal 1.887115e-001 9.708031e-001 1.480854e-001
    outer loop
      vertex   8.719088e+002 2.591172e+002 0.000000e+000
      vertex   8.710682e+002 2.590518e+002 1.500000e+000
      vertex   8.843629e+002 2.564675e+002 1.500000e+000
    endloop
  endfacet
  facet normal 1.693503e-001 9.761328e-001 1.359607e-001
    outer loop
      vertex   8.853143e+002 2.565114e+002 0.000000e+000
      vertex   8.843629e+002 2.564675e+002 1.500000e+000
      vertex   8.977126e+002 2.541515e+002 1.500000e+000
    endloop
  endfacet
  facet normal 1.291011e-001 9.857761e-001 1.076026e-001
    outer loop
      vertex   8.987753e+002 2.541760e+002 0.000000e+000
      vertex   8.977126e+002 2.541515e+002 1.500000e+000
      vertex   9.110381e+002 2.524063e+002 1.500000e+000
    endloop
  endfacet
  facet normal 1.288523e-001 9.856068e-001 1.094368e-001
    outer loop
      vertex   9.123121e+002 2.524063e+002 0.000000e+000
      vertex   8.987753e+002 2.541760e+002 0.000000e+000
      vertex   9.110381e+002 2.524063e+002 1.500000e+000
    endloop
  endfacet
  facet normal 2.162159e-001 9.628038e-001 1.620478e-001
    outer loop
      vertex   8.354301e+002 2.668656e+002 1.000000e+000
      vertex   8.354301e+002 2.667814e+002 1.500000e+000
      vertex   8.445904e+002 2.647243e+002 1.500000e+000
    endloop
  endfacet
  facet normal 2.162161e-001 9.628048e-001 1.620420e-001
    outer loop
      vertex   8.445904e+002 2.647243e+002 1.500000e+000
      vertex   8.354301e+002 2.667814e+002 1.500000e+000
      vertex   8.354301e+002 2.667309e+002 1.800000e+000
    endloop
  endfacet
  facet normal 2.161585e-001 9.628193e-001 1.620322e-001
    outer loop
      vertex   8.439705e+002 2.646116e+002 3.000000e+000
      vertex   8.354301e+002 2.667309e+002 1.800000e+000
      vertex   8.354301e+002 2.665290e+002 3.000000e+000
    endloop
  endfacet
  facet normal 2.162175e-001 9.628635e-001 1.616907e-001
    outer loop
      vertex   8.439705e+002 2.646116e+002 3.000000e+000
      vertex   8.445904e+002 2.647243e+002 1.500000e+000
      vertex   8.354301e+002 2.667309e+002 1.800000e+000
    endloop
  endfacet
  facet normal 2.115407e-001 9.642072e-001 1.598591e-001
    outer loop
      vertex   8.439705e+002 2.646116e+002 3.000000e+000
      vertex   8.570849e+002 2.617344e+002 3.000000e+000
      vertex   8.445904e+002 2.647243e+002 1.500000e+000
    endloop
  endfacet
  facet normal 2.115407e-001 9.642072e-001 1.598591e-001
    outer loop
      vertex   8.445904e+002 2.647243e+002 1.500000e+000
      vertex   8.570849e+002 2.617344e+002 3.000000e+000
      vertex   8.578150e+002 2.618229e+002 1.500000e+000
    endloop
  endfacet
  facet normal 2.021720e-001 9.669326e-001 1.554598e-001
    outer loop
      vertex   8.578150e+002 2.618229e+002 1.500000e+000
      vertex   8.570849e+002 2.617344e+002 3.000000e+000
      vertex   8.702276e+002 2.589864e+002 3.000000e+000
    endloop
  endfacet
  facet normal 1.887115e-001 9.708031e-001 1.480854e-001
    outer loop
      vertex   8.710682e+002 2.590518e+002 1.500000e+000
      vertex   8.702276e+002 2.589864e+002 3.000000e+000
      vertex   8.834114e+002 2.564237e+002 3.000000e+000
    endloop
  endfacet
  facet normal 1.693503e-001 9.761328e-001 1.359607e-001
    outer loop
      vertex   8.843629e+002 2.564675e+002 1.500000e+000
      vertex   8.834114e+002 2.564237e+002 3.000000e+000
      vertex   8.966499e+002 2.541269e+002 3.000000e+000
    endloop
  endfacet
  facet normal 1.293238e-001 9.857298e-001 1.077596e-001
    outer loop
      vertex   8.977126e+002 2.541515e+002 1.500000e+000
      vertex   8.966499e+002 2.541269e+002 3.000000e+000
      vertex   9.097647e+002 2.524063e+002 3.000000e+000
    endloop
  endfacet
  facet normal 1.290731e-001 9.855621e-001 1.095786e-001
    outer loop
      vertex   9.110381e+002 2.524063e+002 1.500000e+000
      vertex   8.977126e+002 2.541515e+002 1.500000e+000
      vertex   9.097647e+002 2.524063e+002 3.000000e+000
    endloop
  endfacet
  facet normal 1.693503e-001 9.761328e-001 1.359607e-001
    outer loop
      vertex   8.987753e+002 2.541760e+002 0.000000e+000
      vertex   8.853143e+002 2.565114e+002 0.000000e+000
      vertex   8.977126e+002 2.541515e+002 1.500000e+000
    endloop
  endfacet
  facet normal 1.887115e-001 9.708031e-001 1.480854e-001
    outer loop
      vertex   8.853143e+002 2.565114e+002 0.000000e+000
      vertex   8.719088e+002 2.591172e+002 0.000000e+000
      vertex   8.843629e+002 2.564675e+002 1.500000e+000
    endloop
  endfacet
  facet normal 2.021720e-001 9.669326e-001 1.554598e-001
    outer loop
      vertex   8.719088e+002 2.591172e+002 0.000000e+000
      vertex   8.585451e+002 2.619114e+002 0.000000e+000
      vertex   8.710682e+002 2.590518e+002 1.500000e+000
    endloop
  endfacet
  facet normal 2.115407e-001 9.642072e-001 1.598591e-001
    outer loop
      vertex   8.585451e+002 2.619114e+002 0.000000e+000
      vertex   8.452102e+002 2.648370e+002 0.000000e+000
      vertex   8.578150e+002 2.618229e+002 1.500000e+000
    endloop
  endfacet
  facet normal 2.165545e-001 9.627656e-001 1.618226e-001
    outer loop
      vertex   8.452102e+002 2.648370e+002 0.000000e+000
      vertex   8.318903e+002 2.678330e+002 0.000000e+000
      vertex   8.445904e+002 2.647243e+002 1.500000e+000
    endloop
  endfacet
  facet normal 2.163247e-001 9.628294e-001 1.617504e-001
    outer loop
      vertex   8.318903e+002 2.678330e+002 0.000000e+000
      vertex   8.185692e+002 2.708260e+002 0.000000e+000
      vertex   8.313806e+002 2.676956e+002 1.500000e+000
    endloop
  endfacet
  facet normal 2.086660e-001 9.648764e-001 1.595998e-001
    outer loop
      vertex   8.052301e+002 2.734918e+002 1.500000e+000
      vertex   8.052301e+002 2.734422e+002 1.800000e+000
      vertex   8.114067e+002 2.721064e+002 1.800000e+000
    endloop
  endfacet
  facet normal 2.138119e-001 9.681104e-001 1.305627e-001
    outer loop
      vertex   8.120155e+002 2.721064e+002 1.000000e+000
      vertex   8.183028e+002 2.707178e+002 1.000000e+000
      vertex   8.052301e+002 2.737399e+002 0.000000e+000
    endloop
  endfacet
  facet normal 2.155404e-001 9.630366e-001 1.615638e-001
    outer loop
      vertex   8.183028e+002 2.707178e+002 1.000000e+000
      vertex   8.246090e+002 2.693064e+002 1.000000e+000
      vertex   8.185692e+002 2.708260e+002 0.000000e+000
    endloop
  endfacet
  facet normal 2.170073e-001 9.625952e-001 1.622293e-001
    outer loop
      vertex   8.246090e+002 2.693064e+002 1.000000e+000
      vertex   8.242352e+002 2.693064e+002 1.500000e+000
      vertex   8.313806e+002 2.676956e+002 1.500000e+000
    endloop
  endfacet
  facet normal 2.021720e-001 9.669326e-001 1.554598e-001
    outer loop
      vertex   8.710682e+002 2.590518e+002 1.500000e+000
      vertex   8.578150e+002 2.618229e+002 1.500000e+000
      vertex   8.702276e+002 2.589864e+002 3.000000e+000
    endloop
  endfacet
  facet normal 1.887115e-001 9.708031e-001 1.480854e-001
    outer loop
      vertex   8.843629e+002 2.564675e+002 1.500000e+000
      vertex   8.710682e+002 2.590518e+002 1.500000e+000
      vertex   8.834114e+002 2.564237e+002 3.000000e+000
    endloop
  endfacet
  facet normal 1.693503e-001 9.761328e-001 1.359607e-001
    outer loop
      vertex   8.977126e+002 2.541515e+002 1.500000e+000
      vertex   8.843629e+002 2.564675e+002 1.500000e+000
      vertex   8.966499e+002 2.541269e+002 3.000000e+000
    endloop
  endfacet
  facet normal 1.000000e+000 1.600741e-005 0.000000e+000
    outer loop
      vertex   8.428654e+002 2.500620e+002 0.000000e+000
      vertex   8.428652e+002 2.624438e+002 0.000000e+000
      vertex   8.428654e+002 2.500620e+002 1.500000e+000
    endloop
  endfacet
  facet normal 1.000000e+000 1.600741e-005 -0.000000e+000
    outer loop
      vertex   8.428654e+002 2.500620e+002 1.500000e+000
      vertex   8.428652e+002 2.624438e+002 0.000000e+000
      vertex   8.428652e+002 2.624438e+002 1.500000e+000
    endloop
  endfacet
  facet normal 1.000000e+000 1.600741e-005 -0.000000e+000
    outer loop
      vertex   8.428654e+002 2.500620e+002 3.000000e+000
      vertex   8.428652e+002 2.624438e+002 1.500000e+000
      vertex   8.428652e+002 2.624438e+002 3.000000e+000
    endloop
  endfacet
  facet normal 1.000000e+000 1.600741e-005 0.000000e+000
    outer loop
      vertex   8.428654e+002 2.500620e+002 3.000000e+000
      vertex   8.428654e+002 2.500620e+002 1.500000e+000
      vertex   8.428652e+002 2.624438e+002 1.500000e+000
    endloop
  endfacet
  facet normal -7.466946e-002 9.972083e-001 0.000000e+000
    outer loop
      vertex   8.890159e+002 2.534896e+002 0.000000e+000
      vertex   8.774798e+002 2.526258e+002 0.000000e+000
      vertex   8.890159e+002 2.534896e+002 1.500000e+000
    endloop
  endfacet
  facet normal -7.466946e-002 9.972083e-001 2.361864e-014
    outer loop
      vertex   8.890159e+002 2.534896e+002 1.500000e+000
      vertex   8.774798e+002 2.526258e+002 0.000000e+000
      vertex   8.774798e+002 2.526258e+002 1.500000e+000
    endloop
  endfacet
  facet normal -7.466946e-002 9.972083e-001 -2.361864e-014
    outer loop
      vertex   8.890159e+002 2.534896e+002 3.000000e+000
      vertex   8.774798e+002 2.526258e+002 1.500000e+000
      vertex   8.774798e+002 2.526258e+002 3.000000e+000
    endloop
  endfacet
  facet normal -7.466946e-002 9.972083e-001 0.000000e+000
    outer loop
      vertex   8.890159e+002 2.534896e+002 3.000000e+000
      vertex   8.890159e+002 2.534896e+002 1.500000e+000
      vertex   8.774798e+002 2.526258e+002 1.500000e+000
    endloop
  endfacet
  facet normal -7.423633e-002 9.972407e-001 2.367049e-014
    outer loop
      vertex   8.774798e+002 2.526258e+002 0.000000e+000
      vertex   8.659422e+002 2.517669e+002 0.000000e+000
      vertex   8.774798e+002 2.526258e+002 1.500000e+000
    endloop
  endfacet
  facet normal -7.423633e-002 9.972407e-001 4.020573e-014
    outer loop
      vertex   8.774798e+002 2.526258e+002 1.500000e+000
      vertex   8.659422e+002 2.517669e+002 0.000000e+000
      vertex   8.659422e+002 2.517669e+002 1.500000e+000
    endloop
  endfacet
  facet normal -7.423633e-002 9.972407e-001 -4.020573e-014
    outer loop
      vertex   8.774798e+002 2.526258e+002 3.000000e+000
      vertex   8.659422e+002 2.517669e+002 1.500000e+000
      vertex   8.659422e+002 2.517669e+002 3.000000e+000
    endloop
  endfacet
  facet normal -7.423633e-002 9.972407e-001 -2.361940e-014
    outer loop
      vertex   8.774798e+002 2.526258e+002 3.000000e+000
      vertex   8.774798e+002 2.526258e+002 1.500000e+000
      vertex   8.659422e+002 2.517669e+002 1.500000e+000
    endloop
  endfacet
  facet normal -7.384885e-002 9.972694e-001 4.022232e-014
    outer loop
      vertex   8.659422e+002 2.517669e+002 0.000000e+000
      vertex   8.544039e+002 2.509125e+002 0.000000e+000
      vertex   8.659422e+002 2.517669e+002 1.500000e+000
    endloop
  endfacet
  facet normal -7.384885e-002 9.972694e-001 1.662372e-014
    outer loop
      vertex   8.659422e+002 2.517669e+002 1.500000e+000
      vertex   8.544039e+002 2.509125e+002 0.000000e+000
      vertex   8.544039e+002 2.509125e+002 1.500000e+000
    endloop
  endfacet
  facet normal -7.384885e-002 9.972694e-001 -1.662372e-014
    outer loop
      vertex   8.659422e+002 2.517669e+002 3.000000e+000
      vertex   8.544039e+002 2.509125e+002 1.500000e+000
      vertex   8.544039e+002 2.509125e+002 3.000000e+000
    endloop
  endfacet
  facet normal -7.384885e-002 9.972694e-001 -4.024380e-014
    outer loop
      vertex   8.659422e+002 2.517669e+002 3.000000e+000
      vertex   8.659422e+002 2.517669e+002 1.500000e+000
      vertex   8.544039e+002 2.509125e+002 1.500000e+000
    endloop
  endfacet
  facet normal -7.350695e-002 9.972947e-001 1.663289e-014
    outer loop
      vertex   8.544039e+002 2.509125e+002 0.000000e+000
      vertex   8.428654e+002 2.500620e+002 0.000000e+000
      vertex   8.544039e+002 2.509125e+002 1.500000e+000
    endloop
  endfacet
  facet normal -7.350695e-002 9.972947e-001 0.000000e+000
    outer loop
      vertex   8.544039e+002 2.509125e+002 1.500000e+000
      vertex   8.428654e+002 2.500620e+002 0.000000e+000
      vertex   8.428654e+002 2.500620e+002 1.500000e+000
    endloop
  endfacet
  facet normal -7.350695e-002 9.972947e-001 0.000000e+000
    outer loop
      vertex   8.544039e+002 2.509125e+002 3.000000e+000
      vertex   8.428654e+002 2.500620e+002 1.500000e+000
      vertex   8.428654e+002 2.500620e+002 3.000000e+000
    endloop
  endfacet
  facet normal -7.350695e-002 9.972947e-001 -1.665671e-014
    outer loop
      vertex   8.544039e+002 2.509125e+002 3.000000e+000
      vertex   8.544039e+002 2.509125e+002 1.500000e+000
      vertex   8.428654e+002 2.500620e+002 1.500000e+000
    endloop
  endfacet
  facet normal -1.000000e+000 -2.201600e-013 0.000000e+000
    outer loop
      vertex   8.890159e+002 2.541351e+002 0.000000e+000
      vertex   8.890159e+002 2.534896e+002 0.000000e+000
      vertex   8.890159e+002 2.541351e+002 1.500000e+000
    endloop
  endfacet
  facet normal -1.000000e+000 -2.201600e-013 0.000000e+000
    outer loop
      vertex   8.890159e+002 2.541351e+002 1.500000e+000
      vertex   8.890159e+002 2.534896e+002 0.000000e+000
      vertex   8.890159e+002 2.534896e+002 1.500000e+000
    endloop
  endfacet
  facet normal -1.000000e+000 -2.201600e-013 0.000000e+000
    outer loop
      vertex   8.890159e+002 2.541351e+002 3.000000e+000
      vertex   8.890159e+002 2.534896e+002 1.500000e+000
      vertex   8.890159e+002 2.534896e+002 3.000000e+000
    endloop
  endfacet
  facet normal -1.000000e+000 -2.201600e-013 -0.000000e+000
    outer loop
      vertex   8.890159e+002 2.541351e+002 3.000000e+000
      vertex   8.890159e+002 2.541351e+002 1.500000e+000
      vertex   8.890159e+002 2.534896e+002 1.500000e+000
    endloop
  endfacet
  facet normal -2.004289e-001 -9.797082e-001 0.000000e+000
    outer loop
      vertex   8.428652e+002 2.624438e+002 0.000000e+000
      vertex   8.543687e+002 2.600904e+002 0.000000e+000
      vertex   8.428652e+002 2.624438e+002 1.500000e+000
    endloop
  endfacet
  facet normal -2.004289e-001 -9.797082e-001 0.000000e+000
    outer loop
      vertex   8.428652e+002 2.624438e+002 1.500000e+000
      vertex   8.543687e+002 2.600904e+002 0.000000e+000
      vertex   8.543687e+002 2.600904e+002 1.500000e+000
    endloop
  endfacet
  facet normal -2.004289e-001 -9.797082e-001 0.000000e+000
    outer loop
      vertex   8.428652e+002 2.624438e+002 3.000000e+000
      vertex   8.543687e+002 2.600904e+002 1.500000e+000
      vertex   8.543687e+002 2.600904e+002 3.000000e+000
    endloop
  endfacet
  facet normal -2.004289e-001 -9.797082e-001 -0.000000e+000
    outer loop
      vertex   8.428652e+002 2.624438e+002 3.000000e+000
      vertex   8.428652e+002 2.624438e+002 1.500000e+000
      vertex   8.543687e+002 2.600904e+002 1.500000e+000
    endloop
  endfacet
  facet normal -1.873558e-001 -9.822921e-001 0.000000e+000
    outer loop
      vertex   8.543687e+002 2.600904e+002 0.000000e+000
      vertex   8.658918e+002 2.578926e+002 0.000000e+000
      vertex   8.543687e+002 2.600904e+002 1.500000e+000
    endloop
  endfacet
  facet normal -1.873558e-001 -9.822921e-001 0.000000e+000
    outer loop
      vertex   8.543687e+002 2.600904e+002 1.500000e+000
      vertex   8.658918e+002 2.578926e+002 0.000000e+000
      vertex   8.658918e+002 2.578926e+002 1.500000e+000
    endloop
  endfacet
  facet normal -1.873558e-001 -9.822921e-001 0.000000e+000
    outer loop
      vertex   8.543687e+002 2.600904e+002 3.000000e+000
      vertex   8.658918e+002 2.578926e+002 1.500000e+000
      vertex   8.658918e+002 2.578926e+002 3.000000e+000
    endloop
  endfacet
  facet normal -1.873558e-001 -9.822921e-001 -0.000000e+000
    outer loop
      vertex   8.543687e+002 2.600904e+002 3.000000e+000
      vertex   8.543687e+002 2.600904e+002 1.500000e+000
      vertex   8.658918e+002 2.578926e+002 1.500000e+000
    endloop
  endfacet
  facet normal -1.706084e-001 -9.853389e-001 0.000000e+000
    outer loop
      vertex   8.658918e+002 2.578926e+002 0.000000e+000
      vertex   8.774393e+002 2.558932e+002 0.000000e+000
      vertex   8.658918e+002 2.578926e+002 1.500000e+000
    endloop
  endfacet
  facet normal -1.706084e-001 -9.853389e-001 0.000000e+000
    outer loop
      vertex   8.658918e+002 2.578926e+002 1.500000e+000
      vertex   8.774393e+002 2.558932e+002 0.000000e+000
      vertex   8.774393e+002 2.558932e+002 1.500000e+000
    endloop
  endfacet
  facet normal -1.706084e-001 -9.853389e-001 0.000000e+000
    outer loop
      vertex   8.658918e+002 2.578926e+002 3.000000e+000
      vertex   8.774393e+002 2.558932e+002 1.500000e+000
      vertex   8.774393e+002 2.558932e+002 3.000000e+000
    endloop
  endfacet
  facet normal -1.706084e-001 -9.853389e-001 -0.000000e+000
    outer loop
      vertex   8.658918e+002 2.578926e+002 3.000000e+000
      vertex   8.658918e+002 2.578926e+002 1.500000e+000
      vertex   8.774393e+002 2.558932e+002 1.500000e+000
    endloop
  endfacet
  facet normal -1.501447e-001 -9.886640e-001 0.000000e+000
    outer loop
      vertex   8.774393e+002 2.558932e+002 0.000000e+000
      vertex   8.890159e+002 2.541351e+002 0.000000e+000
      vertex   8.774393e+002 2.558932e+002 1.500000e+000
    endloop
  endfacet
  facet normal -1.501447e-001 -9.886640e-001 0.000000e+000
    outer loop
      vertex   8.774393e+002 2.558932e+002 1.500000e+000
      vertex   8.890159e+002 2.541351e+002 0.000000e+000
      vertex   8.890159e+002 2.541351e+002 1.500000e+000
    endloop
  endfacet
  facet normal -1.501447e-001 -9.886640e-001 0.000000e+000
    outer loop
      vertex   8.774393e+002 2.558932e+002 3.000000e+000
      vertex   8.890159e+002 2.541351e+002 1.500000e+000
      vertex   8.890159e+002 2.541351e+002 3.000000e+000
    endloop
  endfacet
  facet normal -1.501447e-001 -9.886640e-001 -0.000000e+000
    outer loop
      vertex   8.774393e+002 2.558932e+002 3.000000e+000
      vertex   8.774393e+002 2.558932e+002 1.500000e+000
      vertex   8.890159e+002 2.541351e+002 1.500000e+000
    endloop
  endfacet
endsolid
