solid ascii
  facet normal 0.000000e+000 -0.000000e+000 1.000000e+000
    outer loop
      vertex   8.777862e+001 -4.575600e+002 5.830000e+001
      vertex   8.785169e+001 -4.573584e+002 5.830000e+001
      vertex   7.802892e+001 -4.583056e+002 5.830000e+001
    endloop
  endfacet
  facet normal 0.000000e+000 -0.000000e+000 1.000000e+000
    outer loop
      vertex   7.802892e+001 -4.583056e+002 5.830000e+001
      vertex   8.785169e+001 -4.573584e+002 5.830000e+001
      vertex   6.827932e+001 -4.573584e+002 5.830000e+001
    endloop
  endfacet
  facet normal -1.019741e-015 -1.049702e-014 1.000000e+000
    outer loop
      vertex   6.827932e+001 -4.590507e+002 5.830000e+001
      vertex   7.802892e+001 -4.583056e+002 5.830000e+001
      vertex   6.827932e+001 -4.573584e+002 5.830000e+001
    endloop
  endfacet
  facet normal 0.000000e+000 -1.000000e+000 1.999064e-006
    outer loop
      vertex   8.768185e+001 -4.573584e+002 5.850000e+001
      vertex   7.789632e+001 -4.573584e+002 5.850000e+001
      vertex   8.785169e+001 -4.573584e+002 5.830000e+001
    endloop
  endfacet
  facet normal 0.000000e+000 -1.000000e+000 1.999064e-006
    outer loop
      vertex   8.785169e+001 -4.573584e+002 5.830000e+001
      vertex   7.789632e+001 -4.573584e+002 5.850000e+001
      vertex   6.827932e+001 -4.573584e+002 5.830000e+001
    endloop
  endfacet
  facet normal 0.000000e+000 -1.000000e+000 1.999064e-006
    outer loop
      vertex   6.827932e+001 -4.573584e+002 5.830000e+001
      vertex   7.789632e+001 -4.573584e+002 5.850000e+001
      vertex   6.811078e+001 -4.573584e+002 5.850000e+001
    endloop
  endfacet
  facet normal 0.000000e+000 -1.000000e+000 1.065814e-012
    outer loop
      vertex   8.515389e+001 -4.573584e+002 6.150000e+001
      vertex   8.498612e+001 -4.573584e+002 6.170000e+001
      vertex   7.536836e+001 -4.573584e+002 6.150000e+001
    endloop
  endfacet
  facet normal 0.000000e+000 -1.000000e+000 1.065814e-012
    outer loop
      vertex   7.536836e+001 -4.573584e+002 6.150000e+001
      vertex   8.498612e+001 -4.573584e+002 6.170000e+001
      vertex   6.541429e+001 -4.573584e+002 6.170000e+001
    endloop
  endfacet
  facet normal 0.000000e+000 -1.000000e+000 1.065814e-012
    outer loop
      vertex   6.558282e+001 -4.573584e+002 6.150000e+001
      vertex   7.536836e+001 -4.573584e+002 6.150000e+001
      vertex   6.541429e+001 -4.573584e+002 6.170000e+001
    endloop
  endfacet
  facet normal -3.982408e-015 5.218259e-014 -1.000000e+000
    outer loop
      vertex   8.492259e+001 -4.575335e+002 6.170000e+001
      vertex   7.516769e+001 -4.582780e+002 6.170000e+001
      vertex   8.498612e+001 -4.573584e+002 6.170000e+001
    endloop
  endfacet
  facet normal 0.000000e+000 9.659184e-015 -1.000000e+000
    outer loop
      vertex   8.498612e+001 -4.573584e+002 6.170000e+001
      vertex   7.516769e+001 -4.582780e+002 6.170000e+001
      vertex   6.541429e+001 -4.573584e+002 6.170000e+001
    endloop
  endfacet
  facet normal -1.414075e-015 -5.340040e-015 -1.000000e+000
    outer loop
      vertex   6.541429e+001 -4.573584e+002 6.170000e+001
      vertex   7.516769e+001 -4.582780e+002 6.170000e+001
      vertex   6.541429e+001 -4.590217e+002 6.170000e+001
    endloop
  endfacet
  facet normal -0.000000e+000 1.000000e+000 4.618528e-012
    outer loop
      vertex   1.159735e+002 -4.553584e+002 1.700000e+000
      vertex   1.276073e+002 -4.553584e+002 1.700000e+000
      vertex   1.161420e+002 -4.553584e+002 1.500000e+000
    endloop
  endfacet
  facet normal 8.549682e-014 1.000000e+000 -2.826896e-013
    outer loop
      vertex   1.161420e+002 -4.553584e+002 1.500000e+000
      vertex   1.276073e+002 -4.553584e+002 1.700000e+000
      vertex   1.277771e+002 -4.553584e+002 1.500000e+000
    endloop
  endfacet
  facet normal -5.341343e-016 2.697352e-014 -1.000000e+000
    outer loop
      vertex   1.159735e+002 -4.540002e+002 1.700000e+000
      vertex   1.259436e+002 -4.552022e+002 1.700000e+000
      vertex   1.159735e+002 -4.553584e+002 1.700000e+000
    endloop
  endfacet
  facet normal 0.000000e+000 -7.104549e-015 -1.000000e+000
    outer loop
      vertex   1.159735e+002 -4.553584e+002 1.700000e+000
      vertex   1.259436e+002 -4.552022e+002 1.700000e+000
      vertex   1.276073e+002 -4.553584e+002 1.700000e+000
    endloop
  endfacet
  facet normal -0.000000e+000 8.135454e-014 1.000000e+000
    outer loop
      vertex   1.772011e+001 -4.547034e+002 1.183000e+002
      vertex   1.772011e+001 -4.553584e+002 1.183000e+002
      vertex   2.419676e+001 -4.553584e+002 1.183000e+002
    endloop
  endfacet
  facet normal 0.000000e+000 1.000000e+000 3.552714e-013
    outer loop
      vertex   2.419676e+001 -4.553584e+002 1.183000e+002
      vertex   1.772011e+001 -4.553584e+002 1.183000e+002
      vertex   2.400988e+001 -4.553584e+002 1.185000e+002
    endloop
  endfacet
  facet normal 1.891220e-008 1.000000e+000 -5.947665e-007
    outer loop
      vertex   2.400988e+001 -4.553584e+002 1.185000e+002
      vertex   1.772011e+001 -4.553584e+002 1.183000e+002
      vertex   1.755158e+001 -4.553584e+002 1.185000e+002
    endloop
  endfacet
  facet normal 1.821245e-008 1.000000e+000 1.529655e-008
    outer loop
      vertex   2.173833e+001 -4.553584e+002 1.215000e+002
      vertex   1.755158e+001 -4.553584e+002 1.185000e+002
      vertex   1.502362e+001 -4.553584e+002 1.215000e+002
    endloop
  endfacet
  facet normal 1.891220e-008 1.000000e+000 1.432000e-008
    outer loop
      vertex   2.173833e+001 -4.553584e+002 1.215000e+002
      vertex   2.400988e+001 -4.553584e+002 1.185000e+002
      vertex   1.755158e+001 -4.553584e+002 1.185000e+002
    endloop
  endfacet
  facet normal -8.323669e-010 1.000000e+000 -6.302543e-010
    outer loop
      vertex   2.173833e+001 -4.553584e+002 1.215000e+002
      vertex   2.401005e+001 -4.553584e+002 1.185000e+002
      vertex   2.400988e+001 -4.553584e+002 1.185000e+002
    endloop
  endfacet
  facet normal 0.000000e+000 -1.000000e+000 0.000000e+000
    outer loop
      vertex   1.755158e+001 -4.563584e+002 1.185000e+002
      vertex   1.772011e+001 -4.563584e+002 1.183000e+002
      vertex   2.751889e+001 -4.563584e+002 1.185000e+002
    endloop
  endfacet
  facet normal 0.000000e+000 -1.000000e+000 -0.000000e+000
    outer loop
      vertex   2.751889e+001 -4.563584e+002 1.185000e+002
      vertex   1.772011e+001 -4.563584e+002 1.183000e+002
      vertex   3.765503e+001 -4.563584e+002 1.183000e+002
    endloop
  endfacet
  facet normal -0.000000e+000 -1.000000e+000 -0.000000e+000
    outer loop
      vertex   3.748621e+001 -4.563584e+002 1.185000e+002
      vertex   2.751889e+001 -4.563584e+002 1.185000e+002
      vertex   3.765503e+001 -4.563584e+002 1.183000e+002
    endloop
  endfacet
  facet normal 1.022066e-015 -2.051079e-014 1.000000e+000
    outer loop
      vertex   1.772011e+001 -4.580906e+002 1.183000e+002
      vertex   2.768820e+001 -4.575938e+002 1.183000e+002
      vertex   1.772011e+001 -4.563584e+002 1.183000e+002
    endloop
  endfacet
  facet normal 0.000000e+000 -2.875752e-014 1.000000e+000
    outer loop
      vertex   1.772011e+001 -4.563584e+002 1.183000e+002
      vertex   2.768820e+001 -4.575938e+002 1.183000e+002
      vertex   3.765503e+001 -4.563584e+002 1.183000e+002
    endloop
  endfacet
  facet normal -3.565700e-015 9.393655e-018 1.000000e+000
    outer loop
      vertex   3.765503e+001 -4.563584e+002 1.183000e+002
      vertex   2.768820e+001 -4.575938e+002 1.183000e+002
      vertex   3.765324e+001 -4.570396e+002 1.183000e+002
    endloop
  endfacet
  facet normal -0.000000e+000 -1.000000e+000 0.000000e+000
    outer loop
      vertex   1.358785e+002 -4.573584e+002 1.500000e+000
      vertex   1.357097e+002 -4.573584e+002 1.700000e+000
      vertex   1.260103e+002 -4.573584e+002 1.500000e+000
    endloop
  endfacet
  facet normal 0.000000e+000 -1.000000e+000 0.000000e+000
    outer loop
      vertex   1.260103e+002 -4.573584e+002 1.500000e+000
      vertex   1.357097e+002 -4.573584e+002 1.700000e+000
      vertex   1.159735e+002 -4.573584e+002 1.700000e+000
    endloop
  endfacet
  facet normal 0.000000e+000 -1.000000e+000 0.000000e+000
    outer loop
      vertex   1.161420e+002 -4.573584e+002 1.500000e+000
      vertex   1.260103e+002 -4.573584e+002 1.500000e+000
      vertex   1.159735e+002 -4.573584e+002 1.700000e+000
    endloop
  endfacet
  facet normal -5.981134e-016 1.145637e-015 -1.000000e+000
    outer loop
      vertex   1.353879e+002 -4.589801e+002 1.700000e+000
      vertex   1.256805e+002 -4.599295e+002 1.700000e+000
      vertex   1.357097e+002 -4.573584e+002 1.700000e+000
    endloop
  endfacet
  facet normal 0.000000e+000 -1.187497e-015 -1.000000e+000
    outer loop
      vertex   1.357097e+002 -4.573584e+002 1.700000e+000
      vertex   1.256805e+002 -4.599295e+002 1.700000e+000
      vertex   1.159735e+002 -4.573584e+002 1.700000e+000
    endloop
  endfacet
  facet normal 1.379570e-015 4.021092e-015 -1.000000e+000
    outer loop
      vertex   1.159735e+002 -4.573584e+002 1.700000e+000
      vertex   1.256805e+002 -4.599295e+002 1.700000e+000
      vertex   1.159735e+002 -4.608787e+002 1.700000e+000
    endloop
  endfacet
  facet normal 0.000000e+000 1.000000e+000 -1.999065e-006
    outer loop
      vertex   7.679821e+001 -4.553584e+002 6.150000e+001
      vertex   6.558282e+001 -4.553584e+002 6.150000e+001
      vertex   7.661366e+001 -4.553584e+002 6.170000e+001
    endloop
  endfacet
  facet normal 0.000000e+000 1.000000e+000 -1.999065e-006
    outer loop
      vertex   7.661366e+001 -4.553584e+002 6.170000e+001
      vertex   6.558282e+001 -4.553584e+002 6.150000e+001
      vertex   6.541429e+001 -4.553584e+002 6.170000e+001
    endloop
  endfacet
  facet normal 0.000000e+000 1.000000e+000 -0.000000e+000
    outer loop
      vertex   7.953805e+001 -4.553584e+002 5.830000e+001
      vertex   6.827932e+001 -4.553584e+002 5.830000e+001
      vertex   7.936813e+001 -4.553584e+002 5.850000e+001
    endloop
  endfacet
  facet normal 0.000000e+000 1.000000e+000 0.000000e+000
    outer loop
      vertex   7.936813e+001 -4.553584e+002 5.850000e+001
      vertex   6.827932e+001 -4.553584e+002 5.830000e+001
      vertex   6.811078e+001 -4.553584e+002 5.850000e+001
    endloop
  endfacet
  facet normal 1.110385e-015 -2.023035e-014 -1.000000e+000
    outer loop
      vertex   6.541429e+001 -4.540413e+002 6.170000e+001
      vertex   7.541916e+001 -4.552483e+002 6.170000e+001
      vertex   6.541429e+001 -4.553584e+002 6.170000e+001
    endloop
  endfacet
  facet normal 0.000000e+000 8.066626e-014 -1.000000e+000
    outer loop
      vertex   6.541429e+001 -4.553584e+002 6.170000e+001
      vertex   7.541916e+001 -4.552483e+002 6.170000e+001
      vertex   7.661366e+001 -4.553584e+002 6.170000e+001
    endloop
  endfacet
  facet normal 0.000000e+000 -1.548321e-013 1.000000e+000
    outer loop
      vertex   7.953805e+001 -4.553584e+002 5.830000e+001
      vertex   7.828577e+001 -4.552437e+002 5.830000e+001
      vertex   6.827932e+001 -4.553584e+002 5.830000e+001
    endloop
  endfacet
  facet normal -1.309138e-015 -4.065045e-014 1.000000e+000
    outer loop
      vertex   6.827932e+001 -4.553584e+002 5.830000e+001
      vertex   7.828577e+001 -4.552437e+002 5.830000e+001
      vertex   6.827932e+001 -4.540475e+002 5.830000e+001
    endloop
  endfacet
  facet normal 7.383163e-001 -2.679564e-001 6.189413e-001
    outer loop
      vertex   8.492259e+001 -4.575335e+002 6.170000e+001
      vertex   8.498612e+001 -4.573584e+002 6.170000e+001
      vertex   7.901337e+001 -4.574718e+002 6.877565e+001
    endloop
  endfacet
  facet normal 7.383163e-001 -2.679564e-001 6.189413e-001
    outer loop
      vertex   7.901337e+001 -4.574718e+002 6.877565e+001
      vertex   8.498612e+001 -4.573584e+002 6.170000e+001
      vertex   7.318877e+001 -4.574109e+002 7.575000e+001
    endloop
  endfacet
  facet normal 7.451141e-001 -2.333599e-001 6.247784e-001
    outer loop
      vertex   7.318877e+001 -4.574109e+002 7.575000e+001
      vertex   8.498612e+001 -4.573584e+002 6.170000e+001
      vertex   7.360034e+001 -4.560968e+002 7.575000e+001
    endloop
  endfacet
  facet normal 7.435318e-001 -2.325582e-001 6.269586e-001
    outer loop
      vertex   7.310414e+001 -4.574100e+002 7.585134e+001
      vertex   7.360034e+001 -4.560968e+002 7.575000e+001
      vertex   6.758131e+001 -4.561323e+002 8.287500e+001
    endloop
  endfacet
  facet normal 7.473039e-001 -2.105127e-001 6.302550e-001
    outer loop
      vertex   6.719490e+001 -4.573483e+002 8.292702e+001
      vertex   6.758131e+001 -4.561323e+002 8.287500e+001
      vertex   6.156229e+001 -4.561677e+002 9.000000e+001
    endloop
  endfacet
  facet normal 7.512812e-001 -1.842358e-001 6.337458e-001
    outer loop
      vertex   6.128566e+001 -4.572865e+002 9.000270e+001
      vertex   6.156229e+001 -4.561677e+002 9.000000e+001
      vertex   5.554327e+001 -4.562032e+002 9.712500e+001
    endloop
  endfacet
  facet normal 7.578750e-001 -1.527308e-001 6.342703e-001
    outer loop
      vertex   5.537642e+001 -4.572248e+002 9.707839e+001
      vertex   5.554327e+001 -4.562032e+002 9.712500e+001
      vertex   4.946718e+001 -4.571630e+002 1.041541e+002
    endloop
  endfacet
  facet normal 7.578750e-001 -1.527308e-001 6.342703e-001
    outer loop
      vertex   5.537642e+001 -4.572248e+002 9.707839e+001
      vertex   6.128566e+001 -4.572865e+002 9.000270e+001
      vertex   5.554327e+001 -4.562032e+002 9.712500e+001
    endloop
  endfacet
  facet normal 7.380424e-001 -2.683120e-001 6.191139e-001
    outer loop
      vertex   8.515389e+001 -4.573584e+002 6.150000e+001
      vertex   8.560167e+001 -4.561267e+002 6.150000e+001
      vertex   8.498612e+001 -4.573584e+002 6.170000e+001
    endloop
  endfacet
  facet normal 7.367560e-001 -2.673534e-001 6.210578e-001
    outer loop
      vertex   8.498612e+001 -4.573584e+002 6.170000e+001
      vertex   8.560167e+001 -4.561267e+002 6.150000e+001
      vertex   7.360034e+001 -4.560968e+002 7.575000e+001
    endloop
  endfacet
  facet normal 7.366588e-001 -2.678090e-001 6.209768e-001
    outer loop
      vertex   7.360034e+001 -4.560968e+002 7.575000e+001
      vertex   8.560167e+001 -4.561267e+002 6.150000e+001
      vertex   7.961936e+001 -4.560613e+002 6.862500e+001
    endloop
  endfacet
  facet normal 7.366588e-001 -2.678090e-001 6.209768e-001
    outer loop
      vertex   7.961936e+001 -4.560613e+002 6.862500e+001
      vertex   8.560167e+001 -4.561267e+002 6.150000e+001
      vertex   8.563838e+001 -4.560258e+002 6.150000e+001
    endloop
  endfacet
  facet normal 7.592569e-001 -1.133921e-001 6.408363e-001
    outer loop
      vertex   5.554327e+001 -4.562032e+002 9.712500e+001
      vertex   4.952425e+001 -4.562387e+002 1.042500e+002
      vertex   4.946718e+001 -4.571630e+002 1.041541e+002
    endloop
  endfacet
  facet normal 7.621145e-001 -1.132188e-001 6.374661e-001
    outer loop
      vertex   4.946718e+001 -4.571630e+002 1.041541e+002
      vertex   4.952425e+001 -4.562387e+002 1.042500e+002
      vertex   4.938706e+001 -4.571622e+002 1.042500e+002
    endloop
  endfacet
  facet normal 7.621145e-001 -1.132188e-001 6.374661e-001
    outer loop
      vertex   4.938706e+001 -4.571622e+002 1.042500e+002
      vertex   4.952425e+001 -4.562387e+002 1.042500e+002
      vertex   4.355794e+001 -4.571013e+002 1.112298e+002
    endloop
  endfacet
  facet normal 7.624952e-001 -6.639340e-002 6.435782e-001
    outer loop
      vertex   4.355794e+001 -4.571013e+002 1.112298e+002
      vertex   4.952425e+001 -4.562387e+002 1.042500e+002
      vertex   3.765503e+001 -4.563584e+002 1.183000e+002
    endloop
  endfacet
  facet normal 7.675258e-001 -2.022007e-003 6.410149e-001
    outer loop
      vertex   3.765324e+001 -4.570396e+002 1.183000e+002
      vertex   4.355794e+001 -4.571013e+002 1.112298e+002
      vertex   3.765503e+001 -4.563584e+002 1.183000e+002
    endloop
  endfacet
  facet normal 7.639088e-001 -2.012479e-003 6.453210e-001
    outer loop
      vertex   4.952425e+001 -4.562387e+002 1.042500e+002
      vertex   4.350523e+001 -4.562742e+002 1.113750e+002
      vertex   3.765503e+001 -4.563584e+002 1.183000e+002
    endloop
  endfacet
  facet normal 7.639088e-001 -2.012479e-003 6.453210e-001
    outer loop
      vertex   3.765503e+001 -4.563584e+002 1.183000e+002
      vertex   4.350523e+001 -4.562742e+002 1.113750e+002
      vertex   3.748621e+001 -4.563097e+002 1.185000e+002
    endloop
  endfacet
  facet normal 7.641549e-001 2.279350e-005 6.450328e-001
    outer loop
      vertex   3.748621e+001 -4.563584e+002 1.185000e+002
      vertex   3.765503e+001 -4.563584e+002 1.183000e+002
      vertex   3.748621e+001 -4.563097e+002 1.185000e+002
    endloop
  endfacet
  facet normal 7.535226e-001 -1.847968e-001 6.309151e-001
    outer loop
      vertex   6.128566e+001 -4.572865e+002 9.000270e+001
      vertex   6.719490e+001 -4.573483e+002 8.292702e+001
      vertex   6.156229e+001 -4.561677e+002 9.000000e+001
    endloop
  endfacet
  facet normal 7.493047e-001 -2.112611e-001 6.276235e-001
    outer loop
      vertex   6.719490e+001 -4.573483e+002 8.292702e+001
      vertex   7.310414e+001 -4.574100e+002 7.585134e+001
      vertex   6.758131e+001 -4.561323e+002 8.287500e+001
    endloop
  endfacet
  facet normal 7.453291e-001 -2.334272e-001 6.244968e-001
    outer loop
      vertex   7.310414e+001 -4.574100e+002 7.585134e+001
      vertex   7.318877e+001 -4.574109e+002 7.575000e+001
      vertex   7.360034e+001 -4.560968e+002 7.575000e+001
    endloop
  endfacet
  facet normal 7.594305e-002 -9.931504e-001 8.879736e-002
    outer loop
      vertex   8.777862e+001 -4.575600e+002 5.830000e+001
      vertex   7.802892e+001 -4.583056e+002 5.830000e+001
      vertex   9.372977e+001 -4.577376e+002 5.122500e+001
    endloop
  endfacet
  facet normal 7.852322e-002 -9.924154e-001 9.458230e-002
    outer loop
      vertex   9.372977e+001 -4.577376e+002 5.122500e+001
      vertex   7.802892e+001 -4.583056e+002 5.830000e+001
      vertex   8.398537e+001 -4.585086e+002 5.122500e+001
    endloop
  endfacet
  facet normal 8.109132e-002 -9.920015e-001 9.673251e-002
    outer loop
      vertex   9.959682e+001 -4.579126e+002 4.425000e+001
      vertex   8.398537e+001 -4.585086e+002 5.122500e+001
      vertex   8.994182e+001 -4.587116e+002 4.415000e+001
    endloop
  endfacet
  facet normal 8.115613e-002 -9.923379e-001 9.316198e-002
    outer loop
      vertex   9.968093e+001 -4.579151e+002 4.415000e+001
      vertex   8.994182e+001 -4.587116e+002 4.415000e+001
      vertex   1.056321e+002 -4.580926e+002 3.707500e+001
    endloop
  endfacet
  facet normal 8.115613e-002 -9.923379e-001 9.316198e-002
    outer loop
      vertex   9.968093e+001 -4.579151e+002 4.415000e+001
      vertex   9.959682e+001 -4.579126e+002 4.425000e+001
      vertex   8.994182e+001 -4.587116e+002 4.415000e+001
    endloop
  endfacet
  facet normal 7.587727e-002 -9.928298e-001 9.236657e-002
    outer loop
      vertex   7.802892e+001 -4.583056e+002 5.830000e+001
      vertex   6.827932e+001 -4.590507e+002 5.830000e+001
      vertex   8.398537e+001 -4.585086e+002 5.122500e+001
    endloop
  endfacet
  facet normal 7.845849e-002 -9.920735e-001 9.815466e-002
    outer loop
      vertex   8.398537e+001 -4.585086e+002 5.122500e+001
      vertex   6.827932e+001 -4.590507e+002 5.830000e+001
      vertex   7.424109e+001 -4.592792e+002 5.122500e+001
    endloop
  endfacet
  facet normal 8.106538e-002 -9.916455e-001 1.003375e-001
    outer loop
      vertex   8.994182e+001 -4.587116e+002 4.415000e+001
      vertex   7.424109e+001 -4.592792e+002 5.122500e+001
      vertex   8.020286e+001 -4.595077e+002 4.415000e+001
    endloop
  endfacet
  facet normal 8.367186e-002 -9.912057e-001 1.025196e-001
    outer loop
      vertex   9.589828e+001 -4.589145e+002 3.707500e+001
      vertex   8.020286e+001 -4.595077e+002 4.415000e+001
      vertex   8.616463e+001 -4.597362e+002 3.707500e+001
    endloop
  endfacet
  facet normal 8.627785e-002 -9.907542e-001 1.047010e-001
    outer loop
      vertex   1.018547e+002 -4.591175e+002 3.000000e+001
      vertex   8.616463e+001 -4.597362e+002 3.707500e+001
      vertex   9.212641e+001 -4.599647e+002 3.000000e+001
    endloop
  endfacet
  facet normal 8.888325e-002 -9.902909e-001 1.068814e-001
    outer loop
      vertex   1.078112e+002 -4.593205e+002 2.292500e+001
      vertex   9.212641e+001 -4.599647e+002 3.000000e+001
      vertex   9.808818e+001 -4.601932e+002 2.292500e+001
    endloop
  endfacet
  facet normal 9.148797e-002 -9.898160e-001 1.090609e-001
    outer loop
      vertex   1.137676e+002 -4.595235e+002 1.585000e+001
      vertex   9.808818e+001 -4.601932e+002 2.292500e+001
      vertex   1.040500e+002 -4.604217e+002 1.585000e+001
    endloop
  endfacet
  facet normal 9.409191e-002 -9.893293e-001 1.112394e-001
    outer loop
      vertex   1.197241e+002 -4.597265e+002 8.775000e+000
      vertex   1.040500e+002 -4.604217e+002 1.585000e+001
      vertex   1.100117e+002 -4.606502e+002 8.775000e+000
    endloop
  endfacet
  facet normal 9.669499e-002 -9.888310e-001 1.134168e-001
    outer loop
      vertex   1.256805e+002 -4.599295e+002 1.700000e+000
      vertex   1.100117e+002 -4.606502e+002 8.775000e+000
      vertex   1.159735e+002 -4.608787e+002 1.700000e+000
    endloop
  endfacet
  facet normal 9.412939e-002 -9.897234e-001 1.076439e-001
    outer loop
      vertex   1.256805e+002 -4.599295e+002 1.700000e+000
      vertex   1.197241e+002 -4.597265e+002 8.775000e+000
      vertex   1.100117e+002 -4.606502e+002 8.775000e+000
    endloop
  endfacet
  facet normal 9.674691e-002 -9.892303e-001 1.098335e-001
    outer loop
      vertex   1.256805e+002 -4.599295e+002 1.700000e+000
      vertex   1.353879e+002 -4.589801e+002 1.700000e+000
      vertex   1.197241e+002 -4.597265e+002 8.775000e+000
    endloop
  endfacet
  facet normal 9.418175e-002 -9.901014e-001 1.040624e-001
    outer loop
      vertex   1.197241e+002 -4.597265e+002 8.775000e+000
      vertex   1.353879e+002 -4.589801e+002 1.700000e+000
      vertex   1.294367e+002 -4.588026e+002 8.775000e+000
    endloop
  endfacet
  facet normal 9.157781e-002 -9.905721e-001 1.018839e-001
    outer loop
      vertex   1.137676e+002 -4.595235e+002 1.585000e+001
      vertex   1.294367e+002 -4.588026e+002 8.775000e+000
      vertex   1.235697e+002 -4.586276e+002 1.575000e+001
    endloop
  endfacet
  facet normal 9.157781e-002 -9.905721e-001 1.018839e-001
    outer loop
      vertex   1.234856e+002 -4.586251e+002 1.585000e+001
      vertex   1.137676e+002 -4.595235e+002 1.585000e+001
      vertex   1.235697e+002 -4.586276e+002 1.575000e+001
    endloop
  endfacet
  facet normal 9.154329e-002 -9.901988e-001 1.054803e-001
    outer loop
      vertex   1.234856e+002 -4.586251e+002 1.585000e+001
      vertex   1.078112e+002 -4.593205e+002 2.292500e+001
      vertex   1.137676e+002 -4.595235e+002 1.585000e+001
    endloop
  endfacet
  facet normal 8.897318e-002 -9.910312e-001 9.970453e-002
    outer loop
      vertex   1.234856e+002 -4.586251e+002 1.585000e+001
      vertex   1.175344e+002 -4.584476e+002 2.292500e+001
      vertex   1.078112e+002 -4.593205e+002 2.292500e+001
    endloop
  endfacet
  facet normal 8.894036e-002 -9.906656e-001 1.033023e-001
    outer loop
      vertex   1.078112e+002 -4.593205e+002 2.292500e+001
      vertex   1.175344e+002 -4.584476e+002 2.292500e+001
      vertex   1.018547e+002 -4.591175e+002 3.000000e+001
    endloop
  endfacet
  facet normal 8.631016e-002 -9.911252e-001 1.011011e-001
    outer loop
      vertex   9.212641e+001 -4.599647e+002 3.000000e+001
      vertex   1.078112e+002 -4.593205e+002 2.292500e+001
      vertex   1.018547e+002 -4.591175e+002 3.000000e+001
    endloop
  endfacet
  facet normal 8.636797e-002 -9.914785e-001 9.752437e-002
    outer loop
      vertex   1.175344e+002 -4.584476e+002 2.292500e+001
      vertex   1.115832e+002 -4.582701e+002 3.000000e+001
      vertex   1.018547e+002 -4.591175e+002 3.000000e+001
    endloop
  endfacet
  facet normal 8.633679e-002 -9.911206e-001 1.011234e-001
    outer loop
      vertex   1.018547e+002 -4.591175e+002 3.000000e+001
      vertex   1.115832e+002 -4.582701e+002 3.000000e+001
      vertex   9.589828e+001 -4.589145e+002 3.707500e+001
    endloop
  endfacet
  facet normal 8.370253e-002 -9.915690e-001 9.891848e-002
    outer loop
      vertex   8.616463e+001 -4.597362e+002 3.707500e+001
      vertex   1.018547e+002 -4.591175e+002 3.000000e+001
      vertex   9.589828e+001 -4.589145e+002 3.707500e+001
    endloop
  endfacet
  facet normal 8.376225e-002 -9.919141e-001 9.534349e-002
    outer loop
      vertex   1.115832e+002 -4.582701e+002 3.000000e+001
      vertex   1.056321e+002 -4.580926e+002 3.707500e+001
      vertex   9.589828e+001 -4.589145e+002 3.707500e+001
    endloop
  endfacet
  facet normal 8.373268e-002 -9.915639e-001 9.894373e-002
    outer loop
      vertex   9.589828e+001 -4.589145e+002 3.707500e+001
      vertex   1.056321e+002 -4.580926e+002 3.707500e+001
      vertex   8.994182e+001 -4.587116e+002 4.415000e+001
    endloop
  endfacet
  facet normal 8.109444e-002 -9.920010e-001 9.673513e-002
    outer loop
      vertex   8.020286e+001 -4.595077e+002 4.415000e+001
      vertex   9.589828e+001 -4.589145e+002 3.707500e+001
      vertex   8.994182e+001 -4.587116e+002 4.415000e+001
    endloop
  endfacet
  facet normal 7.854970e-002 -9.927500e-001 9.097991e-002
    outer loop
      vertex   9.959682e+001 -4.579126e+002 4.425000e+001
      vertex   9.372977e+001 -4.577376e+002 5.122500e+001
      vertex   8.398537e+001 -4.585086e+002 5.122500e+001
    endloop
  endfacet
  facet normal 7.848599e-002 -9.924213e-001 9.455113e-002
    outer loop
      vertex   8.398537e+001 -4.585086e+002 5.122500e+001
      vertex   7.424109e+001 -4.592792e+002 5.122500e+001
      vertex   8.994182e+001 -4.587116e+002 4.415000e+001
    endloop
  endfacet
  facet normal 8.891724e-002 -9.906696e-001 1.032830e-001
    outer loop
      vertex   1.078112e+002 -4.593205e+002 2.292500e+001
      vertex   9.808818e+001 -4.601932e+002 2.292500e+001
      vertex   1.137676e+002 -4.595235e+002 1.585000e+001
    endloop
  endfacet
  facet normal 9.414551e-002 -9.897204e-001 1.076574e-001
    outer loop
      vertex   1.294367e+002 -4.588026e+002 8.775000e+000
      vertex   1.137676e+002 -4.595235e+002 1.585000e+001
      vertex   1.197241e+002 -4.597265e+002 8.775000e+000
    endloop
  endfacet
  facet normal 9.152368e-002 -9.902024e-001 1.054639e-001
    outer loop
      vertex   1.197241e+002 -4.597265e+002 8.775000e+000
      vertex   1.137676e+002 -4.595235e+002 1.585000e+001
      vertex   1.040500e+002 -4.604217e+002 1.585000e+001
    endloop
  endfacet
  facet normal 1.001612e-001 9.903305e-001 9.598506e-002
    outer loop
      vertex   1.772011e+001 -4.547034e+002 1.183000e+002
      vertex   2.419676e+001 -4.553584e+002 1.183000e+002
      vertex   2.355549e+001 -4.546224e+002 1.113750e+002
    endloop
  endfacet
  facet normal 9.848137e-002 9.904824e-001 9.615676e-002
    outer loop
      vertex   2.355549e+001 -4.546224e+002 1.113750e+002
      vertex   2.419676e+001 -4.553584e+002 1.183000e+002
      vertex   3.351596e+001 -4.556127e+002 1.113750e+002
    endloop
  endfacet
  facet normal 1.014990e-001 9.904889e-001 9.289660e-002
    outer loop
      vertex   2.955939e+001 -4.545391e+002 1.042500e+002
      vertex   3.351596e+001 -4.556127e+002 1.113750e+002
      vertex   3.952629e+001 -4.555604e+002 1.042500e+002
    endloop
  endfacet
  facet normal 1.044547e-001 9.899448e-001 9.538590e-002
    outer loop
      vertex   3.556330e+001 -4.544557e+002 9.712500e+001
      vertex   3.952629e+001 -4.555604e+002 1.042500e+002
      vertex   4.553662e+001 -4.555081e+002 9.712500e+001
    endloop
  endfacet
  facet normal 1.074017e-001 9.893871e-001 9.786781e-002
    outer loop
      vertex   4.156720e+001 -4.543724e+002 9.000000e+001
      vertex   4.553662e+001 -4.555081e+002 9.712500e+001
      vertex   5.154695e+001 -4.554557e+002 9.000000e+001
    endloop
  endfacet
  facet normal 1.103401e-001 9.888157e-001 1.003422e-001
    outer loop
      vertex   4.757111e+001 -4.542890e+002 8.287500e+001
      vertex   5.154695e+001 -4.554557e+002 9.000000e+001
      vertex   5.755728e+001 -4.554034e+002 8.287500e+001
    endloop
  endfacet
  facet normal 1.132695e-001 9.882309e-001 1.028091e-001
    outer loop
      vertex   5.357501e+001 -4.542057e+002 7.575000e+001
      vertex   5.755728e+001 -4.554034e+002 8.287500e+001
      vertex   6.356761e+001 -4.553510e+002 7.575000e+001
    endloop
  endfacet
  facet normal 1.161901e-001 9.876327e-001 1.052684e-001
    outer loop
      vertex   5.957892e+001 -4.541223e+002 6.862500e+001
      vertex   6.356761e+001 -4.553510e+002 7.575000e+001
      vertex   6.957795e+001 -4.552987e+002 6.862500e+001
    endloop
  endfacet
  facet normal 1.190765e-001 9.870357e-001 1.076166e-001
    outer loop
      vertex   6.541429e+001 -4.540413e+002 6.170000e+001
      vertex   6.957795e+001 -4.552987e+002 6.862500e+001
      vertex   7.541916e+001 -4.552483e+002 6.170000e+001
    endloop
  endfacet
  facet normal 1.161378e-001 9.871885e-001 1.094113e-001
    outer loop
      vertex   6.541429e+001 -4.540413e+002 6.170000e+001
      vertex   5.957892e+001 -4.541223e+002 6.862500e+001
      vertex   6.957795e+001 -4.552987e+002 6.862500e+001
    endloop
  endfacet
  facet normal 8.709441e-002 9.928706e-001 8.137943e-002
    outer loop
      vertex   2.400988e+001 -4.553584e+002 1.185000e+002
      vertex   2.750563e+001 -4.556651e+002 1.185000e+002
      vertex   2.419676e+001 -4.553584e+002 1.183000e+002
    endloop
  endfacet
  facet normal 8.713374e-002 9.929147e-001 8.079654e-002
    outer loop
      vertex   2.419676e+001 -4.553584e+002 1.183000e+002
      vertex   2.750563e+001 -4.556651e+002 1.185000e+002
      vertex   3.351596e+001 -4.556127e+002 1.113750e+002
    endloop
  endfacet
  facet normal 6.433039e-002 9.960266e-001 6.158352e-002
    outer loop
      vertex   3.351596e+001 -4.556127e+002 1.113750e+002
      vertex   2.750563e+001 -4.556651e+002 1.185000e+002
      vertex   3.748621e+001 -4.563097e+002 1.185000e+002
    endloop
  endfacet
  facet normal 6.595147e-002 9.959764e-001 6.067529e-002
    outer loop
      vertex   4.350523e+001 -4.562742e+002 1.113750e+002
      vertex   3.351596e+001 -4.556127e+002 1.113750e+002
      vertex   3.748621e+001 -4.563097e+002 1.185000e+002
    endloop
  endfacet
  facet normal 6.594220e-002 9.958363e-001 6.294177e-002
    outer loop
      vertex   4.350523e+001 -4.562742e+002 1.113750e+002
      vertex   3.952629e+001 -4.555604e+002 1.042500e+002
      vertex   3.351596e+001 -4.556127e+002 1.113750e+002
    endloop
  endfacet
  facet normal 6.755998e-002 9.957849e-001 6.203317e-002
    outer loop
      vertex   4.350523e+001 -4.562742e+002 1.113750e+002
      vertex   4.952425e+001 -4.562387e+002 1.042500e+002
      vertex   3.952629e+001 -4.555604e+002 1.042500e+002
    endloop
  endfacet
  facet normal 6.755028e-002 9.956419e-001 6.429685e-002
    outer loop
      vertex   3.952629e+001 -4.555604e+002 1.042500e+002
      vertex   4.952425e+001 -4.562387e+002 1.042500e+002
      vertex   4.553662e+001 -4.555081e+002 9.712500e+001
    endloop
  endfacet
  facet normal 6.916477e-002 9.955894e-001 6.338788e-002
    outer loop
      vertex   4.553662e+001 -4.555081e+002 9.712500e+001
      vertex   4.952425e+001 -4.562387e+002 1.042500e+002
      vertex   5.554327e+001 -4.562032e+002 9.712500e+001
    endloop
  endfacet
  facet normal 7.076584e-002 9.953899e-001 6.473943e-002
    outer loop
      vertex   5.154695e+001 -4.554557e+002 9.000000e+001
      vertex   5.554327e+001 -4.562032e+002 9.712500e+001
      vertex   6.156229e+001 -4.561677e+002 9.000000e+001
    endloop
  endfacet
  facet normal 7.236317e-002 9.951864e-001 6.608780e-002
    outer loop
      vertex   5.755728e+001 -4.554034e+002 8.287500e+001
      vertex   6.156229e+001 -4.561677e+002 9.000000e+001
      vertex   6.758131e+001 -4.561323e+002 8.287500e+001
    endloop
  endfacet
  facet normal 7.395676e-002 9.949790e-001 6.743299e-002
    outer loop
      vertex   6.356761e+001 -4.553510e+002 7.575000e+001
      vertex   6.758131e+001 -4.561323e+002 8.287500e+001
      vertex   7.360034e+001 -4.560968e+002 7.575000e+001
    endloop
  endfacet
  facet normal 7.554659e-002 9.947677e-001 6.877499e-002
    outer loop
      vertex   6.957795e+001 -4.552987e+002 6.862500e+001
      vertex   7.360034e+001 -4.560968e+002 7.575000e+001
      vertex   7.961936e+001 -4.560613e+002 6.862500e+001
    endloop
  endfacet
  facet normal 9.161667e-002 9.939176e-001 6.110878e-002
    outer loop
      vertex   7.541916e+001 -4.552483e+002 6.170000e+001
      vertex   7.961936e+001 -4.560613e+002 6.862500e+001
      vertex   7.661366e+001 -4.553584e+002 6.170000e+001
    endloop
  endfacet
  facet normal 7.553508e-002 9.946162e-001 7.094470e-002
    outer loop
      vertex   7.541916e+001 -4.552483e+002 6.170000e+001
      vertex   6.957795e+001 -4.552987e+002 6.862500e+001
      vertex   7.961936e+001 -4.560613e+002 6.862500e+001
    endloop
  endfacet
  facet normal 7.509840e-002 9.948277e-001 6.839667e-002
    outer loop
      vertex   8.563838e+001 -4.560258e+002 6.150000e+001
      vertex   7.679821e+001 -4.553584e+002 6.150000e+001
      vertex   7.961936e+001 -4.560613e+002 6.862500e+001
    endloop
  endfacet
  facet normal 7.441841e-002 9.948600e-001 6.866910e-002
    outer loop
      vertex   7.961936e+001 -4.560613e+002 6.862500e+001
      vertex   7.679821e+001 -4.553584e+002 6.150000e+001
      vertex   7.661366e+001 -4.553584e+002 6.170000e+001
    endloop
  endfacet
  facet normal 1.132197e-001 9.877960e-001 1.069594e-001
    outer loop
      vertex   5.957892e+001 -4.541223e+002 6.862500e+001
      vertex   5.357501e+001 -4.542057e+002 7.575000e+001
      vertex   6.356761e+001 -4.553510e+002 7.575000e+001
    endloop
  endfacet
  facet normal 1.102926e-001 9.883903e-001 1.044998e-001
    outer loop
      vertex   5.357501e+001 -4.542057e+002 7.575000e+001
      vertex   4.757111e+001 -4.542890e+002 8.287500e+001
      vertex   5.755728e+001 -4.554034e+002 8.287500e+001
    endloop
  endfacet
  facet normal 1.073566e-001 9.889711e-001 1.020325e-001
    outer loop
      vertex   4.757111e+001 -4.542890e+002 8.287500e+001
      vertex   4.156720e+001 -4.543724e+002 9.000000e+001
      vertex   5.154695e+001 -4.554557e+002 9.000000e+001
    endloop
  endfacet
  facet normal 1.044118e-001 9.895385e-001 9.955767e-002
    outer loop
      vertex   4.156720e+001 -4.543724e+002 9.000000e+001
      vertex   3.556330e+001 -4.544557e+002 9.712500e+001
      vertex   4.553662e+001 -4.555081e+002 9.712500e+001
    endloop
  endfacet
  facet normal 1.014583e-001 9.900922e-001 9.707536e-002
    outer loop
      vertex   3.556330e+001 -4.544557e+002 9.712500e+001
      vertex   2.955939e+001 -4.545391e+002 1.042500e+002
      vertex   3.952629e+001 -4.555604e+002 1.042500e+002
    endloop
  endfacet
  facet normal 9.849627e-002 9.906321e-001 9.458563e-002
    outer loop
      vertex   2.955939e+001 -4.545391e+002 1.042500e+002
      vertex   2.355549e+001 -4.546224e+002 1.113750e+002
      vertex   3.351596e+001 -4.556127e+002 1.113750e+002
    endloop
  endfacet
  facet normal 6.915464e-002 9.954436e-001 6.564876e-002
    outer loop
      vertex   4.553662e+001 -4.555081e+002 9.712500e+001
      vertex   5.554327e+001 -4.562032e+002 9.712500e+001
      vertex   5.154695e+001 -4.554557e+002 9.000000e+001
    endloop
  endfacet
  facet normal 7.075527e-002 9.952412e-001 6.699749e-002
    outer loop
      vertex   5.154695e+001 -4.554557e+002 9.000000e+001
      vertex   6.156229e+001 -4.561677e+002 9.000000e+001
      vertex   5.755728e+001 -4.554034e+002 8.287500e+001
    endloop
  endfacet
  facet normal 7.235215e-002 9.950349e-001 6.834303e-002
    outer loop
      vertex   5.755728e+001 -4.554034e+002 8.287500e+001
      vertex   6.758131e+001 -4.561323e+002 8.287500e+001
      vertex   6.356761e+001 -4.553510e+002 7.575000e+001
    endloop
  endfacet
  facet normal 7.394528e-002 9.948246e-001 6.968538e-002
    outer loop
      vertex   6.356761e+001 -4.553510e+002 7.575000e+001
      vertex   7.360034e+001 -4.560968e+002 7.575000e+001
      vertex   6.957795e+001 -4.552987e+002 6.862500e+001
    endloop
  endfacet
  facet normal -7.647046e-001 4.689160e-015 -6.443810e-001
    outer loop
      vertex   6.541429e+001 -4.590217e+002 6.170000e+001
      vertex   5.945197e+001 -4.589053e+002 6.877565e+001
      vertex   6.541429e+001 -4.573584e+002 6.170000e+001
    endloop
  endfacet
  facet normal -7.647046e-001 1.209246e-011 -6.443810e-001
    outer loop
      vertex   6.541429e+001 -4.573584e+002 6.170000e+001
      vertex   5.945197e+001 -4.589053e+002 6.877565e+001
      vertex   5.957892e+001 -4.541223e+002 6.862500e+001
    endloop
  endfacet
  facet normal -7.647046e-001 2.327052e-015 -6.443810e-001
    outer loop
      vertex   6.541429e+001 -4.553584e+002 6.170000e+001
      vertex   5.957892e+001 -4.541223e+002 6.862500e+001
      vertex   6.541429e+001 -4.540413e+002 6.170000e+001
    endloop
  endfacet
  facet normal -7.647046e-001 -0.000000e+000 -6.443810e-001
    outer loop
      vertex   6.541429e+001 -4.553584e+002 6.170000e+001
      vertex   6.541429e+001 -4.573584e+002 6.170000e+001
      vertex   5.957892e+001 -4.541223e+002 6.862500e+001
    endloop
  endfacet
  facet normal -7.647046e-001 0.000000e+000 -6.443810e-001
    outer loop
      vertex   6.541429e+001 -4.553584e+002 6.170000e+001
      vertex   6.558282e+001 -4.553584e+002 6.150000e+001
      vertex   6.541429e+001 -4.573584e+002 6.170000e+001
    endloop
  endfacet
  facet normal -7.647046e-001 3.395971e-015 -6.443810e-001
    outer loop
      vertex   6.541429e+001 -4.573584e+002 6.170000e+001
      vertex   6.558282e+001 -4.553584e+002 6.150000e+001
      vertex   6.558282e+001 -4.573584e+002 6.150000e+001
    endloop
  endfacet
  facet normal -7.647046e-001 3.395971e-015 -6.443810e-001
    outer loop
      vertex   6.558282e+001 -4.573584e+002 6.150000e+001
      vertex   6.558282e+001 -4.553584e+002 6.150000e+001
      vertex   6.684680e+001 -4.573584e+002 6.000000e+001
    endloop
  endfacet
  facet normal -7.647046e-001 3.625906e-015 -6.443810e-001
    outer loop
      vertex   6.684680e+001 -4.573584e+002 6.000000e+001
      vertex   6.558282e+001 -4.553584e+002 6.150000e+001
      vertex   6.811078e+001 -4.553584e+002 5.850000e+001
    endloop
  endfacet
  facet normal -7.647046e-001 0.000000e+000 -6.443810e-001
    outer loop
      vertex   6.811078e+001 -4.573584e+002 5.850000e+001
      vertex   6.811078e+001 -4.553584e+002 5.850000e+001
      vertex   6.827932e+001 -4.573584e+002 5.830000e+001
    endloop
  endfacet
  facet normal -7.647046e-001 0.000000e+000 -6.443810e-001
    outer loop
      vertex   6.811078e+001 -4.573584e+002 5.850000e+001
      vertex   6.684680e+001 -4.573584e+002 6.000000e+001
      vertex   6.811078e+001 -4.553584e+002 5.850000e+001
    endloop
  endfacet
  facet normal -7.647046e-001 1.200308e-011 -6.443810e-001
    outer loop
      vertex   5.945197e+001 -4.589053e+002 6.877565e+001
      vertex   5.348962e+001 -4.587889e+002 7.585134e+001
      vertex   5.957892e+001 -4.541223e+002 6.862500e+001
    endloop
  endfacet
  facet normal -7.647046e-001 4.051300e-011 -6.443810e-001
    outer loop
      vertex   5.957892e+001 -4.541223e+002 6.862500e+001
      vertex   5.348962e+001 -4.587889e+002 7.585134e+001
      vertex   5.357501e+001 -4.542057e+002 7.575000e+001
    endloop
  endfacet
  facet normal -7.647046e-001 4.009561e-011 -6.443810e-001
    outer loop
      vertex   5.357501e+001 -4.542057e+002 7.575000e+001
      vertex   5.348962e+001 -4.587889e+002 7.585134e+001
      vertex   4.752727e+001 -4.586725e+002 8.292702e+001
    endloop
  endfacet
  facet normal -7.647046e-001 7.088217e-011 -6.443810e-001
    outer loop
      vertex   4.757111e+001 -4.542890e+002 8.287500e+001
      vertex   4.752727e+001 -4.586725e+002 8.292702e+001
      vertex   4.156720e+001 -4.543724e+002 9.000000e+001
    endloop
  endfacet
  facet normal -7.647046e-001 7.099701e-011 -6.443810e-001
    outer loop
      vertex   4.757111e+001 -4.542890e+002 8.287500e+001
      vertex   5.357501e+001 -4.542057e+002 7.575000e+001
      vertex   4.752727e+001 -4.586725e+002 8.292702e+001
    endloop
  endfacet
  facet normal -7.647046e-001 8.788330e-011 -6.443810e-001
    outer loop
      vertex   4.752727e+001 -4.586725e+002 8.292702e+001
      vertex   4.156492e+001 -4.585561e+002 9.000270e+001
      vertex   4.156720e+001 -4.543724e+002 9.000000e+001
    endloop
  endfacet
  facet normal -7.647046e-001 8.788330e-011 -6.443810e-001
    outer loop
      vertex   4.156720e+001 -4.543724e+002 9.000000e+001
      vertex   4.156492e+001 -4.585561e+002 9.000270e+001
      vertex   3.560258e+001 -4.584397e+002 9.707839e+001
    endloop
  endfacet
  facet normal -7.647046e-001 7.788672e-011 -6.443810e-001
    outer loop
      vertex   3.556330e+001 -4.544557e+002 9.712500e+001
      vertex   3.560258e+001 -4.584397e+002 9.707839e+001
      vertex   2.964023e+001 -4.583233e+002 1.041541e+002
    endloop
  endfacet
  facet normal -7.647046e-001 4.901647e-011 -6.443810e-001
    outer loop
      vertex   2.955939e+001 -4.545391e+002 1.042500e+002
      vertex   2.964023e+001 -4.583233e+002 1.041541e+002
      vertex   2.355549e+001 -4.546224e+002 1.113750e+002
    endloop
  endfacet
  facet normal -7.647046e-001 4.901634e-011 -6.443810e-001
    outer loop
      vertex   2.955939e+001 -4.545391e+002 1.042500e+002
      vertex   3.556330e+001 -4.544557e+002 9.712500e+001
      vertex   2.964023e+001 -4.583233e+002 1.041541e+002
    endloop
  endfacet
  facet normal -7.647046e-001 1.603088e-011 -6.443810e-001
    outer loop
      vertex   2.964023e+001 -4.583233e+002 1.041541e+002
      vertex   2.367788e+001 -4.582069e+002 1.112298e+002
      vertex   2.355549e+001 -4.546224e+002 1.113750e+002
    endloop
  endfacet
  facet normal -7.647046e-001 1.619156e-011 -6.443810e-001
    outer loop
      vertex   2.355549e+001 -4.546224e+002 1.113750e+002
      vertex   2.367788e+001 -4.582069e+002 1.112298e+002
      vertex   1.772011e+001 -4.563584e+002 1.183000e+002
    endloop
  endfacet
  facet normal -7.647046e-001 1.572126e-014 -6.443810e-001
    outer loop
      vertex   1.772011e+001 -4.553584e+002 1.183000e+002
      vertex   1.772011e+001 -4.563584e+002 1.183000e+002
      vertex   1.755158e+001 -4.563584e+002 1.185000e+002
    endloop
  endfacet
  facet normal -7.647046e-001 5.093955e-015 -6.443810e-001
    outer loop
      vertex   1.755158e+001 -4.553584e+002 1.185000e+002
      vertex   1.755158e+001 -4.563584e+002 1.185000e+002
      vertex   1.628760e+001 -4.563584e+002 1.200000e+002
    endloop
  endfacet
  facet normal -7.647046e-001 -1.591861e-015 -6.443810e-001
    outer loop
      vertex   1.502362e+001 -4.553584e+002 1.215000e+002
      vertex   1.628760e+001 -4.563584e+002 1.200000e+002
      vertex   1.502362e+001 -4.563584e+002 1.215000e+002
    endloop
  endfacet
  facet normal -7.647046e-001 6.013697e-015 -6.443810e-001
    outer loop
      vertex   1.502362e+001 -4.553584e+002 1.215000e+002
      vertex   1.755158e+001 -4.553584e+002 1.185000e+002
      vertex   1.628760e+001 -4.563584e+002 1.200000e+002
    endloop
  endfacet
  facet normal -7.647046e-001 2.203940e-014 -6.443810e-001
    outer loop
      vertex   2.367788e+001 -4.582069e+002 1.112298e+002
      vertex   1.772011e+001 -4.580906e+002 1.183000e+002
      vertex   1.772011e+001 -4.563584e+002 1.183000e+002
    endloop
  endfacet
  facet normal -7.647046e-001 5.098930e-015 -6.443810e-001
    outer loop
      vertex   1.755158e+001 -4.553584e+002 1.185000e+002
      vertex   1.772011e+001 -4.553584e+002 1.183000e+002
      vertex   1.755158e+001 -4.563584e+002 1.185000e+002
    endloop
  endfacet
  facet normal -7.647046e-001 -4.491855e-014 -6.443810e-001
    outer loop
      vertex   1.772011e+001 -4.547034e+002 1.183000e+002
      vertex   2.355549e+001 -4.546224e+002 1.113750e+002
      vertex   1.772011e+001 -4.553584e+002 1.183000e+002
    endloop
  endfacet
  facet normal -7.647046e-001 1.593777e-014 -6.443810e-001
    outer loop
      vertex   1.772011e+001 -4.553584e+002 1.183000e+002
      vertex   2.355549e+001 -4.546224e+002 1.113750e+002
      vertex   1.772011e+001 -4.563584e+002 1.183000e+002
    endloop
  endfacet
  facet normal -7.647046e-001 7.795539e-011 -6.443810e-001
    outer loop
      vertex   3.556330e+001 -4.544557e+002 9.712500e+001
      vertex   4.156720e+001 -4.543724e+002 9.000000e+001
      vertex   3.560258e+001 -4.584397e+002 9.707839e+001
    endloop
  endfacet
  facet normal -7.647046e-001 -0.000000e+000 -6.443810e-001
    outer loop
      vertex   6.811078e+001 -4.553584e+002 5.850000e+001
      vertex   6.827932e+001 -4.553584e+002 5.830000e+001
      vertex   6.827932e+001 -4.573584e+002 5.830000e+001
    endloop
  endfacet
  facet normal -7.647046e-001 0.000000e+000 -6.443810e-001
    outer loop
      vertex   6.827932e+001 -4.573584e+002 5.830000e+001
      vertex   6.827932e+001 -4.553584e+002 5.830000e+001
      vertex   7.411469e+001 -4.540417e+002 5.137500e+001
    endloop
  endfacet
  facet normal -7.647046e-001 -4.280194e-011 -6.443810e-001
    outer loop
      vertex   7.424109e+001 -4.592792e+002 5.122500e+001
      vertex   7.411469e+001 -4.540417e+002 5.137500e+001
      vertex   8.011860e+001 -4.540357e+002 4.425000e+001
    endloop
  endfacet
  facet normal -7.647046e-001 -1.269154e-010 -6.443810e-001
    outer loop
      vertex   8.020286e+001 -4.595077e+002 4.415000e+001
      vertex   8.011860e+001 -4.540357e+002 4.425000e+001
      vertex   8.612250e+001 -4.540298e+002 3.712500e+001
    endloop
  endfacet
  facet normal -7.647046e-001 -2.036795e-010 -6.443810e-001
    outer loop
      vertex   8.616463e+001 -4.597362e+002 3.707500e+001
      vertex   8.612250e+001 -4.540298e+002 3.712500e+001
      vertex   9.212641e+001 -4.540238e+002 3.000000e+001
    endloop
  endfacet
  facet normal -7.647046e-001 -2.314818e-010 -6.443810e-001
    outer loop
      vertex   9.212641e+001 -4.599647e+002 3.000000e+001
      vertex   9.212641e+001 -4.540238e+002 3.000000e+001
      vertex   9.808818e+001 -4.601932e+002 2.292500e+001
    endloop
  endfacet
  facet normal -7.647046e-001 -2.314818e-010 -6.443810e-001
    outer loop
      vertex   9.212641e+001 -4.599647e+002 3.000000e+001
      vertex   8.616463e+001 -4.597362e+002 3.707500e+001
      vertex   9.212641e+001 -4.540238e+002 3.000000e+001
    endloop
  endfacet
  facet normal -7.647046e-001 -4.633866e-014 -6.443810e-001
    outer loop
      vertex   6.827932e+001 -4.553584e+002 5.830000e+001
      vertex   6.827932e+001 -4.540475e+002 5.830000e+001
      vertex   7.411469e+001 -4.540417e+002 5.137500e+001
    endloop
  endfacet
  facet normal -7.647046e-001 -1.882133e-010 -6.443810e-001
    outer loop
      vertex   9.212641e+001 -4.540238e+002 3.000000e+001
      vertex   9.813031e+001 -4.540179e+002 2.287500e+001
      vertex   9.808818e+001 -4.601932e+002 2.292500e+001
    endloop
  endfacet
  facet normal -7.647046e-001 -1.883944e-010 -6.443810e-001
    outer loop
      vertex   9.808818e+001 -4.601932e+002 2.292500e+001
      vertex   9.813031e+001 -4.540179e+002 2.287500e+001
      vertex   1.041342e+002 -4.540119e+002 1.575000e+001
    endloop
  endfacet
  facet normal -7.647046e-001 -1.083424e-010 -6.443810e-001
    outer loop
      vertex   1.040500e+002 -4.604217e+002 1.585000e+001
      vertex   1.041342e+002 -4.540119e+002 1.575000e+001
      vertex   1.101381e+002 -4.540060e+002 8.625000e+000
    endloop
  endfacet
  facet normal -7.647046e-001 -3.288188e-011 -6.443810e-001
    outer loop
      vertex   1.100117e+002 -4.606502e+002 8.775000e+000
      vertex   1.101381e+002 -4.540060e+002 8.625000e+000
      vertex   1.159735e+002 -4.573584e+002 1.700000e+000
    endloop
  endfacet
  facet normal -7.647046e-001 1.039683e-014 -6.443810e-001
    outer loop
      vertex   1.159735e+002 -4.608787e+002 1.700000e+000
      vertex   1.100117e+002 -4.606502e+002 8.775000e+000
      vertex   1.159735e+002 -4.573584e+002 1.700000e+000
    endloop
  endfacet
  facet normal -7.647046e-001 -4.262395e-014 -6.443810e-001
    outer loop
      vertex   1.159735e+002 -4.540002e+002 1.700000e+000
      vertex   1.159735e+002 -4.553584e+002 1.700000e+000
      vertex   1.101381e+002 -4.540060e+002 8.625000e+000
    endloop
  endfacet
  facet normal -7.647046e-001 -0.000000e+000 -6.443810e-001
    outer loop
      vertex   1.101381e+002 -4.540060e+002 8.625000e+000
      vertex   1.159735e+002 -4.553584e+002 1.700000e+000
      vertex   1.159735e+002 -4.573584e+002 1.700000e+000
    endloop
  endfacet
  facet normal -7.647046e-001 0.000000e+000 -6.443810e-001
    outer loop
      vertex   1.159735e+002 -4.573584e+002 1.700000e+000
      vertex   1.159735e+002 -4.553584e+002 1.700000e+000
      vertex   1.161420e+002 -4.553584e+002 1.500000e+000
    endloop
  endfacet
  facet normal -7.647046e-001 0.000000e+000 -6.443810e-001
    outer loop
      vertex   1.161420e+002 -4.573584e+002 1.500000e+000
      vertex   1.161420e+002 -4.553584e+002 1.500000e+000
      vertex   1.167740e+002 -4.573584e+002 7.500000e-001
    endloop
  endfacet
  facet normal -7.647046e-001 0.000000e+000 -6.443810e-001
    outer loop
      vertex   1.161420e+002 -4.573584e+002 1.500000e+000
      vertex   1.159735e+002 -4.573584e+002 1.700000e+000
      vertex   1.161420e+002 -4.553584e+002 1.500000e+000
    endloop
  endfacet
  facet normal -7.647046e-001 -1.105459e-015 -6.443810e-001
    outer loop
      vertex   1.161420e+002 -4.553584e+002 1.500000e+000
      vertex   1.174060e+002 -4.553584e+002 0.000000e+000
      vertex   1.167740e+002 -4.573584e+002 7.500000e-001
    endloop
  endfacet
  facet normal -7.647046e-001 -0.000000e+000 -6.443810e-001
    outer loop
      vertex   1.167740e+002 -4.573584e+002 7.500000e-001
      vertex   1.174060e+002 -4.553584e+002 0.000000e+000
      vertex   1.174060e+002 -4.573584e+002 0.000000e+000
    endloop
  endfacet
  facet normal -7.647046e-001 -3.220975e-011 -6.443810e-001
    outer loop
      vertex   1.100117e+002 -4.606502e+002 8.775000e+000
      vertex   1.040500e+002 -4.604217e+002 1.585000e+001
      vertex   1.101381e+002 -4.540060e+002 8.625000e+000
    endloop
  endfacet
  facet normal -7.647046e-001 -1.072529e-010 -6.443810e-001
    outer loop
      vertex   1.040500e+002 -4.604217e+002 1.585000e+001
      vertex   9.808818e+001 -4.601932e+002 2.292500e+001
      vertex   1.041342e+002 -4.540119e+002 1.575000e+001
    endloop
  endfacet
  facet normal -7.647046e-001 -2.033539e-010 -6.443810e-001
    outer loop
      vertex   8.616463e+001 -4.597362e+002 3.707500e+001
      vertex   8.020286e+001 -4.595077e+002 4.415000e+001
      vertex   8.612250e+001 -4.540298e+002 3.712500e+001
    endloop
  endfacet
  facet normal -7.647046e-001 -1.257766e-010 -6.443810e-001
    outer loop
      vertex   8.020286e+001 -4.595077e+002 4.415000e+001
      vertex   7.424109e+001 -4.592792e+002 5.122500e+001
      vertex   8.011860e+001 -4.540357e+002 4.425000e+001
    endloop
  endfacet
  facet normal -7.647046e-001 6.764079e-015 -6.443810e-001
    outer loop
      vertex   6.827932e+001 -4.590507e+002 5.830000e+001
      vertex   6.827932e+001 -4.573584e+002 5.830000e+001
      vertex   7.424109e+001 -4.592792e+002 5.122500e+001
    endloop
  endfacet
  facet normal -7.647046e-001 -4.160722e-011 -6.443810e-001
    outer loop
      vertex   7.424109e+001 -4.592792e+002 5.122500e+001
      vertex   6.827932e+001 -4.573584e+002 5.830000e+001
      vertex   7.411469e+001 -4.540417e+002 5.137500e+001
    endloop
  endfacet
  facet normal -0.000000e+000 0.000000e+000 1.000000e+000
    outer loop
      vertex   1.502362e+001 -4.553584e+002 1.215000e+002
      vertex   1.502362e+001 -4.563584e+002 1.215000e+002
      vertex   2.173833e+001 -4.553584e+002 1.215000e+002
    endloop
  endfacet
  facet normal -0.000000e+000 0.000000e+000 1.000000e+000
    outer loop
      vertex   2.173833e+001 -4.553584e+002 1.215000e+002
      vertex   1.502362e+001 -4.563584e+002 1.215000e+002
      vertex   2.499093e+001 -4.563584e+002 1.215000e+002
    endloop
  endfacet
  facet normal -0.000000e+000 0.000000e+000 1.000000e+000
    outer loop
      vertex   3.495823e+001 -4.562933e+002 1.215000e+002
      vertex   2.499093e+001 -4.563584e+002 1.215000e+002
      vertex   3.495823e+001 -4.563584e+002 1.215000e+002
    endloop
  endfacet
  facet normal 0.000000e+000 0.000000e+000 1.000000e+000
    outer loop
      vertex   3.495823e+001 -4.562933e+002 1.215000e+002
      vertex   2.173833e+001 -4.553584e+002 1.215000e+002
      vertex   2.499093e+001 -4.563584e+002 1.215000e+002
    endloop
  endfacet
  facet normal 0.000000e+000 -1.000000e+000 4.803269e-011
    outer loop
      vertex   2.499093e+001 -4.563584e+002 1.215000e+002
      vertex   1.502362e+001 -4.563584e+002 1.215000e+002
      vertex   2.625491e+001 -4.563584e+002 1.200000e+002
    endloop
  endfacet
  facet normal -1.425746e-014 -1.000000e+000 4.811541e-011
    outer loop
      vertex   3.622222e+001 -4.563584e+002 1.200000e+002
      vertex   2.625491e+001 -4.563584e+002 1.200000e+002
      vertex   3.748621e+001 -4.563584e+002 1.185000e+002
    endloop
  endfacet
  facet normal -1.425746e-014 -1.000000e+000 4.802067e-011
    outer loop
      vertex   3.622222e+001 -4.563584e+002 1.200000e+002
      vertex   2.499093e+001 -4.563584e+002 1.215000e+002
      vertex   2.625491e+001 -4.563584e+002 1.200000e+002
    endloop
  endfacet
  facet normal 0.000000e+000 -1.000000e+000 4.812743e-011
    outer loop
      vertex   3.622222e+001 -4.563584e+002 1.200000e+002
      vertex   3.495823e+001 -4.563584e+002 1.215000e+002
      vertex   2.499093e+001 -4.563584e+002 1.215000e+002
    endloop
  endfacet
  facet normal 0.000000e+000 -1.000000e+000 0.000000e+000
    outer loop
      vertex   1.755158e+001 -4.563584e+002 1.185000e+002
      vertex   2.751889e+001 -4.563584e+002 1.185000e+002
      vertex   1.628760e+001 -4.563584e+002 1.200000e+002
    endloop
  endfacet
  facet normal 7.257048e-012 -1.000000e+000 5.433736e-011
    outer loop
      vertex   1.628760e+001 -4.563584e+002 1.200000e+002
      vertex   2.751889e+001 -4.563584e+002 1.185000e+002
      vertex   2.625491e+001 -4.563584e+002 1.200000e+002
    endloop
  endfacet
  facet normal 7.257048e-012 -1.000000e+000 1.023700e-010
    outer loop
      vertex   1.502362e+001 -4.563584e+002 1.215000e+002
      vertex   1.628760e+001 -4.563584e+002 1.200000e+002
      vertex   2.625491e+001 -4.563584e+002 1.200000e+002
    endloop
  endfacet
  facet normal 0.000000e+000 -1.000000e+000 4.822217e-011
    outer loop
      vertex   2.751889e+001 -4.563584e+002 1.185000e+002
      vertex   3.748621e+001 -4.563584e+002 1.185000e+002
      vertex   2.625491e+001 -4.563584e+002 1.200000e+002
    endloop
  endfacet
  facet normal 7.578728e-002 -9.938925e-001 8.021226e-002
    outer loop
      vertex   6.541429e+001 -4.590217e+002 6.170000e+001
      vertex   7.516769e+001 -4.582780e+002 6.170000e+001
      vertex   5.945197e+001 -4.589053e+002 6.877565e+001
    endloop
  endfacet
  facet normal 7.250097e-002 -9.947049e-001 7.284101e-002
    outer loop
      vertex   5.945197e+001 -4.589053e+002 6.877565e+001
      vertex   7.516769e+001 -4.582780e+002 6.170000e+001
      vertex   6.923221e+001 -4.581924e+002 6.877565e+001
    endloop
  endfacet
  facet normal 6.920103e-002 -9.951383e-001 7.007806e-002
    outer loop
      vertex   5.348962e+001 -4.587889e+002 7.585134e+001
      vertex   6.923221e+001 -4.581924e+002 6.877565e+001
      vertex   6.329670e+001 -4.581069e+002 7.585134e+001
    endloop
  endfacet
  facet normal 6.591490e-002 -9.955513e-001 6.732644e-002
    outer loop
      vertex   4.752727e+001 -4.586725e+002 8.292702e+001
      vertex   6.329670e+001 -4.581069e+002 7.585134e+001
      vertex   5.736119e+001 -4.580214e+002 8.292702e+001
    endloop
  endfacet
  facet normal 6.264266e-002 -9.959440e-001 6.458624e-002
    outer loop
      vertex   4.156492e+001 -4.585561e+002 9.000270e+001
      vertex   5.736119e+001 -4.580214e+002 8.292702e+001
      vertex   5.142568e+001 -4.579359e+002 9.000270e+001
    endloop
  endfacet
  facet normal 5.938442e-002 -9.963168e-001 6.185754e-002
    outer loop
      vertex   3.560258e+001 -4.584397e+002 9.707839e+001
      vertex   5.142568e+001 -4.579359e+002 9.000270e+001
      vertex   4.549017e+001 -4.578503e+002 9.707839e+001
    endloop
  endfacet
  facet normal 5.614026e-002 -9.966698e-001 5.914041e-002
    outer loop
      vertex   2.964023e+001 -4.583233e+002 1.041541e+002
      vertex   4.549017e+001 -4.578503e+002 9.707839e+001
      vertex   3.955466e+001 -4.577648e+002 1.041541e+002
    endloop
  endfacet
  facet normal 5.291026e-002 -9.970033e-001 5.643492e-002
    outer loop
      vertex   2.367788e+001 -4.582069e+002 1.112298e+002
      vertex   3.955466e+001 -4.577648e+002 1.041541e+002
      vertex   3.361915e+001 -4.576793e+002 1.112298e+002
    endloop
  endfacet
  facet normal 4.969698e-002 -9.973173e-001 5.374322e-002
    outer loop
      vertex   1.772011e+001 -4.580906e+002 1.183000e+002
      vertex   3.361915e+001 -4.576793e+002 1.112298e+002
      vertex   2.768820e+001 -4.575938e+002 1.183000e+002
    endloop
  endfacet
  facet normal 5.289613e-002 -9.967369e-001 6.097099e-002
    outer loop
      vertex   1.772011e+001 -4.580906e+002 1.183000e+002
      vertex   2.367788e+001 -4.582069e+002 1.112298e+002
      vertex   3.361915e+001 -4.576793e+002 1.112298e+002
    endloop
  endfacet
  facet normal 7.587737e-002 -9.942419e-001 7.566774e-002
    outer loop
      vertex   7.516769e+001 -4.582780e+002 6.170000e+001
      vertex   8.492259e+001 -4.575335e+002 6.170000e+001
      vertex   6.923221e+001 -4.581924e+002 6.877565e+001
    endloop
  endfacet
  facet normal 7.330190e-002 -9.948572e-001 6.989930e-002
    outer loop
      vertex   6.923221e+001 -4.581924e+002 6.877565e+001
      vertex   8.492259e+001 -4.575335e+002 6.170000e+001
      vertex   7.901337e+001 -4.574718e+002 6.877565e+001
    endloop
  endfacet
  facet normal 7.071740e-002 -9.951934e-001 6.774379e-002
    outer loop
      vertex   6.329670e+001 -4.581069e+002 7.585134e+001
      vertex   7.901337e+001 -4.574718e+002 6.877565e+001
      vertex   7.318877e+001 -4.574109e+002 7.575000e+001
    endloop
  endfacet
  facet normal 7.071740e-002 -9.951934e-001 6.774379e-002
    outer loop
      vertex   7.310414e+001 -4.574100e+002 7.585134e+001
      vertex   6.329670e+001 -4.581069e+002 7.585134e+001
      vertex   7.318877e+001 -4.574109e+002 7.575000e+001
    endloop
  endfacet
  facet normal 7.069967e-002 -9.949438e-001 7.133285e-002
    outer loop
      vertex   7.310414e+001 -4.574100e+002 7.585134e+001
      vertex   5.736119e+001 -4.580214e+002 8.292702e+001
      vertex   6.329670e+001 -4.581069e+002 7.585134e+001
    endloop
  endfacet
  facet normal 6.814420e-002 -9.955166e-001 6.559761e-002
    outer loop
      vertex   7.310414e+001 -4.574100e+002 7.585134e+001
      vertex   6.719490e+001 -4.573483e+002 8.292702e+001
      vertex   5.736119e+001 -4.580214e+002 8.292702e+001
    endloop
  endfacet
  facet normal 6.812768e-002 -9.952753e-001 6.917932e-002
    outer loop
      vertex   5.736119e+001 -4.580214e+002 8.292702e+001
      vertex   6.719490e+001 -4.573483e+002 8.292702e+001
      vertex   5.142568e+001 -4.579359e+002 9.000270e+001
    endloop
  endfacet
  facet normal 6.558232e-002 -9.958271e-001 6.346077e-002
    outer loop
      vertex   5.142568e+001 -4.579359e+002 9.000270e+001
      vertex   6.719490e+001 -4.573483e+002 8.292702e+001
      vertex   6.128566e+001 -4.572865e+002 9.000270e+001
    endloop
  endfacet
  facet normal 6.303176e-002 -9.961251e-001 6.133328e-002
    outer loop
      vertex   4.549017e+001 -4.578503e+002 9.707839e+001
      vertex   6.128566e+001 -4.572865e+002 9.000270e+001
      vertex   5.537642e+001 -4.572248e+002 9.707839e+001
    endloop
  endfacet
  facet normal 6.049254e-002 -9.964107e-001 5.921514e-002
    outer loop
      vertex   3.955466e+001 -4.577648e+002 1.041541e+002
      vertex   5.537642e+001 -4.572248e+002 9.707839e+001
      vertex   4.946718e+001 -4.571630e+002 1.041541e+002
    endloop
  endfacet
  facet normal 5.796466e-002 -9.966840e-001 5.710638e-002
    outer loop
      vertex   3.361915e+001 -4.576793e+002 1.112298e+002
      vertex   4.946718e+001 -4.571630e+002 1.041541e+002
      vertex   4.938706e+001 -4.571622e+002 1.042500e+002
    endloop
  endfacet
  facet normal 5.796466e-002 -9.966840e-001 5.710638e-002
    outer loop
      vertex   4.355794e+001 -4.571013e+002 1.112298e+002
      vertex   3.361915e+001 -4.576793e+002 1.112298e+002
      vertex   4.938706e+001 -4.571622e+002 1.042500e+002
    endloop
  endfacet
  facet normal 5.795250e-002 -9.964748e-001 6.065826e-002
    outer loop
      vertex   4.355794e+001 -4.571013e+002 1.112298e+002
      vertex   2.768820e+001 -4.575938e+002 1.183000e+002
      vertex   3.361915e+001 -4.576793e+002 1.112298e+002
    endloop
  endfacet
  facet normal 5.545007e-002 -9.969450e-001 5.500860e-002
    outer loop
      vertex   4.355794e+001 -4.571013e+002 1.112298e+002
      vertex   3.765324e+001 -4.570396e+002 1.183000e+002
      vertex   2.768820e+001 -4.575938e+002 1.183000e+002
    endloop
  endfacet
  facet normal 5.612453e-002 -9.963906e-001 6.368554e-002
    outer loop
      vertex   2.367788e+001 -4.582069e+002 1.112298e+002
      vertex   2.964023e+001 -4.583233e+002 1.041541e+002
      vertex   3.955466e+001 -4.577648e+002 1.041541e+002
    endloop
  endfacet
  facet normal 5.936701e-002 -9.960246e-001 6.641163e-002
    outer loop
      vertex   2.964023e+001 -4.583233e+002 1.041541e+002
      vertex   3.560258e+001 -4.584397e+002 9.707839e+001
      vertex   4.549017e+001 -4.578503e+002 9.707839e+001
    endloop
  endfacet
  facet normal 6.262347e-002 -9.956388e-001 6.914917e-002
    outer loop
      vertex   3.560258e+001 -4.584397e+002 9.707839e+001
      vertex   4.156492e+001 -4.585561e+002 9.000270e+001
      vertex   5.142568e+001 -4.579359e+002 9.000270e+001
    endloop
  endfacet
  facet normal 6.589382e-002 -9.952330e-001 7.189809e-002
    outer loop
      vertex   4.156492e+001 -4.585561e+002 9.000270e+001
      vertex   4.752727e+001 -4.586725e+002 8.292702e+001
      vertex   5.736119e+001 -4.580214e+002 8.292702e+001
    endloop
  endfacet
  facet normal 6.917798e-002 -9.948068e-001 7.465831e-002
    outer loop
      vertex   4.752727e+001 -4.586725e+002 8.292702e+001
      vertex   5.348962e+001 -4.587889e+002 7.585134e+001
      vertex   6.329670e+001 -4.581069e+002 7.585134e+001
    endloop
  endfacet
  facet normal 7.247584e-002 -9.943600e-001 7.742973e-002
    outer loop
      vertex   5.348962e+001 -4.587889e+002 7.585134e+001
      vertex   5.945197e+001 -4.589053e+002 6.877565e+001
      vertex   6.923221e+001 -4.581924e+002 6.877565e+001
    endloop
  endfacet
  facet normal 7.328291e-002 -9.945994e-001 7.349567e-002
    outer loop
      vertex   6.923221e+001 -4.581924e+002 6.877565e+001
      vertex   7.901337e+001 -4.574718e+002 6.877565e+001
      vertex   6.329670e+001 -4.581069e+002 7.585134e+001
    endloop
  endfacet
  facet normal 6.556696e-002 -9.955939e-001 6.703509e-002
    outer loop
      vertex   5.142568e+001 -4.579359e+002 9.000270e+001
      vertex   6.128566e+001 -4.572865e+002 9.000270e+001
      vertex   4.549017e+001 -4.578503e+002 9.707839e+001
    endloop
  endfacet
  facet normal 6.301751e-002 -9.959000e-001 6.490016e-002
    outer loop
      vertex   4.549017e+001 -4.578503e+002 9.707839e+001
      vertex   5.537642e+001 -4.572248e+002 9.707839e+001
      vertex   3.955466e+001 -4.577648e+002 1.041541e+002
    endloop
  endfacet
  facet normal 6.047936e-002 -9.961936e-001 6.277455e-002
    outer loop
      vertex   3.955466e+001 -4.577648e+002 1.041541e+002
      vertex   4.946718e+001 -4.571630e+002 1.041541e+002
      vertex   3.361915e+001 -4.576793e+002 1.112298e+002
    endloop
  endfacet
  facet normal -0.000000e+000 -1.000000e+000 -1.332710e-007
    outer loop
      vertex   7.536836e+001 -4.573584e+002 6.150000e+001
      vertex   6.558282e+001 -4.573584e+002 6.150000e+001
      vertex   7.663234e+001 -4.573584e+002 6.000000e+001
    endloop
  endfacet
  facet normal 2.419253e-022 -1.000000e+000 -1.332710e-007
    outer loop
      vertex   8.641787e+001 -4.573584e+002 6.000000e+001
      vertex   7.663234e+001 -4.573584e+002 6.000000e+001
      vertex   8.768185e+001 -4.573584e+002 5.850000e+001
    endloop
  endfacet
  facet normal 2.423220e-022 -1.000000e+000 -1.332710e-007
    outer loop
      vertex   8.641787e+001 -4.573584e+002 6.000000e+001
      vertex   7.536836e+001 -4.573584e+002 6.150000e+001
      vertex   7.663234e+001 -4.573584e+002 6.000000e+001
    endloop
  endfacet
  facet normal -0.000000e+000 -1.000000e+000 -1.332710e-007
    outer loop
      vertex   8.641787e+001 -4.573584e+002 6.000000e+001
      vertex   8.515389e+001 -4.573584e+002 6.150000e+001
      vertex   7.536836e+001 -4.573584e+002 6.150000e+001
    endloop
  endfacet
  facet normal 0.000000e+000 -1.000000e+000 -1.332710e-007
    outer loop
      vertex   6.811078e+001 -4.573584e+002 5.850000e+001
      vertex   7.789632e+001 -4.573584e+002 5.850000e+001
      vertex   6.684680e+001 -4.573584e+002 6.000000e+001
    endloop
  endfacet
  facet normal -2.423221e-022 -1.000000e+000 -1.332710e-007
    outer loop
      vertex   6.684680e+001 -4.573584e+002 6.000000e+001
      vertex   7.789632e+001 -4.573584e+002 5.850000e+001
      vertex   7.663234e+001 -4.573584e+002 6.000000e+001
    endloop
  endfacet
  facet normal -2.419253e-022 -1.000000e+000 -1.332710e-007
    outer loop
      vertex   6.558282e+001 -4.573584e+002 6.150000e+001
      vertex   6.684680e+001 -4.573584e+002 6.000000e+001
      vertex   7.663234e+001 -4.573584e+002 6.000000e+001
    endloop
  endfacet
  facet normal 0.000000e+000 -1.000000e+000 -1.332710e-007
    outer loop
      vertex   7.789632e+001 -4.573584e+002 5.850000e+001
      vertex   8.768185e+001 -4.573584e+002 5.850000e+001
      vertex   7.663234e+001 -4.573584e+002 6.000000e+001
    endloop
  endfacet
  facet normal -0.000000e+000 -1.000000e+000 -0.000000e+000
    outer loop
      vertex   1.260103e+002 -4.573584e+002 1.500000e+000
      vertex   1.161420e+002 -4.573584e+002 1.500000e+000
      vertex   1.266422e+002 -4.573584e+002 7.500000e-001
    endloop
  endfacet
  facet normal 0.000000e+000 -1.000000e+000 -0.000000e+000
    outer loop
      vertex   1.365105e+002 -4.573584e+002 7.500000e-001
      vertex   1.266422e+002 -4.573584e+002 7.500000e-001
      vertex   1.371425e+002 -4.573584e+002 0.000000e+000
    endloop
  endfacet
  facet normal -0.000000e+000 -1.000000e+000 -0.000000e+000
    outer loop
      vertex   1.365105e+002 -4.573584e+002 7.500000e-001
      vertex   1.260103e+002 -4.573584e+002 1.500000e+000
      vertex   1.266422e+002 -4.573584e+002 7.500000e-001
    endloop
  endfacet
  facet normal 0.000000e+000 -1.000000e+000 0.000000e+000
    outer loop
      vertex   1.365105e+002 -4.573584e+002 7.500000e-001
      vertex   1.358785e+002 -4.573584e+002 1.500000e+000
      vertex   1.260103e+002 -4.573584e+002 1.500000e+000
    endloop
  endfacet
  facet normal 0.000000e+000 -1.000000e+000 0.000000e+000
    outer loop
      vertex   1.174060e+002 -4.573584e+002 0.000000e+000
      vertex   1.272742e+002 -4.573584e+002 0.000000e+000
      vertex   1.167740e+002 -4.573584e+002 7.500000e-001
    endloop
  endfacet
  facet normal 0.000000e+000 -1.000000e+000 0.000000e+000
    outer loop
      vertex   1.167740e+002 -4.573584e+002 7.500000e-001
      vertex   1.272742e+002 -4.573584e+002 0.000000e+000
      vertex   1.266422e+002 -4.573584e+002 7.500000e-001
    endloop
  endfacet
  facet normal 0.000000e+000 -1.000000e+000 0.000000e+000
    outer loop
      vertex   1.161420e+002 -4.573584e+002 1.500000e+000
      vertex   1.167740e+002 -4.573584e+002 7.500000e-001
      vertex   1.266422e+002 -4.573584e+002 7.500000e-001
    endloop
  endfacet
  facet normal 0.000000e+000 -1.000000e+000 0.000000e+000
    outer loop
      vertex   1.272742e+002 -4.573584e+002 0.000000e+000
      vertex   1.371425e+002 -4.573584e+002 0.000000e+000
      vertex   1.266422e+002 -4.573584e+002 7.500000e-001
    endloop
  endfacet
  facet normal -3.121376e-010 -3.558290e-009 -1.000000e+000
    outer loop
      vertex   2.400988e+001 -4.553584e+002 1.185000e+002
      vertex   2.401005e+001 -4.553584e+002 1.185000e+002
      vertex   2.750563e+001 -4.556651e+002 1.185000e+002
    endloop
  endfacet
  facet normal -2.162089e-014 -3.623217e-013 -1.000000e+000
    outer loop
      vertex   2.750563e+001 -4.556651e+002 1.185000e+002
      vertex   2.401005e+001 -4.553584e+002 1.185000e+002
      vertex   3.748621e+001 -4.563097e+002 1.185000e+002
    endloop
  endfacet
  facet normal 1.769223e-015 -1.639813e-016 -1.000000e+000
    outer loop
      vertex   3.748621e+001 -4.563097e+002 1.185000e+002
      vertex   2.750563e+001 -4.556651e+002 1.185000e+002
      vertex   3.748621e+001 -4.563097e+002 1.185000e+002
    endloop
  endfacet
  facet normal 7.647026e-001 0.000000e+000 6.443833e-001
    outer loop
      vertex   3.495823e+001 -4.563584e+002 1.215000e+002
      vertex   3.622222e+001 -4.563584e+002 1.200000e+002
      vertex   3.495823e+001 -4.562933e+002 1.215000e+002
    endloop
  endfacet
  facet normal 7.647029e-001 9.762277e-006 6.443831e-001
    outer loop
      vertex   3.495823e+001 -4.562933e+002 1.215000e+002
      vertex   3.622222e+001 -4.563584e+002 1.200000e+002
      vertex   3.748621e+001 -4.563097e+002 1.185000e+002
    endloop
  endfacet
  facet normal 7.625998e-001 -7.068194e-002 6.429974e-001
    outer loop
      vertex   3.748621e+001 -4.563097e+002 1.185000e+002
      vertex   3.495823e+001 -4.562933e+002 1.215000e+002
      vertex   3.748621e+001 -4.563097e+002 1.185000e+002
    endloop
  endfacet
  facet normal 7.647026e-001 2.280984e-005 6.443833e-001
    outer loop
      vertex   3.622222e+001 -4.563584e+002 1.200000e+002
      vertex   3.748621e+001 -4.563584e+002 1.185000e+002
      vertex   3.748621e+001 -4.563097e+002 1.185000e+002
    endloop
  endfacet
  facet normal 7.043957e-002 9.960889e-001 5.333967e-002
    outer loop
      vertex   2.173833e+001 -4.553584e+002 1.215000e+002
      vertex   3.495823e+001 -4.562933e+002 1.215000e+002
      vertex   2.401005e+001 -4.553584e+002 1.185000e+002
    endloop
  endfacet
  facet normal 7.031017e-002 9.960729e-001 5.380693e-002
    outer loop
      vertex   2.401005e+001 -4.553584e+002 1.185000e+002
      vertex   3.495823e+001 -4.562933e+002 1.215000e+002
      vertex   3.748621e+001 -4.563097e+002 1.185000e+002
    endloop
  endfacet
  facet normal 7.367634e-001 -2.678470e-001 6.208362e-001
    outer loop
      vertex   8.515389e+001 -4.573584e+002 6.150000e+001
      vertex   8.641787e+001 -4.573584e+002 6.000000e+001
      vertex   8.560167e+001 -4.561267e+002 6.150000e+001
    endloop
  endfacet
  facet normal 7.367634e-001 -2.678470e-001 6.208362e-001
    outer loop
      vertex   8.560167e+001 -4.561267e+002 6.150000e+001
      vertex   8.641787e+001 -4.573584e+002 6.000000e+001
      vertex   8.811127e+001 -4.561772e+002 5.850000e+001
    endloop
  endfacet
  facet normal 7.367634e-001 -2.678470e-001 6.208362e-001
    outer loop
      vertex   8.563838e+001 -4.560258e+002 6.150000e+001
      vertex   8.811127e+001 -4.561772e+002 5.850000e+001
      vertex   8.816837e+001 -4.560202e+002 5.850000e+001
    endloop
  endfacet
  facet normal 7.367634e-001 -2.678470e-001 6.208362e-001
    outer loop
      vertex   8.563838e+001 -4.560258e+002 6.150000e+001
      vertex   8.560167e+001 -4.561267e+002 6.150000e+001
      vertex   8.811127e+001 -4.561772e+002 5.850000e+001
    endloop
  endfacet
  facet normal 7.367634e-001 -2.678470e-001 6.208362e-001
    outer loop
      vertex   8.641787e+001 -4.573584e+002 6.000000e+001
      vertex   8.768185e+001 -4.573584e+002 5.850000e+001
      vertex   8.811127e+001 -4.561772e+002 5.850000e+001
    endloop
  endfacet
  facet normal 7.511867e-002 9.950961e-001 6.434972e-002
    outer loop
      vertex   7.679821e+001 -4.553584e+002 6.150000e+001
      vertex   8.563838e+001 -4.560258e+002 6.150000e+001
      vertex   7.936813e+001 -4.553584e+002 5.850000e+001
    endloop
  endfacet
  facet normal 7.482569e-002 9.950787e-001 6.495817e-002
    outer loop
      vertex   7.936813e+001 -4.553584e+002 5.850000e+001
      vertex   8.563838e+001 -4.560258e+002 6.150000e+001
      vertex   8.816837e+001 -4.560202e+002 5.850000e+001
    endloop
  endfacet
  facet normal -0.000000e+000 1.000000e+000 1.332710e-007
    outer loop
      vertex   6.558282e+001 -4.553584e+002 6.150000e+001
      vertex   7.679821e+001 -4.553584e+002 6.150000e+001
      vertex   6.811078e+001 -4.553584e+002 5.850000e+001
    endloop
  endfacet
  facet normal 0.000000e+000 1.000000e+000 1.332710e-007
    outer loop
      vertex   6.811078e+001 -4.553584e+002 5.850000e+001
      vertex   7.679821e+001 -4.553584e+002 6.150000e+001
      vertex   7.936813e+001 -4.553584e+002 5.850000e+001
    endloop
  endfacet
  facet normal 7.343648e-001 -2.661652e-001 6.243912e-001
    outer loop
      vertex   8.777862e+001 -4.575600e+002 5.830000e+001
      vertex   9.372977e+001 -4.577376e+002 5.122500e+001
      vertex   8.785169e+001 -4.573584e+002 5.830000e+001
    endloop
  endfacet
  facet normal 7.343648e-001 -2.661652e-001 6.243912e-001
    outer loop
      vertex   8.785169e+001 -4.573584e+002 5.830000e+001
      vertex   9.372977e+001 -4.577376e+002 5.122500e+001
      vertex   9.959682e+001 -4.579126e+002 4.425000e+001
    endloop
  endfacet
  facet normal 7.433352e-001 -2.224707e-001 6.308404e-001
    outer loop
      vertex   1.001603e+002 -4.560299e+002 4.425000e+001
      vertex   9.959682e+001 -4.579126e+002 4.425000e+001
      vertex   9.968093e+001 -4.579151e+002 4.415000e+001
    endloop
  endfacet
  facet normal 7.463931e-001 -2.054887e-001 6.329864e-001
    outer loop
      vertex   1.061562e+002 -4.560347e+002 3.712500e+001
      vertex   9.968093e+001 -4.579151e+002 4.415000e+001
      vertex   1.056321e+002 -4.580926e+002 3.707500e+001
    endloop
  endfacet
  facet normal 7.488156e-001 -1.910002e-001 6.346606e-001
    outer loop
      vertex   1.121522e+002 -4.560396e+002 3.000000e+001
      vertex   1.056321e+002 -4.580926e+002 3.707500e+001
      vertex   1.115832e+002 -4.582701e+002 3.000000e+001
    endloop
  endfacet
  facet normal 7.488156e-001 -1.910002e-001 6.346606e-001
    outer loop
      vertex   1.175344e+002 -4.584476e+002 2.292500e+001
      vertex   1.121522e+002 -4.560396e+002 3.000000e+001
      vertex   1.115832e+002 -4.582701e+002 3.000000e+001
    endloop
  endfacet
  facet normal 7.527014e-001 -1.790459e-001 6.335481e-001
    outer loop
      vertex   1.175344e+002 -4.584476e+002 2.292500e+001
      vertex   1.181481e+002 -4.560444e+002 2.287500e+001
      vertex   1.121522e+002 -4.560396e+002 3.000000e+001
    endloop
  endfacet
  facet normal 7.507688e-001 -1.785016e-001 6.359900e-001
    outer loop
      vertex   1.175344e+002 -4.584476e+002 2.292500e+001
      vertex   1.234856e+002 -4.586251e+002 1.585000e+001
      vertex   1.181481e+002 -4.560444e+002 2.287500e+001
    endloop
  endfacet
  facet normal 7.541728e-001 -1.681643e-001 6.347789e-001
    outer loop
      vertex   1.181481e+002 -4.560444e+002 2.287500e+001
      vertex   1.234856e+002 -4.586251e+002 1.585000e+001
      vertex   1.241441e+002 -4.560493e+002 1.575000e+001
    endloop
  endfacet
  facet normal 7.523679e-001 -1.676143e-001 6.370620e-001
    outer loop
      vertex   1.241441e+002 -4.560493e+002 1.575000e+001
      vertex   1.234856e+002 -4.586251e+002 1.585000e+001
      vertex   1.235697e+002 -4.586276e+002 1.575000e+001
    endloop
  endfacet
  facet normal 7.547797e-001 -1.498054e-001 6.386438e-001
    outer loop
      vertex   1.357097e+002 -4.573584e+002 1.700000e+000
      vertex   1.235697e+002 -4.586276e+002 1.575000e+001
      vertex   1.294367e+002 -4.588026e+002 8.775000e+000
    endloop
  endfacet
  facet normal 7.547797e-001 -1.498054e-001 6.386438e-001
    outer loop
      vertex   1.353879e+002 -4.589801e+002 1.700000e+000
      vertex   1.357097e+002 -4.573584e+002 1.700000e+000
      vertex   1.294367e+002 -4.588026e+002 8.775000e+000
    endloop
  endfacet
  facet normal 7.557083e-001 -1.497593e-001 6.375556e-001
    outer loop
      vertex   1.358785e+002 -4.573584e+002 1.500000e+000
      vertex   1.360082e+002 -4.567039e+002 1.500000e+000
      vertex   1.357097e+002 -4.573584e+002 1.700000e+000
    endloop
  endfacet
  facet normal 7.563685e-001 -1.503416e-001 6.366350e-001
    outer loop
      vertex   1.357097e+002 -4.573584e+002 1.700000e+000
      vertex   1.360082e+002 -4.567039e+002 1.500000e+000
      vertex   1.241441e+002 -4.560493e+002 1.575000e+001
    endloop
  endfacet
  facet normal 7.533800e-001 -1.678397e-001 6.358053e-001
    outer loop
      vertex   1.235697e+002 -4.586276e+002 1.575000e+001
      vertex   1.357097e+002 -4.573584e+002 1.700000e+000
      vertex   1.241441e+002 -4.560493e+002 1.575000e+001
    endloop
  endfacet
  facet normal 7.564298e-001 -1.499022e-001 6.366658e-001
    outer loop
      vertex   1.361360e+002 -4.560590e+002 1.500000e+000
      vertex   1.301400e+002 -4.560542e+002 8.625000e+000
      vertex   1.360082e+002 -4.567039e+002 1.500000e+000
    endloop
  endfacet
  facet normal 7.564298e-001 -1.499022e-001 6.366658e-001
    outer loop
      vertex   1.360082e+002 -4.567039e+002 1.500000e+000
      vertex   1.301400e+002 -4.560542e+002 8.625000e+000
      vertex   1.241441e+002 -4.560493e+002 1.575000e+001
    endloop
  endfacet
  facet normal 7.486468e-001 -2.059939e-001 6.301543e-001
    outer loop
      vertex   1.121522e+002 -4.560396e+002 3.000000e+001
      vertex   1.061562e+002 -4.560347e+002 3.712500e+001
      vertex   1.056321e+002 -4.580926e+002 3.707500e+001
    endloop
  endfacet
  facet normal 7.457952e-001 -2.229332e-001 6.277661e-001
    outer loop
      vertex   1.061562e+002 -4.560347e+002 3.712500e+001
      vertex   1.001603e+002 -4.560299e+002 4.425000e+001
      vertex   9.968093e+001 -4.579151e+002 4.415000e+001
    endloop
  endfacet
  facet normal 7.370562e-001 -2.679535e-001 6.204426e-001
    outer loop
      vertex   9.416432e+001 -4.560250e+002 5.137500e+001
      vertex   8.811127e+001 -4.561772e+002 5.850000e+001
      vertex   1.001603e+002 -4.560299e+002 4.425000e+001
    endloop
  endfacet
  facet normal 7.370562e-001 -2.679535e-001 6.204426e-001
    outer loop
      vertex   9.416432e+001 -4.560250e+002 5.137500e+001
      vertex   8.816837e+001 -4.560202e+002 5.850000e+001
      vertex   8.811127e+001 -4.561772e+002 5.850000e+001
    endloop
  endfacet
  facet normal 7.345712e-001 -2.670500e-001 6.237704e-001
    outer loop
      vertex   8.768185e+001 -4.573584e+002 5.850000e+001
      vertex   8.785169e+001 -4.573584e+002 5.830000e+001
      vertex   8.811127e+001 -4.561772e+002 5.850000e+001
    endloop
  endfacet
  facet normal 7.372332e-001 -2.670984e-001 6.206011e-001
    outer loop
      vertex   8.811127e+001 -4.561772e+002 5.850000e+001
      vertex   8.785169e+001 -4.573584e+002 5.830000e+001
      vertex   1.001603e+002 -4.560299e+002 4.425000e+001
    endloop
  endfacet
  facet normal 7.436511e-001 -2.225653e-001 6.304346e-001
    outer loop
      vertex   1.001603e+002 -4.560299e+002 4.425000e+001
      vertex   8.785169e+001 -4.573584e+002 5.830000e+001
      vertex   9.959682e+001 -4.579126e+002 4.425000e+001
    endloop
  endfacet
  facet normal 9.322318e-002 9.925005e-001 7.907097e-002
    outer loop
      vertex   1.259436e+002 -4.552022e+002 1.700000e+000
      vertex   1.201129e+002 -4.552062e+002 8.625000e+000
      vertex   1.276073e+002 -4.553584e+002 1.700000e+000
    endloop
  endfacet
  facet normal 1.190841e-001 9.877498e-001 1.008425e-001
    outer loop
      vertex   1.259436e+002 -4.552022e+002 1.700000e+000
      vertex   1.159735e+002 -4.540002e+002 1.700000e+000
      vertex   1.201129e+002 -4.552062e+002 8.625000e+000
    endloop
  endfacet
  facet normal 1.188567e-001 9.877631e-001 1.009808e-001
    outer loop
      vertex   1.201129e+002 -4.552062e+002 8.625000e+000
      vertex   1.159735e+002 -4.540002e+002 1.700000e+000
      vertex   1.101381e+002 -4.540060e+002 8.625000e+000
    endloop
  endfacet
  facet normal 1.187452e-001 9.877861e-001 1.008869e-001
    outer loop
      vertex   1.141136e+002 -4.552116e+002 1.575000e+001
      vertex   1.101381e+002 -4.540060e+002 8.625000e+000
      vertex   1.041342e+002 -4.540119e+002 1.575000e+001
    endloop
  endfacet
  facet normal 1.186338e-001 9.878091e-001 1.007931e-001
    outer loop
      vertex   1.081143e+002 -4.552169e+002 2.287500e+001
      vertex   1.041342e+002 -4.540119e+002 1.575000e+001
      vertex   9.813031e+001 -4.540179e+002 2.287500e+001
    endloop
  endfacet
  facet normal 1.185225e-001 9.878320e-001 1.006993e-001
    outer loop
      vertex   1.021150e+002 -4.552223e+002 3.000000e+001
      vertex   9.813031e+001 -4.540179e+002 2.287500e+001
      vertex   9.212641e+001 -4.540238e+002 3.000000e+001
    endloop
  endfacet
  facet normal 1.184113e-001 9.878549e-001 1.006056e-001
    outer loop
      vertex   9.611565e+001 -4.552276e+002 3.712500e+001
      vertex   9.212641e+001 -4.540238e+002 3.000000e+001
      vertex   8.612250e+001 -4.540298e+002 3.712500e+001
    endloop
  endfacet
  facet normal 1.183002e-001 9.878777e-001 1.005120e-001
    outer loop
      vertex   9.011634e+001 -4.552330e+002 4.425000e+001
      vertex   8.612250e+001 -4.540298e+002 3.712500e+001
      vertex   8.011860e+001 -4.540357e+002 4.425000e+001
    endloop
  endfacet
  facet normal 1.181892e-001 9.879005e-001 1.004185e-001
    outer loop
      vertex   8.411703e+001 -4.552384e+002 5.137500e+001
      vertex   8.011860e+001 -4.540357e+002 4.425000e+001
      vertex   7.411469e+001 -4.540417e+002 5.137500e+001
    endloop
  endfacet
  facet normal 1.181008e-001 9.879187e-001 1.003440e-001
    outer loop
      vertex   7.828577e+001 -4.552437e+002 5.830000e+001
      vertex   7.411469e+001 -4.540417e+002 5.137500e+001
      vertex   6.827932e+001 -4.540475e+002 5.830000e+001
    endloop
  endfacet
  facet normal 1.181908e-001 9.879135e-001 1.002890e-001
    outer loop
      vertex   7.828577e+001 -4.552437e+002 5.830000e+001
      vertex   8.411703e+001 -4.552384e+002 5.137500e+001
      vertex   7.411469e+001 -4.540417e+002 5.137500e+001
    endloop
  endfacet
  facet normal 9.095967e-002 9.928451e-001 7.736259e-002
    outer loop
      vertex   7.828577e+001 -4.552437e+002 5.830000e+001
      vertex   7.953805e+001 -4.553584e+002 5.830000e+001
      vertex   8.411703e+001 -4.552384e+002 5.137500e+001
    endloop
  endfacet
  facet normal 7.787477e-002 9.945905e-001 6.874079e-002
    outer loop
      vertex   8.411703e+001 -4.552384e+002 5.137500e+001
      vertex   7.953805e+001 -4.553584e+002 5.830000e+001
      vertex   9.416432e+001 -4.560250e+002 5.137500e+001
    endloop
  endfacet
  facet normal 7.892126e-002 9.947110e-001 6.573768e-002
    outer loop
      vertex   9.011634e+001 -4.552330e+002 4.425000e+001
      vertex   9.416432e+001 -4.560250e+002 5.137500e+001
      vertex   1.001603e+002 -4.560299e+002 4.425000e+001
    endloop
  endfacet
  facet normal 7.994780e-002 9.945716e-001 6.660165e-002
    outer loop
      vertex   9.611565e+001 -4.552276e+002 3.712500e+001
      vertex   1.001603e+002 -4.560299e+002 4.425000e+001
      vertex   1.061562e+002 -4.560347e+002 3.712500e+001
    endloop
  endfacet
  facet normal 8.097458e-002 9.944302e-001 6.746582e-002
    outer loop
      vertex   1.021150e+002 -4.552223e+002 3.000000e+001
      vertex   1.061562e+002 -4.560347e+002 3.712500e+001
      vertex   1.121522e+002 -4.560396e+002 3.000000e+001
    endloop
  endfacet
  facet normal 8.200162e-002 9.942870e-001 6.833021e-002
    outer loop
      vertex   1.081143e+002 -4.552169e+002 2.287500e+001
      vertex   1.121522e+002 -4.560396e+002 3.000000e+001
      vertex   1.181481e+002 -4.560444e+002 2.287500e+001
    endloop
  endfacet
  facet normal 8.302889e-002 9.941420e-001 6.919480e-002
    outer loop
      vertex   1.141136e+002 -4.552116e+002 1.575000e+001
      vertex   1.181481e+002 -4.560444e+002 2.287500e+001
      vertex   1.241441e+002 -4.560493e+002 1.575000e+001
    endloop
  endfacet
  facet normal 8.405640e-002 9.939951e-001 7.005958e-002
    outer loop
      vertex   1.201129e+002 -4.552062e+002 8.625000e+000
      vertex   1.241441e+002 -4.560493e+002 1.575000e+001
      vertex   1.301400e+002 -4.560542e+002 8.625000e+000
    endloop
  endfacet
  facet normal 8.328538e-002 9.941055e-001 6.941067e-002
    outer loop
      vertex   1.276073e+002 -4.553584e+002 1.700000e+000
      vertex   1.301400e+002 -4.560542e+002 8.625000e+000
      vertex   1.361360e+002 -4.560590e+002 1.500000e+000
    endloop
  endfacet
  facet normal 8.330842e-002 9.940110e-001 7.072398e-002
    outer loop
      vertex   1.277771e+002 -4.553584e+002 1.500000e+000
      vertex   1.276073e+002 -4.553584e+002 1.700000e+000
      vertex   1.361360e+002 -4.560590e+002 1.500000e+000
    endloop
  endfacet
  facet normal 7.483236e-002 9.951673e-001 6.357780e-002
    outer loop
      vertex   7.936813e+001 -4.553584e+002 5.850000e+001
      vertex   8.816837e+001 -4.560202e+002 5.850000e+001
      vertex   7.953805e+001 -4.553584e+002 5.830000e+001
    endloop
  endfacet
  facet normal 7.486725e-002 9.952439e-001 6.232572e-002
    outer loop
      vertex   7.953805e+001 -4.553584e+002 5.830000e+001
      vertex   8.816837e+001 -4.560202e+002 5.850000e+001
      vertex   9.416432e+001 -4.560250e+002 5.137500e+001
    endloop
  endfacet
  facet normal 8.406191e-002 9.940602e-001 6.912212e-002
    outer loop
      vertex   1.201129e+002 -4.552062e+002 8.625000e+000
      vertex   1.301400e+002 -4.560542e+002 8.625000e+000
      vertex   1.276073e+002 -4.553584e+002 1.700000e+000
    endloop
  endfacet
  facet normal 8.302040e-002 9.940403e-001 7.065108e-002
    outer loop
      vertex   1.241441e+002 -4.560493e+002 1.575000e+001
      vertex   1.201129e+002 -4.552062e+002 8.625000e+000
      vertex   1.141136e+002 -4.552116e+002 1.575000e+001
    endloop
  endfacet
  facet normal 1.188586e-001 9.877791e-001 1.008224e-001
    outer loop
      vertex   1.141136e+002 -4.552116e+002 1.575000e+001
      vertex   1.201129e+002 -4.552062e+002 8.625000e+000
      vertex   1.101381e+002 -4.540060e+002 8.625000e+000
    endloop
  endfacet
  facet normal 8.199333e-002 9.941866e-001 6.978640e-002
    outer loop
      vertex   1.181481e+002 -4.560444e+002 2.287500e+001
      vertex   1.141136e+002 -4.552116e+002 1.575000e+001
      vertex   1.081143e+002 -4.552169e+002 2.287500e+001
    endloop
  endfacet
  facet normal 1.187471e-001 9.878020e-001 1.007286e-001
    outer loop
      vertex   1.081143e+002 -4.552169e+002 2.287500e+001
      vertex   1.141136e+002 -4.552116e+002 1.575000e+001
      vertex   1.041342e+002 -4.540119e+002 1.575000e+001
    endloop
  endfacet
  facet normal 8.096651e-002 9.943310e-001 6.892191e-002
    outer loop
      vertex   1.121522e+002 -4.560396e+002 3.000000e+001
      vertex   1.081143e+002 -4.552169e+002 2.287500e+001
      vertex   1.021150e+002 -4.552223e+002 3.000000e+001
    endloop
  endfacet
  facet normal 1.186357e-001 9.878250e-001 1.006348e-001
    outer loop
      vertex   1.021150e+002 -4.552223e+002 3.000000e+001
      vertex   1.081143e+002 -4.552169e+002 2.287500e+001
      vertex   9.813031e+001 -4.540179e+002 2.287500e+001
    endloop
  endfacet
  facet normal 7.993992e-002 9.944736e-001 6.805763e-002
    outer loop
      vertex   1.061562e+002 -4.560347e+002 3.712500e+001
      vertex   1.021150e+002 -4.552223e+002 3.000000e+001
      vertex   9.611565e+001 -4.552276e+002 3.712500e+001
    endloop
  endfacet
  facet normal 1.185244e-001 9.878479e-001 1.005411e-001
    outer loop
      vertex   9.611565e+001 -4.552276e+002 3.712500e+001
      vertex   1.021150e+002 -4.552223e+002 3.000000e+001
      vertex   9.212641e+001 -4.540238e+002 3.000000e+001
    endloop
  endfacet
  facet normal 7.891359e-002 9.946143e-001 6.719355e-002
    outer loop
      vertex   1.001603e+002 -4.560299e+002 4.425000e+001
      vertex   9.611565e+001 -4.552276e+002 3.712500e+001
      vertex   9.011634e+001 -4.552330e+002 4.425000e+001
    endloop
  endfacet
  facet normal 1.184132e-001 9.878707e-001 1.004475e-001
    outer loop
      vertex   9.011634e+001 -4.552330e+002 4.425000e+001
      vertex   9.611565e+001 -4.552276e+002 3.712500e+001
      vertex   8.612250e+001 -4.540298e+002 3.712500e+001
    endloop
  endfacet
  facet normal 7.788751e-002 9.947532e-001 6.632969e-002
    outer loop
      vertex   9.416432e+001 -4.560250e+002 5.137500e+001
      vertex   9.011634e+001 -4.552330e+002 4.425000e+001
      vertex   8.411703e+001 -4.552384e+002 5.137500e+001
    endloop
  endfacet
  facet normal 1.183021e-001 9.878936e-001 1.003540e-001
    outer loop
      vertex   8.411703e+001 -4.552384e+002 5.137500e+001
      vertex   9.011634e+001 -4.552330e+002 4.425000e+001
      vertex   8.011860e+001 -4.540357e+002 4.425000e+001
    endloop
  endfacet
  facet normal 0.000000e+000 0.000000e+000 -1.000000e+000
    outer loop
      vertex   1.174060e+002 -4.573584e+002 0.000000e+000
      vertex   1.174060e+002 -4.553584e+002 0.000000e+000
      vertex   1.272742e+002 -4.573584e+002 0.000000e+000
    endloop
  endfacet
  facet normal 0.000000e+000 0.000000e+000 -1.000000e+000
    outer loop
      vertex   1.272742e+002 -4.573584e+002 0.000000e+000
      vertex   1.174060e+002 -4.553584e+002 0.000000e+000
      vertex   1.290573e+002 -4.553584e+002 0.000000e+000
    endloop
  endfacet
  facet normal -0.000000e+000 0.000000e+000 -1.000000e+000
    outer loop
      vertex   1.374003e+002 -4.560571e+002 0.000000e+000
      vertex   1.272742e+002 -4.573584e+002 0.000000e+000
      vertex   1.290573e+002 -4.553584e+002 0.000000e+000
    endloop
  endfacet
  facet normal -0.000000e+000 0.000000e+000 -1.000000e+000
    outer loop
      vertex   1.374003e+002 -4.560571e+002 0.000000e+000
      vertex   1.371425e+002 -4.573584e+002 0.000000e+000
      vertex   1.272742e+002 -4.573584e+002 0.000000e+000
    endloop
  endfacet
  facet normal 7.560723e-001 -1.498314e-001 6.371069e-001
    outer loop
      vertex   1.358785e+002 -4.573584e+002 1.500000e+000
      vertex   1.365105e+002 -4.573584e+002 7.500000e-001
      vertex   1.360082e+002 -4.567039e+002 1.500000e+000
    endloop
  endfacet
  facet normal 7.560723e-001 -1.498314e-001 6.371069e-001
    outer loop
      vertex   1.360082e+002 -4.567039e+002 1.500000e+000
      vertex   1.365105e+002 -4.573584e+002 7.500000e-001
      vertex   1.374003e+002 -4.560571e+002 0.000000e+000
    endloop
  endfacet
  facet normal 7.560723e-001 -1.498314e-001 6.371069e-001
    outer loop
      vertex   1.361360e+002 -4.560590e+002 1.500000e+000
      vertex   1.360082e+002 -4.567039e+002 1.500000e+000
      vertex   1.374003e+002 -4.560571e+002 0.000000e+000
    endloop
  endfacet
  facet normal 7.560723e-001 -1.498314e-001 6.371069e-001
    outer loop
      vertex   1.365105e+002 -4.573584e+002 7.500000e-001
      vertex   1.371425e+002 -4.573584e+002 0.000000e+000
      vertex   1.374003e+002 -4.560571e+002 0.000000e+000
    endloop
  endfacet
  facet normal 8.330619e-002 9.939844e-001 7.109946e-002
    outer loop
      vertex   1.277771e+002 -4.553584e+002 1.500000e+000
      vertex   1.361360e+002 -4.560590e+002 1.500000e+000
      vertex   1.290573e+002 -4.553584e+002 0.000000e+000
    endloop
  endfacet
  facet normal 8.323862e-002 9.939677e-001 7.141055e-002
    outer loop
      vertex   1.290573e+002 -4.553584e+002 0.000000e+000
      vertex   1.361360e+002 -4.560590e+002 1.500000e+000
      vertex   1.374003e+002 -4.560571e+002 0.000000e+000
    endloop
  endfacet
  facet normal 8.549682e-014 1.000000e+000 7.204419e-014
    outer loop
      vertex   1.161420e+002 -4.553584e+002 1.500000e+000
      vertex   1.277771e+002 -4.553584e+002 1.500000e+000
      vertex   1.174060e+002 -4.553584e+002 0.000000e+000
    endloop
  endfacet
  facet normal 0.000000e+000 1.000000e+000 6.631732e-013
    outer loop
      vertex   1.174060e+002 -4.553584e+002 0.000000e+000
      vertex   1.277771e+002 -4.553584e+002 1.500000e+000
      vertex   1.290573e+002 -4.553584e+002 0.000000e+000
    endloop
  endfacet
endsolid
