solid ascii
  facet normal -1.000000e+000 0.000000e+000 -0.000000e+000
    outer loop
      vertex   4.742068e+001 -3.348730e+000 1.181102e-001
      vertex   4.742068e+001 -3.170512e+000 1.181102e-001
      vertex   4.742068e+001 -3.348730e+000 0.000000e+000
    endloop
  endfacet
  facet normal -1.000000e+000 0.000000e+000 0.000000e+000
    outer loop
      vertex   4.742068e+001 -3.348730e+000 0.000000e+000
      vertex   4.742068e+001 -3.170512e+000 1.181102e-001
      vertex   4.742068e+001 -3.170512e+000 0.000000e+000
    endloop
  endfacet
  facet normal -1.846938e-001 9.827961e-001 0.000000e+000
    outer loop
      vertex   4.742068e+001 -3.170512e+000 1.181102e-001
      vertex   4.816713e+001 -3.030232e+000 1.181102e-001
      vertex   4.742068e+001 -3.170512e+000 0.000000e+000
    endloop
  endfacet
  facet normal -1.846938e-001 9.827961e-001 0.000000e+000
    outer loop
      vertex   4.742068e+001 -3.170512e+000 0.000000e+000
      vertex   4.816713e+001 -3.030232e+000 1.181102e-001
      vertex   4.816713e+001 -3.030232e+000 0.000000e+000
    endloop
  endfacet
  facet normal -1.846938e-001 9.827961e-001 0.000000e+000
    outer loop
      vertex   4.816713e+001 -3.030232e+000 0.000000e+000
      vertex   4.816713e+001 -3.030232e+000 1.181102e-001
      vertex   4.891359e+001 -2.889953e+000 1.181102e-001
    endloop
  endfacet
  facet normal -1.846938e-001 9.827961e-001 0.000000e+000
    outer loop
      vertex   4.891359e+001 -2.889953e+000 0.000000e+000
      vertex   4.816713e+001 -3.030232e+000 0.000000e+000
      vertex   4.891359e+001 -2.889953e+000 1.181102e-001
    endloop
  endfacet
  facet normal 1.000000e+000 0.000000e+000 0.000000e+000
    outer loop
      vertex   4.891359e+001 -2.889953e+000 1.181102e-001
      vertex   4.891359e+001 -3.487281e+000 1.181102e-001
      vertex   4.891359e+001 -2.889953e+000 0.000000e+000
    endloop
  endfacet
  facet normal 1.000000e+000 0.000000e+000 0.000000e+000
    outer loop
      vertex   4.891359e+001 -2.889953e+000 0.000000e+000
      vertex   4.891359e+001 -3.487281e+000 1.181102e-001
      vertex   4.891359e+001 -3.487281e+000 0.000000e+000
    endloop
  endfacet
  facet normal -0.000000e+000 1.000000e+000 0.000000e+000
    outer loop
      vertex   4.891359e+001 -3.487281e+000 1.181102e-001
      vertex   4.906479e+001 -3.487281e+000 1.181102e-001
      vertex   4.891359e+001 -3.487281e+000 0.000000e+000
    endloop
  endfacet
  facet normal -0.000000e+000 1.000000e+000 0.000000e+000
    outer loop
      vertex   4.891359e+001 -3.487281e+000 0.000000e+000
      vertex   4.906479e+001 -3.487281e+000 1.181102e-001
      vertex   4.906479e+001 -3.487281e+000 0.000000e+000
    endloop
  endfacet
  facet normal -1.000000e+000 0.000000e+000 -0.000000e+000
    outer loop
      vertex   4.906479e+001 -3.487281e+000 1.181102e-001
      vertex   4.906479e+001 -2.861538e+000 1.181102e-001
      vertex   4.906479e+001 -3.487281e+000 0.000000e+000
    endloop
  endfacet
  facet normal -1.000000e+000 0.000000e+000 0.000000e+000
    outer loop
      vertex   4.906479e+001 -3.487281e+000 0.000000e+000
      vertex   4.906479e+001 -2.861538e+000 1.181102e-001
      vertex   4.906479e+001 -2.861538e+000 0.000000e+000
    endloop
  endfacet
  facet normal -1.846938e-001 9.827961e-001 0.000000e+000
    outer loop
      vertex   4.906479e+001 -2.861538e+000 1.181102e-001
      vertex   4.972138e+001 -2.738147e+000 1.181102e-001
      vertex   4.906479e+001 -2.861538e+000 0.000000e+000
    endloop
  endfacet
  facet normal -1.846938e-001 9.827961e-001 0.000000e+000
    outer loop
      vertex   4.906479e+001 -2.861538e+000 0.000000e+000
      vertex   4.972138e+001 -2.738147e+000 1.181102e-001
      vertex   4.972138e+001 -2.738147e+000 0.000000e+000
    endloop
  endfacet
  facet normal 1.846938e-001 9.827961e-001 0.000000e+000
    outer loop
      vertex   4.972138e+001 -2.738147e+000 1.181102e-001
      vertex   5.037798e+001 -2.861538e+000 1.181102e-001
      vertex   4.972138e+001 -2.738147e+000 0.000000e+000
    endloop
  endfacet
  facet normal 1.846938e-001 9.827961e-001 0.000000e+000
    outer loop
      vertex   4.972138e+001 -2.738147e+000 0.000000e+000
      vertex   5.037798e+001 -2.861538e+000 1.181102e-001
      vertex   5.037798e+001 -2.861538e+000 0.000000e+000
    endloop
  endfacet
  facet normal 1.000000e+000 0.000000e+000 0.000000e+000
    outer loop
      vertex   5.037798e+001 -2.861538e+000 1.181102e-001
      vertex   5.037798e+001 -3.487281e+000 1.181102e-001
      vertex   5.037798e+001 -2.861538e+000 0.000000e+000
    endloop
  endfacet
  facet normal 1.000000e+000 0.000000e+000 0.000000e+000
    outer loop
      vertex   5.037798e+001 -2.861538e+000 0.000000e+000
      vertex   5.037798e+001 -3.487281e+000 1.181102e-001
      vertex   5.037798e+001 -3.487281e+000 0.000000e+000
    endloop
  endfacet
  facet normal -0.000000e+000 1.000000e+000 0.000000e+000
    outer loop
      vertex   5.037798e+001 -3.487281e+000 1.181102e-001
      vertex   5.052918e+001 -3.487281e+000 1.181102e-001
      vertex   5.037798e+001 -3.487281e+000 0.000000e+000
    endloop
  endfacet
  facet normal -0.000000e+000 1.000000e+000 0.000000e+000
    outer loop
      vertex   5.037798e+001 -3.487281e+000 0.000000e+000
      vertex   5.052918e+001 -3.487281e+000 1.181102e-001
      vertex   5.052918e+001 -3.487281e+000 0.000000e+000
    endloop
  endfacet
  facet normal -1.000000e+000 0.000000e+000 -0.000000e+000
    outer loop
      vertex   5.052918e+001 -3.487281e+000 1.181102e-001
      vertex   5.052918e+001 -2.889953e+000 1.181102e-001
      vertex   5.052918e+001 -3.487281e+000 0.000000e+000
    endloop
  endfacet
  facet normal -1.000000e+000 0.000000e+000 0.000000e+000
    outer loop
      vertex   5.052918e+001 -3.487281e+000 0.000000e+000
      vertex   5.052918e+001 -2.889953e+000 1.181102e-001
      vertex   5.052918e+001 -2.889953e+000 0.000000e+000
    endloop
  endfacet
  facet normal 1.846938e-001 9.827961e-001 0.000000e+000
    outer loop
      vertex   5.052918e+001 -2.889953e+000 1.181102e-001
      vertex   5.127563e+001 -3.030232e+000 1.181102e-001
      vertex   5.052918e+001 -2.889953e+000 0.000000e+000
    endloop
  endfacet
  facet normal 1.846938e-001 9.827961e-001 0.000000e+000
    outer loop
      vertex   5.052918e+001 -2.889953e+000 0.000000e+000
      vertex   5.127563e+001 -3.030232e+000 1.181102e-001
      vertex   5.127563e+001 -3.030232e+000 0.000000e+000
    endloop
  endfacet
  facet normal 1.846938e-001 9.827961e-001 -0.000000e+000
    outer loop
      vertex   5.127563e+001 -3.030232e+000 0.000000e+000
      vertex   5.127563e+001 -3.030232e+000 1.181102e-001
      vertex   5.202209e+001 -3.170512e+000 1.181102e-001
    endloop
  endfacet
  facet normal 1.846938e-001 9.827961e-001 0.000000e+000
    outer loop
      vertex   5.202209e+001 -3.170512e+000 0.000000e+000
      vertex   5.127563e+001 -3.030232e+000 0.000000e+000
      vertex   5.202209e+001 -3.170512e+000 1.181102e-001
    endloop
  endfacet
  facet normal 1.000000e+000 0.000000e+000 0.000000e+000
    outer loop
      vertex   5.202209e+001 -3.170512e+000 1.181102e-001
      vertex   5.202209e+001 -3.348730e+000 1.181102e-001
      vertex   5.202209e+001 -3.170512e+000 0.000000e+000
    endloop
  endfacet
  facet normal 1.000000e+000 0.000000e+000 0.000000e+000
    outer loop
      vertex   5.202209e+001 -3.170512e+000 0.000000e+000
      vertex   5.202209e+001 -3.348730e+000 1.181102e-001
      vertex   5.202209e+001 -3.348730e+000 0.000000e+000
    endloop
  endfacet
  facet normal -0.000000e+000 1.000000e+000 0.000000e+000
    outer loop
      vertex   5.202209e+001 -3.348730e+000 1.181102e-001
      vertex   5.214020e+001 -3.348730e+000 1.181102e-001
      vertex   5.202209e+001 -3.348730e+000 0.000000e+000
    endloop
  endfacet
  facet normal -0.000000e+000 1.000000e+000 0.000000e+000
    outer loop
      vertex   5.202209e+001 -3.348730e+000 0.000000e+000
      vertex   5.214020e+001 -3.348730e+000 1.181102e-001
      vertex   5.214020e+001 -3.348730e+000 0.000000e+000
    endloop
  endfacet
  facet normal 1.000000e+000 0.000000e+000 0.000000e+000
    outer loop
      vertex   5.214020e+001 -3.348730e+000 1.181102e-001
      vertex   5.214020e+001 -3.731053e+000 1.181102e-001
      vertex   5.214020e+001 -3.348730e+000 0.000000e+000
    endloop
  endfacet
  facet normal 1.000000e+000 0.000000e+000 0.000000e+000
    outer loop
      vertex   5.214020e+001 -3.348730e+000 0.000000e+000
      vertex   5.214020e+001 -3.731053e+000 1.181102e-001
      vertex   5.214020e+001 -3.731053e+000 0.000000e+000
    endloop
  endfacet
  facet normal -0.000000e+000 -1.000000e+000 -0.000000e+000
    outer loop
      vertex   5.214020e+001 -3.731053e+000 1.181102e-001
      vertex   5.202209e+001 -3.731053e+000 1.181102e-001
      vertex   5.214020e+001 -3.731053e+000 0.000000e+000
    endloop
  endfacet
  facet normal -0.000000e+000 -1.000000e+000 -0.000000e+000
    outer loop
      vertex   5.214020e+001 -3.731053e+000 0.000000e+000
      vertex   5.202209e+001 -3.731053e+000 1.181102e-001
      vertex   5.202209e+001 -3.731053e+000 0.000000e+000
    endloop
  endfacet
  facet normal 1.000000e+000 0.000000e+000 0.000000e+000
    outer loop
      vertex   5.202209e+001 -3.731053e+000 1.181102e-001
      vertex   5.202209e+001 -3.911671e+000 1.181102e-001
      vertex   5.202209e+001 -3.731053e+000 0.000000e+000
    endloop
  endfacet
  facet normal 1.000000e+000 0.000000e+000 0.000000e+000
    outer loop
      vertex   5.202209e+001 -3.731053e+000 0.000000e+000
      vertex   5.202209e+001 -3.911671e+000 1.181102e-001
      vertex   5.202209e+001 -3.911671e+000 0.000000e+000
    endloop
  endfacet
  facet normal 9.132510e-002 -9.958211e-001 0.000000e+000
    outer loop
      vertex   5.202209e+001 -3.911671e+000 1.181102e-001
      vertex   5.146581e+001 -3.962686e+000 1.181102e-001
      vertex   5.202209e+001 -3.911671e+000 0.000000e+000
    endloop
  endfacet
  facet normal 9.132510e-002 -9.958211e-001 0.000000e+000
    outer loop
      vertex   5.202209e+001 -3.911671e+000 0.000000e+000
      vertex   5.146581e+001 -3.962686e+000 1.181102e-001
      vertex   5.146581e+001 -3.962686e+000 0.000000e+000
    endloop
  endfacet
  facet normal 9.132510e-002 -9.958211e-001 0.000000e+000
    outer loop
      vertex   5.146581e+001 -3.962686e+000 0.000000e+000
      vertex   5.146581e+001 -3.962686e+000 1.181102e-001
      vertex   5.090954e+001 -4.013701e+000 1.181102e-001
    endloop
  endfacet
  facet normal 9.132510e-002 -9.958211e-001 0.000000e+000
    outer loop
      vertex   5.090954e+001 -4.013701e+000 0.000000e+000
      vertex   5.090954e+001 -4.013701e+000 1.181102e-001
      vertex   5.035326e+001 -4.064717e+000 1.181102e-001
    endloop
  endfacet
  facet normal 9.132510e-002 -9.958211e-001 0.000000e+000
    outer loop
      vertex   5.035326e+001 -4.064717e+000 0.000000e+000
      vertex   5.035326e+001 -4.064717e+000 1.181102e-001
      vertex   4.979698e+001 -4.115732e+000 1.181102e-001
    endloop
  endfacet
  facet normal 9.132510e-002 -9.958211e-001 0.000000e+000
    outer loop
      vertex   4.979698e+001 -4.115732e+000 0.000000e+000
      vertex   5.035326e+001 -4.064717e+000 0.000000e+000
      vertex   4.979698e+001 -4.115732e+000 1.181102e-001
    endloop
  endfacet
  facet normal 9.132510e-002 -9.958211e-001 0.000000e+000
    outer loop
      vertex   5.035326e+001 -4.064717e+000 0.000000e+000
      vertex   5.090954e+001 -4.013701e+000 0.000000e+000
      vertex   5.035326e+001 -4.064717e+000 1.181102e-001
    endloop
  endfacet
  facet normal 9.132510e-002 -9.958211e-001 0.000000e+000
    outer loop
      vertex   5.090954e+001 -4.013701e+000 0.000000e+000
      vertex   5.146581e+001 -3.962686e+000 0.000000e+000
      vertex   5.090954e+001 -4.013701e+000 1.181102e-001
    endloop
  endfacet
  facet normal -1.000000e+000 0.000000e+000 -0.000000e+000
    outer loop
      vertex   4.979698e+001 -4.115732e+000 1.181102e-001
      vertex   4.979698e+001 -3.409271e+000 1.181102e-001
      vertex   4.979698e+001 -4.115732e+000 0.000000e+000
    endloop
  endfacet
  facet normal -1.000000e+000 0.000000e+000 0.000000e+000
    outer loop
      vertex   4.979698e+001 -4.115732e+000 0.000000e+000
      vertex   4.979698e+001 -3.409271e+000 1.181102e-001
      vertex   4.979698e+001 -3.409271e+000 0.000000e+000
    endloop
  endfacet
  facet normal -0.000000e+000 -1.000000e+000 -0.000000e+000
    outer loop
      vertex   4.979698e+001 -3.409271e+000 1.181102e-001
      vertex   4.964578e+001 -3.409271e+000 1.181102e-001
      vertex   4.979698e+001 -3.409271e+000 0.000000e+000
    endloop
  endfacet
  facet normal -0.000000e+000 -1.000000e+000 -0.000000e+000
    outer loop
      vertex   4.979698e+001 -3.409271e+000 0.000000e+000
      vertex   4.964578e+001 -3.409271e+000 1.181102e-001
      vertex   4.964578e+001 -3.409271e+000 0.000000e+000
    endloop
  endfacet
  facet normal 1.000000e+000 0.000000e+000 0.000000e+000
    outer loop
      vertex   4.964578e+001 -3.409271e+000 1.181102e-001
      vertex   4.964578e+001 -4.115732e+000 1.181102e-001
      vertex   4.964578e+001 -3.409271e+000 0.000000e+000
    endloop
  endfacet
  facet normal 1.000000e+000 0.000000e+000 0.000000e+000
    outer loop
      vertex   4.964578e+001 -3.409271e+000 0.000000e+000
      vertex   4.964578e+001 -4.115732e+000 1.181102e-001
      vertex   4.964578e+001 -4.115732e+000 0.000000e+000
    endloop
  endfacet
  facet normal -9.132510e-002 -9.958211e-001 0.000000e+000
    outer loop
      vertex   4.964578e+001 -4.115732e+000 1.181102e-001
      vertex   4.908951e+001 -4.064717e+000 1.181102e-001
      vertex   4.964578e+001 -4.115732e+000 0.000000e+000
    endloop
  endfacet
  facet normal -9.132510e-002 -9.958211e-001 -0.000000e+000
    outer loop
      vertex   4.964578e+001 -4.115732e+000 0.000000e+000
      vertex   4.908951e+001 -4.064717e+000 1.181102e-001
      vertex   4.908951e+001 -4.064717e+000 0.000000e+000
    endloop
  endfacet
  facet normal -9.132510e-002 -9.958211e-001 0.000000e+000
    outer loop
      vertex   4.908951e+001 -4.064717e+000 0.000000e+000
      vertex   4.908951e+001 -4.064717e+000 1.181102e-001
      vertex   4.853323e+001 -4.013701e+000 1.181102e-001
    endloop
  endfacet
  facet normal -9.132510e-002 -9.958211e-001 0.000000e+000
    outer loop
      vertex   4.853323e+001 -4.013701e+000 0.000000e+000
      vertex   4.853323e+001 -4.013701e+000 1.181102e-001
      vertex   4.797695e+001 -3.962686e+000 1.181102e-001
    endloop
  endfacet
  facet normal -9.132510e-002 -9.958211e-001 0.000000e+000
    outer loop
      vertex   4.797695e+001 -3.962686e+000 0.000000e+000
      vertex   4.797695e+001 -3.962686e+000 1.181102e-001
      vertex   4.742068e+001 -3.911671e+000 1.181102e-001
    endloop
  endfacet
  facet normal -9.132510e-002 -9.958211e-001 0.000000e+000
    outer loop
      vertex   4.742068e+001 -3.911671e+000 0.000000e+000
      vertex   4.797695e+001 -3.962686e+000 0.000000e+000
      vertex   4.742068e+001 -3.911671e+000 1.181102e-001
    endloop
  endfacet
  facet normal -9.132510e-002 -9.958211e-001 0.000000e+000
    outer loop
      vertex   4.797695e+001 -3.962686e+000 0.000000e+000
      vertex   4.853323e+001 -4.013701e+000 0.000000e+000
      vertex   4.797695e+001 -3.962686e+000 1.181102e-001
    endloop
  endfacet
  facet normal -9.132510e-002 -9.958211e-001 0.000000e+000
    outer loop
      vertex   4.853323e+001 -4.013701e+000 0.000000e+000
      vertex   4.908951e+001 -4.064717e+000 0.000000e+000
      vertex   4.853323e+001 -4.013701e+000 1.181102e-001
    endloop
  endfacet
  facet normal -1.000000e+000 0.000000e+000 -0.000000e+000
    outer loop
      vertex   4.742068e+001 -3.911671e+000 1.181102e-001
      vertex   4.742068e+001 -3.731053e+000 1.181102e-001
      vertex   4.742068e+001 -3.911671e+000 0.000000e+000
    endloop
  endfacet
  facet normal -1.000000e+000 0.000000e+000 0.000000e+000
    outer loop
      vertex   4.742068e+001 -3.911671e+000 0.000000e+000
      vertex   4.742068e+001 -3.731053e+000 1.181102e-001
      vertex   4.742068e+001 -3.731053e+000 0.000000e+000
    endloop
  endfacet
  facet normal -0.000000e+000 -1.000000e+000 -0.000000e+000
    outer loop
      vertex   4.742068e+001 -3.731053e+000 1.181102e-001
      vertex   4.730257e+001 -3.731053e+000 1.181102e-001
      vertex   4.742068e+001 -3.731053e+000 0.000000e+000
    endloop
  endfacet
  facet normal -0.000000e+000 -1.000000e+000 -0.000000e+000
    outer loop
      vertex   4.742068e+001 -3.731053e+000 0.000000e+000
      vertex   4.730257e+001 -3.731053e+000 1.181102e-001
      vertex   4.730257e+001 -3.731053e+000 0.000000e+000
    endloop
  endfacet
  facet normal -1.000000e+000 0.000000e+000 -0.000000e+000
    outer loop
      vertex   4.730257e+001 -3.731053e+000 1.181102e-001
      vertex   4.730257e+001 -3.348730e+000 1.181102e-001
      vertex   4.730257e+001 -3.731053e+000 0.000000e+000
    endloop
  endfacet
  facet normal -1.000000e+000 0.000000e+000 0.000000e+000
    outer loop
      vertex   4.730257e+001 -3.731053e+000 0.000000e+000
      vertex   4.730257e+001 -3.348730e+000 1.181102e-001
      vertex   4.730257e+001 -3.348730e+000 0.000000e+000
    endloop
  endfacet
  facet normal -0.000000e+000 1.000000e+000 0.000000e+000
    outer loop
      vertex   4.730257e+001 -3.348730e+000 1.181102e-001
      vertex   4.742068e+001 -3.348730e+000 1.181102e-001
      vertex   4.730257e+001 -3.348730e+000 0.000000e+000
    endloop
  endfacet
  facet normal -0.000000e+000 1.000000e+000 0.000000e+000
    outer loop
      vertex   4.730257e+001 -3.348730e+000 0.000000e+000
      vertex   4.742068e+001 -3.348730e+000 1.181102e-001
      vertex   4.742068e+001 -3.348730e+000 0.000000e+000
    endloop
  endfacet
  facet normal -0.000000e+000 -1.000000e+000 -0.000000e+000
    outer loop
      vertex   4.918290e+001 -3.605391e+000 1.181102e-001
      vertex   4.904904e+001 -3.605391e+000 1.181102e-001
      vertex   4.918290e+001 -3.605391e+000 0.000000e+000
    endloop
  endfacet
  facet normal -0.000000e+000 -1.000000e+000 -0.000000e+000
    outer loop
      vertex   4.918290e+001 -3.605391e+000 0.000000e+000
      vertex   4.904904e+001 -3.605391e+000 1.181102e-001
      vertex   4.904904e+001 -3.605391e+000 0.000000e+000
    endloop
  endfacet
  facet normal 1.000000e+000 0.000000e+000 0.000000e+000
    outer loop
      vertex   4.904904e+001 -3.605391e+000 1.181102e-001
      vertex   4.904904e+001 -3.942400e+000 1.181102e-001
      vertex   4.904904e+001 -3.605391e+000 0.000000e+000
    endloop
  endfacet
  facet normal 1.000000e+000 0.000000e+000 0.000000e+000
    outer loop
      vertex   4.904904e+001 -3.605391e+000 0.000000e+000
      vertex   4.904904e+001 -3.942400e+000 1.181102e-001
      vertex   4.904904e+001 -3.942400e+000 0.000000e+000
    endloop
  endfacet
  facet normal 9.132510e-002 9.958211e-001 0.000000e+000
    outer loop
      vertex   4.904904e+001 -3.942400e+000 1.181102e-001
      vertex   4.952767e+001 -3.986294e+000 1.181102e-001
      vertex   4.904904e+001 -3.942400e+000 0.000000e+000
    endloop
  endfacet
  facet normal 9.132510e-002 9.958211e-001 0.000000e+000
    outer loop
      vertex   4.904904e+001 -3.942400e+000 0.000000e+000
      vertex   4.952767e+001 -3.986294e+000 1.181102e-001
      vertex   4.952767e+001 -3.986294e+000 0.000000e+000
    endloop
  endfacet
  facet normal -1.000000e+000 0.000000e+000 -0.000000e+000
    outer loop
      vertex   4.952767e+001 -3.986294e+000 1.181102e-001
      vertex   4.952767e+001 -3.291161e+000 1.181102e-001
      vertex   4.952767e+001 -3.986294e+000 0.000000e+000
    endloop
  endfacet
  facet normal -1.000000e+000 0.000000e+000 0.000000e+000
    outer loop
      vertex   4.952767e+001 -3.986294e+000 0.000000e+000
      vertex   4.952767e+001 -3.291161e+000 1.181102e-001
      vertex   4.952767e+001 -3.291161e+000 0.000000e+000
    endloop
  endfacet
  facet normal -0.000000e+000 1.000000e+000 0.000000e+000
    outer loop
      vertex   4.952767e+001 -3.291161e+000 1.181102e-001
      vertex   4.966233e+001 -3.291161e+000 1.181102e-001
      vertex   4.952767e+001 -3.291161e+000 0.000000e+000
    endloop
  endfacet
  facet normal -0.000000e+000 1.000000e+000 0.000000e+000
    outer loop
      vertex   4.952767e+001 -3.291161e+000 0.000000e+000
      vertex   4.966233e+001 -3.291161e+000 1.181102e-001
      vertex   4.966233e+001 -3.291161e+000 0.000000e+000
    endloop
  endfacet
  facet normal -1.000000e+000 0.000000e+000 -0.000000e+000
    outer loop
      vertex   4.966233e+001 -3.291161e+000 1.181102e-001
      vertex   4.966233e+001 -2.869423e+000 1.181102e-001
      vertex   4.966233e+001 -3.291161e+000 0.000000e+000
    endloop
  endfacet
  facet normal -1.000000e+000 0.000000e+000 0.000000e+000
    outer loop
      vertex   4.966233e+001 -3.291161e+000 0.000000e+000
      vertex   4.966233e+001 -2.869423e+000 1.181102e-001
      vertex   4.966233e+001 -2.869423e+000 0.000000e+000
    endloop
  endfacet
  facet normal 1.846938e-001 -9.827961e-001 0.000000e+000
    outer loop
      vertex   4.966233e+001 -2.869423e+000 1.181102e-001
      vertex   4.918290e+001 -2.959520e+000 1.181102e-001
      vertex   4.966233e+001 -2.869423e+000 0.000000e+000
    endloop
  endfacet
  facet normal 1.846938e-001 -9.827961e-001 0.000000e+000
    outer loop
      vertex   4.966233e+001 -2.869423e+000 0.000000e+000
      vertex   4.918290e+001 -2.959520e+000 1.181102e-001
      vertex   4.918290e+001 -2.959520e+000 0.000000e+000
    endloop
  endfacet
  facet normal 1.000000e+000 0.000000e+000 0.000000e+000
    outer loop
      vertex   4.918290e+001 -2.959520e+000 1.181102e-001
      vertex   4.918290e+001 -3.605391e+000 1.181102e-001
      vertex   4.918290e+001 -2.959520e+000 0.000000e+000
    endloop
  endfacet
  facet normal 1.000000e+000 0.000000e+000 0.000000e+000
    outer loop
      vertex   4.918290e+001 -2.959520e+000 0.000000e+000
      vertex   4.918290e+001 -3.605391e+000 1.181102e-001
      vertex   4.918290e+001 -3.605391e+000 0.000000e+000
    endloop
  endfacet
  facet normal 1.846938e-001 -9.827961e-001 0.000000e+000
    outer loop
      vertex   4.879548e+001 -3.032327e+000 1.181102e-001
      vertex   4.816713e+001 -3.150410e+000 1.181102e-001
      vertex   4.879548e+001 -3.032327e+000 0.000000e+000
    endloop
  endfacet
  facet normal 1.846938e-001 -9.827961e-001 0.000000e+000
    outer loop
      vertex   4.879548e+001 -3.032327e+000 0.000000e+000
      vertex   4.816713e+001 -3.150410e+000 1.181102e-001
      vertex   4.816713e+001 -3.150410e+000 0.000000e+000
    endloop
  endfacet
  facet normal 1.846938e-001 -9.827961e-001 0.000000e+000
    outer loop
      vertex   4.816713e+001 -3.150410e+000 0.000000e+000
      vertex   4.816713e+001 -3.150410e+000 1.181102e-001
      vertex   4.753879e+001 -3.268493e+000 1.181102e-001
    endloop
  endfacet
  facet normal 1.846938e-001 -9.827961e-001 0.000000e+000
    outer loop
      vertex   4.753879e+001 -3.268493e+000 0.000000e+000
      vertex   4.816713e+001 -3.150410e+000 0.000000e+000
      vertex   4.753879e+001 -3.268493e+000 1.181102e-001
    endloop
  endfacet
  facet normal 1.000000e+000 0.000000e+000 0.000000e+000
    outer loop
      vertex   4.753879e+001 -3.268493e+000 1.181102e-001
      vertex   4.753879e+001 -3.803897e+000 1.181102e-001
      vertex   4.753879e+001 -3.268493e+000 0.000000e+000
    endloop
  endfacet
  facet normal 1.000000e+000 0.000000e+000 0.000000e+000
    outer loop
      vertex   4.753879e+001 -3.268493e+000 0.000000e+000
      vertex   4.753879e+001 -3.803897e+000 1.181102e-001
      vertex   4.753879e+001 -3.803897e+000 0.000000e+000
    endloop
  endfacet
  facet normal 9.132510e-002 9.958211e-001 0.000000e+000
    outer loop
      vertex   4.753879e+001 -3.803897e+000 1.181102e-001
      vertex   4.823406e+001 -3.867659e+000 1.181102e-001
      vertex   4.753879e+001 -3.803897e+000 0.000000e+000
    endloop
  endfacet
  facet normal 9.132510e-002 9.958211e-001 0.000000e+000
    outer loop
      vertex   4.753879e+001 -3.803897e+000 0.000000e+000
      vertex   4.823406e+001 -3.867659e+000 1.181102e-001
      vertex   4.823406e+001 -3.867659e+000 0.000000e+000
    endloop
  endfacet
  facet normal 9.132510e-002 9.958211e-001 -0.000000e+000
    outer loop
      vertex   4.823406e+001 -3.867659e+000 0.000000e+000
      vertex   4.823406e+001 -3.867659e+000 1.181102e-001
      vertex   4.892934e+001 -3.931422e+000 1.181102e-001
    endloop
  endfacet
  facet normal 9.132510e-002 9.958211e-001 0.000000e+000
    outer loop
      vertex   4.892934e+001 -3.931422e+000 0.000000e+000
      vertex   4.823406e+001 -3.867659e+000 0.000000e+000
      vertex   4.892934e+001 -3.931422e+000 1.181102e-001
    endloop
  endfacet
  facet normal -1.000000e+000 0.000000e+000 -0.000000e+000
    outer loop
      vertex   4.892934e+001 -3.931422e+000 1.181102e-001
      vertex   4.892934e+001 -3.605391e+000 1.181102e-001
      vertex   4.892934e+001 -3.931422e+000 0.000000e+000
    endloop
  endfacet
  facet normal -1.000000e+000 0.000000e+000 0.000000e+000
    outer loop
      vertex   4.892934e+001 -3.931422e+000 0.000000e+000
      vertex   4.892934e+001 -3.605391e+000 1.181102e-001
      vertex   4.892934e+001 -3.605391e+000 0.000000e+000
    endloop
  endfacet
  facet normal -0.000000e+000 -1.000000e+000 -0.000000e+000
    outer loop
      vertex   4.892934e+001 -3.605391e+000 1.181102e-001
      vertex   4.879548e+001 -3.605391e+000 1.181102e-001
      vertex   4.892934e+001 -3.605391e+000 0.000000e+000
    endloop
  endfacet
  facet normal -0.000000e+000 -1.000000e+000 -0.000000e+000
    outer loop
      vertex   4.892934e+001 -3.605391e+000 0.000000e+000
      vertex   4.879548e+001 -3.605391e+000 1.181102e-001
      vertex   4.879548e+001 -3.605391e+000 0.000000e+000
    endloop
  endfacet
  facet normal -1.000000e+000 0.000000e+000 -0.000000e+000
    outer loop
      vertex   4.879548e+001 -3.605391e+000 1.181102e-001
      vertex   4.879548e+001 -3.032327e+000 1.181102e-001
      vertex   4.879548e+001 -3.605391e+000 0.000000e+000
    endloop
  endfacet
  facet normal -1.000000e+000 0.000000e+000 0.000000e+000
    outer loop
      vertex   4.879548e+001 -3.605391e+000 0.000000e+000
      vertex   4.879548e+001 -3.032327e+000 1.181102e-001
      vertex   4.879548e+001 -3.032327e+000 0.000000e+000
    endloop
  endfacet
  facet normal 1.000000e+000 0.000000e+000 0.000000e+000
    outer loop
      vertex   5.064729e+001 -3.032327e+000 1.181102e-001
      vertex   5.064729e+001 -3.605391e+000 1.181102e-001
      vertex   5.064729e+001 -3.032327e+000 0.000000e+000
    endloop
  endfacet
  facet normal 1.000000e+000 0.000000e+000 0.000000e+000
    outer loop
      vertex   5.064729e+001 -3.032327e+000 0.000000e+000
      vertex   5.064729e+001 -3.605391e+000 1.181102e-001
      vertex   5.064729e+001 -3.605391e+000 0.000000e+000
    endloop
  endfacet
  facet normal -0.000000e+000 -1.000000e+000 -0.000000e+000
    outer loop
      vertex   5.064729e+001 -3.605391e+000 1.181102e-001
      vertex   5.051343e+001 -3.605391e+000 1.181102e-001
      vertex   5.064729e+001 -3.605391e+000 0.000000e+000
    endloop
  endfacet
  facet normal -0.000000e+000 -1.000000e+000 -0.000000e+000
    outer loop
      vertex   5.064729e+001 -3.605391e+000 0.000000e+000
      vertex   5.051343e+001 -3.605391e+000 1.181102e-001
      vertex   5.051343e+001 -3.605391e+000 0.000000e+000
    endloop
  endfacet
  facet normal 1.000000e+000 0.000000e+000 0.000000e+000
    outer loop
      vertex   5.051343e+001 -3.605391e+000 1.181102e-001
      vertex   5.051343e+001 -3.931422e+000 1.181102e-001
      vertex   5.051343e+001 -3.605391e+000 0.000000e+000
    endloop
  endfacet
  facet normal 1.000000e+000 0.000000e+000 0.000000e+000
    outer loop
      vertex   5.051343e+001 -3.605391e+000 0.000000e+000
      vertex   5.051343e+001 -3.931422e+000 1.181102e-001
      vertex   5.051343e+001 -3.931422e+000 0.000000e+000
    endloop
  endfacet
  facet normal -9.132510e-002 9.958211e-001 0.000000e+000
    outer loop
      vertex   5.051343e+001 -3.931422e+000 1.181102e-001
      vertex   5.120870e+001 -3.867659e+000 1.181102e-001
      vertex   5.051343e+001 -3.931422e+000 0.000000e+000
    endloop
  endfacet
  facet normal -9.132510e-002 9.958211e-001 0.000000e+000
    outer loop
      vertex   5.051343e+001 -3.931422e+000 0.000000e+000
      vertex   5.120870e+001 -3.867659e+000 1.181102e-001
      vertex   5.120870e+001 -3.867659e+000 0.000000e+000
    endloop
  endfacet
  facet normal -9.132510e-002 9.958211e-001 0.000000e+000
    outer loop
      vertex   5.120870e+001 -3.867659e+000 0.000000e+000
      vertex   5.120870e+001 -3.867659e+000 1.181102e-001
      vertex   5.190398e+001 -3.803897e+000 1.181102e-001
    endloop
  endfacet
  facet normal -9.132510e-002 9.958211e-001 0.000000e+000
    outer loop
      vertex   5.190398e+001 -3.803897e+000 0.000000e+000
      vertex   5.120870e+001 -3.867659e+000 0.000000e+000
      vertex   5.190398e+001 -3.803897e+000 1.181102e-001
    endloop
  endfacet
  facet normal -1.000000e+000 0.000000e+000 -0.000000e+000
    outer loop
      vertex   5.190398e+001 -3.803897e+000 1.181102e-001
      vertex   5.190398e+001 -3.268493e+000 1.181102e-001
      vertex   5.190398e+001 -3.803897e+000 0.000000e+000
    endloop
  endfacet
  facet normal -1.000000e+000 0.000000e+000 0.000000e+000
    outer loop
      vertex   5.190398e+001 -3.803897e+000 0.000000e+000
      vertex   5.190398e+001 -3.268493e+000 1.181102e-001
      vertex   5.190398e+001 -3.268493e+000 0.000000e+000
    endloop
  endfacet
  facet normal -1.846938e-001 -9.827961e-001 0.000000e+000
    outer loop
      vertex   5.190398e+001 -3.268493e+000 1.181102e-001
      vertex   5.127563e+001 -3.150410e+000 1.181102e-001
      vertex   5.190398e+001 -3.268493e+000 0.000000e+000
    endloop
  endfacet
  facet normal -1.846938e-001 -9.827961e-001 -0.000000e+000
    outer loop
      vertex   5.190398e+001 -3.268493e+000 0.000000e+000
      vertex   5.127563e+001 -3.150410e+000 1.181102e-001
      vertex   5.127563e+001 -3.150410e+000 0.000000e+000
    endloop
  endfacet
  facet normal -1.846938e-001 -9.827961e-001 0.000000e+000
    outer loop
      vertex   5.127563e+001 -3.150410e+000 0.000000e+000
      vertex   5.127563e+001 -3.150410e+000 1.181102e-001
      vertex   5.064729e+001 -3.032327e+000 1.181102e-001
    endloop
  endfacet
  facet normal -1.846938e-001 -9.827961e-001 0.000000e+000
    outer loop
      vertex   5.064729e+001 -3.032327e+000 0.000000e+000
      vertex   5.127563e+001 -3.150410e+000 0.000000e+000
      vertex   5.064729e+001 -3.032327e+000 1.181102e-001
    endloop
  endfacet
  facet normal -1.846938e-001 -9.827961e-001 0.000000e+000
    outer loop
      vertex   5.025986e+001 -2.959520e+000 1.181102e-001
      vertex   4.978044e+001 -2.869423e+000 1.181102e-001
      vertex   5.025986e+001 -2.959520e+000 0.000000e+000
    endloop
  endfacet
  facet normal -1.846938e-001 -9.827961e-001 -0.000000e+000
    outer loop
      vertex   5.025986e+001 -2.959520e+000 0.000000e+000
      vertex   4.978044e+001 -2.869423e+000 1.181102e-001
      vertex   4.978044e+001 -2.869423e+000 0.000000e+000
    endloop
  endfacet
  facet normal 1.000000e+000 0.000000e+000 0.000000e+000
    outer loop
      vertex   4.978044e+001 -2.869423e+000 1.181102e-001
      vertex   4.978044e+001 -3.291161e+000 1.181102e-001
      vertex   4.978044e+001 -2.869423e+000 0.000000e+000
    endloop
  endfacet
  facet normal 1.000000e+000 0.000000e+000 0.000000e+000
    outer loop
      vertex   4.978044e+001 -2.869423e+000 0.000000e+000
      vertex   4.978044e+001 -3.291161e+000 1.181102e-001
      vertex   4.978044e+001 -3.291161e+000 0.000000e+000
    endloop
  endfacet
  facet normal -0.000000e+000 1.000000e+000 0.000000e+000
    outer loop
      vertex   4.978044e+001 -3.291161e+000 1.181102e-001
      vertex   4.991509e+001 -3.291161e+000 1.181102e-001
      vertex   4.978044e+001 -3.291161e+000 0.000000e+000
    endloop
  endfacet
  facet normal -0.000000e+000 1.000000e+000 0.000000e+000
    outer loop
      vertex   4.978044e+001 -3.291161e+000 0.000000e+000
      vertex   4.991509e+001 -3.291161e+000 1.181102e-001
      vertex   4.991509e+001 -3.291161e+000 0.000000e+000
    endloop
  endfacet
  facet normal 1.000000e+000 0.000000e+000 0.000000e+000
    outer loop
      vertex   4.991509e+001 -3.291161e+000 1.181102e-001
      vertex   4.991509e+001 -3.986294e+000 1.181102e-001
      vertex   4.991509e+001 -3.291161e+000 0.000000e+000
    endloop
  endfacet
  facet normal 1.000000e+000 0.000000e+000 0.000000e+000
    outer loop
      vertex   4.991509e+001 -3.291161e+000 0.000000e+000
      vertex   4.991509e+001 -3.986294e+000 1.181102e-001
      vertex   4.991509e+001 -3.986294e+000 0.000000e+000
    endloop
  endfacet
  facet normal -9.132510e-002 9.958211e-001 0.000000e+000
    outer loop
      vertex   4.991509e+001 -3.986294e+000 1.181102e-001
      vertex   5.039372e+001 -3.942400e+000 1.181102e-001
      vertex   4.991509e+001 -3.986294e+000 0.000000e+000
    endloop
  endfacet
  facet normal -9.132510e-002 9.958211e-001 0.000000e+000
    outer loop
      vertex   4.991509e+001 -3.986294e+000 0.000000e+000
      vertex   5.039372e+001 -3.942400e+000 1.181102e-001
      vertex   5.039372e+001 -3.942400e+000 0.000000e+000
    endloop
  endfacet
  facet normal -1.000000e+000 0.000000e+000 -0.000000e+000
    outer loop
      vertex   5.039372e+001 -3.942400e+000 1.181102e-001
      vertex   5.039372e+001 -3.605391e+000 1.181102e-001
      vertex   5.039372e+001 -3.942400e+000 0.000000e+000
    endloop
  endfacet
  facet normal -1.000000e+000 0.000000e+000 0.000000e+000
    outer loop
      vertex   5.039372e+001 -3.942400e+000 0.000000e+000
      vertex   5.039372e+001 -3.605391e+000 1.181102e-001
      vertex   5.039372e+001 -3.605391e+000 0.000000e+000
    endloop
  endfacet
  facet normal -0.000000e+000 -1.000000e+000 -0.000000e+000
    outer loop
      vertex   5.039372e+001 -3.605391e+000 1.181102e-001
      vertex   5.025986e+001 -3.605391e+000 1.181102e-001
      vertex   5.039372e+001 -3.605391e+000 0.000000e+000
    endloop
  endfacet
  facet normal -0.000000e+000 -1.000000e+000 -0.000000e+000
    outer loop
      vertex   5.039372e+001 -3.605391e+000 0.000000e+000
      vertex   5.025986e+001 -3.605391e+000 1.181102e-001
      vertex   5.025986e+001 -3.605391e+000 0.000000e+000
    endloop
  endfacet
  facet normal -1.000000e+000 0.000000e+000 -0.000000e+000
    outer loop
      vertex   5.025986e+001 -3.605391e+000 1.181102e-001
      vertex   5.025986e+001 -2.959520e+000 1.181102e-001
      vertex   5.025986e+001 -3.605391e+000 0.000000e+000
    endloop
  endfacet
  facet normal -1.000000e+000 0.000000e+000 0.000000e+000
    outer loop
      vertex   5.025986e+001 -3.605391e+000 0.000000e+000
      vertex   5.025986e+001 -2.959520e+000 1.181102e-001
      vertex   5.025986e+001 -2.959520e+000 0.000000e+000
    endloop
  endfacet
  facet normal 0.000000e+000 -0.000000e+000 1.000000e+000
    outer loop
      vertex   5.037798e+001 -3.487281e+000 1.181102e-001
      vertex   5.037798e+001 -2.861538e+000 1.181102e-001
      vertex   5.025986e+001 -2.959520e+000 1.181102e-001
    endloop
  endfacet
  facet normal 0.000000e+000 -0.000000e+000 1.000000e+000
    outer loop
      vertex   5.025986e+001 -3.605391e+000 1.181102e-001
      vertex   5.037798e+001 -3.487281e+000 1.181102e-001
      vertex   5.025986e+001 -2.959520e+000 1.181102e-001
    endloop
  endfacet
  facet normal 0.000000e+000 -0.000000e+000 1.000000e+000
    outer loop
      vertex   5.025986e+001 -3.605391e+000 1.181102e-001
      vertex   5.039372e+001 -3.605391e+000 1.181102e-001
      vertex   5.037798e+001 -3.487281e+000 1.181102e-001
    endloop
  endfacet
  facet normal -0.000000e+000 0.000000e+000 1.000000e+000
    outer loop
      vertex   5.037798e+001 -3.487281e+000 1.181102e-001
      vertex   5.039372e+001 -3.605391e+000 1.181102e-001
      vertex   5.051343e+001 -3.605391e+000 1.181102e-001
    endloop
  endfacet
  facet normal -0.000000e+000 0.000000e+000 1.000000e+000
    outer loop
      vertex   5.052918e+001 -3.487281e+000 1.181102e-001
      vertex   5.051343e+001 -3.605391e+000 1.181102e-001
      vertex   5.064729e+001 -3.605391e+000 1.181102e-001
    endloop
  endfacet
  facet normal 0.000000e+000 0.000000e+000 1.000000e+000
    outer loop
      vertex   5.064729e+001 -3.032327e+000 1.181102e-001
      vertex   5.052918e+001 -3.487281e+000 1.181102e-001
      vertex   5.064729e+001 -3.605391e+000 1.181102e-001
    endloop
  endfacet
  facet normal 0.000000e+000 0.000000e+000 1.000000e+000
    outer loop
      vertex   5.064729e+001 -3.032327e+000 1.181102e-001
      vertex   5.052918e+001 -2.889953e+000 1.181102e-001
      vertex   5.052918e+001 -3.487281e+000 1.181102e-001
    endloop
  endfacet
  facet normal 0.000000e+000 -0.000000e+000 1.000000e+000
    outer loop
      vertex   5.064729e+001 -3.032327e+000 1.181102e-001
      vertex   5.127563e+001 -3.030232e+000 1.181102e-001
      vertex   5.052918e+001 -2.889953e+000 1.181102e-001
    endloop
  endfacet
  facet normal -0.000000e+000 0.000000e+000 1.000000e+000
    outer loop
      vertex   5.064729e+001 -3.032327e+000 1.181102e-001
      vertex   5.127563e+001 -3.150410e+000 1.181102e-001
      vertex   5.127563e+001 -3.030232e+000 1.181102e-001
    endloop
  endfacet
  facet normal 0.000000e+000 0.000000e+000 1.000000e+000
    outer loop
      vertex   5.127563e+001 -3.030232e+000 1.181102e-001
      vertex   5.127563e+001 -3.150410e+000 1.181102e-001
      vertex   5.160269e+001 -3.197342e+000 1.181102e-001
    endloop
  endfacet
  facet normal 0.000000e+000 0.000000e+000 1.000000e+000
    outer loop
      vertex   5.202209e+001 -3.170512e+000 1.181102e-001
      vertex   5.160269e+001 -3.197342e+000 1.181102e-001
      vertex   5.190398e+001 -3.268493e+000 1.181102e-001
    endloop
  endfacet
  facet normal 0.000000e+000 0.000000e+000 1.000000e+000
    outer loop
      vertex   5.202209e+001 -3.348730e+000 1.181102e-001
      vertex   5.190398e+001 -3.268493e+000 1.181102e-001
      vertex   5.202209e+001 -3.731053e+000 1.181102e-001
    endloop
  endfacet
  facet normal -0.000000e+000 0.000000e+000 1.000000e+000
    outer loop
      vertex   5.214020e+001 -3.348730e+000 1.181102e-001
      vertex   5.202209e+001 -3.731053e+000 1.181102e-001
      vertex   5.214020e+001 -3.731053e+000 1.181102e-001
    endloop
  endfacet
  facet normal 0.000000e+000 0.000000e+000 1.000000e+000
    outer loop
      vertex   5.214020e+001 -3.348730e+000 1.181102e-001
      vertex   5.202209e+001 -3.348730e+000 1.181102e-001
      vertex   5.202209e+001 -3.731053e+000 1.181102e-001
    endloop
  endfacet
  facet normal -0.000000e+000 0.000000e+000 1.000000e+000
    outer loop
      vertex   5.039372e+001 -3.605391e+000 1.181102e-001
      vertex   5.039372e+001 -3.942400e+000 1.181102e-001
      vertex   5.051343e+001 -3.605391e+000 1.181102e-001
    endloop
  endfacet
  facet normal -0.000000e+000 0.000000e+000 1.000000e+000
    outer loop
      vertex   5.051343e+001 -3.605391e+000 1.181102e-001
      vertex   5.039372e+001 -3.942400e+000 1.181102e-001
      vertex   5.051343e+001 -3.931422e+000 1.181102e-001
    endloop
  endfacet
  facet normal 0.000000e+000 0.000000e+000 1.000000e+000
    outer loop
      vertex   5.051343e+001 -3.931422e+000 1.181102e-001
      vertex   5.039372e+001 -3.942400e+000 1.181102e-001
      vertex   5.035326e+001 -4.064717e+000 1.181102e-001
    endloop
  endfacet
  facet normal 0.000000e+000 0.000000e+000 1.000000e+000
    outer loop
      vertex   5.090954e+001 -4.013701e+000 1.181102e-001
      vertex   5.051343e+001 -3.931422e+000 1.181102e-001
      vertex   5.035326e+001 -4.064717e+000 1.181102e-001
    endloop
  endfacet
  facet normal 0.000000e+000 -0.000000e+000 1.000000e+000
    outer loop
      vertex   5.090954e+001 -4.013701e+000 1.181102e-001
      vertex   5.120870e+001 -3.867659e+000 1.181102e-001
      vertex   5.051343e+001 -3.931422e+000 1.181102e-001
    endloop
  endfacet
  facet normal 0.000000e+000 -0.000000e+000 1.000000e+000
    outer loop
      vertex   5.090954e+001 -4.013701e+000 1.181102e-001
      vertex   5.146581e+001 -3.962686e+000 1.181102e-001
      vertex   5.120870e+001 -3.867659e+000 1.181102e-001
    endloop
  endfacet
  facet normal -0.000000e+000 0.000000e+000 1.000000e+000
    outer loop
      vertex   5.120870e+001 -3.867659e+000 1.181102e-001
      vertex   5.146581e+001 -3.962686e+000 1.181102e-001
      vertex   5.190398e+001 -3.803897e+000 1.181102e-001
    endloop
  endfacet
  facet normal -0.000000e+000 0.000000e+000 1.000000e+000
    outer loop
      vertex   5.190398e+001 -3.803897e+000 1.181102e-001
      vertex   5.146581e+001 -3.962686e+000 1.181102e-001
      vertex   5.202209e+001 -3.911671e+000 1.181102e-001
    endloop
  endfacet
  facet normal 0.000000e+000 0.000000e+000 1.000000e+000
    outer loop
      vertex   5.202209e+001 -3.731053e+000 1.181102e-001
      vertex   5.190398e+001 -3.803897e+000 1.181102e-001
      vertex   5.202209e+001 -3.911671e+000 1.181102e-001
    endloop
  endfacet
  facet normal 0.000000e+000 0.000000e+000 1.000000e+000
    outer loop
      vertex   5.202209e+001 -3.731053e+000 1.181102e-001
      vertex   5.190398e+001 -3.268493e+000 1.181102e-001
      vertex   5.190398e+001 -3.803897e+000 1.181102e-001
    endloop
  endfacet
  facet normal 0.000000e+000 0.000000e+000 1.000000e+000
    outer loop
      vertex   5.039372e+001 -3.942400e+000 1.181102e-001
      vertex   4.991509e+001 -3.986294e+000 1.181102e-001
      vertex   5.035326e+001 -4.064717e+000 1.181102e-001
    endloop
  endfacet
  facet normal 0.000000e+000 0.000000e+000 1.000000e+000
    outer loop
      vertex   5.035326e+001 -4.064717e+000 1.181102e-001
      vertex   4.991509e+001 -3.986294e+000 1.181102e-001
      vertex   4.979698e+001 -4.115732e+000 1.181102e-001
    endloop
  endfacet
  facet normal 0.000000e+000 -0.000000e+000 1.000000e+000
    outer loop
      vertex   4.979698e+001 -4.115732e+000 1.181102e-001
      vertex   4.991509e+001 -3.986294e+000 1.181102e-001
      vertex   4.979698e+001 -3.409271e+000 1.181102e-001
    endloop
  endfacet
  facet normal -0.000000e+000 0.000000e+000 1.000000e+000
    outer loop
      vertex   4.979698e+001 -3.409271e+000 1.181102e-001
      vertex   4.991509e+001 -3.986294e+000 1.181102e-001
      vertex   4.991509e+001 -3.291161e+000 1.181102e-001
    endloop
  endfacet
  facet normal -0.000000e+000 0.000000e+000 1.000000e+000
    outer loop
      vertex   4.978044e+001 -3.291161e+000 1.181102e-001
      vertex   4.979698e+001 -3.409271e+000 1.181102e-001
      vertex   4.991509e+001 -3.291161e+000 1.181102e-001
    endloop
  endfacet
  facet normal 0.000000e+000 0.000000e+000 1.000000e+000
    outer loop
      vertex   4.978044e+001 -3.291161e+000 1.181102e-001
      vertex   4.966233e+001 -3.291161e+000 1.181102e-001
      vertex   4.979698e+001 -3.409271e+000 1.181102e-001
    endloop
  endfacet
  facet normal 0.000000e+000 -0.000000e+000 1.000000e+000
    outer loop
      vertex   4.978044e+001 -3.291161e+000 1.181102e-001
      vertex   4.978044e+001 -2.869423e+000 1.181102e-001
      vertex   4.966233e+001 -3.291161e+000 1.181102e-001
    endloop
  endfacet
  facet normal 0.000000e+000 -0.000000e+000 1.000000e+000
    outer loop
      vertex   4.966233e+001 -3.291161e+000 1.181102e-001
      vertex   4.978044e+001 -2.869423e+000 1.181102e-001
      vertex   4.966233e+001 -2.869423e+000 1.181102e-001
    endloop
  endfacet
  facet normal 0.000000e+000 -0.000000e+000 1.000000e+000
    outer loop
      vertex   4.966233e+001 -2.869423e+000 1.181102e-001
      vertex   4.978044e+001 -2.869423e+000 1.181102e-001
      vertex   4.972138e+001 -2.738147e+000 1.181102e-001
    endloop
  endfacet
  facet normal -0.000000e+000 0.000000e+000 1.000000e+000
    outer loop
      vertex   4.906479e+001 -2.861538e+000 1.181102e-001
      vertex   4.966233e+001 -2.869423e+000 1.181102e-001
      vertex   4.972138e+001 -2.738147e+000 1.181102e-001
    endloop
  endfacet
  facet normal -0.000000e+000 0.000000e+000 1.000000e+000
    outer loop
      vertex   4.906479e+001 -2.861538e+000 1.181102e-001
      vertex   4.918290e+001 -2.959520e+000 1.181102e-001
      vertex   4.966233e+001 -2.869423e+000 1.181102e-001
    endloop
  endfacet
  facet normal -0.000000e+000 0.000000e+000 1.000000e+000
    outer loop
      vertex   4.906479e+001 -2.861538e+000 1.181102e-001
      vertex   4.906479e+001 -3.487281e+000 1.181102e-001
      vertex   4.918290e+001 -2.959520e+000 1.181102e-001
    endloop
  endfacet
  facet normal 0.000000e+000 0.000000e+000 1.000000e+000
    outer loop
      vertex   4.918290e+001 -2.959520e+000 1.181102e-001
      vertex   4.906479e+001 -3.487281e+000 1.181102e-001
      vertex   4.918290e+001 -3.605391e+000 1.181102e-001
    endloop
  endfacet
  facet normal 0.000000e+000 0.000000e+000 1.000000e+000
    outer loop
      vertex   4.918290e+001 -3.605391e+000 1.181102e-001
      vertex   4.906479e+001 -3.487281e+000 1.181102e-001
      vertex   4.904904e+001 -3.605391e+000 1.181102e-001
    endloop
  endfacet
  facet normal 0.000000e+000 -0.000000e+000 1.000000e+000
    outer loop
      vertex   4.904904e+001 -3.605391e+000 1.181102e-001
      vertex   4.906479e+001 -3.487281e+000 1.181102e-001
      vertex   4.891359e+001 -3.487281e+000 1.181102e-001
    endloop
  endfacet
  facet normal 0.000000e+000 0.000000e+000 1.000000e+000
    outer loop
      vertex   4.892934e+001 -3.605391e+000 1.181102e-001
      vertex   4.891359e+001 -3.487281e+000 1.181102e-001
      vertex   4.879548e+001 -3.605391e+000 1.181102e-001
    endloop
  endfacet
  facet normal 0.000000e+000 -0.000000e+000 1.000000e+000
    outer loop
      vertex   4.892934e+001 -3.605391e+000 1.181102e-001
      vertex   4.904904e+001 -3.605391e+000 1.181102e-001
      vertex   4.891359e+001 -3.487281e+000 1.181102e-001
    endloop
  endfacet
  facet normal -0.000000e+000 0.000000e+000 1.000000e+000
    outer loop
      vertex   4.892934e+001 -3.605391e+000 1.181102e-001
      vertex   4.892934e+001 -3.931422e+000 1.181102e-001
      vertex   4.904904e+001 -3.605391e+000 1.181102e-001
    endloop
  endfacet
  facet normal 0.000000e+000 0.000000e+000 1.000000e+000
    outer loop
      vertex   4.904904e+001 -3.605391e+000 1.181102e-001
      vertex   4.892934e+001 -3.931422e+000 1.181102e-001
      vertex   4.904904e+001 -3.942400e+000 1.181102e-001
    endloop
  endfacet
  facet normal 0.000000e+000 0.000000e+000 1.000000e+000
    outer loop
      vertex   4.904904e+001 -3.942400e+000 1.181102e-001
      vertex   4.892934e+001 -3.931422e+000 1.181102e-001
      vertex   4.908951e+001 -4.064717e+000 1.181102e-001
    endloop
  endfacet
  facet normal 0.000000e+000 0.000000e+000 1.000000e+000
    outer loop
      vertex   4.952767e+001 -3.986294e+000 1.181102e-001
      vertex   4.908951e+001 -4.064717e+000 1.181102e-001
      vertex   4.964578e+001 -4.115732e+000 1.181102e-001
    endloop
  endfacet
  facet normal 0.000000e+000 0.000000e+000 1.000000e+000
    outer loop
      vertex   4.964578e+001 -3.409271e+000 1.181102e-001
      vertex   4.952767e+001 -3.986294e+000 1.181102e-001
      vertex   4.964578e+001 -4.115732e+000 1.181102e-001
    endloop
  endfacet
  facet normal 0.000000e+000 0.000000e+000 1.000000e+000
    outer loop
      vertex   4.964578e+001 -3.409271e+000 1.181102e-001
      vertex   4.952767e+001 -3.291161e+000 1.181102e-001
      vertex   4.952767e+001 -3.986294e+000 1.181102e-001
    endloop
  endfacet
  facet normal 0.000000e+000 -0.000000e+000 1.000000e+000
    outer loop
      vertex   4.964578e+001 -3.409271e+000 1.181102e-001
      vertex   4.966233e+001 -3.291161e+000 1.181102e-001
      vertex   4.952767e+001 -3.291161e+000 1.181102e-001
    endloop
  endfacet
  facet normal 0.000000e+000 -0.000000e+000 1.000000e+000
    outer loop
      vertex   4.964578e+001 -3.409271e+000 1.181102e-001
      vertex   4.979698e+001 -3.409271e+000 1.181102e-001
      vertex   4.966233e+001 -3.291161e+000 1.181102e-001
    endloop
  endfacet
  facet normal -0.000000e+000 -0.000000e+000 1.000000e+000
    outer loop
      vertex   5.127563e+001 -3.150410e+000 1.181102e-001
      vertex   5.190398e+001 -3.268493e+000 1.181102e-001
      vertex   5.160269e+001 -3.197342e+000 1.181102e-001
    endloop
  endfacet
  facet normal 0.000000e+000 -0.000000e+000 1.000000e+000
    outer loop
      vertex   4.891359e+001 -3.487281e+000 1.181102e-001
      vertex   4.891359e+001 -2.889953e+000 1.181102e-001
      vertex   4.879548e+001 -3.032327e+000 1.181102e-001
    endloop
  endfacet
  facet normal 0.000000e+000 -0.000000e+000 1.000000e+000
    outer loop
      vertex   4.879548e+001 -3.605391e+000 1.181102e-001
      vertex   4.891359e+001 -3.487281e+000 1.181102e-001
      vertex   4.879548e+001 -3.032327e+000 1.181102e-001
    endloop
  endfacet
  facet normal 0.000000e+000 0.000000e+000 1.000000e+000
    outer loop
      vertex   4.879548e+001 -3.032327e+000 1.181102e-001
      vertex   4.816713e+001 -3.030232e+000 1.181102e-001
      vertex   4.816713e+001 -3.150410e+000 1.181102e-001
    endloop
  endfacet
  facet normal 0.000000e+000 -0.000000e+000 1.000000e+000
    outer loop
      vertex   4.879548e+001 -3.032327e+000 1.181102e-001
      vertex   4.891359e+001 -2.889953e+000 1.181102e-001
      vertex   4.816713e+001 -3.030232e+000 1.181102e-001
    endloop
  endfacet
  facet normal 0.000000e+000 0.000000e+000 1.000000e+000
    outer loop
      vertex   4.908951e+001 -4.064717e+000 1.181102e-001
      vertex   4.892934e+001 -3.931422e+000 1.181102e-001
      vertex   4.853323e+001 -4.013701e+000 1.181102e-001
    endloop
  endfacet
  facet normal 0.000000e+000 -0.000000e+000 1.000000e+000
    outer loop
      vertex   4.853323e+001 -4.013701e+000 1.181102e-001
      vertex   4.892934e+001 -3.931422e+000 1.181102e-001
      vertex   4.823406e+001 -3.867659e+000 1.181102e-001
    endloop
  endfacet
  facet normal 0.000000e+000 -0.000000e+000 1.000000e+000
    outer loop
      vertex   4.797695e+001 -3.962686e+000 1.181102e-001
      vertex   4.823406e+001 -3.867659e+000 1.181102e-001
      vertex   4.753879e+001 -3.803897e+000 1.181102e-001
    endloop
  endfacet
  facet normal 0.000000e+000 -0.000000e+000 1.000000e+000
    outer loop
      vertex   4.742068e+001 -3.911671e+000 1.181102e-001
      vertex   4.753879e+001 -3.803897e+000 1.181102e-001
      vertex   4.742068e+001 -3.731053e+000 1.181102e-001
    endloop
  endfacet
  facet normal -0.000000e+000 -0.000000e+000 1.000000e+000
    outer loop
      vertex   4.742068e+001 -3.911671e+000 1.181102e-001
      vertex   4.797695e+001 -3.962686e+000 1.181102e-001
      vertex   4.753879e+001 -3.803897e+000 1.181102e-001
    endloop
  endfacet
  facet normal -0.000000e+000 -0.000000e+000 1.000000e+000
    outer loop
      vertex   4.742068e+001 -3.731053e+000 1.181102e-001
      vertex   4.753879e+001 -3.803897e+000 1.181102e-001
      vertex   4.742068e+001 -3.348730e+000 1.181102e-001
    endloop
  endfacet
  facet normal -0.000000e+000 0.000000e+000 1.000000e+000
    outer loop
      vertex   4.730257e+001 -3.348730e+000 1.181102e-001
      vertex   4.742068e+001 -3.731053e+000 1.181102e-001
      vertex   4.742068e+001 -3.348730e+000 1.181102e-001
    endloop
  endfacet
  facet normal -0.000000e+000 0.000000e+000 1.000000e+000
    outer loop
      vertex   4.730257e+001 -3.348730e+000 1.181102e-001
      vertex   4.730257e+001 -3.731053e+000 1.181102e-001
      vertex   4.742068e+001 -3.731053e+000 1.181102e-001
    endloop
  endfacet
  facet normal 0.000000e+000 0.000000e+000 1.000000e+000
    outer loop
      vertex   4.952767e+001 -3.986294e+000 1.181102e-001
      vertex   4.904904e+001 -3.942400e+000 1.181102e-001
      vertex   4.908951e+001 -4.064717e+000 1.181102e-001
    endloop
  endfacet
  facet normal 0.000000e+000 -0.000000e+000 1.000000e+000
    outer loop
      vertex   4.742068e+001 -3.348730e+000 1.181102e-001
      vertex   4.753879e+001 -3.268493e+000 1.181102e-001
      vertex   4.742068e+001 -3.170512e+000 1.181102e-001
    endloop
  endfacet
  facet normal -0.000000e+000 0.000000e+000 1.000000e+000
    outer loop
      vertex   4.742068e+001 -3.348730e+000 1.181102e-001
      vertex   4.753879e+001 -3.803897e+000 1.181102e-001
      vertex   4.753879e+001 -3.268493e+000 1.181102e-001
    endloop
  endfacet
  facet normal -0.000000e+000 -0.000000e+000 1.000000e+000
    outer loop
      vertex   4.797695e+001 -3.962686e+000 1.181102e-001
      vertex   4.853323e+001 -4.013701e+000 1.181102e-001
      vertex   4.823406e+001 -3.867659e+000 1.181102e-001
    endloop
  endfacet
  facet normal 0.000000e+000 -0.000000e+000 1.000000e+000
    outer loop
      vertex   5.202209e+001 -3.348730e+000 1.181102e-001
      vertex   5.202209e+001 -3.170512e+000 1.181102e-001
      vertex   5.190398e+001 -3.268493e+000 1.181102e-001
    endloop
  endfacet
  facet normal 0.000000e+000 0.000000e+000 1.000000e+000
    outer loop
      vertex   5.202209e+001 -3.170512e+000 1.181102e-001
      vertex   5.127563e+001 -3.030232e+000 1.181102e-001
      vertex   5.160269e+001 -3.197342e+000 1.181102e-001
    endloop
  endfacet
  facet normal 0.000000e+000 0.000000e+000 1.000000e+000
    outer loop
      vertex   5.052918e+001 -3.487281e+000 1.181102e-001
      vertex   5.037798e+001 -3.487281e+000 1.181102e-001
      vertex   5.051343e+001 -3.605391e+000 1.181102e-001
    endloop
  endfacet
  facet normal 0.000000e+000 0.000000e+000 1.000000e+000
    outer loop
      vertex   5.037798e+001 -2.861538e+000 1.181102e-001
      vertex   4.972138e+001 -2.738147e+000 1.181102e-001
      vertex   5.025986e+001 -2.959520e+000 1.181102e-001
    endloop
  endfacet
  facet normal 0.000000e+000 0.000000e+000 1.000000e+000
    outer loop
      vertex   5.025986e+001 -2.959520e+000 1.181102e-001
      vertex   4.972138e+001 -2.738147e+000 1.181102e-001
      vertex   4.978044e+001 -2.869423e+000 1.181102e-001
    endloop
  endfacet
  facet normal 0.000000e+000 -0.000000e+000 1.000000e+000
    outer loop
      vertex   4.816713e+001 -3.150410e+000 1.181102e-001
      vertex   4.816713e+001 -3.030232e+000 1.181102e-001
      vertex   4.784008e+001 -3.197342e+000 1.181102e-001
    endloop
  endfacet
  facet normal 0.000000e+000 -0.000000e+000 1.000000e+000
    outer loop
      vertex   4.753879e+001 -3.268493e+000 1.181102e-001
      vertex   4.784008e+001 -3.197342e+000 1.181102e-001
      vertex   4.742068e+001 -3.170512e+000 1.181102e-001
    endloop
  endfacet
  facet normal 0.000000e+000 -0.000000e+000 1.000000e+000
    outer loop
      vertex   4.753879e+001 -3.268493e+000 1.181102e-001
      vertex   4.816713e+001 -3.150410e+000 1.181102e-001
      vertex   4.784008e+001 -3.197342e+000 1.181102e-001
    endloop
  endfacet
  facet normal 0.000000e+000 -0.000000e+000 1.000000e+000
    outer loop
      vertex   4.784008e+001 -3.197342e+000 1.181102e-001
      vertex   4.816713e+001 -3.030232e+000 1.181102e-001
      vertex   4.742068e+001 -3.170512e+000 1.181102e-001
    endloop
  endfacet
  facet normal 0.000000e+000 0.000000e+000 -1.000000e+000
    outer loop
      vertex   5.039372e+001 -3.605391e+000 0.000000e+000
      vertex   5.025986e+001 -3.605391e+000 0.000000e+000
      vertex   5.037798e+001 -3.487281e+000 0.000000e+000
    endloop
  endfacet
  facet normal -0.000000e+000 0.000000e+000 -1.000000e+000
    outer loop
      vertex   5.052918e+001 -3.487281e+000 0.000000e+000
      vertex   5.039372e+001 -3.605391e+000 0.000000e+000
      vertex   5.037798e+001 -3.487281e+000 0.000000e+000
    endloop
  endfacet
  facet normal -0.000000e+000 0.000000e+000 -1.000000e+000
    outer loop
      vertex   5.052918e+001 -3.487281e+000 0.000000e+000
      vertex   5.051343e+001 -3.605391e+000 0.000000e+000
      vertex   5.039372e+001 -3.605391e+000 0.000000e+000
    endloop
  endfacet
  facet normal -0.000000e+000 -0.000000e+000 -1.000000e+000
    outer loop
      vertex   5.052918e+001 -3.487281e+000 0.000000e+000
      vertex   5.064729e+001 -3.605391e+000 0.000000e+000
      vertex   5.051343e+001 -3.605391e+000 0.000000e+000
    endloop
  endfacet
  facet normal 0.000000e+000 0.000000e+000 -1.000000e+000
    outer loop
      vertex   5.052918e+001 -3.487281e+000 0.000000e+000
      vertex   5.064729e+001 -3.032327e+000 0.000000e+000
      vertex   5.064729e+001 -3.605391e+000 0.000000e+000
    endloop
  endfacet
  facet normal 0.000000e+000 0.000000e+000 -1.000000e+000
    outer loop
      vertex   5.052918e+001 -3.487281e+000 0.000000e+000
      vertex   5.052918e+001 -2.889953e+000 0.000000e+000
      vertex   5.064729e+001 -3.032327e+000 0.000000e+000
    endloop
  endfacet
  facet normal 0.000000e+000 0.000000e+000 -1.000000e+000
    outer loop
      vertex   5.064729e+001 -3.032327e+000 0.000000e+000
      vertex   5.052918e+001 -2.889953e+000 0.000000e+000
      vertex   5.127563e+001 -3.030232e+000 0.000000e+000
    endloop
  endfacet
  facet normal 0.000000e+000 0.000000e+000 -1.000000e+000
    outer loop
      vertex   5.127563e+001 -3.150410e+000 0.000000e+000
      vertex   5.127563e+001 -3.030232e+000 0.000000e+000
      vertex   5.160269e+001 -3.197342e+000 0.000000e+000
    endloop
  endfacet
  facet normal 0.000000e+000 0.000000e+000 -1.000000e+000
    outer loop
      vertex   5.190398e+001 -3.268493e+000 0.000000e+000
      vertex   5.160269e+001 -3.197342e+000 0.000000e+000
      vertex   5.202209e+001 -3.170512e+000 0.000000e+000
    endloop
  endfacet
  facet normal 0.000000e+000 0.000000e+000 -1.000000e+000
    outer loop
      vertex   5.202209e+001 -3.348730e+000 0.000000e+000
      vertex   5.190398e+001 -3.268493e+000 0.000000e+000
      vertex   5.202209e+001 -3.170512e+000 0.000000e+000
    endloop
  endfacet
  facet normal -0.000000e+000 0.000000e+000 -1.000000e+000
    outer loop
      vertex   5.202209e+001 -3.348730e+000 0.000000e+000
      vertex   5.190398e+001 -3.803897e+000 0.000000e+000
      vertex   5.190398e+001 -3.268493e+000 0.000000e+000
    endloop
  endfacet
  facet normal 0.000000e+000 -0.000000e+000 -1.000000e+000
    outer loop
      vertex   5.202209e+001 -3.348730e+000 0.000000e+000
      vertex   5.202209e+001 -3.731053e+000 0.000000e+000
      vertex   5.190398e+001 -3.803897e+000 0.000000e+000
    endloop
  endfacet
  facet normal 0.000000e+000 -0.000000e+000 -1.000000e+000
    outer loop
      vertex   5.202209e+001 -3.348730e+000 0.000000e+000
      vertex   5.214020e+001 -3.348730e+000 0.000000e+000
      vertex   5.202209e+001 -3.731053e+000 0.000000e+000
    endloop
  endfacet
  facet normal 0.000000e+000 0.000000e+000 -1.000000e+000
    outer loop
      vertex   5.202209e+001 -3.731053e+000 0.000000e+000
      vertex   5.214020e+001 -3.348730e+000 0.000000e+000
      vertex   5.214020e+001 -3.731053e+000 0.000000e+000
    endloop
  endfacet
  facet normal 0.000000e+000 0.000000e+000 -1.000000e+000
    outer loop
      vertex   4.966233e+001 -2.869423e+000 0.000000e+000
      vertex   4.972138e+001 -2.738147e+000 0.000000e+000
      vertex   4.978044e+001 -2.869423e+000 0.000000e+000
    endloop
  endfacet
  facet normal 0.000000e+000 0.000000e+000 -1.000000e+000
    outer loop
      vertex   4.978044e+001 -3.291161e+000 0.000000e+000
      vertex   4.966233e+001 -2.869423e+000 0.000000e+000
      vertex   4.978044e+001 -2.869423e+000 0.000000e+000
    endloop
  endfacet
  facet normal 0.000000e+000 0.000000e+000 -1.000000e+000
    outer loop
      vertex   4.978044e+001 -3.291161e+000 0.000000e+000
      vertex   4.966233e+001 -3.291161e+000 0.000000e+000
      vertex   4.966233e+001 -2.869423e+000 0.000000e+000
    endloop
  endfacet
  facet normal -0.000000e+000 0.000000e+000 -1.000000e+000
    outer loop
      vertex   4.978044e+001 -3.291161e+000 0.000000e+000
      vertex   4.964578e+001 -3.409271e+000 0.000000e+000
      vertex   4.966233e+001 -3.291161e+000 0.000000e+000
    endloop
  endfacet
  facet normal -0.000000e+000 -0.000000e+000 -1.000000e+000
    outer loop
      vertex   4.978044e+001 -3.291161e+000 0.000000e+000
      vertex   4.979698e+001 -3.409271e+000 0.000000e+000
      vertex   4.964578e+001 -3.409271e+000 0.000000e+000
    endloop
  endfacet
  facet normal 0.000000e+000 -0.000000e+000 -1.000000e+000
    outer loop
      vertex   4.978044e+001 -3.291161e+000 0.000000e+000
      vertex   4.991509e+001 -3.291161e+000 0.000000e+000
      vertex   4.979698e+001 -3.409271e+000 0.000000e+000
    endloop
  endfacet
  facet normal 0.000000e+000 0.000000e+000 -1.000000e+000
    outer loop
      vertex   4.979698e+001 -3.409271e+000 0.000000e+000
      vertex   4.991509e+001 -3.291161e+000 0.000000e+000
      vertex   4.991509e+001 -3.986294e+000 0.000000e+000
    endloop
  endfacet
  facet normal 0.000000e+000 0.000000e+000 -1.000000e+000
    outer loop
      vertex   4.979698e+001 -4.115732e+000 0.000000e+000
      vertex   4.991509e+001 -3.986294e+000 0.000000e+000
      vertex   5.035326e+001 -4.064717e+000 0.000000e+000
    endloop
  endfacet
  facet normal 0.000000e+000 0.000000e+000 -1.000000e+000
    outer loop
      vertex   4.979698e+001 -4.115732e+000 0.000000e+000
      vertex   4.979698e+001 -3.409271e+000 0.000000e+000
      vertex   4.991509e+001 -3.986294e+000 0.000000e+000
    endloop
  endfacet
  facet normal 0.000000e+000 -0.000000e+000 -1.000000e+000
    outer loop
      vertex   4.991509e+001 -3.986294e+000 0.000000e+000
      vertex   5.039372e+001 -3.942400e+000 0.000000e+000
      vertex   5.035326e+001 -4.064717e+000 0.000000e+000
    endloop
  endfacet
  facet normal 0.000000e+000 0.000000e+000 -1.000000e+000
    outer loop
      vertex   5.035326e+001 -4.064717e+000 0.000000e+000
      vertex   5.039372e+001 -3.942400e+000 0.000000e+000
      vertex   5.051343e+001 -3.931422e+000 0.000000e+000
    endloop
  endfacet
  facet normal 0.000000e+000 0.000000e+000 -1.000000e+000
    outer loop
      vertex   5.090954e+001 -4.013701e+000 0.000000e+000
      vertex   5.051343e+001 -3.931422e+000 0.000000e+000
      vertex   5.120870e+001 -3.867659e+000 0.000000e+000
    endloop
  endfacet
  facet normal 0.000000e+000 0.000000e+000 -1.000000e+000
    outer loop
      vertex   5.146581e+001 -3.962686e+000 0.000000e+000
      vertex   5.120870e+001 -3.867659e+000 0.000000e+000
      vertex   5.190398e+001 -3.803897e+000 0.000000e+000
    endloop
  endfacet
  facet normal 0.000000e+000 0.000000e+000 -1.000000e+000
    outer loop
      vertex   5.202209e+001 -3.911671e+000 0.000000e+000
      vertex   5.190398e+001 -3.803897e+000 0.000000e+000
      vertex   5.202209e+001 -3.731053e+000 0.000000e+000
    endloop
  endfacet
  facet normal -0.000000e+000 0.000000e+000 -1.000000e+000
    outer loop
      vertex   5.202209e+001 -3.911671e+000 0.000000e+000
      vertex   5.146581e+001 -3.962686e+000 0.000000e+000
      vertex   5.190398e+001 -3.803897e+000 0.000000e+000
    endloop
  endfacet
  facet normal 0.000000e+000 0.000000e+000 -1.000000e+000
    outer loop
      vertex   5.039372e+001 -3.942400e+000 0.000000e+000
      vertex   5.039372e+001 -3.605391e+000 0.000000e+000
      vertex   5.051343e+001 -3.931422e+000 0.000000e+000
    endloop
  endfacet
  facet normal 0.000000e+000 0.000000e+000 -1.000000e+000
    outer loop
      vertex   5.051343e+001 -3.931422e+000 0.000000e+000
      vertex   5.039372e+001 -3.605391e+000 0.000000e+000
      vertex   5.051343e+001 -3.605391e+000 0.000000e+000
    endloop
  endfacet
  facet normal 0.000000e+000 0.000000e+000 -1.000000e+000
    outer loop
      vertex   5.190398e+001 -3.268493e+000 0.000000e+000
      vertex   5.127563e+001 -3.150410e+000 0.000000e+000
      vertex   5.160269e+001 -3.197342e+000 0.000000e+000
    endloop
  endfacet
  facet normal 0.000000e+000 0.000000e+000 -1.000000e+000
    outer loop
      vertex   5.127563e+001 -3.150410e+000 0.000000e+000
      vertex   5.064729e+001 -3.032327e+000 0.000000e+000
      vertex   5.127563e+001 -3.030232e+000 0.000000e+000
    endloop
  endfacet
  facet normal 0.000000e+000 0.000000e+000 -1.000000e+000
    outer loop
      vertex   4.892934e+001 -3.605391e+000 0.000000e+000
      vertex   4.879548e+001 -3.605391e+000 0.000000e+000
      vertex   4.891359e+001 -3.487281e+000 0.000000e+000
    endloop
  endfacet
  facet normal -0.000000e+000 0.000000e+000 -1.000000e+000
    outer loop
      vertex   4.906479e+001 -3.487281e+000 0.000000e+000
      vertex   4.892934e+001 -3.605391e+000 0.000000e+000
      vertex   4.891359e+001 -3.487281e+000 0.000000e+000
    endloop
  endfacet
  facet normal -0.000000e+000 0.000000e+000 -1.000000e+000
    outer loop
      vertex   4.906479e+001 -3.487281e+000 0.000000e+000
      vertex   4.904904e+001 -3.605391e+000 0.000000e+000
      vertex   4.892934e+001 -3.605391e+000 0.000000e+000
    endloop
  endfacet
  facet normal -0.000000e+000 -0.000000e+000 -1.000000e+000
    outer loop
      vertex   4.906479e+001 -3.487281e+000 0.000000e+000
      vertex   4.918290e+001 -3.605391e+000 0.000000e+000
      vertex   4.904904e+001 -3.605391e+000 0.000000e+000
    endloop
  endfacet
  facet normal 0.000000e+000 0.000000e+000 -1.000000e+000
    outer loop
      vertex   4.906479e+001 -3.487281e+000 0.000000e+000
      vertex   4.918290e+001 -2.959520e+000 0.000000e+000
      vertex   4.918290e+001 -3.605391e+000 0.000000e+000
    endloop
  endfacet
  facet normal 0.000000e+000 0.000000e+000 -1.000000e+000
    outer loop
      vertex   4.906479e+001 -3.487281e+000 0.000000e+000
      vertex   4.906479e+001 -2.861538e+000 0.000000e+000
      vertex   4.918290e+001 -2.959520e+000 0.000000e+000
    endloop
  endfacet
  facet normal 0.000000e+000 0.000000e+000 -1.000000e+000
    outer loop
      vertex   4.918290e+001 -2.959520e+000 0.000000e+000
      vertex   4.906479e+001 -2.861538e+000 0.000000e+000
      vertex   4.972138e+001 -2.738147e+000 0.000000e+000
    endloop
  endfacet
  facet normal -0.000000e+000 0.000000e+000 -1.000000e+000
    outer loop
      vertex   4.966233e+001 -2.869423e+000 0.000000e+000
      vertex   4.918290e+001 -2.959520e+000 0.000000e+000
      vertex   4.972138e+001 -2.738147e+000 0.000000e+000
    endloop
  endfacet
  facet normal 0.000000e+000 0.000000e+000 -1.000000e+000
    outer loop
      vertex   4.742068e+001 -3.348730e+000 0.000000e+000
      vertex   4.742068e+001 -3.170512e+000 0.000000e+000
      vertex   4.753879e+001 -3.268493e+000 0.000000e+000
    endloop
  endfacet
  facet normal 0.000000e+000 0.000000e+000 -1.000000e+000
    outer loop
      vertex   4.742068e+001 -3.731053e+000 0.000000e+000
      vertex   4.753879e+001 -3.268493e+000 0.000000e+000
      vertex   4.753879e+001 -3.803897e+000 0.000000e+000
    endloop
  endfacet
  facet normal 0.000000e+000 0.000000e+000 -1.000000e+000
    outer loop
      vertex   4.742068e+001 -3.911671e+000 0.000000e+000
      vertex   4.753879e+001 -3.803897e+000 0.000000e+000
      vertex   4.797695e+001 -3.962686e+000 0.000000e+000
    endloop
  endfacet
  facet normal 0.000000e+000 0.000000e+000 -1.000000e+000
    outer loop
      vertex   4.742068e+001 -3.911671e+000 0.000000e+000
      vertex   4.742068e+001 -3.731053e+000 0.000000e+000
      vertex   4.753879e+001 -3.803897e+000 0.000000e+000
    endloop
  endfacet
  facet normal 0.000000e+000 0.000000e+000 -1.000000e+000
    outer loop
      vertex   4.753879e+001 -3.268493e+000 0.000000e+000
      vertex   4.784008e+001 -3.197342e+000 0.000000e+000
      vertex   4.816713e+001 -3.150410e+000 0.000000e+000
    endloop
  endfacet
  facet normal 0.000000e+000 0.000000e+000 -1.000000e+000
    outer loop
      vertex   4.753879e+001 -3.268493e+000 0.000000e+000
      vertex   4.742068e+001 -3.170512e+000 0.000000e+000
      vertex   4.784008e+001 -3.197342e+000 0.000000e+000
    endloop
  endfacet
  facet normal 0.000000e+000 0.000000e+000 -1.000000e+000
    outer loop
      vertex   4.784008e+001 -3.197342e+000 0.000000e+000
      vertex   4.742068e+001 -3.170512e+000 0.000000e+000
      vertex   4.816713e+001 -3.030232e+000 0.000000e+000
    endloop
  endfacet
  facet normal 0.000000e+000 0.000000e+000 -1.000000e+000
    outer loop
      vertex   4.816713e+001 -3.150410e+000 0.000000e+000
      vertex   4.816713e+001 -3.030232e+000 0.000000e+000
      vertex   4.879548e+001 -3.032327e+000 0.000000e+000
    endloop
  endfacet
  facet normal -0.000000e+000 0.000000e+000 -1.000000e+000
    outer loop
      vertex   4.816713e+001 -3.150410e+000 0.000000e+000
      vertex   4.784008e+001 -3.197342e+000 0.000000e+000
      vertex   4.816713e+001 -3.030232e+000 0.000000e+000
    endloop
  endfacet
  facet normal 0.000000e+000 -0.000000e+000 -1.000000e+000
    outer loop
      vertex   4.753879e+001 -3.803897e+000 0.000000e+000
      vertex   4.823406e+001 -3.867659e+000 0.000000e+000
      vertex   4.797695e+001 -3.962686e+000 0.000000e+000
    endloop
  endfacet
  facet normal 0.000000e+000 0.000000e+000 -1.000000e+000
    outer loop
      vertex   4.797695e+001 -3.962686e+000 0.000000e+000
      vertex   4.823406e+001 -3.867659e+000 0.000000e+000
      vertex   4.853323e+001 -4.013701e+000 0.000000e+000
    endloop
  endfacet
  facet normal 0.000000e+000 0.000000e+000 -1.000000e+000
    outer loop
      vertex   4.853323e+001 -4.013701e+000 0.000000e+000
      vertex   4.823406e+001 -3.867659e+000 0.000000e+000
      vertex   4.892934e+001 -3.931422e+000 0.000000e+000
    endloop
  endfacet
  facet normal 0.000000e+000 0.000000e+000 -1.000000e+000
    outer loop
      vertex   4.908951e+001 -4.064717e+000 0.000000e+000
      vertex   4.892934e+001 -3.931422e+000 0.000000e+000
      vertex   4.904904e+001 -3.942400e+000 0.000000e+000
    endloop
  endfacet
  facet normal -0.000000e+000 0.000000e+000 -1.000000e+000
    outer loop
      vertex   4.952767e+001 -3.986294e+000 0.000000e+000
      vertex   4.908951e+001 -4.064717e+000 0.000000e+000
      vertex   4.904904e+001 -3.942400e+000 0.000000e+000
    endloop
  endfacet
  facet normal -0.000000e+000 -0.000000e+000 -1.000000e+000
    outer loop
      vertex   4.952767e+001 -3.986294e+000 0.000000e+000
      vertex   4.964578e+001 -4.115732e+000 0.000000e+000
      vertex   4.908951e+001 -4.064717e+000 0.000000e+000
    endloop
  endfacet
  facet normal 0.000000e+000 0.000000e+000 -1.000000e+000
    outer loop
      vertex   4.952767e+001 -3.986294e+000 0.000000e+000
      vertex   4.964578e+001 -3.409271e+000 0.000000e+000
      vertex   4.964578e+001 -4.115732e+000 0.000000e+000
    endloop
  endfacet
  facet normal 0.000000e+000 0.000000e+000 -1.000000e+000
    outer loop
      vertex   4.952767e+001 -3.986294e+000 0.000000e+000
      vertex   4.952767e+001 -3.291161e+000 0.000000e+000
      vertex   4.964578e+001 -3.409271e+000 0.000000e+000
    endloop
  endfacet
  facet normal 0.000000e+000 0.000000e+000 -1.000000e+000
    outer loop
      vertex   4.964578e+001 -3.409271e+000 0.000000e+000
      vertex   4.952767e+001 -3.291161e+000 0.000000e+000
      vertex   4.966233e+001 -3.291161e+000 0.000000e+000
    endloop
  endfacet
  facet normal 0.000000e+000 0.000000e+000 -1.000000e+000
    outer loop
      vertex   4.892934e+001 -3.931422e+000 0.000000e+000
      vertex   4.892934e+001 -3.605391e+000 0.000000e+000
      vertex   4.904904e+001 -3.942400e+000 0.000000e+000
    endloop
  endfacet
  facet normal 0.000000e+000 0.000000e+000 -1.000000e+000
    outer loop
      vertex   4.904904e+001 -3.942400e+000 0.000000e+000
      vertex   4.892934e+001 -3.605391e+000 0.000000e+000
      vertex   4.904904e+001 -3.605391e+000 0.000000e+000
    endloop
  endfacet
  facet normal 0.000000e+000 0.000000e+000 -1.000000e+000
    outer loop
      vertex   4.730257e+001 -3.731053e+000 0.000000e+000
      vertex   4.730257e+001 -3.348730e+000 0.000000e+000
      vertex   4.742068e+001 -3.731053e+000 0.000000e+000
    endloop
  endfacet
  facet normal 0.000000e+000 0.000000e+000 -1.000000e+000
    outer loop
      vertex   4.742068e+001 -3.731053e+000 0.000000e+000
      vertex   4.730257e+001 -3.348730e+000 0.000000e+000
      vertex   4.742068e+001 -3.348730e+000 0.000000e+000
    endloop
  endfacet
  facet normal -0.000000e+000 0.000000e+000 -1.000000e+000
    outer loop
      vertex   4.753879e+001 -3.268493e+000 0.000000e+000
      vertex   4.742068e+001 -3.731053e+000 0.000000e+000
      vertex   4.742068e+001 -3.348730e+000 0.000000e+000
    endloop
  endfacet
  facet normal 0.000000e+000 -0.000000e+000 -1.000000e+000
    outer loop
      vertex   4.816713e+001 -3.030232e+000 0.000000e+000
      vertex   4.891359e+001 -2.889953e+000 0.000000e+000
      vertex   4.879548e+001 -3.032327e+000 0.000000e+000
    endloop
  endfacet
  facet normal 0.000000e+000 0.000000e+000 -1.000000e+000
    outer loop
      vertex   4.879548e+001 -3.032327e+000 0.000000e+000
      vertex   4.891359e+001 -2.889953e+000 0.000000e+000
      vertex   4.891359e+001 -3.487281e+000 0.000000e+000
    endloop
  endfacet
  facet normal 0.000000e+000 0.000000e+000 -1.000000e+000
    outer loop
      vertex   4.879548e+001 -3.605391e+000 0.000000e+000
      vertex   4.879548e+001 -3.032327e+000 0.000000e+000
      vertex   4.891359e+001 -3.487281e+000 0.000000e+000
    endloop
  endfacet
  facet normal 0.000000e+000 -0.000000e+000 -1.000000e+000
    outer loop
      vertex   4.972138e+001 -2.738147e+000 0.000000e+000
      vertex   5.037798e+001 -2.861538e+000 0.000000e+000
      vertex   4.978044e+001 -2.869423e+000 0.000000e+000
    endloop
  endfacet
  facet normal 0.000000e+000 -0.000000e+000 -1.000000e+000
    outer loop
      vertex   4.978044e+001 -2.869423e+000 0.000000e+000
      vertex   5.037798e+001 -2.861538e+000 0.000000e+000
      vertex   5.025986e+001 -2.959520e+000 0.000000e+000
    endloop
  endfacet
  facet normal 0.000000e+000 0.000000e+000 -1.000000e+000
    outer loop
      vertex   5.025986e+001 -2.959520e+000 0.000000e+000
      vertex   5.037798e+001 -2.861538e+000 0.000000e+000
      vertex   5.037798e+001 -3.487281e+000 0.000000e+000
    endloop
  endfacet
  facet normal 0.000000e+000 0.000000e+000 -1.000000e+000
    outer loop
      vertex   5.025986e+001 -3.605391e+000 0.000000e+000
      vertex   5.025986e+001 -2.959520e+000 0.000000e+000
      vertex   5.037798e+001 -3.487281e+000 0.000000e+000
    endloop
  endfacet
  facet normal 0.000000e+000 -0.000000e+000 -1.000000e+000
    outer loop
      vertex   5.127563e+001 -3.030232e+000 0.000000e+000
      vertex   5.202209e+001 -3.170512e+000 0.000000e+000
      vertex   5.160269e+001 -3.197342e+000 0.000000e+000
    endloop
  endfacet
  facet normal -0.000000e+000 0.000000e+000 -1.000000e+000
    outer loop
      vertex   5.146581e+001 -3.962686e+000 0.000000e+000
      vertex   5.090954e+001 -4.013701e+000 0.000000e+000
      vertex   5.120870e+001 -3.867659e+000 0.000000e+000
    endloop
  endfacet
  facet normal -0.000000e+000 0.000000e+000 -1.000000e+000
    outer loop
      vertex   5.090954e+001 -4.013701e+000 0.000000e+000
      vertex   5.035326e+001 -4.064717e+000 0.000000e+000
      vertex   5.051343e+001 -3.931422e+000 0.000000e+000
    endloop
  endfacet
  facet normal 0.000000e+000 0.000000e+000 -1.000000e+000
    outer loop
      vertex   4.908951e+001 -4.064717e+000 0.000000e+000
      vertex   4.853323e+001 -4.013701e+000 0.000000e+000
      vertex   4.892934e+001 -3.931422e+000 0.000000e+000
    endloop
  endfacet
endsolid
