solid ascii
  facet normal 2.399382e-014 1.000000e+000 0.000000e+000
    outer loop
      vertex   8.488456e+001 1.459913e+000 1.181102e-001
      vertex   8.544564e+001 1.459913e+000 1.181102e-001
      vertex   8.488456e+001 1.459913e+000 0.000000e+000
    endloop
  endfacet
  facet normal 2.399382e-014 1.000000e+000 0.000000e+000
    outer loop
      vertex   8.488456e+001 1.459913e+000 0.000000e+000
      vertex   8.544564e+001 1.459913e+000 1.181102e-001
      vertex   8.544564e+001 1.459913e+000 0.000000e+000
    endloop
  endfacet
  facet normal 2.087774e-014 1.000000e+000 -0.000000e+000
    outer loop
      vertex   8.544564e+001 1.459913e+000 0.000000e+000
      vertex   8.544564e+001 1.459913e+000 1.181102e-001
      vertex   8.600673e+001 1.459913e+000 1.181102e-001
    endloop
  endfacet
  facet normal 2.087774e-014 1.000000e+000 0.000000e+000
    outer loop
      vertex   8.600673e+001 1.459913e+000 0.000000e+000
      vertex   8.544564e+001 1.459913e+000 0.000000e+000
      vertex   8.600673e+001 1.459913e+000 1.181102e-001
    endloop
  endfacet
  facet normal -1.000000e+000 0.000000e+000 -0.000000e+000
    outer loop
      vertex   8.600673e+001 1.459913e+000 1.181102e-001
      vertex   8.600673e+001 1.595367e+000 1.181102e-001
      vertex   8.600673e+001 1.459913e+000 0.000000e+000
    endloop
  endfacet
  facet normal -1.000000e+000 0.000000e+000 0.000000e+000
    outer loop
      vertex   8.600673e+001 1.459913e+000 0.000000e+000
      vertex   8.600673e+001 1.595367e+000 1.181102e-001
      vertex   8.600673e+001 1.595367e+000 0.000000e+000
    endloop
  endfacet
  facet normal -2.455807e-014 1.000000e+000 0.000000e+000
    outer loop
      vertex   8.600673e+001 1.595367e+000 1.181102e-001
      vertex   8.664747e+001 1.595367e+000 1.181102e-001
      vertex   8.600673e+001 1.595367e+000 0.000000e+000
    endloop
  endfacet
  facet normal -2.455807e-014 1.000000e+000 0.000000e+000
    outer loop
      vertex   8.600673e+001 1.595367e+000 0.000000e+000
      vertex   8.664747e+001 1.595367e+000 1.181102e-001
      vertex   8.664747e+001 1.595367e+000 0.000000e+000
    endloop
  endfacet
  facet normal 1.000000e+000 3.304331e-013 0.000000e+000
    outer loop
      vertex   8.664747e+001 1.595367e+000 1.181102e-001
      vertex   8.664747e+001 1.459913e+000 1.181102e-001
      vertex   8.664747e+001 1.595367e+000 0.000000e+000
    endloop
  endfacet
  facet normal 1.000000e+000 3.304331e-013 0.000000e+000
    outer loop
      vertex   8.664747e+001 1.595367e+000 0.000000e+000
      vertex   8.664747e+001 1.459913e+000 1.181102e-001
      vertex   8.664747e+001 1.459913e+000 0.000000e+000
    endloop
  endfacet
  facet normal -8.947066e-016 1.000000e+000 0.000000e+000
    outer loop
      vertex   8.664747e+001 1.459913e+000 1.181102e-001
      vertex   8.723371e+001 1.459913e+000 1.181102e-001
      vertex   8.664747e+001 1.459913e+000 0.000000e+000
    endloop
  endfacet
  facet normal -8.947066e-016 1.000000e+000 0.000000e+000
    outer loop
      vertex   8.664747e+001 1.459913e+000 0.000000e+000
      vertex   8.723371e+001 1.459913e+000 1.181102e-001
      vertex   8.723371e+001 1.459913e+000 0.000000e+000
    endloop
  endfacet
  facet normal 1.000000e+000 0.000000e+000 0.000000e+000
    outer loop
      vertex   8.723371e+001 1.459913e+000 1.181102e-001
      vertex   8.723371e+001 1.139441e+000 1.181102e-001
      vertex   8.723371e+001 1.459913e+000 0.000000e+000
    endloop
  endfacet
  facet normal 1.000000e+000 0.000000e+000 0.000000e+000
    outer loop
      vertex   8.723371e+001 1.459913e+000 0.000000e+000
      vertex   8.723371e+001 1.139441e+000 1.181102e-001
      vertex   8.723371e+001 1.139441e+000 0.000000e+000
    endloop
  endfacet
  facet normal 2.364122e-013 -1.000000e+000 0.000000e+000
    outer loop
      vertex   8.723371e+001 1.139441e+000 1.181102e-001
      vertex   8.709985e+001 1.139441e+000 1.181102e-001
      vertex   8.723371e+001 1.139441e+000 0.000000e+000
    endloop
  endfacet
  facet normal 2.364122e-013 -1.000000e+000 0.000000e+000
    outer loop
      vertex   8.723371e+001 1.139441e+000 0.000000e+000
      vertex   8.709985e+001 1.139441e+000 1.181102e-001
      vertex   8.709985e+001 1.139441e+000 0.000000e+000
    endloop
  endfacet
  facet normal 1.000000e+000 3.329062e-014 0.000000e+000
    outer loop
      vertex   8.709985e+001 1.139441e+000 1.181102e-001
      vertex   8.709985e+001 4.672007e-001 1.181102e-001
      vertex   8.709985e+001 1.139441e+000 0.000000e+000
    endloop
  endfacet
  facet normal 1.000000e+000 3.329062e-014 0.000000e+000
    outer loop
      vertex   8.709985e+001 1.139441e+000 0.000000e+000
      vertex   8.709985e+001 4.672007e-001 1.181102e-001
      vertex   8.709985e+001 4.672007e-001 0.000000e+000
    endloop
  endfacet
  facet normal -2.612289e-015 1.000000e+000 0.000000e+000
    outer loop
      vertex   8.709985e+001 4.672007e-001 1.181102e-001
      vertex   8.723371e+001 4.672007e-001 1.181102e-001
      vertex   8.709985e+001 4.672007e-001 0.000000e+000
    endloop
  endfacet
  facet normal -2.612289e-015 1.000000e+000 0.000000e+000
    outer loop
      vertex   8.709985e+001 4.672007e-001 0.000000e+000
      vertex   8.723371e+001 4.672007e-001 1.181102e-001
      vertex   8.723371e+001 4.672007e-001 0.000000e+000
    endloop
  endfacet
  facet normal 1.000000e+000 0.000000e+000 0.000000e+000
    outer loop
      vertex   8.723371e+001 4.672007e-001 1.181102e-001
      vertex   8.723371e+001 1.467290e-001 1.181102e-001
      vertex   8.723371e+001 4.672007e-001 0.000000e+000
    endloop
  endfacet
  facet normal 1.000000e+000 0.000000e+000 0.000000e+000
    outer loop
      vertex   8.723371e+001 4.672007e-001 0.000000e+000
      vertex   8.723371e+001 1.467290e-001 1.181102e-001
      vertex   8.723371e+001 1.467290e-001 0.000000e+000
    endloop
  endfacet
  facet normal -9.319860e-016 -1.000000e+000 0.000000e+000
    outer loop
      vertex   8.723371e+001 1.467290e-001 1.181102e-001
      vertex   8.664747e+001 1.467290e-001 1.181102e-001
      vertex   8.723371e+001 1.467290e-001 0.000000e+000
    endloop
  endfacet
  facet normal -9.319860e-016 -1.000000e+000 -0.000000e+000
    outer loop
      vertex   8.723371e+001 1.467290e-001 0.000000e+000
      vertex   8.664747e+001 1.467290e-001 1.181102e-001
      vertex   8.664747e+001 1.467290e-001 0.000000e+000
    endloop
  endfacet
  facet normal 1.000000e+000 -3.304331e-013 0.000000e+000
    outer loop
      vertex   8.664747e+001 1.467290e-001 1.181102e-001
      vertex   8.664747e+001 1.127470e-002 1.181102e-001
      vertex   8.664747e+001 1.467290e-001 0.000000e+000
    endloop
  endfacet
  facet normal 1.000000e+000 -3.304331e-013 0.000000e+000
    outer loop
      vertex   8.664747e+001 1.467290e-001 0.000000e+000
      vertex   8.664747e+001 1.127470e-002 1.181102e-001
      vertex   8.664747e+001 1.127470e-002 0.000000e+000
    endloop
  endfacet
  facet normal -2.443443e-014 -1.000000e+000 0.000000e+000
    outer loop
      vertex   8.664747e+001 1.127470e-002 1.181102e-001
      vertex   8.600673e+001 1.127470e-002 1.181102e-001
      vertex   8.664747e+001 1.127470e-002 0.000000e+000
    endloop
  endfacet
  facet normal -2.443443e-014 -1.000000e+000 -0.000000e+000
    outer loop
      vertex   8.664747e+001 1.127470e-002 0.000000e+000
      vertex   8.600673e+001 1.127470e-002 1.181102e-001
      vertex   8.600673e+001 1.127470e-002 0.000000e+000
    endloop
  endfacet
  facet normal -1.000000e+000 0.000000e+000 -0.000000e+000
    outer loop
      vertex   8.600673e+001 1.127470e-002 1.181102e-001
      vertex   8.600673e+001 1.467290e-001 1.181102e-001
      vertex   8.600673e+001 1.127470e-002 0.000000e+000
    endloop
  endfacet
  facet normal -1.000000e+000 0.000000e+000 0.000000e+000
    outer loop
      vertex   8.600673e+001 1.127470e-002 0.000000e+000
      vertex   8.600673e+001 1.467290e-001 1.181102e-001
      vertex   8.600673e+001 1.467290e-001 0.000000e+000
    endloop
  endfacet
  facet normal -1.012726e-015 -1.000000e+000 0.000000e+000
    outer loop
      vertex   8.600673e+001 1.467290e-001 1.181102e-001
      vertex   8.544564e+001 1.467290e-001 1.181102e-001
      vertex   8.600673e+001 1.467290e-001 0.000000e+000
    endloop
  endfacet
  facet normal -1.012726e-015 -1.000000e+000 -0.000000e+000
    outer loop
      vertex   8.600673e+001 1.467290e-001 0.000000e+000
      vertex   8.544564e+001 1.467290e-001 1.181102e-001
      vertex   8.544564e+001 1.467290e-001 0.000000e+000
    endloop
  endfacet
  facet normal 2.391592e-014 -1.000000e+000 0.000000e+000
    outer loop
      vertex   8.544564e+001 1.467290e-001 0.000000e+000
      vertex   8.544564e+001 1.467290e-001 1.181102e-001
      vertex   8.488456e+001 1.467290e-001 1.181102e-001
    endloop
  endfacet
  facet normal 2.391592e-014 -1.000000e+000 0.000000e+000
    outer loop
      vertex   8.488456e+001 1.467290e-001 0.000000e+000
      vertex   8.544564e+001 1.467290e-001 0.000000e+000
      vertex   8.488456e+001 1.467290e-001 1.181102e-001
    endloop
  endfacet
  facet normal 1.000000e+000 -2.478248e-013 0.000000e+000
    outer loop
      vertex   8.488456e+001 1.467290e-001 1.181102e-001
      vertex   8.488456e+001 1.127470e-002 1.181102e-001
      vertex   8.488456e+001 1.467290e-001 0.000000e+000
    endloop
  endfacet
  facet normal 1.000000e+000 -2.478248e-013 0.000000e+000
    outer loop
      vertex   8.488456e+001 1.467290e-001 0.000000e+000
      vertex   8.488456e+001 1.127470e-002 1.181102e-001
      vertex   8.488456e+001 1.127470e-002 0.000000e+000
    endloop
  endfacet
  facet normal -2.445575e-014 -1.000000e+000 0.000000e+000
    outer loop
      vertex   8.488456e+001 1.127470e-002 1.181102e-001
      vertex   8.424381e+001 1.127470e-002 1.181102e-001
      vertex   8.488456e+001 1.127470e-002 0.000000e+000
    endloop
  endfacet
  facet normal -2.445575e-014 -1.000000e+000 -0.000000e+000
    outer loop
      vertex   8.488456e+001 1.127470e-002 0.000000e+000
      vertex   8.424381e+001 1.127470e-002 1.181102e-001
      vertex   8.424381e+001 1.127470e-002 0.000000e+000
    endloop
  endfacet
  facet normal -1.000000e+000 0.000000e+000 -0.000000e+000
    outer loop
      vertex   8.424381e+001 1.127470e-002 1.181102e-001
      vertex   8.424381e+001 1.467290e-001 1.181102e-001
      vertex   8.424381e+001 1.127470e-002 0.000000e+000
    endloop
  endfacet
  facet normal -1.000000e+000 0.000000e+000 0.000000e+000
    outer loop
      vertex   8.424381e+001 1.127470e-002 0.000000e+000
      vertex   8.424381e+001 1.467290e-001 1.181102e-001
      vertex   8.424381e+001 1.467290e-001 0.000000e+000
    endloop
  endfacet
  facet normal 7.790201e-017 -1.000000e+000 0.000000e+000
    outer loop
      vertex   8.424381e+001 1.467290e-001 1.181102e-001
      vertex   8.368273e+001 1.467290e-001 1.181102e-001
      vertex   8.424381e+001 1.467290e-001 0.000000e+000
    endloop
  endfacet
  facet normal 7.790201e-017 -1.000000e+000 0.000000e+000
    outer loop
      vertex   8.424381e+001 1.467290e-001 0.000000e+000
      vertex   8.368273e+001 1.467290e-001 1.181102e-001
      vertex   8.368273e+001 1.467290e-001 0.000000e+000
    endloop
  endfacet
  facet normal -1.000000e+000 0.000000e+000 -0.000000e+000
    outer loop
      vertex   8.368273e+001 1.467290e-001 1.181102e-001
      vertex   8.368273e+001 8.033208e-001 1.181102e-001
      vertex   8.368273e+001 1.467290e-001 0.000000e+000
    endloop
  endfacet
  facet normal -1.000000e+000 0.000000e+000 0.000000e+000
    outer loop
      vertex   8.368273e+001 1.467290e-001 0.000000e+000
      vertex   8.368273e+001 8.033208e-001 1.181102e-001
      vertex   8.368273e+001 8.033208e-001 0.000000e+000
    endloop
  endfacet
  facet normal -1.000000e+000 0.000000e+000 0.000000e+000
    outer loop
      vertex   8.368273e+001 8.033208e-001 0.000000e+000
      vertex   8.368273e+001 8.033208e-001 1.181102e-001
      vertex   8.368273e+001 1.459913e+000 1.181102e-001
    endloop
  endfacet
  facet normal -1.000000e+000 0.000000e+000 0.000000e+000
    outer loop
      vertex   8.368273e+001 1.459913e+000 0.000000e+000
      vertex   8.368273e+001 8.033208e-001 0.000000e+000
      vertex   8.368273e+001 1.459913e+000 1.181102e-001
    endloop
  endfacet
  facet normal -0.000000e+000 1.000000e+000 0.000000e+000
    outer loop
      vertex   8.368273e+001 1.459913e+000 1.181102e-001
      vertex   8.424381e+001 1.459913e+000 1.181102e-001
      vertex   8.368273e+001 1.459913e+000 0.000000e+000
    endloop
  endfacet
  facet normal -0.000000e+000 1.000000e+000 0.000000e+000
    outer loop
      vertex   8.368273e+001 1.459913e+000 0.000000e+000
      vertex   8.424381e+001 1.459913e+000 1.181102e-001
      vertex   8.424381e+001 1.459913e+000 0.000000e+000
    endloop
  endfacet
  facet normal -1.000000e+000 0.000000e+000 -0.000000e+000
    outer loop
      vertex   8.424381e+001 1.459913e+000 1.181102e-001
      vertex   8.424381e+001 1.595367e+000 1.181102e-001
      vertex   8.424381e+001 1.459913e+000 0.000000e+000
    endloop
  endfacet
  facet normal -1.000000e+000 0.000000e+000 0.000000e+000
    outer loop
      vertex   8.424381e+001 1.459913e+000 0.000000e+000
      vertex   8.424381e+001 1.595367e+000 1.181102e-001
      vertex   8.424381e+001 1.595367e+000 0.000000e+000
    endloop
  endfacet
  facet normal -2.455807e-014 1.000000e+000 0.000000e+000
    outer loop
      vertex   8.424381e+001 1.595367e+000 1.181102e-001
      vertex   8.488456e+001 1.595367e+000 1.181102e-001
      vertex   8.424381e+001 1.595367e+000 0.000000e+000
    endloop
  endfacet
  facet normal -2.455807e-014 1.000000e+000 0.000000e+000
    outer loop
      vertex   8.424381e+001 1.595367e+000 0.000000e+000
      vertex   8.488456e+001 1.595367e+000 1.181102e-001
      vertex   8.488456e+001 1.595367e+000 0.000000e+000
    endloop
  endfacet
  facet normal 1.000000e+000 2.478248e-013 0.000000e+000
    outer loop
      vertex   8.488456e+001 1.595367e+000 1.181102e-001
      vertex   8.488456e+001 1.459913e+000 1.181102e-001
      vertex   8.488456e+001 1.595367e+000 0.000000e+000
    endloop
  endfacet
  facet normal 1.000000e+000 2.478248e-013 0.000000e+000
    outer loop
      vertex   8.488456e+001 1.595367e+000 0.000000e+000
      vertex   8.488456e+001 1.459913e+000 1.181102e-001
      vertex   8.488456e+001 1.459913e+000 0.000000e+000
    endloop
  endfacet
  facet normal -7.563522e-016 1.000000e+000 0.000000e+000
    outer loop
      vertex   8.390652e+001 2.648393e-001 1.181102e-001
      vertex   8.460000e+001 2.648393e-001 1.181102e-001
      vertex   8.390652e+001 2.648393e-001 0.000000e+000
    endloop
  endfacet
  facet normal -7.563522e-016 1.000000e+000 0.000000e+000
    outer loop
      vertex   8.390652e+001 2.648393e-001 0.000000e+000
      vertex   8.460000e+001 2.648393e-001 1.181102e-001
      vertex   8.460000e+001 2.648393e-001 0.000000e+000
    endloop
  endfacet
  facet normal 1.008470e-015 1.000000e+000 -0.000000e+000
    outer loop
      vertex   8.460000e+001 2.648393e-001 0.000000e+000
      vertex   8.460000e+001 2.648393e-001 1.181102e-001
      vertex   8.529348e+001 2.648393e-001 1.181102e-001
    endloop
  endfacet
  facet normal 1.008470e-015 1.000000e+000 0.000000e+000
    outer loop
      vertex   8.529348e+001 2.648393e-001 0.000000e+000
      vertex   8.460000e+001 2.648393e-001 0.000000e+000
      vertex   8.529348e+001 2.648393e-001 1.181102e-001
    endloop
  endfacet
  facet normal -5.587929e-001 -8.293072e-001 0.000000e+000
    outer loop
      vertex   8.529348e+001 2.648393e-001 1.181102e-001
      vertex   8.494674e+001 4.984750e-001 1.181102e-001
      vertex   8.529348e+001 2.648393e-001 0.000000e+000
    endloop
  endfacet
  facet normal -5.587929e-001 -8.293072e-001 -0.000000e+000
    outer loop
      vertex   8.529348e+001 2.648393e-001 0.000000e+000
      vertex   8.494674e+001 4.984750e-001 1.181102e-001
      vertex   8.494674e+001 4.984750e-001 0.000000e+000
    endloop
  endfacet
  facet normal -5.587929e-001 -8.293072e-001 0.000000e+000
    outer loop
      vertex   8.494674e+001 4.984750e-001 0.000000e+000
      vertex   8.494674e+001 4.984750e-001 1.181102e-001
      vertex   8.460000e+001 7.321106e-001 1.181102e-001
    endloop
  endfacet
  facet normal -5.587929e-001 -8.293072e-001 0.000000e+000
    outer loop
      vertex   8.460000e+001 7.321106e-001 0.000000e+000
      vertex   8.494674e+001 4.984750e-001 0.000000e+000
      vertex   8.460000e+001 7.321106e-001 1.181102e-001
    endloop
  endfacet
  facet normal 5.587929e-001 -8.293072e-001 0.000000e+000
    outer loop
      vertex   8.460000e+001 7.321106e-001 1.181102e-001
      vertex   8.425326e+001 4.984750e-001 1.181102e-001
      vertex   8.460000e+001 7.321106e-001 0.000000e+000
    endloop
  endfacet
  facet normal 5.587929e-001 -8.293072e-001 0.000000e+000
    outer loop
      vertex   8.460000e+001 7.321106e-001 0.000000e+000
      vertex   8.425326e+001 4.984750e-001 1.181102e-001
      vertex   8.425326e+001 4.984750e-001 0.000000e+000
    endloop
  endfacet
  facet normal 5.587929e-001 -8.293072e-001 0.000000e+000
    outer loop
      vertex   8.425326e+001 4.984750e-001 0.000000e+000
      vertex   8.425326e+001 4.984750e-001 1.181102e-001
      vertex   8.390652e+001 2.648393e-001 1.181102e-001
    endloop
  endfacet
  facet normal 5.587929e-001 -8.293072e-001 0.000000e+000
    outer loop
      vertex   8.390652e+001 2.648393e-001 0.000000e+000
      vertex   8.425326e+001 4.984750e-001 0.000000e+000
      vertex   8.390652e+001 2.648393e-001 1.181102e-001
    endloop
  endfacet
  facet normal 1.000000e+000 0.000000e+000 0.000000e+000
    outer loop
      vertex   8.551728e+001 1.270592e+000 1.181102e-001
      vertex   8.551728e+001 8.033208e-001 1.181102e-001
      vertex   8.551728e+001 1.270592e+000 0.000000e+000
    endloop
  endfacet
  facet normal 1.000000e+000 0.000000e+000 0.000000e+000
    outer loop
      vertex   8.551728e+001 1.270592e+000 0.000000e+000
      vertex   8.551728e+001 8.033208e-001 1.181102e-001
      vertex   8.551728e+001 8.033208e-001 0.000000e+000
    endloop
  endfacet
  facet normal 1.000000e+000 0.000000e+000 -0.000000e+000
    outer loop
      vertex   8.551728e+001 8.033208e-001 0.000000e+000
      vertex   8.551728e+001 8.033208e-001 1.181102e-001
      vertex   8.551728e+001 3.360495e-001 1.181102e-001
    endloop
  endfacet
  facet normal 1.000000e+000 0.000000e+000 -0.000000e+000
    outer loop
      vertex   8.551728e+001 3.360495e-001 0.000000e+000
      vertex   8.551728e+001 8.033208e-001 0.000000e+000
      vertex   8.551728e+001 3.360495e-001 1.181102e-001
    endloop
  endfacet
  facet normal -5.587929e-001 8.293072e-001 0.000000e+000
    outer loop
      vertex   8.551728e+001 3.360495e-001 1.181102e-001
      vertex   8.586402e+001 5.696851e-001 1.181102e-001
      vertex   8.551728e+001 3.360495e-001 0.000000e+000
    endloop
  endfacet
  facet normal -5.587929e-001 8.293072e-001 0.000000e+000
    outer loop
      vertex   8.551728e+001 3.360495e-001 0.000000e+000
      vertex   8.586402e+001 5.696851e-001 1.181102e-001
      vertex   8.586402e+001 5.696851e-001 0.000000e+000
    endloop
  endfacet
  facet normal -5.587929e-001 8.293072e-001 0.000000e+000
    outer loop
      vertex   8.586402e+001 5.696851e-001 0.000000e+000
      vertex   8.586402e+001 5.696851e-001 1.181102e-001
      vertex   8.621076e+001 8.033208e-001 1.181102e-001
    endloop
  endfacet
  facet normal -5.587929e-001 8.293072e-001 0.000000e+000
    outer loop
      vertex   8.621076e+001 8.033208e-001 0.000000e+000
      vertex   8.586402e+001 5.696851e-001 0.000000e+000
      vertex   8.621076e+001 8.033208e-001 1.181102e-001
    endloop
  endfacet
  facet normal -5.587929e-001 -8.293072e-001 0.000000e+000
    outer loop
      vertex   8.621076e+001 8.033208e-001 1.181102e-001
      vertex   8.586402e+001 1.036956e+000 1.181102e-001
      vertex   8.621076e+001 8.033208e-001 0.000000e+000
    endloop
  endfacet
  facet normal -5.587929e-001 -8.293072e-001 -0.000000e+000
    outer loop
      vertex   8.621076e+001 8.033208e-001 0.000000e+000
      vertex   8.586402e+001 1.036956e+000 1.181102e-001
      vertex   8.586402e+001 1.036956e+000 0.000000e+000
    endloop
  endfacet
  facet normal -5.587929e-001 -8.293072e-001 0.000000e+000
    outer loop
      vertex   8.586402e+001 1.036956e+000 0.000000e+000
      vertex   8.586402e+001 1.036956e+000 1.181102e-001
      vertex   8.551728e+001 1.270592e+000 1.181102e-001
    endloop
  endfacet
  facet normal -5.587929e-001 -8.293072e-001 0.000000e+000
    outer loop
      vertex   8.551728e+001 1.270592e+000 0.000000e+000
      vertex   8.586402e+001 1.036956e+000 0.000000e+000
      vertex   8.551728e+001 1.270592e+000 1.181102e-001
    endloop
  endfacet
  facet normal 5.587929e-001 8.293072e-001 0.000000e+000
    outer loop
      vertex   8.470569e+001 8.033208e-001 1.181102e-001
      vertex   8.505243e+001 5.696851e-001 1.181102e-001
      vertex   8.470569e+001 8.033208e-001 0.000000e+000
    endloop
  endfacet
  facet normal 5.587929e-001 8.293072e-001 0.000000e+000
    outer loop
      vertex   8.470569e+001 8.033208e-001 0.000000e+000
      vertex   8.505243e+001 5.696851e-001 1.181102e-001
      vertex   8.505243e+001 5.696851e-001 0.000000e+000
    endloop
  endfacet
  facet normal 5.587929e-001 8.293072e-001 -0.000000e+000
    outer loop
      vertex   8.505243e+001 5.696851e-001 0.000000e+000
      vertex   8.505243e+001 5.696851e-001 1.181102e-001
      vertex   8.539917e+001 3.360495e-001 1.181102e-001
    endloop
  endfacet
  facet normal 5.587929e-001 8.293072e-001 0.000000e+000
    outer loop
      vertex   8.539917e+001 3.360495e-001 0.000000e+000
      vertex   8.505243e+001 5.696851e-001 0.000000e+000
      vertex   8.539917e+001 3.360495e-001 1.181102e-001
    endloop
  endfacet
  facet normal -1.000000e+000 0.000000e+000 -0.000000e+000
    outer loop
      vertex   8.539917e+001 3.360495e-001 1.181102e-001
      vertex   8.539917e+001 8.033208e-001 1.181102e-001
      vertex   8.539917e+001 3.360495e-001 0.000000e+000
    endloop
  endfacet
  facet normal -1.000000e+000 0.000000e+000 0.000000e+000
    outer loop
      vertex   8.539917e+001 3.360495e-001 0.000000e+000
      vertex   8.539917e+001 8.033208e-001 1.181102e-001
      vertex   8.539917e+001 8.033208e-001 0.000000e+000
    endloop
  endfacet
  facet normal -1.000000e+000 0.000000e+000 0.000000e+000
    outer loop
      vertex   8.539917e+001 8.033208e-001 0.000000e+000
      vertex   8.539917e+001 8.033208e-001 1.181102e-001
      vertex   8.539917e+001 1.270592e+000 1.181102e-001
    endloop
  endfacet
  facet normal -1.000000e+000 0.000000e+000 0.000000e+000
    outer loop
      vertex   8.539917e+001 1.270592e+000 0.000000e+000
      vertex   8.539917e+001 8.033208e-001 0.000000e+000
      vertex   8.539917e+001 1.270592e+000 1.181102e-001
    endloop
  endfacet
  facet normal 5.587929e-001 -8.293072e-001 0.000000e+000
    outer loop
      vertex   8.539917e+001 1.270592e+000 1.181102e-001
      vertex   8.505243e+001 1.036956e+000 1.181102e-001
      vertex   8.539917e+001 1.270592e+000 0.000000e+000
    endloop
  endfacet
  facet normal 5.587929e-001 -8.293072e-001 0.000000e+000
    outer loop
      vertex   8.539917e+001 1.270592e+000 0.000000e+000
      vertex   8.505243e+001 1.036956e+000 1.181102e-001
      vertex   8.505243e+001 1.036956e+000 0.000000e+000
    endloop
  endfacet
  facet normal 5.587929e-001 -8.293072e-001 0.000000e+000
    outer loop
      vertex   8.505243e+001 1.036956e+000 0.000000e+000
      vertex   8.505243e+001 1.036956e+000 1.181102e-001
      vertex   8.470569e+001 8.033208e-001 1.181102e-001
    endloop
  endfacet
  facet normal 5.587929e-001 -8.293072e-001 0.000000e+000
    outer loop
      vertex   8.470569e+001 8.033208e-001 0.000000e+000
      vertex   8.505243e+001 1.036956e+000 0.000000e+000
      vertex   8.470569e+001 8.033208e-001 1.181102e-001
    endloop
  endfacet
  facet normal -5.587929e-001 8.293072e-001 0.000000e+000
    outer loop
      vertex   8.631644e+001 8.745310e-001 1.181102e-001
      vertex   8.666318e+001 1.108167e+000 1.181102e-001
      vertex   8.631644e+001 8.745310e-001 0.000000e+000
    endloop
  endfacet
  facet normal -5.587929e-001 8.293072e-001 0.000000e+000
    outer loop
      vertex   8.631644e+001 8.745310e-001 0.000000e+000
      vertex   8.666318e+001 1.108167e+000 1.181102e-001
      vertex   8.666318e+001 1.108167e+000 0.000000e+000
    endloop
  endfacet
  facet normal -5.587929e-001 8.293072e-001 0.000000e+000
    outer loop
      vertex   8.666318e+001 1.108167e+000 0.000000e+000
      vertex   8.666318e+001 1.108167e+000 1.181102e-001
      vertex   8.700992e+001 1.341802e+000 1.181102e-001
    endloop
  endfacet
  facet normal -5.587929e-001 8.293072e-001 0.000000e+000
    outer loop
      vertex   8.700992e+001 1.341802e+000 0.000000e+000
      vertex   8.666318e+001 1.108167e+000 0.000000e+000
      vertex   8.700992e+001 1.341802e+000 1.181102e-001
    endloop
  endfacet
  facet normal -0.000000e+000 -1.000000e+000 -0.000000e+000
    outer loop
      vertex   8.700992e+001 1.341802e+000 1.181102e-001
      vertex   8.631644e+001 1.341802e+000 1.181102e-001
      vertex   8.700992e+001 1.341802e+000 0.000000e+000
    endloop
  endfacet
  facet normal -0.000000e+000 -1.000000e+000 -0.000000e+000
    outer loop
      vertex   8.700992e+001 1.341802e+000 0.000000e+000
      vertex   8.631644e+001 1.341802e+000 1.181102e-001
      vertex   8.631644e+001 1.341802e+000 0.000000e+000
    endloop
  endfacet
  facet normal 0.000000e+000 -1.000000e+000 0.000000e+000
    outer loop
      vertex   8.631644e+001 1.341802e+000 0.000000e+000
      vertex   8.631644e+001 1.341802e+000 1.181102e-001
      vertex   8.562296e+001 1.341802e+000 1.181102e-001
    endloop
  endfacet
  facet normal 0.000000e+000 -1.000000e+000 0.000000e+000
    outer loop
      vertex   8.562296e+001 1.341802e+000 0.000000e+000
      vertex   8.631644e+001 1.341802e+000 0.000000e+000
      vertex   8.562296e+001 1.341802e+000 1.181102e-001
    endloop
  endfacet
  facet normal 5.587929e-001 8.293072e-001 0.000000e+000
    outer loop
      vertex   8.562296e+001 1.341802e+000 1.181102e-001
      vertex   8.596970e+001 1.108167e+000 1.181102e-001
      vertex   8.562296e+001 1.341802e+000 0.000000e+000
    endloop
  endfacet
  facet normal 5.587929e-001 8.293072e-001 0.000000e+000
    outer loop
      vertex   8.562296e+001 1.341802e+000 0.000000e+000
      vertex   8.596970e+001 1.108167e+000 1.181102e-001
      vertex   8.596970e+001 1.108167e+000 0.000000e+000
    endloop
  endfacet
  facet normal 5.587929e-001 8.293072e-001 -0.000000e+000
    outer loop
      vertex   8.596970e+001 1.108167e+000 0.000000e+000
      vertex   8.596970e+001 1.108167e+000 1.181102e-001
      vertex   8.631644e+001 8.745310e-001 1.181102e-001
    endloop
  endfacet
  facet normal 5.587929e-001 8.293072e-001 0.000000e+000
    outer loop
      vertex   8.631644e+001 8.745310e-001 0.000000e+000
      vertex   8.596970e+001 1.108167e+000 0.000000e+000
      vertex   8.631644e+001 8.745310e-001 1.181102e-001
    endloop
  endfacet
  facet normal 5.587929e-001 8.293072e-001 0.000000e+000
    outer loop
      vertex   8.642212e+001 8.033208e-001 1.181102e-001
      vertex   8.703686e+001 3.891051e-001 1.181102e-001
      vertex   8.642212e+001 8.033208e-001 0.000000e+000
    endloop
  endfacet
  facet normal 5.587929e-001 8.293072e-001 0.000000e+000
    outer loop
      vertex   8.642212e+001 8.033208e-001 0.000000e+000
      vertex   8.703686e+001 3.891051e-001 1.181102e-001
      vertex   8.703686e+001 3.891051e-001 0.000000e+000
    endloop
  endfacet
  facet normal -1.000000e+000 0.000000e+000 -0.000000e+000
    outer loop
      vertex   8.703686e+001 3.891051e-001 1.181102e-001
      vertex   8.703686e+001 8.033208e-001 1.181102e-001
      vertex   8.703686e+001 3.891051e-001 0.000000e+000
    endloop
  endfacet
  facet normal -1.000000e+000 0.000000e+000 0.000000e+000
    outer loop
      vertex   8.703686e+001 3.891051e-001 0.000000e+000
      vertex   8.703686e+001 8.033208e-001 1.181102e-001
      vertex   8.703686e+001 8.033208e-001 0.000000e+000
    endloop
  endfacet
  facet normal -1.000000e+000 0.000000e+000 0.000000e+000
    outer loop
      vertex   8.703686e+001 8.033208e-001 0.000000e+000
      vertex   8.703686e+001 8.033208e-001 1.181102e-001
      vertex   8.703686e+001 1.217537e+000 1.181102e-001
    endloop
  endfacet
  facet normal -1.000000e+000 0.000000e+000 0.000000e+000
    outer loop
      vertex   8.703686e+001 1.217537e+000 0.000000e+000
      vertex   8.703686e+001 8.033208e-001 0.000000e+000
      vertex   8.703686e+001 1.217537e+000 1.181102e-001
    endloop
  endfacet
  facet normal 5.587929e-001 -8.293072e-001 0.000000e+000
    outer loop
      vertex   8.703686e+001 1.217537e+000 1.181102e-001
      vertex   8.642212e+001 8.033208e-001 1.181102e-001
      vertex   8.703686e+001 1.217537e+000 0.000000e+000
    endloop
  endfacet
  facet normal 5.587929e-001 -8.293072e-001 0.000000e+000
    outer loop
      vertex   8.703686e+001 1.217537e+000 0.000000e+000
      vertex   8.642212e+001 8.033208e-001 1.181102e-001
      vertex   8.642212e+001 8.033208e-001 0.000000e+000
    endloop
  endfacet
  facet normal 1.386646e-015 1.000000e+000 0.000000e+000
    outer loop
      vertex   8.562296e+001 2.648393e-001 1.181102e-001
      vertex   8.631644e+001 2.648393e-001 1.181102e-001
      vertex   8.562296e+001 2.648393e-001 0.000000e+000
    endloop
  endfacet
  facet normal 1.386646e-015 1.000000e+000 0.000000e+000
    outer loop
      vertex   8.562296e+001 2.648393e-001 0.000000e+000
      vertex   8.631644e+001 2.648393e-001 1.181102e-001
      vertex   8.631644e+001 2.648393e-001 0.000000e+000
    endloop
  endfacet
  facet normal -1.323616e-015 1.000000e+000 0.000000e+000
    outer loop
      vertex   8.631644e+001 2.648393e-001 0.000000e+000
      vertex   8.631644e+001 2.648393e-001 1.181102e-001
      vertex   8.700992e+001 2.648393e-001 1.181102e-001
    endloop
  endfacet
  facet normal -1.323616e-015 1.000000e+000 0.000000e+000
    outer loop
      vertex   8.700992e+001 2.648393e-001 0.000000e+000
      vertex   8.631644e+001 2.648393e-001 0.000000e+000
      vertex   8.700992e+001 2.648393e-001 1.181102e-001
    endloop
  endfacet
  facet normal -5.587929e-001 -8.293072e-001 0.000000e+000
    outer loop
      vertex   8.700992e+001 2.648393e-001 1.181102e-001
      vertex   8.666318e+001 4.984750e-001 1.181102e-001
      vertex   8.700992e+001 2.648393e-001 0.000000e+000
    endloop
  endfacet
  facet normal -5.587929e-001 -8.293072e-001 -0.000000e+000
    outer loop
      vertex   8.700992e+001 2.648393e-001 0.000000e+000
      vertex   8.666318e+001 4.984750e-001 1.181102e-001
      vertex   8.666318e+001 4.984750e-001 0.000000e+000
    endloop
  endfacet
  facet normal -5.587929e-001 -8.293072e-001 0.000000e+000
    outer loop
      vertex   8.666318e+001 4.984750e-001 0.000000e+000
      vertex   8.666318e+001 4.984750e-001 1.181102e-001
      vertex   8.631644e+001 7.321106e-001 1.181102e-001
    endloop
  endfacet
  facet normal -5.587929e-001 -8.293072e-001 0.000000e+000
    outer loop
      vertex   8.631644e+001 7.321106e-001 0.000000e+000
      vertex   8.666318e+001 4.984750e-001 0.000000e+000
      vertex   8.631644e+001 7.321106e-001 1.181102e-001
    endloop
  endfacet
  facet normal 5.587929e-001 -8.293072e-001 0.000000e+000
    outer loop
      vertex   8.631644e+001 7.321106e-001 1.181102e-001
      vertex   8.596970e+001 4.984750e-001 1.181102e-001
      vertex   8.631644e+001 7.321106e-001 0.000000e+000
    endloop
  endfacet
  facet normal 5.587929e-001 -8.293072e-001 0.000000e+000
    outer loop
      vertex   8.631644e+001 7.321106e-001 0.000000e+000
      vertex   8.596970e+001 4.984750e-001 1.181102e-001
      vertex   8.596970e+001 4.984750e-001 0.000000e+000
    endloop
  endfacet
  facet normal 5.587929e-001 -8.293072e-001 0.000000e+000
    outer loop
      vertex   8.596970e+001 4.984750e-001 0.000000e+000
      vertex   8.596970e+001 4.984750e-001 1.181102e-001
      vertex   8.562296e+001 2.648393e-001 1.181102e-001
    endloop
  endfacet
  facet normal 5.587929e-001 -8.293072e-001 0.000000e+000
    outer loop
      vertex   8.562296e+001 2.648393e-001 0.000000e+000
      vertex   8.596970e+001 4.984750e-001 0.000000e+000
      vertex   8.562296e+001 2.648393e-001 1.181102e-001
    endloop
  endfacet
  facet normal 1.000000e+000 0.000000e+000 0.000000e+000
    outer loop
      vertex   8.380084e+001 1.270592e+000 1.181102e-001
      vertex   8.380084e+001 8.033208e-001 1.181102e-001
      vertex   8.380084e+001 1.270592e+000 0.000000e+000
    endloop
  endfacet
  facet normal 1.000000e+000 0.000000e+000 0.000000e+000
    outer loop
      vertex   8.380084e+001 1.270592e+000 0.000000e+000
      vertex   8.380084e+001 8.033208e-001 1.181102e-001
      vertex   8.380084e+001 8.033208e-001 0.000000e+000
    endloop
  endfacet
  facet normal 1.000000e+000 0.000000e+000 -0.000000e+000
    outer loop
      vertex   8.380084e+001 8.033208e-001 0.000000e+000
      vertex   8.380084e+001 8.033208e-001 1.181102e-001
      vertex   8.380084e+001 3.360495e-001 1.181102e-001
    endloop
  endfacet
  facet normal 1.000000e+000 0.000000e+000 -0.000000e+000
    outer loop
      vertex   8.380084e+001 3.360495e-001 0.000000e+000
      vertex   8.380084e+001 8.033208e-001 0.000000e+000
      vertex   8.380084e+001 3.360495e-001 1.181102e-001
    endloop
  endfacet
  facet normal -5.587929e-001 8.293072e-001 0.000000e+000
    outer loop
      vertex   8.380084e+001 3.360495e-001 1.181102e-001
      vertex   8.414758e+001 5.696851e-001 1.181102e-001
      vertex   8.380084e+001 3.360495e-001 0.000000e+000
    endloop
  endfacet
  facet normal -5.587929e-001 8.293072e-001 0.000000e+000
    outer loop
      vertex   8.380084e+001 3.360495e-001 0.000000e+000
      vertex   8.414758e+001 5.696851e-001 1.181102e-001
      vertex   8.414758e+001 5.696851e-001 0.000000e+000
    endloop
  endfacet
  facet normal -5.587929e-001 8.293072e-001 0.000000e+000
    outer loop
      vertex   8.414758e+001 5.696851e-001 0.000000e+000
      vertex   8.414758e+001 5.696851e-001 1.181102e-001
      vertex   8.449432e+001 8.033208e-001 1.181102e-001
    endloop
  endfacet
  facet normal -5.587929e-001 8.293072e-001 0.000000e+000
    outer loop
      vertex   8.449432e+001 8.033208e-001 0.000000e+000
      vertex   8.414758e+001 5.696851e-001 0.000000e+000
      vertex   8.449432e+001 8.033208e-001 1.181102e-001
    endloop
  endfacet
  facet normal -5.587929e-001 -8.293072e-001 0.000000e+000
    outer loop
      vertex   8.449432e+001 8.033208e-001 1.181102e-001
      vertex   8.414758e+001 1.036956e+000 1.181102e-001
      vertex   8.449432e+001 8.033208e-001 0.000000e+000
    endloop
  endfacet
  facet normal -5.587929e-001 -8.293072e-001 -0.000000e+000
    outer loop
      vertex   8.449432e+001 8.033208e-001 0.000000e+000
      vertex   8.414758e+001 1.036956e+000 1.181102e-001
      vertex   8.414758e+001 1.036956e+000 0.000000e+000
    endloop
  endfacet
  facet normal -5.587929e-001 -8.293072e-001 0.000000e+000
    outer loop
      vertex   8.414758e+001 1.036956e+000 0.000000e+000
      vertex   8.414758e+001 1.036956e+000 1.181102e-001
      vertex   8.380084e+001 1.270592e+000 1.181102e-001
    endloop
  endfacet
  facet normal -5.587929e-001 -8.293072e-001 0.000000e+000
    outer loop
      vertex   8.380084e+001 1.270592e+000 0.000000e+000
      vertex   8.414758e+001 1.036956e+000 0.000000e+000
      vertex   8.380084e+001 1.270592e+000 1.181102e-001
    endloop
  endfacet
  facet normal -5.587929e-001 8.293072e-001 0.000000e+000
    outer loop
      vertex   8.460000e+001 8.745310e-001 1.181102e-001
      vertex   8.494674e+001 1.108167e+000 1.181102e-001
      vertex   8.460000e+001 8.745310e-001 0.000000e+000
    endloop
  endfacet
  facet normal -5.587929e-001 8.293072e-001 0.000000e+000
    outer loop
      vertex   8.460000e+001 8.745310e-001 0.000000e+000
      vertex   8.494674e+001 1.108167e+000 1.181102e-001
      vertex   8.494674e+001 1.108167e+000 0.000000e+000
    endloop
  endfacet
  facet normal -5.587929e-001 8.293072e-001 0.000000e+000
    outer loop
      vertex   8.494674e+001 1.108167e+000 0.000000e+000
      vertex   8.494674e+001 1.108167e+000 1.181102e-001
      vertex   8.529348e+001 1.341802e+000 1.181102e-001
    endloop
  endfacet
  facet normal -5.587929e-001 8.293072e-001 0.000000e+000
    outer loop
      vertex   8.529348e+001 1.341802e+000 0.000000e+000
      vertex   8.494674e+001 1.108167e+000 0.000000e+000
      vertex   8.529348e+001 1.341802e+000 1.181102e-001
    endloop
  endfacet
  facet normal -7.563522e-016 -1.000000e+000 0.000000e+000
    outer loop
      vertex   8.529348e+001 1.341802e+000 1.181102e-001
      vertex   8.460000e+001 1.341802e+000 1.181102e-001
      vertex   8.529348e+001 1.341802e+000 0.000000e+000
    endloop
  endfacet
  facet normal -7.563522e-016 -1.000000e+000 -0.000000e+000
    outer loop
      vertex   8.529348e+001 1.341802e+000 0.000000e+000
      vertex   8.460000e+001 1.341802e+000 1.181102e-001
      vertex   8.460000e+001 1.341802e+000 0.000000e+000
    endloop
  endfacet
  facet normal 7.563522e-016 -1.000000e+000 0.000000e+000
    outer loop
      vertex   8.460000e+001 1.341802e+000 0.000000e+000
      vertex   8.460000e+001 1.341802e+000 1.181102e-001
      vertex   8.390652e+001 1.341802e+000 1.181102e-001
    endloop
  endfacet
  facet normal 7.563522e-016 -1.000000e+000 0.000000e+000
    outer loop
      vertex   8.390652e+001 1.341802e+000 0.000000e+000
      vertex   8.460000e+001 1.341802e+000 0.000000e+000
      vertex   8.390652e+001 1.341802e+000 1.181102e-001
    endloop
  endfacet
  facet normal 5.587929e-001 8.293072e-001 0.000000e+000
    outer loop
      vertex   8.390652e+001 1.341802e+000 1.181102e-001
      vertex   8.425326e+001 1.108167e+000 1.181102e-001
      vertex   8.390652e+001 1.341802e+000 0.000000e+000
    endloop
  endfacet
  facet normal 5.587929e-001 8.293072e-001 0.000000e+000
    outer loop
      vertex   8.390652e+001 1.341802e+000 0.000000e+000
      vertex   8.425326e+001 1.108167e+000 1.181102e-001
      vertex   8.425326e+001 1.108167e+000 0.000000e+000
    endloop
  endfacet
  facet normal 5.587929e-001 8.293072e-001 -0.000000e+000
    outer loop
      vertex   8.425326e+001 1.108167e+000 0.000000e+000
      vertex   8.425326e+001 1.108167e+000 1.181102e-001
      vertex   8.460000e+001 8.745310e-001 1.181102e-001
    endloop
  endfacet
  facet normal 5.587929e-001 8.293072e-001 0.000000e+000
    outer loop
      vertex   8.460000e+001 8.745310e-001 0.000000e+000
      vertex   8.425326e+001 1.108167e+000 0.000000e+000
      vertex   8.460000e+001 8.745310e-001 1.181102e-001
    endloop
  endfacet
  facet normal -0.000000e+000 0.000000e+000 1.000000e+000
    outer loop
      vertex   8.414758e+001 5.696851e-001 1.181102e-001
      vertex   8.390652e+001 2.648393e-001 1.181102e-001
      vertex   8.419001e+001 5.393054e-001 1.181102e-001
    endloop
  endfacet
  facet normal 0.000000e+000 0.000000e+000 1.000000e+000
    outer loop
      vertex   8.449432e+001 8.033208e-001 1.181102e-001
      vertex   8.419001e+001 5.393054e-001 1.181102e-001
      vertex   8.425326e+001 4.984750e-001 1.181102e-001
    endloop
  endfacet
  facet normal 0.000000e+000 0.000000e+000 1.000000e+000
    outer loop
      vertex   8.460000e+001 7.321106e-001 1.181102e-001
      vertex   8.449432e+001 8.033208e-001 1.181102e-001
      vertex   8.425326e+001 4.984750e-001 1.181102e-001
    endloop
  endfacet
  facet normal 0.000000e+000 -0.000000e+000 1.000000e+000
    outer loop
      vertex   8.460000e+001 7.321106e-001 1.181102e-001
      vertex   8.460000e+001 8.745310e-001 1.181102e-001
      vertex   8.449432e+001 8.033208e-001 1.181102e-001
    endloop
  endfacet
  facet normal 0.000000e+000 -0.000000e+000 1.000000e+000
    outer loop
      vertex   8.460000e+001 7.321106e-001 1.181102e-001
      vertex   8.470569e+001 8.033208e-001 1.181102e-001
      vertex   8.460000e+001 8.745310e-001 1.181102e-001
    endloop
  endfacet
  facet normal -0.000000e+000 -0.000000e+000 1.000000e+000
    outer loop
      vertex   8.460000e+001 7.321106e-001 1.181102e-001
      vertex   8.494674e+001 4.984750e-001 1.181102e-001
      vertex   8.470569e+001 8.033208e-001 1.181102e-001
    endloop
  endfacet
  facet normal -0.000000e+000 0.000000e+000 1.000000e+000
    outer loop
      vertex   8.470569e+001 8.033208e-001 1.181102e-001
      vertex   8.494674e+001 4.984750e-001 1.181102e-001
      vertex   8.505243e+001 5.696851e-001 1.181102e-001
    endloop
  endfacet
  facet normal 0.000000e+000 0.000000e+000 1.000000e+000
    outer loop
      vertex   8.505243e+001 5.696851e-001 1.181102e-001
      vertex   8.494674e+001 4.984750e-001 1.181102e-001
      vertex   8.529348e+001 2.648393e-001 1.181102e-001
    endloop
  endfacet
  facet normal 0.000000e+000 0.000000e+000 1.000000e+000
    outer loop
      vertex   8.539917e+001 3.360495e-001 1.181102e-001
      vertex   8.529348e+001 2.648393e-001 1.181102e-001
      vertex   8.544564e+001 1.467290e-001 1.181102e-001
    endloop
  endfacet
  facet normal -0.000000e+000 0.000000e+000 1.000000e+000
    outer loop
      vertex   8.551728e+001 3.360495e-001 1.181102e-001
      vertex   8.544564e+001 1.467290e-001 1.181102e-001
      vertex   8.562296e+001 2.648393e-001 1.181102e-001
    endloop
  endfacet
  facet normal -0.000000e+000 0.000000e+000 1.000000e+000
    outer loop
      vertex   8.586402e+001 5.696851e-001 1.181102e-001
      vertex   8.562296e+001 2.648393e-001 1.181102e-001
      vertex   8.596970e+001 4.984750e-001 1.181102e-001
    endloop
  endfacet
  facet normal -0.000000e+000 0.000000e+000 1.000000e+000
    outer loop
      vertex   8.621076e+001 8.033208e-001 1.181102e-001
      vertex   8.596970e+001 4.984750e-001 1.181102e-001
      vertex   8.631644e+001 7.321106e-001 1.181102e-001
    endloop
  endfacet
  facet normal -0.000000e+000 0.000000e+000 1.000000e+000
    outer loop
      vertex   8.631644e+001 8.745310e-001 1.181102e-001
      vertex   8.631644e+001 7.321106e-001 1.181102e-001
      vertex   8.642212e+001 8.033208e-001 1.181102e-001
    endloop
  endfacet
  facet normal -0.000000e+000 0.000000e+000 1.000000e+000
    outer loop
      vertex   8.666318e+001 1.108167e+000 1.181102e-001
      vertex   8.642212e+001 8.033208e-001 1.181102e-001
      vertex   8.672643e+001 1.067336e+000 1.181102e-001
    endloop
  endfacet
  facet normal -0.000000e+000 0.000000e+000 1.000000e+000
    outer loop
      vertex   8.700992e+001 1.341802e+000 1.181102e-001
      vertex   8.672643e+001 1.067336e+000 1.181102e-001
      vertex   8.703686e+001 1.217537e+000 1.181102e-001
    endloop
  endfacet
  facet normal 0.000000e+000 0.000000e+000 1.000000e+000
    outer loop
      vertex   8.723371e+001 1.459913e+000 1.181102e-001
      vertex   8.703686e+001 1.217537e+000 1.181102e-001
      vertex   8.723371e+001 1.139441e+000 1.181102e-001
    endloop
  endfacet
  facet normal 0.000000e+000 0.000000e+000 1.000000e+000
    outer loop
      vertex   8.723371e+001 1.459913e+000 1.181102e-001
      vertex   8.700992e+001 1.341802e+000 1.181102e-001
      vertex   8.703686e+001 1.217537e+000 1.181102e-001
    endloop
  endfacet
  facet normal 0.000000e+000 0.000000e+000 1.000000e+000
    outer loop
      vertex   8.723371e+001 1.459913e+000 1.181102e-001
      vertex   8.664747e+001 1.459913e+000 1.181102e-001
      vertex   8.700992e+001 1.341802e+000 1.181102e-001
    endloop
  endfacet
  facet normal 0.000000e+000 0.000000e+000 1.000000e+000
    outer loop
      vertex   8.700992e+001 1.341802e+000 1.181102e-001
      vertex   8.664747e+001 1.459913e+000 1.181102e-001
      vertex   8.631644e+001 1.341802e+000 1.181102e-001
    endloop
  endfacet
  facet normal 0.000000e+000 -0.000000e+000 1.000000e+000
    outer loop
      vertex   8.631644e+001 1.341802e+000 1.181102e-001
      vertex   8.664747e+001 1.459913e+000 1.181102e-001
      vertex   8.664747e+001 1.595367e+000 1.181102e-001
    endloop
  endfacet
  facet normal -0.000000e+000 0.000000e+000 1.000000e+000
    outer loop
      vertex   8.600673e+001 1.595367e+000 1.181102e-001
      vertex   8.631644e+001 1.341802e+000 1.181102e-001
      vertex   8.664747e+001 1.595367e+000 1.181102e-001
    endloop
  endfacet
  facet normal 0.000000e+000 0.000000e+000 1.000000e+000
    outer loop
      vertex   8.600673e+001 1.595367e+000 1.181102e-001
      vertex   8.600673e+001 1.459913e+000 1.181102e-001
      vertex   8.631644e+001 1.341802e+000 1.181102e-001
    endloop
  endfacet
  facet normal 0.000000e+000 0.000000e+000 1.000000e+000
    outer loop
      vertex   8.631644e+001 1.341802e+000 1.181102e-001
      vertex   8.600673e+001 1.459913e+000 1.181102e-001
      vertex   8.562296e+001 1.341802e+000 1.181102e-001
    endloop
  endfacet
  facet normal 0.000000e+000 -0.000000e+000 1.000000e+000
    outer loop
      vertex   8.562296e+001 1.341802e+000 1.181102e-001
      vertex   8.600673e+001 1.459913e+000 1.181102e-001
      vertex   8.544564e+001 1.459913e+000 1.181102e-001
    endloop
  endfacet
  facet normal 0.000000e+000 0.000000e+000 1.000000e+000
    outer loop
      vertex   8.551728e+001 1.270592e+000 1.181102e-001
      vertex   8.544564e+001 1.459913e+000 1.181102e-001
      vertex   8.539917e+001 1.270592e+000 1.181102e-001
    endloop
  endfacet
  facet normal 0.000000e+000 -0.000000e+000 1.000000e+000
    outer loop
      vertex   8.539917e+001 8.033208e-001 1.181102e-001
      vertex   8.551728e+001 1.270592e+000 1.181102e-001
      vertex   8.539917e+001 1.270592e+000 1.181102e-001
    endloop
  endfacet
  facet normal 0.000000e+000 0.000000e+000 1.000000e+000
    outer loop
      vertex   8.539917e+001 8.033208e-001 1.181102e-001
      vertex   8.551728e+001 8.033208e-001 1.181102e-001
      vertex   8.551728e+001 1.270592e+000 1.181102e-001
    endloop
  endfacet
  facet normal -0.000000e+000 0.000000e+000 1.000000e+000
    outer loop
      vertex   8.539917e+001 8.033208e-001 1.181102e-001
      vertex   8.539917e+001 3.360495e-001 1.181102e-001
      vertex   8.551728e+001 8.033208e-001 1.181102e-001
    endloop
  endfacet
  facet normal -0.000000e+000 0.000000e+000 1.000000e+000
    outer loop
      vertex   8.551728e+001 8.033208e-001 1.181102e-001
      vertex   8.539917e+001 3.360495e-001 1.181102e-001
      vertex   8.551728e+001 3.360495e-001 1.181102e-001
    endloop
  endfacet
  facet normal 0.000000e+000 0.000000e+000 1.000000e+000
    outer loop
      vertex   8.551728e+001 3.360495e-001 1.181102e-001
      vertex   8.539917e+001 3.360495e-001 1.181102e-001
      vertex   8.544564e+001 1.467290e-001 1.181102e-001
    endloop
  endfacet
  facet normal -0.000000e+000 0.000000e+000 1.000000e+000
    outer loop
      vertex   8.460000e+001 8.745310e-001 1.181102e-001
      vertex   8.470569e+001 8.033208e-001 1.181102e-001
      vertex   8.494674e+001 1.108167e+000 1.181102e-001
    endloop
  endfacet
  facet normal -0.000000e+000 0.000000e+000 1.000000e+000
    outer loop
      vertex   8.494674e+001 1.108167e+000 1.181102e-001
      vertex   8.470569e+001 8.033208e-001 1.181102e-001
      vertex   8.505243e+001 1.036956e+000 1.181102e-001
    endloop
  endfacet
  facet normal -0.000000e+000 0.000000e+000 1.000000e+000
    outer loop
      vertex   8.529348e+001 1.341802e+000 1.181102e-001
      vertex   8.505243e+001 1.036956e+000 1.181102e-001
      vertex   8.539917e+001 1.270592e+000 1.181102e-001
    endloop
  endfacet
  facet normal 0.000000e+000 0.000000e+000 1.000000e+000
    outer loop
      vertex   8.544564e+001 1.459913e+000 1.181102e-001
      vertex   8.529348e+001 1.341802e+000 1.181102e-001
      vertex   8.539917e+001 1.270592e+000 1.181102e-001
    endloop
  endfacet
  facet normal 0.000000e+000 0.000000e+000 1.000000e+000
    outer loop
      vertex   8.544564e+001 1.459913e+000 1.181102e-001
      vertex   8.488456e+001 1.459913e+000 1.181102e-001
      vertex   8.529348e+001 1.341802e+000 1.181102e-001
    endloop
  endfacet
  facet normal 0.000000e+000 0.000000e+000 1.000000e+000
    outer loop
      vertex   8.529348e+001 1.341802e+000 1.181102e-001
      vertex   8.488456e+001 1.459913e+000 1.181102e-001
      vertex   8.460000e+001 1.341802e+000 1.181102e-001
    endloop
  endfacet
  facet normal 0.000000e+000 -0.000000e+000 1.000000e+000
    outer loop
      vertex   8.460000e+001 1.341802e+000 1.181102e-001
      vertex   8.488456e+001 1.459913e+000 1.181102e-001
      vertex   8.488456e+001 1.595367e+000 1.181102e-001
    endloop
  endfacet
  facet normal -0.000000e+000 0.000000e+000 1.000000e+000
    outer loop
      vertex   8.424381e+001 1.595367e+000 1.181102e-001
      vertex   8.460000e+001 1.341802e+000 1.181102e-001
      vertex   8.488456e+001 1.595367e+000 1.181102e-001
    endloop
  endfacet
  facet normal 0.000000e+000 0.000000e+000 1.000000e+000
    outer loop
      vertex   8.424381e+001 1.595367e+000 1.181102e-001
      vertex   8.424381e+001 1.459913e+000 1.181102e-001
      vertex   8.460000e+001 1.341802e+000 1.181102e-001
    endloop
  endfacet
  facet normal 0.000000e+000 0.000000e+000 1.000000e+000
    outer loop
      vertex   8.460000e+001 1.341802e+000 1.181102e-001
      vertex   8.424381e+001 1.459913e+000 1.181102e-001
      vertex   8.390652e+001 1.341802e+000 1.181102e-001
    endloop
  endfacet
  facet normal 0.000000e+000 -0.000000e+000 1.000000e+000
    outer loop
      vertex   8.390652e+001 1.341802e+000 1.181102e-001
      vertex   8.424381e+001 1.459913e+000 1.181102e-001
      vertex   8.368273e+001 1.459913e+000 1.181102e-001
    endloop
  endfacet
  facet normal 0.000000e+000 0.000000e+000 1.000000e+000
    outer loop
      vertex   8.380084e+001 1.270592e+000 1.181102e-001
      vertex   8.368273e+001 1.459913e+000 1.181102e-001
      vertex   8.368273e+001 8.033208e-001 1.181102e-001
    endloop
  endfacet
  facet normal 0.000000e+000 0.000000e+000 1.000000e+000
    outer loop
      vertex   8.380084e+001 8.033208e-001 1.181102e-001
      vertex   8.368273e+001 8.033208e-001 1.181102e-001
      vertex   8.380084e+001 3.360495e-001 1.181102e-001
    endloop
  endfacet
  facet normal 0.000000e+000 -0.000000e+000 1.000000e+000
    outer loop
      vertex   8.380084e+001 8.033208e-001 1.181102e-001
      vertex   8.380084e+001 1.270592e+000 1.181102e-001
      vertex   8.368273e+001 8.033208e-001 1.181102e-001
    endloop
  endfacet
  facet normal 0.000000e+000 0.000000e+000 1.000000e+000
    outer loop
      vertex   8.460000e+001 8.745310e-001 1.181102e-001
      vertex   8.425326e+001 1.108167e+000 1.181102e-001
      vertex   8.449432e+001 8.033208e-001 1.181102e-001
    endloop
  endfacet
  facet normal 0.000000e+000 0.000000e+000 1.000000e+000
    outer loop
      vertex   8.449432e+001 8.033208e-001 1.181102e-001
      vertex   8.425326e+001 1.108167e+000 1.181102e-001
      vertex   8.419001e+001 1.067336e+000 1.181102e-001
    endloop
  endfacet
  facet normal 0.000000e+000 -0.000000e+000 1.000000e+000
    outer loop
      vertex   8.414758e+001 1.036956e+000 1.181102e-001
      vertex   8.419001e+001 1.067336e+000 1.181102e-001
      vertex   8.390652e+001 1.341802e+000 1.181102e-001
    endloop
  endfacet
  facet normal 0.000000e+000 -0.000000e+000 1.000000e+000
    outer loop
      vertex   8.380084e+001 1.270592e+000 1.181102e-001
      vertex   8.390652e+001 1.341802e+000 1.181102e-001
      vertex   8.368273e+001 1.459913e+000 1.181102e-001
    endloop
  endfacet
  facet normal -0.000000e+000 -0.000000e+000 1.000000e+000
    outer loop
      vertex   8.380084e+001 1.270592e+000 1.181102e-001
      vertex   8.414758e+001 1.036956e+000 1.181102e-001
      vertex   8.390652e+001 1.341802e+000 1.181102e-001
    endloop
  endfacet
  facet normal 0.000000e+000 0.000000e+000 1.000000e+000
    outer loop
      vertex   8.425326e+001 1.108167e+000 1.181102e-001
      vertex   8.390652e+001 1.341802e+000 1.181102e-001
      vertex   8.419001e+001 1.067336e+000 1.181102e-001
    endloop
  endfacet
  facet normal -0.000000e+000 -0.000000e+000 1.000000e+000
    outer loop
      vertex   8.414758e+001 1.036956e+000 1.181102e-001
      vertex   8.449432e+001 8.033208e-001 1.181102e-001
      vertex   8.419001e+001 1.067336e+000 1.181102e-001
    endloop
  endfacet
  facet normal 0.000000e+000 0.000000e+000 1.000000e+000
    outer loop
      vertex   8.449432e+001 8.033208e-001 1.181102e-001
      vertex   8.414758e+001 5.696851e-001 1.181102e-001
      vertex   8.419001e+001 5.393054e-001 1.181102e-001
    endloop
  endfacet
  facet normal 0.000000e+000 0.000000e+000 1.000000e+000
    outer loop
      vertex   8.414758e+001 5.696851e-001 1.181102e-001
      vertex   8.380084e+001 3.360495e-001 1.181102e-001
      vertex   8.390652e+001 2.648393e-001 1.181102e-001
    endloop
  endfacet
  facet normal 0.000000e+000 0.000000e+000 1.000000e+000
    outer loop
      vertex   8.390652e+001 2.648393e-001 1.181102e-001
      vertex   8.380084e+001 3.360495e-001 1.181102e-001
      vertex   8.368273e+001 1.467290e-001 1.181102e-001
    endloop
  endfacet
  facet normal 0.000000e+000 0.000000e+000 1.000000e+000
    outer loop
      vertex   8.424381e+001 1.467290e-001 1.181102e-001
      vertex   8.390652e+001 2.648393e-001 1.181102e-001
      vertex   8.368273e+001 1.467290e-001 1.181102e-001
    endloop
  endfacet
  facet normal 0.000000e+000 -0.000000e+000 1.000000e+000
    outer loop
      vertex   8.424381e+001 1.467290e-001 1.181102e-001
      vertex   8.460000e+001 2.648393e-001 1.181102e-001
      vertex   8.390652e+001 2.648393e-001 1.181102e-001
    endloop
  endfacet
  facet normal -0.000000e+000 0.000000e+000 1.000000e+000
    outer loop
      vertex   8.424381e+001 1.467290e-001 1.181102e-001
      vertex   8.424381e+001 1.127470e-002 1.181102e-001
      vertex   8.460000e+001 2.648393e-001 1.181102e-001
    endloop
  endfacet
  facet normal 0.000000e+000 0.000000e+000 1.000000e+000
    outer loop
      vertex   8.460000e+001 2.648393e-001 1.181102e-001
      vertex   8.424381e+001 1.127470e-002 1.181102e-001
      vertex   8.488456e+001 1.127470e-002 1.181102e-001
    endloop
  endfacet
  facet normal 0.000000e+000 0.000000e+000 1.000000e+000
    outer loop
      vertex   8.488456e+001 1.467290e-001 1.181102e-001
      vertex   8.460000e+001 2.648393e-001 1.181102e-001
      vertex   8.488456e+001 1.127470e-002 1.181102e-001
    endloop
  endfacet
  facet normal 0.000000e+000 -0.000000e+000 1.000000e+000
    outer loop
      vertex   8.488456e+001 1.467290e-001 1.181102e-001
      vertex   8.529348e+001 2.648393e-001 1.181102e-001
      vertex   8.460000e+001 2.648393e-001 1.181102e-001
    endloop
  endfacet
  facet normal 0.000000e+000 -0.000000e+000 1.000000e+000
    outer loop
      vertex   8.488456e+001 1.467290e-001 1.181102e-001
      vertex   8.544564e+001 1.467290e-001 1.181102e-001
      vertex   8.529348e+001 2.648393e-001 1.181102e-001
    endloop
  endfacet
  facet normal -0.000000e+000 -0.000000e+000 1.000000e+000
    outer loop
      vertex   8.600673e+001 1.127470e-002 1.181102e-001
      vertex   8.664747e+001 1.127470e-002 1.181102e-001
      vertex   8.631644e+001 2.648393e-001 1.181102e-001
    endloop
  endfacet
  facet normal 0.000000e+000 -0.000000e+000 1.000000e+000
    outer loop
      vertex   8.600673e+001 1.467290e-001 1.181102e-001
      vertex   8.631644e+001 2.648393e-001 1.181102e-001
      vertex   8.562296e+001 2.648393e-001 1.181102e-001
    endloop
  endfacet
  facet normal -0.000000e+000 -0.000000e+000 1.000000e+000
    outer loop
      vertex   8.544564e+001 1.467290e-001 1.181102e-001
      vertex   8.600673e+001 1.467290e-001 1.181102e-001
      vertex   8.562296e+001 2.648393e-001 1.181102e-001
    endloop
  endfacet
  facet normal -0.000000e+000 -0.000000e+000 1.000000e+000
    outer loop
      vertex   8.631644e+001 7.321106e-001 1.181102e-001
      vertex   8.666318e+001 4.984750e-001 1.181102e-001
      vertex   8.642212e+001 8.033208e-001 1.181102e-001
    endloop
  endfacet
  facet normal -0.000000e+000 0.000000e+000 1.000000e+000
    outer loop
      vertex   8.642212e+001 8.033208e-001 1.181102e-001
      vertex   8.666318e+001 4.984750e-001 1.181102e-001
      vertex   8.672643e+001 5.393054e-001 1.181102e-001
    endloop
  endfacet
  facet normal 0.000000e+000 0.000000e+000 1.000000e+000
    outer loop
      vertex   8.703686e+001 3.891051e-001 1.181102e-001
      vertex   8.672643e+001 5.393054e-001 1.181102e-001
      vertex   8.700992e+001 2.648393e-001 1.181102e-001
    endloop
  endfacet
  facet normal 0.000000e+000 0.000000e+000 1.000000e+000
    outer loop
      vertex   8.723371e+001 1.467290e-001 1.181102e-001
      vertex   8.700992e+001 2.648393e-001 1.181102e-001
      vertex   8.664747e+001 1.467290e-001 1.181102e-001
    endloop
  endfacet
  facet normal 0.000000e+000 0.000000e+000 1.000000e+000
    outer loop
      vertex   8.723371e+001 1.467290e-001 1.181102e-001
      vertex   8.703686e+001 3.891051e-001 1.181102e-001
      vertex   8.700992e+001 2.648393e-001 1.181102e-001
    endloop
  endfacet
  facet normal 0.000000e+000 0.000000e+000 1.000000e+000
    outer loop
      vertex   8.723371e+001 1.467290e-001 1.181102e-001
      vertex   8.709985e+001 4.672007e-001 1.181102e-001
      vertex   8.703686e+001 3.891051e-001 1.181102e-001
    endloop
  endfacet
  facet normal 0.000000e+000 -0.000000e+000 1.000000e+000
    outer loop
      vertex   8.723371e+001 1.467290e-001 1.181102e-001
      vertex   8.723371e+001 4.672007e-001 1.181102e-001
      vertex   8.709985e+001 4.672007e-001 1.181102e-001
    endloop
  endfacet
  facet normal -0.000000e+000 -0.000000e+000 1.000000e+000
    outer loop
      vertex   8.666318e+001 4.984750e-001 1.181102e-001
      vertex   8.700992e+001 2.648393e-001 1.181102e-001
      vertex   8.672643e+001 5.393054e-001 1.181102e-001
    endloop
  endfacet
  facet normal 0.000000e+000 0.000000e+000 1.000000e+000
    outer loop
      vertex   8.703686e+001 3.891051e-001 1.181102e-001
      vertex   8.642212e+001 8.033208e-001 1.181102e-001
      vertex   8.672643e+001 5.393054e-001 1.181102e-001
    endloop
  endfacet
  facet normal 0.000000e+000 -0.000000e+000 1.000000e+000
    outer loop
      vertex   8.642212e+001 8.033208e-001 1.181102e-001
      vertex   8.703686e+001 1.217537e+000 1.181102e-001
      vertex   8.672643e+001 1.067336e+000 1.181102e-001
    endloop
  endfacet
  facet normal 0.000000e+000 0.000000e+000 1.000000e+000
    outer loop
      vertex   8.723371e+001 1.139441e+000 1.181102e-001
      vertex   8.703686e+001 1.217537e+000 1.181102e-001
      vertex   8.709985e+001 1.139441e+000 1.181102e-001
    endloop
  endfacet
  facet normal 0.000000e+000 0.000000e+000 1.000000e+000
    outer loop
      vertex   8.709985e+001 1.139441e+000 1.181102e-001
      vertex   8.703686e+001 1.217537e+000 1.181102e-001
      vertex   8.703686e+001 8.033208e-001 1.181102e-001
    endloop
  endfacet
  facet normal 0.000000e+000 0.000000e+000 1.000000e+000
    outer loop
      vertex   8.709985e+001 4.672007e-001 1.181102e-001
      vertex   8.703686e+001 8.033208e-001 1.181102e-001
      vertex   8.703686e+001 3.891051e-001 1.181102e-001
    endloop
  endfacet
  facet normal 0.000000e+000 0.000000e+000 1.000000e+000
    outer loop
      vertex   8.709985e+001 4.672007e-001 1.181102e-001
      vertex   8.709985e+001 1.139441e+000 1.181102e-001
      vertex   8.703686e+001 8.033208e-001 1.181102e-001
    endloop
  endfacet
  facet normal 0.000000e+000 0.000000e+000 1.000000e+000
    outer loop
      vertex   8.700992e+001 1.341802e+000 1.181102e-001
      vertex   8.666318e+001 1.108167e+000 1.181102e-001
      vertex   8.672643e+001 1.067336e+000 1.181102e-001
    endloop
  endfacet
  facet normal 0.000000e+000 0.000000e+000 1.000000e+000
    outer loop
      vertex   8.666318e+001 1.108167e+000 1.181102e-001
      vertex   8.631644e+001 8.745310e-001 1.181102e-001
      vertex   8.642212e+001 8.033208e-001 1.181102e-001
    endloop
  endfacet
  facet normal 0.000000e+000 -0.000000e+000 1.000000e+000
    outer loop
      vertex   8.631644e+001 7.321106e-001 1.181102e-001
      vertex   8.631644e+001 8.745310e-001 1.181102e-001
      vertex   8.621076e+001 8.033208e-001 1.181102e-001
    endloop
  endfacet
  facet normal 0.000000e+000 -0.000000e+000 1.000000e+000
    outer loop
      vertex   8.621076e+001 8.033208e-001 1.181102e-001
      vertex   8.631644e+001 8.745310e-001 1.181102e-001
      vertex   8.596970e+001 1.108167e+000 1.181102e-001
    endloop
  endfacet
  facet normal 0.000000e+000 -0.000000e+000 1.000000e+000
    outer loop
      vertex   8.586402e+001 1.036956e+000 1.181102e-001
      vertex   8.596970e+001 1.108167e+000 1.181102e-001
      vertex   8.562296e+001 1.341802e+000 1.181102e-001
    endloop
  endfacet
  facet normal 0.000000e+000 -0.000000e+000 1.000000e+000
    outer loop
      vertex   8.551728e+001 1.270592e+000 1.181102e-001
      vertex   8.562296e+001 1.341802e+000 1.181102e-001
      vertex   8.544564e+001 1.459913e+000 1.181102e-001
    endloop
  endfacet
  facet normal -0.000000e+000 -0.000000e+000 1.000000e+000
    outer loop
      vertex   8.551728e+001 1.270592e+000 1.181102e-001
      vertex   8.586402e+001 1.036956e+000 1.181102e-001
      vertex   8.562296e+001 1.341802e+000 1.181102e-001
    endloop
  endfacet
  facet normal 0.000000e+000 0.000000e+000 1.000000e+000
    outer loop
      vertex   8.539917e+001 3.360495e-001 1.181102e-001
      vertex   8.505243e+001 5.696851e-001 1.181102e-001
      vertex   8.529348e+001 2.648393e-001 1.181102e-001
    endloop
  endfacet
  facet normal -0.000000e+000 -0.000000e+000 1.000000e+000
    outer loop
      vertex   8.586402e+001 1.036956e+000 1.181102e-001
      vertex   8.621076e+001 8.033208e-001 1.181102e-001
      vertex   8.596970e+001 1.108167e+000 1.181102e-001
    endloop
  endfacet
  facet normal 0.000000e+000 0.000000e+000 1.000000e+000
    outer loop
      vertex   8.621076e+001 8.033208e-001 1.181102e-001
      vertex   8.586402e+001 5.696851e-001 1.181102e-001
      vertex   8.596970e+001 4.984750e-001 1.181102e-001
    endloop
  endfacet
  facet normal 0.000000e+000 0.000000e+000 1.000000e+000
    outer loop
      vertex   8.586402e+001 5.696851e-001 1.181102e-001
      vertex   8.551728e+001 3.360495e-001 1.181102e-001
      vertex   8.562296e+001 2.648393e-001 1.181102e-001
    endloop
  endfacet
  facet normal 0.000000e+000 -0.000000e+000 1.000000e+000
    outer loop
      vertex   8.390652e+001 2.648393e-001 1.181102e-001
      vertex   8.425326e+001 4.984750e-001 1.181102e-001
      vertex   8.419001e+001 5.393054e-001 1.181102e-001
    endloop
  endfacet
  facet normal -0.000000e+000 0.000000e+000 1.000000e+000
    outer loop
      vertex   8.368273e+001 8.033208e-001 1.181102e-001
      vertex   8.368273e+001 1.467290e-001 1.181102e-001
      vertex   8.380084e+001 3.360495e-001 1.181102e-001
    endloop
  endfacet
  facet normal -0.000000e+000 0.000000e+000 1.000000e+000
    outer loop
      vertex   8.600673e+001 1.467290e-001 1.181102e-001
      vertex   8.600673e+001 1.127470e-002 1.181102e-001
      vertex   8.631644e+001 2.648393e-001 1.181102e-001
    endloop
  endfacet
  facet normal 0.000000e+000 -0.000000e+000 1.000000e+000
    outer loop
      vertex   8.664747e+001 1.127470e-002 1.181102e-001
      vertex   8.664747e+001 1.467290e-001 1.181102e-001
      vertex   8.631644e+001 2.648393e-001 1.181102e-001
    endloop
  endfacet
  facet normal -0.000000e+000 0.000000e+000 1.000000e+000
    outer loop
      vertex   8.631644e+001 2.648393e-001 1.181102e-001
      vertex   8.664747e+001 1.467290e-001 1.181102e-001
      vertex   8.700992e+001 2.648393e-001 1.181102e-001
    endloop
  endfacet
  facet normal 0.000000e+000 -0.000000e+000 1.000000e+000
    outer loop
      vertex   8.505243e+001 1.036956e+000 1.181102e-001
      vertex   8.529348e+001 1.341802e+000 1.181102e-001
      vertex   8.494674e+001 1.108167e+000 1.181102e-001
    endloop
  endfacet
  facet normal -0.000000e+000 0.000000e+000 -1.000000e+000
    outer loop
      vertex   8.723371e+001 1.459913e+000 0.000000e+000
      vertex   8.703686e+001 1.217537e+000 0.000000e+000
      vertex   8.700992e+001 1.341802e+000 0.000000e+000
    endloop
  endfacet
  facet normal -0.000000e+000 -0.000000e+000 -1.000000e+000
    outer loop
      vertex   8.664747e+001 1.459913e+000 0.000000e+000
      vertex   8.700992e+001 1.341802e+000 0.000000e+000
      vertex   8.631644e+001 1.341802e+000 0.000000e+000
    endloop
  endfacet
  facet normal -0.000000e+000 0.000000e+000 -1.000000e+000
    outer loop
      vertex   8.664747e+001 1.595367e+000 0.000000e+000
      vertex   8.631644e+001 1.341802e+000 0.000000e+000
      vertex   8.600673e+001 1.595367e+000 0.000000e+000
    endloop
  endfacet
  facet normal 0.000000e+000 -0.000000e+000 -1.000000e+000
    outer loop
      vertex   8.664747e+001 1.595367e+000 0.000000e+000
      vertex   8.664747e+001 1.459913e+000 0.000000e+000
      vertex   8.631644e+001 1.341802e+000 0.000000e+000
    endloop
  endfacet
  facet normal -0.000000e+000 0.000000e+000 -1.000000e+000
    outer loop
      vertex   8.700992e+001 1.341802e+000 0.000000e+000
      vertex   8.672643e+001 1.067336e+000 0.000000e+000
      vertex   8.666318e+001 1.108167e+000 0.000000e+000
    endloop
  endfacet
  facet normal 0.000000e+000 -0.000000e+000 -1.000000e+000
    outer loop
      vertex   8.700992e+001 1.341802e+000 0.000000e+000
      vertex   8.703686e+001 1.217537e+000 0.000000e+000
      vertex   8.672643e+001 1.067336e+000 0.000000e+000
    endloop
  endfacet
  facet normal 0.000000e+000 -0.000000e+000 -1.000000e+000
    outer loop
      vertex   8.672643e+001 1.067336e+000 0.000000e+000
      vertex   8.703686e+001 1.217537e+000 0.000000e+000
      vertex   8.642212e+001 8.033208e-001 0.000000e+000
    endloop
  endfacet
  facet normal -0.000000e+000 0.000000e+000 -1.000000e+000
    outer loop
      vertex   8.666318e+001 1.108167e+000 0.000000e+000
      vertex   8.642212e+001 8.033208e-001 0.000000e+000
      vertex   8.631644e+001 8.745310e-001 0.000000e+000
    endloop
  endfacet
  facet normal 0.000000e+000 -0.000000e+000 -1.000000e+000
    outer loop
      vertex   8.666318e+001 1.108167e+000 0.000000e+000
      vertex   8.672643e+001 1.067336e+000 0.000000e+000
      vertex   8.642212e+001 8.033208e-001 0.000000e+000
    endloop
  endfacet
  facet normal -0.000000e+000 -0.000000e+000 -1.000000e+000
    outer loop
      vertex   8.723371e+001 4.672007e-001 0.000000e+000
      vertex   8.723371e+001 1.467290e-001 0.000000e+000
      vertex   8.703686e+001 3.891051e-001 0.000000e+000
    endloop
  endfacet
  facet normal -0.000000e+000 0.000000e+000 -1.000000e+000
    outer loop
      vertex   8.709985e+001 4.672007e-001 0.000000e+000
      vertex   8.703686e+001 3.891051e-001 0.000000e+000
      vertex   8.703686e+001 8.033208e-001 0.000000e+000
    endloop
  endfacet
  facet normal -0.000000e+000 0.000000e+000 -1.000000e+000
    outer loop
      vertex   8.709985e+001 1.139441e+000 0.000000e+000
      vertex   8.703686e+001 8.033208e-001 0.000000e+000
      vertex   8.703686e+001 1.217537e+000 0.000000e+000
    endloop
  endfacet
  facet normal 0.000000e+000 0.000000e+000 -1.000000e+000
    outer loop
      vertex   8.723371e+001 1.139441e+000 0.000000e+000
      vertex   8.703686e+001 1.217537e+000 0.000000e+000
      vertex   8.723371e+001 1.459913e+000 0.000000e+000
    endloop
  endfacet
  facet normal -0.000000e+000 0.000000e+000 -1.000000e+000
    outer loop
      vertex   8.723371e+001 1.139441e+000 0.000000e+000
      vertex   8.709985e+001 1.139441e+000 0.000000e+000
      vertex   8.703686e+001 1.217537e+000 0.000000e+000
    endloop
  endfacet
  facet normal -0.000000e+000 0.000000e+000 -1.000000e+000
    outer loop
      vertex   8.703686e+001 3.891051e-001 0.000000e+000
      vertex   8.700992e+001 2.648393e-001 0.000000e+000
      vertex   8.672643e+001 5.393054e-001 0.000000e+000
    endloop
  endfacet
  facet normal 0.000000e+000 -0.000000e+000 -1.000000e+000
    outer loop
      vertex   8.642212e+001 8.033208e-001 0.000000e+000
      vertex   8.672643e+001 5.393054e-001 0.000000e+000
      vertex   8.666318e+001 4.984750e-001 0.000000e+000
    endloop
  endfacet
  facet normal 0.000000e+000 0.000000e+000 -1.000000e+000
    outer loop
      vertex   8.631644e+001 7.321106e-001 0.000000e+000
      vertex   8.642212e+001 8.033208e-001 0.000000e+000
      vertex   8.666318e+001 4.984750e-001 0.000000e+000
    endloop
  endfacet
  facet normal 0.000000e+000 0.000000e+000 -1.000000e+000
    outer loop
      vertex   8.631644e+001 7.321106e-001 0.000000e+000
      vertex   8.631644e+001 8.745310e-001 0.000000e+000
      vertex   8.642212e+001 8.033208e-001 0.000000e+000
    endloop
  endfacet
  facet normal 0.000000e+000 0.000000e+000 -1.000000e+000
    outer loop
      vertex   8.631644e+001 7.321106e-001 0.000000e+000
      vertex   8.621076e+001 8.033208e-001 0.000000e+000
      vertex   8.631644e+001 8.745310e-001 0.000000e+000
    endloop
  endfacet
  facet normal -0.000000e+000 0.000000e+000 -1.000000e+000
    outer loop
      vertex   8.631644e+001 7.321106e-001 0.000000e+000
      vertex   8.596970e+001 4.984750e-001 0.000000e+000
      vertex   8.621076e+001 8.033208e-001 0.000000e+000
    endloop
  endfacet
  facet normal -0.000000e+000 0.000000e+000 -1.000000e+000
    outer loop
      vertex   8.621076e+001 8.033208e-001 0.000000e+000
      vertex   8.596970e+001 4.984750e-001 0.000000e+000
      vertex   8.586402e+001 5.696851e-001 0.000000e+000
    endloop
  endfacet
  facet normal 0.000000e+000 -0.000000e+000 -1.000000e+000
    outer loop
      vertex   8.586402e+001 5.696851e-001 0.000000e+000
      vertex   8.596970e+001 4.984750e-001 0.000000e+000
      vertex   8.562296e+001 2.648393e-001 0.000000e+000
    endloop
  endfacet
  facet normal 0.000000e+000 -0.000000e+000 -1.000000e+000
    outer loop
      vertex   8.551728e+001 3.360495e-001 0.000000e+000
      vertex   8.562296e+001 2.648393e-001 0.000000e+000
      vertex   8.544564e+001 1.467290e-001 0.000000e+000
    endloop
  endfacet
  facet normal -0.000000e+000 -0.000000e+000 -1.000000e+000
    outer loop
      vertex   8.539917e+001 3.360495e-001 0.000000e+000
      vertex   8.544564e+001 1.467290e-001 0.000000e+000
      vertex   8.529348e+001 2.648393e-001 0.000000e+000
    endloop
  endfacet
  facet normal -0.000000e+000 -0.000000e+000 -1.000000e+000
    outer loop
      vertex   8.505243e+001 5.696851e-001 0.000000e+000
      vertex   8.529348e+001 2.648393e-001 0.000000e+000
      vertex   8.494674e+001 4.984750e-001 0.000000e+000
    endloop
  endfacet
  facet normal -0.000000e+000 -0.000000e+000 -1.000000e+000
    outer loop
      vertex   8.470569e+001 8.033208e-001 0.000000e+000
      vertex   8.494674e+001 4.984750e-001 0.000000e+000
      vertex   8.460000e+001 7.321106e-001 0.000000e+000
    endloop
  endfacet
  facet normal -0.000000e+000 -0.000000e+000 -1.000000e+000
    outer loop
      vertex   8.460000e+001 8.745310e-001 0.000000e+000
      vertex   8.460000e+001 7.321106e-001 0.000000e+000
      vertex   8.449432e+001 8.033208e-001 0.000000e+000
    endloop
  endfacet
  facet normal -0.000000e+000 -0.000000e+000 -1.000000e+000
    outer loop
      vertex   8.425326e+001 1.108167e+000 0.000000e+000
      vertex   8.449432e+001 8.033208e-001 0.000000e+000
      vertex   8.419001e+001 1.067336e+000 0.000000e+000
    endloop
  endfacet
  facet normal 0.000000e+000 -0.000000e+000 -1.000000e+000
    outer loop
      vertex   8.390652e+001 1.341802e+000 0.000000e+000
      vertex   8.419001e+001 1.067336e+000 0.000000e+000
      vertex   8.414758e+001 1.036956e+000 0.000000e+000
    endloop
  endfacet
  facet normal 0.000000e+000 0.000000e+000 -1.000000e+000
    outer loop
      vertex   8.380084e+001 1.270592e+000 0.000000e+000
      vertex   8.390652e+001 1.341802e+000 0.000000e+000
      vertex   8.414758e+001 1.036956e+000 0.000000e+000
    endloop
  endfacet
  facet normal 0.000000e+000 0.000000e+000 -1.000000e+000
    outer loop
      vertex   8.380084e+001 1.270592e+000 0.000000e+000
      vertex   8.368273e+001 1.459913e+000 0.000000e+000
      vertex   8.390652e+001 1.341802e+000 0.000000e+000
    endloop
  endfacet
  facet normal -0.000000e+000 0.000000e+000 -1.000000e+000
    outer loop
      vertex   8.380084e+001 1.270592e+000 0.000000e+000
      vertex   8.368273e+001 8.033208e-001 0.000000e+000
      vertex   8.368273e+001 1.459913e+000 0.000000e+000
    endloop
  endfacet
  facet normal 0.000000e+000 -0.000000e+000 -1.000000e+000
    outer loop
      vertex   8.380084e+001 1.270592e+000 0.000000e+000
      vertex   8.380084e+001 8.033208e-001 0.000000e+000
      vertex   8.368273e+001 8.033208e-001 0.000000e+000
    endloop
  endfacet
  facet normal 0.000000e+000 0.000000e+000 -1.000000e+000
    outer loop
      vertex   8.368273e+001 8.033208e-001 0.000000e+000
      vertex   8.380084e+001 8.033208e-001 0.000000e+000
      vertex   8.380084e+001 3.360495e-001 0.000000e+000
    endloop
  endfacet
  facet normal 0.000000e+000 0.000000e+000 -1.000000e+000
    outer loop
      vertex   8.368273e+001 1.467290e-001 0.000000e+000
      vertex   8.380084e+001 3.360495e-001 0.000000e+000
      vertex   8.390652e+001 2.648393e-001 0.000000e+000
    endloop
  endfacet
  facet normal 0.000000e+000 0.000000e+000 -1.000000e+000
    outer loop
      vertex   8.424381e+001 1.467290e-001 0.000000e+000
      vertex   8.390652e+001 2.648393e-001 0.000000e+000
      vertex   8.460000e+001 2.648393e-001 0.000000e+000
    endloop
  endfacet
  facet normal 0.000000e+000 0.000000e+000 -1.000000e+000
    outer loop
      vertex   8.424381e+001 1.127470e-002 0.000000e+000
      vertex   8.460000e+001 2.648393e-001 0.000000e+000
      vertex   8.488456e+001 1.127470e-002 0.000000e+000
    endloop
  endfacet
  facet normal 0.000000e+000 0.000000e+000 -1.000000e+000
    outer loop
      vertex   8.424381e+001 1.127470e-002 0.000000e+000
      vertex   8.424381e+001 1.467290e-001 0.000000e+000
      vertex   8.460000e+001 2.648393e-001 0.000000e+000
    endloop
  endfacet
  facet normal 0.000000e+000 -0.000000e+000 -1.000000e+000
    outer loop
      vertex   8.424381e+001 1.595367e+000 0.000000e+000
      vertex   8.488456e+001 1.595367e+000 0.000000e+000
      vertex   8.460000e+001 1.341802e+000 0.000000e+000
    endloop
  endfacet
  facet normal 0.000000e+000 -0.000000e+000 -1.000000e+000
    outer loop
      vertex   8.424381e+001 1.459913e+000 0.000000e+000
      vertex   8.460000e+001 1.341802e+000 0.000000e+000
      vertex   8.390652e+001 1.341802e+000 0.000000e+000
    endloop
  endfacet
  facet normal 0.000000e+000 -0.000000e+000 -1.000000e+000
    outer loop
      vertex   8.368273e+001 1.459913e+000 0.000000e+000
      vertex   8.424381e+001 1.459913e+000 0.000000e+000
      vertex   8.390652e+001 1.341802e+000 0.000000e+000
    endloop
  endfacet
  facet normal 0.000000e+000 0.000000e+000 -1.000000e+000
    outer loop
      vertex   8.449432e+001 8.033208e-001 0.000000e+000
      vertex   8.414758e+001 1.036956e+000 0.000000e+000
      vertex   8.419001e+001 1.067336e+000 0.000000e+000
    endloop
  endfacet
  facet normal 0.000000e+000 -0.000000e+000 -1.000000e+000
    outer loop
      vertex   8.380084e+001 3.360495e-001 0.000000e+000
      vertex   8.414758e+001 5.696851e-001 0.000000e+000
      vertex   8.390652e+001 2.648393e-001 0.000000e+000
    endloop
  endfacet
  facet normal 0.000000e+000 0.000000e+000 -1.000000e+000
    outer loop
      vertex   8.390652e+001 2.648393e-001 0.000000e+000
      vertex   8.414758e+001 5.696851e-001 0.000000e+000
      vertex   8.419001e+001 5.393054e-001 0.000000e+000
    endloop
  endfacet
  facet normal 0.000000e+000 0.000000e+000 -1.000000e+000
    outer loop
      vertex   8.425326e+001 4.984750e-001 0.000000e+000
      vertex   8.419001e+001 5.393054e-001 0.000000e+000
      vertex   8.449432e+001 8.033208e-001 0.000000e+000
    endloop
  endfacet
  facet normal -0.000000e+000 0.000000e+000 -1.000000e+000
    outer loop
      vertex   8.460000e+001 7.321106e-001 0.000000e+000
      vertex   8.425326e+001 4.984750e-001 0.000000e+000
      vertex   8.449432e+001 8.033208e-001 0.000000e+000
    endloop
  endfacet
  facet normal 0.000000e+000 -0.000000e+000 -1.000000e+000
    outer loop
      vertex   8.414758e+001 5.696851e-001 0.000000e+000
      vertex   8.449432e+001 8.033208e-001 0.000000e+000
      vertex   8.419001e+001 5.393054e-001 0.000000e+000
    endloop
  endfacet
  facet normal 0.000000e+000 0.000000e+000 -1.000000e+000
    outer loop
      vertex   8.544564e+001 1.467290e-001 0.000000e+000
      vertex   8.562296e+001 2.648393e-001 0.000000e+000
      vertex   8.600673e+001 1.467290e-001 0.000000e+000
    endloop
  endfacet
  facet normal 0.000000e+000 0.000000e+000 -1.000000e+000
    outer loop
      vertex   8.600673e+001 1.467290e-001 0.000000e+000
      vertex   8.562296e+001 2.648393e-001 0.000000e+000
      vertex   8.631644e+001 2.648393e-001 0.000000e+000
    endloop
  endfacet
  facet normal 0.000000e+000 0.000000e+000 -1.000000e+000
    outer loop
      vertex   8.600673e+001 1.127470e-002 0.000000e+000
      vertex   8.631644e+001 2.648393e-001 0.000000e+000
      vertex   8.664747e+001 1.127470e-002 0.000000e+000
    endloop
  endfacet
  facet normal 0.000000e+000 0.000000e+000 -1.000000e+000
    outer loop
      vertex   8.600673e+001 1.127470e-002 0.000000e+000
      vertex   8.600673e+001 1.467290e-001 0.000000e+000
      vertex   8.631644e+001 2.648393e-001 0.000000e+000
    endloop
  endfacet
  facet normal 0.000000e+000 0.000000e+000 -1.000000e+000
    outer loop
      vertex   8.664747e+001 1.127470e-002 0.000000e+000
      vertex   8.631644e+001 2.648393e-001 0.000000e+000
      vertex   8.664747e+001 1.467290e-001 0.000000e+000
    endloop
  endfacet
  facet normal 0.000000e+000 0.000000e+000 -1.000000e+000
    outer loop
      vertex   8.664747e+001 1.467290e-001 0.000000e+000
      vertex   8.631644e+001 2.648393e-001 0.000000e+000
      vertex   8.700992e+001 2.648393e-001 0.000000e+000
    endloop
  endfacet
  facet normal 0.000000e+000 0.000000e+000 -1.000000e+000
    outer loop
      vertex   8.723371e+001 1.467290e-001 0.000000e+000
      vertex   8.700992e+001 2.648393e-001 0.000000e+000
      vertex   8.703686e+001 3.891051e-001 0.000000e+000
    endloop
  endfacet
  facet normal 0.000000e+000 0.000000e+000 -1.000000e+000
    outer loop
      vertex   8.723371e+001 1.467290e-001 0.000000e+000
      vertex   8.664747e+001 1.467290e-001 0.000000e+000
      vertex   8.700992e+001 2.648393e-001 0.000000e+000
    endloop
  endfacet
  facet normal 0.000000e+000 0.000000e+000 -1.000000e+000
    outer loop
      vertex   8.700992e+001 2.648393e-001 0.000000e+000
      vertex   8.666318e+001 4.984750e-001 0.000000e+000
      vertex   8.672643e+001 5.393054e-001 0.000000e+000
    endloop
  endfacet
  facet normal -0.000000e+000 -0.000000e+000 -1.000000e+000
    outer loop
      vertex   8.642212e+001 8.033208e-001 0.000000e+000
      vertex   8.703686e+001 3.891051e-001 0.000000e+000
      vertex   8.672643e+001 5.393054e-001 0.000000e+000
    endloop
  endfacet
  facet normal -0.000000e+000 0.000000e+000 -1.000000e+000
    outer loop
      vertex   8.631644e+001 8.745310e-001 0.000000e+000
      vertex   8.621076e+001 8.033208e-001 0.000000e+000
      vertex   8.596970e+001 1.108167e+000 0.000000e+000
    endloop
  endfacet
  facet normal -0.000000e+000 -0.000000e+000 -1.000000e+000
    outer loop
      vertex   8.596970e+001 1.108167e+000 0.000000e+000
      vertex   8.621076e+001 8.033208e-001 0.000000e+000
      vertex   8.586402e+001 1.036956e+000 0.000000e+000
    endloop
  endfacet
  facet normal -0.000000e+000 -0.000000e+000 -1.000000e+000
    outer loop
      vertex   8.562296e+001 1.341802e+000 0.000000e+000
      vertex   8.586402e+001 1.036956e+000 0.000000e+000
      vertex   8.551728e+001 1.270592e+000 0.000000e+000
    endloop
  endfacet
  facet normal -0.000000e+000 -0.000000e+000 -1.000000e+000
    outer loop
      vertex   8.544564e+001 1.459913e+000 0.000000e+000
      vertex   8.551728e+001 1.270592e+000 0.000000e+000
      vertex   8.539917e+001 1.270592e+000 0.000000e+000
    endloop
  endfacet
  facet normal 0.000000e+000 -0.000000e+000 -1.000000e+000
    outer loop
      vertex   8.529348e+001 1.341802e+000 0.000000e+000
      vertex   8.539917e+001 1.270592e+000 0.000000e+000
      vertex   8.505243e+001 1.036956e+000 0.000000e+000
    endloop
  endfacet
  facet normal 0.000000e+000 -0.000000e+000 -1.000000e+000
    outer loop
      vertex   8.494674e+001 1.108167e+000 0.000000e+000
      vertex   8.505243e+001 1.036956e+000 0.000000e+000
      vertex   8.470569e+001 8.033208e-001 0.000000e+000
    endloop
  endfacet
  facet normal 0.000000e+000 -0.000000e+000 -1.000000e+000
    outer loop
      vertex   8.460000e+001 8.745310e-001 0.000000e+000
      vertex   8.470569e+001 8.033208e-001 0.000000e+000
      vertex   8.460000e+001 7.321106e-001 0.000000e+000
    endloop
  endfacet
  facet normal 0.000000e+000 -0.000000e+000 -1.000000e+000
    outer loop
      vertex   8.460000e+001 8.745310e-001 0.000000e+000
      vertex   8.494674e+001 1.108167e+000 0.000000e+000
      vertex   8.470569e+001 8.033208e-001 0.000000e+000
    endloop
  endfacet
  facet normal -0.000000e+000 -0.000000e+000 -1.000000e+000
    outer loop
      vertex   8.600673e+001 1.595367e+000 0.000000e+000
      vertex   8.631644e+001 1.341802e+000 0.000000e+000
      vertex   8.600673e+001 1.459913e+000 0.000000e+000
    endloop
  endfacet
  facet normal -0.000000e+000 -0.000000e+000 -1.000000e+000
    outer loop
      vertex   8.600673e+001 1.459913e+000 0.000000e+000
      vertex   8.631644e+001 1.341802e+000 0.000000e+000
      vertex   8.562296e+001 1.341802e+000 0.000000e+000
    endloop
  endfacet
  facet normal 0.000000e+000 -0.000000e+000 -1.000000e+000
    outer loop
      vertex   8.544564e+001 1.459913e+000 0.000000e+000
      vertex   8.562296e+001 1.341802e+000 0.000000e+000
      vertex   8.551728e+001 1.270592e+000 0.000000e+000
    endloop
  endfacet
  facet normal 0.000000e+000 -0.000000e+000 -1.000000e+000
    outer loop
      vertex   8.544564e+001 1.459913e+000 0.000000e+000
      vertex   8.600673e+001 1.459913e+000 0.000000e+000
      vertex   8.562296e+001 1.341802e+000 0.000000e+000
    endloop
  endfacet
  facet normal 0.000000e+000 -0.000000e+000 -1.000000e+000
    outer loop
      vertex   8.470569e+001 8.033208e-001 0.000000e+000
      vertex   8.505243e+001 5.696851e-001 0.000000e+000
      vertex   8.494674e+001 4.984750e-001 0.000000e+000
    endloop
  endfacet
  facet normal 0.000000e+000 -0.000000e+000 -1.000000e+000
    outer loop
      vertex   8.505243e+001 5.696851e-001 0.000000e+000
      vertex   8.539917e+001 3.360495e-001 0.000000e+000
      vertex   8.529348e+001 2.648393e-001 0.000000e+000
    endloop
  endfacet
  facet normal 0.000000e+000 0.000000e+000 -1.000000e+000
    outer loop
      vertex   8.544564e+001 1.467290e-001 0.000000e+000
      vertex   8.539917e+001 3.360495e-001 0.000000e+000
      vertex   8.551728e+001 3.360495e-001 0.000000e+000
    endloop
  endfacet
  facet normal 0.000000e+000 0.000000e+000 -1.000000e+000
    outer loop
      vertex   8.551728e+001 3.360495e-001 0.000000e+000
      vertex   8.539917e+001 3.360495e-001 0.000000e+000
      vertex   8.539917e+001 8.033208e-001 0.000000e+000
    endloop
  endfacet
  facet normal 0.000000e+000 0.000000e+000 -1.000000e+000
    outer loop
      vertex   8.551728e+001 8.033208e-001 0.000000e+000
      vertex   8.539917e+001 8.033208e-001 0.000000e+000
      vertex   8.539917e+001 1.270592e+000 0.000000e+000
    endloop
  endfacet
  facet normal -0.000000e+000 -0.000000e+000 -1.000000e+000
    outer loop
      vertex   8.551728e+001 1.270592e+000 0.000000e+000
      vertex   8.551728e+001 8.033208e-001 0.000000e+000
      vertex   8.539917e+001 1.270592e+000 0.000000e+000
    endloop
  endfacet
  facet normal -0.000000e+000 -0.000000e+000 -1.000000e+000
    outer loop
      vertex   8.551728e+001 8.033208e-001 0.000000e+000
      vertex   8.551728e+001 3.360495e-001 0.000000e+000
      vertex   8.539917e+001 8.033208e-001 0.000000e+000
    endloop
  endfacet
  facet normal 0.000000e+000 -0.000000e+000 -1.000000e+000
    outer loop
      vertex   8.551728e+001 3.360495e-001 0.000000e+000
      vertex   8.586402e+001 5.696851e-001 0.000000e+000
      vertex   8.562296e+001 2.648393e-001 0.000000e+000
    endloop
  endfacet
  facet normal -0.000000e+000 0.000000e+000 -1.000000e+000
    outer loop
      vertex   8.425326e+001 4.984750e-001 0.000000e+000
      vertex   8.390652e+001 2.648393e-001 0.000000e+000
      vertex   8.419001e+001 5.393054e-001 0.000000e+000
    endloop
  endfacet
  facet normal 0.000000e+000 0.000000e+000 -1.000000e+000
    outer loop
      vertex   8.488456e+001 1.127470e-002 0.000000e+000
      vertex   8.460000e+001 2.648393e-001 0.000000e+000
      vertex   8.488456e+001 1.467290e-001 0.000000e+000
    endloop
  endfacet
  facet normal 0.000000e+000 0.000000e+000 -1.000000e+000
    outer loop
      vertex   8.488456e+001 1.467290e-001 0.000000e+000
      vertex   8.460000e+001 2.648393e-001 0.000000e+000
      vertex   8.529348e+001 2.648393e-001 0.000000e+000
    endloop
  endfacet
  facet normal -0.000000e+000 0.000000e+000 -1.000000e+000
    outer loop
      vertex   8.544564e+001 1.467290e-001 0.000000e+000
      vertex   8.488456e+001 1.467290e-001 0.000000e+000
      vertex   8.529348e+001 2.648393e-001 0.000000e+000
    endloop
  endfacet
  facet normal -0.000000e+000 0.000000e+000 -1.000000e+000
    outer loop
      vertex   8.544564e+001 1.459913e+000 0.000000e+000
      vertex   8.529348e+001 1.341802e+000 0.000000e+000
      vertex   8.488456e+001 1.459913e+000 0.000000e+000
    endloop
  endfacet
  facet normal -0.000000e+000 0.000000e+000 -1.000000e+000
    outer loop
      vertex   8.544564e+001 1.459913e+000 0.000000e+000
      vertex   8.539917e+001 1.270592e+000 0.000000e+000
      vertex   8.529348e+001 1.341802e+000 0.000000e+000
    endloop
  endfacet
  facet normal 0.000000e+000 -0.000000e+000 -1.000000e+000
    outer loop
      vertex   8.664747e+001 1.459913e+000 0.000000e+000
      vertex   8.723371e+001 1.459913e+000 0.000000e+000
      vertex   8.700992e+001 1.341802e+000 0.000000e+000
    endloop
  endfacet
  facet normal -0.000000e+000 -0.000000e+000 -1.000000e+000
    outer loop
      vertex   8.709985e+001 1.139441e+000 0.000000e+000
      vertex   8.709985e+001 4.672007e-001 0.000000e+000
      vertex   8.703686e+001 8.033208e-001 0.000000e+000
    endloop
  endfacet
  facet normal 0.000000e+000 -0.000000e+000 -1.000000e+000
    outer loop
      vertex   8.709985e+001 4.672007e-001 0.000000e+000
      vertex   8.723371e+001 4.672007e-001 0.000000e+000
      vertex   8.703686e+001 3.891051e-001 0.000000e+000
    endloop
  endfacet
  facet normal -0.000000e+000 0.000000e+000 -1.000000e+000
    outer loop
      vertex   8.424381e+001 1.467290e-001 0.000000e+000
      vertex   8.368273e+001 1.467290e-001 0.000000e+000
      vertex   8.390652e+001 2.648393e-001 0.000000e+000
    endloop
  endfacet
  facet normal 0.000000e+000 0.000000e+000 -1.000000e+000
    outer loop
      vertex   8.368273e+001 1.467290e-001 0.000000e+000
      vertex   8.368273e+001 8.033208e-001 0.000000e+000
      vertex   8.380084e+001 3.360495e-001 0.000000e+000
    endloop
  endfacet
  facet normal 0.000000e+000 0.000000e+000 -1.000000e+000
    outer loop
      vertex   8.424381e+001 1.459913e+000 0.000000e+000
      vertex   8.424381e+001 1.595367e+000 0.000000e+000
      vertex   8.460000e+001 1.341802e+000 0.000000e+000
    endloop
  endfacet
  facet normal 0.000000e+000 -0.000000e+000 -1.000000e+000
    outer loop
      vertex   8.488456e+001 1.595367e+000 0.000000e+000
      vertex   8.488456e+001 1.459913e+000 0.000000e+000
      vertex   8.460000e+001 1.341802e+000 0.000000e+000
    endloop
  endfacet
  facet normal 0.000000e+000 0.000000e+000 -1.000000e+000
    outer loop
      vertex   8.460000e+001 1.341802e+000 0.000000e+000
      vertex   8.488456e+001 1.459913e+000 0.000000e+000
      vertex   8.529348e+001 1.341802e+000 0.000000e+000
    endloop
  endfacet
  facet normal -0.000000e+000 0.000000e+000 -1.000000e+000
    outer loop
      vertex   8.460000e+001 8.745310e-001 0.000000e+000
      vertex   8.449432e+001 8.033208e-001 0.000000e+000
      vertex   8.425326e+001 1.108167e+000 0.000000e+000
    endloop
  endfacet
  facet normal 0.000000e+000 0.000000e+000 -1.000000e+000
    outer loop
      vertex   8.586402e+001 1.036956e+000 0.000000e+000
      vertex   8.562296e+001 1.341802e+000 0.000000e+000
      vertex   8.596970e+001 1.108167e+000 0.000000e+000
    endloop
  endfacet
  facet normal 0.000000e+000 0.000000e+000 -1.000000e+000
    outer loop
      vertex   8.419001e+001 1.067336e+000 0.000000e+000
      vertex   8.390652e+001 1.341802e+000 0.000000e+000
      vertex   8.425326e+001 1.108167e+000 0.000000e+000
    endloop
  endfacet
  facet normal -0.000000e+000 0.000000e+000 -1.000000e+000
    outer loop
      vertex   8.529348e+001 1.341802e+000 0.000000e+000
      vertex   8.505243e+001 1.036956e+000 0.000000e+000
      vertex   8.494674e+001 1.108167e+000 0.000000e+000
    endloop
  endfacet
endsolid
